<svg xmlns="http://www.w3.org/2000/svg" width="365.66" height="399.303" viewBox="0 0 365.66 399.303">
  <g id="Grupo_54818" data-name="Grupo 54818" transform="translate(-302.839 -284.581)">
    <g id="Grupo_54737" data-name="Grupo 54737" transform="translate(561.471 284.581)">
      <path id="Trazado_100841" data-name="Trazado 100841" d="M511.342,346.639c-7.115-11.17-20.065-2.356-28.816,7.211-35.821-9.9-42.933-27.532-51.59-50.292-3.4,5.807-2.293,12.7,1.441,22.37-5.812-5.371-8.986-11.546-12.178-19.394-3.407,8.26-.649,17.8,8.211,26.52-8.834-4.952-11.2-7.589-16.057-14.522,1.184,11.267,2.182,15.142,12.989,22.912-5.136-1.92-7.025-2.419-12.81-5.954,2.8,9.306,6.6,11.841,16.779,15.335-5.795-.552-6.933-.383-14.657-2.293,4.729,7.221,13.134,9.776,20.522,10.773-4.693,0-9.923,0-14.706-.184,3.3,3.48,11.267,7.62,21.83,7.579-3.271,1.271-7.381,1.794-12.267,1.986,6.337,4.664,11.149,4.146,18.49,3.877-3.172,1.361-6.417,2.126-9.65,3.337,7.625,2.63,14.58,1.758,20.2.993l-6.855,2.978a27.829,27.829,0,0,0,11.308-1.233,21.989,21.989,0,0,1-6.078,3.623c-8.683,3.4-27.535-1.932-47.808-7.4,5.809,8.979,17.166,11.885,29.4,13.711-9.863.242-17.892-3.017-26.879-6.4,6.763,17.328,24.263,17.287,42.032,12.447a23.374,23.374,0,0,1,5.243-.872c13.529-.538,24.552,1.024,33.957-10.943,9.938-12.64,4.208-28.3,16.73-32.114l.029-.1c3.194.334,4.238.942,6.511,2.848-.47-3.816-1.47-5.252-5.322-6.812l-.01.01Zm-6.485-2.221a1.489,1.489,0,1,1-1.487,1.489,1.488,1.488,0,0,1,1.487-1.489Zm-14.623-2.024c-4.966,3.124-8.419,7.926-9.214,7.7-12.292-3.518-20.8-7.623-27.271-13.129a20.138,20.138,0,0,1-1.2-6.848c3.116,3.768,6.027,6.717,9.022,8.545-6.443-8.369-7.988-17.212-7.226-21.946,2.758,3.908,5.933,8.066,8.78,11.8-3.693-6.477-6.761-14.706-3.894-22.847,3.17,7.3,4,8.1,7.073,13.04-3.4-10.211-3.693-14.769,2.005-22.643.7,6.744,1.453,8.548,3.044,13.8-.383-13.3,2.09-16.447,10.328-24.229-2.564,8.068-3.223,11.551-1.8,21.576,1.557-12.333,7.463-20.316,16.1-22.619-4.3,7.3-7.281,13.57-8.025,21.45,5.419-8.836,10.224-13.9,16.9-14.725C494.856,307.433,486.763,320.915,490.233,342.394Z" transform="translate(-409.646 -284.581)" fill="#ffca59" fill-rule="evenodd"/>
    </g>
    <g id="Grupo_54817" data-name="Grupo 54817" transform="translate(302.839 350.905)">
      <g id="Grupo_54755" data-name="Grupo 54755" transform="translate(78.549)">
        <g id="Grupo_54738" data-name="Grupo 54738">
          <rect id="Rectángulo_5373" data-name="Rectángulo 5373" width="213.408" height="246.264" fill="#a59386"/>
        </g>
        <g id="Grupo_54739" data-name="Grupo 54739" transform="translate(106.707)">
          <rect id="Rectángulo_5374" data-name="Rectángulo 5374" width="106.702" height="246.264" fill="#8d7869"/>
        </g>
        <g id="Grupo_54740" data-name="Grupo 54740" transform="translate(26.478 24.627)">
          <rect id="Rectángulo_5375" data-name="Rectángulo 5375" width="160.455" height="197.011" fill="#969696"/>
        </g>
        <g id="Grupo_54741" data-name="Grupo 54741" transform="translate(106.707 24.627)">
          <rect id="Rectángulo_5376" data-name="Rectángulo 5376" width="80.226" height="197.011" fill="#707070"/>
        </g>
        <g id="Grupo_54753" data-name="Grupo 54753" transform="translate(27.536 59.794)">
          <g id="Grupo_54742" data-name="Grupo 54742" transform="translate(23.154 64.669)">
            <path id="Trazado_100842" data-name="Trazado 100842" d="M412.227,427.479H382.261a79.792,79.792,0,0,1-26.05-17.212c.463-29.026,32.465-12.158,40.005-32.872,1.417-3.894,1.482-10,.581-14.025l15.43.3,15.43-.3c-.9,4.025-.838,10.132.579,14.025,7.541,20.714,39.543,3.845,40.006,32.872a79.757,79.757,0,0,1-26.048,17.212Z" transform="translate(-356.211 -363.37)" fill="#f0c17d" fill-rule="evenodd"/>
          </g>
          <g id="Grupo_54743" data-name="Grupo 54743" transform="translate(79.168 64.669)">
            <path id="Trazado_100843" data-name="Trazado 100843" d="M379.343,427.479h29.966a79.742,79.742,0,0,0,26.05-17.212c-.463-29.026-32.467-12.158-40.008-32.872-1.417-3.894-1.477-10-.579-14.025l-15.43.3Z" transform="translate(-379.343 -363.37)" fill="#e0af6a" fill-rule="evenodd"/>
          </g>
          <g id="Grupo_54744" data-name="Grupo 54744" transform="translate(52.764 12.899)">
            <path id="Trazado_100844" data-name="Trazado 100844" d="M395.25,403.117c-.087.007-.174.007-.264.007-3.238.022-4.85-.029-6.611-.775-1.7-.724-2.528-2.392-4.87-4.649-1.99-1.915-5.565-3.87-6.434-5.959-1.061-2.543-.809-5.31-1.259-9.008-1.848,1.015-3.826-4.271-4.218-6.005-.579-2.56-2.422-6.913-3-9.834-.332-1.671-.131-3,.433-3.419,1.23-.918,2.5-.378,4.361,2.225a49.162,49.162,0,0,1,.31-9.49c2.55-14.626,38.3-22.825,42.3-.068a49.356,49.356,0,0,1,.329,9.509c1.843-2.562,3.1-3.087,4.327-2.177.562.419.763,1.748.433,3.419-.576,2.92-2.419,7.274-3,9.834-.387,1.714-2.325,6.9-4.153,6.034-.4,3.586-.186,6.284-1.213,8.785-.867,2.1-4.414,4.078-6.393,6.015-2.332,2.283-3.153,3.954-4.843,4.707C399.8,403.006,398.246,403.108,395.25,403.117Z" transform="translate(-368.439 -341.991)" fill="#ffdba7" fill-rule="evenodd"/>
          </g>
          <g id="Grupo_54745" data-name="Grupo 54745" transform="translate(79.168 12.902)">
            <path id="Trazado_100845" data-name="Trazado 100845" d="M379.747,403.116c-.087.007-.174.007-.264.007l-.14,0V342.106c9.582-.843,19.193,2.867,21.157,14.035a49.376,49.376,0,0,1,.327,9.509c1.845-2.562,3.1-3.087,4.33-2.177.562.419.763,1.748.433,3.419-.576,2.92-2.417,7.274-3,9.834-.387,1.714-2.325,6.9-4.153,6.034-.407,3.586-.186,6.284-1.213,8.785-.869,2.1-4.417,4.078-6.393,6.015-2.332,2.283-3.153,3.954-4.843,4.707C384.3,403,382.743,403.106,379.747,403.116Z" transform="translate(-379.343 -341.992)" fill="#f0c17d" fill-rule="evenodd"/>
          </g>
          <g id="Grupo_54746" data-name="Grupo 54746" transform="translate(54.921)">
            <path id="Trazado_100846" data-name="Trazado 100846" d="M377.35,360.122c-3.032,3.627-3.761,17.781-3.55,22.694-5.124-18.59-7.877-31.864,3.247-40.226,14.6-10.972,31-4.184,33.656.291,10.727,5.928,7,22.6,3.778,37.332-.08-5.666-2.77-19.212-4.872-24.939C401.439,350.138,392.988,367.323,377.35,360.122Z" transform="translate(-369.33 -336.664)" fill="#9c7217" fill-rule="evenodd"/>
          </g>
          <g id="Grupo_54747" data-name="Grupo 54747" transform="translate(79.168 0.001)">
            <path id="Trazado_100847" data-name="Trazado 100847" d="M379.343,336.676c8.526-.245,15.476,3.426,17.127,6.2,10.727,5.928,7,22.6,3.778,37.332-.08-5.666-2.77-19.212-4.872-24.939-6.243-2.751-10.7,2.637-16.033,4.562Z" transform="translate(-379.343 -336.664)" fill="#785710" fill-rule="evenodd"/>
          </g>
          <g id="Grupo_54748" data-name="Grupo 54748" transform="translate(0 81.596)">
            <path id="Trazado_100848" data-name="Trazado 100848" d="M406.753,370.36c-7.582,6.291-20.534,5.6-30.489,10.926-6.032,3.233-7.955,7.235-10.6,14.81l-19.018,54.513H483.706c-.286-18.282,3.768-54.508-1.395-62.082-9.347-13.723-27.574-9.977-37.427-18.164L425.82,386.826Z" transform="translate(-346.649 -370.36)" fill="#d1cfda" fill-rule="evenodd"/>
          </g>
          <g id="Grupo_54749" data-name="Grupo 54749" transform="translate(79.168 81.596)">
            <path id="Trazado_100849" data-name="Trazado 100849" d="M398.41,370.36c7.584,6.291,20.534,5.6,30.489,10.926,6.032,3.233,7.955,7.235,10.6,14.81l19.016,54.513H379.343V386.824l0,0Z" transform="translate(-379.343 -370.36)" fill="#96a2c3" fill-rule="evenodd"/>
          </g>
          <g id="Grupo_54752" data-name="Grupo 54752" transform="translate(28.357 123.169)">
            <g id="Grupo_54750" data-name="Grupo 54750">
              <path id="Trazado_100850" data-name="Trazado 100850" d="M371.079,387.528,358.359,426.2h7.4Z" transform="translate(-358.359 -387.528)" fill="#96a2c3" fill-rule="evenodd"/>
            </g>
            <g id="Grupo_54751" data-name="Grupo 54751" transform="translate(88.905)">
              <path id="Trazado_100851" data-name="Trazado 100851" d="M395.074,387.528l12.72,38.675h-7.4Z" transform="translate(-395.074 -387.528)" fill="#96a2c3" fill-rule="evenodd"/>
            </g>
          </g>
        </g>
        <g id="Grupo_54754" data-name="Grupo 54754">
          <path id="Trazado_100852" data-name="Trazado 100852" d="M440.851,312.1l-.13-.128H405.6l-70.327,70.836v35.637Z" transform="translate(-335.277 -311.971)" fill="#292929" fill-rule="evenodd"/>
        </g>
      </g>
      <g id="Grupo_54768" data-name="Grupo 54768" transform="translate(0 91.991)">
        <g id="Grupo_54756" data-name="Grupo 54756" transform="translate(23.219 21.743)">
          <path id="Trazado_100853" data-name="Trazado 100853" d="M356.918,358.939c21.239,0,39.127,13.059,44.49,30.838h-88.98C317.792,372,335.677,358.939,356.918,358.939Z" transform="translate(-312.428 -358.939)" fill="#4f4f4f" fill-rule="evenodd"/>
        </g>
        <g id="Grupo_54757" data-name="Grupo 54757" transform="translate(27.939 43.523)">
          <rect id="Rectángulo_5377" data-name="Rectángulo 5377" width="79.54" height="26.433" fill="#292929"/>
        </g>
        <g id="Grupo_54758" data-name="Grupo 54758" transform="translate(57.266)">
          <path id="Trazado_100854" data-name="Trazado 100854" d="M336.934,349.96c2.368,4.288,8.044,8.657,9.916,13.357,1.574,3.954.015,11.844-9.916,10.885-9.935.959-11.49-6.93-9.916-10.885C328.887,358.617,334.561,354.248,336.934,349.96Z" transform="translate(-326.488 -349.96)" fill="#707070" fill-rule="evenodd"/>
        </g>
        <g id="Grupo_54759" data-name="Grupo 54759" transform="translate(0 65.845)">
          <path id="Trazado_100855" data-name="Trazado 100855" d="M370.551,377.152c32.85,1.015,49.139-2.736,58.961,7.8,16.679,17.9,6.785,40.216-7.022,58.721-12.56,16.834-12.347,22.806-5.5,40.7H324.111c6.843-17.892,7.059-23.864-5.5-40.7-13.81-18.505-23.7-40.819-7.022-58.721C321.409,374.416,337.7,378.167,370.551,377.152Z" transform="translate(-302.839 -377.152)" fill="#4f4f4f" fill-rule="evenodd"/>
        </g>
        <g id="Grupo_54760" data-name="Grupo 54760" transform="translate(14.445 171.034)">
          <rect id="Rectángulo_5378" data-name="Rectángulo 5378" width="106.529" height="33.362" rx="1.855" fill="#707070"/>
        </g>
        <g id="Grupo_54761" data-name="Grupo 54761" transform="translate(20.542 43.523)">
          <path id="Rectángulo_5379" data-name="Rectángulo 5379" d="M.982,0H93.352a.982.982,0,0,1,.982.982V13.7a.982.982,0,0,1-.982.982H.981A.981.981,0,0,1,0,13.7V.982A.982.982,0,0,1,.982,0Z" fill="#707070"/>
        </g>
        <g id="Grupo_54762" data-name="Grupo 54762" transform="translate(67.712 21.743)">
          <path id="Trazado_100856" data-name="Trazado 100856" d="M330.8,358.939c21.236,0,39.124,13.062,44.488,30.838H330.8Z" transform="translate(-330.802 -358.939)" fill="#292929" fill-rule="evenodd"/>
        </g>
        <g id="Grupo_54763" data-name="Grupo 54763" transform="translate(67.711 43.523)">
          <rect id="Rectángulo_5380" data-name="Rectángulo 5380" width="39.768" height="26.433" fill="#171717"/>
        </g>
        <g id="Grupo_54764" data-name="Grupo 54764" transform="translate(67.712)">
          <path id="Trazado_100857" data-name="Trazado 100857" d="M330.8,349.96c2.368,4.288,8.044,8.657,9.916,13.357,1.574,3.954.015,11.844-9.916,10.885Z" transform="translate(-330.802 -349.96)" fill="#4f4f4f" fill-rule="evenodd"/>
        </g>
        <g id="Grupo_54765" data-name="Grupo 54765" transform="translate(67.712 65.845)">
          <path id="Trazado_100858" data-name="Trazado 100858" d="M330.8,377.152c32.85,1.015,49.139-2.736,58.961,7.8,16.679,17.9,6.785,40.216-7.022,58.721-12.56,16.834-12.347,22.806-5.5,40.7H330.8Z" transform="translate(-330.802 -377.152)" fill="#292929" fill-rule="evenodd"/>
        </g>
        <g id="Grupo_54766" data-name="Grupo 54766" transform="translate(67.712 171.035)">
          <path id="Trazado_100859" data-name="Trazado 100859" d="M330.8,420.592h48.771a4.5,4.5,0,0,1,4.492,4.489v24.382a4.5,4.5,0,0,1-4.492,4.489H330.8Z" transform="translate(-330.802 -420.592)" fill="#4f4f4f" fill-rule="evenodd"/>
        </g>
        <g id="Grupo_54767" data-name="Grupo 54767" transform="translate(67.712 43.524)">
          <path id="Trazado_100860" data-name="Trazado 100860" d="M330.8,367.934h44.785a2.385,2.385,0,0,1,2.378,2.378v9.928a2.385,2.385,0,0,1-2.378,2.378H330.8Z" transform="translate(-330.802 -367.934)" fill="#4f4f4f" fill-rule="evenodd"/>
        </g>
      </g>
      <g id="Grupo_54775" data-name="Grupo 54775" transform="translate(280.665 104.256)">
        <g id="Grupo_54769" data-name="Grupo 54769" transform="translate(18.677 56.402)">
          <rect id="Rectángulo_5381" data-name="Rectángulo 5381" width="5.304" height="19.131" rx="1.095" fill="#4f4f4f"/>
        </g>
        <g id="Grupo_54770" data-name="Grupo 54770" transform="translate(21.331 56.401)">
          <path id="Trazado_100861" data-name="Trazado 100861" d="M427.554,397.449a2.66,2.66,0,0,0,2.651-2.652V380.969a2.662,2.662,0,0,0-2.651-2.652Z" transform="translate(-427.554 -378.317)" fill="#292929" fill-rule="evenodd"/>
        </g>
        <g id="Grupo_54771" data-name="Grupo 54771" transform="translate(0 70.863)">
          <rect id="Rectángulo_5382" data-name="Rectángulo 5382" width="42.658" height="96.68" fill="#cdf2fa"/>
        </g>
        <g id="Grupo_54772" data-name="Grupo 54772" transform="translate(21.33 70.863)">
          <rect id="Rectángulo_5383" data-name="Rectángulo 5383" width="21.328" height="96.68" fill="#a6d5e0"/>
        </g>
        <g id="Grupo_54773" data-name="Grupo 54773" transform="translate(4.92)">
          <path id="Trazado_100862" data-name="Trazado 100862" d="M423.184,388.325c5.62-9.737,23.723-12.226,23.367-33.3,16.638,18.2,24.457,58.612-9.55,65.727C429.817,422.255,414.975,402.542,423.184,388.325Z" transform="translate(-420.777 -355.025)" fill="#f1cf30" fill-rule="evenodd"/>
        </g>
        <g id="Grupo_54774" data-name="Grupo 54774" transform="translate(14.126 22.515)">
          <path id="Trazado_100863" data-name="Trazado 100863" d="M426.383,383.981c3.913-6.049,14.374-6.206,17.856-19.658,6.073,16.754,1.957,34.719-12.778,37.8C428.352,402.774,421.262,391.9,426.383,383.981Z" transform="translate(-424.579 -364.323)" fill="#f3e635" fill-rule="evenodd"/>
        </g>
      </g>
      <g id="Grupo_54816" data-name="Grupo 54816" transform="translate(164.138 187.899)">
        <g id="Grupo_54776" data-name="Grupo 54776" transform="translate(6.888 29.227)">
          <path id="Trazado_100864" data-name="Trazado 100864" d="M482.348,451.987l-72.751,29-19.128,32.234-4.119-3.859,16.515-26.126-.177-.168-25.1,18.083-4.119-3.862L404.4,476.117l24.225-74.48,4.857,1.586L410.5,473.865l1.355-.5-.411,1.384,69-27.509Z" transform="translate(-373.468 -401.637)" fill="#608a0c" fill-rule="evenodd"/>
        </g>
        <g id="Grupo_54777" data-name="Grupo 54777" transform="translate(19.769 74.831)">
          <path id="Trazado_100865" data-name="Trazado 100865" d="M474.786,425.216l-72.751,29-19.128,32.234-4.119-3.859,15.456-25.27,10.05-10.724-.409,1.379,69-27.509Z" transform="translate(-378.787 -420.47)" fill="#4b6b0a" fill-rule="evenodd"/>
        </g>
        <g id="Grupo_54806" data-name="Grupo 54806" transform="translate(30.692)">
          <g id="Grupo_54791" data-name="Grupo 54791" transform="translate(47.57 44.577)">
            <g id="Grupo_54784" data-name="Grupo 54784" transform="translate(2.778 4.263)">
              <g id="Grupo_54780" data-name="Grupo 54780" transform="translate(32.394)">
                <g id="Grupo_54778" data-name="Grupo 54778" transform="translate(3.432 28.985)">
                  <path id="Trazado_100866" data-name="Trazado 100866" d="M421.146,426.047c-3.979,5.177-2.569,12.938,3.146,17.331s13.582,3.761,17.561-1.417,2.572-12.938-3.146-17.333S425.13,420.868,421.146,426.047Z" transform="translate(-418.885 -421.706)" fill="#e3e3e3" fill-rule="evenodd"/>
                </g>
                <g id="Grupo_54779" data-name="Grupo 54779">
                  <path id="Trazado_100867" data-name="Trazado 100867" d="M421.808,432.706c5.18,3.979,12.94,2.569,17.333-3.145S442.9,415.98,437.722,412s-12.938-2.572-17.331,3.146S416.631,428.725,421.808,432.706Z" transform="translate(-417.468 -409.737)" fill="#e3e3e3" fill-rule="evenodd"/>
                </g>
              </g>
              <g id="Grupo_54783" data-name="Grupo 54783" transform="translate(0 4.513)">
                <g id="Grupo_54781" data-name="Grupo 54781">
                  <path id="Trazado_100868" data-name="Trazado 100868" d="M427.055,431.856c3.983-5.18,2.574-12.938-3.143-17.333s-13.58-3.761-17.561,1.419-2.569,12.938,3.146,17.333S423.079,437.035,427.055,431.856Z" transform="translate(-404.09 -411.6)" fill="#e3e3e3" fill-rule="evenodd"/>
                </g>
                <g id="Grupo_54782" data-name="Grupo 54782" transform="translate(4.067 28.35)">
                  <path id="Trazado_100869" data-name="Trazado 100869" d="M426.024,425.57c-5.177-3.979-12.938-2.572-17.331,3.146s-3.761,13.58,1.419,17.558,12.936,2.574,17.331-3.145S431.2,429.551,426.024,425.57Z" transform="translate(-405.77 -423.308)" fill="#e3e3e3" fill-rule="evenodd"/>
                </g>
              </g>
            </g>
            <g id="Grupo_54787" data-name="Grupo 54787" transform="translate(18.809)">
              <g id="Grupo_54785" data-name="Grupo 54785" transform="translate(5.301 40.543)">
                <path id="Trazado_100870" data-name="Trazado 100870" d="M423.057,424.811c-6.477.845-10.967,7.327-10.035,14.478s6.942,12.262,13.42,11.412,10.969-7.327,10.032-14.478S429.532,423.961,423.057,424.811Z" transform="translate(-412.899 -424.719)" fill="#f0f0f0" fill-rule="evenodd"/>
              </g>
              <g id="Grupo_54786" data-name="Grupo 54786">
                <path id="Trazado_100871" data-name="Trazado 100871" d="M424.251,433.961c6.477-.845,10.969-7.33,10.032-14.478s-6.942-12.262-13.42-11.415-10.965,7.33-10.03,14.48S417.776,434.809,424.251,433.961Z" transform="translate(-410.71 -407.976)" fill="#f0f0f0" fill-rule="evenodd"/>
              </g>
            </g>
            <g id="Grupo_54788" data-name="Grupo 54788" transform="translate(40.541 18.81)">
              <path id="Trazado_100872" data-name="Trazado 100872" d="M419.777,429.285c.845,6.478,7.33,10.967,14.478,10.035s12.262-6.945,11.415-13.42-7.33-10.969-14.48-10.032S418.929,422.81,419.777,429.285Z" transform="translate(-419.685 -415.744)" fill="#f0f0f0" fill-rule="evenodd"/>
            </g>
            <g id="Grupo_54789" data-name="Grupo 54789" transform="translate(0 24.111)">
              <path id="Trazado_100873" data-name="Trazado 100873" d="M428.926,428.089c-.848-6.475-7.327-10.967-14.481-10.032s-12.26,6.945-11.41,13.417,7.327,10.969,14.478,10.035S429.776,434.566,428.926,428.089Z" transform="translate(-402.943 -417.933)" fill="#f0f0f0" fill-rule="evenodd"/>
            </g>
            <g id="Grupo_54790" data-name="Grupo 54790" transform="translate(22.64 22.642)">
              <path id="Trazado_100874" data-name="Trazado 100874" d="M433.535,426.609a10.666,10.666,0,1,1-11.957-9.192A10.669,10.669,0,0,1,433.535,426.609Z" transform="translate(-412.292 -417.326)" fill="#f1cf30" fill-rule="evenodd"/>
            </g>
          </g>
          <g id="Grupo_54805" data-name="Grupo 54805">
            <g id="Grupo_54798" data-name="Grupo 54798" transform="translate(2.779 4.262)">
              <g id="Grupo_54794" data-name="Grupo 54794" transform="translate(32.395)">
                <g id="Grupo_54792" data-name="Grupo 54792" transform="translate(3.432 28.985)">
                  <path id="Trazado_100875" data-name="Trazado 100875" d="M401.505,407.636c-3.983,5.18-2.574,12.941,3.143,17.333s13.58,3.76,17.561-1.419,2.569-12.938-3.146-17.333S405.484,402.459,401.505,407.636Z" transform="translate(-399.241 -403.297)" fill="#e3e3e3" fill-rule="evenodd"/>
                </g>
                <g id="Grupo_54793" data-name="Grupo 54793">
                  <path id="Trazado_100876" data-name="Trazado 100876" d="M402.162,414.295c5.18,3.978,12.941,2.572,17.336-3.146s3.758-13.58-1.419-17.558-12.938-2.574-17.333,3.146S396.987,410.314,402.162,414.295Z" transform="translate(-397.824 -391.327)" fill="#e3e3e3" fill-rule="evenodd"/>
                </g>
              </g>
              <g id="Grupo_54797" data-name="Grupo 54797" transform="translate(0 4.513)">
                <g id="Grupo_54795" data-name="Grupo 54795">
                  <path id="Trazado_100877" data-name="Trazado 100877" d="M407.415,413.447c3.979-5.18,2.569-12.94-3.146-17.333s-13.58-3.761-17.561,1.417-2.572,12.938,3.145,17.335S403.434,418.621,407.415,413.447Z" transform="translate(-384.446 -393.191)" fill="#e3e3e3" fill-rule="evenodd"/>
                </g>
                <g id="Grupo_54796" data-name="Grupo 54796" transform="translate(4.067 28.35)">
                  <path id="Trazado_100878" data-name="Trazado 100878" d="M406.38,407.161c-5.177-3.979-12.938-2.572-17.333,3.146s-3.761,13.577,1.419,17.558,12.938,2.569,17.331-3.146S411.558,411.142,406.38,407.161Z" transform="translate(-386.125 -404.899)" fill="#e3e3e3" fill-rule="evenodd"/>
                </g>
              </g>
            </g>
            <g id="Grupo_54801" data-name="Grupo 54801" transform="translate(18.809)">
              <g id="Grupo_54799" data-name="Grupo 54799" transform="translate(5.302 40.541)">
                <path id="Trazado_100879" data-name="Trazado 100879" d="M403.411,406.4c-6.478.845-10.967,7.33-10.032,14.478s6.942,12.263,13.42,11.415,10.967-7.33,10.03-14.481S409.886,405.553,403.411,406.4Z" transform="translate(-393.255 -406.309)" fill="#f0f0f0" fill-rule="evenodd"/>
              </g>
              <g id="Grupo_54800" data-name="Grupo 54800">
                <path id="Trazado_100880" data-name="Trazado 100880" d="M404.608,415.552c6.475-.848,10.969-7.33,10.032-14.483s-6.942-12.258-13.417-11.41-10.967,7.33-10.035,14.478S398.13,416.4,404.608,415.552Z" transform="translate(-391.065 -389.567)" fill="#f0f0f0" fill-rule="evenodd"/>
              </g>
            </g>
            <g id="Grupo_54802" data-name="Grupo 54802" transform="translate(40.541 18.808)">
              <path id="Trazado_100881" data-name="Trazado 100881" d="M400.132,410.877c.848,6.475,7.332,10.967,14.481,10.03s12.26-6.942,11.415-13.417-7.332-10.967-14.483-10.032S399.284,404.4,400.132,410.877Z" transform="translate(-400.04 -397.334)" fill="#f0f0f0" fill-rule="evenodd"/>
            </g>
            <g id="Grupo_54803" data-name="Grupo 54803" transform="translate(0 24.109)">
              <path id="Trazado_100882" data-name="Trazado 100882" d="M409.283,409.681c-.848-6.477-7.33-10.967-14.481-10.035s-12.262,6.945-11.412,13.42,7.33,10.969,14.478,10.035S410.131,416.156,409.283,409.681Z" transform="translate(-383.298 -399.523)" fill="#f0f0f0" fill-rule="evenodd"/>
            </g>
            <g id="Grupo_54804" data-name="Grupo 54804" transform="translate(22.642 22.64)">
              <path id="Trazado_100883" data-name="Trazado 100883" d="M413.891,408.2a10.666,10.666,0,1,1-11.96-9.194A10.67,10.67,0,0,1,413.891,408.2Z" transform="translate(-392.648 -398.916)" fill="#f1cf30" fill-rule="evenodd"/>
            </g>
          </g>
        </g>
        <g id="Grupo_54809" data-name="Grupo 54809" transform="translate(0 101.115)">
          <g id="Grupo_54807" data-name="Grupo 54807" transform="translate(29.897 2.504)">
            <path id="Trazado_100884" data-name="Trazado 100884" d="M390.665,432.358l7.352,6.148-4.349,35.313-10.7-4.727Z" transform="translate(-382.97 -432.358)" fill="#1c1c1c" fill-rule="evenodd"/>
          </g>
          <g id="Grupo_54808" data-name="Grupo 54808">
            <path id="Trazado_100885" data-name="Trazado 100885" d="M414.108,438.61l-7.773-7.286-35.712,7.04,6.574,10.715Z" transform="translate(-370.623 -431.324)" fill="#292929" fill-rule="evenodd"/>
          </g>
        </g>
        <g id="Grupo_54815" data-name="Grupo 54815" transform="translate(13.412 77.409)">
          <g id="Grupo_54812" data-name="Grupo 54812">
            <g id="Grupo_54810" data-name="Grupo 54810">
              <path id="Trazado_100886" data-name="Trazado 100886" d="M405.77,438.373l-7-14.921c-1.409-3-6.257-2.143-8.521.279l-12.221,13.037c-2.267,2.419-2.809,7.313.276,8.524l15.345,6.013c3.085,1.211,6.252,2.145,8.521-.274l3.872-4.134C408.315,444.477,407.179,441.378,405.77,438.373Z" transform="translate(-376.162 -421.534)" fill="#3b3b3b" fill-rule="evenodd"/>
            </g>
            <g id="Grupo_54811" data-name="Grupo 54811" transform="translate(25.021 24.13)">
              <path id="Trazado_100887" data-name="Trazado 100887" d="M400.18,432.733l15.343,6.015c3.087,1.211,2.543,6.1.278,8.521l-12.221,13.042c-2.269,2.419-7.117,3.276-8.521.276l-7-14.924c-1.407-3-2.545-6.1-.278-8.521l3.874-4.134C393.925,430.59,397.09,431.523,400.18,432.733Z" transform="translate(-386.495 -431.499)" fill="#292929" fill-rule="evenodd"/>
            </g>
          </g>
          <g id="Grupo_54813" data-name="Grupo 54813" transform="translate(13.328 12.187)">
            <path id="Rectángulo_5384" data-name="Rectángulo 5384" d="M1.689,0H19.625a1.69,1.69,0,0,1,1.69,1.69V19.627a1.69,1.69,0,0,1-1.69,1.69H1.69A1.69,1.69,0,0,1,0,19.627V1.689A1.689,1.689,0,0,1,1.689,0Z" transform="matrix(0.684, -0.73, 0.73, 0.684, 0, 15.551)" fill="#4f4f4f"/>
          </g>
          <g id="Grupo_54814" data-name="Grupo 54814" transform="translate(21.104 19.478)">
            <path id="Trazado_100888" data-name="Trazado 100888" d="M399.454,429.578l4.79,4.489a4.1,4.1,0,0,1,.189,5.783l-8.981,9.582a4.1,4.1,0,0,1-5.783.191l-4.792-4.492Z" transform="translate(-384.877 -429.578)" fill="#3b3b3b" fill-rule="evenodd"/>
          </g>
        </g>
      </g>
    </g>
  </g>
</svg>
