<svg xmlns="http://www.w3.org/2000/svg" width="227" height="194.186" viewBox="0 0 227 194.186">
  <g id="Grupo_69247" data-name="Grupo 69247" transform="translate(-548.934 -272.993)">
    <g id="Grupo_69247-2" data-name="Grupo 69247" transform="translate(548.934 272.993)">
      <path id="Trazado_101177" data-name="Trazado 101177" d="M775.934,370.087c0,53.62-50.814,97.092-113.5,97.092s-113.5-43.472-113.5-97.092,50.816-97.094,113.5-97.094S775.934,316.464,775.934,370.087Z" transform="translate(-548.934 -272.993)" fill="#f6e8db"/>
    </g>
    <g id="tree" transform="translate(567.348 280.793)">
      <g id="tree-2" data-name="tree">
        <path id="Trazado_101178" data-name="Trazado 101178" d="M647.295,293.488c-2.827-.4-4.428,1.151-5.133-2.079-.6-2.758-.02-3.689-3.224-4.718-5.645-1.812-9.021.63-13.057,4.206-3.328,2.952-5.708,5.513-10.337,6.05-1.89.22-4.578.725-5.824,2.336-3.119,4.033,1.982,5.535,5.153,5.455,3.951-.1,7.77-1.931,11.383-3.073,2.269-.712,6.526-2.034,6.354,1.816-.061,1.446-1.79,2.419-1.749,3.809.093,3.249,4.778,1.6,6.351,1.09a43.743,43.743,0,0,0,8.906-3.614C650.986,301.894,655.556,294.65,647.295,293.488Z" transform="translate(-535.711 -273.873)" fill="#5daf91"/>
        <g id="Grupo_69250" data-name="Grupo 69250" transform="translate(0 12.37)">
          <path id="Trazado_101179" data-name="Trazado 101179" d="M658.09,321.262c-1.5-.359-2.03-2.532-4.058-3.209-3.319-1.113-7.224-.213-10.492.827-7.843,2.494-15.433,6.593-22.934,9.892-6.019,2.647-11.452,4.24-18.066,2.442-6.694-1.821-12.334-4.7-19.595-3.4a14.624,14.624,0,0,0-8.57,4.992,31.677,31.677,0,0,0-4.241,5.2,64.462,64.462,0,0,0,7.8,1.567,105.643,105.643,0,0,0,13.131.512c4.77-.223,9.409-1.338,14.173-1.483,4.781-.147,9.1,1.894,13.763,2.147,8.287.443,15.143-2.614,22.873-5.009a133.048,133.048,0,0,0,17.4-6.856c1.888-.884,8.648-2.654,9.056-5.059C669.175,318.869,659.954,321.707,658.09,321.262Z" transform="translate(-556.134 -269.6)" fill="#5daf91"/>
          <path id="Trazado_101180" data-name="Trazado 101180" d="M616.5,302.382c-2.089-1.3-5.168-.8-7.457-.6-3.491.312-6.851.942-10.3,1.434-4.325.615-6.94-.752-10.582-2.625-4.925-2.529-12.045.965-15.913,4.169a60.833,60.833,0,0,0-7.293,7.169c-.764.893-2.547,2.605-2.526,3.909.035,2.436,3.969,1.824,5.565,1.627,3.5-.434,6.63-2.7,10.23-2.452,4.367.306,7.478,1.46,11.621-.367,4.393-1.934,7.715-5.623,12.225-7.177,4.886-1.683,11.06-1.044,15.548-4.026A2.5,2.5,0,0,0,616.5,302.382Z" transform="translate(-560.213 -279.022)" fill="#5daf91"/>
          <g id="Grupo_69248" data-name="Grupo 69248" transform="translate(15.608 8.167)">
            <path id="Trazado_101181" data-name="Trazado 101181" d="M578.35,302.589v0Z" transform="translate(-567.397 -285.844)" fill="#ba7575"/>
            <path id="Trazado_101182" data-name="Trazado 101182" d="M647.4,302.077c-.216-3.584.784-6.558,1.823-9.906-2.341,5.206-3.327,10.846-5.117,16.1-1.818,5.339-2.913,11.667-4.689,17.158-1.874,5.807-4.737,9.986-7.7,15.273-3.529,6.287-7.33,12.212-12.71,17.141-2.148,1.969-4.911,3.2-7.31,4.769-2.044,1.336-4.836,4.351-7.308,3.515-4.3-1.449-8.521-10.458-10.255-14.322-2.457-5.474-5.347-11.065-7.142-16.843a32.754,32.754,0,0,1-1.238-6.811,7.385,7.385,0,0,1,1.159-2.521,66.408,66.408,0,0,1,4.764-5.759c2.648-3.058,3.033-7.05,5.07-10.455-2.381-.556-2.5,2.492-3.276,4.258a16.52,16.52,0,0,1-3.214,5.4c-1.31,1.31-3.471,2.061-4.857,3.273-.078-1.523-.165-3.044-.315-4.542a63.316,63.316,0,0,0-1.738-11.4,2.073,2.073,0,0,0-1.2,1.864c0,2.812.026,5.7.116,8.588A25.709,25.709,0,0,1,578.4,315.5a21.353,21.353,0,0,1-6.475-5.943,6.337,6.337,0,0,0-.743.326,16.387,16.387,0,0,0,7.941,7.171,19.575,19.575,0,0,1,3.2,1.766,107.29,107.29,0,0,0,1.012,11.378c1.049,7.018,4.344,14.088,7.137,20.583,2.286,5.318,3.562,9.885,7.469,14.363,3.964,4.542,8.068,7.652,7.061,13.974-.583,3.651-1.992,7.2-2.859,10.826C601.043,394.577,601,399.224,600.5,404a64.74,64.74,0,0,1-2.667,11.728c-.59,1.972-1.208,3.937-1.761,5.92-.5,1.79-1.914,4.319.667,4.824a10.145,10.145,0,0,0,4.694.012c1.873-.563,1.83-1.68,2.131-3.442.732-4.272,1.755-8.489,2.428-12.77.945-6.027.706-12.458,2.127-18.436,1.547-6.493,4.228-12.606,5.727-19.057,1.179-5.075,4.5-9.7,8.334-13.349,9.339-8.892,18.155-22.2,19.95-35.2.549-3.981,2.226-7.489,2.613-11.517a13.434,13.434,0,0,1,1.708-6.11c2.937-4.932,7.11-9.862,9.77-15.077C653.157,295.022,650.432,298.027,647.4,302.077Z" transform="translate(-571.186 -291.527)" fill="#b57878"/>
          </g>
          <path id="Trazado_101183" data-name="Trazado 101183" d="M674.746,311.865c-7.69-4.087-16.548.517-24.576-1.514-3.818-.965-7.522-2.536-11.326-3.607-5.188-1.463-10.458-.122-15.343,1.758-5.1,1.962-9.2,5.613-13.612,8.735-2.559,1.809-5.483,3.393-8.7,3.452-2.8.054-5.594-.694-8.371-1.043a30.655,30.655,0,0,0-12,.563c-6.328,1.807-14.826,5.659-17.73,12.063-2.093,4.616.531,8.993,5.067,10.433a30.131,30.131,0,0,0,6.055,1.428c.05-.023.1-.044.145-.064-.034-.006-.066-.017-.1-.026a31.678,31.678,0,0,1,4.241-5.2,14.624,14.624,0,0,1,8.57-4.992c7.261-1.3,12.9,1.575,19.595,3.4,6.614,1.8,12.046.2,18.066-2.442,7.5-3.3,15.091-7.4,22.934-9.892,3.267-1.04,7.172-1.94,10.492-.827,2.027.677,2.556,2.85,4.058,3.209,1.864.445,11.085-2.393,10.241,2.562a1.621,1.621,0,0,1-.119.376c.038-.05.078-.1.116-.139.578-.625,1.281-1.182,1.907-1.787a22.97,22.97,0,0,0,5.243-6.7C681.577,317.3,678.6,313.916,674.746,311.865Z" transform="translate(-560.251 -275.639)" fill="#81c9b1"/>
          <g id="Grupo_69249" data-name="Grupo 69249" transform="translate(20.882 60.504)">
            <path id="Trazado_101184" data-name="Trazado 101184" d="M589.369,332.433a11.483,11.483,0,0,0-2.542-.758,23.308,23.308,0,0,1-5.047-1.829c-1.694-1-2.819-2.307-4.646-3.1a16.623,16.623,0,0,1-2.105-.991c-.13.09-.261.185-.391.28a8.047,8.047,0,0,0,1.9,1.185,23.255,23.255,0,0,1,4.29,2.5,34.087,34.087,0,0,0,5.643,2.865,26.817,26.817,0,0,1,3.729,1.394A1.4,1.4,0,0,0,589.369,332.433Z" transform="translate(-574.636 -325.758)" fill="#b57878"/>
            <path id="Trazado_101185" data-name="Trazado 101185" d="M584.827,331.14c-.006.15-.018.315-.035.509l.317-.159C585.1,331.375,585,331.256,584.827,331.14Z" transform="translate(-569.264 -322.911)" fill="#ba7575"/>
          </g>
          <path id="Trazado_101186" data-name="Trazado 101186" d="M564.34,324.076c-2.572.083-3.715-3.549-3.267-5.565a13.4,13.4,0,0,1,2.919-5.055c1.223-1.433,3.351-2.674,4.159-4.382.72-1.526.7-3.515,1.44-5.169a22.159,22.159,0,0,1,7.175-8.94c8.119-5.923,18.821-11.638,29.007-7.2,2.8,1.22,5.574,2.958,6.758,5.834.642,1.561.772,2.807,2.179,3.737,1.7,1.124,2.893,1.439,3.844,3.364a8.312,8.312,0,0,1,.913,4.287c-.046,2.122.165,5.689-2.4,5.932-2.1.2-4.342-.815-6.481-.7a35.374,35.374,0,0,0-10.417,2.419c-5.137,1.917-10.427,3.676-15.939,4.12-3.465.28-7.371-1.055-10.548.708-3.295,1.829-5.989,6.1-9.588,7.076-.212-.02.153-.067.2-.145Z" transform="translate(-560.978 -286.185)" fill="#81c9b1"/>
        </g>
        <path id="Trazado_101187" data-name="Trazado 101187" d="M610.5,307.723c-1.815-.674-2.795-4.737-2.355-6.522.817-3.312,4.278-3.582,6.891-4.766a15.132,15.132,0,0,0,5.05-4.162,48.484,48.484,0,0,1,8.629-7.58c5.7-3.885,16.019-10.23,22.3-3.94,3.069,3.076-.4,6.909-.631,10.383-.211,3.128,3.615,4.831,3.67,8.236.089,5.549-6.4,9.111-10.79,10.536-3.436,1.115-4.642.239-5.235-3.295-.275-1.636-.239-4.148-1.553-5.357s-3.682-1.24-5.347-1.063c-4.969.527-8.779,3.624-13.3,5.44-2.245.9-5.816,1.108-7.649,2.142Z" transform="translate(-536.084 -278.095)" fill="#81c9b1"/>
      </g>
    </g>
    <g id="Grupo_69252" data-name="Grupo 69252" transform="translate(630.561 353.21)">
      <path id="Trazado_101188" data-name="Trazado 101188" d="M657.04,332.942c-17.126-11.973-36.895-5.986-36.895-5.986l-.167.13a33.164,33.164,0,0,0-17.656,11.565l2.971,65.714h45.666l1.856-66.763Z" transform="translate(-602.322 -325.459)" fill="#4d3c4b"/>
      <path id="Trazado_101189" data-name="Trazado 101189" d="M612.091,404.073l-2.969-65.714S628.058,312,658.676,336.3a10.271,10.271,0,0,1,.939.94l-4.082,66.828Z" transform="translate(-598.725 -325.167)" fill="#897a88"/>
      <g id="Grupo_69251" data-name="Grupo 69251" transform="translate(27.103 19.345)">
        <rect id="Rect치ngulo_5417" data-name="Rect치ngulo 5417" width="4.854" height="26.307" transform="translate(6.641)" fill="#5b4f5a"/>
        <rect id="Rect치ngulo_5418" data-name="Rect치ngulo 5418" width="18.008" height="4.858" transform="translate(0 8.042)" fill="#5b4f5a"/>
      </g>
    </g>
    <path id="Trazado_101190" data-name="Trazado 101190" d="M600.568,385.106c1.332-7.343,9.654-10.865,15.774-8.634,3.017,1.1,5.09,2.22,8.294,1.579,4.712-.943,8.27-4.61,12.617-6.4,4.851-2,9.074-1.648,13.721.836,3.815,2.043,7.139,5.94,11.3,6.683,5.778,1.027,11.227-1.355,14.4,5.94Z" transform="translate(27.311 51.498)" fill="#b57878"/>
    <g id="Grupo_69258" data-name="Grupo 69258" transform="translate(697.743 288.445)">
      <path id="Trazado_101191" data-name="Trazado 101191" d="M649.752,305.724a2.908,2.908,0,0,0,1.365.315c.769-.13.827-1.249.011-1.06.625-1.315-1.186-.472-1.552.092a2.18,2.18,0,0,0,.176-1.379c-.249-.563-.731-.349-.787.216-.335-.277-1.4-.954-1.141.023.093.382.784.9,1.084,1.15-.456-.122-1.327-.485-1.761-.08-.379.4.07.716.546.755-.873.752.413.794.93.411-.3.306-.673.815-.385,1.206.229.341.953.326.794-.159.56.613,1.1.145.59-.531.211.173.43.711.717.8.341.076.651-.176.393-.54.936.161.94-.647.11-.873a5.731,5.731,0,0,1-1.2-.332Z" transform="translate(-645.869 -272.381)" fill="#e8ca4d"/>
      <path id="Trazado_101192" data-name="Trazado 101192" d="M653.214,305a3.921,3.921,0,0,0,1.852.427c1.038-.173,1.119-1.691.011-1.434.849-1.78-1.605-.639-2.1.125a2.953,2.953,0,0,0,.237-1.868c-.336-.761-.988-.472-1.067.289-.45-.37-1.9-1.29-1.543.035.125.517,1.061,1.219,1.469,1.555-.619-.165-1.8-.656-2.388-.109-.512.54.095.972.74,1.024-1.183,1.018.558,1.075,1.263.557-.414.417-.913,1.107-.523,1.633.309.462,1.287.443,1.072-.216.758.833,1.492.2.8-.717.286.235.581.962.969,1.076.463.107.882-.237.535-.731,1.265.219,1.272-.878.148-1.185a7.489,7.489,0,0,1-1.627-.448Z" transform="translate(-644.553 -273.205)" fill="#e8ca4d"/>
      <g id="Grupo_69257" data-name="Grupo 69257" transform="translate(3.849)">
        <g id="Grupo_69253" data-name="Grupo 69253" transform="translate(8.739 103.446)">
          <path id="Trazado_101193" data-name="Trazado 101193" d="M661.775,350.758s3.463,33.141.248,38.581h6.432s7.666-23.743,3.462-38.087Z" transform="translate(-650.645 -350.758)" fill="#ff8f67"/>
          <path id="Trazado_101194" data-name="Trazado 101194" d="M674.911,381.347a2.524,2.524,0,0,1-2.492,1.91H656.192c-1.1,0-1.85-.593-1.67-1.326s1.2-1.307,2.274-1.465a12.4,12.4,0,0,0,2.7-.693,16.088,16.088,0,0,0,7.36-5.838,11.975,11.975,0,0,0,.671-1.067l4.284,1.315a15.85,15.85,0,0,1,1.128,1.336,9.476,9.476,0,0,1,1.89,4.017A6.328,6.328,0,0,1,674.911,381.347Z" transform="translate(-654.496 -339.063)" fill="#ff8f67"/>
          <path id="Trazado_101195" data-name="Trazado 101195" d="M674.911,379.04a2.524,2.524,0,0,1-2.492,1.91H656.192c-1.1,0-1.85-.593-1.67-1.326s1.2-1.307,2.274-1.465a12.4,12.4,0,0,0,2.7-.693c3.145,1.09,8.082,1.671,15.334-.237A6.328,6.328,0,0,1,674.911,379.04Z" transform="translate(-654.496 -336.756)" fill="#7a8ecb"/>
          <path id="Trazado_101196" data-name="Trazado 101196" d="M662.456,376.334a.291.291,0,0,1-.061-.008.251.251,0,0,1-.179-.3c.031-.122,3.117-12.419,2.631-20.2a.244.244,0,0,1,.231-.26.224.224,0,0,1,.261.231c.492,7.862-2.611,20.231-2.643,20.355A.248.248,0,0,1,662.456,376.334Z" transform="translate(-650.416 -348.221)" fill="#fff"/>
        </g>
        <g id="Grupo_69254" data-name="Grupo 69254" transform="translate(0 103.775)">
          <path id="Trazado_101197" data-name="Trazado 101197" d="M656.06,350.973s3.463,33.14.249,38.581h6.429s7.666-23.741,3.463-38.086Z" transform="translate(-644.929 -350.973)" fill="#ff8f67"/>
          <path id="Trazado_101198" data-name="Trazado 101198" d="M669.194,381.563a2.523,2.523,0,0,1-2.492,1.91H650.479c-1.1,0-1.85-.595-1.673-1.326s1.2-1.306,2.275-1.463a12.683,12.683,0,0,0,2.7-.693,16.091,16.091,0,0,0,7.36-5.839,12.3,12.3,0,0,0,.673-1.067L666.1,374.4a15.819,15.819,0,0,1,1.128,1.335,9.5,9.5,0,0,1,1.89,4.017A6.33,6.33,0,0,1,669.194,381.563Z" transform="translate(-648.78 -339.277)" fill="#ff8f67"/>
          <path id="Trazado_101199" data-name="Trazado 101199" d="M669.194,379.257a2.523,2.523,0,0,1-2.492,1.91H650.479c-1.1,0-1.85-.595-1.673-1.326s1.2-1.306,2.275-1.463a12.683,12.683,0,0,0,2.7-.693c3.145,1.087,8.082,1.67,15.334-.24A6.33,6.33,0,0,1,669.194,379.257Z" transform="translate(-648.78 -336.971)" fill="#7a8ecb"/>
        </g>
        <path id="Trazado_101200" data-name="Trazado 101200" d="M655.205,324.933s-2.969,27.37-.33,49.134h22.754s1.318-36.935-2.969-52.1Z" transform="translate(-646.134 -262.542)" fill="#4d3c4b"/>
        <path id="Trazado_101201" data-name="Trazado 101201" d="M651.425,298.2a4.149,4.149,0,0,1,.555,1.651c.037.226.066.46.09.7.177,1.564.228,3.247,1.361,3.885a2.936,2.936,0,0,0,2.2.031,5.1,5.1,0,0,1,2.212-.359c1.427.242,2.8,3.095,3.616,4.2.751,1.009,1.5,2.024,2.248,3.036l6.174-5.662c-4.036-7.692-.928-10.252-.928-10.252l1.838-1.824c.615-2.422-.026-5.273-4.035-7.97,0,0-6.819-5.919-13.511,2.345a6.385,6.385,0,0,0-1.237,4.113c.017,1.252.456,2.414-.46,3.478-.364.422-1.167.578-1.234,1.254C650.237,297.6,651.056,297.651,651.425,298.2Z" transform="translate(-647.972 -282.848)" fill="#ff8f67"/>
        <path id="Trazado_101202" data-name="Trazado 101202" d="M678.464,353.658s-3.9-.486-9.4-3.972a67.563,67.563,0,0,1-10.632-8.359c-1.665-1.616-3.437-2.514-4.27-4.873-1.037-2.931-.87-6.215-1.269-9.207-.8-6-.475-11.172,2.255-16.658,1.293-2.627,2.306-6.189,3.972-8.533.974-1.371,6.126-4.831,7.83-4.692,0,0,7.752.642,8.661,22.17Z" transform="translate(-646.808 -275.556)" fill="#7a8ecb"/>
        <path id="Trazado_101203" data-name="Trazado 101203" d="M651.961,289.34a1.618,1.618,0,0,0,1.284,1.5c.712.257,1.482.3,2.189.558a4.6,4.6,0,0,1,2.812,4.093,4.083,4.083,0,0,0,.333-.93,1.346,1.346,0,0,1,.546-.8c1.342-.754,1.676,2.241,1.161,2.986-.362.523-1,.957-.962,1.595a1.833,1.833,0,0,0,.312.784c.954,1.66.742,2.416.419,4.082a2.547,2.547,0,0,0,.475,2.119c.13.165,1.9,1.408,2.008.829a2.478,2.478,0,0,0,1.364,2.55,3.461,3.461,0,0,0,3-.066,12.764,12.764,0,0,1,2.035-1.049,10.057,10.057,0,0,1,2.6-.009,4.915,4.915,0,0,0,4.191-2.329,4.271,4.271,0,0,0-.286-4.709c-.911-1.138-2.425-1.726-3.165-2.978-1.323-2.243.1-5.079-.948-7.451a12.782,12.782,0,0,0-5.261-5.506,11.557,11.557,0,0,0-6.12-1.5,8.365,8.365,0,0,0-5.042,1.853C653.857,285.805,651.928,287.829,651.961,289.34Z" transform="translate(-647.098 -283.099)" fill="#494951"/>
        <path id="Trazado_101204" data-name="Trazado 101204" d="M654.711,298.247a.184.184,0,0,1-.066-.356c.031-.011,3.049-1.2,3.689-3.353a.183.183,0,1,1,.352.1c-.693,2.327-3.778,3.543-3.91,3.593A.186.186,0,0,1,654.711,298.247Z" transform="translate(-645.74 -277.118)" fill="#9f6464"/>
        <g id="Grupo_69256" data-name="Grupo 69256" transform="translate(3.936 9.454)">
          <g id="Grupo_69255" data-name="Grupo 69255">
            <path id="Trazado_101205" data-name="Trazado 101205" d="M651.73,290.352a.511.511,0,0,0,.232.024,2.167,2.167,0,0,1,1.295.275.542.542,0,0,0,.572-.92,3.334,3.334,0,0,0-2-.427.538.538,0,0,0-.1,1.047Z" transform="translate(-651.354 -289.282)" fill="#aa5f5f"/>
          </g>
        </g>
        <path id="Trazado_101206" data-name="Trazado 101206" d="M653.1,294.738l-.035,0c-.925-.214-1.232-.027-1.235-.026a.159.159,0,0,1-.22-.041.157.157,0,0,1,.034-.219c.037-.029.414-.272,1.494-.028a.16.16,0,0,1-.037.316Z" transform="translate(-647.301 -277.168)" fill="#aa5f5f"/>
      </g>
      <path id="Trazado_101207" data-name="Trazado 101207" d="M655.049,308.044a6.771,6.771,0,0,0-1.243,1.878c-.043-.177-.087-.352-.142-.514.24-1.544.93-3,1.053-4.5a7.35,7.35,0,0,0-1.72,2.145,25.041,25.041,0,0,0-.086-3.789c-.807.073-1.306.934-1.564,1.959-.167-.11-.477-.315-.557-.347-.1.242-.439.483-.534.826-.151-.087-.283-.234-.453-.326-.069.138-.379.5-.491.657-.344-.217-.806-.263-1.141-.59.187.685.6,1.423.477,1.925l1.349,3.1a8.019,8.019,0,0,0-.112,1.3c0,2.306.927,4.176,2.07,4.176,1.076,0,1.951-1.66,2.052-3.775A15.129,15.129,0,0,0,655.049,308.044Z" transform="translate(-645.252 -272.432)" fill="#81c9b1"/>
      <path id="Trazado_101208" data-name="Trazado 101208" d="M649.866,312.906c.208,2.367-.321,4.834-.132,7.253a3.05,3.05,0,0,0,.654-1.972,6.66,6.66,0,0,1,.821,1.269,6.012,6.012,0,0,1-1.024-3.561c.416,1.177.746,2.407,1.206,3.558.035-.17.1-.394.145-.586a1.438,1.438,0,0,1,1.1.954,7.728,7.728,0,0,0-1.78-5.431Z" transform="translate(-644.448 -267.333)" fill="#81c9b1"/>
      <path id="Trazado_101209" data-name="Trazado 101209" d="M670.01,304.058c-2.041,1.809-2.639,4.79-3.439,7.4-1.4,4.55-2.087,9.206-3.24,13.815l-13.6-13.108s-3.214-.587-3.122-.217c.061.249,4.779,9.475,5.065,9.918,2.39,3.7,8.857,15.864,14.777,12.3,2.047-1.229,3.8-5.085,4.9-7.074a72.145,72.145,0,0,0,3.862-7.614,28.646,28.646,0,0,0,2.2-7.946c.213-2.448.234-5.711-1.7-7.531A4.252,4.252,0,0,0,670.01,304.058Z" transform="translate(-646.082 -272.609)" fill="#ff8f67"/>
      <path id="Trazado_101210" data-name="Trazado 101210" d="M653.122,314.939c-.778-1.5-.083-1.264.345-2.5.313-.91-.388-1.793-.345-2.816.031-.624,1-2.732.248-2.85-.777-.122-1.208,1.57-1.485,2-.842-.531-.645-1.726-.6-2.59.52-.326,1.6-.046,1.712-.641.147-.774-.879-.8-1.335-.893-1.607-.326-3.006-.424-3.116,1.478-.086-.488-.144-.968-.271-1.428-.833.009-.786,1.206-.723,1.855.133-.572-.023-1.52-.774-.764a4.851,4.851,0,0,0-.463,2.008,7.147,7.147,0,0,0,.587,4.085,47.168,47.168,0,0,0,3.527,6.007c.527-.457,2.4-2.46,2.812-2.084Z" transform="translate(-646.262 -271.799)" fill="#ff8f67"/>
      <path id="Trazado_101211" data-name="Trazado 101211" d="M653.5,308.51a2.915,2.915,0,0,0,1.367.317c.769-.13.827-1.251.009-1.06.627-1.313-1.186-.472-1.55.093a2.2,2.2,0,0,0,.174-1.382c-.249-.561-.731-.347-.787.216-.333-.275-1.4-.953-1.141.026.093.382.784.9,1.086,1.147-.457-.122-1.327-.483-1.763-.079-.378.4.07.719.547.755-.875.752.411.8.931.413-.306.307-.674.816-.385,1.206.226.341.949.326.791-.161.561.615,1.1.147.592-.529.211.173.43.711.716.8.343.078.651-.174.393-.54.937.16.943-.648.113-.875a5.665,5.665,0,0,1-1.2-.33Z" transform="translate(-643.887 -270.907)" fill="#e8ca4d"/>
      <path id="Trazado_101212" data-name="Trazado 101212" d="M652.508,291.771a1.268,1.268,0,0,1-.613-.156.148.148,0,1,1,.159-.251,1.03,1.03,0,0,0,1.242-.232.145.145,0,0,1,.209.009.148.148,0,0,1-.009.209A1.433,1.433,0,0,1,652.508,291.771Z" transform="translate(-643.32 -278.872)" fill="#aa5f5f"/>
    </g>
  </g>
</svg>
