<svg xmlns="http://www.w3.org/2000/svg" width="258.5" height="346.249" viewBox="0 0 258.5 346.249">
  <g id="Grupo_70142" data-name="Grupo 70142" transform="translate(5431 7627.999)">
    <g id="Grupo_69606" data-name="Grupo 69606" transform="translate(-5779.267 -7837.325)">
      <g id="Grupo_69574" data-name="Grupo 69574" transform="translate(375.242 527.097)">
        <rect id="Rectángulo_5463" data-name="Rectángulo 5463" width="210.485" height="28.478" transform="translate(0)" fill="#777a85"/>
      </g>
      <g id="Grupo_69575" data-name="Grupo 69575" transform="translate(453.509 245.576)">
        <path id="Trazado_101954" data-name="Trazado 101954" d="M513.083,245.576H486.108v28.54h31.4Z" transform="translate(-486.108 -245.576)" fill="#9599a6"/>
      </g>
      <g id="Grupo_69576" data-name="Grupo 69576" transform="translate(388.73 245.576)">
        <path id="Trazado_101955" data-name="Trazado 101955" d="M584.773,317.752A22.182,22.182,0,0,1,563.191,300.8a72.2,72.2,0,0,0-140.347,0,22.181,22.181,0,0,1-21.581,16.954h0V527.1h183.51V317.752Z" transform="translate(-401.263 -245.576)" fill="#9599a6"/>
      </g>
      <g id="Grupo_69577" data-name="Grupo 69577" transform="translate(361.754 245.576)">
        <path id="Trazado_101956" data-name="Trazado 101956" d="M549.442,317.752A22.182,22.182,0,0,1,527.86,300.8a72.2,72.2,0,0,0-140.346,0,22.182,22.182,0,0,1-21.582,16.954h0V527.1h183.51V317.752Z" transform="translate(-365.932 -245.576)" fill="#d0d3db"/>
      </g>
      <g id="Grupo_69578" data-name="Grupo 69578" transform="translate(368.891 252.712)">
        <path id="Trazado_101957" data-name="Trazado 101957" d="M375.279,522.171V326.231a29.188,29.188,0,0,0,21.383-21.553,65.061,65.061,0,0,1,126.47,0,29.189,29.189,0,0,0,21.384,21.553v195.94Z" transform="translate(-375.279 -254.923)" fill="#a9b0ba"/>
      </g>
      <g id="Grupo_69579" data-name="Grupo 69579" transform="translate(407.812 268.257)">
        <circle id="Elipse_4640" data-name="Elipse 4640" cx="49.494" cy="49.494" r="49.494" transform="translate(0)" fill="#777a85"/>
      </g>
      <g id="Grupo_69580" data-name="Grupo 69580" transform="translate(404.015 268.258)">
        <circle id="Elipse_4641" data-name="Elipse 4641" cx="49.494" cy="49.494" r="49.494" transform="translate(0 0)" fill="#e6e6e6"/>
      </g>
      <g id="Grupo_69581" data-name="Grupo 69581" transform="translate(368.891 252.712)">
        <path id="Trazado_101958" data-name="Trazado 101958" d="M400.459,304.678A64.8,64.8,0,0,1,461.8,254.963c-.632-.018-1.263-.04-1.9-.04a64.82,64.82,0,0,0-63.235,49.755,29.188,29.188,0,0,1-21.383,21.553v195.94h3.8V326.231A29.188,29.188,0,0,0,400.459,304.678Z" transform="translate(-375.279 -254.923)" fill="#777a85"/>
      </g>
      <g id="Grupo_69582" data-name="Grupo 69582" transform="translate(545.264 317.752)">
        <rect id="Rectángulo_5464" data-name="Rectángulo 5464" width="26.975" height="209.345" transform="translate(0 0)" fill="#777a85"/>
      </g>
      <g id="Grupo_69583" data-name="Grupo 69583" transform="translate(348.267 527.097)">
        <rect id="Rectángulo_5465" data-name="Rectángulo 5465" width="210.485" height="28.478" fill="#a9b0ba"/>
      </g>
      <g id="Grupo_69585" data-name="Grupo 69585" transform="translate(414.703 435.11)">
        <rect id="Rectángulo_5467" data-name="Rectángulo 5467" width="111.207" height="16.248" transform="translate(0)" fill="#777a85"/>
      </g>
      <g id="Grupo_69587" data-name="Grupo 69587" transform="translate(391.337 435.111)">
        <rect id="Rectángulo_5469" data-name="Rectángulo 5469" width="131.931" height="16.248" transform="translate(0 0)" fill="#e6e6e6"/>
      </g>
      <g id="Grupo_69591" data-name="Grupo 69591" transform="translate(401.33 362.274)">
        <path id="Trazado_101959" data-name="Trazado 101959" d="M420.18,398.421c-3.214,0-3.22,5,0,5S423.4,398.421,420.18,398.421Z" transform="translate(-417.767 -398.421)" fill="#999ca6"/>
      </g>
      <g id="Grupo_69592" data-name="Grupo 69592" transform="translate(484.281 375.809)">
        <path id="Trazado_101960" data-name="Trazado 101960" d="M531.582,416.149c-6.888,0-6.9,10.705,0,10.705S538.481,416.149,531.582,416.149Z" transform="translate(-526.412 -416.149)" fill="#999ca6"/>
      </g>
      <g id="Grupo_69593" data-name="Grupo 69593" transform="translate(401.613 484.014)">
        <path id="Trazado_101961" data-name="Trazado 101961" d="M421.928,557.871c-5.051,0-5.06,7.85,0,7.85S426.988,557.871,421.928,557.871Z" transform="translate(-418.137 -557.871)" fill="#999ca6"/>
      </g>
      <g id="Grupo_69595" data-name="Grupo 69595" transform="translate(515.769 474.46)">
        <path id="Trazado_101963" data-name="Trazado 101963" d="M571.444,545.357c-5.051,0-5.059,7.85,0,7.85S576.5,545.357,571.444,545.357Z" transform="translate(-567.653 -545.357)" fill="#999ca6"/>
      </g>
      <g id="Grupo_69596" data-name="Grupo 69596" transform="translate(504.112 545.956)">
        <path id="Trazado_101964" data-name="Trazado 101964" d="M555.487,639c-4.133,0-4.14,6.423,0,6.423S559.627,639,555.487,639Z" transform="translate(-552.385 -638.999)" fill="#999ca6"/>
      </g>
      <g id="Grupo_69597" data-name="Grupo 69597" transform="translate(383.747 338.069)">
        <path id="Trazado_101965" data-name="Trazado 101965" d="M396.46,366.719a1.785,1.785,0,0,0,0,3.568A1.785,1.785,0,0,0,396.46,366.719Z" transform="translate(-394.737 -366.719)" fill="#999ca6"/>
      </g>
      <g id="Grupo_69598" data-name="Grupo 69598" transform="translate(440.726 507.64)">
        <path id="Trazado_101966" data-name="Trazado 101966" d="M471.778,588.815c-3.214,0-3.22,5,0,5S475,588.815,471.778,588.815Z" transform="translate(-469.365 -588.815)" fill="#999ca6"/>
      </g>
      <g id="Grupo_69599" data-name="Grupo 69599" transform="translate(366.637 544.063)">
        <path id="Trazado_101967" data-name="Trazado 101967" d="M373.362,636.519a1.071,1.071,0,0,0,0,2.141A1.071,1.071,0,0,0,373.362,636.519Z" transform="translate(-372.327 -636.519)" fill="#999ca6"/>
      </g>
      <g id="Grupo_69600" data-name="Grupo 69600" transform="translate(420.746 373.668)">
        <path id="Trazado_101968" data-name="Trazado 101968" d="M444.23,413.345a1.071,1.071,0,0,0,0,2.141A1.071,1.071,0,0,0,444.23,413.345Z" transform="translate(-443.196 -413.345)" fill="#999ca6"/>
      </g>
      <g id="Grupo_69601" data-name="Grupo 69601" transform="translate(464.412 331.426)">
        <path id="Trazado_101969" data-name="Trazado 101969" d="M501.422,358.018a1.071,1.071,0,0,0,0,2.141A1.071,1.071,0,0,0,501.422,358.018Z" transform="translate(-500.388 -358.018)" fill="#a9b0ba"/>
      </g>
      <g id="Grupo_69602" data-name="Grupo 69602" transform="translate(523.267 341.868)">
        <path id="Trazado_101970" data-name="Trazado 101970" d="M578.508,371.694a1.071,1.071,0,0,0,0,2.142A1.071,1.071,0,0,0,578.508,371.694Z" transform="translate(-577.473 -371.694)" fill="#999ca6"/>
      </g>
      <g id="Grupo_69605" data-name="Grupo 69605" transform="translate(414.703 484.015)">
        <rect id="Rectángulo_5467-2" data-name="Rectángulo 5467" width="111.207" height="16.248" transform="translate(0)" fill="#777a85"/>
      </g>
      <g id="Grupo_69604" data-name="Grupo 69604" transform="translate(391.337 484.015)">
        <rect id="Rectángulo_5469-2" data-name="Rectángulo 5469" width="131.931" height="16.248" transform="translate(0 0)" fill="#e6e6e6"/>
      </g>
      <g id="Grupo_69584" data-name="Grupo 69584" transform="translate(414.703 377.327)">
        <rect id="Rectángulo_5466" data-name="Rectángulo 5466" width="111.207" height="16.249" transform="translate(0)" fill="#777a85"/>
      </g>
      <g id="Grupo_69586" data-name="Grupo 69586" transform="translate(391.337 377.327)">
        <rect id="Rectángulo_5468" data-name="Rectángulo 5468" width="131.931" height="16.249" transform="translate(0 0)" fill="#e6e6e6"/>
      </g>
    </g>
    <path id="Trazado_104552" data-name="Trazado 104552" d="M8.926,9.493,8.311,13h-2L8.037,3.047l3.486.007a3.488,3.488,0,0,1,2.536.9,2.777,2.777,0,0,1,.807,2.338,3.143,3.143,0,0,1-1.22,2.338,4.44,4.44,0,0,1-2.833.875Zm.28-1.661,1.668.014a2.109,2.109,0,0,0,1.34-.417A1.678,1.678,0,0,0,12.85,6.3a1.441,1.441,0,0,0-.229-1.135,1.24,1.24,0,0,0-.981-.451L9.753,4.708Zm9.229,5.3a3.218,3.218,0,0,1-1.719-.475A2.88,2.88,0,0,1,15.6,11.376a3.582,3.582,0,0,1-.287-1.8l.021-.273a4.782,4.782,0,0,1,.629-1.982,3.8,3.8,0,0,1,1.354-1.391,3.349,3.349,0,0,1,1.832-.461,2.559,2.559,0,0,1,2.164,1.051,3.6,3.6,0,0,1,.557,2.591l-.109.842H17.225a1.587,1.587,0,0,0,.349,1.148,1.331,1.331,0,0,0,1.025.444,2.365,2.365,0,0,0,1.846-.82l.882,1.094a2.743,2.743,0,0,1-1.2.981A3.934,3.934,0,0,1,18.435,13.137ZM19.05,7.06a1.37,1.37,0,0,0-.947.335,2.943,2.943,0,0,0-.742,1.21h2.652l.041-.178a1.812,1.812,0,0,0,.007-.52.992.992,0,0,0-.335-.619A1.05,1.05,0,0,0,19.05,7.06ZM26,5.46a2.1,2.1,0,0,1,1.668.827L28.395,2.5h1.935L28.511,13H26.788l.109-.793a2.394,2.394,0,0,1-1.928.937,2.129,2.129,0,0,1-1.21-.362,2.281,2.281,0,0,1-.8-1.022,4.116,4.116,0,0,1-.311-1.487,5.6,5.6,0,0,1,.021-.834l.041-.308a5.921,5.921,0,0,1,.632-2,3.3,3.3,0,0,1,1.148-1.278A2.708,2.708,0,0,1,26,5.46ZM24.6,9.438a5.536,5.536,0,0,0-.034.875q.068,1.2.971,1.224a1.65,1.65,0,0,0,1.415-.766l.526-2.939a1.092,1.092,0,0,0-1.066-.766,1.4,1.4,0,0,0-1.172.543A3.654,3.654,0,0,0,24.6,9.438ZM35.114,7.456a3.98,3.98,0,0,0-.649-.068,1.869,1.869,0,0,0-1.634.772L31.977,13H30.049l1.285-7.4L33.146,5.6l-.178.9A2.034,2.034,0,0,1,34.69,5.453a2.812,2.812,0,0,1,.67.1Zm3.944-1.989a2.967,2.967,0,0,1,1.685.5,2.83,2.83,0,0,1,1.039,1.347,4.166,4.166,0,0,1,.236,1.9,4.5,4.5,0,0,1-1.227,2.854,3.465,3.465,0,0,1-2.642,1.063,2.958,2.958,0,0,1-1.668-.5A2.819,2.819,0,0,1,35.442,11.3,4.075,4.075,0,0,1,35.2,9.418a4.633,4.633,0,0,1,1.244-2.912A3.393,3.393,0,0,1,39.059,5.467ZM37.11,10.117a1.707,1.707,0,0,0,.308,1.034,1.022,1.022,0,0,0,.827.392,1.5,1.5,0,0,0,1.395-.816,4.066,4.066,0,0,0,.472-2.215,1.856,1.856,0,0,0-.318-1.048,1,1,0,0,0-.831-.406,1.5,1.5,0,0,0-1.377.809A4.024,4.024,0,0,0,37.11,10.117Zm14.677-7.07h2L52.621,9.938a3.846,3.846,0,0,1-.629,1.688,3.368,3.368,0,0,1-1.3,1.142,3.661,3.661,0,0,1-1.743.376,2.937,2.937,0,0,1-2.174-.834,3.015,3.015,0,0,1-.725-2.256l2.017.007q-.1,1.408.991,1.429a1.309,1.309,0,0,0,1.012-.4,2.063,2.063,0,0,0,.54-1.155Zm5.407,10.09a3.218,3.218,0,0,1-1.719-.475,2.88,2.88,0,0,1-1.118-1.285,3.582,3.582,0,0,1-.287-1.8l.021-.273a4.782,4.782,0,0,1,.629-1.982,3.8,3.8,0,0,1,1.354-1.391,3.349,3.349,0,0,1,1.832-.461,2.559,2.559,0,0,1,2.164,1.051,3.6,3.6,0,0,1,.557,2.591l-.109.842H55.984a1.587,1.587,0,0,0,.349,1.148,1.331,1.331,0,0,0,1.025.444,2.365,2.365,0,0,0,1.846-.82l.882,1.094a2.743,2.743,0,0,1-1.2.981A3.934,3.934,0,0,1,57.194,13.137ZM57.81,7.06a1.37,1.37,0,0,0-.947.335,2.943,2.943,0,0,0-.742,1.21h2.652l.041-.178a1.812,1.812,0,0,0,.007-.52.992.992,0,0,0-.335-.619A1.05,1.05,0,0,0,57.81,7.06Zm7.567,3.855q.109-.547-.759-.793L64,9.965q-2.208-.608-2.146-2.146a2.124,2.124,0,0,1,.926-1.706,3.449,3.449,0,0,1,2.15-.646,3.094,3.094,0,0,1,2.023.663,2.184,2.184,0,0,1,.786,1.729l-1.914-.007a.843.843,0,0,0-.943-.964,1.358,1.358,0,0,0-.783.226.929.929,0,0,0-.407.608q-.1.547.827.772l.273.062a5.5,5.5,0,0,1,1.442.516A2.177,2.177,0,0,1,67,9.794a1.785,1.785,0,0,1,.25,1.032,1.97,1.97,0,0,1-.455,1.23,2.783,2.783,0,0,1-1.189.813,4.144,4.144,0,0,1-1.589.267,3.122,3.122,0,0,1-2.051-.708,2.281,2.281,0,0,1-.834-1.794l1.818.014a1,1,0,0,0,1.135,1.073,1.614,1.614,0,0,0,.878-.219A.864.864,0,0,0,65.377,10.915Zm7.342,1.319a2.554,2.554,0,0,1-2.037.9,1.9,1.9,0,0,1-1.613-.766,2.8,2.8,0,0,1-.424-1.982l.8-4.785h1.928l-.813,4.811a1.9,1.9,0,0,0-.007.424.7.7,0,0,0,.759.7,1.762,1.762,0,0,0,1.483-.691L73.717,5.6h1.941L74.373,13h-1.8ZM73.313,2.5h2.235L73.375,4.619h-1.7Zm6.781,8.415q.109-.547-.759-.793l-.622-.157q-2.208-.608-2.146-2.146a2.124,2.124,0,0,1,.926-1.706,3.449,3.449,0,0,1,2.15-.646,3.094,3.094,0,0,1,2.023.663,2.184,2.184,0,0,1,.786,1.729l-1.914-.007a.843.843,0,0,0-.943-.964,1.358,1.358,0,0,0-.783.226.929.929,0,0,0-.407.608q-.1.547.827.772l.273.062a5.5,5.5,0,0,1,1.442.516,2.177,2.177,0,0,1,.769.721,1.785,1.785,0,0,1,.25,1.032,1.97,1.97,0,0,1-.455,1.23,2.783,2.783,0,0,1-1.189.813,4.144,4.144,0,0,1-1.589.267,3.122,3.122,0,0,1-2.051-.708,2.281,2.281,0,0,1-.834-1.794l1.818.014A1,1,0,0,0,78.8,11.722a1.614,1.614,0,0,0,.878-.219A.864.864,0,0,0,80.095,10.915ZM30.982,25.742a3.357,3.357,0,0,1-1.562,1.042,6.583,6.583,0,0,1-2.321.345,3.6,3.6,0,0,1-1.791-.448,3.125,3.125,0,0,1-1.217-1.268,4.487,4.487,0,0,1-.506-1.887,8.611,8.611,0,0,1,.208-2.314,6.508,6.508,0,0,1,.95-2.331,4.441,4.441,0,0,1,1.617-1.5,4.26,4.26,0,0,1,2.092-.475,3.46,3.46,0,0,1,2.44.878,3.644,3.644,0,0,1,1,2.437l-1.928-.007a2.039,2.039,0,0,0-.444-1.23,1.514,1.514,0,0,0-1.1-.424,2.159,2.159,0,0,0-1.993,1.111,6.913,6.913,0,0,0-.831,3.339,2.936,2.936,0,0,0,.359,1.812,1.487,1.487,0,0,0,1.3.656A2.775,2.775,0,0,0,29,25l.335-1.716H27.516l.267-1.511h3.8Zm5.448-6.275a2.967,2.967,0,0,1,1.685.5,2.83,2.83,0,0,1,1.039,1.347,4.166,4.166,0,0,1,.236,1.9,4.5,4.5,0,0,1-1.227,2.854,3.465,3.465,0,0,1-2.642,1.063,2.958,2.958,0,0,1-1.668-.5A2.819,2.819,0,0,1,32.814,25.3a4.075,4.075,0,0,1-.239-1.887,4.633,4.633,0,0,1,1.244-2.912A3.393,3.393,0,0,1,36.43,19.467Zm-1.948,4.651a1.707,1.707,0,0,0,.308,1.034,1.022,1.022,0,0,0,.827.392,1.5,1.5,0,0,0,1.395-.816,4.066,4.066,0,0,0,.472-2.215,1.856,1.856,0,0,0-.318-1.048,1,1,0,0,0-.831-.406,1.5,1.5,0,0,0-1.377.809A4.024,4.024,0,0,0,34.482,24.117ZM37.319,16.5h2.235L37.38,18.619h-1.7Zm5.7,3.1-.157.841a2.723,2.723,0,0,1,2.167-.971,2.081,2.081,0,0,1,1.135.314,1.469,1.469,0,0,1,.608.813,2.848,2.848,0,0,1,2.3-1.128,1.86,1.86,0,0,1,1.535.7,2.862,2.862,0,0,1,.434,1.955l-.014.171L50.239,27H48.3l.786-4.729a3.419,3.419,0,0,0,.021-.472.732.732,0,0,0-.82-.739,1.628,1.628,0,0,0-1.36.849l-.021.157L46.048,27H44.121l.786-4.71a3.411,3.411,0,0,0,.021-.472.731.731,0,0,0-.813-.745,1.634,1.634,0,0,0-1.319.69L41.872,27H39.944l1.278-7.4Zm12.264,7.54a3.218,3.218,0,0,1-1.719-.475,2.88,2.88,0,0,1-1.118-1.285,3.582,3.582,0,0,1-.287-1.8l.021-.273a4.782,4.782,0,0,1,.629-1.982,3.8,3.8,0,0,1,1.354-1.391,3.349,3.349,0,0,1,1.832-.461,2.559,2.559,0,0,1,2.164,1.051,3.6,3.6,0,0,1,.557,2.591l-.109.842H54.074a1.587,1.587,0,0,0,.349,1.148,1.331,1.331,0,0,0,1.025.444,2.365,2.365,0,0,0,1.846-.82l.882,1.094a2.743,2.743,0,0,1-1.2.981A3.934,3.934,0,0,1,55.284,27.137ZM55.9,21.06a1.37,1.37,0,0,0-.947.335,2.943,2.943,0,0,0-.742,1.21h2.652l.041-.178a1.812,1.812,0,0,0,.007-.52.992.992,0,0,0-.335-.619A1.05,1.05,0,0,0,55.9,21.06Zm5.8,4.334,3.486.014L64.9,27H58.934l.226-1.306,4.122-4.478L60.035,21.2l.28-1.6h5.763l-.219,1.265Z" transform="translate(-5371.13 -7533.892)" fill="#636363"/>
    <path id="Trazado_104557" data-name="Trazado 104557" d="M34.467,6.968a4.131,4.131,0,0,1-.542,2.358,2.252,2.252,0,0,1-3.379.017,3.921,3.921,0,0,1-.566-2.253V5.884a4.039,4.039,0,0,1,.542-2.329,2.293,2.293,0,0,1,3.389-.027A3.9,3.9,0,0,1,34.467,5.8Zm-.9-1.235a3.31,3.31,0,0,0-.322-1.672,1.109,1.109,0,0,0-1.021-.525,1.1,1.1,0,0,0-1.011.522,3.232,3.232,0,0,0-.327,1.606V7.109a3.363,3.363,0,0,0,.334,1.7,1.107,1.107,0,0,0,1.013.549,1.092,1.092,0,0,0,.994-.518,3.241,3.241,0,0,0,.339-1.631Zm6.372-.986a1.651,1.651,0,0,1-.281.947,1.91,1.91,0,0,1-.759.649,2.038,2.038,0,0,1,.881.7,1.757,1.757,0,0,1,.325,1.04,1.858,1.858,0,0,1-.623,1.47,2.73,2.73,0,0,1-3.281,0,1.866,1.866,0,0,1-.618-1.467,1.81,1.81,0,0,1,.315-1.04,1.96,1.96,0,0,1,.872-.7,1.863,1.863,0,0,1-.747-.649,1.674,1.674,0,0,1-.273-.942,1.838,1.838,0,0,1,.576-1.426,2.447,2.447,0,0,1,3.035,0A1.834,1.834,0,0,1,39.936,4.746ZM39.2,8.062a1.31,1.31,0,0,0-.378-.972,1.342,1.342,0,0,0-.989-.376,1.271,1.271,0,0,0-1.348,1.348,1.262,1.262,0,0,0,.359.952,1.6,1.6,0,0,0,1.995,0A1.259,1.259,0,0,0,39.2,8.062ZM37.841,3.535a1.166,1.166,0,0,0-.862.33,1.211,1.211,0,0,0-.33.9,1.2,1.2,0,0,0,.325.876,1.29,1.29,0,0,0,1.733,0,1.2,1.2,0,0,0,.325-.876,1.205,1.205,0,0,0-.337-.884A1.149,1.149,0,0,0,37.841,3.535Zm3.672,7.075h-.776l2.969-7.72h.771Zm8.306-3.643a4.131,4.131,0,0,1-.542,2.358,2.252,2.252,0,0,1-3.379.017,3.921,3.921,0,0,1-.566-2.253V5.884a4.039,4.039,0,0,1,.542-2.329,2.293,2.293,0,0,1,3.389-.027A3.9,3.9,0,0,1,49.818,5.8Zm-.9-1.235a3.31,3.31,0,0,0-.322-1.672,1.109,1.109,0,0,0-1.021-.525,1.1,1.1,0,0,0-1.011.522,3.232,3.232,0,0,0-.327,1.606V7.109a3.363,3.363,0,0,0,.334,1.7,1.107,1.107,0,0,0,1.013.549,1.092,1.092,0,0,0,.994-.518,3.241,3.241,0,0,0,.339-1.631ZM55.634,10H50.976V9.351l2.461-2.734a5.847,5.847,0,0,0,.754-1.008,1.683,1.683,0,0,0,.208-.8,1.276,1.276,0,0,0-.337-.913,1.178,1.178,0,0,0-.9-.356,1.4,1.4,0,0,0-1.047.383,1.464,1.464,0,0,0-.374,1.067h-.9A2.1,2.1,0,0,1,51.471,3.4a2.344,2.344,0,0,1,1.692-.605,2.252,2.252,0,0,1,1.567.52A1.774,1.774,0,0,1,55.307,4.7a4.067,4.067,0,0,1-1.338,2.5l-1.9,2.065h3.569Zm1.23.61h-.776l2.969-7.72h.771ZM63.681,10h-.908V3.979l-1.821.669v-.82l2.588-.972h.142Zm6.108-3.125a2.21,2.21,0,0,1-.676.542,1.835,1.835,0,0,1-.862.205,1.894,1.894,0,0,1-1.072-.3,1.968,1.968,0,0,1-.706-.852,2.9,2.9,0,0,1-.249-1.213A2.96,2.96,0,0,1,66.5,3.97a1.991,1.991,0,0,1,.769-.874,2.193,2.193,0,0,1,1.162-.3,1.985,1.985,0,0,1,1.663.789A3.44,3.44,0,0,1,70.7,5.732V6a4.6,4.6,0,0,1-.82,3.03A3.152,3.152,0,0,1,67.4,10h-.176V9.238h.19a2.487,2.487,0,0,0,1.719-.582A2.5,2.5,0,0,0,69.789,6.875Zm-1.392,0a1.4,1.4,0,0,0,.837-.278,1.641,1.641,0,0,0,.559-.688V5.547A2.486,2.486,0,0,0,69.408,4.1,1.179,1.179,0,0,0,67.475,4a1.883,1.883,0,0,0-.361,1.2,1.96,1.96,0,0,0,.349,1.2A1.105,1.105,0,0,0,68.4,6.875ZM76.532,3.4,73.588,10h-.947l2.935-6.367H71.728V2.891h4.8Zm2.339,2.607h.679a1.492,1.492,0,0,0,1.006-.337,1.126,1.126,0,0,0,.366-.884,1.1,1.1,0,0,0-1.245-1.25,1.3,1.3,0,0,0-.935.334,1.171,1.171,0,0,0-.349.886h-.9a1.814,1.814,0,0,1,.618-1.4,2.25,2.25,0,0,1,1.57-.559,2.224,2.224,0,0,1,1.577.532A1.923,1.923,0,0,1,81.825,4.8a1.561,1.561,0,0,1-.3.9,1.813,1.813,0,0,1-.818.649,1.747,1.747,0,0,1,.906.615,1.709,1.709,0,0,1,.32,1.05,1.939,1.939,0,0,1-.625,1.519,2.34,2.34,0,0,1-1.626.562,2.4,2.4,0,0,1-1.628-.542,1.8,1.8,0,0,1-.627-1.431h.908a1.162,1.162,0,0,0,.366.9,1.393,1.393,0,0,0,.981.337,1.367,1.367,0,0,0,1-.342,1.317,1.317,0,0,0,.347-.981,1.2,1.2,0,0,0-.381-.952,1.659,1.659,0,0,0-1.1-.342h-.679Z" transform="translate(-5378.264 -7400.75)" fill="#12263f"/>
    <path id="Trazado_104558" data-name="Trazado 104558" d="M44.928,8.14H41.95L41.281,10h-.967l2.715-7.109h.82L46.569,10h-.962Zm-2.7-.767H44.65L43.439,4.048Zm7.031-.024H46.881V6.611h2.383ZM53.019,10h-.908V3.979l-1.821.669v-.82l2.588-.972h.142Zm4.619-2.651H55.255V6.611h2.383Zm2.1-1.343h.679a1.492,1.492,0,0,0,1.006-.337,1.126,1.126,0,0,0,.366-.884,1.1,1.1,0,0,0-1.245-1.25,1.3,1.3,0,0,0-.935.334,1.171,1.171,0,0,0-.349.886h-.9a1.814,1.814,0,0,1,.618-1.4,2.25,2.25,0,0,1,1.57-.559,2.224,2.224,0,0,1,1.577.532A1.923,1.923,0,0,1,62.692,4.8a1.561,1.561,0,0,1-.3.9,1.813,1.813,0,0,1-.818.649,1.747,1.747,0,0,1,.906.615,1.709,1.709,0,0,1,.32,1.05,1.939,1.939,0,0,1-.625,1.519,2.34,2.34,0,0,1-1.626.562,2.4,2.4,0,0,1-1.628-.542,1.8,1.8,0,0,1-.627-1.431H59.2a1.162,1.162,0,0,0,.366.9,1.393,1.393,0,0,0,.981.337,1.367,1.367,0,0,0,1-.342,1.317,1.317,0,0,0,.347-.981,1.2,1.2,0,0,0-.381-.952,1.659,1.659,0,0,0-1.1-.342h-.679Zm6.274,1.343H63.629V6.611h2.383ZM71.457,10H66.8V9.351l2.461-2.734a5.846,5.846,0,0,0,.754-1.008,1.683,1.683,0,0,0,.208-.8,1.276,1.276,0,0,0-.337-.913,1.178,1.178,0,0,0-.9-.356,1.4,1.4,0,0,0-1.047.383,1.464,1.464,0,0,0-.374,1.067h-.9A2.1,2.1,0,0,1,67.294,3.4a2.344,2.344,0,0,1,1.692-.605,2.252,2.252,0,0,1,1.567.52A1.774,1.774,0,0,1,71.129,4.7a4.067,4.067,0,0,1-1.338,2.5l-1.9,2.065h3.569Z" transform="translate(-5378.264 -7351.858)" fill="#12263f"/>
    <path id="Trazado_104559" data-name="Trazado 104559" d="M0,0H70" transform="translate(-5251.5 -7343.25)" fill="none" stroke="#ff8658" stroke-width="1"/>
    <path id="Trazado_104560" data-name="Trazado 104560" d="M0,0H70" transform="translate(-5251.5 -7392.999)" fill="none" stroke="#ff8658" stroke-width="1"/>
    <path id="Trazado_104561" data-name="Trazado 104561" d="M0,0H70" transform="translate(-5251.5 -7450.75)" fill="none" stroke="#ff8658" stroke-width="1"/>
    <path id="Trazado_104553" data-name="Trazado 104553" d="M0,0H70" transform="translate(-5326.264 -7548.999) rotate(-90)" fill="none" stroke="#ff8658" stroke-width="1"/>
    <path id="Trazado_104562" data-name="Trazado 104562" d="M9,0A9,9,0,1,1,0,9,9,9,0,0,1,9,0Z" transform="translate(-5190.5 -7352.75)" fill="#ffa761"/>
    <path id="Trazado_104563" data-name="Trazado 104563" d="M9,0A9,9,0,1,1,0,9,9,9,0,0,1,9,0Z" transform="translate(-5190.5 -7402.499)" fill="#ffa761"/>
    <path id="Trazado_104564" data-name="Trazado 104564" d="M9,0A9,9,0,1,1,0,9,9,9,0,0,1,9,0Z" transform="translate(-5190.5 -7460.25)" fill="#ffa761"/>
    <path id="Trazado_104554" data-name="Trazado 104554" d="M9,0A9,9,0,1,1,0,9,9,9,0,0,1,9,0Z" transform="translate(-5335.764 -7609.999) rotate(-90)" fill="#ffa761"/>
    <path id="Trazado_104556" data-name="Trazado 104556" d="M5.249,10H.591V9.351L3.052,6.616a5.847,5.847,0,0,0,.754-1.008,1.683,1.683,0,0,0,.208-.8,1.276,1.276,0,0,0-.337-.913,1.178,1.178,0,0,0-.9-.356,1.4,1.4,0,0,0-1.047.383,1.464,1.464,0,0,0-.374,1.067h-.9A2.1,2.1,0,0,1,1.086,3.4a2.344,2.344,0,0,1,1.692-.605,2.252,2.252,0,0,1,1.567.52A1.774,1.774,0,0,1,4.922,4.7,4.067,4.067,0,0,1,3.584,7.2L1.68,9.263H5.249Zm5.415-3.032a4.131,4.131,0,0,1-.542,2.358,1.928,1.928,0,0,1-1.694.771,1.942,1.942,0,0,1-1.685-.754A3.921,3.921,0,0,1,6.177,7.09V5.884a4.039,4.039,0,0,1,.542-2.329,1.942,1.942,0,0,1,1.7-.762,1.96,1.96,0,0,1,1.689.735A3.9,3.9,0,0,1,10.664,5.8Zm-.9-1.235A3.31,3.31,0,0,0,9.438,4.06a1.109,1.109,0,0,0-1.021-.525,1.1,1.1,0,0,0-1.011.522A3.232,3.232,0,0,0,7.08,5.664V7.109a3.363,3.363,0,0,0,.334,1.7,1.107,1.107,0,0,0,1.013.549,1.092,1.092,0,0,0,.994-.518,3.241,3.241,0,0,0,.339-1.631ZM14.79,10h-.908V3.979l-1.821.669v-.82l2.588-.972h.142Zm7.3,0H17.437V9.351L19.9,6.616a5.846,5.846,0,0,0,.754-1.008,1.683,1.683,0,0,0,.208-.8,1.276,1.276,0,0,0-.337-.913,1.178,1.178,0,0,0-.9-.356,1.4,1.4,0,0,0-1.047.383A1.464,1.464,0,0,0,18.2,4.985h-.9A2.1,2.1,0,0,1,17.932,3.4a2.344,2.344,0,0,1,1.692-.605,2.252,2.252,0,0,1,1.567.52A1.774,1.774,0,0,1,21.768,4.7,4.067,4.067,0,0,1,20.43,7.2l-1.9,2.065h3.569ZM27.51,6.968a4.131,4.131,0,0,1-.542,2.358,1.928,1.928,0,0,1-1.694.771,1.942,1.942,0,0,1-1.685-.754,3.921,3.921,0,0,1-.566-2.253V5.884a4.039,4.039,0,0,1,.542-2.329,1.942,1.942,0,0,1,1.7-.762,1.96,1.96,0,0,1,1.689.735A3.9,3.9,0,0,1,27.51,5.8Zm-.9-1.235a3.31,3.31,0,0,0-.322-1.672,1.109,1.109,0,0,0-1.021-.525,1.1,1.1,0,0,0-1.011.522,3.232,3.232,0,0,0-.327,1.606V7.109a3.363,3.363,0,0,0,.334,1.7,1.107,1.107,0,0,0,1.013.549,1.092,1.092,0,0,0,.994-.518,3.241,3.241,0,0,0,.339-1.631Zm5.605-2.847v.767h-.166a2.378,2.378,0,0,0-1.68.625,2.6,2.6,0,0,0-.723,1.7,1.928,1.928,0,0,1,1.533-.645,1.844,1.844,0,0,1,1.482.654,2.524,2.524,0,0,1,.554,1.689,2.516,2.516,0,0,1-.6,1.758,2.06,2.06,0,0,1-1.6.659,2.029,2.029,0,0,1-1.655-.784,3.106,3.106,0,0,1-.635-2.019V6.948a4.68,4.68,0,0,1,.837-3,3.075,3.075,0,0,1,2.493-1.062Zm-1.187,3.2a1.518,1.518,0,0,0-1.4.977V7.4a2.332,2.332,0,0,0,.4,1.416,1.185,1.185,0,0,0,.986.537A1.148,1.148,0,0,0,31.97,8.9a1.864,1.864,0,0,0,.349-1.177,1.865,1.865,0,0,0-.354-1.184A1.135,1.135,0,0,0,31.025,6.089Zm7.715.879A4.131,4.131,0,0,1,38.2,9.326a2.252,2.252,0,0,1-3.379.017,3.921,3.921,0,0,1-.566-2.253V5.884a4.039,4.039,0,0,1,.542-2.329,2.293,2.293,0,0,1,3.389-.027A3.9,3.9,0,0,1,38.74,5.8Zm-.9-1.235a3.31,3.31,0,0,0-.322-1.672,1.109,1.109,0,0,0-1.021-.525,1.1,1.1,0,0,0-1.011.522,3.232,3.232,0,0,0-.327,1.606V7.109a3.363,3.363,0,0,0,.334,1.7A1.107,1.107,0,0,0,36.5,9.36a1.092,1.092,0,0,0,.994-.518,3.241,3.241,0,0,0,.339-1.631Zm3.374.273h.679A1.492,1.492,0,0,0,42.9,5.669a1.126,1.126,0,0,0,.366-.884,1.1,1.1,0,0,0-1.245-1.25,1.3,1.3,0,0,0-.935.334,1.171,1.171,0,0,0-.349.886h-.9a1.814,1.814,0,0,1,.618-1.4,2.25,2.25,0,0,1,1.57-.559,2.224,2.224,0,0,1,1.577.532A1.923,1.923,0,0,1,44.165,4.8a1.561,1.561,0,0,1-.3.9,1.813,1.813,0,0,1-.818.649,1.747,1.747,0,0,1,.906.615,1.709,1.709,0,0,1,.32,1.05,1.939,1.939,0,0,1-.625,1.519,2.34,2.34,0,0,1-1.626.562,2.4,2.4,0,0,1-1.628-.542,1.8,1.8,0,0,1-.627-1.431h.908a1.162,1.162,0,0,0,.366.9,1.393,1.393,0,0,0,.981.337,1.367,1.367,0,0,0,1-.342,1.317,1.317,0,0,0,.347-.981,1.2,1.2,0,0,0-.381-.952,1.659,1.659,0,0,0-1.1-.342h-.679Zm8.76.962a4.131,4.131,0,0,1-.542,2.358,2.252,2.252,0,0,1-3.379.017,3.921,3.921,0,0,1-.566-2.253V5.884a4.039,4.039,0,0,1,.542-2.329,2.293,2.293,0,0,1,3.389-.027A3.9,3.9,0,0,1,49.971,5.8Zm-.9-1.235a3.31,3.31,0,0,0-.322-1.672,1.109,1.109,0,0,0-1.021-.525,1.1,1.1,0,0,0-1.011.522,3.232,3.232,0,0,0-.327,1.606V7.109a3.363,3.363,0,0,0,.334,1.7,1.107,1.107,0,0,0,1.013.549,1.092,1.092,0,0,0,.994-.518,3.241,3.241,0,0,0,.339-1.631ZM54.1,10h-.908V3.979l-1.821.669v-.82l2.588-.972H54.1Zm6.46-2.388h.986V8.35h-.986V10h-.908V8.35H56.411V7.817l3.184-4.927h.962Zm-3.12,0h2.212V4.126l-.107.2ZM66.948,3.4,64,10h-.947l2.935-6.367H62.144V2.891h4.8Zm4.487,3.477a2.21,2.21,0,0,1-.676.542,1.835,1.835,0,0,1-.862.205,1.894,1.894,0,0,1-1.072-.3,1.968,1.968,0,0,1-.706-.852,2.9,2.9,0,0,1-.249-1.213,2.96,2.96,0,0,1,.271-1.284,1.991,1.991,0,0,1,.769-.874,2.193,2.193,0,0,1,1.162-.3,1.985,1.985,0,0,1,1.663.789,3.44,3.44,0,0,1,.608,2.151V6a4.6,4.6,0,0,1-.82,3.03A3.152,3.152,0,0,1,69.048,10h-.176V9.238h.19a2.487,2.487,0,0,0,1.719-.582A2.5,2.5,0,0,0,71.436,6.875Zm-1.392,0a1.4,1.4,0,0,0,.837-.278,1.641,1.641,0,0,0,.559-.688V5.547A2.486,2.486,0,0,0,71.055,4.1,1.179,1.179,0,0,0,69.121,4a1.883,1.883,0,0,0-.361,1.2,1.96,1.96,0,0,0,.349,1.2A1.105,1.105,0,0,0,70.044,6.875ZM74.9,6.006h.679a1.492,1.492,0,0,0,1.006-.337,1.126,1.126,0,0,0,.366-.884,1.1,1.1,0,0,0-1.245-1.25,1.3,1.3,0,0,0-.935.334,1.171,1.171,0,0,0-.349.886h-.9a1.814,1.814,0,0,1,.618-1.4,2.25,2.25,0,0,1,1.57-.559,2.224,2.224,0,0,1,1.577.532A1.923,1.923,0,0,1,77.856,4.8a1.561,1.561,0,0,1-.3.9,1.813,1.813,0,0,1-.818.649,1.747,1.747,0,0,1,.906.615,1.709,1.709,0,0,1,.32,1.05,1.939,1.939,0,0,1-.625,1.519,2.34,2.34,0,0,1-1.626.562,2.4,2.4,0,0,1-1.628-.542,1.8,1.8,0,0,1-.627-1.431h.908a1.162,1.162,0,0,0,.366.9,1.393,1.393,0,0,0,.981.337,1.367,1.367,0,0,0,1-.342,1.317,1.317,0,0,0,.347-.981,1.2,1.2,0,0,0-.381-.952,1.659,1.659,0,0,0-1.1-.342H74.9Zm7.764.869a2.21,2.21,0,0,1-.676.542,1.835,1.835,0,0,1-.862.205,1.894,1.894,0,0,1-1.072-.3,1.968,1.968,0,0,1-.706-.852A2.9,2.9,0,0,1,79.1,5.254a2.96,2.96,0,0,1,.271-1.284,1.991,1.991,0,0,1,.769-.874,2.193,2.193,0,0,1,1.162-.3,1.985,1.985,0,0,1,1.663.789,3.44,3.44,0,0,1,.608,2.151V6a4.6,4.6,0,0,1-.82,3.03A3.152,3.152,0,0,1,80.278,10H80.1V9.238h.19a2.487,2.487,0,0,0,1.719-.582A2.5,2.5,0,0,0,82.666,6.875Zm-1.392,0a1.4,1.4,0,0,0,.837-.278,1.641,1.641,0,0,0,.559-.688V5.547A2.486,2.486,0,0,0,82.285,4.1,1.179,1.179,0,0,0,80.352,4a1.883,1.883,0,0,0-.361,1.2,1.96,1.96,0,0,0,.349,1.2A1.105,1.105,0,0,0,81.274,6.875Zm4.858-.869h.679a1.492,1.492,0,0,0,1.006-.337,1.126,1.126,0,0,0,.366-.884,1.1,1.1,0,0,0-1.245-1.25A1.3,1.3,0,0,0,86,3.87a1.171,1.171,0,0,0-.349.886h-.9a1.814,1.814,0,0,1,.618-1.4,2.25,2.25,0,0,1,1.57-.559,2.224,2.224,0,0,1,1.577.532A1.923,1.923,0,0,1,89.087,4.8a1.561,1.561,0,0,1-.3.9,1.813,1.813,0,0,1-.818.649,1.747,1.747,0,0,1,.906.615,1.709,1.709,0,0,1,.32,1.05,1.939,1.939,0,0,1-.625,1.519,2.34,2.34,0,0,1-1.626.562,2.4,2.4,0,0,1-1.628-.542,1.8,1.8,0,0,1-.627-1.431H85.6a1.162,1.162,0,0,0,.366.9,1.393,1.393,0,0,0,.981.337,1.367,1.367,0,0,0,1-.342,1.317,1.317,0,0,0,.347-.981,1.2,1.2,0,0,0-.381-.952,1.659,1.659,0,0,0-1.1-.342h-.679Zm8.613-1.26a1.651,1.651,0,0,1-.281.947,1.91,1.91,0,0,1-.759.649,2.038,2.038,0,0,1,.881.7,1.757,1.757,0,0,1,.325,1.04,1.858,1.858,0,0,1-.623,1.47,2.73,2.73,0,0,1-3.281,0,1.866,1.866,0,0,1-.618-1.467,1.81,1.81,0,0,1,.315-1.04,1.96,1.96,0,0,1,.872-.7,1.863,1.863,0,0,1-.747-.649,1.674,1.674,0,0,1-.273-.942,1.838,1.838,0,0,1,.576-1.426,2.447,2.447,0,0,1,3.035,0A1.834,1.834,0,0,1,94.746,4.746Zm-.737,3.315a1.31,1.31,0,0,0-.378-.972,1.342,1.342,0,0,0-.989-.376,1.271,1.271,0,0,0-1.348,1.348,1.262,1.262,0,0,0,.359.952,1.6,1.6,0,0,0,1.995,0A1.259,1.259,0,0,0,94.009,8.062ZM92.651,3.535a1.166,1.166,0,0,0-.862.33,1.211,1.211,0,0,0-.33.9,1.2,1.2,0,0,0,.325.876,1.29,1.29,0,0,0,1.733,0,1.2,1.2,0,0,0,.325-.876,1.205,1.205,0,0,0-.337-.884A1.149,1.149,0,0,0,92.651,3.535Zm6.86,3.34a2.21,2.21,0,0,1-.676.542,1.835,1.835,0,0,1-.862.205,1.894,1.894,0,0,1-1.072-.3,1.968,1.968,0,0,1-.706-.852,2.9,2.9,0,0,1-.249-1.213,2.96,2.96,0,0,1,.271-1.284,1.991,1.991,0,0,1,.769-.874,2.193,2.193,0,0,1,1.162-.3,1.985,1.985,0,0,1,1.663.789,3.44,3.44,0,0,1,.608,2.151V6a4.6,4.6,0,0,1-.82,3.03A3.152,3.152,0,0,1,97.124,10h-.176V9.238h.19a2.487,2.487,0,0,0,1.719-.582A2.5,2.5,0,0,0,99.512,6.875Zm-1.392,0a1.4,1.4,0,0,0,.837-.278,1.641,1.641,0,0,0,.559-.688V5.547A2.486,2.486,0,0,0,99.131,4.1,1.179,1.179,0,0,0,97.2,4a1.883,1.883,0,0,0-.361,1.2,1.96,1.96,0,0,0,.349,1.2A1.105,1.105,0,0,0,98.12,6.875Zm7.856-2.129a1.651,1.651,0,0,1-.281.947,1.91,1.91,0,0,1-.759.649,2.038,2.038,0,0,1,.881.7,1.757,1.757,0,0,1,.325,1.04,1.858,1.858,0,0,1-.623,1.47,2.73,2.73,0,0,1-3.281,0,1.866,1.866,0,0,1-.618-1.467,1.81,1.81,0,0,1,.315-1.04,1.96,1.96,0,0,1,.872-.7,1.863,1.863,0,0,1-.747-.649,1.674,1.674,0,0,1-.273-.942,1.838,1.838,0,0,1,.576-1.426,2.447,2.447,0,0,1,3.035,0A1.834,1.834,0,0,1,105.977,4.746Zm-.737,3.315a1.31,1.31,0,0,0-.378-.972,1.342,1.342,0,0,0-.989-.376,1.271,1.271,0,0,0-1.348,1.348,1.262,1.262,0,0,0,.359.952,1.6,1.6,0,0,0,1.995,0A1.259,1.259,0,0,0,105.239,8.062Zm-1.357-4.526a1.166,1.166,0,0,0-.862.33,1.211,1.211,0,0,0-.33.9,1.2,1.2,0,0,0,.325.876,1.29,1.29,0,0,0,1.733,0,1.2,1.2,0,0,0,.325-.876,1.205,1.205,0,0,0-.337-.884A1.149,1.149,0,0,0,103.882,3.535Z" transform="translate(-5376.264 -7458.938)" fill="#12263f"/>
    <path id="Trazado_104555" data-name="Trazado 104555" d="M1.661-10.021V0H-.492V-7.588a2.579,2.579,0,0,1-.42.3,4.34,4.34,0,0,1-.516.253A4.608,4.608,0,0,1-2-6.846a4.144,4.144,0,0,1-.581.113V-8.552A8.982,8.982,0,0,0-.991-9.181a9.025,9.025,0,0,0,1.347-.841Z" transform="translate(-5327 -7613.75)" fill="#fff"/>
    <path id="Trazado_104566" data-name="Trazado 104566" d="M-1.094-1.791H3.063V0H-3.459V-.738a3.436,3.436,0,0,1,.253-1.35A4.48,4.48,0,0,1-2.57-3.162,5.514,5.514,0,0,1-1.733-4q.455-.366.865-.66.431-.308.755-.588a4.3,4.3,0,0,0,.547-.557,2.118,2.118,0,0,0,.332-.561,1.667,1.667,0,0,0,.109-.6,1.216,1.216,0,0,0-.355-.95A1.58,1.58,0,0,0-.567-8.244a3.651,3.651,0,0,0-2.42,1v-1.9A5.2,5.2,0,0,1-.1-9.967a4.26,4.26,0,0,1,1.336.195,2.827,2.827,0,0,1,1,.557,2.376,2.376,0,0,1,.625.878,2.964,2.964,0,0,1,.215,1.152,3.248,3.248,0,0,1-.208,1.2,3.7,3.7,0,0,1-.554.957,5.023,5.023,0,0,1-.8.79q-.451.359-.937.694-.328.232-.632.461a6,6,0,0,0-.537.451,2.449,2.449,0,0,0-.369.434A.749.749,0,0,0-1.094-1.791Z" transform="translate(-5181 -7446.75)" fill="#fff"/>
    <path id="Trazado_104567" data-name="Trazado 104567" d="M-3.227-.321V-2.2a3.794,3.794,0,0,0,2.3.718A2.068,2.068,0,0,0,.359-1.839,1.18,1.18,0,0,0,.82-2.83,1.127,1.127,0,0,0,.25-3.842,2.957,2.957,0,0,0-1.319-4.2h-.909V-5.852h.841q1.914,0,1.914-1.271,0-1.2-1.47-1.2a3.351,3.351,0,0,0-1.914.636V-9.447a5.286,5.286,0,0,1,2.406-.52A3.631,3.631,0,0,1,1.89-9.29a2.154,2.154,0,0,1,.837,1.757A2.284,2.284,0,0,1,.779-5.127v.034a2.649,2.649,0,0,1,1.641.755,2.13,2.13,0,0,1,.6,1.535,2.63,2.63,0,0,1-1,2.174,4.345,4.345,0,0,1-2.775.8A5.364,5.364,0,0,1-3.227-.321Z" transform="translate(-5181 -7388.75)" fill="#fff"/>
    <path id="Trazado_104568" data-name="Trazado 104568" d="M-3.227-.321V-2.2a3.794,3.794,0,0,0,2.3.718A2.068,2.068,0,0,0,.359-1.839,1.18,1.18,0,0,0,.82-2.83,1.127,1.127,0,0,0,.25-3.842,2.957,2.957,0,0,0-1.319-4.2h-.909V-5.852h.841q1.914,0,1.914-1.271,0-1.2-1.47-1.2a3.351,3.351,0,0,0-1.914.636V-9.447a5.286,5.286,0,0,1,2.406-.52A3.631,3.631,0,0,1,1.89-9.29a2.154,2.154,0,0,1,.837,1.757A2.284,2.284,0,0,1,.779-5.127v.034a2.649,2.649,0,0,1,1.641.755,2.13,2.13,0,0,1,.6,1.535,2.63,2.63,0,0,1-1,2.174,4.345,4.345,0,0,1-2.775.8A5.364,5.364,0,0,1-3.227-.321Z" transform="translate(-5181 -7388.75)" fill="#fff"/>
    <path id="Trazado_104569" data-name="Trazado 104569" d="M-3.227-.321V-2.2a3.794,3.794,0,0,0,2.3.718A2.068,2.068,0,0,0,.359-1.839,1.18,1.18,0,0,0,.82-2.83,1.127,1.127,0,0,0,.25-3.842,2.957,2.957,0,0,0-1.319-4.2h-.909V-5.852h.841q1.914,0,1.914-1.271,0-1.2-1.47-1.2a3.351,3.351,0,0,0-1.914.636V-9.447a5.286,5.286,0,0,1,2.406-.52A3.631,3.631,0,0,1,1.89-9.29a2.154,2.154,0,0,1,.837,1.757A2.284,2.284,0,0,1,.779-5.127v.034a2.649,2.649,0,0,1,1.641.755,2.13,2.13,0,0,1,.6,1.535,2.63,2.63,0,0,1-1,2.174,4.345,4.345,0,0,1-2.775.8A5.364,5.364,0,0,1-3.227-.321Z" transform="translate(-5181 -7388.75)" fill="#fff"/>
    <path id="Trazado_104565" data-name="Trazado 104565" d="M2.481-9.8v6.18H3.657V-2.01H2.481V0H.513V-2.01H-3.76V-3.7q.567-.636,1.176-1.391t1.176-1.555q.567-.8,1.056-1.61A16.138,16.138,0,0,0,.479-9.8Zm-4.307,6.18H.513V-7.048q-.239.444-.52.9t-.588.9q-.308.441-.622.854T-1.825-3.623Z" transform="translate(-5182 -7338.75)" fill="#fff"/>
  </g>
</svg>
