<svg xmlns="http://www.w3.org/2000/svg" xmlns:xlink="http://www.w3.org/1999/xlink" width="296.336" height="160.436" viewBox="0 0 296.336 160.436">
  <defs>
    <clipPath id="clip-path">
      <path id="Trazado_102201" data-name="Trazado 102201" d="M948.2,363.137H930.7l5.479-21.984h17.5Z" transform="translate(-930.704 -341.152)" fill="none"/>
    </clipPath>
  </defs>
  <g id="Grupo_69781" data-name="Grupo 69781" transform="translate(-182.548 -270.849)">
    <g id="Grupo_69663" data-name="Grupo 69663" transform="translate(184.753 270.849)">
      <g id="Grupo_69653" data-name="Grupo 69653" transform="translate(197.561 87.428)">
        <g id="Grupo_69648" data-name="Grupo 69648" transform="translate(0)">
          <g id="Grupo_69647" data-name="Grupo 69647">
            <rect id="Rectángulo_5480" data-name="Rectángulo 5480" width="19.522" height="72.746" transform="translate(28.637 72.746) rotate(180)" fill="#82b479"/>
            <rect id="Rectángulo_5481" data-name="Rectángulo 5481" width="14.345" height="72.746" transform="translate(14.345 72.746) rotate(180)" fill="#a8d29f"/>
          </g>
        </g>
        <circle id="Elipse_4651" data-name="Elipse 4651" cx="3.202" cy="3.202" r="3.202" transform="translate(4.211 61.837)" fill="#82b479"/>
        <g id="Grupo_69650" data-name="Grupo 69650" transform="translate(28.637)">
          <g id="Grupo_69649" data-name="Grupo 69649" transform="translate(0)">
            <rect id="Rectángulo_5482" data-name="Rectángulo 5482" width="19.522" height="72.746" transform="translate(28.637 72.746) rotate(180)" fill="#699dee"/>
            <rect id="Rectángulo_5483" data-name="Rectángulo 5483" width="14.345" height="72.746" transform="translate(14.345 72.746) rotate(180)" fill="#afcdfb"/>
          </g>
        </g>
        <circle id="Elipse_4652" data-name="Elipse 4652" cx="3.202" cy="3.202" r="3.202" transform="translate(32.848 61.837)" fill="#699dee"/>
        <rect id="Rectángulo_5484" data-name="Rectángulo 5484" width="6.404" height="38.182" transform="translate(32.848 7.404)" fill="#fff"/>
        <g id="Grupo_69652" data-name="Grupo 69652" transform="translate(56.938)">
          <g id="Grupo_69651" data-name="Grupo 69651" transform="translate(0)">
            <rect id="Rectángulo_5485" data-name="Rectángulo 5485" width="19.522" height="72.746" transform="translate(28.637 72.746) rotate(180)" fill="#d86713"/>
            <rect id="Rectángulo_5486" data-name="Rectángulo 5486" width="14.345" height="72.746" transform="translate(14.345 72.746) rotate(180)" fill="#f1a34f"/>
          </g>
        </g>
        <circle id="Elipse_4653" data-name="Elipse 4653" cx="3.202" cy="3.202" r="3.202" transform="translate(61.15 61.837)" fill="#d86713"/>
        <rect id="Rectángulo_5487" data-name="Rectángulo 5487" width="6.404" height="38.182" transform="translate(61.15 7.404)" fill="#fff"/>
        <rect id="Rectángulo_5488" data-name="Rectángulo 5488" width="6.404" height="38.182" transform="translate(3.97 7.891)" fill="#fff"/>
      </g>
      <g id="Grupo_69654" data-name="Grupo 69654" transform="translate(60.286 28.797)">
        <path id="Trazado_102157" data-name="Trazado 102157" d="M1372.859,908.564l6.883,81.841s.721,4.961-2.969,4.97c-6.068.014-30.2,0-30.2,0s4.567-1.033,4.511-3.356c-.065-2.739-8.045-84.229-8.045-84.229Z" transform="translate(-1273.333 -864.03)" fill="#d86713"/>
        <path id="Trazado_102158" data-name="Trazado 102158" d="M1329.016,982.34c1.193,0,24.242.076,30.151,0,2.575-.032,3.027-2.289,3.048-3.751a7.3,7.3,0,0,0-.078-1.218l-.179-2.127-.456-5.422-.4-4.79-.518-6.155-.436-5.2-4.891-58.153-29.819-.774s3.361,34.1,5.738,58.927c.265,2.766.518,5.418.751,7.893q.114,1.186.219,2.316c.22,2.349.422,4.506.6,6.41.093,1,.178,1.936.255,2.791.3,3.348.481,5.486.484,5.892a3.457,3.457,0,0,1-.058.662C1332.932,982.255,1329.464,982.34,1329.016,982.34Z" transform="translate(-1257.733 -852.48)" fill="#ee9849"/>
        <path id="Trazado_102159" data-name="Trazado 102159" d="M759.9,523.646H903.066L886.3,590.99l-2.3,9.223L876.2,631.581H731.123Z" transform="translate(-731.123 -523.645)" fill="#f1a34f"/>
        <path id="Trazado_102160" data-name="Trazado 102160" d="M2031.5,523.645l2.323.775-26.1,109.5-3.089-2.343Z" transform="translate(-1859.559 -523.645)" fill="#ee9849"/>
        <path id="Trazado_102161" data-name="Trazado 102161" d="M879.289,1473.49H735.109l-3.982-2.343H876.2Z" transform="translate(-731.127 -1363.212)" fill="#d86713"/>
        <rect id="Rectángulo_5489" data-name="Rectángulo 5489" width="31.217" height="1.484" transform="translate(66.313 129.893)" fill="#f1a34f"/>
        <path id="Trazado_102162" data-name="Trazado 102162" d="M1382.91,1491.707l.161,1.134,29.358,5.931-.4-4.79-.192-2.275Z" transform="translate(-1308.661 -1381.429)" fill="#d86713"/>
        <path id="Trazado_102163" data-name="Trazado 102163" d="M1356.872,1591.677c1.193,0,24.242.076,30.151,0,2.575-.032,3.027-2.29,3.048-3.75l-29.22-5.5c.3,3.348.481,5.486.484,5.892a3.438,3.438,0,0,1-.058.662C1360.787,1591.592,1357.32,1591.677,1356.872,1591.677Z" transform="translate(-1285.589 -1461.817)" fill="#d86713" opacity="0.4"/>
        <path id="Trazado_102164" data-name="Trazado 102164" d="M1461.752,1284.907l61.843,21.2,5.281-21.217Z" transform="translate(-1378.522 -1198.177)" fill="#d86713" opacity="0.4"/>
        <path id="Trazado_102165" data-name="Trazado 102165" d="M803.1,523.645H946.264l-21.576,86.719-144.813.027Z" transform="translate(-774.321 -523.645)" fill="#f1a34f"/>
      </g>
      <path id="Trazado_102166" data-name="Trazado 102166" d="M1333.551,1351.437a4.906,4.906,0,0,1,4.6-3.852,3.082,3.082,0,0,1,3.1,3.852,4.906,4.906,0,0,1-4.6,3.852A3.083,3.083,0,0,1,1333.551,1351.437Z" transform="translate(-1204.574 -1224.928)" fill="#d86713"/>
      <path id="Trazado_102167" data-name="Trazado 102167" d="M839.145,642.775H973.188l15.18-60.472,1.164-4.637.993-3.956,2.328-9.275H860.742l-2.557,9.275-1.091,3.956-1.278,4.637Z" transform="translate(-766.554 -530.99)" fill="#e9f3fe"/>
      <path id="Trazado_102168" data-name="Trazado 102168" d="M1008.845,564.434h132.111l-2.328,9.275H1006.288Z" transform="translate(-914.657 -530.99)" fill="#a8d29f"/>
      <g id="Grupo_69655" data-name="Grupo 69655" transform="translate(210.478 36.476)">
        <path id="Trazado_102169" data-name="Trazado 102169" d="M2121.292,591.052a.876.876,0,0,1,.87,1.159,1.583,1.583,0,0,1-1.448,1.159.876.876,0,0,1-.87-1.159A1.584,1.584,0,0,1,2121.292,591.052Z" transform="translate(-2111.806 -591.052)" fill="#e9f3fe"/>
        <path id="Trazado_102170" data-name="Trazado 102170" d="M2087.473,591.052a.876.876,0,0,1,.87,1.159,1.584,1.584,0,0,1-1.448,1.159.876.876,0,0,1-.87-1.159A1.583,1.583,0,0,1,2087.473,591.052Z" transform="translate(-2081.841 -591.052)" fill="#e9f3fe"/>
        <path id="Trazado_102171" data-name="Trazado 102171" d="M2049.609,592.211a1.584,1.584,0,0,1,1.448-1.159.876.876,0,0,1,.87,1.159,1.583,1.583,0,0,1-1.448,1.159A.876.876,0,0,1,2049.609,592.211Z" transform="translate(-2049.573 -591.052)" fill="#e9f3fe"/>
      </g>
      <g id="Grupo_69659" data-name="Grupo 69659" transform="translate(64.016)">
        <path id="Trazado_102172" data-name="Trazado 102172" d="M997.406,458.974H934.829l21.392-86.547H1018.8Z" transform="translate(-915.353 -360.855)" fill="#afcdfb"/>
        <path id="Trazado_102173" data-name="Trazado 102173" d="M915.353,411.571H852.775l21.393-86.547h62.578Z" transform="translate(-842.647 -318.852)" fill="#c0d8f9"/>
        <path id="Trazado_102174" data-name="Trazado 102174" d="M826.442,357.4H763.864l21.393-86.547h62.578Z" transform="translate(-763.864 -270.849)" fill="#d4e3f4"/>
        <path id="Trazado_102175" data-name="Trazado 102175" d="M1020.044,372.427l-19.8,80.629-52.023.518,53.594,1.179Z" transform="translate(-927.22 -360.855)" fill="#699dee"/>
        <path id="Trazado_102176" data-name="Trazado 102176" d="M936.495,325.024l-18.81,79.858-52.024.518,52.906,1.307Z" transform="translate(-854.065 -318.852)" fill="#699dee"/>
        <path id="Trazado_102177" data-name="Trazado 102177" d="M948.2,363.137H930.7l5.479-21.984h17.5Z" transform="translate(-911.698 -333.144)" fill="#e9f3fe"/>
        <path id="Trazado_102178" data-name="Trazado 102178" d="M1191.162,344.19h-31.356l.771-3.037h31.356Z" transform="translate(-1114.702 -333.144)" fill="#afcdfb"/>
        <path id="Trazado_102179" data-name="Trazado 102179" d="M1178.747,398.929h-31.356l.771-3.037h31.356Z" transform="translate(-1103.702 -381.647)" fill="#afcdfb"/>
        <path id="Trazado_102180" data-name="Trazado 102180" d="M1165.768,453.668h-31.356l.771-3.037h31.356Z" transform="translate(-1092.201 -430.15)" fill="#afcdfb"/>
        <path id="Trazado_102181" data-name="Trazado 102181" d="M1150.531,508.407h-31.356l.771-3.037H1151.3Z" transform="translate(-1078.7 -478.654)" fill="#afcdfb"/>
        <path id="Trazado_102182" data-name="Trazado 102182" d="M947.952,565.4h-57.4l.771-3.037h57.4Z" transform="translate(-876.12 -529.157)" fill="#afcdfb"/>
        <path id="Trazado_102183" data-name="Trazado 102183" d="M934.5,622.4H877.1l.771-3.037h57.4Z" transform="translate(-864.202 -579.661)" fill="#afcdfb"/>
        <path id="Trazado_102184" data-name="Trazado 102184" d="M915.878,686.585h-57.4l.771-3.037h57.4Z" transform="translate(-847.701 -636.535)" fill="#afcdfb"/>
        <path id="Trazado_102185" data-name="Trazado 102185" d="M898.949,742h-57.4l.771-3.037h57.4Z" transform="translate(-832.7 -685.641)" fill="#afcdfb"/>
        <g id="Grupo_69658" data-name="Grupo 69658" transform="translate(19.006 8.009)">
          <g id="Grupo_69657" data-name="Grupo 69657" clip-path="url(#clip-path)">
            <g id="Grupo_69656" data-name="Grupo 69656" transform="translate(1.06 1.87)">
              <path id="Trazado_102186" data-name="Trazado 102186" d="M1093.466,550.6s1.026-.468,1.427-.325,1.488.612,1.463,1.083-1.768.992-2.933.421S1093.466,550.6,1093.466,550.6Z" transform="translate(-1075.498 -528.295)" fill="#e49963"/>
              <path id="Trazado_102187" data-name="Trazado 102187" d="M1044.835,455.726a.7.7,0,0,1-.073.163c-.345.556-6.034.584-6.684.117-.29-.209-.379-3.087-.388-6.205-.011-3.855.1-8.078.1-8.078s2.226,1.033,2.334,2.3-.827,8.912-.177,9.379,3.649.528,4.649.821A2.652,2.652,0,0,1,1044.835,455.726Z" transform="translate(-1026.562 -432.136)" fill="#a8d2a0"/>
              <path id="Trazado_102188" data-name="Trazado 102188" d="M1008.808,358.386a2.153,2.153,0,0,0-1.435-.472.694.694,0,0,1,.329-.107,2.3,2.3,0,0,0-.841.107s-1.988-1.366-3.336,1.3c0,0,.2-.189.461-.4-.778,1.534-.518,4.041,1.221,4.707C1006.339,363.957,1012.8,362.54,1008.808,358.386Z" transform="translate(-996.291 -357.564)" fill="#163560"/>
              <path id="Trazado_102189" data-name="Trazado 102189" d="M1014.565,417.581a3.256,3.256,0,0,1-2.028.105,2.592,2.592,0,0,1-1.155-1.436c.349-.024.508-.479.762-2.492l.15.05,2.523.849s-.165.807-.266,1.575C1014.466,416.876,1014.426,417.493,1014.565,417.581Z" transform="translate(-1003.252 -407.357)" fill="#e49963"/>
              <path id="Trazado_102190" data-name="Trazado 102190" d="M1021.914,415.049s-.165.807-.266,1.575a3.1,3.1,0,0,1-2.257-2.424Z" transform="translate(-1010.348 -407.748)" fill="#d68d5d"/>
              <path id="Trazado_102191" data-name="Trazado 102191" d="M1012.273,371.362a7.68,7.68,0,0,1-.653-2.348c-.035-.749.69-3.416,3.368-2.672a3.74,3.74,0,0,1,1.462.781c.541.477,1.284,1.452.02,3.7l-.352.768Z" transform="translate(-1003.461 -365.227)" fill="#163560"/>
              <path id="Trazado_102192" data-name="Trazado 102192" d="M1020.249,381.887s-3.436-.388-3.162-2.524.016-3.625,2.221-3.468,2.526,1.027,2.608,1.762S1021.15,381.933,1020.249,381.887Z" transform="translate(-1008.294 -373.797)" fill="#e49963"/>
              <path id="Trazado_102193" data-name="Trazado 102193" d="M1046.935,469.022c-.029-.251.509-.368.606-.135a4.7,4.7,0,0,1,.2,1.375,8.632,8.632,0,0,1-.358,2.76Z" transform="translate(-1034.754 -456.094)" fill="#82b479"/>
              <path id="Trazado_102194" data-name="Trazado 102194" d="M1014.107,373.368c-.446-.71-.864-.622-1.114-.459-.6-1.2-3.147.094-3.147.094a4.114,4.114,0,0,1-1.647,2.237,2.861,2.861,0,0,0,2.064.283c1.172-.145,2.2-1.652,2.59-2.287a2.745,2.745,0,0,1,.632,1.109c.1.566.032,1.7.363,1.7C1013.849,376.046,1014.777,374.434,1014.107,373.368Z" transform="translate(-1000.431 -370.708)" fill="#163560"/>
              <path id="Trazado_102195" data-name="Trazado 102195" d="M1039.745,415.7s.029.28.709.325c0,0,.571.038.593-.262A1.839,1.839,0,0,0,1039.745,415.7Z" transform="translate(-1028.384 -409.001)" fill="#fff"/>
              <path id="Trazado_102196" data-name="Trazado 102196" d="M1046.226,513.392a.7.7,0,0,1-.073.163c-.345.557-6.034.584-6.684.117-.29-.209-.384-3.785.417-6.87.19,1.848-.158,5.543.809,5.844C1041.791,512.988,1044.786,513,1046.226,513.392Z" transform="translate(-1027.952 -489.801)" fill="#82b479"/>
              <path id="Trazado_102197" data-name="Trazado 102197" d="M952.836,443.817c-2.258,6.519-1.229,7.7-2.036,8.263,0,0-.677.2-.682.2-.837.555-.753-.238-3.252.48a38.59,38.59,0,0,1-4.03,1.022,7.9,7.9,0,0,1-1.359.125c-.772-.009-1.322-.215-1.44-.752-.344-1.561,2.75-5.189,2.455-7.976,0-.024,0-.048-.006-.072a2.985,2.985,0,0,1,.073-.81,17.3,17.3,0,0,1,2.782-5.305,17.971,17.971,0,0,1,2.8-3.379c2.653,2.078,3.1.694,3.1.694S953.607,441.594,952.836,443.817Z" transform="translate(-940.011 -426.719)" fill="#a8d2a0"/>
              <path id="Trazado_102198" data-name="Trazado 102198" d="M950.359,489.059h0c-.837.555-.994-.174-3.492.545a38.59,38.59,0,0,1-4.03,1.022,8.044,8.044,0,0,0-1.359.126c-.772-.009-1.322-.215-1.44-.752-.344-1.561,2.75-5.189,2.455-7.976,0-.024,0-.048-.006-.072a2.523,2.523,0,0,1,.073-.81c.285-1.129,1.289-2.263,2.478-3.95.551.758,5.449.6,3.45,7.116C947.876,486.305,950.267,487.435,950.359,489.059Z" transform="translate(-940.011 -463.564)" fill="#82b479"/>
              <path id="Trazado_102199" data-name="Trazado 102199" d="M1024.118,583.905a3.58,3.58,0,0,1,1.548.146c.458.26,1.361.887,1.237,1.144s-1.29.252-1.739-.08-.852-.038-1.417-.311S1024.118,583.905,1024.118,583.905Z" transform="translate(-1014.046 -558.099)" fill="#e49963"/>
              <path id="Trazado_102200" data-name="Trazado 102200" d="M964.649,435.234s-3.906-.453-4.849,1.338-1.585,8.431-.821,10.552,6.221,5.562,6.852,5.753,1.163-.751,1.15-.862-5.45-5.817-5.357-6.324S964.649,435.234,964.649,435.234Z" transform="translate(-956.519 -426.341)" fill="#a8d2a0"/>
            </g>
          </g>
        </g>
      </g>
      <g id="Grupo_69661" data-name="Grupo 69661" transform="translate(129.042 19.079)">
        <path id="Trazado_102202" data-name="Trazado 102202" d="M2129.226,1584.541l-1.4,5.876-2.09-.012-.077-5.865Z" transform="translate(-2035.56 -1453.969)" fill="#e49963"/>
        <path id="Trazado_102203" data-name="Trazado 102203" d="M1959.693,1580.723l-3.97,5.626-1.547-1.987,2.389-4.413Z" transform="translate(-1883.606 -1449.901)" fill="#e49963"/>
        <path id="Trazado_102204" data-name="Trazado 102204" d="M2075.594,901.557a4.048,4.048,0,0,1,2.191-.419,1.025,1.025,0,0,0-.462-.219,3.4,3.4,0,0,1,1.212.316c5.217-2.01,6.036,5.671,5.927,7.455s1.753,2.367,4.467,3.773c5.178,2.683,5.633,6.275,5.633,6.275-.04.024-.083.051-.127.082-.257-.435-.786-1.253-1.232-1.376a18.5,18.5,0,0,1,.717,1.748c-1.528,1.162-4.385,3.737-6.377,5.563a2.923,2.923,0,0,0-.135-1.131l-.246,1.482c-1.066.98-1.8,1.669-1.8,1.669.132-1.442-6.522-9.052-9.993-11.331a10.035,10.035,0,0,1-1.168-3.615,9.481,9.481,0,0,0,.71,3.27C2071.971,912.394,2073.682,902.644,2075.594,901.557Z" transform="translate(-1989.187 -848.208)" fill="#163560"/>
        <path id="Trazado_102205" data-name="Trazado 102205" d="M2093.027,989.566a4.807,4.807,0,0,0,2.95.539,3.828,3.828,0,0,0,1.964-1.884c-.507-.1-.654-.8-.643-3.794l-.229.045-3.857.764s.088,1.214.091,2.357C2093.3,988.553,2093.247,989.464,2093.027,989.566Z" transform="translate(-2006.64 -922.218)" fill="#e49963"/>
        <path id="Trazado_102206" data-name="Trazado 102206" d="M2094.652,985.588s.088,1.214.091,2.357c2.158-.061,3.3-2.03,3.766-3.121Z" transform="translate(-2008.08 -922.569)" fill="#d68d5d"/>
        <path id="Trazado_102207" data-name="Trazado 102207" d="M2080.013,919.5a11.342,11.342,0,0,0,1.4-3.315c.194-1.091-.362-5.135-4.426-4.552a5.52,5.52,0,0,0-2.29.866c-.882.6-2.156,1.882-.732,5.411l.37,1.192Z" transform="translate(-1989.187 -857.661)" fill="#163560"/>
        <path id="Trazado_102208" data-name="Trazado 102208" d="M1959.7,1261.052l2.044.063,2.213.068a43.683,43.683,0,0,0,7.979-14.814q.1-.318.212-.644c1.569-4.576,4.822-10.319,6.537-15.517.273-.828.518-1.607.737-2.345.07-.236.139-.468.2-.7a55.151,55.151,0,0,0,1.966-10.351l-12.379.1A230.749,230.749,0,0,1,1959.7,1261.052Z" transform="translate(-1888.506 -1128.133)" fill="#2b478b"/>
        <path id="Trazado_102209" data-name="Trazado 102209" d="M2044.48,1030.459c.031,5.891-.864,8.418-.864,8.418a16.634,16.634,0,0,0,11.6.711c.074-.023,4.738-.959,4.738-.959-.105-.239-1.392-4.314-1.495-4.532a17.526,17.526,0,0,1-1.67-5.119,18.686,18.686,0,0,1-.153-4.935,39.593,39.593,0,0,1,1.528-7.75,40.263,40.263,0,0,1-5.11-1.747,3.991,3.991,0,0,1-2.757,1.023c-1.255-.028-1.662-.565-1.6-1.151-1.337.744-2.4,1.447-2.4,1.447-1.137,1.974-3.441,3.891-3.608,6.919C2042.645,1023.528,2044.479,1030.294,2044.48,1030.459Z" transform="translate(-1962.034 -948.791)" fill="#e7f1fd"/>
        <path id="Trazado_102210" data-name="Trazado 102210" d="M1913.76,1021.708c1.817-2.123,6.526-6.727,11.384-7.291l-4.193,8.167a3.614,3.614,0,0,1-1.477,2.216,24.327,24.327,0,0,1-6.907,2.882,36.3,36.3,0,0,1-6.2-3.765,21.489,21.489,0,0,1-3.1-3.963l.533-1.782s3.352,1.874,4.549,2.415c.682.308,2.253,1.043,3.36,1.563A1.727,1.727,0,0,0,1913.76,1021.708Z" transform="translate(-1838.501 -948.791)" fill="#699dee"/>
        <path id="Trazado_102211" data-name="Trazado 102211" d="M2075.1,934.011s5.106.084,5.11-3.1.665-5.312-2.595-5.5-3.9,1.025-4.155,2.086S2073.768,933.907,2075.1,934.011Z" transform="translate(-1989.245 -869.909)" fill="#e49963"/>
        <path id="Trazado_102212" data-name="Trazado 102212" d="M2089.984,919.852s1.4,3.732,3.544,4.283,3.076-.023,3.076-.023a6.076,6.076,0,0,1-1.987-3.59S2091.039,918.076,2089.984,919.852Z" transform="translate(-2003.944 -864.426)" fill="#163560"/>
        <path id="Trazado_102213" data-name="Trazado 102213" d="M2072.915,922.807a4.513,4.513,0,0,0-1.3,1.643c-.254.81-.369,2.477-.855,2.421,0,0-1.053-2.536.131-3.971C2072.146,921.378,2072.915,922.807,2072.915,922.807Z" transform="translate(-1986.528 -867.078)" fill="#163560"/>
        <path id="Trazado_102214" data-name="Trazado 102214" d="M1873.376,1029.771a3.187,3.187,0,0,0-3.572-2.228c-.327.1-1.284.484-.672,1.508.451.755.646.365,1.355,1.38a2.259,2.259,0,0,0,2.357,1.122Z" transform="translate(-1808.073 -960.391)" fill="#e49963"/>
        <path id="Trazado_102215" data-name="Trazado 102215" d="M2124.271,1633.244a5.661,5.661,0,0,0,.266,2.409s.342,1.558-1.193,1.587-1.911-.116-1.738-1.072.5-2.609.5-2.609Z" transform="translate(-2031.929 -1497.124)" fill="#e49963"/>
        <path id="Trazado_102216" data-name="Trazado 102216" d="M2120.627,1656.337s.033.02.1.051h3a.692.692,0,0,0,.085-.051,7.54,7.54,0,0,0-.11-2.254c-1.739,1.593-2.826-.04-2.826-.04A8.148,8.148,0,0,0,2120.627,1656.337Z" transform="translate(-2031.095 -1515.555)" fill="#d86713"/>
        <path id="Trazado_102217" data-name="Trazado 102217" d="M1921.695,1623.427a38.405,38.405,0,0,0,3.7-4.74l2.1,1.078-4.7,4.418-1.1-.145Z" transform="translate(-1854.824 -1484.226)" fill="#e49963"/>
        <path id="Trazado_102218" data-name="Trazado 102218" d="M1906.291,1633.445h3.873a5.5,5.5,0,0,0,1.154-1.79,1.9,1.9,0,0,1,1.281-.856v2.616h.8l.761-2.781a2.559,2.559,0,0,0-.313-2.483c-.41,0-1.513.28-3.6,2.635a2.739,2.739,0,0,1-2.2,1.026.191.191,0,0,1-.031.016A2.806,2.806,0,0,0,1906.291,1633.445Z" transform="translate(-1841.177 -1492.611)" fill="#d86713"/>
        <path id="Trazado_102219" data-name="Trazado 102219" d="M2035.318,1014.417s-2.955,7.3-3.042,8.776-.347,24.154-.347,24.154.174,1.043-1.825.608a6.716,6.716,0,0,1-2.52-.869s1.912-13.989,1.39-18.854,4-12.8,4-12.8Z" transform="translate(-1948.653 -948.791)" fill="#699dee"/>
        <path id="Trazado_102220" data-name="Trazado 102220" d="M1977.652,1330.869l2.213.068a43.683,43.683,0,0,0,7.979-14.814q.1-.318.212-.644c1.569-4.575,4.822-10.319,6.537-15.517.273-.828.518-1.607.737-2.345.07-.236.139-.468.2-.7l-1.823-1.383s-5.473,8.862-7.167,17.2C1985.072,1319.983,1979.178,1328.7,1977.652,1330.869Z" transform="translate(-1904.408 -1197.886)" fill="#233862"/>
        <path id="Trazado_102221" data-name="Trazado 102221" d="M2107.5,1295.22c-.031,4.056.174,13.381.7,17.241h1.96c1.083,0,1.624-.016,1.624-.016,1.325-6.712,2.268-12.266,2.954-17.052.563-3.927,1.063-7.294,1.448-10.193.387-2.917.657-5.359.753-7.423.015-.325.026-.641.032-.948s.008-.608.005-.9l-10.7-1.043C2106.414,1282,2107.513,1292.863,2107.5,1295.22Z" transform="translate(-2018.383 -1179.592)" fill="#2b478b"/>
        <path id="Trazado_102222" data-name="Trazado 102222" d="M2140.327,1334.94c1.084,0,1.624-.016,1.624-.016,1.325-6.712,2.268-12.266,2.954-17.051.563-3.927,1.064-7.294,1.448-10.193.387-2.917.657-5.359.753-7.423l-3.925,2.308s2.5.884,1.549,7.574S2141.657,1333.992,2140.327,1334.94Z" transform="translate(-2048.552 -1202.07)" fill="#233862"/>
        <path id="Trazado_102223" data-name="Trazado 102223" d="M2107.462,1048.07s.753,2.722,3.36,2.375a31.419,31.419,0,0,0,6.313-1.911s-1.114-3.52-2.5-8.144c-1.677-5.6-3.753-12.815-4.731-17.367a28.038,28.038,0,0,1-.532-3.1l-2.163-4.2s-3.224,7.237-3.4,9.061S2107.462,1048.07,2107.462,1048.07Z" transform="translate(-2016.193 -949.949)" fill="#699dee"/>
        <path id="Trazado_102224" data-name="Trazado 102224" d="M2136.889,1085.384c.116,2.954.812,8.689,7.009,11.758l.05.024c-1.677-5.6-3.752-12.815-4.731-17.367C2138.079,1081.5,2136.826,1083.758,2136.889,1085.384Z" transform="translate(-2045.504 -1006.725)" fill="#4a75cb"/>
        <g id="Grupo_69660" data-name="Grupo 69660">
          <rect id="Rectángulo_5490" data-name="Rectángulo 5490" width="2.764" height="10.993" transform="translate(54.577 56.531) rotate(-45)" fill="#2b478b"/>
          <rect id="Rectángulo_5491" data-name="Rectángulo 5491" width="7.835" height="60.664" rx="3.917" transform="translate(59.171 64.711) rotate(-45)" fill="#c65447"/>
          <path id="Trazado_102225" data-name="Trazado 102225" d="M1344.213,447.85a32.509,32.509,0,1,0,45.975,0A32.51,32.51,0,0,0,1344.213,447.85Zm43.443,43.443a28.928,28.928,0,1,1,0-40.911A28.928,28.928,0,0,1,1387.656,491.293Z" transform="translate(-1334.691 -438.328)" fill="#c65447"/>
        </g>
        <path id="Trazado_102226" data-name="Trazado 102226" d="M2080.373,1024.513l-2.854-8.79a44.032,44.032,0,0,1,5.414,1.984,12.593,12.593,0,0,1,1.831,4.822s.74,8.076-.911,11.031c0,0-5.213,1.043-13.554-1.825v-1.911s9.123.478,10.991.7Z" transform="translate(-1986.501 -949.949)" fill="#e49963"/>
        <path id="Trazado_102227" data-name="Trazado 102227" d="M2131.307,1015.723s5.291.373,6.565,3.211,1.68,12.28.058,15.06a14.766,14.766,0,0,1-6.182-.1l-.146-.028s-1.26-3.084-.13-3.693c0,0,3.331.174,2.983-.927S2131.307,1015.723,2131.307,1015.723Z" transform="translate(-2040.289 -949.949)" fill="#699dee"/>
        <path id="Trazado_102228" data-name="Trazado 102228" d="M2043.017,1115.776a4.561,4.561,0,0,1-.882-1.78,1.935,1.935,0,0,0-1.89-1.731c-1.255-.165-1.794-.183-1.791.171a9.362,9.362,0,0,0,2.825,4.3C2043.079,1118.207,2043.017,1115.776,2043.017,1115.776Z" transform="translate(-1958.284 -1035.393)" fill="#e49963"/>
      </g>
      <g id="Grupo_69662" data-name="Grupo 69662" transform="translate(132.642 22.467)">
        <path id="Trazado_102229" data-name="Trazado 102229" d="M1431.17,494.2l-38.743,38.742a28.879,28.879,0,0,0,2.163,3.67l40.25-40.25A28.9,28.9,0,0,0,1431.17,494.2Z" transform="translate(-1389.45 -491.226)" fill="#fff" opacity="0.4"/>
        <path id="Trazado_102230" data-name="Trazado 102230" d="M1405.36,469.9a28.943,28.943,0,0,0-37.235,37.235Z" transform="translate(-1366.298 -468.073)" fill="#fff" opacity="0.4"/>
        <path id="Trazado_102231" data-name="Trazado 102231" d="M1507.755,648.284a28.936,28.936,0,0,0,38.754-38.754Z" transform="translate(-1491.641 -593.416)" fill="#fff" opacity="0.4"/>
      </g>
      <path id="Trazado_102232" data-name="Trazado 102232" d="M202.17,1675.147H495.777a.263.263,0,0,0,.262-.262h0a.263.263,0,0,0-.262-.262H202.17a.263.263,0,0,0-.262.262h0A.263.263,0,0,0,202.17,1675.147Z" transform="translate(-201.908 -1514.711)" fill="#283250"/>
    </g>
    <g id="Grupo_69692" data-name="Grupo 69692" transform="translate(182.548 358.277)">
      <g id="Grupo_69664" data-name="Grupo 69664" transform="translate(22.031 0)">
        <path id="Trazado_102233" data-name="Trazado 102233" d="M375.945,1038.332h6.407v4.885H376.3Z" transform="translate(-375.945 -1038.332)" fill="#9599a6"/>
      </g>
      <g id="Grupo_69665" data-name="Grupo 69665" transform="translate(6.407 0)">
        <path id="Trazado_102234" data-name="Trazado 102234" d="M280.725,1052.489h-5.744a14.157,14.157,0,0,0-28.313,0h-5.744l-2.13,2.29L242.8,1110.3h36.046l4.008-55.519Z" transform="translate(-238.793 -1038.332)" fill="#9599a6"/>
      </g>
      <g id="Grupo_69666" data-name="Grupo 69666" transform="translate(0 0)">
        <path id="Trazado_102235" data-name="Trazado 102235" d="M224.48,1052.489h-5.744a14.157,14.157,0,0,0-28.313,0h-5.744l-2.13,2.29,4.008,55.519H222.6l4.008-55.519Z" transform="translate(-182.548 -1038.332)" fill="#d0d3db"/>
      </g>
      <g id="Grupo_69667" data-name="Grupo 69667" transform="translate(2.197 2.136)">
        <path id="Trazado_102236" data-name="Trazado 102236" d="M205.633,1124.774l-3.8-52.609.863-.928h6.95V1069.1a12.021,12.021,0,0,1,24.042,0v2.136h6.95l.863.928-3.8,52.609Z" transform="translate(-201.835 -1057.08)" fill="#777a85"/>
      </g>
      <g id="Grupo_69668" data-name="Grupo 69668" transform="translate(3.265 2.149)">
        <path id="Trazado_102237" data-name="Trazado 102237" d="M248.947,1071.342H242v-2.136a11.5,11.5,0,1,0-22.974,0v2.136h-6.95l-.863.928,3.8,52.609h31l3.8-52.609Z" transform="translate(-211.21 -1057.199)" fill="#a9b0ba"/>
      </g>
      <g id="Grupo_69669" data-name="Grupo 69669" transform="translate(21.345 14.157)">
        <rect id="Rectángulo_5492" data-name="Rectángulo 5492" width="3.508" height="18.815" fill="#777a85"/>
      </g>
      <g id="Grupo_69670" data-name="Grupo 69670" transform="translate(16.582 18.919)">
        <rect id="Rectángulo_5493" data-name="Rectángulo 5493" width="3.508" height="13.033" transform="translate(0 3.508) rotate(-90)" fill="#777a85"/>
      </g>
      <g id="Grupo_69671" data-name="Grupo 69671" transform="translate(16.582 42.452)">
        <rect id="Rectángulo_5494" data-name="Rectángulo 5494" width="3.508" height="13.033" transform="translate(0 3.508) rotate(-90)" fill="#777a85"/>
      </g>
      <g id="Grupo_69672" data-name="Grupo 69672" transform="translate(16.582 50.548)">
        <rect id="Rectángulo_5495" data-name="Rectángulo 5495" width="3.508" height="13.033" transform="translate(0 3.508) rotate(-90)" fill="#777a85"/>
      </g>
      <g id="Grupo_69673" data-name="Grupo 69673" transform="translate(40.054 16.446)">
        <path id="Trazado_102238" data-name="Trazado 102238" d="M538.165,1182.7h6.407l-4.008,55.519h-6.407Z" transform="translate(-534.157 -1182.702)" fill="#777a85"/>
      </g>
      <g id="Grupo_69674" data-name="Grupo 69674" transform="translate(20.277 14.157)">
        <rect id="Rectángulo_5496" data-name="Rectángulo 5496" width="3.508" height="18.815" fill="#d0d3db"/>
      </g>
      <g id="Grupo_69675" data-name="Grupo 69675" transform="translate(15.514 18.919)">
        <rect id="Rectángulo_5497" data-name="Rectángulo 5497" width="3.508" height="13.033" transform="translate(0 3.508) rotate(-90)" fill="#d0d3db"/>
      </g>
      <g id="Grupo_69676" data-name="Grupo 69676" transform="translate(15.514 42.452)">
        <rect id="Rectángulo_5498" data-name="Rectángulo 5498" width="3.508" height="13.033" transform="translate(0 3.508) rotate(-90)" fill="#d0d3db"/>
      </g>
      <g id="Grupo_69677" data-name="Grupo 69677" transform="translate(15.514 50.548)">
        <rect id="Rectángulo_5499" data-name="Rectángulo 5499" width="3.508" height="13.033" transform="translate(0 3.508) rotate(-90)" fill="#d0d3db"/>
      </g>
      <g id="Grupo_69678" data-name="Grupo 69678" transform="translate(10.429 29.032)">
        <path id="Trazado_102239" data-name="Trazado 102239" d="M274.408,1293.183a.321.321,0,0,0,0,.641A.321.321,0,0,0,274.408,1293.183Z" transform="translate(-274.098 -1293.183)" fill="#999ca6"/>
      </g>
      <g id="Grupo_69679" data-name="Grupo 69679" transform="translate(33.298 38.264)">
        <path id="Trazado_102240" data-name="Trazado 102240" d="M475.162,1374.233a.321.321,0,0,0,0,.641A.321.321,0,0,0,475.162,1374.233Z" transform="translate(-474.852 -1374.233)" fill="#999ca6"/>
      </g>
      <g id="Grupo_69680" data-name="Grupo 69680" transform="translate(31.878 62.27)">
        <path id="Trazado_102241" data-name="Trazado 102241" d="M462.692,1584.962a.321.321,0,0,0,0,.641A.321.321,0,0,0,462.692,1584.962Z" transform="translate(-462.383 -1584.962)" fill="#999ca6"/>
      </g>
      <g id="Grupo_69681" data-name="Grupo 69681" transform="translate(32.498 29.066)">
        <path id="Trazado_102242" data-name="Trazado 102242" d="M468.656,1293.483a.855.855,0,0,0,0,1.709A.855.855,0,0,0,468.656,1293.483Z" transform="translate(-467.831 -1293.483)" fill="#999ca6"/>
      </g>
      <g id="Grupo_69682" data-name="Grupo 69682" transform="translate(10.623 61.31)">
        <path id="Trazado_102243" data-name="Trazado 102243" d="M276.63,1576.534a.855.855,0,0,0,0,1.709A.855.855,0,0,0,276.63,1576.534Z" transform="translate(-275.805 -1576.534)" fill="#999ca6"/>
      </g>
      <g id="Grupo_69683" data-name="Grupo 69683" transform="translate(15.879 35.884)">
        <path id="Trazado_102244" data-name="Trazado 102244" d="M322.766,1353.336a.855.855,0,0,0,0,1.708A.855.855,0,0,0,322.766,1353.336Z" transform="translate(-321.941 -1353.336)" fill="#999ca6"/>
      </g>
      <g id="Grupo_69684" data-name="Grupo 69684" transform="translate(19.998 7.333)">
        <path id="Trazado_102245" data-name="Trazado 102245" d="M358.927,1102.7a.855.855,0,0,0,0,1.709A.855.855,0,0,0,358.927,1102.7Z" transform="translate(-358.102 -1102.704)" fill="#999ca6"/>
      </g>
      <g id="Grupo_69685" data-name="Grupo 69685" transform="translate(28.404 35.068)">
        <path id="Trazado_102246" data-name="Trazado 102246" d="M432.409,1346.172a.534.534,0,0,0,0,1.068A.534.534,0,0,0,432.409,1346.172Z" transform="translate(-431.893 -1346.172)" fill="#999ca6"/>
      </g>
      <g id="Grupo_69686" data-name="Grupo 69686" transform="translate(19.483 56.853)">
        <path id="Trazado_102247" data-name="Trazado 102247" d="M354.09,1537.412a.534.534,0,0,0,0,1.068A.534.534,0,0,0,354.09,1537.412Z" transform="translate(-353.574 -1537.412)" fill="#999ca6"/>
      </g>
      <g id="Grupo_69687" data-name="Grupo 69687" transform="translate(23.149 62.909)">
        <path id="Trazado_102248" data-name="Trazado 102248" d="M386.272,1590.569a.534.534,0,0,0,0,1.068A.534.534,0,0,0,386.272,1590.569Z" transform="translate(-385.757 -1590.569)" fill="#999ca6"/>
      </g>
      <g id="Grupo_69688" data-name="Grupo 69688" transform="translate(9.512 44.585)">
        <path id="Trazado_102249" data-name="Trazado 102249" d="M266.568,1429.716a.534.534,0,0,0,0,1.068A.534.534,0,0,0,266.568,1429.716Z" transform="translate(-266.052 -1429.716)" fill="#999ca6"/>
      </g>
      <g id="Grupo_69689" data-name="Grupo 69689" transform="translate(30.109 11.773)">
        <path id="Trazado_102250" data-name="Trazado 102250" d="M447.372,1141.677a.534.534,0,0,0,0,1.068A.534.534,0,0,0,447.372,1141.677Z" transform="translate(-446.856 -1141.677)" fill="#999ca6"/>
      </g>
      <g id="Grupo_69690" data-name="Grupo 69690" transform="translate(6.103 21.432)">
        <path id="Trazado_102251" data-name="Trazado 102251" d="M236.642,1226.468a.534.534,0,0,0,0,1.068A.534.534,0,0,0,236.642,1226.468Z" transform="translate(-236.126 -1226.468)" fill="#999ca6"/>
      </g>
      <g id="Grupo_69691" data-name="Grupo 69691" transform="translate(33.492 53.781)">
        <path id="Trazado_102252" data-name="Trazado 102252" d="M477.384,1510.447a.855.855,0,0,0,0,1.709A.855.855,0,0,0,477.384,1510.447Z" transform="translate(-476.559 -1510.447)" fill="#999ca6"/>
      </g>
    </g>
    <g id="Grupo_69722" data-name="Grupo 69722" transform="translate(233.672 363.776)">
      <g id="Grupo_69693" data-name="Grupo 69693" transform="translate(5.815 60.684)">
        <rect id="Rectángulo_5500" data-name="Rectángulo 5500" width="45.372" height="6.139" fill="#777a85"/>
      </g>
      <g id="Grupo_69694" data-name="Grupo 69694" transform="translate(22.686 0)">
        <path id="Trazado_102253" data-name="Trazado 102253" d="M836.293,1086.6h-5.815v6.152h6.768Z" transform="translate(-830.478 -1086.599)" fill="#9599a6"/>
      </g>
      <g id="Grupo_69695" data-name="Grupo 69695" transform="translate(8.722)">
        <path id="Trazado_102254" data-name="Trazado 102254" d="M747.455,1102.156a4.781,4.781,0,0,1-4.652-3.655,15.563,15.563,0,0,0-30.253,0,4.782,4.782,0,0,1-4.652,3.655h0v45.126h39.557v-45.126Z" transform="translate(-707.898 -1086.598)" fill="#9599a6"/>
      </g>
      <g id="Grupo_69696" data-name="Grupo 69696" transform="translate(2.907)">
        <path id="Trazado_102255" data-name="Trazado 102255" d="M696.412,1102.156a4.782,4.782,0,0,1-4.652-3.655,15.563,15.563,0,0,0-30.253,0,4.781,4.781,0,0,1-4.652,3.655h0v45.126h39.557v-45.126Z" transform="translate(-656.855 -1086.598)" fill="#d0d3db"/>
      </g>
      <g id="Grupo_69697" data-name="Grupo 69697" transform="translate(4.446 1.538)">
        <path id="Trazado_102256" data-name="Trazado 102256" d="M670.359,1157.709v-42.236a6.292,6.292,0,0,0,4.609-4.646,14.024,14.024,0,0,1,27.261,0,6.292,6.292,0,0,0,4.609,4.646v42.236Z" transform="translate(-670.359 -1100.102)" fill="#a9b0ba"/>
      </g>
      <g id="Grupo_69698" data-name="Grupo 69698" transform="translate(12.835 4.889)">
        <circle id="Elipse_4654" data-name="Elipse 4654" cx="10.669" cy="10.669" r="10.669" fill="#777a85"/>
      </g>
      <g id="Grupo_69699" data-name="Grupo 69699" transform="translate(12.017 4.889)">
        <circle id="Elipse_4655" data-name="Elipse 4655" cx="10.669" cy="10.669" r="10.669" fill="#d0d3db"/>
      </g>
      <g id="Grupo_69700" data-name="Grupo 69700" transform="translate(4.446 1.538)">
        <path id="Trazado_102257" data-name="Trazado 102257" d="M675.787,1110.827a13.968,13.968,0,0,1,13.222-10.716c-.136,0-.272-.009-.409-.009a13.972,13.972,0,0,0-13.631,10.725,6.292,6.292,0,0,1-4.609,4.646v42.236h.818v-42.236A6.292,6.292,0,0,0,675.787,1110.827Z" transform="translate(-670.359 -1100.102)" fill="#777a85"/>
      </g>
      <g id="Grupo_69701" data-name="Grupo 69701" transform="translate(42.464 15.558)">
        <rect id="Rectángulo_5501" data-name="Rectángulo 5501" width="5.815" height="45.126" fill="#777a85"/>
      </g>
      <g id="Grupo_69702" data-name="Grupo 69702" transform="translate(0 60.684)">
        <rect id="Rectángulo_5502" data-name="Rectángulo 5502" width="45.372" height="6.139" fill="#a9b0ba"/>
      </g>
      <g id="Grupo_69703" data-name="Grupo 69703" transform="translate(11.519 33.524)">
        <rect id="Rectángulo_5503" data-name="Rectángulo 5503" width="23.971" height="3.502" fill="#777a85"/>
      </g>
      <g id="Grupo_69704" data-name="Grupo 69704" transform="translate(11.519 39.993)">
        <rect id="Rectángulo_5504" data-name="Rectángulo 5504" width="23.971" height="3.502" fill="#777a85"/>
      </g>
      <g id="Grupo_69705" data-name="Grupo 69705" transform="translate(10.7 33.524)">
        <rect id="Rectángulo_5505" data-name="Rectángulo 5505" width="23.971" height="3.502" fill="#d0d3db"/>
      </g>
      <g id="Grupo_69706" data-name="Grupo 69706" transform="translate(10.7 39.993)">
        <rect id="Rectángulo_5506" data-name="Rectángulo 5506" width="23.971" height="3.502" fill="#d0d3db"/>
      </g>
      <g id="Grupo_69709" data-name="Grupo 69709" transform="translate(16.871 49.338)">
        <g id="Grupo_69707" data-name="Grupo 69707" transform="translate(0.818)">
          <rect id="Rectángulo_5507" data-name="Rectángulo 5507" width="11.629" height="3.502" fill="#777a85"/>
        </g>
        <g id="Grupo_69708" data-name="Grupo 69708">
          <rect id="Rectángulo_5508" data-name="Rectángulo 5508" width="11.629" height="3.502" fill="#d0d3db"/>
        </g>
      </g>
      <g id="Grupo_69710" data-name="Grupo 69710" transform="translate(11.438 25.155)">
        <path id="Trazado_102258" data-name="Trazado 102258" d="M732.263,1307.42a.539.539,0,0,0,0,1.077A.539.539,0,0,0,732.263,1307.42Z" transform="translate(-731.743 -1307.42)" fill="#999ca6"/>
      </g>
      <g id="Grupo_69711" data-name="Grupo 69711" transform="translate(29.319 28.073)">
        <path id="Trazado_102259" data-name="Trazado 102259" d="M889.821,1333.033a1.155,1.155,0,0,0,0,2.308A1.155,1.155,0,0,0,889.821,1333.033Z" transform="translate(-888.707 -1333.033)" fill="#999ca6"/>
      </g>
      <g id="Grupo_69712" data-name="Grupo 69712" transform="translate(11.499 51.397)">
        <path id="Trazado_102260" data-name="Trazado 102260" d="M733.1,1537.784a.847.847,0,0,0,0,1.692A.847.847,0,0,0,733.1,1537.784Z" transform="translate(-732.278 -1537.784)" fill="#999ca6"/>
      </g>
      <g id="Grupo_69713" data-name="Grupo 69713" transform="translate(22.948 8.069)">
        <path id="Trazado_102261" data-name="Trazado 102261" d="M833.3,1157.432a.539.539,0,0,0,0,1.077A.539.539,0,0,0,833.3,1157.432Z" transform="translate(-832.783 -1157.432)" fill="#a9b0ba"/>
      </g>
      <g id="Grupo_69714" data-name="Grupo 69714" transform="translate(36.106 49.338)">
        <path id="Trazado_102262" data-name="Trazado 102262" d="M949.106,1519.7a.847.847,0,0,0,0,1.692A.847.847,0,0,0,949.106,1519.7Z" transform="translate(-948.289 -1519.704)" fill="#999ca6"/>
      </g>
      <g id="Grupo_69715" data-name="Grupo 69715" transform="translate(33.594 64.749)">
        <path id="Trazado_102263" data-name="Trazado 102263" d="M926.9,1654.993a.693.693,0,0,0,0,1.384A.693.693,0,0,0,926.9,1654.993Z" transform="translate(-926.231 -1654.993)" fill="#999ca6"/>
      </g>
      <g id="Grupo_69716" data-name="Grupo 69716" transform="translate(7.648 19.938)">
        <path id="Trazado_102264" data-name="Trazado 102264" d="M698.841,1261.618a.385.385,0,0,0,0,.769A.385.385,0,0,0,698.841,1261.618Z" transform="translate(-698.47 -1261.618)" fill="#999ca6"/>
      </g>
      <g id="Grupo_69717" data-name="Grupo 69717" transform="translate(19.93 56.49)">
        <path id="Trazado_102265" data-name="Trazado 102265" d="M806.808,1582.49a.539.539,0,0,0,0,1.077A.539.539,0,0,0,806.808,1582.49Z" transform="translate(-806.288 -1582.49)" fill="#999ca6"/>
      </g>
      <g id="Grupo_69718" data-name="Grupo 69718" transform="translate(3.96 64.341)">
        <path id="Trazado_102266" data-name="Trazado 102266" d="M666.317,1651.41a.231.231,0,0,0,0,.462A.231.231,0,0,0,666.317,1651.41Z" transform="translate(-666.094 -1651.41)" fill="#999ca6"/>
      </g>
      <g id="Grupo_69719" data-name="Grupo 69719" transform="translate(15.623 27.611)">
        <path id="Trazado_102267" data-name="Trazado 102267" d="M768.7,1328.981a.231.231,0,0,0,0,.462A.231.231,0,0,0,768.7,1328.981Z" transform="translate(-768.481 -1328.981)" fill="#999ca6"/>
      </g>
      <g id="Grupo_69720" data-name="Grupo 69720" transform="translate(25.036 18.506)">
        <path id="Trazado_102268" data-name="Trazado 102268" d="M851.332,1249.048a.231.231,0,0,0,0,.461A.231.231,0,0,0,851.332,1249.048Z" transform="translate(-851.109 -1249.048)" fill="#a9b0ba"/>
      </g>
      <g id="Grupo_69721" data-name="Grupo 69721" transform="translate(37.723 20.756)">
        <path id="Trazado_102269" data-name="Trazado 102269" d="M962.7,1268.807a.231.231,0,0,0,0,.462A.231.231,0,0,0,962.7,1268.807Z" transform="translate(-962.477 -1268.807)" fill="#999ca6"/>
      </g>
    </g>
    <g id="Grupo_69780" data-name="Grupo 69780" transform="translate(288.857 367.467)">
      <g id="Grupo_69741" data-name="Grupo 69741" transform="translate(0 0)">
        <g id="Grupo_69723" data-name="Grupo 69723" transform="translate(6.947 52.652)">
          <path id="Trazado_102270" data-name="Trazado 102270" d="M1237.088,1581.2H1182.82l-6.066,2.806v7.848h66.4v-7.848Z" transform="translate(-1176.754 -1581.199)" fill="#9599a6"/>
        </g>
        <g id="Grupo_69724" data-name="Grupo 69724" transform="translate(31.749 0)">
          <rect id="Rectángulo_5509" data-name="Rectángulo 5509" width="9.849" height="5.075" fill="#9599a6"/>
        </g>
        <g id="Grupo_69725" data-name="Grupo 69725" transform="translate(12.348)">
          <path id="Trazado_102271" data-name="Trazado 102271" d="M1281.216,1137.571h-6.523A21.5,21.5,0,0,0,1253.418,1119c-10.855,0-21.3,8.1-22.726,18.569h-6.523v5.8h2.9v28.28h49.793v-28.28h4.352Z" transform="translate(-1224.169 -1119.002)" fill="#9599a6"/>
        </g>
        <g id="Grupo_69726" data-name="Grupo 69726" transform="translate(0 52.652)">
          <path id="Trazado_102272" data-name="Trazado 102272" d="M1176.1,1581.2h-54.268l-6.066,2.806v7.848h66.4v-7.848Z" transform="translate(-1115.769 -1581.199)" fill="#d0d3db"/>
        </g>
        <g id="Grupo_69728" data-name="Grupo 69728" transform="translate(8.303 2.902)">
          <g id="Grupo_69727" data-name="Grupo 69727">
            <path id="Trazado_102273" data-name="Trazado 102273" d="M1232.121,1163.042a18.569,18.569,0,0,0-37.138,0h-6.328v31.181h49.793v-31.181Z" transform="translate(-1188.656 -1144.473)" fill="#a9b0ba"/>
          </g>
        </g>
        <g id="Grupo_69730" data-name="Grupo 69730" transform="translate(5.401)">
          <g id="Grupo_69729" data-name="Grupo 69729">
            <path id="Trazado_102274" data-name="Trazado 102274" d="M1190.982,1124.805a15.685,15.685,0,0,0-15.667,15.667v2.9h-12.131v-5.8h6.523c1.421-10.471,8.97-18.569,19.824-18.569C1189.531,1121.9,1190.982,1123.353,1190.982,1124.805Z" transform="translate(-1163.184 -1119.002)" fill="#777a85"/>
          </g>
        </g>
        <g id="Grupo_69732" data-name="Grupo 69732" transform="translate(3.951)">
          <g id="Grupo_69731" data-name="Grupo 69731">
            <path id="Trazado_102275" data-name="Trazado 102275" d="M1206.046,1143.374h-12.131v-2.9a15.667,15.667,0,0,0-31.335,0v2.9h-12.131v-5.8h6.523a21.472,21.472,0,0,1,42.55,0h6.523Z" transform="translate(-1150.449 -1119.002)" fill="#d0d3db"/>
          </g>
        </g>
        <g id="Grupo_69734" data-name="Grupo 69734" transform="translate(18.917 34.931)">
          <g id="Grupo_69733" data-name="Grupo 69733">
            <path id="Trazado_102276" data-name="Trazado 102276" d="M1309.328,1436.264h-26.437a1.065,1.065,0,0,0-1.065-1.065v-8.491a1.065,1.065,0,0,0,1.065-1.065h26.437a1.065,1.065,0,0,0,1.065,1.065v8.491A1.065,1.065,0,0,0,1309.328,1436.264Z" transform="translate(-1281.827 -1425.643)" fill="#bdc3cc"/>
          </g>
        </g>
        <g id="Grupo_69736" data-name="Grupo 69736" transform="translate(23.657 11.927)">
          <g id="Grupo_69735" data-name="Grupo 69735" transform="translate(0 0)">
            <circle id="Elipse_4656" data-name="Elipse 4656" cx="7.933" cy="7.933" r="7.933" transform="translate(0 15.441) rotate(-76.717)" fill="#777a85"/>
          </g>
        </g>
        <g id="Grupo_69737" data-name="Grupo 69737" transform="translate(26.282 13.556)">
          <ellipse id="Elipse_4657" data-name="Elipse 4657" cx="7.425" cy="7.915" rx="7.425" ry="7.915" fill="#9599a6"/>
        </g>
        <g id="Grupo_69738" data-name="Grupo 69738" transform="translate(58.096 24.372)">
          <rect id="Rectángulo_5510" data-name="Rectángulo 5510" width="6.947" height="28.28" fill="#777a85"/>
        </g>
        <g id="Grupo_69739" data-name="Grupo 69739" transform="translate(66.399 55.458)">
          <rect id="Rectángulo_5511" data-name="Rectángulo 5511" width="6.947" height="7.848" fill="#777a85"/>
        </g>
        <g id="Grupo_69740" data-name="Grupo 69740" transform="translate(0 55.458)">
          <rect id="Rectángulo_5512" data-name="Rectángulo 5512" width="66.399" height="7.848" fill="#a9b0ba"/>
        </g>
      </g>
      <g id="Grupo_69742" data-name="Grupo 69742" transform="translate(13.002 34.026)">
        <path id="Trazado_102277" data-name="Trazado 102277" d="M1230.259,1417.693a.363.363,0,0,0,0,.726A.363.363,0,0,0,1230.259,1417.693Z" transform="translate(-1229.909 -1417.693)" fill="#999ca6"/>
      </g>
      <g id="Grupo_69743" data-name="Grupo 69743" transform="translate(48.703 28.815)">
        <path id="Trazado_102278" data-name="Trazado 102278" d="M1543.654,1371.955a.363.363,0,0,0,0,.725A.363.363,0,0,0,1543.654,1371.955Z" transform="translate(-1543.304 -1371.955)" fill="#999ca6"/>
      </g>
      <g id="Grupo_69744" data-name="Grupo 69744" transform="translate(52.755 44.543)">
        <path id="Trazado_102279" data-name="Trazado 102279" d="M1579.229,1510.018a.363.363,0,0,0,0,.725A.363.363,0,0,0,1579.229,1510.018Z" transform="translate(-1578.878 -1510.018)" fill="#999ca6"/>
      </g>
      <g id="Grupo_69745" data-name="Grupo 69745" transform="translate(32.396 49.367)">
        <path id="Trazado_102280" data-name="Trazado 102280" d="M1400.509,1552.369a.363.363,0,0,0,0,.725A.363.363,0,0,0,1400.509,1552.369Z" transform="translate(-1400.159 -1552.369)" fill="#999ca6"/>
      </g>
      <g id="Grupo_69746" data-name="Grupo 69746" transform="translate(23.616 11.061)">
        <path id="Trazado_102281" data-name="Trazado 102281" d="M1323.431,1216.1a.363.363,0,0,0,0,.725A.363.363,0,0,0,1323.431,1216.1Z" transform="translate(-1323.08 -1216.104)" fill="#999ca6"/>
      </g>
      <g id="Grupo_69747" data-name="Grupo 69747" transform="translate(40.887 10.676)">
        <path id="Trazado_102282" data-name="Trazado 102282" d="M1475.046,1212.716a.363.363,0,0,0,0,.725A.363.363,0,0,0,1475.046,1212.716Z" transform="translate(-1474.696 -1212.716)" fill="#999ca6"/>
      </g>
      <g id="Grupo_69748" data-name="Grupo 69748" transform="translate(8.178 57.183)">
        <path id="Trazado_102283" data-name="Trazado 102283" d="M1187.908,1620.977a.363.363,0,0,0,0,.725A.363.363,0,0,0,1187.908,1620.977Z" transform="translate(-1187.558 -1620.977)" fill="#999ca6"/>
      </g>
      <g id="Grupo_69749" data-name="Grupo 69749" transform="translate(37.896 61.718)">
        <path id="Trazado_102284" data-name="Trazado 102284" d="M1448.789,1660.786a.363.363,0,0,0,0,.725A.363.363,0,0,0,1448.789,1660.786Z" transform="translate(-1448.438 -1660.786)" fill="#999ca6"/>
      </g>
      <g id="Grupo_69750" data-name="Grupo 69750" transform="translate(21.204 59.113)">
        <path id="Trazado_102285" data-name="Trazado 102285" d="M1302.255,1637.917a.363.363,0,0,0,0,.725A.363.363,0,0,0,1302.255,1637.917Z" transform="translate(-1301.905 -1637.917)" fill="#999ca6"/>
      </g>
      <g id="Grupo_69751" data-name="Grupo 69751" transform="translate(53.58 30.986)">
        <path id="Trazado_102286" data-name="Trazado 102286" d="M1586.608,1391.01a.508.508,0,0,0,0,1.015A.508.508,0,0,0,1586.608,1391.01Z" transform="translate(-1586.118 -1391.01)" fill="#999ca6"/>
      </g>
      <g id="Grupo_69752" data-name="Grupo 69752" transform="translate(31.581 6.574)">
        <path id="Trazado_102287" data-name="Trazado 102287" d="M1393.49,1176.715a.508.508,0,0,0,0,1.016A.508.508,0,0,0,1393.49,1176.715Z" transform="translate(-1392.999 -1176.715)" fill="#999ca6"/>
      </g>
      <g id="Grupo_69753" data-name="Grupo 69753" transform="translate(20.967 29.056)">
        <path id="Trazado_102288" data-name="Trazado 102288" d="M1300.318,1374.069a.508.508,0,0,0,0,1.016A.508.508,0,0,0,1300.318,1374.069Z" transform="translate(-1299.827 -1374.069)" fill="#999ca6"/>
      </g>
      <g id="Grupo_69754" data-name="Grupo 69754" transform="translate(14.502 47.003)">
        <path id="Trazado_102289" data-name="Trazado 102289" d="M1243.568,1531.614a.508.508,0,0,0,0,1.016A.508.508,0,0,0,1243.568,1531.614Z" transform="translate(-1243.078 -1531.614)" fill="#999ca6"/>
      </g>
      <g id="Grupo_69755" data-name="Grupo 69755" transform="translate(41.212 29.924)">
        <path id="Trazado_102290" data-name="Trazado 102290" d="M1478.416,1381.838a.508.508,0,0,0-.718,0,.528.528,0,0,0-.149.359v.193a.524.524,0,0,0,.149.359.508.508,0,0,0,.718,0,.528.528,0,0,0,.149-.359v-.193A.524.524,0,0,0,1478.416,1381.838Z" transform="translate(-1477.549 -1381.689)" fill="#999ca6"/>
      </g>
      <g id="Grupo_69756" data-name="Grupo 69756" transform="translate(59.273 61.283)">
        <path id="Trazado_102291" data-name="Trazado 102291" d="M1636.582,1656.972a.508.508,0,0,0,0,1.015A.508.508,0,0,0,1636.582,1656.972Z" transform="translate(-1636.092 -1656.972)" fill="#999ca6"/>
      </g>
      <g id="Grupo_69757" data-name="Grupo 69757" transform="translate(13.152 61.09)">
        <path id="Trazado_102292" data-name="Trazado 102292" d="M1231.71,1655.278a.508.508,0,0,0,0,1.016A.508.508,0,0,0,1231.71,1655.278Z" transform="translate(-1231.219 -1655.278)" fill="#999ca6"/>
      </g>
      <g id="Grupo_69758" data-name="Grupo 69758" transform="translate(33.861 32.41)">
        <path id="Trazado_102293" data-name="Trazado 102293" d="M1413.155,1403.511a.145.145,0,0,0,0,.29A.145.145,0,0,0,1413.155,1403.511Z" transform="translate(-1413.015 -1403.511)" fill="#999ca6"/>
      </g>
      <g id="Grupo_69759" data-name="Grupo 69759" transform="translate(34.536 10.99)">
        <path id="Trazado_102294" data-name="Trazado 102294" d="M1419.084,1215.474a.145.145,0,0,0,0,.29A.145.145,0,0,0,1419.084,1215.474Z" transform="translate(-1418.944 -1215.474)" fill="#999ca6"/>
      </g>
      <g id="Grupo_69760" data-name="Grupo 69760" transform="translate(15.335 28.068)">
        <path id="Trazado_102295" data-name="Trazado 102295" d="M1250.528,1365.4a.145.145,0,0,0,0,.29A.145.145,0,0,0,1250.528,1365.4Z" transform="translate(-1250.388 -1365.395)" fill="#999ca6"/>
      </g>
      <g id="Grupo_69761" data-name="Grupo 69761" transform="translate(15.142 40.033)">
        <path id="Trazado_102296" data-name="Trazado 102296" d="M1248.834,1470.425a.145.145,0,0,0,0,.29A.145.145,0,0,0,1248.834,1470.425Z" transform="translate(-1248.694 -1470.425)" fill="#999ca6"/>
      </g>
      <g id="Grupo_69762" data-name="Grupo 69762" transform="translate(43.22 48.524)">
        <path id="Trazado_102297" data-name="Trazado 102297" d="M1495.315,1544.962a.145.145,0,0,0,0,.29A.145.145,0,0,0,1495.315,1544.962Z" transform="translate(-1495.175 -1544.962)" fill="#999ca6"/>
      </g>
      <g id="Grupo_69763" data-name="Grupo 69763" transform="translate(26.265 51.153)">
        <path id="Trazado_102298" data-name="Trazado 102298" d="M1346.543,1568.041a.218.218,0,0,0,0,.435A.218.218,0,0,0,1346.543,1568.041Z" transform="translate(-1346.333 -1568.041)" fill="#999ca6"/>
      </g>
      <g id="Grupo_69764" data-name="Grupo 69764" transform="translate(52.799 49.319)">
        <path id="Trazado_102299" data-name="Trazado 102299" d="M1579.471,1551.948a.218.218,0,0,0,0,.435A.218.218,0,0,0,1579.471,1551.948Z" transform="translate(-1579.261 -1551.948)" fill="#999ca6"/>
      </g>
      <g id="Grupo_69765" data-name="Grupo 69765" transform="translate(51.062 38.513)">
        <path id="Trazado_102300" data-name="Trazado 102300" d="M1564.225,1457.083a.218.218,0,0,0,0,.435A.218.218,0,0,0,1564.225,1457.083Z" transform="translate(-1564.015 -1457.083)" fill="#999ca6"/>
      </g>
      <g id="Grupo_69766" data-name="Grupo 69766" transform="translate(43.44 18.926)">
        <path id="Trazado_102301" data-name="Trazado 102301" d="M1497.311,1285.139a.218.218,0,0,0,0,.435A.218.218,0,0,0,1497.311,1285.139Z" transform="translate(-1497.101 -1285.139)" fill="#999ca6"/>
      </g>
      <g id="Grupo_69767" data-name="Grupo 69767" transform="translate(21.73 20.952)">
        <path id="Trazado_102302" data-name="Trazado 102302" d="M1306.733,1302.926a.218.218,0,0,0,0,.435A.218.218,0,0,0,1306.733,1302.926Z" transform="translate(-1306.523 -1302.926)" fill="#999ca6"/>
      </g>
      <g id="Grupo_69768" data-name="Grupo 69768" transform="translate(43.633 60.03)">
        <path id="Trazado_102303" data-name="Trazado 102303" d="M1499.005,1645.967a.218.218,0,0,0,0,.435A.218.218,0,0,0,1499.005,1645.967Z" transform="translate(-1498.795 -1645.967)" fill="#999ca6"/>
      </g>
      <g id="Grupo_69769" data-name="Grupo 69769" transform="translate(35.045 58.389)">
        <path id="Trazado_102304" data-name="Trazado 102304" d="M1423.621,1631.567a.218.218,0,0,0,0,.435A.218.218,0,0,0,1423.621,1631.567Z" transform="translate(-1423.411 -1631.567)" fill="#999ca6"/>
      </g>
      <g id="Grupo_69770" data-name="Grupo 69770" transform="translate(28.581 61.38)">
        <path id="Trazado_102305" data-name="Trazado 102305" d="M1366.871,1657.825a.218.218,0,0,0,0,.435A.218.218,0,0,0,1366.871,1657.825Z" transform="translate(-1366.661 -1657.825)" fill="#999ca6"/>
      </g>
      <g id="Grupo_69771" data-name="Grupo 69771" transform="translate(3.88 60.802)">
        <path id="Trazado_102306" data-name="Trazado 102306" d="M1150.036,1652.743a.218.218,0,0,0,0,.435A.218.218,0,0,0,1150.036,1652.743Z" transform="translate(-1149.826 -1652.743)" fill="#999ca6"/>
      </g>
      <g id="Grupo_69772" data-name="Grupo 69772" transform="translate(14.783 57.714)">
        <path id="Trazado_102307" data-name="Trazado 102307" d="M1245.748,1625.638a.218.218,0,0,0,0,.435A.218.218,0,0,0,1245.748,1625.638Z" transform="translate(-1245.538 -1625.638)" fill="#999ca6"/>
      </g>
      <g id="Grupo_69773" data-name="Grupo 69773" transform="translate(54.246 57.135)">
        <path id="Trazado_102308" data-name="Trazado 102308" d="M1592.177,1620.556a.218.218,0,0,0,0,.435A.218.218,0,0,0,1592.177,1620.556Z" transform="translate(-1591.966 -1620.556)" fill="#999ca6"/>
      </g>
      <g id="Grupo_69774" data-name="Grupo 69774" transform="translate(63.992 60.512)">
        <path id="Trazado_102309" data-name="Trazado 102309" d="M1677.725,1650.2a.218.218,0,0,0,0,.435A.218.218,0,0,0,1677.725,1650.2Z" transform="translate(-1677.515 -1650.202)" fill="#999ca6"/>
      </g>
      <g id="Grupo_69775" data-name="Grupo 69775" transform="translate(42.861 49.705)">
        <path id="Trazado_102310" data-name="Trazado 102310" d="M1492.229,1555.336a.218.218,0,0,0,0,.435A.218.218,0,0,0,1492.229,1555.336Z" transform="translate(-1492.019 -1555.336)" fill="#999ca6"/>
      </g>
      <g id="Grupo_69776" data-name="Grupo 69776" transform="translate(21.274 48.764)">
        <path id="Trazado_102311" data-name="Trazado 102311" d="M1302.8,1547.076a.29.29,0,0,0,0,.58A.29.29,0,0,0,1302.8,1547.076Z" transform="translate(-1302.52 -1547.076)" fill="#999ca6"/>
      </g>
      <g id="Grupo_69777" data-name="Grupo 69777" transform="translate(10.467 44.905)">
        <path id="Trazado_102312" data-name="Trazado 102312" d="M1207.935,1513.2a.29.29,0,0,0,0,.58A.29.29,0,0,0,1207.935,1513.2Z" transform="translate(-1207.654 -1513.196)" fill="#999ca6"/>
      </g>
      <g id="Grupo_69778" data-name="Grupo 69778" transform="translate(10.923 50.96)">
        <path id="Trazado_102313" data-name="Trazado 102313" d="M1211.867,1566.347a.218.218,0,0,0,0,.435A.218.218,0,0,0,1211.867,1566.347Z" transform="translate(-1211.657 -1566.347)" fill="#999ca6"/>
      </g>
      <g id="Grupo_69779" data-name="Grupo 69779" transform="translate(27.256 31.493)">
        <path id="Trazado_102314" data-name="Trazado 102314" d="M1355.315,1395.461a.29.29,0,0,0,0,.58A.29.29,0,0,0,1355.315,1395.461Z" transform="translate(-1355.035 -1395.461)" fill="#999ca6"/>
      </g>
    </g>
  </g>
</svg>
