<svg xmlns="http://www.w3.org/2000/svg" width="295" height="218.744" viewBox="0 0 295 218.744">
  <g id="Grupo_69490" data-name="Grupo 69490" transform="translate(-414.123 -752.315)">
    <g id="Grupo_69489" data-name="Grupo 69489" transform="translate(414.123 752.315)">
      <g id="Grupo_69486" data-name="Grupo 69486">
        <g id="Grupo_69469" data-name="Grupo 69469">
          <g id="Grupo_69461" data-name="Grupo 69461" transform="translate(1.65 59.515)" style="mix-blend-mode: multiply;isolation: isolate">
            <path id="Trazado_101782" data-name="Trazado 101782" d="M711.323,922.555l-54.365-31.387L585.1,911.732,417.973,1019.01l54.365,31.387L675.08,953.942Z" transform="translate(-417.973 -891.168)" fill="#b7b7b7"/>
          </g>
          <g id="Grupo_69462" data-name="Grupo 69462" transform="translate(54.365 31.386)">
            <path id="Trazado_101783" data-name="Trazado 101783" d="M540.96,995.234,743.7,898.779l36.243-31.387v-41.85L743.7,856.929,540.96,953.384Z" transform="translate(-540.96 -825.542)" fill="#543723"/>
          </g>
          <g id="Grupo_69463" data-name="Grupo 69463" transform="translate(0 127.842)">
            <path id="Trazado_101784" data-name="Trazado 101784" d="M414.123,1050.581v41.85l54.365,31.387v-41.85Z" transform="translate(-414.123 -1050.581)" fill="#49301e"/>
          </g>
          <g id="Grupo_69464" data-name="Grupo 69464">
            <path id="Trazado_101785" data-name="Trazado 101785" d="M707.473,783.7l-54.364-31.387-71.861,20.564L414.123,880.157l54.365,31.387L671.23,815.089Z" transform="translate(-414.123 -752.314)" fill="#714c2e"/>
          </g>
          <g id="Grupo_69466" data-name="Grupo 69466" transform="translate(0 42.189)">
            <g id="Grupo_69465" data-name="Grupo 69465">
              <path id="Trazado_101786" data-name="Trazado 101786" d="M468.449,983.778l-.295-.178-14.278-6.666-35.026-21.691-4.729-2.741v-3.163l5.886,4.584,34.511,19.82,14.006,8.578,40.592-21.029,161.745-75.885,17.243-17.422,19.367-17.242-.059,1.665-19.292,19.63-16.649,16.47L510.458,963.068Z" transform="translate(-414.123 -850.745)" fill="#3d2617"/>
            </g>
          </g>
          <g id="Grupo_69467" data-name="Grupo 69467" transform="translate(43.548 165.498)">
            <path id="Trazado_101787" data-name="Trazado 101787" d="M526.489,1159.615l-10.764-5.33,10.816,8.332,45.085-24.181Z" transform="translate(-515.725 -1138.436)" fill="#3d2617"/>
          </g>
          <g id="Grupo_69468" data-name="Grupo 69468" transform="translate(41.963 123.47)">
            <path id="Trazado_101788" data-name="Trazado 101788" d="M524.588,1074.757l-12.563-5.777,12.366,8.99,72.326-37.588Z" transform="translate(-512.025 -1040.381)" fill="#3d2617"/>
          </g>
        </g>
        <g id="Grupo_69485" data-name="Grupo 69485" transform="translate(168.657 28.117)">
          <g id="Grupo_69484" data-name="Grupo 69484" style="isolation: isolate">
            <g id="Grupo_69471" data-name="Grupo 69471" transform="translate(44.843 4.247)">
              <g id="Grupo_69470" data-name="Grupo 69470">
                <path id="Trazado_101789" data-name="Trazado 101789" d="M926.034,827.823l-.018,2.533-13.781,8.009.018-2.533Z" transform="translate(-912.234 -827.823)" fill="#9b9b9b"/>
              </g>
            </g>
            <g id="Grupo_69473" data-name="Grupo 69473" transform="translate(17.801 5.111)">
              <g id="Grupo_69472" data-name="Grupo 69472">
                <path id="Trazado_101790" data-name="Trazado 101790" d="M861.539,836.983l-.018,2.533-12.376-7.145.018-2.533Z" transform="translate(-849.145 -829.838)" fill="#6b6b6b"/>
              </g>
            </g>
            <g id="Grupo_69475" data-name="Grupo 69475" transform="translate(37.534 16.504)">
              <g id="Grupo_69474" data-name="Grupo 69474">
                <path id="Trazado_101791" data-name="Trazado 101791" d="M907.577,863.563l-.018,2.533-12.376-7.145.018-2.533Z" transform="translate(-895.182 -856.418)" fill="#6b6b6b"/>
              </g>
            </g>
            <g id="Grupo_69477" data-name="Grupo 69477" transform="translate(49.91 19.401)">
              <g id="Grupo_69476" data-name="Grupo 69476">
                <path id="Trazado_101792" data-name="Trazado 101792" d="M931.384,863.179l-.018,2.533-7.309,4.248.018-2.533Z" transform="translate(-924.057 -863.179)" fill="#9b9b9b"/>
              </g>
            </g>
            <g id="Grupo_69479" data-name="Grupo 69479" transform="translate(0 29.793)">
              <g id="Grupo_69478" data-name="Grupo 69478">
                <path id="Trazado_101793" data-name="Trazado 101793" d="M814.988,891.671l-.018,2.533-7.357-4.247.018-2.533Z" transform="translate(-807.613 -887.424)" fill="#6b6b6b"/>
              </g>
            </g>
            <g id="Grupo_69481" data-name="Grupo 69481" transform="translate(7.357 16.504)">
              <g id="Grupo_69480" data-name="Grupo 69480">
                <path id="Trazado_101794" data-name="Trazado 101794" d="M854.972,856.418l-.018,2.533-30.177,17.537.018-2.533Z" transform="translate(-824.777 -856.418)" fill="#9b9b9b"/>
              </g>
            </g>
            <g id="Grupo_69483" data-name="Grupo 69483" transform="translate(0.018)">
              <g id="Grupo_69482" data-name="Grupo 69482">
                <path id="Trazado_101795" data-name="Trazado 101795" d="M866.28,822.161,852.5,830.17l12.376,7.145-7.309,4.247-12.376-7.145-30.177,17.537-7.357-4.247,30.177-17.537-12.376-7.145,7.309-4.247,12.376,7.145,13.781-8.009Z" transform="translate(-807.656 -817.914)" fill="#afafaf"/>
              </g>
            </g>
          </g>
        </g>
      </g>
      <g id="Grupo_69487" data-name="Grupo 69487" transform="translate(27.617 110.806)">
        <path id="Trazado_101796" data-name="Trazado 101796" d="M482.434,1046.055l64.846-35.22-68.725,32.981Z" transform="translate(-478.555 -1010.834)" fill="#3d2617"/>
      </g>
      <g id="Grupo_69488" data-name="Grupo 69488" transform="translate(10.308 120.69)">
        <path id="Trazado_101797" data-name="Trazado 101797" d="M442.053,1049.2l27.991-15.306-31.87,13.066Z" transform="translate(-438.173 -1033.895)" fill="#3d2617"/>
      </g>
    </g>
  </g>
</svg>
