<svg xmlns="http://www.w3.org/2000/svg" width="301.918" height="182" viewBox="0 0 301.918 182">
  <g id="Grupo_69645" data-name="Grupo 69645" transform="translate(-875.235 -5038.329)">
    <g id="Grupo_69643" data-name="Grupo 69643" transform="translate(671.476 4762.577)">
      <g id="Grupo_69625" data-name="Grupo 69625" transform="translate(203.759 315.753)">
        <g id="Grupo_69620" data-name="Grupo 69620" transform="translate(56.422 78.585)">
          <g id="Grupo_69618" data-name="Grupo 69618" transform="translate(19.129)">
            <path id="Trazado_102072" data-name="Trazado 102072" d="M307.77,381.566h5.117c.848-1.515,1.994-2.948,2.873-4.238,2.75-4.037,5.364-8.114,8.116-12.157,1.089-1.59,5.249-9.763,4.56-12.82a1.855,1.855,0,0,0-.139-.413c-.424-.908-1.526-1.084-3.679.026-5.037,2.595-9.585,10.393-11.755,15.371A136.59,136.59,0,0,0,307.77,381.566Z" transform="translate(-278.876 -336.535)" fill="#9adbc4"/>
            <path id="Trazado_102073" data-name="Trazado 102073" d="M306.042,389.407h3.12a54.525,54.525,0,0,1,2.443-6.974,106.645,106.645,0,0,1,5.974-14.509c2.986-5.715,5.89-11.194,6.453-17.784.192-2.184.139-4.624-1.029-5.358a1.2,1.2,0,0,0-.311-.152c-.629-.2-1.519-.007-2.756.8-3.77,2.447-5.358,9.174-6.65,13.109-1.287,3.964-2.343,7.948-3.293,12-1.358,5.8-2.25,11.751-3.635,17.32C306.223,388.4,306.133,388.917,306.042,389.407Z" transform="translate(-280.964 -344.555)" fill="#9adbc4"/>
            <path id="Trazado_102074" data-name="Trazado 102074" d="M294.862,362.9c.923,4.161,5.263,6.453,7.506,9.869h4.987c-.523-4.693-2.458-9.671-5.784-12.893a5.3,5.3,0,0,0-4.574-1.63c-.128.029-.25.064-.375.1C295.2,358.841,294.286,360.34,294.862,362.9Z" transform="translate(-294.687 -328.1)" fill="#9adbc4"/>
            <path id="Trazado_102075" data-name="Trazado 102075" d="M300.787,372.138v7.509h4.682c1.237-5.106,1.7-10.826,2.361-15.859.353-2.708,2.352-12.921-3.492-11.272a3.441,3.441,0,0,0-.415.148,3.513,3.513,0,0,0-.362.188C299.27,355.458,300.787,368.277,300.787,372.138Z" transform="translate(-287.629 -335.152)" fill="#9adbc4"/>
            <path id="Trazado_102076" data-name="Trazado 102076" d="M303.666,383.68h4.329c.565-2.071.85-4.523,1.349-6.5,1.073-4.282,2.427-8.529,3.494-12.826a46.585,46.585,0,0,0,1.612-11.55c.007-2.08-.68-3.529-1.818-3.65a2.128,2.128,0,0,0-.411.007,4.327,4.327,0,0,0-2.339,1.63c-4.351,5.033-4.58,14.306-5.161,20.6C304.351,375.368,303.79,379.643,303.666,383.68Z" transform="translate(-283.836 -339.01)" fill="#9adbc4"/>
            <path id="Trazado_102077" data-name="Trazado 102077" d="M301.808,379.467h.391c1.575-8.937,2.343-18.224.177-26.982a3.52,3.52,0,0,0-.362.188C304.136,361.374,303.369,370.594,301.808,379.467Z" transform="translate(-286.081 -334.973)" fill="#fff"/>
            <path id="Trazado_102078" data-name="Trazado 102078" d="M295.563,358.311c1.02,1.06,1.977,2.18,2.878,3.317a31.149,31.149,0,0,1,6.04,11.1h.413a30.3,30.3,0,0,0-6.091-11.241c-.9-1.122-1.86-2.226-2.864-3.282C295.81,358.236,295.689,358.271,295.563,358.311Z" transform="translate(-293.627 -328.059)" fill="#fff"/>
            <path id="Trazado_102079" data-name="Trazado 102079" d="M304.536,383.68h.406a309.56,309.56,0,0,1,6.639-34.528,2.128,2.128,0,0,0-.411.007A310.159,310.159,0,0,0,304.536,383.68Z" transform="translate(-282.784 -339.01)" fill="#fff"/>
            <path id="Trazado_102080" data-name="Trazado 102080" d="M306.747,389.367h.4a167.267,167.267,0,0,1,3.436-17.521c2.451-9.534,5.936-18.979,11.57-27.1a1.2,1.2,0,0,0-.311-.152c-5.6,8.036-9.127,17.407-11.557,26.841A171.945,171.945,0,0,0,306.747,389.367Z" transform="translate(-280.113 -344.515)" fill="#fff"/>
            <path id="Trazado_102081" data-name="Trazado 102081" d="M308.56,381.158h.422c6.051-20.019,14.023-26.874,18.5-29.215a1.851,1.851,0,0,0-.139-.413,20.967,20.967,0,0,0-4.673,3.35C318.675,358.581,313.089,366.112,308.56,381.158Z" transform="translate(-277.922 -336.127)" fill="#fff"/>
          </g>
          <g id="Grupo_69619" data-name="Grupo 69619" transform="translate(49.682 6.627)">
            <path id="Trazado_102082" data-name="Trazado 102082" d="M321.6,384.566h5.115c.848-1.515,2-2.948,2.875-4.238,2.747-4.037,5.362-8.114,8.118-12.157,1.084-1.59,5.247-9.763,4.56-12.82a2.081,2.081,0,0,0-.141-.415c-.422-.905-1.524-1.082-3.679.029-5.035,2.595-9.582,10.393-11.755,15.371A135.567,135.567,0,0,0,321.6,384.566Z" transform="translate(-292.712 -339.536)" fill="#9adbc4"/>
            <path id="Trazado_102083" data-name="Trazado 102083" d="M319.876,392.407H323a54.407,54.407,0,0,1,2.442-6.974,106.9,106.9,0,0,1,5.972-14.509c2.986-5.715,5.892-11.194,6.455-17.784.194-2.182.139-4.624-1.029-5.358a1.084,1.084,0,0,0-.314-.15c-.627-.205-1.517-.007-2.754.793-3.77,2.447-5.358,9.174-6.649,13.111-1.287,3.962-2.345,7.946-3.293,12-1.358,5.8-2.25,11.751-3.635,17.321C320.059,391.4,319.967,391.916,319.876,392.407Z" transform="translate(-294.8 -347.556)" fill="#9adbc4"/>
            <path id="Trazado_102084" data-name="Trazado 102084" d="M308.7,365.9c.921,4.161,5.26,6.453,7.5,9.869h4.987c-.523-4.693-2.458-9.673-5.784-12.893a5.3,5.3,0,0,0-4.574-1.63c-.128.029-.252.066-.375.1C309.028,361.843,308.121,363.338,308.7,365.9Z" transform="translate(-308.521 -331.102)" fill="#9adbc4"/>
            <path id="Trazado_102085" data-name="Trazado 102085" d="M314.621,375.138v7.509H319.3c1.241-5.106,1.7-10.826,2.365-15.859.353-2.708,2.352-12.921-3.491-11.272a4.013,4.013,0,0,0-.415.148,3.311,3.311,0,0,0-.362.188C313.1,358.458,314.621,371.277,314.621,375.138Z" transform="translate(-301.465 -338.153)" fill="#9adbc4"/>
            <path id="Trazado_102086" data-name="Trazado 102086" d="M317.5,386.68h4.328c.565-2.071.85-4.521,1.347-6.5,1.076-4.28,2.427-8.527,3.5-12.824a46.588,46.588,0,0,0,1.612-11.55c.007-2.08-.682-3.529-1.82-3.648a1.955,1.955,0,0,0-.409.007,4.306,4.306,0,0,0-2.339,1.628c-4.355,5.031-4.58,14.306-5.163,20.6C318.185,378.367,317.624,382.643,317.5,386.68Z" transform="translate(-297.672 -342.01)" fill="#9adbc4"/>
            <path id="Trazado_102087" data-name="Trazado 102087" d="M315.642,382.467h.391c1.575-8.937,2.343-18.222.177-26.982a3.305,3.305,0,0,0-.362.188C317.965,364.374,317.206,373.594,315.642,382.467Z" transform="translate(-299.917 -337.974)" fill="#fff"/>
            <path id="Trazado_102088" data-name="Trazado 102088" d="M309.4,361.311c1.018,1.062,1.977,2.177,2.88,3.319a31.134,31.134,0,0,1,6.038,11.1h.413a30.338,30.338,0,0,0-6.093-11.241c-.9-1.122-1.857-2.224-2.862-3.282C309.644,361.236,309.521,361.273,309.4,361.311Z" transform="translate(-307.463 -331.06)" fill="#fff"/>
            <path id="Trazado_102089" data-name="Trazado 102089" d="M318.37,386.68h.4a309.94,309.94,0,0,1,6.638-34.526,1.955,1.955,0,0,0-.409.007A309.561,309.561,0,0,0,318.37,386.68Z" transform="translate(-296.62 -342.01)" fill="#fff"/>
            <path id="Trazado_102090" data-name="Trazado 102090" d="M320.581,392.366h.4a166.533,166.533,0,0,1,3.436-17.519c2.451-9.536,5.936-18.981,11.57-27.106a1.084,1.084,0,0,0-.314-.15c-5.6,8.034-9.125,17.4-11.557,26.841A172.48,172.48,0,0,0,320.581,392.366Z" transform="translate(-293.949 -347.515)" fill="#fff"/>
            <path id="Trazado_102091" data-name="Trazado 102091" d="M322.393,384.159h.424c6.051-20.019,14.023-26.874,18.5-29.215a2.081,2.081,0,0,0-.141-.415,21.039,21.039,0,0,0-4.673,3.352C332.51,361.583,326.927,369.113,322.393,384.159Z" transform="translate(-291.759 -339.13)" fill="#fff"/>
          </g>
          <path id="Trazado_102092" data-name="Trazado 102092" d="M362.379,375.764c-1.771-4.934-9.516-.393-12.566.822,2.668-1.595,9.6-7.8,6.513-11.546-2.928-3.569-9.532,1.17-13.44,4.68,3.279-3.622,7.162-9.406,2.886-10.192-4.1-.755-11.024,4.613-14.134,9.231,2.169-5.075,4.7-12.884-1.886-8.6-1.647,1.076-4.064,3.995-6.113,7.442.91-3.2.749-6-2.6-6.323-5.2-.5-10.81,9.017-12.332,15.28-.117-1-.543-1.506-1.175-1.435-1.9.15-2.681,2.6-2.842,4.39-.638-1.63-.91-6.455-4.346-5.263-3.023,1.051-2.2,5.543-2.164,7.968-1.771-2-10.2-7.986-12.025-3.154-.936,2.493,3.346,4.925,6.338,6.727h8.123c.029-.007.055-.011.084-.02l23.1-.051c.137.024.276.042.415.071h30.4C357.492,384.052,363.728,379.516,362.379,375.764Z" transform="translate(-286.025 -327.197)" fill="#81c9b1"/>
          <path id="Trazado_102093" data-name="Trazado 102093" d="M372.42,379.39H322.177c-1.246-3.132-7.5-5.408-6.332-8.458,1.493-3.931,7.537-.49,8.745,1.7-.088-1.939-.181-6.839,2.16-7.8,3.266-1.338,2.54,5.006,2.628,7.107.8-2.811,3.348-7.809,6.747-7.875.879,2.515.539,5.66.071,8.218.316-2.036,5.093-7.458,7.628-6.464,1.729.68,1.572,4.786.744,6.8,2.458-3.6,11.716-8.48,15.249-5.963,3.463,2.465-2.412,6.579-4.357,8.158,2.288-1.559,7.334-5.283,10.249-3.165,2.725,1.979.594,3.922-1.82,4.759,2.2-.168,8.388-2.363,9.624.34C373.959,377.725,373.334,378.639,372.42,379.39Z" transform="translate(-250.164 -320.976)" fill="#81c9b1"/>
        </g>
        <g id="Grupo_69622" data-name="Grupo 69622" transform="translate(0 70.17)">
          <g id="Grupo_69621" data-name="Grupo 69621" transform="translate(33.288)">
            <path id="Trazado_102094" data-name="Trazado 102094" d="M296.91,372.04c-2.942-6.837-9.127-17.555-16.015-21.143-2.946-1.539-4.457-1.3-5.044-.062a2.828,2.828,0,0,0-.192.565c-.963,4.185,4.691,15.417,6.166,17.6,3.75,5.559,7.308,11.166,11.051,16.718,1.193,1.773,2.758,3.745,3.911,5.828l7.01.033A186.167,186.167,0,0,0,296.91,372.04Z" transform="translate(-275.549 -329.776)" fill="#9adbc4"/>
            <path id="Trazado_102095" data-name="Trazado 102095" d="M303.7,400.2c-1.864-7.643-3.048-15.806-4.876-23.765-1.268-5.563-2.69-11.033-4.428-16.477-1.745-5.4-3.878-14.637-9.032-18.012-1.687-1.1-2.908-1.382-3.77-1.106a1.6,1.6,0,0,0-.428.205c-1.608,1-1.7,4.344-1.451,7.339.731,9.037,4.677,16.565,8.737,24.416a146.722,146.722,0,0,1,8.089,19.929c1,2.922,2.663,6.3,3.3,9.58l4.28.02C304,401.655,303.881,400.948,303.7,400.2Z" transform="translate(-270.641 -340.745)" fill="#9adbc4"/>
            <path id="Trazado_102096" data-name="Trazado 102096" d="M313.216,359.779a5.1,5.1,0,0,0-.515-.146,7.254,7.254,0,0,0-6.276,2.2c-4.585,4.395-7.268,11.208-8.01,17.639l6.831.031c3.1-4.666,9.061-7.782,10.353-13.48C316.4,362.515,315.172,360.455,313.216,359.779Z" transform="translate(-247.918 -318.053)" fill="#9adbc4"/>
            <path id="Trazado_102097" data-name="Trazado 102097" d="M300.15,352.2a4.143,4.143,0,0,0-.5-.261,4.315,4.315,0,0,0-.565-.21c-8-2.3-5.327,11.716-4.859,15.43.875,6.9,1.469,14.746,3.136,21.755l6.411.029.051-10.291C303.847,373.364,306.011,355.8,300.15,352.2Z" transform="translate(-253.953 -327.773)" fill="#9adbc4"/>
            <path id="Trazado_102098" data-name="Trazado 102098" d="M300.586,377.614c-.764-8.63-1.009-21.346-6.95-28.272a5.9,5.9,0,0,0-3.191-2.246,2.26,2.26,0,0,0-.559-.011c-1.561.155-2.513,2.14-2.522,4.987a64.118,64.118,0,0,0,2.135,15.848c1.435,5.9,3.266,11.727,4.708,17.6.676,2.719,1.047,6.078,1.8,8.922l5.936.029C301.8,388.934,301.067,383.071,300.586,377.614Z" transform="translate(-261.272 -333.099)" fill="#9adbc4"/>
            <path id="Trazado_102099" data-name="Trazado 102099" d="M297.892,388.678l-.541-.007c-2.1-12.257-3.09-24.99-.066-36.982a4.145,4.145,0,0,1,.5.261C294.818,363.86,295.805,376.5,297.892,388.678Z" transform="translate(-251.589 -327.52)" fill="#fff"/>
            <path id="Trazado_102100" data-name="Trazado 102100" d="M312.166,359.719c-1.407,1.449-2.723,2.972-3.969,4.529-3.544,4.459-6.877,9.58-8.343,15.178l-.57-.007c1.44-5.669,4.8-10.907,8.423-15.366,1.246-1.533,2.562-3.037,3.944-4.481A5.091,5.091,0,0,1,312.166,359.719Z" transform="translate(-246.868 -317.993)" fill="#fff"/>
            <path id="Trazado_102101" data-name="Trazado 102101" d="M297.931,394.457l-.552,0c-2.3-15.918-4.8-31.794-8.873-47.37a2.26,2.26,0,0,1,.559.011C293.141,362.663,295.646,378.539,297.931,394.457Z" transform="translate(-259.892 -333.099)" fill="#fff"/>
            <path id="Trazado_102102" data-name="Trazado 102102" d="M301.138,402.27l-.545,0a230.146,230.146,0,0,0-4.6-24.043c-3.295-13.083-8.01-26.055-15.68-37.227a1.6,1.6,0,0,1,.428-.205c7.626,11.049,12.394,23.919,15.664,36.867A236.213,236.213,0,0,1,301.138,402.27Z" transform="translate(-269.79 -340.691)" fill="#fff"/>
            <path id="Trazado_102103" data-name="Trazado 102103" d="M301.351,391.017l-.583,0c-8.165-27.484-19.048-36.929-25.169-40.169a2.832,2.832,0,0,1,.192-.565,28.657,28.657,0,0,1,6.385,4.624C287.628,360,295.234,370.36,301.351,391.017Z" transform="translate(-275.489 -329.222)" fill="#fff"/>
          </g>
          <path id="Trazado_102104" data-name="Trazado 102104" d="M349.186,388.558c1.63-2.317,4.664-6.025,1.014-8.4-3.03-1.972-7.5.731-9.768,2.462,1.784-3.635,11.961-9.845,6.309-14.723-2.765-2.387-11.592-.579-14.933.015-2.931.526-6.495,1.418-8.5,3.752a3.053,3.053,0,0,0-1.915-3.915c-2.343-.81-5.165,2.133-6.683,3.514.8-6.853-5.711-8.076-7.319-1.391-1-1.941-.261-8.246-3.127-8.712-3.244-.532-5.693,6-5.479,8.564-2.551-3.84-5.852-14.876-11.563-14.825-6.475.051-5.263,11.113-3.684,14.938-.97-1.458-4.662-6.672-7.612-4.819-3.118,1.968.314,8.759,1.8,11.141-1.363-1.811-2.478-4.432-4.465-5.7-1.193-.757-5.472-2.354-6.749-.685-1.632,2.133,3.474,8.114,6.513,12.749-3.271-1.493-7.241-3.783-11.009,1.014-1.842,2.334-1.868,4.465-.91,6.287l93.082.442C354.715,387.251,353.781,386.107,349.186,388.558Z" transform="translate(-260.476 -323.64)" fill="#81c9b1"/>
        </g>
      </g>
      <g id="Grupo_69644" data-name="Grupo 69644" transform="translate(325.759 315.753)">
        <g id="Grupo_69620-2" data-name="Grupo 69620" transform="translate(56.422 78.585)">
          <g id="Grupo_69618-2" data-name="Grupo 69618" transform="translate(19.129)">
            <path id="Trazado_102072-2" data-name="Trazado 102072" d="M307.77,381.566h5.117c.848-1.515,1.994-2.948,2.873-4.238,2.75-4.037,5.364-8.114,8.116-12.157,1.089-1.59,5.249-9.763,4.56-12.82a1.855,1.855,0,0,0-.139-.413c-.424-.908-1.526-1.084-3.679.026-5.037,2.595-9.585,10.393-11.755,15.371A136.59,136.59,0,0,0,307.77,381.566Z" transform="translate(-278.876 -336.535)" fill="#9adbc4"/>
            <path id="Trazado_102073-2" data-name="Trazado 102073" d="M306.042,389.407h3.12a54.525,54.525,0,0,1,2.443-6.974,106.645,106.645,0,0,1,5.974-14.509c2.986-5.715,5.89-11.194,6.453-17.784.192-2.184.139-4.624-1.029-5.358a1.2,1.2,0,0,0-.311-.152c-.629-.2-1.519-.007-2.756.8-3.77,2.447-5.358,9.174-6.65,13.109-1.287,3.964-2.343,7.948-3.293,12-1.358,5.8-2.25,11.751-3.635,17.32C306.223,388.4,306.133,388.917,306.042,389.407Z" transform="translate(-280.964 -344.555)" fill="#9adbc4"/>
            <path id="Trazado_102074-2" data-name="Trazado 102074" d="M294.862,362.9c.923,4.161,5.263,6.453,7.506,9.869h4.987c-.523-4.693-2.458-9.671-5.784-12.893a5.3,5.3,0,0,0-4.574-1.63c-.128.029-.25.064-.375.1C295.2,358.841,294.286,360.34,294.862,362.9Z" transform="translate(-294.687 -328.1)" fill="#9adbc4"/>
            <path id="Trazado_102075-2" data-name="Trazado 102075" d="M300.787,372.138v7.509h4.682c1.237-5.106,1.7-10.826,2.361-15.859.353-2.708,2.352-12.921-3.492-11.272a3.441,3.441,0,0,0-.415.148,3.513,3.513,0,0,0-.362.188C299.27,355.458,300.787,368.277,300.787,372.138Z" transform="translate(-287.629 -335.152)" fill="#9adbc4"/>
            <path id="Trazado_102076-2" data-name="Trazado 102076" d="M303.666,383.68h4.329c.565-2.071.85-4.523,1.349-6.5,1.073-4.282,2.427-8.529,3.494-12.826a46.585,46.585,0,0,0,1.612-11.55c.007-2.08-.68-3.529-1.818-3.65a2.128,2.128,0,0,0-.411.007,4.327,4.327,0,0,0-2.339,1.63c-4.351,5.033-4.58,14.306-5.161,20.6C304.351,375.368,303.79,379.643,303.666,383.68Z" transform="translate(-283.836 -339.01)" fill="#9adbc4"/>
            <path id="Trazado_102077-2" data-name="Trazado 102077" d="M301.808,379.467h.391c1.575-8.937,2.343-18.224.177-26.982a3.52,3.52,0,0,0-.362.188C304.136,361.374,303.369,370.594,301.808,379.467Z" transform="translate(-286.081 -334.973)" fill="#fff"/>
            <path id="Trazado_102078-2" data-name="Trazado 102078" d="M295.563,358.311c1.02,1.06,1.977,2.18,2.878,3.317a31.149,31.149,0,0,1,6.04,11.1h.413a30.3,30.3,0,0,0-6.091-11.241c-.9-1.122-1.86-2.226-2.864-3.282C295.81,358.236,295.689,358.271,295.563,358.311Z" transform="translate(-293.627 -328.059)" fill="#fff"/>
            <path id="Trazado_102079-2" data-name="Trazado 102079" d="M304.536,383.68h.406a309.56,309.56,0,0,1,6.639-34.528,2.128,2.128,0,0,0-.411.007A310.159,310.159,0,0,0,304.536,383.68Z" transform="translate(-282.784 -339.01)" fill="#fff"/>
            <path id="Trazado_102080-2" data-name="Trazado 102080" d="M306.747,389.367h.4a167.267,167.267,0,0,1,3.436-17.521c2.451-9.534,5.936-18.979,11.57-27.1a1.2,1.2,0,0,0-.311-.152c-5.6,8.036-9.127,17.407-11.557,26.841A171.945,171.945,0,0,0,306.747,389.367Z" transform="translate(-280.113 -344.515)" fill="#fff"/>
            <path id="Trazado_102081-2" data-name="Trazado 102081" d="M308.56,381.158h.422c6.051-20.019,14.023-26.874,18.5-29.215a1.851,1.851,0,0,0-.139-.413,20.967,20.967,0,0,0-4.673,3.35C318.675,358.581,313.089,366.112,308.56,381.158Z" transform="translate(-277.922 -336.127)" fill="#fff"/>
          </g>
          <g id="Grupo_69619-2" data-name="Grupo 69619" transform="translate(49.682 6.627)">
            <path id="Trazado_102082-2" data-name="Trazado 102082" d="M321.6,384.566h5.115c.848-1.515,2-2.948,2.875-4.238,2.747-4.037,5.362-8.114,8.118-12.157,1.084-1.59,5.247-9.763,4.56-12.82a2.081,2.081,0,0,0-.141-.415c-.422-.905-1.524-1.082-3.679.029-5.035,2.595-9.582,10.393-11.755,15.371A135.567,135.567,0,0,0,321.6,384.566Z" transform="translate(-292.712 -339.536)" fill="#9adbc4"/>
            <path id="Trazado_102083-2" data-name="Trazado 102083" d="M319.876,392.407H323a54.407,54.407,0,0,1,2.442-6.974,106.9,106.9,0,0,1,5.972-14.509c2.986-5.715,5.892-11.194,6.455-17.784.194-2.182.139-4.624-1.029-5.358a1.084,1.084,0,0,0-.314-.15c-.627-.205-1.517-.007-2.754.793-3.77,2.447-5.358,9.174-6.649,13.111-1.287,3.962-2.345,7.946-3.293,12-1.358,5.8-2.25,11.751-3.635,17.321C320.059,391.4,319.967,391.916,319.876,392.407Z" transform="translate(-294.8 -347.556)" fill="#9adbc4"/>
            <path id="Trazado_102084-2" data-name="Trazado 102084" d="M308.7,365.9c.921,4.161,5.26,6.453,7.5,9.869h4.987c-.523-4.693-2.458-9.673-5.784-12.893a5.3,5.3,0,0,0-4.574-1.63c-.128.029-.252.066-.375.1C309.028,361.843,308.121,363.338,308.7,365.9Z" transform="translate(-308.521 -331.102)" fill="#9adbc4"/>
            <path id="Trazado_102085-2" data-name="Trazado 102085" d="M314.621,375.138v7.509H319.3c1.241-5.106,1.7-10.826,2.365-15.859.353-2.708,2.352-12.921-3.491-11.272a4.013,4.013,0,0,0-.415.148,3.311,3.311,0,0,0-.362.188C313.1,358.458,314.621,371.277,314.621,375.138Z" transform="translate(-301.465 -338.153)" fill="#9adbc4"/>
            <path id="Trazado_102086-2" data-name="Trazado 102086" d="M317.5,386.68h4.328c.565-2.071.85-4.521,1.347-6.5,1.076-4.28,2.427-8.527,3.5-12.824a46.588,46.588,0,0,0,1.612-11.55c.007-2.08-.682-3.529-1.82-3.648a1.955,1.955,0,0,0-.409.007,4.306,4.306,0,0,0-2.339,1.628c-4.355,5.031-4.58,14.306-5.163,20.6C318.185,378.367,317.624,382.643,317.5,386.68Z" transform="translate(-297.672 -342.01)" fill="#9adbc4"/>
            <path id="Trazado_102087-2" data-name="Trazado 102087" d="M315.642,382.467h.391c1.575-8.937,2.343-18.222.177-26.982a3.305,3.305,0,0,0-.362.188C317.965,364.374,317.206,373.594,315.642,382.467Z" transform="translate(-299.917 -337.974)" fill="#fff"/>
            <path id="Trazado_102088-2" data-name="Trazado 102088" d="M309.4,361.311c1.018,1.062,1.977,2.177,2.88,3.319a31.134,31.134,0,0,1,6.038,11.1h.413a30.338,30.338,0,0,0-6.093-11.241c-.9-1.122-1.857-2.224-2.862-3.282C309.644,361.236,309.521,361.273,309.4,361.311Z" transform="translate(-307.463 -331.06)" fill="#fff"/>
            <path id="Trazado_102089-2" data-name="Trazado 102089" d="M318.37,386.68h.4a309.94,309.94,0,0,1,6.638-34.526,1.955,1.955,0,0,0-.409.007A309.561,309.561,0,0,0,318.37,386.68Z" transform="translate(-296.62 -342.01)" fill="#fff"/>
            <path id="Trazado_102090-2" data-name="Trazado 102090" d="M320.581,392.366h.4a166.533,166.533,0,0,1,3.436-17.519c2.451-9.536,5.936-18.981,11.57-27.106a1.084,1.084,0,0,0-.314-.15c-5.6,8.034-9.125,17.4-11.557,26.841A172.48,172.48,0,0,0,320.581,392.366Z" transform="translate(-293.949 -347.515)" fill="#fff"/>
            <path id="Trazado_102091-2" data-name="Trazado 102091" d="M322.393,384.159h.424c6.051-20.019,14.023-26.874,18.5-29.215a2.081,2.081,0,0,0-.141-.415,21.039,21.039,0,0,0-4.673,3.352C332.51,361.583,326.927,369.113,322.393,384.159Z" transform="translate(-291.759 -339.13)" fill="#fff"/>
          </g>
          <path id="Trazado_102092-2" data-name="Trazado 102092" d="M362.379,375.764c-1.771-4.934-9.516-.393-12.566.822,2.668-1.595,9.6-7.8,6.513-11.546-2.928-3.569-9.532,1.17-13.44,4.68,3.279-3.622,7.162-9.406,2.886-10.192-4.1-.755-11.024,4.613-14.134,9.231,2.169-5.075,4.7-12.884-1.886-8.6-1.647,1.076-4.064,3.995-6.113,7.442.91-3.2.749-6-2.6-6.323-5.2-.5-10.81,9.017-12.332,15.28-.117-1-.543-1.506-1.175-1.435-1.9.15-2.681,2.6-2.842,4.39-.638-1.63-.91-6.455-4.346-5.263-3.023,1.051-2.2,5.543-2.164,7.968-1.771-2-10.2-7.986-12.025-3.154-.936,2.493,3.346,4.925,6.338,6.727h8.123c.029-.007.055-.011.084-.02l23.1-.051c.137.024.276.042.415.071h30.4C357.492,384.052,363.728,379.516,362.379,375.764Z" transform="translate(-286.025 -327.197)" fill="#81c9b1"/>
          <path id="Trazado_102093-2" data-name="Trazado 102093" d="M372.42,379.39H322.177c-1.246-3.132-7.5-5.408-6.332-8.458,1.493-3.931,7.537-.49,8.745,1.7-.088-1.939-.181-6.839,2.16-7.8,3.266-1.338,2.54,5.006,2.628,7.107.8-2.811,3.348-7.809,6.747-7.875.879,2.515.539,5.66.071,8.218.316-2.036,5.093-7.458,7.628-6.464,1.729.68,1.572,4.786.744,6.8,2.458-3.6,11.716-8.48,15.249-5.963,3.463,2.465-2.412,6.579-4.357,8.158,2.288-1.559,7.334-5.283,10.249-3.165,2.725,1.979.594,3.922-1.82,4.759,2.2-.168,8.388-2.363,9.624.34C373.959,377.725,373.334,378.639,372.42,379.39Z" transform="translate(-250.164 -320.976)" fill="#81c9b1"/>
        </g>
        <g id="Grupo_69622-2" data-name="Grupo 69622" transform="translate(0 70.17)">
          <g id="Grupo_69621-2" data-name="Grupo 69621" transform="translate(33.288)">
            <path id="Trazado_102094-2" data-name="Trazado 102094" d="M296.91,372.04c-2.942-6.837-9.127-17.555-16.015-21.143-2.946-1.539-4.457-1.3-5.044-.062a2.828,2.828,0,0,0-.192.565c-.963,4.185,4.691,15.417,6.166,17.6,3.75,5.559,7.308,11.166,11.051,16.718,1.193,1.773,2.758,3.745,3.911,5.828l7.01.033A186.167,186.167,0,0,0,296.91,372.04Z" transform="translate(-275.549 -329.776)" fill="#9adbc4"/>
            <path id="Trazado_102095-2" data-name="Trazado 102095" d="M303.7,400.2c-1.864-7.643-3.048-15.806-4.876-23.765-1.268-5.563-2.69-11.033-4.428-16.477-1.745-5.4-3.878-14.637-9.032-18.012-1.687-1.1-2.908-1.382-3.77-1.106a1.6,1.6,0,0,0-.428.205c-1.608,1-1.7,4.344-1.451,7.339.731,9.037,4.677,16.565,8.737,24.416a146.722,146.722,0,0,1,8.089,19.929c1,2.922,2.663,6.3,3.3,9.58l4.28.02C304,401.655,303.881,400.948,303.7,400.2Z" transform="translate(-270.641 -340.745)" fill="#9adbc4"/>
            <path id="Trazado_102096-2" data-name="Trazado 102096" d="M313.216,359.779a5.1,5.1,0,0,0-.515-.146,7.254,7.254,0,0,0-6.276,2.2c-4.585,4.395-7.268,11.208-8.01,17.639l6.831.031c3.1-4.666,9.061-7.782,10.353-13.48C316.4,362.515,315.172,360.455,313.216,359.779Z" transform="translate(-247.918 -318.053)" fill="#9adbc4"/>
            <path id="Trazado_102097-2" data-name="Trazado 102097" d="M300.15,352.2a4.143,4.143,0,0,0-.5-.261,4.315,4.315,0,0,0-.565-.21c-8-2.3-5.327,11.716-4.859,15.43.875,6.9,1.469,14.746,3.136,21.755l6.411.029.051-10.291C303.847,373.364,306.011,355.8,300.15,352.2Z" transform="translate(-253.953 -327.773)" fill="#9adbc4"/>
            <path id="Trazado_102098-2" data-name="Trazado 102098" d="M300.586,377.614c-.764-8.63-1.009-21.346-6.95-28.272a5.9,5.9,0,0,0-3.191-2.246,2.26,2.26,0,0,0-.559-.011c-1.561.155-2.513,2.14-2.522,4.987a64.118,64.118,0,0,0,2.135,15.848c1.435,5.9,3.266,11.727,4.708,17.6.676,2.719,1.047,6.078,1.8,8.922l5.936.029C301.8,388.934,301.067,383.071,300.586,377.614Z" transform="translate(-261.272 -333.099)" fill="#9adbc4"/>
            <path id="Trazado_102099-2" data-name="Trazado 102099" d="M297.892,388.678l-.541-.007c-2.1-12.257-3.09-24.99-.066-36.982a4.145,4.145,0,0,1,.5.261C294.818,363.86,295.805,376.5,297.892,388.678Z" transform="translate(-251.589 -327.52)" fill="#fff"/>
            <path id="Trazado_102100-2" data-name="Trazado 102100" d="M312.166,359.719c-1.407,1.449-2.723,2.972-3.969,4.529-3.544,4.459-6.877,9.58-8.343,15.178l-.57-.007c1.44-5.669,4.8-10.907,8.423-15.366,1.246-1.533,2.562-3.037,3.944-4.481A5.091,5.091,0,0,1,312.166,359.719Z" transform="translate(-246.868 -317.993)" fill="#fff"/>
            <path id="Trazado_102101-2" data-name="Trazado 102101" d="M297.931,394.457l-.552,0c-2.3-15.918-4.8-31.794-8.873-47.37a2.26,2.26,0,0,1,.559.011C293.141,362.663,295.646,378.539,297.931,394.457Z" transform="translate(-259.892 -333.099)" fill="#fff"/>
            <path id="Trazado_102102-2" data-name="Trazado 102102" d="M301.138,402.27l-.545,0a230.146,230.146,0,0,0-4.6-24.043c-3.295-13.083-8.01-26.055-15.68-37.227a1.6,1.6,0,0,1,.428-.205c7.626,11.049,12.394,23.919,15.664,36.867A236.213,236.213,0,0,1,301.138,402.27Z" transform="translate(-269.79 -340.691)" fill="#fff"/>
            <path id="Trazado_102103-2" data-name="Trazado 102103" d="M301.351,391.017l-.583,0c-8.165-27.484-19.048-36.929-25.169-40.169a2.832,2.832,0,0,1,.192-.565,28.657,28.657,0,0,1,6.385,4.624C287.628,360,295.234,370.36,301.351,391.017Z" transform="translate(-275.489 -329.222)" fill="#fff"/>
          </g>
          <path id="Trazado_102104-2" data-name="Trazado 102104" d="M349.186,388.558c1.63-2.317,4.664-6.025,1.014-8.4-3.03-1.972-7.5.731-9.768,2.462,1.784-3.635,11.961-9.845,6.309-14.723-2.765-2.387-11.592-.579-14.933.015-2.931.526-6.495,1.418-8.5,3.752a3.053,3.053,0,0,0-1.915-3.915c-2.343-.81-5.165,2.133-6.683,3.514.8-6.853-5.711-8.076-7.319-1.391-1-1.941-.261-8.246-3.127-8.712-3.244-.532-5.693,6-5.479,8.564-2.551-3.84-5.852-14.876-11.563-14.825-6.475.051-5.263,11.113-3.684,14.938-.97-1.458-4.662-6.672-7.612-4.819-3.118,1.968.314,8.759,1.8,11.141-1.363-1.811-2.478-4.432-4.465-5.7-1.193-.757-5.472-2.354-6.749-.685-1.632,2.133,3.474,8.114,6.513,12.749-3.271-1.493-7.241-3.783-11.009,1.014-1.842,2.334-1.868,4.465-.91,6.287l93.082.442C354.715,387.251,353.781,386.107,349.186,388.558Z" transform="translate(-260.476 -323.64)" fill="#81c9b1"/>
        </g>
      </g>
      <g id="Grupo_69631" data-name="Grupo 69631" transform="translate(250.524 275.752)">
        <path id="Trazado_102108" data-name="Trazado 102108" d="M272.331,298.887a3.546,3.546,0,0,1-1.661.381c-.935-.156-1.005-1.518-.013-1.29-.76-1.6,1.442-.572,1.886.113a2.642,2.642,0,0,1-.212-1.678c.3-.682.887-.424.955.262.407-.335,1.7-1.158,1.386.03-.112.465-.952,1.1-1.318,1.4.554-.149,1.613-.589,2.143-.1.461.483-.085.872-.665.918,1.061.914-.5.966-1.13.5.37.374.818.991.468,1.466-.279.413-1.156.4-.965-.193-.68.745-1.338.175-.717-.647-.256.212-.522.864-.87.966-.416.095-.794-.214-.479-.654-1.135.193-1.141-.786-.132-1.063a6.981,6.981,0,0,0,1.457-.4Z" transform="translate(-233.855 -258.358)" fill="#e8ca4d"/>
        <path id="Trazado_102109" data-name="Trazado 102109" d="M269.6,298.347a4.793,4.793,0,0,1-2.251.515c-1.264-.21-1.362-2.054-.015-1.741-1.031-2.163,1.953-.777,2.552.152A3.593,3.593,0,0,1,269.6,295c.407-.925,1.2-.574,1.3.353.548-.452,2.3-1.569,1.877.043-.152.628-1.292,1.481-1.786,1.89.751-.2,2.184-.8,2.9-.134.623.658-.113,1.184-.9,1.245,1.439,1.238-.678,1.307-1.533.678.5.505,1.108,1.344.634,1.987-.375.558-1.563.537-1.3-.266-.922,1.013-1.812.24-.972-.872-.348.288-.706,1.169-1.178,1.31-.563.128-1.072-.29-.65-.888-1.537.266-1.546-1.067-.178-1.44a9.335,9.335,0,0,0,1.976-.545Z" transform="translate(-236.929 -259.694)" fill="#e8ca4d"/>
        <g id="Grupo_69630" data-name="Grupo 69630">
          <g id="Grupo_69626" data-name="Grupo 69626" transform="translate(0.505 125.74)">
            <path id="Trazado_102110" data-name="Trazado 102110" d="M264.655,343.409s-4.209,40.285-.3,46.9h-7.817s-9.32-28.862-4.209-46.3Z" transform="translate(-250.796 -343.409)" fill="#ff8f67"/>
            <path id="Trazado_102111" data-name="Trazado 102111" d="M252.2,375.824c.13,1.325,1.708,2.323,3.027,2.323h19.724c1.334,0,2.249-.721,2.031-1.611s-1.457-1.589-2.765-1.782a14.976,14.976,0,0,1-3.282-.842,19.574,19.574,0,0,1-8.949-7.092,14.4,14.4,0,0,1-.816-1.3l-5.208,1.6a19.294,19.294,0,0,0-1.37,1.622,11.483,11.483,0,0,0-2.3,4.882A7.671,7.671,0,0,0,252.2,375.824Z" transform="translate(-249.626 -324.426)" fill="#ff8f67"/>
            <path id="Trazado_102112" data-name="Trazado 102112" d="M252.2,372.081c.13,1.325,1.708,2.323,3.027,2.323h19.724c1.334,0,2.249-.721,2.031-1.611s-1.457-1.589-2.765-1.782a14.976,14.976,0,0,1-3.282-.842c-3.825,1.325-9.824,2.033-18.641-.286A7.671,7.671,0,0,0,252.2,372.081Z" transform="translate(-249.626 -320.682)" fill="#7a8ecb"/>
            <path id="Trazado_102113" data-name="Trazado 102113" d="M259.307,373.462a.3.3,0,0,1-.292-.227c-.037-.151-3.812-15.188-3.213-24.744a.291.291,0,0,1,.32-.281.3.3,0,0,1,.281.318c-.593,9.462,3.158,24.409,3.2,24.558a.3.3,0,0,1-.217.366A.337.337,0,0,1,259.307,373.462Z" transform="translate(-246.554 -339.29)" fill="#fff"/>
          </g>
          <g id="Grupo_69627" data-name="Grupo 69627" transform="translate(11.128 126.139)">
            <path id="Trazado_102114" data-name="Trazado 102114" d="M270.369,343.624s-4.209,40.285-.3,46.9h-7.815s-9.32-28.857-4.211-46.295Z" transform="translate(-256.512 -343.624)" fill="#ff8f67"/>
            <path id="Trazado_102115" data-name="Trazado 102115" d="M257.915,376.042c.132,1.321,1.706,2.319,3.029,2.319h19.722c1.334,0,2.249-.721,2.031-1.611s-1.455-1.585-2.765-1.779a15.374,15.374,0,0,1-3.282-.842,19.577,19.577,0,0,1-8.949-7.1,14.559,14.559,0,0,1-.816-1.3l-5.208,1.6a19.245,19.245,0,0,0-1.37,1.622,11.525,11.525,0,0,0-2.3,4.882A7.692,7.692,0,0,0,257.915,376.042Z" transform="translate(-255.342 -324.64)" fill="#ff8f67"/>
            <path id="Trazado_102116" data-name="Trazado 102116" d="M257.915,372.3c.132,1.321,1.706,2.319,3.029,2.319h19.722c1.334,0,2.249-.721,2.031-1.611s-1.455-1.585-2.765-1.779a15.374,15.374,0,0,1-3.282-.842c-3.825,1.321-9.826,2.033-18.641-.29A7.692,7.692,0,0,0,257.915,372.3Z" transform="translate(-255.342 -320.897)" fill="#7a8ecb"/>
          </g>
          <path id="Trazado_102117" data-name="Trazado 102117" d="M278.013,318.225s3.609,33.267.4,59.724H250.756s-1.6-44.9,3.609-63.334Z" transform="translate(-250.524 -242.388)" fill="#4d3c4b"/>
          <path id="Trazado_102118" data-name="Trazado 102118" d="M279.976,294A5.054,5.054,0,0,0,279.3,296c-.045.277-.08.559-.11.846-.216,1.9-.277,3.949-1.652,4.722a3.582,3.582,0,0,1-2.674.041,6.2,6.2,0,0,0-2.689-.44c-1.734.3-3.4,3.762-4.393,5.105-.914,1.227-1.823,2.461-2.734,3.691l-7.5-6.882c4.906-9.352,1.128-12.461,1.128-12.461l-2.234-2.219c-.747-2.942.032-6.41,4.9-9.688,0,0,8.289-7.194,16.423,2.855a7.753,7.753,0,0,1,1.5,5c-.019,1.522-.554,2.933.559,4.228.442.513,1.418.7,1.5,1.526C281.422,293.278,280.424,293.338,279.976,294Z" transform="translate(-245.657 -275.346)" fill="#ff8f67"/>
          <path id="Trazado_102119" data-name="Trazado 102119" d="M250.543,358.443s4.748-.587,11.432-4.828A82.214,82.214,0,0,0,274.9,343.456c2.024-1.964,4.178-3.057,5.191-5.925,1.26-3.561,1.059-7.553,1.543-11.19.966-7.289.578-13.58-2.741-20.248-1.572-3.195-2.8-7.525-4.828-10.374-1.184-1.667-7.447-5.873-9.517-5.7,0,0-9.423.781-10.528,26.948Z" transform="translate(-250.508 -263.51)" fill="#7a8ecb"/>
          <path id="Trazado_102120" data-name="Trazado 102120" d="M281.73,283.336a1.959,1.959,0,0,1-1.561,1.818c-.864.312-1.8.368-2.661.682a5.584,5.584,0,0,0-3.418,4.973,5.2,5.2,0,0,1-.405-1.132,1.617,1.617,0,0,0-.663-.972c-1.632-.918-2.037,2.721-1.411,3.63.44.636,1.212,1.162,1.169,1.935a2.2,2.2,0,0,1-.379.953c-1.16,2.018-.9,2.938-.509,4.962a3.1,3.1,0,0,1-.578,2.578c-.158.2-2.306,1.71-2.44,1.005a3.012,3.012,0,0,1-1.658,3.1,4.2,4.2,0,0,1-3.641-.08,15.424,15.424,0,0,0-2.474-1.273,12.211,12.211,0,0,0-3.158-.011,5.972,5.972,0,0,1-5.1-2.832,5.2,5.2,0,0,1,.348-5.724c1.11-1.383,2.948-2.1,3.847-3.619,1.608-2.726-.123-6.174,1.152-9.055a15.537,15.537,0,0,1,6.4-6.694,14.021,14.021,0,0,1,7.44-1.821,10.157,10.157,0,0,1,6.127,2.249C279.425,279.04,281.771,281.5,281.73,283.336Z" transform="translate(-249.126 -275.752)" fill="#a86060"/>
          <path id="Trazado_102121" data-name="Trazado 102121" d="M267.616,291.724a.313.313,0,0,1-.082-.013c-.158-.063-3.908-1.541-4.75-4.367a.225.225,0,0,1,.151-.277.231.231,0,0,1,.279.151c.779,2.617,4.446,4.061,4.483,4.076a.223.223,0,0,1-.08.431Z" transform="translate(-240.006 -266.044)" fill="#9f6464"/>
          <g id="Grupo_69629" data-name="Grupo 69629" transform="translate(30.414 11.488)">
            <g id="Grupo_69628" data-name="Grupo 69628">
              <path id="Trazado_102122" data-name="Trazado 102122" d="M269.751,283.235a.631.631,0,0,1-.284.028,2.657,2.657,0,0,0-1.572.335.658.658,0,0,1-.7-1.117,4.019,4.019,0,0,1,2.433-.52.656.656,0,0,1,.119,1.275Z" transform="translate(-266.889 -281.933)" fill="#aa5f5f"/>
            </g>
          </g>
          <path id="Trazado_102123" data-name="Trazado 102123" d="M267.548,287.48a.193.193,0,0,1-.19-.151.2.2,0,0,1,.147-.234c1.316-.3,1.767,0,1.814.035a.2.2,0,0,1,.041.271.2.2,0,0,1-.268.045c-.017-.009-.4-.225-1.5.03Z" transform="translate(-236.076 -266.126)" fill="#aa5f5f"/>
        </g>
        <path id="Trazado_102124" data-name="Trazado 102124" d="M267.358,301.725a8.267,8.267,0,0,1,1.511,2.284c.052-.216.106-.429.175-.624-.294-1.877-1.132-3.645-1.282-5.468a8.934,8.934,0,0,1,2.091,2.607,30.737,30.737,0,0,1,.1-4.607c.981.091,1.587,1.136,1.9,2.381.2-.134.58-.381.678-.42.121.294.533.587.647,1.005.184-.11.346-.288.55-.4.084.171.461.61.6.8.418-.264.981-.318,1.386-.717-.227.831-.729,1.73-.58,2.342l-1.639,3.767a9.727,9.727,0,0,1,.136,1.578c0,2.8-1.126,5.076-2.516,5.076-1.308,0-2.371-2.018-2.494-4.589A18.378,18.378,0,0,1,267.358,301.725Z" transform="translate(-236.072 -258.441)" fill="#81c9b1"/>
        <path id="Trazado_102125" data-name="Trazado 102125" d="M271.807,305.558c-.255,2.877.39,5.877.16,8.817a3.7,3.7,0,0,1-.8-2.4,7.941,7.941,0,0,0-1,1.539,7.328,7.328,0,0,0,1.245-4.327c-.507,1.429-.909,2.925-1.466,4.323-.045-.2-.125-.479-.178-.712a1.754,1.754,0,0,0-1.334,1.162c-.348-2.174.833-5,2.163-6.6Z" transform="translate(-235.197 -250.164)" fill="#81c9b1"/>
        <path id="Trazado_102126" data-name="Trazado 102126" d="M262.328,296.951c2.481,2.2,3.208,5.823,4.18,9,1.7,5.533,2.537,11.192,3.938,16.791l16.537-15.931s3.907-.716,3.8-.266c-.074.307-5.81,11.519-6.157,12.056-2.9,4.505-10.766,19.286-17.962,14.955-2.489-1.5-4.617-6.183-5.962-8.6A87.521,87.521,0,0,1,256,315.7a34.835,34.835,0,0,1-2.676-9.659c-.258-2.974-.284-6.94,2.074-9.155A5.168,5.168,0,0,1,262.328,296.951Z" transform="translate(-248.219 -258.728)" fill="#ff8f67"/>
        <path id="Trazado_102127" data-name="Trazado 102127" d="M269.577,309.848c.946-1.82.1-1.535-.418-3.039-.381-1.1.472-2.178.418-3.423-.035-.758-1.212-3.321-.3-3.462.944-.149,1.468,1.909,1.8,2.429,1.026-.647.786-2.1.725-3.148-.63-.4-1.944-.058-2.081-.781-.177-.939,1.07-.972,1.622-1.085,1.953-.4,3.654-.515,3.788,1.8.1-.591.175-1.176.329-1.734,1.013.009.955,1.466.879,2.252-.162-.693.03-1.847.94-.929a5.908,5.908,0,0,1,.563,2.44,8.713,8.713,0,0,1-.712,4.97,57.582,57.582,0,0,1-4.289,7.3c-.641-.556-2.922-2.992-3.418-2.535Z" transform="translate(-234.722 -257.413)" fill="#ff8f67"/>
        <path id="Trazado_102128" data-name="Trazado 102128" d="M268.583,301.671a3.544,3.544,0,0,1-1.661.385c-.935-.16-1.005-1.522-.011-1.29-.762-1.6,1.442-.572,1.884.113a2.667,2.667,0,0,1-.212-1.676c.3-.684.888-.426.957.26.405-.333,1.7-1.158,1.386.03-.112.465-.953,1.1-1.32,1.4.556-.149,1.613-.589,2.145-.1.459.483-.085.872-.667.918,1.063.914-.5.966-1.132.5.372.374.82.991.47,1.466-.277.413-1.154.4-.963-.2-.682.749-1.338.178-.719-.641-.255.21-.522.864-.868.965-.418.095-.794-.21-.479-.652-1.137.191-1.145-.788-.136-1.065a7.073,7.073,0,0,0,1.461-.4Z" transform="translate(-237.073 -255.965)" fill="#e8ca4d"/>
        <path id="Trazado_102129" data-name="Trazado 102129" d="M268.337,284.57a1.748,1.748,0,0,1-1.2-.513.181.181,0,0,1-.011-.255.173.173,0,0,1,.255-.009,1.258,1.258,0,0,0,1.511.281.18.18,0,0,1,.193.3A1.517,1.517,0,0,1,268.337,284.57Z" transform="translate(-236.312 -268.892)" fill="#aa5f5f"/>
      </g>
      <g id="Grupo_69642" data-name="Grupo 69642" transform="translate(382.256 346.527)">
        <path id="Trazado_102130" data-name="Trazado 102130" d="M348.686,332.156s-2.89,3.511-8.672,26.227l-2.067,4.542-12.182,24.985,7.021.621,15.279-26.019,9.913-17.347Z" transform="translate(-317.662 -298.105)" fill="#ff8f67"/>
        <path id="Trazado_102131" data-name="Trazado 102131" d="M361.514,332.267s13.678,3.819-5.062,32.317l-6.659-10.376Z" transform="translate(-297.035 -298.01)" fill="#ff8f67"/>
        <g id="Grupo_69636" data-name="Grupo 69636" transform="translate(30.253 3.662)">
          <g id="Grupo_69635" data-name="Grupo 69635">
            <path id="Trazado_102132" data-name="Trazado 102132" d="M352.976,331.8a11.521,11.521,0,0,1-.578-2.959c-.069-.8-.08-4.971-1.76-4.31-2.05.808-1.515,4.087-3.778,4.908-.381.137-.838.288-1.262.476-.92.411-1.689,1.02-1.217,2.186s1.706,2.806,1.067,4.131c-.485,1.013-1.673,1.022-2.659,1.18-3.594.576-1.078,3.529.232,5.6,1.767,2.8,6.254,7.094,9.913,5.035a18.6,18.6,0,0,0,6.453-6.821c1.2-1.927,3.919-5.481.647-6.834-1.758-.727-3.927-.11-5.587-.792A2.913,2.913,0,0,1,352.976,331.8Z" transform="translate(-334.892 -308.371)" fill="#ff8f67"/>
            <g id="Grupo_69634" data-name="Grupo 69634">
              <path id="Trazado_102133" data-name="Trazado 102133" d="M338.74,333.148a11.788,11.788,0,0,0,.134-2.909c-.26-2.115-1.485-3.908-1.124-6.256.5-3.282,2-5.116,4.761-6.8a9.053,9.053,0,0,1,12.723,3.273c3.6,6.217-.093,17.139-6.611,19.854-2.818,1.176-5.408,1.494-7.3-1.364-.643-.974-1.461-1.745-2.044-2.806A4.7,4.7,0,0,1,338.74,333.148Z" transform="translate(-337.684 -315.805)" fill="#ff8f67"/>
              <path id="Trazado_102134" data-name="Trazado 102134" d="M343.967,331.851a.229.229,0,0,1-.208-.136.232.232,0,0,1,.111-.308,8.417,8.417,0,0,0,4.117-6.042.22.22,0,0,1,.27-.184.231.231,0,0,1,.186.268,8.739,8.739,0,0,1-4.377,6.38A.238.238,0,0,1,343.967,331.851Z" transform="translate(-332.487 -307.763)" fill="#9f6464"/>
              <g id="Grupo_69632" data-name="Grupo 69632" transform="translate(7.281 11.748)">
                <path id="Trazado_102135" data-name="Trazado 102135" d="M342.054,323.3a.573.573,0,0,0,.236-.015,2.235,2.235,0,0,1,1.336.1.549.549,0,0,0,.457-1,3.353,3.353,0,0,0-2.076-.16.544.544,0,0,0-.388.667A.552.552,0,0,0,342.054,323.3Z" transform="translate(-341.601 -322.126)" fill="#a86060"/>
              </g>
              <g id="Grupo_69633" data-name="Grupo 69633" transform="translate(1.034 12.353)">
                <path id="Trazado_102136" data-name="Trazado 102136" d="M338.816,323.831a.408.408,0,0,0,.219-.067,2.182,2.182,0,0,1,1.307-.206.543.543,0,1,0,.206-1.067,3.326,3.326,0,0,0-2.024.323.541.541,0,0,0,.292,1.017Z" transform="translate(-338.24 -322.452)" fill="#a86060"/>
              </g>
              <path id="Trazado_102137" data-name="Trazado 102137" d="M341.336,328a1.309,1.309,0,0,1-.808-.253c-.587-.44-.377-1.2-.206-1.816a3.7,3.7,0,0,0,.132-.591l.007-.095a2.564,2.564,0,0,0-.073-1.279.244.244,0,0,1,.411-.262,2.734,2.734,0,0,1,.147,1.591l-.007.091a4.084,4.084,0,0,1-.149.673c-.171.619-.268,1.074.032,1.3.322.243.848.2,1.613-.141a.243.243,0,1,1,.2.446A3.368,3.368,0,0,1,341.336,328Z" transform="translate(-335.574 -309.119)" fill="#9f6464"/>
            </g>
          </g>
        </g>
        <path id="Trazado_102138" data-name="Trazado 102138" d="M338.443,320.4a5.5,5.5,0,0,0,.587,2.8c.461.836,1.531.981,2.435,1.054,2.831.225,5.241.877,7.073,3.2,1.727,2.189,2.529,5,3.185,7.655.894,3.637,1.689,7.072,5.079,9.032,2.89,1.673,6.4,2.264,9.521,3.234a6.314,6.314,0,0,0-1.829-2.476,8.705,8.705,0,0,1,2.12,1.676,13.953,13.953,0,0,0-.8-1.457c.985.665,1.894,1.777,3.068,1.831-.721-3.771-3.552-6.3-4.641-9.948a31.656,31.656,0,0,1-.94-5.951c-.52-5.265-2.2-9.989-6.126-13.69a12.573,12.573,0,0,0-6.4-3.343,14.035,14.035,0,0,0-10.03,2.282A5.3,5.3,0,0,0,338.443,320.4Z" transform="translate(-306.785 -313.834)" fill="#a86060"/>
        <path id="Trazado_102139" data-name="Trazado 102139" d="M341.252,321.168a18.409,18.409,0,0,0-1.6,2.8,3.557,3.557,0,0,0-.57,2.708c.141.786.388,1.583.543,2.381a4.056,4.056,0,0,1-1.005,3.369c-.02-.45.089-.939.022-1.414a6.908,6.908,0,0,1-.264-1.359,2.421,2.421,0,0,1-.453,1.314c-.1-.273.028-.465.037-.717a6.3,6.3,0,0,0-.348-1.873c-.275-1-.714-1.951-.95-2.948a11.047,11.047,0,0,1,.574-5.616,5.436,5.436,0,0,1,3.771-3.9c1.039-.385,1.951-.372,2.152.946a5.783,5.783,0,0,1-.756,3.36,4.646,4.646,0,0,1-1.307,1.435Z" transform="translate(-308.457 -312.24)" fill="#a86060"/>
        <path id="Trazado_102140" data-name="Trazado 102140" d="M340.6,327.591a.232.232,0,0,1-.1-.44,5.17,5.17,0,0,1,3.784-.277.231.231,0,0,1,.115.3.229.229,0,0,1-.3.117,4.835,4.835,0,0,0-3.4.271A.209.209,0,0,1,340.6,327.591Z" transform="translate(-305.127 -302.874)" fill="#9f6464"/>
        <path id="Trazado_102141" data-name="Trazado 102141" d="M343.111,324.334a3.029,3.029,0,0,1-1.266-.282.222.222,0,0,1-.1-.3.22.22,0,0,1,.3-.1,2.311,2.311,0,0,0,2.251-.136.223.223,0,0,1,.309.054.219.219,0,0,1-.054.308A2.459,2.459,0,0,1,343.111,324.334Z" transform="translate(-303.961 -305.553)" fill="#9f6464"/>
        <path id="Trazado_102142" data-name="Trazado 102142" d="M339.816,324.777a3.015,3.015,0,0,1-1.266-.284.222.222,0,0,1-.1-.3.219.219,0,0,1,.3-.1,2.309,2.309,0,0,0,2.251-.138.224.224,0,0,1,.309.056.218.218,0,0,1-.054.309A2.472,2.472,0,0,1,339.816,324.777Z" transform="translate(-306.789 -305.174)" fill="#9f6464"/>
        <g id="Grupo_69641" data-name="Grupo 69641" transform="translate(0 84.022)">
          <g id="Grupo_69638" data-name="Grupo 69638">
            <g id="Grupo_69637" data-name="Grupo 69637">
              <path id="Trazado_102143" data-name="Trazado 102143" d="M394.252,382.026a24.069,24.069,0,0,1-5.482.823,19.861,19.861,0,0,1-5.209-.55c-.831-.2-2.485-.322-3.661-.682-7.01,1.539-34.808,7.114-52.562,3.345-15.8-6.969,4.957-25.4,4.957-25.4a50.484,50.484,0,0,1,23.954,2.477c-1.976,3.916-5.719,6.65-8.568,9.705a17.65,17.65,0,0,1,6.142,1.135s15.37,3.99,24.458,3.016c1.059-.364,1.946-1.652,2.817-2.7a5.467,5.467,0,0,1,1.258-1.214c2.673-1.622,3.267,1.678,4.574,3.265a14.582,14.582,0,0,0,5.613,3.866c.794.346,3.247.472,3.685,1.2C397.029,381.654,395.07,381.81,394.252,382.026Z" transform="translate(-321.405 -359.044)" fill="#ff8f67"/>
              <path id="Trazado_102144" data-name="Trazado 102144" d="M341.862,366.5a.132.132,0,0,1-.037,0,29.193,29.193,0,0,0-11.183-.169.147.147,0,0,1-.175-.128.152.152,0,0,1,.128-.177,29.472,29.472,0,0,1,11.3.173.157.157,0,0,1,.115.188A.153.153,0,0,1,341.862,366.5Z" transform="translate(-313.627 -353.442)" fill="#fff"/>
            </g>
            <path id="Trazado_102145" data-name="Trazado 102145" d="M366.678,376.25a24.069,24.069,0,0,1-5.482.823l-.024-.054a46.7,46.7,0,0,0-2.375-5.657,8.517,8.517,0,0,0-5.273-3.94,5.467,5.467,0,0,1,1.258-1.214c2.673-1.622,3.267,1.678,4.574,3.265a14.582,14.582,0,0,0,5.613,3.866c.794.346,3.247.472,3.685,1.2C369.455,375.879,367.5,376.035,366.678,376.25Z" transform="translate(-293.832 -353.269)" fill="#7a8ecb"/>
          </g>
          <g id="Grupo_69640" data-name="Grupo 69640" transform="translate(26.123)">
            <g id="Grupo_69639" data-name="Grupo 69639" transform="translate(0.104)">
              <path id="Trazado_102146" data-name="Trazado 102146" d="M408.362,382.026a24.024,24.024,0,0,1-5.481.823,19.884,19.884,0,0,1-5.211-.55c-.829-.2-2.485-.322-3.661-.682-7,1.539-34.8,7.114-52.56,3.345-15.8-6.969,4.955-25.4,4.955-25.4,12.7-2.015,20.135,2.477,20.135,2.477a41.325,41.325,0,0,1-6.759,9.473,30.308,30.308,0,0,1,8.153,1.368s15.37,3.99,24.46,3.016c1.059-.364,1.944-1.652,2.819-2.7a5.38,5.38,0,0,1,1.255-1.214c2.672-1.622,3.267,1.678,4.574,3.265a14.6,14.6,0,0,0,5.613,3.866c.8.346,3.249.472,3.685,1.2C411.139,381.654,409.182,381.81,408.362,382.026Z" transform="translate(-335.517 -359.044)" fill="#ff8f67"/>
              <path id="Trazado_102147" data-name="Trazado 102147" d="M355.973,366.5a.133.133,0,0,1-.037,0,29.178,29.178,0,0,0-11.181-.169.148.148,0,0,1-.177-.128.154.154,0,0,1,.128-.177,29.432,29.432,0,0,1,11.3.173.156.156,0,0,1,.115.188A.153.153,0,0,1,355.973,366.5Z" transform="translate(-327.739 -353.442)" fill="#fff"/>
            </g>
            <path id="Trazado_102148" data-name="Trazado 102148" d="M380.788,376.25a24.024,24.024,0,0,1-5.481.823c-.006-.017-.019-.035-.026-.054a46.367,46.367,0,0,0-2.371-5.657,8.517,8.517,0,0,0-5.273-3.94,5.38,5.38,0,0,1,1.255-1.214c2.672-1.622,3.267,1.678,4.574,3.265a14.6,14.6,0,0,0,5.613,3.866c.8.346,3.249.472,3.685,1.2C383.564,375.879,381.607,376.035,380.788,376.25Z" transform="translate(-307.839 -353.269)" fill="#7a8ecb"/>
            <path id="Trazado_102149" data-name="Trazado 102149" d="M340.724,383.673a.15.15,0,0,1-.05-.007c-4.066-1.405-5.1-6.313-5.111-6.362-1.188-6.46,8.408-16.643,8.817-17.072a.155.155,0,0,1,.225.214c-.1.1-9.9,10.5-8.737,16.8.009.045,1.011,4.78,4.906,6.127a.154.154,0,0,1-.05.3Z" transform="translate(-335.461 -358.065)" fill="#fff"/>
          </g>
        </g>
        <path id="Trazado_102150" data-name="Trazado 102150" d="M373.944,365.866c-2.477-9.086,8.675-32.628,8.675-32.628-5.785-3.1-9.3-1.857-9.3-1.857-11.768,19.2-17.758,0-17.758,0l-6.4,1.65c-2.827,10.93-1.182,36.819-.874,41.26a24.814,24.814,0,0,0-3.877.866s-15.178,6.04-19.2,11.926c0,0,33.761-2.169,44.914,6.351,0,0,5.867-3.191,6.72-11.539C378.378,374.261,373.944,365.866,373.944,365.866Z" transform="translate(-318.14 -298.981)" fill="#7a8ecb"/>
        <path id="Trazado_102151" data-name="Trazado 102151" d="M344.877,335.437A82.883,82.883,0,0,0,347.759,355a35.785,35.785,0,0,0,3.3,8.324c1.286,2.238,3.042,5.169,5.99,4.862,2.912-.3,4.94-3.2,6-5.694l-13.526-29.013-3.3-3.1Z" transform="translate(-301.255 -299.632)" fill="#ff8f67"/>
        <path id="Trazado_102152" data-name="Trazado 102152" d="M344.459,331.478v0Z" transform="translate(-301.614 -298.821)" fill="#ff8f67"/>
        <path id="Trazado_102153" data-name="Trazado 102153" d="M351.92,335.185c-.069-.927-.461-1.777-.468-2.711a19.173,19.173,0,0,0-.247-3.436c-.236-1.288-.221-2.8-1.455-3.587-.632-.4-1.3-.093-1.966-.333a15.7,15.7,0,0,1-1.751-1.126c-.552-.288-2.182-.814-2.935-.388-1.1.413-.794,2.5-.682,3.345.2,1.511.422,2.927-.621,4.221-.4.5-1.056.786-1.186,1.444-.128.632.3.823.453,1.344.173.595-.2,1.188-.2,1.771a2.446,2.446,0,0,0,1.188,1.859,3.306,3.306,0,0,0,1.7.557c.8.019,1.507-.47,2.327-.37.556.067,1.031.4,1.585.468.647.084.992-.225,1.563-.468.654-.277,1.769-.217,2.273-.769A2.91,2.91,0,0,0,351.92,335.185Z" transform="translate(-304.939 -305.585)" fill="#fff"/>
        <path id="Trazado_102154" data-name="Trazado 102154" d="M351.961,338.177c-.193-.474-.379-.95-.543-1.442a14.381,14.381,0,0,1-.926-2.881c-.164-1.509.2-2.979-.24-4.507-.082-.294-1.067-3.475-.745-3.518-.97.134-1.279,1.115-1.254,1.987-1.95-1.526-2.942-3.812-5.68-4.15a3.544,3.544,0,0,0,.844,2.011,8.835,8.835,0,0,0-1.147-1.085c-.02.788.411,1.463.437,2.262a3,3,0,0,0-1.056-1.8c-.383,6.1,4.951,10.675,6.033,16.379a11.423,11.423,0,0,0,2.957-.9c.79-.283,1.1-.8,1.79-1.221C352.279,338.935,352.115,338.556,351.961,338.177Z" transform="translate(-304.04 -305.394)" fill="#ff8f67"/>
        <path id="Trazado_102155" data-name="Trazado 102155" d="M350.376,338.862a.152.152,0,0,1-.141-.091L346.6,330.33a.154.154,0,1,1,.282-.123l3.637,8.439a.154.154,0,0,1-.08.2A.178.178,0,0,1,350.376,338.862Z" transform="translate(-299.789 -299.859)" fill="#fff"/>
        <path id="Trazado_102156" data-name="Trazado 102156" d="M345.926,339.953a.152.152,0,0,1-.154-.152,22.485,22.485,0,0,0-1.743-8.659.155.155,0,0,1,.072-.206.153.153,0,0,1,.208.073,22.783,22.783,0,0,1,1.771,8.789.153.153,0,0,1-.152.156Z" transform="translate(-301.996 -299.167)" fill="#fff"/>
      </g>
    </g>
    <g id="Grupo_69617" data-name="Grupo 69617" transform="translate(615.727 4799.114)">
      <path id="Trazado_101975" data-name="Trazado 101975" d="M384.75,331.3h0a23.923,23.923,0,0,0-23.924,23.922V402.8h47.846V355.226A23.922,23.922,0,0,0,384.75,331.3Z" transform="translate(6.758 0.698)" fill="#817e77" stroke="#313340" stroke-linecap="round" stroke-linejoin="round" stroke-width="1"/>
      <g id="Grupo_69608" data-name="Grupo 69608" transform="translate(361.433 403.496)">
        <rect id="Rectángulo_5472" data-name="Rectángulo 5472" width="68.077" height="12.713" fill="#817e77" stroke="#313340" stroke-linecap="round" stroke-linejoin="round" stroke-width="1"/>
        <path id="Trazado_101976" data-name="Trazado 101976" d="M365.16,374.887h54.886V387.6H365.16" transform="translate(-351.9 -374.887)" fill="#a7a29c" stroke="#313340" stroke-linecap="round" stroke-linejoin="round" stroke-width="1"/>
        <path id="Trazado_101977" data-name="Trazado 101977" d="M372.451,374.887h42.856V387.6H372.451" transform="translate(-347.23 -374.887)" fill="#d6d1cb" stroke="#313340" stroke-linecap="round" stroke-linejoin="round" stroke-width="1"/>
        <path id="Trazado_101978" data-name="Trazado 101978" d="M393.452,374.887h8.474V387.6h-8.474" transform="translate(-333.781 -374.887)" fill="#fff" stroke="#313340" stroke-linecap="round" stroke-linejoin="round" stroke-width="1"/>
      </g>
      <line id="Línea_141" data-name="Línea 141" y1="12.713" transform="translate(390.755 348.952)" fill="#817e77" stroke="#313340" stroke-linecap="round" stroke-linejoin="round" stroke-width="1"/>
      <path id="Trazado_101979" data-name="Trazado 101979" d="M389.082,331.3h0a23.922,23.922,0,0,0-23.922,23.922V402.8H413V355.226A23.922,23.922,0,0,0,389.082,331.3Z" transform="translate(9.533 0.698)" fill="#d6d1cb" stroke="#313340" stroke-linecap="round" stroke-linejoin="round" stroke-width="1"/>
      <path id="Trazado_101980" data-name="Trazado 101980" d="M387.076,401.547h11.962V353.975a23.911,23.911,0,0,0-11.952-20.717" transform="translate(23.569 1.949)" fill="#fff" stroke="#313340" stroke-linecap="round" stroke-linejoin="round" stroke-width="1"/>
      <path id="Trazado_101981" data-name="Trazado 101981" d="M401.761,351.678a23.911,23.911,0,0,0-11.952-20.717" transform="translate(25.319 0.478)" fill="none" stroke="#313340" stroke-linecap="round" stroke-linejoin="round" stroke-width="1"/>
      <path id="Trazado_101982" data-name="Trazado 101982" d="M389.082,331.3a23.922,23.922,0,0,0-23.922,23.922V402.8h23.922" transform="translate(9.533 0.698)" fill="#a7a29c" stroke="#313340" stroke-linecap="round" stroke-linejoin="round" stroke-width="1"/>
      <line id="Línea_142" data-name="Línea 142" y2="12.713" transform="translate(374.693 403.496)" fill="none" stroke="#313340" stroke-linecap="round" stroke-linejoin="round" stroke-width="1"/>
      <rect id="Rectángulo_5473" data-name="Rectángulo 5473" width="32.603" height="14.764" transform="translate(382.314 351.002)" fill="#a7a29c" stroke="#313340" stroke-linecap="round" stroke-linejoin="round" stroke-width="1"/>
      <rect id="Rectángulo_5474" data-name="Rectángulo 5474" width="22.795" height="1.461" transform="translate(387.218 353.604)" fill="#fff"/>
      <rect id="Rectángulo_5475" data-name="Rectángulo 5475" width="22.795" height="1.461" transform="translate(387.218 356.475)" fill="#fff"/>
      <rect id="Rectángulo_5476" data-name="Rectángulo 5476" width="5.519" height="1.461" transform="translate(387.218 361.665)" fill="#fff"/>
      <rect id="Rectángulo_5477" data-name="Rectángulo 5477" width="5.519" height="1.461" transform="translate(395.856 361.665)" fill="#fff"/>
      <rect id="Rectángulo_5478" data-name="Rectángulo 5478" width="5.519" height="1.461" transform="translate(404.494 361.665)" fill="#fff"/>
      <g id="Grupo_69616" data-name="Grupo 69616" transform="translate(350.274 330.214)">
        <path id="Trazado_101983" data-name="Trazado 101983" d="M364.865,343.76a7.352,7.352,0,0,1,10.3,1.4,5.881,5.881,0,0,1-1.119,8.243,4.7,4.7,0,0,1-6.593-.9,3.763,3.763,0,0,1,.715-5.274" transform="translate(-340.929 -322.501)" fill="none" stroke="#313340" stroke-linecap="round" stroke-linejoin="round" stroke-width="1"/>
        <path id="Trazado_101984" data-name="Trazado 101984" d="M360.073,340.639a5.574,5.574,0,0,1,4.9-6.175,4.459,4.459,0,0,1,4.938,3.921,3.564,3.564,0,0,1-3.135,3.95,2.853,2.853,0,0,1-3.161-2.508" transform="translate(-344.021 -327.511)" fill="none" stroke="#313340" stroke-linecap="round" stroke-linejoin="round" stroke-width="1"/>
        <path id="Trazado_101985" data-name="Trazado 101985" d="M364.028,337.509a4.23,4.23,0,0,0,.917-5.909,3.384,3.384,0,0,0-4.728-.733,2.706,2.706,0,0,0-.586,3.781,2.165,2.165,0,0,0,3.025.469" transform="translate(-344.615 -330.214)" fill="none" stroke="#313340" stroke-linecap="round" stroke-linejoin="round" stroke-width="1"/>
        <path id="Trazado_101986" data-name="Trazado 101986" d="M362.787,352.056a5.573,5.573,0,0,1-7.871-.418,4.458,4.458,0,0,1,.336-6.3,3.565,3.565,0,0,1,5.036.267,2.854,2.854,0,0,1-.215,4.031" transform="translate(-348.032 -321.112)" fill="none" stroke="#313340" stroke-linecap="round" stroke-linejoin="round" stroke-width="1"/>
        <path id="Trazado_101987" data-name="Trazado 101987" d="M357.338,349.552a4.229,4.229,0,0,0-5.348,2.674,3.383,3.383,0,0,0,2.139,4.278,2.707,2.707,0,0,0,3.424-1.711,2.166,2.166,0,0,0-1.37-2.738" transform="translate(-349.286 -317.97)" fill="none" stroke="#313340" stroke-linecap="round" stroke-linejoin="round" stroke-width="1"/>
        <path id="Trazado_101988" data-name="Trazado 101988" d="M359.866,363.328a4.988,4.988,0,0,0-7.029-.6,3.99,3.99,0,0,0-.482,5.623,3.19,3.19,0,0,0,4.5.385,2.554,2.554,0,0,0,.31-3.6" transform="translate(-349.542 -310.145)" fill="none" stroke="#313340" stroke-linecap="round" stroke-linejoin="round" stroke-width="1"/>
        <path id="Trazado_101989" data-name="Trazado 101989" d="M354.734,364.361a3.783,3.783,0,0,1-4.409-3.033,3.025,3.025,0,0,1,2.426-3.527,2.42,2.42,0,0,1,2.822,1.941A1.936,1.936,0,0,1,354.021,362" transform="translate(-350.274 -312.574)" fill="none" stroke="#313340" stroke-linecap="round" stroke-linejoin="round" stroke-width="1"/>
        <path id="Trazado_101990" data-name="Trazado 101990" d="M357.24,391.6l1.124-1.516a36.047,36.047,0,0,0,7.078-21.45h0" transform="translate(-345.812 -305.608)" fill="none" stroke="#313340" stroke-linecap="round" stroke-linejoin="round" stroke-width="1"/>
        <g id="Grupo_69609" data-name="Grupo 69609" transform="translate(17.588 58.977)">
          <path id="Trazado_101991" data-name="Trazado 101991" d="M364.284,376.308c.131-.253.258-.53.379-.825a13.626,13.626,0,0,0,.6-1.855q.14-.551.243-1.14c.028-.162.054-.323.077-.484.075-.509.123-1.006.146-1.476a11.983,11.983,0,0,0,0-1.352,8.887,8.887,0,0,0-.154-1.229,4.1,4.1,0,0,0-.354-1.055,1.024,1.024,0,0,0-1.8-.317,4.028,4.028,0,0,0-.692.871,7.781,7.781,0,0,0-.564,1.1,12.346,12.346,0,0,0-.464,1.271c-.138.449-.262.932-.366,1.437-.033.159-.064.32-.092.484-.069.392-.123.778-.161,1.152a13.532,13.532,0,0,0-.072,1.946c.067,1.8.546,3.074,1.324,3.21a1.4,1.4,0,0,0,1.211-.613" transform="translate(-360.995 -366.167)" fill="#4cb09c" stroke="#313340" stroke-linecap="round" stroke-linejoin="round" stroke-width="1"/>
          <path id="Trazado_101992" data-name="Trazado 101992" d="M361.238,371.738c-.069.392-.123.778-.161,1.152a13.532,13.532,0,0,0-.072,1.946l1.449,2.5,2.21-1.852a13.626,13.626,0,0,0,.6-1.855q.14-.551.243-1.14c.028-.162.054-.323.077-.484.075-.509.123-1.006.146-1.476a11.983,11.983,0,0,0,0-1.352,8.887,8.887,0,0,0-.154-1.229,4.1,4.1,0,0,0-.354-1.055,1.024,1.024,0,0,0-1.8-.317,4.028,4.028,0,0,0-.692.871,7.781,7.781,0,0,0-.564,1.1,12.346,12.346,0,0,0-.464,1.271c-.138.449-.262.932-.366,1.437C361.3,371.413,361.265,371.574,361.238,371.738Z" transform="translate(-360.995 -366.167)" fill="#48b678"/>
          <path id="Trazado_101993" data-name="Trazado 101993" d="M362.3,375.047l.4.7,2.528-2.118q.14-.551.243-1.14c.028-.162.054-.323.077-.484.075-.509.123-1.006.146-1.476a11.969,11.969,0,0,0,0-1.352,8.892,8.892,0,0,0-.154-1.229,4.106,4.106,0,0,0-.354-1.055,1.024,1.024,0,0,0-1.8-.317,4.03,4.03,0,0,0-.692.871,7.788,7.788,0,0,0-.564,1.1,12.368,12.368,0,0,0-.464,1.271c-.138.449-.262.932-.366,1.437-.033.159-.064.32-.092.484-.069.392-.123.778-.161,1.152l.5.866" transform="translate(-360.964 -366.167)" fill="#4ec46e"/>
          <path id="Trazado_101994" data-name="Trazado 101994" d="M361.727,371.442" transform="translate(-360.527 -362.789)" fill="#4ec46e"/>
          <path id="Trazado_101995" data-name="Trazado 101995" d="M361.442,370.949" transform="translate(-360.709 -363.104)" fill="#4ec46e"/>
          <path id="Trazado_101996" data-name="Trazado 101996" d="M361.2,371.254l1.683,2.9L365.449,372c.076-.509.123-1.006.146-1.476a11.991,11.991,0,0,0,0-1.352,8.887,8.887,0,0,0-.154-1.229,4.109,4.109,0,0,0-.354-1.055,1.024,1.024,0,0,0-1.8-.317,4.026,4.026,0,0,0-.692.871,7.781,7.781,0,0,0-.564,1.1,12.332,12.332,0,0,0-.464,1.271C361.427,370.266,361.3,370.749,361.2,371.254Z" transform="translate(-360.865 -366.167)" fill="#62d655"/>
          <path id="Trazado_101997" data-name="Trazado 101997" d="M364.969,370.932l.484-.405a11.969,11.969,0,0,0,0-1.352,8.883,8.883,0,0,0-.154-1.229,4.108,4.108,0,0,0-.354-1.055,1.024,1.024,0,0,0-1.8-.317,4.027,4.027,0,0,0-.692.871,7.784,7.784,0,0,0-.564,1.1,12.339,12.339,0,0,0-.464,1.271l1.6,2.751,1.334-1.117" transform="translate(-360.722 -366.167)" fill="#6ae35f"/>
          <path id="Trazado_101998" data-name="Trazado 101998" d="M361.7,368.546l1.411,2.434,2.155-1.8a8.883,8.883,0,0,0-.154-1.229,4.108,4.108,0,0,0-.354-1.055,1.023,1.023,0,0,0-1.8-.317,4.026,4.026,0,0,0-.692.871A7.784,7.784,0,0,0,361.7,368.546Z" transform="translate(-360.541 -366.167)" fill="#abe36f"/>
          <path id="Trazado_101999" data-name="Trazado 101999" d="M362.835,368.8l.34.587,1.722-1.444a4.105,4.105,0,0,0-.354-1.055,1.023,1.023,0,0,0-1.8-.317,4.029,4.029,0,0,0-.692.871l.149.258" transform="translate(-360.32 -366.167)" fill="#9cffcd"/>
          <path id="Trazado_102000" data-name="Trazado 102000" d="M362.471,366.576l.712,1.227,1.089-.91a1.023,1.023,0,0,0-1.8-.317Z" transform="translate(-360.05 -366.167)" fill="#b0ffd7"/>
          <path id="Trazado_102001" data-name="Trazado 102001" d="M363.539,377.432a1.4,1.4,0,0,1-1.211.613c-.777-.136-1.257-1.414-1.324-3.21a13.532,13.532,0,0,1,.072-1.946c.038-.374.092-.76.161-1.152.028-.164.059-.325.092-.484.1-.505.228-.988.366-1.437a12.346,12.346,0,0,1,.464-1.271,7.781,7.781,0,0,1,.564-1.1,4.028,4.028,0,0,1,.692-.871,1.024,1.024,0,0,1,1.8.317,4.1,4.1,0,0,1,.354,1.055,8.887,8.887,0,0,1,.154,1.229,11.983,11.983,0,0,1,0,1.352c-.023.471-.071.968-.146,1.476-.023.161-.049.322-.077.484q-.1.588-.243,1.14a13.626,13.626,0,0,1-.6,1.855l0,.01c-.046.115-.094.231-.141.348a5.949,5.949,0,0,1-.978,1.591Z" transform="translate(-360.995 -366.167)" fill="none" stroke="#313340" stroke-linecap="round" stroke-linejoin="round" stroke-width="1"/>
        </g>
        <path id="Trazado_102002" data-name="Trazado 102002" d="M358.677,378.209l-.545-1.806a36.04,36.04,0,0,1,.591-22.58h0" transform="translate(-346.222 -315.095)" fill="none" stroke="#313340" stroke-linecap="round" stroke-linejoin="round" stroke-width="1"/>
        <path id="Trazado_102003" data-name="Trazado 102003" d="M356.658,362.9l.651-1.772a36.046,36.046,0,0,1,14.042-17.692h0" transform="translate(-346.185 -321.744)" fill="none" stroke="#313340" stroke-linecap="round" stroke-linejoin="round" stroke-width="1"/>
        <g id="Grupo_69610" data-name="Grupo 69610" transform="translate(18.768 18.035)">
          <path id="Trazado_102004" data-name="Trazado 102004" d="M362.338,347.17c.139-.249.3-.507.482-.769a13.417,13.417,0,0,1,1.224-1.517c.254-.28.528-.556.819-.83.12-.112.241-.223.363-.33.384-.343.773-.655,1.153-.932a12.206,12.206,0,0,1,1.13-.743,8.822,8.822,0,0,1,1.112-.545,4.153,4.153,0,0,1,1.076-.284,1.024,1.024,0,0,1,1.253,1.332,4.1,4.1,0,0,1-.348,1.056,7.635,7.635,0,0,1-.61,1.074,11.793,11.793,0,0,1-.807,1.086c-.3.362-.635.733-1,1.1-.115.115-.231.228-.353.343-.29.272-.582.53-.876.766a13.544,13.544,0,0,1-1.586,1.129c-1.539.93-2.869,1.232-3.41.656a1.4,1.4,0,0,1-.151-1.348" transform="translate(-361.715 -341.209)" fill="#4cb09c" stroke="#313340" stroke-linecap="round" stroke-linejoin="round" stroke-width="1"/>
          <path id="Trazado_102005" data-name="Trazado 102005" d="M367.532,347.208c-.29.272-.582.53-.876.766a13.541,13.541,0,0,1-1.586,1.129l-2.885.161.336-2.863a13.427,13.427,0,0,1,1.224-1.517c.254-.28.528-.556.819-.83.12-.112.241-.223.363-.33.384-.343.773-.655,1.153-.932a12.2,12.2,0,0,1,1.13-.743,8.824,8.824,0,0,1,1.112-.545,4.154,4.154,0,0,1,1.076-.284,1.024,1.024,0,0,1,1.253,1.332,4.1,4.1,0,0,1-.348,1.056,7.632,7.632,0,0,1-.61,1.074,11.792,11.792,0,0,1-.807,1.086c-.3.362-.635.733-1,1.1C367.77,346.98,367.653,347.093,367.532,347.208Z" transform="translate(-361.414 -341.209)" fill="#48b678"/>
          <path id="Trazado_102006" data-name="Trazado 102006" d="M363.706,348.112l-.805.046.384-3.274c.254-.28.528-.556.819-.83.12-.112.241-.223.363-.33.384-.343.773-.655,1.153-.932a12.2,12.2,0,0,1,1.13-.743,8.818,8.818,0,0,1,1.112-.545,4.154,4.154,0,0,1,1.076-.284,1.024,1.024,0,0,1,1.253,1.332,4.1,4.1,0,0,1-.348,1.056,7.634,7.634,0,0,1-.61,1.074,11.8,11.8,0,0,1-.807,1.086c-.3.362-.635.733-1,1.1-.115.115-.231.228-.353.343-.29.272-.582.53-.876.766l-1,.056" transform="translate(-360.955 -341.209)" fill="#4ec46e"/>
          <path id="Trazado_102007" data-name="Trazado 102007" d="M363.552,345.408" transform="translate(-360.538 -338.52)" fill="#4ec46e"/>
          <path id="Trazado_102008" data-name="Trazado 102008" d="M364.121,345.377" transform="translate(-360.174 -338.539)" fill="#4ec46e"/>
          <path id="Trazado_102009" data-name="Trazado 102009" d="M366.967,346.865l-3.351.189.392-3.33c.384-.343.773-.655,1.153-.932a12.2,12.2,0,0,1,1.13-.743,8.822,8.822,0,0,1,1.112-.545,4.154,4.154,0,0,1,1.076-.284,1.024,1.024,0,0,1,1.253,1.332,4.1,4.1,0,0,1-.348,1.056,7.631,7.631,0,0,1-.61,1.074,11.793,11.793,0,0,1-.807,1.086C367.668,346.132,367.333,346.5,366.967,346.865Z" transform="translate(-360.497 -341.209)" fill="#62d655"/>
          <path id="Trazado_102010" data-name="Trazado 102010" d="M364.628,343.419l.074-.627a12.2,12.2,0,0,1,1.13-.743,8.822,8.822,0,0,1,1.112-.545,4.154,4.154,0,0,1,1.076-.284,1.024,1.024,0,0,1,1.253,1.332,4.1,4.1,0,0,1-.348,1.056,7.634,7.634,0,0,1-.61,1.074,11.8,11.8,0,0,1-.807,1.086l-3.176.177.2-1.729" transform="translate(-360.038 -341.209)" fill="#6ae35f"/>
          <path id="Trazado_102011" data-name="Trazado 102011" d="M367.857,344.683l-2.808.159.325-2.794a8.822,8.822,0,0,1,1.112-.545,4.154,4.154,0,0,1,1.076-.284,1.024,1.024,0,0,1,1.253,1.332,4.1,4.1,0,0,1-.348,1.056A7.634,7.634,0,0,1,367.857,344.683Z" transform="translate(-359.58 -341.209)" fill="#abe36f"/>
          <path id="Trazado_102012" data-name="Trazado 102012" d="M366.442,343.7l-.677.038.262-2.231a4.154,4.154,0,0,1,1.076-.284,1.024,1.024,0,0,1,1.253,1.332,4.1,4.1,0,0,1-.348,1.056l-.3.016" transform="translate(-359.121 -341.209)" fill="#9cffcd"/>
          <path id="Trazado_102013" data-name="Trazado 102013" d="M367.9,342.553l-1.417.079.164-1.411a1.024,1.024,0,0,1,1.253,1.332Z" transform="translate(-358.663 -341.209)" fill="#b0ffd7"/>
          <path id="Trazado_102014" data-name="Trazado 102014" d="M361.809,348.41a1.4,1.4,0,0,0,.151,1.348c.541.576,1.872.274,3.41-.656a13.544,13.544,0,0,0,1.586-1.129c.294-.236.586-.494.876-.766.121-.115.238-.228.353-.343.366-.363.7-.733,1-1.1a11.793,11.793,0,0,0,.807-1.086,7.635,7.635,0,0,0,.61-1.074,4.1,4.1,0,0,0,.348-1.056,1.024,1.024,0,0,0-1.253-1.332,4.153,4.153,0,0,0-1.076.284,8.822,8.822,0,0,0-1.112.545,12.206,12.206,0,0,0-1.13.743c-.381.277-.769.589-1.153.932-.121.107-.243.218-.363.33-.29.274-.564.55-.819.83a13.417,13.417,0,0,0-1.224,1.517l-.007.008-.213.31a5.953,5.953,0,0,0-.792,1.691Z" transform="translate(-361.715 -341.209)" fill="none" stroke="#313340" stroke-linecap="round" stroke-linejoin="round" stroke-width="1"/>
        </g>
        <g id="Grupo_69611" data-name="Grupo 69611" transform="translate(9.181 34.45)">
          <path id="Trazado_102015" data-name="Trazado 102015" d="M355.958,360.8c-.038-.282-.064-.586-.077-.9a13.53,13.53,0,0,1,.066-1.949q.054-.566.156-1.155c.028-.162.059-.323.092-.481.1-.505.225-.989.361-1.44a12.138,12.138,0,0,1,.458-1.271,8.76,8.76,0,0,1,.561-1.106,4.175,4.175,0,0,1,.691-.873,1.024,1.024,0,0,1,1.8.312,4.1,4.1,0,0,1,.358,1.053,7.927,7.927,0,0,1,.157,1.227,12.3,12.3,0,0,1,.008,1.352c-.023.471-.067.968-.143,1.478-.021.159-.048.322-.076.486q-.1.591-.239,1.138a13.5,13.5,0,0,1-.589,1.855c-.671,1.667-1.553,2.708-2.331,2.574-.39-.067-.705-.423-.932-.986" transform="translate(-355.871 -351.215)" fill="#4cb09c" stroke="#313340" stroke-linecap="round" stroke-linejoin="round" stroke-width="1"/>
          <path id="Trazado_102016" data-name="Trazado 102016" d="M360.371,357.532q-.1.591-.239,1.138a13.5,13.5,0,0,1-.589,1.855l-2.21,1.864-1.452-2.49a13.53,13.53,0,0,1,.066-1.949q.054-.566.156-1.155c.028-.162.059-.323.092-.481.1-.505.225-.989.361-1.44a12.138,12.138,0,0,1,.458-1.271,8.76,8.76,0,0,1,.561-1.106,4.175,4.175,0,0,1,.691-.873,1.024,1.024,0,0,1,1.8.312,4.1,4.1,0,0,1,.358,1.053,7.927,7.927,0,0,1,.157,1.227,12.3,12.3,0,0,1,.008,1.352c-.023.471-.067.968-.143,1.478C360.425,357.206,360.4,357.368,360.371,357.532Z" transform="translate(-355.871 -351.215)" fill="#48b678"/>
          <path id="Trazado_102017" data-name="Trazado 102017" d="M358.2,360.278l-.617.52-1.662-2.848q.054-.566.156-1.155c.028-.162.059-.323.092-.481.1-.505.225-.989.361-1.44a12.165,12.165,0,0,1,.458-1.271,8.765,8.765,0,0,1,.561-1.106,4.179,4.179,0,0,1,.691-.873,1.024,1.024,0,0,1,1.8.312,4.094,4.094,0,0,1,.358,1.053,7.927,7.927,0,0,1,.157,1.227,12.306,12.306,0,0,1,.008,1.352c-.023.471-.067.968-.143,1.478-.021.159-.048.322-.076.486q-.1.591-.24,1.138l-.764.645" transform="translate(-355.841 -351.215)" fill="#4ec46e"/>
          <path id="Trazado_102018" data-name="Trazado 102018" d="M357.429,356.636" transform="translate(-354.873 -347.743)" fill="#4ec46e"/>
          <path id="Trazado_102019" data-name="Trazado 102019" d="M357.864,356.269" transform="translate(-354.594 -347.978)" fill="#4ec46e"/>
          <path id="Trazado_102020" data-name="Trazado 102020" d="M360.32,357.047l-2.564,2.164-1.688-2.9c.1-.505.225-.989.361-1.44a12.158,12.158,0,0,1,.458-1.271,8.765,8.765,0,0,1,.561-1.106,4.177,4.177,0,0,1,.691-.873,1.024,1.024,0,0,1,1.8.312,4.1,4.1,0,0,1,.358,1.053,7.931,7.931,0,0,1,.157,1.227,12.306,12.306,0,0,1,.008,1.352C360.44,356.04,360.4,356.537,360.32,357.047Z" transform="translate(-355.744 -351.215)" fill="#62d655"/>
          <path id="Trazado_102021" data-name="Trazado 102021" d="M356.606,355.421l-.318-.546a12.151,12.151,0,0,1,.458-1.271,8.765,8.765,0,0,1,.561-1.106,4.176,4.176,0,0,1,.691-.873,1.024,1.024,0,0,1,1.8.312,4.1,4.1,0,0,1,.358,1.053,7.927,7.927,0,0,1,.157,1.227,12.306,12.306,0,0,1,.008,1.352l-2.433,2.05-.878-1.5" transform="translate(-355.603 -351.215)" fill="#6ae35f"/>
          <path id="Trazado_102022" data-name="Trazado 102022" d="M360.135,354.217l-2.149,1.814-1.419-2.428a8.756,8.756,0,0,1,.561-1.106,4.176,4.176,0,0,1,.691-.873,1.024,1.024,0,0,1,1.8.312,4.1,4.1,0,0,1,.358,1.053A7.931,7.931,0,0,1,360.135,354.217Z" transform="translate(-355.425 -351.215)" fill="#abe36f"/>
          <path id="Trazado_102023" data-name="Trazado 102023" d="M358.559,354l-.518.438-1.132-1.942a4.177,4.177,0,0,1,.691-.873,1.024,1.024,0,0,1,1.8.312,4.1,4.1,0,0,1,.358,1.053l-.228.194" transform="translate(-355.206 -351.215)" fill="#9cffcd"/>
          <path id="Trazado_102024" data-name="Trazado 102024" d="M359.131,351.937l-1.086.914-.715-1.225a1.024,1.024,0,0,1,1.8.312Z" transform="translate(-354.936 -351.215)" fill="#b0ffd7"/>
          <path id="Trazado_102025" data-name="Trazado 102025" d="M356.28,362.114c.226.563.541.919.932.986.778.134,1.66-.907,2.331-2.574a13.5,13.5,0,0,0,.589-1.855q.138-.549.239-1.138c.028-.164.054-.326.076-.486.075-.51.12-1.007.143-1.478a12.3,12.3,0,0,0-.008-1.352,7.927,7.927,0,0,0-.157-1.227,4.1,4.1,0,0,0-.358-1.053,1.024,1.024,0,0,0-1.8-.312,4.175,4.175,0,0,0-.691.873,8.76,8.76,0,0,0-.561,1.106,12.138,12.138,0,0,0-.458,1.271c-.136.451-.261.935-.361,1.44-.033.157-.064.318-.092.481q-.1.588-.156,1.155a13.53,13.53,0,0,0-.066,1.949v.01c0,.125.01.249.016.376a5.932,5.932,0,0,0,.382,1.829Z" transform="translate(-355.871 -351.215)" fill="none" stroke="#313340" stroke-linecap="round" stroke-linejoin="round" stroke-width="1"/>
        </g>
        <path id="Trazado_102026" data-name="Trazado 102026" d="M356.415,380.114l1.124-1.516a36.047,36.047,0,0,0,7.078-21.45h0" transform="translate(-346.341 -312.966)" fill="none" stroke="#313340" stroke-linecap="round" stroke-linejoin="round" stroke-width="1"/>
        <g id="Grupo_69612" data-name="Grupo 69612" transform="translate(16.234 40.13)">
          <path id="Trazado_102027" data-name="Trazado 102027" d="M363.459,364.819q.2-.379.377-.825a13.324,13.324,0,0,0,.6-1.855q.14-.551.243-1.14c.028-.162.054-.323.077-.484.076-.51.123-1.006.146-1.476a11.946,11.946,0,0,0,0-1.352,8.371,8.371,0,0,0-.154-1.229,4.112,4.112,0,0,0-.353-1.055,1.024,1.024,0,0,0-1.8-.317,4.033,4.033,0,0,0-.692.871,7.781,7.781,0,0,0-.564,1.1,12,12,0,0,0-.464,1.271c-.138.449-.262.932-.366,1.437-.033.159-.064.32-.092.484-.069.392-.125.778-.161,1.152a13.788,13.788,0,0,0-.074,1.946c.069,1.8.548,3.074,1.325,3.21a1.4,1.4,0,0,0,1.211-.613" transform="translate(-360.17 -354.678)" fill="#4cb09c" stroke="#313340" stroke-linecap="round" stroke-linejoin="round" stroke-width="1"/>
          <path id="Trazado_102028" data-name="Trazado 102028" d="M360.413,360.249c-.069.392-.125.778-.161,1.152a13.788,13.788,0,0,0-.074,1.946l1.45,2.5,2.208-1.852a13.324,13.324,0,0,0,.6-1.855q.14-.551.243-1.14c.028-.162.054-.323.077-.484.076-.51.123-1.006.146-1.476a11.946,11.946,0,0,0,0-1.352,8.371,8.371,0,0,0-.154-1.229,4.112,4.112,0,0,0-.353-1.055,1.024,1.024,0,0,0-1.8-.317,4.033,4.033,0,0,0-.692.871,7.781,7.781,0,0,0-.564,1.1,12,12,0,0,0-.464,1.271c-.138.449-.262.932-.366,1.437C360.472,359.924,360.441,360.085,360.413,360.249Z" transform="translate(-360.17 -354.678)" fill="#48b678"/>
          <path id="Trazado_102029" data-name="Trazado 102029" d="M361.47,363.558l.405.7,2.528-2.118q.14-.551.243-1.14c.028-.162.054-.323.077-.484.075-.51.123-1.006.146-1.476a11.981,11.981,0,0,0,0-1.352,8.375,8.375,0,0,0-.154-1.229,4.108,4.108,0,0,0-.353-1.055,1.024,1.024,0,0,0-1.8-.317,4.031,4.031,0,0,0-.692.871,7.775,7.775,0,0,0-.564,1.1,12,12,0,0,0-.464,1.271c-.138.449-.262.932-.366,1.437-.033.159-.064.32-.092.484-.069.392-.125.778-.161,1.152l.5.866" transform="translate(-360.138 -354.678)" fill="#4ec46e"/>
          <path id="Trazado_102030" data-name="Trazado 102030" d="M360.9,359.952" transform="translate(-359.701 -351.3)" fill="#4ec46e"/>
          <path id="Trazado_102031" data-name="Trazado 102031" d="M360.616,359.459" transform="translate(-359.884 -351.616)" fill="#4ec46e"/>
          <path id="Trazado_102032" data-name="Trazado 102032" d="M360.374,359.765l1.681,2.9,2.569-2.154c.076-.51.123-1.006.146-1.476a11.96,11.96,0,0,0,0-1.352,8.363,8.363,0,0,0-.154-1.229,4.111,4.111,0,0,0-.353-1.055,1.024,1.024,0,0,0-1.8-.317,4.029,4.029,0,0,0-.692.871,7.772,7.772,0,0,0-.564,1.1,11.98,11.98,0,0,0-.464,1.271C360.6,358.778,360.477,359.26,360.374,359.765Z" transform="translate(-360.039 -354.678)" fill="#62d655"/>
          <path id="Trazado_102033" data-name="Trazado 102033" d="M364.144,359.444l.484-.405a11.932,11.932,0,0,0,0-1.352,8.367,8.367,0,0,0-.154-1.229,4.112,4.112,0,0,0-.353-1.055,1.024,1.024,0,0,0-1.8-.317,4.03,4.03,0,0,0-.692.871,7.775,7.775,0,0,0-.564,1.1,11.994,11.994,0,0,0-.464,1.271l1.6,2.751,1.334-1.119" transform="translate(-359.896 -354.678)" fill="#6ae35f"/>
          <path id="Trazado_102034" data-name="Trazado 102034" d="M360.88,357.057l1.411,2.434,2.154-1.8a8.363,8.363,0,0,0-.154-1.229,4.113,4.113,0,0,0-.353-1.055,1.024,1.024,0,0,0-1.8-.317,4.031,4.031,0,0,0-.692.871A7.772,7.772,0,0,0,360.88,357.057Z" transform="translate(-359.715 -354.678)" fill="#abe36f"/>
          <path id="Trazado_102035" data-name="Trazado 102035" d="M362.01,357.314l.34.587,1.721-1.444a4.111,4.111,0,0,0-.353-1.055,1.024,1.024,0,0,0-1.8-.317,4.031,4.031,0,0,0-.692.871l.149.258" transform="translate(-359.495 -354.678)" fill="#9cffcd"/>
          <path id="Trazado_102036" data-name="Trazado 102036" d="M361.646,355.087l.712,1.227,1.089-.91a1.024,1.024,0,0,0-1.8-.317Z" transform="translate(-359.225 -354.678)" fill="#b0ffd7"/>
          <path id="Trazado_102037" data-name="Trazado 102037" d="M362.714,365.943a1.4,1.4,0,0,1-1.211.613c-.778-.136-1.257-1.414-1.325-3.21a13.788,13.788,0,0,1,.074-1.946c.036-.374.092-.76.161-1.152.028-.164.059-.325.092-.484.1-.505.228-.987.366-1.437a12,12,0,0,1,.464-1.271,7.781,7.781,0,0,1,.564-1.1,4.033,4.033,0,0,1,.692-.871,1.024,1.024,0,0,1,1.8.317,4.112,4.112,0,0,1,.353,1.055,8.371,8.371,0,0,1,.154,1.229,11.946,11.946,0,0,1,0,1.352c-.023.471-.071.966-.146,1.476-.023.161-.049.322-.077.484q-.1.588-.243,1.14a13.324,13.324,0,0,1-.6,1.855l0,.01c-.046.115-.093.231-.141.348a6.021,6.021,0,0,1-.978,1.591Z" transform="translate(-360.17 -354.678)" fill="none" stroke="#313340" stroke-linecap="round" stroke-linejoin="round" stroke-width="1"/>
        </g>
        <line id="Línea_143" data-name="Línea 143" x1="14.069" y2="8.564" transform="translate(15.096 50.413)" fill="none" stroke="#313340" stroke-linecap="round" stroke-linejoin="round" stroke-width="1"/>
        <g id="Grupo_69613" data-name="Grupo 69613" transform="translate(21.833 47.577)">
          <path id="Trazado_102038" data-name="Trazado 102038" d="M366.319,366.449c.276-.074.564-.167.863-.279a13.584,13.584,0,0,0,1.772-.815c.335-.179.669-.377,1.006-.592.138-.087.274-.179.407-.269.428-.289.825-.59,1.188-.891a11.991,11.991,0,0,0,1-.915,8.73,8.73,0,0,0,.8-.945,4.092,4.092,0,0,0,.538-.973,1.025,1.025,0,0,0-.984-1.542,4.073,4.073,0,0,0-1.109.079,7.741,7.741,0,0,0-1.193.33,11.712,11.712,0,0,0-1.25.517c-.425.2-.865.436-1.307.7-.138.082-.277.169-.418.257-.336.215-.656.436-.956.663a13.454,13.454,0,0,0-1.483,1.261c-1.278,1.263-1.9,2.48-1.47,3.146a1.4,1.4,0,0,0,1.27.477" transform="translate(-363.583 -359.217)" fill="#4cb09c" stroke="#313340" stroke-linecap="round" stroke-linejoin="round" stroke-width="1"/>
          <path id="Trazado_102039" data-name="Trazado 102039" d="M367.337,361.113c-.336.215-.656.436-.956.663a13.458,13.458,0,0,0-1.483,1.261l-.863,2.758,2.858.376a13.583,13.583,0,0,0,1.772-.815c.335-.179.669-.377,1.006-.592.138-.087.274-.179.407-.269.428-.289.825-.59,1.188-.891a11.976,11.976,0,0,0,1-.915,8.723,8.723,0,0,0,.8-.945,4.091,4.091,0,0,0,.538-.973,1.024,1.024,0,0,0-.984-1.542,4.073,4.073,0,0,0-1.109.079,7.743,7.743,0,0,0-1.193.33,11.712,11.712,0,0,0-1.25.517c-.425.2-.865.436-1.307.7C367.618,360.937,367.478,361.024,367.337,361.113Z" transform="translate(-363.294 -359.217)" fill="#48b678"/>
          <path id="Trazado_102040" data-name="Trazado 102040" d="M365.106,364.154l-.241.771,3.268.43c.335-.179.669-.377,1.006-.592.138-.087.274-.179.407-.269.428-.289.825-.59,1.188-.891a11.99,11.99,0,0,0,1-.915,8.72,8.72,0,0,0,.8-.945,4.093,4.093,0,0,0,.538-.973,1.025,1.025,0,0,0-.984-1.542,4.073,4.073,0,0,0-1.109.079,7.739,7.739,0,0,0-1.193.33,11.712,11.712,0,0,0-1.25.517c-.425.2-.865.436-1.307.7-.138.082-.277.169-.418.257-.336.215-.656.436-.956.663l-.3.955" transform="translate(-362.762 -359.217)" fill="#4ec46e"/>
          <path id="Trazado_102041" data-name="Trazado 102041" d="M365.059,362.075" transform="translate(-362.638 -357.387)" fill="#4ec46e"/>
          <path id="Trazado_102042" data-name="Trazado 102042" d="M365.229,361.531" transform="translate(-362.529 -357.736)" fill="#4ec46e"/>
          <path id="Trazado_102043" data-name="Trazado 102043" d="M366.694,360.855l-1,3.2,3.322.436c.428-.289.825-.59,1.188-.891a11.97,11.97,0,0,0,1-.915,8.716,8.716,0,0,0,.8-.945,4.092,4.092,0,0,0,.538-.973,1.025,1.025,0,0,0-.984-1.542,4.073,4.073,0,0,0-1.109.079,7.74,7.74,0,0,0-1.193.33,11.706,11.706,0,0,0-1.25.517C367.576,360.355,367.137,360.59,366.694,360.855Z" transform="translate(-362.232 -359.217)" fill="#62d655"/>
          <path id="Trazado_102044" data-name="Trazado 102044" d="M369.045,363.521l.627.082a11.991,11.991,0,0,0,1-.915,8.73,8.73,0,0,0,.8-.945,4.094,4.094,0,0,0,.538-.973,1.025,1.025,0,0,0-.984-1.542,4.073,4.073,0,0,0-1.109.079,7.739,7.739,0,0,0-1.193.33,11.7,11.7,0,0,0-1.25.517l-.948,3.035,1.726.228" transform="translate(-361.701 -359.217)" fill="#6ae35f"/>
          <path id="Trazado_102045" data-name="Trazado 102045" d="M368.19,359.637l-.84,2.684,2.787.368a8.72,8.72,0,0,0,.8-.945,4.092,4.092,0,0,0,.538-.973,1.025,1.025,0,0,0-.984-1.542,4.073,4.073,0,0,0-1.109.079A7.738,7.738,0,0,0,368.19,359.637Z" transform="translate(-361.171 -359.217)" fill="#abe36f"/>
          <path id="Trazado_102046" data-name="Trazado 102046" d="M368.382,360.8l-.2.646,2.228.292a4.094,4.094,0,0,0,.538-.973,1.025,1.025,0,0,0-.984-1.542,4.073,4.073,0,0,0-1.109.079l-.09.285" transform="translate(-360.64 -359.217)" fill="#9cffcd"/>
          <path id="Trazado_102047" data-name="Trazado 102047" d="M369.43,359.224l-.423,1.355,1.407.187a1.025,1.025,0,0,0-.984-1.542Z" transform="translate(-360.11 -359.213)" fill="#b0ffd7"/>
          <path id="Trazado_102048" data-name="Trazado 102048" d="M364.987,366.661a1.4,1.4,0,0,1-1.27-.477c-.427-.666.192-1.883,1.47-3.146a13.454,13.454,0,0,1,1.483-1.261c.3-.226.62-.448.956-.663.141-.089.28-.176.418-.257.443-.266.882-.5,1.307-.7a11.712,11.712,0,0,1,1.25-.517,7.741,7.741,0,0,1,1.193-.33,4.073,4.073,0,0,1,1.109-.079,1.025,1.025,0,0,1,.984,1.542,4.092,4.092,0,0,1-.538.973,8.73,8.73,0,0,1-.8.945,11.991,11.991,0,0,1-1,.915c-.362.3-.759.6-1.188.891-.133.09-.269.182-.407.269-.336.215-.671.413-1.006.592a13.584,13.584,0,0,1-1.772.815l-.008,0-.353.131a5.97,5.97,0,0,1-1.834.356Z" transform="translate(-363.583 -359.217)" fill="none" stroke="#313340" stroke-linecap="round" stroke-linejoin="round" stroke-width="1"/>
        </g>
        <line id="Línea_144" data-name="Línea 144" x1="0.41" y2="16.465" transform="translate(14.979 15.344)" fill="none" stroke="#313340" stroke-linecap="round" stroke-linejoin="round" stroke-width="1"/>
        <g id="Grupo_69614" data-name="Grupo 69614" transform="translate(12.819 11.582)">
          <path id="Trazado_102049" data-name="Trazado 102049" d="M361.868,347.278c.087-.271.164-.564.233-.876a13.579,13.579,0,0,0,.272-1.931q.047-.566.046-1.165c0-.164,0-.328-.007-.489-.011-.515-.049-1.012-.105-1.48a12.2,12.2,0,0,0-.231-1.334,8.685,8.685,0,0,0-.361-1.184,4.147,4.147,0,0,0-.528-.979,1.024,1.024,0,0,0-1.829,0,4.052,4.052,0,0,0-.533.974,7.85,7.85,0,0,0-.369,1.181,11.981,11.981,0,0,0-.241,1.33,14.82,14.82,0,0,0-.116,1.48q-.007.241-.01.492c0,.4.011.787.039,1.161a13.473,13.473,0,0,0,.258,1.931c.372,1.758,1.061,2.936,1.852,2.938.4,0,.768-.294,1.088-.81" transform="translate(-358.088 -337.275)" fill="#4cb09c" stroke="#313340" stroke-linecap="round" stroke-linejoin="round" stroke-width="1"/>
          <path id="Trazado_102050" data-name="Trazado 102050" d="M358.088,343.294c0,.4.011.787.039,1.161a13.473,13.473,0,0,0,.258,1.931l1.854,2.218,1.862-2.2a13.579,13.579,0,0,0,.272-1.931q.047-.566.046-1.165c0-.164,0-.328-.007-.489-.011-.515-.049-1.012-.105-1.48a12.2,12.2,0,0,0-.231-1.334,8.685,8.685,0,0,0-.361-1.184,4.147,4.147,0,0,0-.528-.979,1.024,1.024,0,0,0-1.829,0,4.052,4.052,0,0,0-.533.974,7.85,7.85,0,0,0-.369,1.181,11.981,11.981,0,0,0-.241,1.33,14.82,14.82,0,0,0-.116,1.48Q358.09,343.043,358.088,343.294Z" transform="translate(-358.088 -337.275)" fill="#48b678"/>
          <path id="Trazado_102051" data-name="Trazado 102051" d="M359.725,346.37l.518.618,2.129-2.516q.047-.566.046-1.165c0-.164,0-.328-.007-.489-.011-.515-.049-1.012-.105-1.48a12.2,12.2,0,0,0-.231-1.334,8.685,8.685,0,0,0-.361-1.184,4.147,4.147,0,0,0-.528-.979,1.024,1.024,0,0,0-1.829,0,4.052,4.052,0,0,0-.533.974,7.85,7.85,0,0,0-.369,1.181,11.981,11.981,0,0,0-.241,1.33,14.82,14.82,0,0,0-.116,1.48q-.007.241-.01.492c0,.4.011.787.039,1.161l.641.768" transform="translate(-358.088 -337.275)" fill="#4ec46e"/>
          <path id="Trazado_102052" data-name="Trazado 102052" d="M358.984,342.7" transform="translate(-357.514 -333.803)" fill="#4ec46e"/>
          <path id="Trazado_102053" data-name="Trazado 102053" d="M358.618,342.258" transform="translate(-357.749 -334.084)" fill="#4ec46e"/>
          <path id="Trazado_102054" data-name="Trazado 102054" d="M358.094,342.8l2.151,2.575,2.164-2.559c-.011-.515-.049-1.012-.1-1.48a12.2,12.2,0,0,0-.231-1.334,8.681,8.681,0,0,0-.361-1.184,4.147,4.147,0,0,0-.528-.979,1.024,1.024,0,0,0-1.829,0,4.053,4.053,0,0,0-.533.974,7.853,7.853,0,0,0-.369,1.181,11.981,11.981,0,0,0-.241,1.33A14.81,14.81,0,0,0,358.094,342.8Z" transform="translate(-358.084 -337.275)" fill="#62d655"/>
          <path id="Trazado_102055" data-name="Trazado 102055" d="M361.849,341.821l.408-.482a12.212,12.212,0,0,0-.231-1.334,8.694,8.694,0,0,0-.361-1.184,4.15,4.15,0,0,0-.528-.979,1.024,1.024,0,0,0-1.829,0,4.054,4.054,0,0,0-.533.974,7.846,7.846,0,0,0-.369,1.181,12,12,0,0,0-.241,1.33l2.039,2.441,1.125-1.329" transform="translate(-358.039 -337.275)" fill="#6ae35f"/>
          <path id="Trazado_102056" data-name="Trazado 102056" d="M358.312,339.992l1.8,2.159L361.932,340a8.685,8.685,0,0,0-.361-1.184,4.147,4.147,0,0,0-.528-.979,1.024,1.024,0,0,0-1.829,0,4.051,4.051,0,0,0-.533.974A7.85,7.85,0,0,0,358.312,339.992Z" transform="translate(-357.945 -337.275)" fill="#abe36f"/>
          <path id="Trazado_102057" data-name="Trazado 102057" d="M359.543,340.016l.433.52,1.452-1.716a4.147,4.147,0,0,0-.528-.979,1.024,1.024,0,0,0-1.829,0,4.052,4.052,0,0,0-.533.974l.19.23" transform="translate(-357.8 -337.275)" fill="#9cffcd"/>
          <path id="Trazado_102058" data-name="Trazado 102058" d="M358.862,337.836l.912,1.088.917-1.083a1.024,1.024,0,0,0-1.829,0Z" transform="translate(-357.592 -337.275)" fill="#b0ffd7"/>
          <path id="Trazado_102059" data-name="Trazado 102059" d="M361.325,348.514c-.32.517-.692.812-1.088.81-.791,0-1.48-1.18-1.852-2.938a13.473,13.473,0,0,1-.258-1.931c-.028-.374-.039-.763-.039-1.161q0-.251.01-.492a14.82,14.82,0,0,1,.116-1.48,11.981,11.981,0,0,1,.241-1.33,7.85,7.85,0,0,1,.369-1.181,4.052,4.052,0,0,1,.533-.974,1.024,1.024,0,0,1,1.829,0,4.147,4.147,0,0,1,.528.979,8.685,8.685,0,0,1,.361,1.184,12.2,12.2,0,0,1,.231,1.334c.056.467.094.965.105,1.48,0,.161.008.325.007.489q0,.6-.046,1.165a13.579,13.579,0,0,1-.272,1.931l0,.01c-.028.121-.054.244-.08.367a6,6,0,0,1-.694,1.734Z" transform="translate(-358.088 -337.275)" fill="none" stroke="#313340" stroke-linecap="round" stroke-linejoin="round" stroke-width="1"/>
        </g>
        <path id="Trazado_102060" data-name="Trazado 102060" d="M357.931,392.157l-.545-1.808a36.035,36.035,0,0,1,.591-22.579h0" transform="translate(-346.7 -306.162)" fill="none" stroke="#313340" stroke-linecap="round" stroke-linejoin="round" stroke-width="1"/>
        <g id="Grupo_69615" data-name="Grupo 69615" transform="translate(7.958 57.329)">
          <path id="Trazado_102061" data-name="Trazado 102061" d="M355.212,374.75q-.057-.423-.077-.9a13.559,13.559,0,0,1,.066-1.949c.036-.377.089-.761.156-1.155.028-.161.059-.323.092-.481a14.765,14.765,0,0,1,.361-1.439,12.042,12.042,0,0,1,.458-1.273,8.609,8.609,0,0,1,.561-1.1,4.132,4.132,0,0,1,.691-.873,1.023,1.023,0,0,1,1.8.31,4.089,4.089,0,0,1,.358,1.055,7.882,7.882,0,0,1,.157,1.225,12.325,12.325,0,0,1,.008,1.353c-.023.471-.067.966-.143,1.476-.021.161-.048.321-.076.486-.067.394-.148.774-.24,1.138a13.492,13.492,0,0,1-.589,1.855c-.671,1.668-1.554,2.708-2.331,2.574-.39-.067-.705-.422-.932-.986" transform="translate(-355.125 -365.162)" fill="#4cb09c" stroke="#313340" stroke-linecap="round" stroke-linejoin="round" stroke-width="1"/>
          <path id="Trazado_102062" data-name="Trazado 102062" d="M359.625,371.479c-.067.394-.148.774-.24,1.138a13.492,13.492,0,0,1-.589,1.855l-2.21,1.863-1.452-2.49a13.559,13.559,0,0,1,.066-1.949c.036-.377.089-.761.156-1.155.028-.161.059-.323.092-.481a14.765,14.765,0,0,1,.361-1.439,12.042,12.042,0,0,1,.458-1.273,8.609,8.609,0,0,1,.561-1.1,4.132,4.132,0,0,1,.691-.873,1.023,1.023,0,0,1,1.8.31,4.089,4.089,0,0,1,.358,1.055,7.882,7.882,0,0,1,.157,1.225,12.325,12.325,0,0,1,.008,1.353c-.023.471-.067.966-.143,1.476C359.679,371.155,359.653,371.315,359.625,371.479Z" transform="translate(-355.125 -365.162)" fill="#48b678"/>
          <path id="Trazado_102063" data-name="Trazado 102063" d="M357.449,374.225l-.617.52-1.662-2.848c.036-.377.089-.761.156-1.155.028-.161.059-.323.092-.481a14.774,14.774,0,0,1,.361-1.439,12.043,12.043,0,0,1,.458-1.273,8.613,8.613,0,0,1,.561-1.1,4.132,4.132,0,0,1,.691-.873,1.023,1.023,0,0,1,1.8.31,4.089,4.089,0,0,1,.358,1.055,7.889,7.889,0,0,1,.157,1.225,12.333,12.333,0,0,1,.008,1.353c-.023.471-.067.966-.143,1.476-.021.161-.047.321-.076.486-.067.394-.148.774-.24,1.138l-.764.645" transform="translate(-355.095 -365.162)" fill="#4ec46e"/>
          <path id="Trazado_102064" data-name="Trazado 102064" d="M356.683,370.584" transform="translate(-354.127 -361.689)" fill="#4ec46e"/>
          <path id="Trazado_102065" data-name="Trazado 102065" d="M357.118,370.216" transform="translate(-353.848 -361.925)" fill="#4ec46e"/>
          <path id="Trazado_102066" data-name="Trazado 102066" d="M359.574,370.994l-2.564,2.164-1.688-2.9a14.765,14.765,0,0,1,.361-1.439,12.036,12.036,0,0,1,.458-1.273,8.609,8.609,0,0,1,.561-1.1,4.132,4.132,0,0,1,.691-.873,1.023,1.023,0,0,1,1.8.31,4.091,4.091,0,0,1,.358,1.055,7.878,7.878,0,0,1,.157,1.225,12.318,12.318,0,0,1,.008,1.353C359.694,369.988,359.649,370.484,359.574,370.994Z" transform="translate(-354.998 -365.162)" fill="#62d655"/>
          <path id="Trazado_102067" data-name="Trazado 102067" d="M355.86,369.368l-.318-.545a12.029,12.029,0,0,1,.458-1.273,8.605,8.605,0,0,1,.561-1.1,4.132,4.132,0,0,1,.691-.873,1.023,1.023,0,0,1,1.8.31,4.089,4.089,0,0,1,.358,1.055,7.889,7.889,0,0,1,.157,1.225,12.333,12.333,0,0,1,.008,1.353l-2.433,2.049-.878-1.5" transform="translate(-354.857 -365.162)" fill="#6ae35f"/>
          <path id="Trazado_102068" data-name="Trazado 102068" d="M359.389,368.164l-2.149,1.814-1.419-2.428a8.617,8.617,0,0,1,.561-1.1,4.132,4.132,0,0,1,.691-.873,1.023,1.023,0,0,1,1.8.31,4.088,4.088,0,0,1,.358,1.055A7.878,7.878,0,0,1,359.389,368.164Z" transform="translate(-354.679 -365.162)" fill="#abe36f"/>
          <path id="Trazado_102069" data-name="Trazado 102069" d="M357.813,367.951l-.518.436-1.132-1.941a4.133,4.133,0,0,1,.691-.873,1.023,1.023,0,0,1,1.8.31,4.086,4.086,0,0,1,.358,1.055l-.228.192" transform="translate(-354.46 -365.162)" fill="#9cffcd"/>
          <path id="Trazado_102070" data-name="Trazado 102070" d="M358.385,365.884l-1.086.915-.715-1.225a1.023,1.023,0,0,1,1.8.31Z" transform="translate(-354.19 -365.162)" fill="#b0ffd7"/>
          <path id="Trazado_102071" data-name="Trazado 102071" d="M355.534,376.061c.226.564.541.919.932.986.778.135,1.66-.905,2.331-2.574a13.492,13.492,0,0,0,.589-1.855c.092-.364.172-.745.24-1.138.028-.164.054-.325.076-.486.075-.51.12-1.006.143-1.476a12.325,12.325,0,0,0-.008-1.353,7.882,7.882,0,0,0-.157-1.225,4.089,4.089,0,0,0-.358-1.055,1.023,1.023,0,0,0-1.8-.31,4.132,4.132,0,0,0-.691.873,8.609,8.609,0,0,0-.561,1.1,12.042,12.042,0,0,0-.458,1.273,14.765,14.765,0,0,0-.361,1.439c-.033.157-.064.32-.092.481-.067.394-.12.777-.156,1.155a13.559,13.559,0,0,0-.066,1.949v.01c0,.125.01.251.016.377a5.919,5.919,0,0,0,.382,1.827Z" transform="translate(-355.125 -365.162)" fill="none" stroke="#313340" stroke-linecap="round" stroke-linejoin="round" stroke-width="1"/>
        </g>
      </g>
      <line id="Línea_145" data-name="Línea 145" y2="5.654" transform="translate(410.645 404.016)" fill="none" stroke="#313340" stroke-linecap="round" stroke-linejoin="round" stroke-width="1"/>
    </g>
  </g>
</svg>
