<svg xmlns="http://www.w3.org/2000/svg" xmlns:xlink="http://www.w3.org/1999/xlink" width="295" height="257.722" viewBox="0 0 295 257.722">
  <defs>
    <linearGradient id="linear-gradient" x1="-1.541" y1="2.573" x2="-1.853" y2="2.507" gradientUnits="objectBoundingBox">
      <stop offset="0" stop-color="#b87c75"/>
      <stop offset="0.995" stop-color="#c28a5e"/>
    </linearGradient>
    <linearGradient id="linear-gradient-2" x1="0.786" y1="0.448" x2="-0.241" y2="0.635" gradientUnits="objectBoundingBox">
      <stop offset="0" stop-color="#926d5a"/>
      <stop offset="1" stop-color="#d7baa8"/>
    </linearGradient>
    <linearGradient id="linear-gradient-3" x1="0.218" y1="0.176" x2="1.037" y2="1.117" gradientUnits="objectBoundingBox">
      <stop offset="0" stop-color="#b19177"/>
      <stop offset="1" stop-color="#62483a"/>
    </linearGradient>
    <linearGradient id="linear-gradient-4" y1="0.5" x2="1" y2="0.5" gradientUnits="objectBoundingBox">
      <stop offset="0" stop-color="#967762"/>
      <stop offset="1" stop-color="#4d3527"/>
    </linearGradient>
    <linearGradient id="linear-gradient-5" x1="-0.102" y1="0.07" x2="0.436" y2="0.587" xlink:href="#linear-gradient-4"/>
    <linearGradient id="linear-gradient-6" y1="0.5" x2="1" y2="0.5" gradientUnits="objectBoundingBox">
      <stop offset="0.017" stop-color="#c6a58d"/>
      <stop offset="0.5" stop-color="#b68c70"/>
      <stop offset="1" stop-color="#9c6645"/>
    </linearGradient>
    <linearGradient id="linear-gradient-7" x1="0.173" y1="0.274" x2="0.836" y2="0.72" gradientUnits="objectBoundingBox">
      <stop offset="0.011" stop-color="#8f6d5c"/>
      <stop offset="0.5" stop-color="#6f5449"/>
      <stop offset="0.994" stop-color="#472b20"/>
    </linearGradient>
    <linearGradient id="linear-gradient-8" x1="0.377" y1="0.173" x2="0.703" y2="0.745" gradientUnits="objectBoundingBox">
      <stop offset="0.011" stop-color="#ae8571"/>
      <stop offset="0.5" stop-color="#8e6c5d"/>
      <stop offset="0.994" stop-color="#663e2e"/>
    </linearGradient>
    <linearGradient id="linear-gradient-9" x1="0.335" y1="0.059" x2="0.628" y2="0.614" xlink:href="#linear-gradient-7"/>
    <linearGradient id="linear-gradient-10" x1="0.472" y1="0.387" x2="0.537" y2="0.577" gradientUnits="objectBoundingBox">
      <stop offset="0.017" stop-color="#8a7362"/>
      <stop offset="0.5" stop-color="#7a5e4b"/>
      <stop offset="1" stop-color="#603f2a"/>
    </linearGradient>
    <linearGradient id="linear-gradient-12" y1="0.5" x2="1" y2="0.5" gradientUnits="objectBoundingBox">
      <stop offset="0.011" stop-color="#b38974"/>
      <stop offset="0.5" stop-color="#937061"/>
      <stop offset="0.994" stop-color="#6b4130"/>
    </linearGradient>
    <linearGradient id="linear-gradient-13" y1="0.5" x2="1" y2="0.5" gradientUnits="objectBoundingBox">
      <stop offset="0.017" stop-color="#d4b197"/>
      <stop offset="0.5" stop-color="#c49779"/>
      <stop offset="1" stop-color="#aa6f4b"/>
    </linearGradient>
    <linearGradient id="linear-gradient-14" y1="0.5" x2="1" y2="0.5" gradientUnits="objectBoundingBox">
      <stop offset="0" stop-color="#c39d8b"/>
      <stop offset="0.517" stop-color="#a26d56"/>
      <stop offset="1" stop-color="#7a5246"/>
    </linearGradient>
    <linearGradient id="linear-gradient-15" x1="0.563" y1="0.411" x2="0.432" y2="0.584" gradientUnits="objectBoundingBox">
      <stop offset="0" stop-color="#a36e68"/>
      <stop offset="0.535" stop-color="#ad7b54"/>
      <stop offset="1" stop-color="#a67261"/>
    </linearGradient>
    <linearGradient id="linear-gradient-16" x1="0.383" y1="0.646" x2="0.759" y2="0.16" gradientUnits="objectBoundingBox">
      <stop offset="0" stop-color="#92625c"/>
      <stop offset="0.995" stop-color="#9c6f4c"/>
    </linearGradient>
    <linearGradient id="linear-gradient-17" x1="1.509" y1="0.586" x2="-0.325" y2="0.429" xlink:href="#linear-gradient-6"/>
    <linearGradient id="linear-gradient-18" x1="-0.846" y1="0.544" x2="1.266" y2="0.467" xlink:href="#linear-gradient-12"/>
    <linearGradient id="linear-gradient-19" x1="-0.242" y1="0.347" x2="1.392" y2="0.684" xlink:href="#linear-gradient-6"/>
    <linearGradient id="linear-gradient-20" x1="1.509" y1="0.586" x2="-0.325" y2="0.429" gradientUnits="objectBoundingBox">
      <stop offset="0" stop-color="#e79c93"/>
      <stop offset="0.995" stop-color="#f1ac75"/>
    </linearGradient>
    <linearGradient id="linear-gradient-21" x1="1.33" y1="0.505" x2="0.147" y2="0.495" xlink:href="#linear-gradient-15"/>
    <linearGradient id="linear-gradient-22" x1="1.166" y1="0.505" x2="-0.317" y2="0.491" xlink:href="#linear-gradient-16"/>
    <linearGradient id="linear-gradient-23" x1="0.798" y1="0.73" x2="-0.064" y2="0.144" gradientUnits="objectBoundingBox">
      <stop offset="0" stop-color="#dd958d"/>
      <stop offset="0.995" stop-color="#e7a570"/>
    </linearGradient>
    <linearGradient id="linear-gradient-24" x1="-23.776" y1="21.663" x2="-25.073" y2="21.552" gradientUnits="objectBoundingBox">
      <stop offset="0" stop-color="#d18d85"/>
      <stop offset="0.995" stop-color="#db9c6a"/>
    </linearGradient>
    <linearGradient id="linear-gradient-25" x1="1.004" y1="0.5" x2="0.006" y2="0.5" xlink:href="#linear-gradient-24"/>
    <linearGradient id="linear-gradient-26" x1="7.032" y1="0.5" x2="-1.731" y2="0.5" xlink:href="#linear-gradient-23"/>
    <linearGradient id="linear-gradient-27" x1="32.492" y1="0.5" x2="-2.844" y2="0.5" xlink:href="#linear-gradient-23"/>
    <linearGradient id="linear-gradient-28" x1="0.715" y1="0.5" x2="-0.265" y2="0.5" gradientUnits="objectBoundingBox">
      <stop offset="0" stop-color="#ba7d76"/>
      <stop offset="0.995" stop-color="#c48b5f"/>
    </linearGradient>
    <linearGradient id="linear-gradient-29" x1="1.019" y1="0.716" x2="0.026" y2="0.302" xlink:href="#linear-gradient-20"/>
    <linearGradient id="linear-gradient-30" x1="0" y1="0.5" x2="1" y2="0.5" xlink:href="#linear-gradient-28"/>
    <linearGradient id="linear-gradient-31" x1="0.81" y1="0.866" x2="0.174" y2="0.115" xlink:href="#linear-gradient-23"/>
    <linearGradient id="linear-gradient-32" x1="1.347" y1="1.502" x2="0.292" y2="0.198" gradientUnits="objectBoundingBox">
      <stop offset="0" stop-color="#e9aba4"/>
      <stop offset="0.995" stop-color="#f3b786"/>
    </linearGradient>
    <linearGradient id="linear-gradient-33" x1="0.994" y1="0.836" x2="-0.087" y2="0.213" xlink:href="#linear-gradient-28"/>
    <linearGradient id="linear-gradient-34" x1="1.003" y1="0.734" x2="-0.089" y2="0.176" xlink:href="#linear-gradient-28"/>
    <linearGradient id="linear-gradient-35" x1="1.094" y1="0.209" x2="-0.061" y2="0.767" gradientUnits="objectBoundingBox">
      <stop offset="0" stop-color="#8c5e58"/>
      <stop offset="0.995" stop-color="#966a49"/>
    </linearGradient>
    <linearGradient id="linear-gradient-36" y1="0.5" x2="1" y2="0.5" gradientUnits="objectBoundingBox">
      <stop offset="0" stop-color="#9d6963"/>
      <stop offset="0.995" stop-color="#a77651"/>
    </linearGradient>
    <linearGradient id="linear-gradient-37" y1="0.5" x2="1" y2="0.5" gradientUnits="objectBoundingBox">
      <stop offset="0" stop-color="#8e605a"/>
      <stop offset="0.995" stop-color="#986c4a"/>
    </linearGradient>
    <linearGradient id="linear-gradient-38" x1="0.579" y1="0.435" x2="0.475" y2="0.527" xlink:href="#linear-gradient-23"/>
    <linearGradient id="linear-gradient-39" x1="0.559" y1="0.437" x2="0.448" y2="0.532" xlink:href="#linear-gradient-28"/>
    <linearGradient id="linear-gradient-40" x1="1.345" y1="0.573" x2="-0.191" y2="0.44" gradientUnits="objectBoundingBox">
      <stop offset="0" stop-color="#ac6860"/>
      <stop offset="0.995" stop-color="#b67a4a"/>
    </linearGradient>
    <linearGradient id="linear-gradient-41" x1="1.505" y1="0.586" x2="-0.322" y2="0.43" xlink:href="#linear-gradient-24"/>
    <linearGradient id="linear-gradient-42" y1="0.5" x2="1" y2="0.5" gradientUnits="objectBoundingBox">
      <stop offset="0" stop-color="#7b4b44"/>
      <stop offset="0.995" stop-color="#93623c"/>
    </linearGradient>
    <linearGradient id="linear-gradient-43" x1="0" y1="0.5" x2="1" y2="0.5" xlink:href="#linear-gradient-24"/>
  </defs>
  <g id="Grupo_69573" data-name="Grupo 69573" transform="translate(-75.488 -119.088)">
    <g id="Grupo_69572" data-name="Grupo 69572" transform="translate(75.488 119.088)">
      <ellipse id="Elipse_4636" data-name="Elipse 4636" cx="30.47" cy="17.592" rx="30.47" ry="17.592" transform="translate(142.359 132.201)" fill="#b59e9f"/>
      <path id="Trazado_101856" data-name="Trazado 101856" d="M384.093,335.686s12.008-11.341,2-16.9-11.563-5.781-11.563-5.781l-5.114,17.345Z" transform="translate(-120.984 -149.104)" fill="#b59e9f"/>
      <path id="Trazado_101857" data-name="Trazado 101857" d="M336.97,348.241a98.383,98.383,0,0,0,22.088-.926c9.087-1.525,8.966-3.355,12.9-5,1.828-.766,2.586.177,5.615,2.517,6.522,5.04,22.848,26.539,31.149,17.94,7.419-7.683-32.91-24.015-32.91-24.015l-5.138-10.24Z" transform="translate(-115.962 -151.505)" fill="#b59e9f"/>
      <g id="Grupo_69524" data-name="Grupo 69524" transform="translate(183.621 124.032)">
        <g id="Grupo_69519" data-name="Grupo 69519" transform="translate(2.265 16.531)">
          <ellipse id="Elipse_4637" data-name="Elipse 4637" cx="33.798" cy="19.514" rx="33.798" ry="19.514" transform="translate(0.614 8.075)" fill="url(#linear-gradient)"/>
          <g id="Grupo_69518" data-name="Grupo 69518">
            <path id="Trazado_101858" data-name="Trazado 101858" d="M364.242,306.61H361.8a23.214,23.214,0,0,0-7.641-6.68,44.206,44.206,0,0,0-14.907-5.06c-11.608-1.913-24.612-.223-33.755,5.06a23.087,23.087,0,0,0-7.685,6.76l-2.393.009v7.391h.008v0l-.005,0v9.215h0c.051,5.046,3.406,10.083,10.074,13.933,13.439,7.758,35.227,7.758,48.665,0,6.72-3.88,10.08-8.965,10.079-14.051v-7.366h-.147a11.6,11.6,0,0,0,.15-1.847Z" transform="translate(-295.416 -286.743)" fill="url(#linear-gradient-2)"/>
            <path id="Trazado_101859" data-name="Trazado 101859" d="M364.233,305.262a12.5,12.5,0,0,1-1.823,6.386,22.041,22.041,0,0,1-8.254,7.658c-.8.462-1.636.9-2.5,1.308q-.614.294-1.254.56c-13.467,5.826-32.661,5.2-44.909-1.868-6.68-3.852-10.042-8.9-10.077-13.955-.045-5.114,3.317-10.238,10.077-14.143,11.794-6.8,30.028-7.64,43.388-2.49a36.87,36.87,0,0,1,5.274,2.49C360.88,295.1,364.233,300.174,364.233,305.262Z" transform="translate(-295.415 -285.394)" fill="url(#linear-gradient-3)"/>
          </g>
          <ellipse id="Elipse_4638" data-name="Elipse 4638" cx="27.038" cy="15.61" rx="27.038" ry="15.61" transform="translate(7.375 4.256)" fill="url(#linear-gradient-4)"/>
          <path id="Trazado_101860" data-name="Trazado 101860" d="M368.106,305.694v4.323l-1.832,2.063-1.183,1.335-9.57,7.631-.81.641-.445-.08c-1.379-.222-5.817-.916-11.562-1.4-6.965-.6-22.325,2.979-22.325,2.979l22.735-29.236,4.482-5.764,5.151.961a36.87,36.87,0,0,1,5.274,2.49c6.725,3.887,10.077,8.966,10.077,14.053Z" transform="translate(-299.279 -285.827)" fill="url(#linear-gradient-5)"/>
        </g>
        <g id="Grupo_69523" data-name="Grupo 69523">
          <g id="Grupo_69520" data-name="Grupo 69520" transform="translate(5.536 10.347)">
            <rect id="Rectángulo_5460" data-name="Rectángulo 5460" width="67.451" height="0.223" transform="translate(0 33.688) rotate(-29.964)" fill="#c5a370"/>
          </g>
          <g id="Grupo_69521" data-name="Grupo 69521" transform="translate(40.582)">
            <path id="Trazado_101861" data-name="Trazado 101861" d="M369.982,289.074c0,2.046-.467,4.4-2.387,5.431l-3.713,2.148a4.022,4.022,0,0,0,1.579-1.6,8.047,8.047,0,0,0,.808-3.814c0-7.275-6.239-17.012-13.627-21.282a12.855,12.855,0,0,0-6.139-1.957,2.22,2.22,0,0,0-.29.013,4.735,4.735,0,0,0-2.4.682l3.689-2.135a1.467,1.467,0,0,1,.189-.1,4.869,4.869,0,0,1,2.538-.619,12.855,12.855,0,0,1,6.139,1.958C363.756,272.062,369.982,281.812,369.982,289.074Z" transform="translate(-341.224 -265.835)" fill="url(#linear-gradient-6)"/>
            <path id="Trazado_101862" data-name="Trazado 101862" d="M366.475,291.629a8.047,8.047,0,0,1-.808,3.814,2.432,2.432,0,0,1-.3.013l-3.082-.063-.253-.606a17.271,17.271,0,0,1-2.8-1.3c-7.376-4.257-13.616-14.007-13.616-21.282a10.77,10.77,0,0,1,.051-1.1l-.051-.063-.467-.013c.025-.051.3-.644.581-1.213s.543-1.136.543-1.136a1.95,1.95,0,0,1,.152-.278,2.22,2.22,0,0,1,.29-.013,12.855,12.855,0,0,1,6.139,1.957C360.236,274.617,366.475,284.354,366.475,291.629Z" transform="translate(-341.43 -266.23)" fill="#d44053"/>
            <path id="Trazado_101863" data-name="Trazado 101863" d="M365.8,291.629a8.047,8.047,0,0,1-.808,3.814,4.022,4.022,0,0,1-1.579,1.6l-.013.012a5.078,5.078,0,0,1-2.438.543l-3.082-.063-.253-.593a17.678,17.678,0,0,1-2.791-1.3c-7.389-4.269-13.628-14.007-13.628-21.282a11.037,11.037,0,0,1,.051-1.111l-.051-.063-.455-.013c.013-.038.291-.631.569-1.2l.543-1.137a4.147,4.147,0,0,1,1.477-1.755,4.736,4.736,0,0,1,2.4-.682,2.22,2.22,0,0,1,.29-.013,12.855,12.855,0,0,1,6.139,1.957C359.556,274.617,365.8,284.354,365.8,291.629Z" transform="translate(-340.75 -266.23)" fill="url(#linear-gradient-7)"/>
            <path id="Trazado_101864" data-name="Trazado 101864" d="M358.215,295.992a9.208,9.208,0,0,1-4.274-1.43c-5.881-3.4-11.038-11.351-11.038-17.026,0-2.869,1.06-2.869,1.833-2.869a9.239,9.239,0,0,1,4.278,1.431c5.877,3.394,11.033,11.35,11.033,17.023C360.047,295.992,358.987,295.992,358.215,295.992Z" transform="translate(-341.083 -267.202)" fill="#d48853"/>
          </g>
          <path id="Trazado_101865" data-name="Trazado 101865" d="M356.638,292.657a8.741,8.741,0,0,1-.178,1.85,4.627,4.627,0,0,1-1.263,2.517.941.941,0,0,1-.008.134l-12.311,7.107-21.036,12.151-.926-1.379L316.852,309l-12.319-18.314,31.736-18.332s.027.009.063.018a4.277,4.277,0,0,1,2.464-.694,11.542,11.542,0,0,1,5.541,1.77,27.513,27.513,0,0,1,10.1,11.127A18.608,18.608,0,0,1,356.638,292.657Z" transform="translate(-294.562 -266.739)" fill="url(#linear-gradient-8)"/>
          <path id="Trazado_101866" data-name="Trazado 101866" d="M358.264,294.842a6.15,6.15,0,0,1-1.441,4.367.941.941,0,0,1-.008.134L323.468,318.6l-4.99-7.418c-.3-3.9-2.3-7-3.442-10.656,1.912,1.094,3.237,2.677,5.488,3.388a12.022,12.022,0,0,0,6.422.276c3.53-.844,6.466-3.211,9.641-4.971,2.082-1.156,4.287-2.072,6.449-3.06,3.317-1.512,6.17-4.19,9.291-6.075a7.319,7.319,0,0,0,2.847-2.526,4.337,4.337,0,0,0,.5-1.77C357.06,288.545,358.331,291.958,358.264,294.842Z" transform="translate(-296.188 -268.923)" fill="url(#linear-gradient-9)"/>
          <path id="Trazado_101867" data-name="Trazado 101867" d="M344.224,307.494l-20.307,11.723.926,1.379,21.036-12.151,12.311-7.107a.941.941,0,0,0,.008-.134,4.627,4.627,0,0,0,1.263-2.517Z" transform="translate(-297.562 -270.92)" fill="url(#linear-gradient-10)"/>
          <path id="Trazado_101868" data-name="Trazado 101868" d="M350.32,297.837a8.45,8.45,0,0,1-.1,1.343A4.94,4.94,0,0,1,348.9,302.2a.684.684,0,0,0-.018.134l-17.673,10.1v-.133a4.886,4.886,0,0,0,1.335-2.927,8.87,8.87,0,0,0,.107-1.441,17.419,17.419,0,0,0-1.6-6.777,28.275,28.275,0,0,0-4.661-7.33,24.432,24.432,0,0,0-6.039-5.105,14.105,14.105,0,0,0-3.291-1.423,8.367,8.367,0,0,0-2.242-.338,4.382,4.382,0,0,0-1.734.311l16.891-9.739a.388.388,0,0,1,.054.009,4.257,4.257,0,0,1,2.464-.685,8.53,8.53,0,0,1,2.134.3,14.232,14.232,0,0,1,3.4,1.468A24.382,24.382,0,0,1,344,283.668a28.431,28.431,0,0,1,4.7,7.32A17.314,17.314,0,0,1,350.32,297.837Z" transform="translate(-295.885 -267.542)" fill="#fccb27"/>
          <g id="Grupo_69522" data-name="Grupo 69522" transform="translate(0 23.076)">
            <path id="Trazado_101869" data-name="Trazado 101869" d="M322.8,316.376c0,2.046-.467,4.4-2.387,5.431l-3.713,2.148a4.017,4.017,0,0,0,1.579-1.6,8.047,8.047,0,0,0,.808-3.814c0-7.275-6.239-17.012-13.627-21.282a12.855,12.855,0,0,0-6.139-1.958,2.216,2.216,0,0,0-.29.013,4.736,4.736,0,0,0-2.4.682l3.689-2.134a1.331,1.331,0,0,1,.189-.1,4.868,4.868,0,0,1,2.538-.619,12.855,12.855,0,0,1,6.139,1.958C316.577,299.364,322.8,309.114,322.8,316.376Z" transform="translate(-293.339 -293.137)" fill="url(#linear-gradient-6)"/>
            <path id="Trazado_101870" data-name="Trazado 101870" d="M319.3,318.931a8.047,8.047,0,0,1-.808,3.814,2.432,2.432,0,0,1-.3.013l-3.082-.063-.253-.606a17.274,17.274,0,0,1-2.8-1.3c-7.376-4.257-13.616-14.007-13.616-21.282a10.79,10.79,0,0,1,.051-1.1l-.051-.063-.467-.013c.025-.051.3-.644.582-1.212s.543-1.137.543-1.137a1.947,1.947,0,0,1,.152-.278,2.215,2.215,0,0,1,.29-.013,12.855,12.855,0,0,1,6.139,1.958C313.057,301.919,319.3,311.656,319.3,318.931Z" transform="translate(-293.545 -293.532)" fill="#d44053"/>
            <path id="Trazado_101871" data-name="Trazado 101871" d="M318.616,318.931a8.047,8.047,0,0,1-.808,3.814,4.017,4.017,0,0,1-1.579,1.6l-.013.013a5.088,5.088,0,0,1-2.438.543l-3.082-.063-.253-.594a17.57,17.57,0,0,1-2.792-1.3c-7.388-4.269-13.627-14.007-13.627-21.282a11.04,11.04,0,0,1,.051-1.111l-.051-.063-.455-.014c.013-.037.291-.631.568-1.2s.543-1.137.543-1.137a4.148,4.148,0,0,1,1.477-1.755,4.736,4.736,0,0,1,2.4-.682,2.216,2.216,0,0,1,.29-.013,12.855,12.855,0,0,1,6.139,1.958C312.377,301.919,318.616,311.656,318.616,318.931Z" transform="translate(-292.865 -293.532)" fill="url(#linear-gradient-12)"/>
            <path id="Trazado_101872" data-name="Trazado 101872" d="M310.573,325.357a11.525,11.525,0,0,1-5.539-1.769c-6.666-3.85-12.3-12.648-12.3-19.212,0-2.461.756-5.4,4.359-5.4a11.526,11.526,0,0,1,5.54,1.77c6.666,3.849,12.3,12.647,12.3,19.212C314.932,322.424,314.176,325.357,310.573,325.357Z" transform="translate(-292.736 -294.041)" fill="url(#linear-gradient-13)"/>
            <path id="Trazado_101873" data-name="Trazado 101873" d="M311.035,323.294a9.209,9.209,0,0,1-4.273-1.43c-5.881-3.4-11.038-11.35-11.038-17.026,0-2.869,1.06-2.869,1.833-2.869a9.238,9.238,0,0,1,4.278,1.431c5.877,3.394,11.033,11.35,11.033,17.024C312.868,323.294,311.808,323.294,311.035,323.294Z" transform="translate(-293.198 -294.504)" fill="url(#linear-gradient-14)"/>
          </g>
          <path id="Trazado_101874" data-name="Trazado 101874" d="M344.724,283.723l-17.612,10.166a24.432,24.432,0,0,0-6.039-5.105,14.105,14.105,0,0,0-3.291-1.423l17.567-10.14a14.231,14.231,0,0,1,3.4,1.468A24.382,24.382,0,0,1,344.724,283.723Z" transform="translate(-296.613 -267.597)" fill="#fdde67"/>
          <path id="Trazado_101875" data-name="Trazado 101875" d="M353.61,300.424a8.45,8.45,0,0,1-.1,1.343l-17.682,10.2a8.87,8.87,0,0,0,.107-1.441,17.419,17.419,0,0,0-1.6-6.777l17.646-10.176A17.314,17.314,0,0,1,353.61,300.424Z" transform="translate(-299.175 -270.129)" fill="#eaa50a"/>
        </g>
        <path id="Trazado_101876" data-name="Trazado 101876" d="M406.931,360.591a1.994,1.994,0,0,0-.282.027c-4.728.336-7.234-2.021-9.712-4.405a61.631,61.631,0,0,1-5.254-6.345c-.472-.606-.93-1.2-1.414-1.777a32.654,32.654,0,0,0-3.611-3.732c-1.293-1.132-2.626-2.209-3.96-3.3-2.668-2.155-5.388-4.257-8.177-6.264-5.551-4.082-11.289-7.92-16.8-12.029-2.761-2.061-5.5-4.136-8.136-6.331a31.574,31.574,0,0,1-2.573-2.276,18.319,18.319,0,0,1-4.1-5.833,4.533,4.533,0,0,1,1.765-5.671,4.754,4.754,0,0,1,.579-.309,4.506,4.506,0,0,1,2.775-.27,18.478,18.478,0,0,1,6.844,3.085c.849.579,1.643,1.212,2.424,1.859,2.667,2.169,5.24,4.458,7.8,6.749,5.106,4.606,10,9.483,15.074,14.13,2.52,2.344,5.106,4.594,7.746,6.79,1.319,1.1,2.653,2.2,4,3.246.27.2.552.4.835.592a33.776,33.776,0,0,0,3.53,2.209c.822.445,1.67.876,2.519,1.293a55.861,55.861,0,0,1,6.749,3.664c2.829,1.98,5.631,3.961,6.223,8.675A5.587,5.587,0,0,1,406.931,360.591Z" transform="translate(-300.445 -271.428)" fill="url(#linear-gradient-15)"/>
        <path id="Trazado_101877" data-name="Trazado 101877" d="M411.781,354.368c-.592-4.715-3.394-6.695-6.223-8.675a57.057,57.057,0,0,0-6.908-3.746c-.8-.393-1.59-.8-2.36-1.211a33.776,33.776,0,0,1-3.53-2.209c-.283-.189-.565-.391-.835-.592-1.347-1.051-2.681-2.142-4-3.246-2.64-2.2-5.227-4.446-7.746-6.79-5.078-4.647-9.968-9.524-15.074-14.13-2.559-2.291-5.132-4.58-7.8-6.749-.78-.649-1.585-1.27-2.422-1.852l0-.007c-.035-.025-.074-.046-.11-.071q-.579-.4-1.184-.764c-.115-.069-.228-.142-.345-.21-.459-.265-.931-.516-1.417-.746-.131-.063-.268-.117-.4-.176q-.577-.257-1.185-.476c-.168-.061-.336-.121-.507-.177a16.97,16.97,0,0,0-1.694-.466,4.506,4.506,0,0,0-2.775.27,4.754,4.754,0,0,0-.579.309,4.533,4.533,0,0,0-1.765,5.671,18.319,18.319,0,0,0,4.1,5.833,4.69,4.69,0,0,1,.054-4.688c1.158-1.657,3.542-1.967,5.523-1.5a12.346,12.346,0,0,1,1.3.39l.062.041c10.076,7.031,18.738,15.814,27.9,23.937,2.405,2.129,4.85,4.218,7.359,6.223a8.675,8.675,0,0,1,2.965,9.388,15.333,15.333,0,0,0-.41,1.5c-.027.134-.054.282-.081.417a61.631,61.631,0,0,0,5.254,6.345c2.478,2.384,4.984,4.742,9.712,4.405a1.994,1.994,0,0,1,.282-.027A5.587,5.587,0,0,0,411.781,354.368Z" transform="translate(-300.445 -271.428)" fill="url(#linear-gradient-16)"/>
      </g>
      <g id="Grupo_69544" data-name="Grupo 69544" transform="translate(71.046)">
        <g id="Grupo_69531" data-name="Grupo 69531" transform="translate(0 3.624)">
          <g id="Grupo_69525" data-name="Grupo 69525" transform="translate(0 13.306)">
            <path id="Trazado_101878" data-name="Trazado 101878" d="M203.653,164.59A31.47,31.47,0,0,1,195.4,167.8a3.851,3.851,0,0,0-.8-4.534,7.631,7.631,0,0,0-1.84-1.433c-.034-.017-.067-.041-.108-.058a4.609,4.609,0,0,0-.456-.232,16.68,16.68,0,0,0-11.77-.738,11.469,11.469,0,0,0-1.889.745c-.183.084-.365.183-.539.282-2.793,1.616-3.672,3.92-2.635,5.967a31.355,31.355,0,0,1-8.255-3.208c-10.087-5.835-10.087-15.275,0-21.1a30.032,30.032,0,0,1,6.838-2.826c.066-.016.133-.041.207-.057a43.246,43.246,0,0,1,23.182.216c.34.091.68.2,1.019.314a29.5,29.5,0,0,1,5.3,2.354,20.029,20.029,0,0,1,3.837,2.826C213.516,152.051,212.24,159.626,203.653,164.59Z" transform="translate(-159.546 -139.121)" fill="#fccb27"/>
            <path id="Trazado_101879" data-name="Trazado 101879" d="M213.471,146.625l-12.888,16.949a7.631,7.631,0,0,0-1.84-1.433c-.034-.017-.067-.041-.108-.058a4.613,4.613,0,0,0-.456-.232l4.758-20.414c.124-.107.257-.207.381-.306.34.091.68.2,1.019.314a29.5,29.5,0,0,1,5.3,2.354A20.028,20.028,0,0,1,213.471,146.625Z" transform="translate(-165.525 -139.431)" fill="#fdde67"/>
            <path id="Trazado_101880" data-name="Trazado 101880" d="M198.291,173.042a6.482,6.482,0,0,1-2.632,2.553,16.294,16.294,0,0,1-14.761,0,6.5,6.5,0,0,1-2.64-2.553A43.891,43.891,0,0,0,198.291,173.042Z" transform="translate(-162.442 -144.37)" fill="#eaa50a"/>
            <path id="Trazado_101881" data-name="Trazado 101881" d="M198.215,171.626a43.891,43.891,0,0,1-20.032,0c-1.033-2.049-.158-4.35,2.64-5.966a16.294,16.294,0,0,1,14.761,0C198.38,167.276,199.254,169.577,198.215,171.626Z" transform="translate(-162.365 -142.954)" fill="#ffda32"/>
            <path id="Trazado_101882" data-name="Trazado 101882" d="M203.653,143.487c-10.1-5.824-26.448-5.824-36.542,0s-10.088,15.265,0,21.1a31.168,31.168,0,0,0,8.251,3.208,43.891,43.891,0,0,0,20.032,0,31.232,31.232,0,0,0,8.259-3.208C213.74,158.752,213.74,149.311,203.653,143.487Zm-.788,19.733a29.566,29.566,0,0,1-7.841,3.042,42.413,42.413,0,0,1-19.292,0,29.591,29.591,0,0,1-7.833-3.042c-4.374-2.53-6.777-5.792-6.777-9.189s2.411-6.659,6.777-9.181c4.65-2.679,10.852-4.153,17.479-4.153s12.838,1.473,17.487,4.153c4.366,2.522,6.777,5.785,6.777,9.181S207.239,160.691,202.866,163.22Z" transform="translate(-159.546 -139.12)" fill="#ffda32"/>
          </g>
          <g id="Grupo_69526" data-name="Grupo 69526" transform="translate(7.507)">
            <path id="Trazado_101883" data-name="Trazado 101883" d="M168.649,141.628a.221.221,0,0,1-.222-.222.221.221,0,0,1,.066-.158L186.6,123.44a.222.222,0,0,1,.378.159.22.22,0,0,1-.067.158L168.8,141.564A.221.221,0,0,1,168.649,141.628Z" transform="translate(-168.427 -123.376)" fill="#c5a370"/>
          </g>
          <g id="Grupo_69527" data-name="Grupo 69527" transform="translate(21.476 0.001)">
            <path id="Trazado_101884" data-name="Trazado 101884" d="M185.178,166.233h-.023a.223.223,0,0,1-.2-.243l4.138-42.411a.221.221,0,0,1,.149-.188.225.225,0,0,1,.233.056l24.86,25.815a.223.223,0,0,1-.321.309L189.49,124.1,185.4,166.032A.222.222,0,0,1,185.178,166.233Z" transform="translate(-184.955 -123.377)" fill="#c5a370"/>
          </g>
          <g id="Grupo_69528" data-name="Grupo 69528" transform="translate(49.808 25.35)">
            <path id="Trazado_101885" data-name="Trazado 101885" d="M219.892,154.388a.207.207,0,0,1-.207-.207.4.4,0,1,0-.795,0,.207.207,0,0,1-.415,0,.812.812,0,1,1,1.624,0A.207.207,0,0,1,219.892,154.388Z" transform="translate(-218.475 -153.369)" fill="#edb100"/>
          </g>
          <g id="Grupo_69529" data-name="Grupo 69529" transform="translate(20.886 41.944)">
            <path id="Trazado_101886" data-name="Trazado 101886" d="M185.673,174.02a.207.207,0,0,1-.207-.207.4.4,0,0,0-.794,0,.207.207,0,0,1-.415,0,.812.812,0,0,1,1.624,0A.207.207,0,0,1,185.673,174.02Z" transform="translate(-184.256 -173.002)" fill="#edb100"/>
          </g>
          <g id="Grupo_69530" data-name="Grupo 69530" transform="translate(7.089 17.218)">
            <path id="Trazado_101887" data-name="Trazado 101887" d="M169.35,144.766a.207.207,0,0,1-.207-.207.4.4,0,1,0-.794,0,.208.208,0,0,1-.415,0,.812.812,0,1,1,1.624,0A.207.207,0,0,1,169.35,144.766Z" transform="translate(-167.933 -143.747)" fill="#edb100"/>
          </g>
        </g>
        <g id="Grupo_69532" data-name="Grupo 69532" transform="translate(57.101 125.053)">
          <path id="Trazado_101888" data-name="Trazado 101888" d="M275.479,298.983a39.076,39.076,0,0,1-16.757,4.679c-8.3.56-16.945-1.006-23.313-4.679-9.908-5.71-10.949-14.6-3.131-20.991a23.162,23.162,0,0,1,3.131-2.143c.481-.276.97-.543,1.477-.792,10.629-5.337,26.488-5.337,37.118,0,.347.169.685.347,1.023.543.151.08.3.16.454.249a22.261,22.261,0,0,1,3.122,2.143C286.419,284.37,285.379,293.265,275.479,298.983Z" transform="translate(-227.103 -267.663)" fill="url(#linear-gradient-17)"/>
          <path id="Trazado_101889" data-name="Trazado 101889" d="M281.269,299.654a39.077,39.077,0,0,1-16.757,4.679c2.97-2.143,6.395-5.782,6.733-9.607a6.137,6.137,0,0,0,.035-.693c0-.428.009-.855.027-1.272a19.517,19.517,0,0,1,4.429-11.776,25.8,25.8,0,0,1,4.768-4.475,3.654,3.654,0,0,1,.311-.24c.427-.3.854-.605,1.3-.881a11.083,11.083,0,0,1,2.277,3.273C292.21,285.041,291.169,293.936,281.269,299.654Z" transform="translate(-232.894 -268.334)" fill="url(#linear-gradient-18)"/>
          <path id="Trazado_101890" data-name="Trazado 101890" d="M280.117,281.952a10.472,10.472,0,0,1-3.531,6.227,18.413,18.413,0,0,1-3.4,2.464,28.736,28.736,0,0,1-6.929,2.793c-8.85,2.349-19.666,1.423-26.95-2.793-6.227-3.594-8.308-8.681-6.227-13.271a14.383,14.383,0,0,1,6.227-6.28c9.357-5.4,24.522-5.4,33.88,0a18.011,18.011,0,0,1,3.94,3.006,11.083,11.083,0,0,1,2.277,3.273A8.179,8.179,0,0,1,280.117,281.952Z" transform="translate(-227.908 -267.042)" fill="url(#linear-gradient-19)"/>
          <path id="Trazado_101891" data-name="Trazado 101891" d="M278.007,281.894a9.58,9.58,0,0,1-3.425,5.684,16.644,16.644,0,0,1-2.749,1.947c-8.352,4.821-21.889,4.821-30.242,0s-8.343-12.639,0-17.46,21.89-4.821,30.242,0C276.5,274.752,278.55,278.372,278.007,281.894Z" transform="translate(-228.377 -267.26)" fill="url(#linear-gradient-20)"/>
        </g>
        <path id="Trazado_101892" data-name="Trazado 101892" d="M263.064,183.35v82.669a1.476,1.476,0,0,1-.874,1.219,4.4,4.4,0,0,1-2.415.483,3.932,3.932,0,0,1-1.794-.483,1.476,1.476,0,0,1-.874-1.219V183.35Z" transform="translate(-174.647 -129.035)" fill="url(#linear-gradient-21)"/>
        <path id="Trazado_101893" data-name="Trazado 101893" d="M263.286,206.369v63.212a1.476,1.476,0,0,1-.874,1.219,4.4,4.4,0,0,1-2.415.483c1.713-5.009,1.673-39.339,1.012-56.876-.046-1.288-.2-2.749-1.219-3.53-1.541-1.184-1.76-1.368-.092-2.875A5.1,5.1,0,0,1,263.286,206.369Z" transform="translate(-174.868 -132.597)" fill="url(#linear-gradient-22)"/>
        <g id="Grupo_69534" data-name="Grupo 69534" transform="translate(22.666 2.466)">
          <g id="Grupo_69533" data-name="Grupo 69533">
            <path id="Trazado_101894" data-name="Trazado 101894" d="M254.253,138.057a1.907,1.907,0,0,0-1.483.287,4.638,4.638,0,0,0-2.231,3.519,1.266,1.266,0,0,0,.46,1.081c-11.464-6.313-22.446-9.532-27.862-7.244-11.166,4.715-25.448-1.967-35.452-8.395a2.88,2.88,0,0,1-.862-3.978,2.759,2.759,0,0,1,.954-.909,2.845,2.845,0,0,1,3.024.046c6.555,4.22,18.3,10.545,27.368,8.751a13.082,13.082,0,0,0,2.726-.816,18.782,18.782,0,0,1,8.969-1.092,45.011,45.011,0,0,1,11.729,2.817A85.27,85.27,0,0,1,254.253,138.057Z" transform="translate(-186.362 -122.006)" fill="url(#linear-gradient-23)"/>
          </g>
        </g>
        <path id="Trazado_101895" data-name="Trazado 101895" d="M262.194,181.816a1.285,1.285,0,0,1,0,2.434,4.661,4.661,0,0,1-4.216,0,1.285,1.285,0,0,1,0-2.434A4.655,4.655,0,0,1,262.194,181.816Z" transform="translate(-174.646 -128.719)" fill="url(#linear-gradient-24)"/>
        <path id="Trazado_101896" data-name="Trazado 101896" d="M266.775,193.211h-.023c.138,1.208-.587,2.438-2.173,3.358a11.343,11.343,0,0,1-6.566,1.2,10.787,10.787,0,0,1-1.736-.287,9.731,9.731,0,0,1-1.714-.587c-.206-.1-.425-.207-.62-.322a5.534,5.534,0,0,1-.667-.449c-.012-.011-.035-.023-.046-.035a3.469,3.469,0,0,1-.38-.321l-.046-.046a2.972,2.972,0,0,1-1.046-2.507h-.023V129.827h15.041Z" transform="translate(-173.815 -120.75)" fill="url(#linear-gradient-25)"/>
        <path id="Trazado_101897" data-name="Trazado 101897" d="M256.794,134.507v63.661a9.729,9.729,0,0,1-1.714-.587V133.909A8.872,8.872,0,0,0,256.794,134.507Z" transform="translate(-174.333 -121.382)" fill="url(#linear-gradient-26)"/>
        <path id="Trazado_101898" data-name="Trazado 101898" d="M253.424,132.821v63.672a3.469,3.469,0,0,1-.38-.321l-.046-.046V132.453l.046.046A2.573,2.573,0,0,0,253.424,132.821Z" transform="translate(-174.011 -121.157)" fill="url(#linear-gradient-27)"/>
        <path id="Trazado_101899" data-name="Trazado 101899" d="M267.924,193.211H267.9c.138,1.208-.587,2.438-2.173,3.358a11.343,11.343,0,0,1-6.566,1.2,7.616,7.616,0,0,0,4.427-4.025c1.2-2.507,1.3-5.37,1.368-8.142q.363-12.332.7-24.654c.069-2.277.127-4.565.092-6.842-.08-5.98-.839-11.925-.748-17.9a14.19,14.19,0,0,1,.931-6.014,3.689,3.689,0,0,0,.161-.357h1.828Z" transform="translate(-174.965 -120.75)" fill="url(#linear-gradient-28)"/>
        <path id="Trazado_101900" data-name="Trazado 101900" d="M266.327,130.516a4.96,4.96,0,0,1-1.748,1.587,11.826,11.826,0,0,1-8.3.92,8.873,8.873,0,0,1-1.714-.6,6.44,6.44,0,0,1-.62-.322,5.534,5.534,0,0,1-.667-.449c-.012-.011-.035-.023-.046-.035a2.573,2.573,0,0,1-.38-.322l-.046-.046a2.85,2.85,0,0,1,.046-4.485l.069-.069a6.019,6.019,0,0,1,1.024-.736,11.8,11.8,0,0,1,10.637,0,6.144,6.144,0,0,1,1.069.783A2.833,2.833,0,0,1,266.327,130.516Z" transform="translate(-173.815 -119.956)" fill="url(#linear-gradient-29)"/>
        <path id="Trazado_101901" data-name="Trazado 101901" d="M267.683,130.891a9.089,9.089,0,0,1-2,.437c-1.173.127-7.084.184-4.565-2.208a4.354,4.354,0,0,1,1.553-.851A20.789,20.789,0,0,1,267,127.12,2.833,2.833,0,0,1,267.683,130.891Z" transform="translate(-175.172 -120.331)" fill="url(#linear-gradient-30)"/>
        <path id="Trazado_101902" data-name="Trazado 101902" d="M264.464,125.308a4.692,4.692,0,1,1-9.384,0v-.023a4.7,4.7,0,0,1,4.692-4.669,4.824,4.824,0,0,1,.816.069A4.705,4.705,0,0,1,264.464,125.308Z" transform="translate(-174.333 -119.325)" fill="url(#linear-gradient-31)"/>
        <path id="Trazado_101903" data-name="Trazado 101903" d="M260.588,122.341a5.805,5.805,0,0,1-1.471,2.6,3.67,3.67,0,0,1-2.737,1.069,1.86,1.86,0,0,1-.7-.183,1.828,1.828,0,0,1-.552-.472c-.012-.024-.035-.046-.046-.069a4.7,4.7,0,0,1,4.692-4.669,4.824,4.824,0,0,1,.816.069A2.477,2.477,0,0,1,260.588,122.341Z" transform="translate(-174.333 -119.325)" fill="url(#linear-gradient-32)"/>
        <path id="Trazado_101904" data-name="Trazado 101904" d="M218.426,131.215a11.84,11.84,0,0,1-1.724,1c-3.565,1.632-7.74.575-11.408-.805a72.258,72.258,0,0,1-14.363-7.325c-.69-.472-1.391-.943-2.116-1.346-.172-.092-.472-.2-.782-.322a2.845,2.845,0,0,1,3.024.046C197.613,126.684,209.354,133.009,218.426,131.215Z" transform="translate(-163.955 -119.54)" fill="url(#linear-gradient-33)"/>
        <path id="Trazado_101905" data-name="Trazado 101905" d="M249.478,135.5a33.244,33.244,0,0,1-7.624-2.76c-1.346-.679-2.657-1.45-4.025-2.093a45.011,45.011,0,0,1,11.729,2.817A3.816,3.816,0,0,1,249.478,135.5Z" transform="translate(-171.663 -120.877)" fill="url(#linear-gradient-34)"/>
        <g id="Grupo_69535" data-name="Grupo 69535" transform="translate(23.471)">
          <path id="Trazado_101906" data-name="Trazado 101906" d="M191.052,120.962a1.872,1.872,0,0,1-1.874,1.863,1.772,1.772,0,0,1-1.415-.678h-.011a1.81,1.81,0,0,1-.437-1.185,1.864,1.864,0,0,1,1.863-1.874,1.9,1.9,0,0,1,.724.15A1.877,1.877,0,0,1,191.052,120.962Z" transform="translate(-187.315 -119.088)" fill="#fddd00"/>
          <path id="Trazado_101907" data-name="Trazado 101907" d="M191.134,120.989a1.872,1.872,0,0,1-1.874,1.863,1.772,1.772,0,0,1-1.415-.678,2.972,2.972,0,0,0,.644.011c1.909-.207,1.265-1.679,1.5-2.92A1.877,1.877,0,0,1,191.134,120.989Z" transform="translate(-187.397 -119.115)" fill="#e2a900"/>
        </g>
        <path id="Trazado_101908" data-name="Trazado 101908" d="M287.774,284.632a10.472,10.472,0,0,1-3.531,6.227c-.418-.134-1.3-.427-2.473-.818a9.58,9.58,0,0,0,3.425-5.684C286.048,284.454,286.911,284.552,287.774,284.632Z" transform="translate(-178.464 -144.669)" fill="url(#linear-gradient-35)"/>
        <path id="Trazado_101909" data-name="Trazado 101909" d="M281.955,283.888a9.58,9.58,0,0,1-3.425,5.684c-4.652-1.575-13.947-4.786-17.691-6.618.533-1.076,2.419-1.538,3.567-1.61a13.089,13.089,0,0,1,3.264.365Q274.767,283.083,281.955,283.888Z" transform="translate(-175.224 -144.201)" fill="url(#linear-gradient-36)"/>
        <path id="Trazado_101910" data-name="Trazado 101910" d="M268.31,141.9v6.377a3.206,3.206,0,0,1-.08.694,6.208,6.208,0,0,1-2.766,3.8c-1.565.908-2.846.365-2.846-1.2V145.19a5.887,5.887,0,0,1,2.472-4.251,4.413,4.413,0,0,1,.374-.24,2.83,2.83,0,0,1,1.414-.436C267.732,140.262,268.31,140.849,268.31,141.9Z" transform="translate(-175.5 -122.365)" fill="url(#linear-gradient-37)"/>
        <path id="Trazado_101911" data-name="Trazado 101911" d="M326.143,200.21a2.887,2.887,0,0,1-2.428,1.334,2.846,2.846,0,0,1-.552-.063,2.749,2.749,0,0,1-.987-.391,85.849,85.849,0,0,1-26.684-26.559c-6.057-9.562-16.526-18.7-27.261-25.456-1.734-1.095-3.487-2.126-5.221-3.087a.506.506,0,0,1-.2-.116.689.689,0,0,1-.187-.177v-.4a5.887,5.887,0,0,1,2.472-4.251,1.543,1.543,0,0,1,.969-.053.856.856,0,0,1,.125.071c.079.045.16.089.231.124.631.356,1.263.729,1.895,1.112,12.933,7.712,25.421,18.723,32.038,29.156a80.123,80.123,0,0,0,24.905,24.789A2.881,2.881,0,0,1,326.143,200.21Z" transform="translate(-175.5 -122.469)" fill="url(#linear-gradient-38)"/>
        <path id="Trazado_101912" data-name="Trazado 101912" d="M326.678,200.206a2.883,2.883,0,0,1-2.427,1.334,2.992,2.992,0,0,1-.552-.057,3.405,3.405,0,0,0,.506-2.7,3.13,3.13,0,0,0-.863-1.116c-5.6-5.4-12.638-9.269-17.617-15.248-2.76-3.3-4.784-7.141-7.2-10.694-6.267-9.188-15.063-16.329-24.252-22.573A30.726,30.726,0,0,1,268,144.044a11.771,11.771,0,0,1-1.9-3.115,1.025,1.025,0,0,1,.854.25c13.593,7.751,27,19.331,33.934,30.266a80.087,80.087,0,0,0,24.908,24.793A2.871,2.871,0,0,1,326.678,200.206Z" transform="translate(-176.038 -122.466)" fill="url(#linear-gradient-39)"/>
        <g id="Grupo_69536" data-name="Grupo 69536" transform="translate(146.305 71.507)">
          <path id="Trazado_101913" data-name="Trazado 101913" d="M336.381,205.565a1.873,1.873,0,0,1-1.874,1.863,1.773,1.773,0,0,1-1.415-.679h-.011a1.81,1.81,0,0,1-.437-1.184,1.865,1.865,0,0,1,1.863-1.875,1.9,1.9,0,0,1,.724.15A1.876,1.876,0,0,1,336.381,205.565Z" transform="translate(-332.644 -203.69)" fill="#fddd00"/>
          <path id="Trazado_101914" data-name="Trazado 101914" d="M336.463,205.592a1.873,1.873,0,0,1-1.874,1.863,1.773,1.773,0,0,1-1.415-.679,3.025,3.025,0,0,0,.644.012c1.909-.207,1.265-1.679,1.5-2.921A1.876,1.876,0,0,1,336.463,205.592Z" transform="translate(-332.726 -203.717)" fill="#e2a900"/>
        </g>
        <g id="Grupo_69543" data-name="Grupo 69543" transform="translate(120.67 76.515)">
          <g id="Grupo_69537" data-name="Grupo 69537" transform="translate(0 14.264)">
            <path id="Trazado_101915" data-name="Trazado 101915" d="M349.65,253.827a33.77,33.77,0,0,1-8.859,3.442,4.131,4.131,0,0,0-.854-4.865,8.22,8.22,0,0,0-1.974-1.539c-.035-.018-.072-.044-.116-.062a4.934,4.934,0,0,0-.489-.249,17.893,17.893,0,0,0-12.63-.791,12.28,12.28,0,0,0-2.029.8c-.2.089-.391.2-.578.3-3,1.735-3.94,4.207-2.828,6.4a33.655,33.655,0,0,1-8.86-3.442c-10.825-6.262-10.825-16.393,0-22.646a32.2,32.2,0,0,1,7.338-3.033c.071-.018.143-.044.222-.062a46.421,46.421,0,0,1,24.879.231c.364.1.729.214,1.094.338a31.672,31.672,0,0,1,5.684,2.526,21.509,21.509,0,0,1,4.118,3.033C360.234,240.369,358.865,248.5,349.65,253.827Z" transform="translate(-302.315 -226.494)" fill="#fccb27"/>
            <path id="Trazado_101916" data-name="Trazado 101916" d="M360.186,234.546l-13.831,18.19a8.22,8.22,0,0,0-1.974-1.539c-.035-.018-.072-.044-.116-.062a4.934,4.934,0,0,0-.489-.249l5.105-21.907c.134-.116.276-.222.41-.33.364.1.729.214,1.094.338a31.67,31.67,0,0,1,5.684,2.526A21.508,21.508,0,0,1,360.186,234.546Z" transform="translate(-308.732 -226.826)" fill="#fdde67"/>
            <path id="Trazado_101917" data-name="Trazado 101917" d="M343.9,262.9a6.952,6.952,0,0,1-2.826,2.74,17.485,17.485,0,0,1-15.84,0,6.976,6.976,0,0,1-2.833-2.74A47.074,47.074,0,0,0,343.9,262.9Z" transform="translate(-305.423 -232.127)" fill="#eaa50a"/>
            <path id="Trazado_101918" data-name="Trazado 101918" d="M343.814,261.376a47.074,47.074,0,0,1-21.5,0c-1.107-2.2-.169-4.668,2.833-6.4a17.485,17.485,0,0,1,15.84,0C343.991,256.708,344.929,259.178,343.814,261.376Z" transform="translate(-305.341 -230.608)" fill="#ffda32"/>
            <path id="Trazado_101919" data-name="Trazado 101919" d="M349.65,231.18c-10.834-6.25-28.382-6.25-39.216,0s-10.825,16.382,0,22.64a33.445,33.445,0,0,0,8.854,3.442,47.075,47.075,0,0,0,21.5,0,33.5,33.5,0,0,0,8.863-3.442C360.475,247.562,360.475,237.429,349.65,231.18Zm-.846,21.177a31.713,31.713,0,0,1-8.415,3.264,45.519,45.519,0,0,1-20.7,0,31.744,31.744,0,0,1-8.406-3.264c-4.694-2.715-7.274-6.216-7.274-9.861s2.588-7.146,7.274-9.853c4.989-2.875,11.645-4.457,18.758-4.457s13.777,1.581,18.766,4.457c4.685,2.706,7.273,6.207,7.273,9.853S353.5,249.642,348.8,252.356Z" transform="translate(-302.315 -226.492)" fill="#ffda32"/>
          </g>
          <g id="Grupo_69538" data-name="Grupo 69538" transform="translate(8.072 0)">
            <path id="Trazado_101920" data-name="Trazado 101920" d="M312.087,229.171a.221.221,0,0,1-.159-.067.222.222,0,0,1,0-.314l19.433-19.109a.222.222,0,1,1,.311.317l-19.433,19.109A.218.218,0,0,1,312.087,229.171Z" transform="translate(-311.865 -209.616)" fill="#c5a370"/>
          </g>
          <g id="Grupo_69539" data-name="Grupo 69539" transform="translate(23.064)">
            <path id="Trazado_101921" data-name="Trazado 101921" d="M329.825,255.576H329.8a.222.222,0,0,1-.2-.243l4.441-45.515a.222.222,0,0,1,.381-.133l26.679,27.7a.224.224,0,0,1-.005.314.221.221,0,0,1-.314-.006L334.441,210.34l-4.394,45.035A.224.224,0,0,1,329.825,255.576Z" transform="translate(-329.603 -209.616)" fill="#c5a370"/>
          </g>
          <g id="Grupo_69540" data-name="Grupo 69540" transform="translate(53.453 27.189)">
            <path id="Trazado_101922" data-name="Trazado 101922" d="M367.077,242.878a.222.222,0,0,1-.222-.222.426.426,0,0,0-.853,0,.222.222,0,0,1-.445,0,.871.871,0,1,1,1.742,0A.222.222,0,0,1,367.077,242.878Z" transform="translate(-365.557 -241.784)" fill="#edb100"/>
          </g>
          <g id="Grupo_69541" data-name="Grupo 69541" transform="translate(22.414 44.997)">
            <path id="Trazado_101923" data-name="Trazado 101923" d="M330.354,263.947a.222.222,0,0,1-.222-.222.426.426,0,0,0-.853,0,.222.222,0,1,1-.445,0,.871.871,0,1,1,1.742,0A.222.222,0,0,1,330.354,263.947Z" transform="translate(-328.834 -262.853)" fill="#edb100"/>
          </g>
          <g id="Grupo_69542" data-name="Grupo 69542" transform="translate(7.609 18.461)">
            <path id="Trazado_101924" data-name="Trazado 101924" d="M312.837,232.552a.223.223,0,0,1-.222-.222.426.426,0,1,0-.853,0,.222.222,0,0,1-.445,0,.871.871,0,1,1,1.742,0A.223.223,0,0,1,312.837,232.552Z" transform="translate(-311.317 -231.458)" fill="#edb100"/>
          </g>
        </g>
      </g>
      <g id="Grupo_69571" data-name="Grupo 69571" transform="translate(0 129.824)">
        <g id="Grupo_69570" data-name="Grupo 69570" transform="translate(0 0)">
          <path id="Trazado_101925" data-name="Trazado 101925" d="M76.752,332.407c-1.482,3.286-1.494,17.086,0,22.289L181.37,283.287l-.033-10.373Z" transform="translate(-75.511 -272.723)" fill="#8e5145"/>
          <g id="Grupo_69547" data-name="Grupo 69547" transform="translate(1.241 10.564)">
            <g id="Grupo_69545" data-name="Grupo 69545">
              <path id="Trazado_101926" data-name="Trazado 101926" d="M156.5,402.52,76.956,356.6l104.618-71.409,79.561,56.683Z" transform="translate(-76.956 -285.187)" fill="#ac6860"/>
            </g>
            <g id="Grupo_69546" data-name="Grupo 69546" transform="translate(14.65 8.458)">
              <path id="Trazado_101927" data-name="Trazado 101927" d="M155.725,384.6l-61.436-35.47.456-.263c1.656-.956,1.656-2.511,0-3.467l-.456-.264L180.8,295.194l.456.264a6.644,6.644,0,0,0,6,0l.456-.264,61.435,35.47-.456.263c-1.656.956-1.656,2.511,0,3.467l.456.264L162.642,384.6l-.456-.264a6.646,6.646,0,0,0-6.005,0ZM96.088,349.119l59.663,34.447a8.924,8.924,0,0,1,6.865,0l84.736-48.923a2.246,2.246,0,0,1,0-3.963l-59.663-34.447a8.922,8.922,0,0,1-6.864,0L96.088,345.155A2.246,2.246,0,0,1,96.088,349.119Z" transform="translate(-94.289 -295.194)" fill="#e8bb45"/>
            </g>
          </g>
          <g id="Grupo_69548" data-name="Grupo 69548" transform="translate(3.198 58.781)">
            <path id="Trazado_101928" data-name="Trazado 101928" d="M156.966,386.5v22.123l-74.473-43v-.009l-2.19-1.259c-.977-3.158-1.3-17.532-.8-19.961a6.12,6.12,0,0,1,.8-2.163Z" transform="translate(-79.271 -342.234)" fill="#ffebe2"/>
          </g>
          <path id="Trazado_101929" data-name="Trazado 101929" d="M107.356,380.336c8.414,4.762,16.776,9.613,25.165,14.418,8.355,4.862,16.738,9.679,25.068,14.584-8.413-4.762-16.775-9.613-25.165-14.418C124.069,390.057,115.687,385.242,107.356,380.336Z" transform="translate(-80.421 -289.35)" fill="#f0cdbd"/>
          <g id="Grupo_69549" data-name="Grupo 69549" transform="translate(104.057 0.548)">
            <path id="Trazado_101930" data-name="Trazado 101930" d="M276.3,339.724l-76.662-55.268c-1.318-4.269-1.446-8.907,0-11.12L276.3,317.6Z" transform="translate(-198.601 -273.336)" fill="#ffebe2"/>
          </g>
          <g id="Grupo_69567" data-name="Grupo 69567" transform="translate(1.241)">
            <g id="Grupo_69550" data-name="Grupo 69550">
              <path id="Trazado_101931" data-name="Trazado 101931" d="M156.5,378.3,76.956,332.372l102.3-59.063a4.638,4.638,0,0,1,4.635,0L261.119,317.9Z" transform="translate(-76.956 -272.688)" fill="url(#linear-gradient-40)"/>
            </g>
            <g id="Grupo_69551" data-name="Grupo 69551" transform="translate(14.65 7.742)">
              <path id="Trazado_101932" data-name="Trazado 101932" d="M155.725,371.257l-61.436-35.47.456-.264c1.656-.955,1.656-2.51,0-3.466l-.456-.264L180.8,281.847l.456.264a6.644,6.644,0,0,0,6,0l.456-.264,61.435,35.47-.456.263c-1.656.956-1.656,2.511,0,3.467l.456.264-86.509,49.945-.456-.263a6.646,6.646,0,0,0-6.005,0ZM96.088,335.772l59.663,34.447a8.924,8.924,0,0,1,6.865,0L247.352,321.3a2.246,2.246,0,0,1,0-3.963l-59.663-34.447a8.922,8.922,0,0,1-6.864,0L96.088,331.808A2.246,2.246,0,0,1,96.088,335.772Z" transform="translate(-94.289 -281.847)" fill="url(#linear-gradient-41)"/>
            </g>
            <g id="Grupo_69566" data-name="Grupo 69566" transform="translate(63.044 31.893)">
              <g id="Grupo_69552" data-name="Grupo 69552">
                <path id="Trazado_101933" data-name="Trazado 101933" d="M155.485,315.638l-.542.412a11.409,11.409,0,0,1-2.14-.983q-1.417-.818-1.237-1.592t2.054-1.856a7.988,7.988,0,0,1,3.214-1.186,4.746,4.746,0,0,1,2.759.713,8.5,8.5,0,0,1,1.6,1.143l-.724.319q-.77-.544-1.617-1.033a2.989,2.989,0,0,0-1.9-.434,7.1,7.1,0,0,0-2.444.988q-1.5.868-1.712,1.411t.751,1.1A19.313,19.313,0,0,0,155.485,315.638Z" transform="translate(-151.546 -310.421)" fill="#81554f"/>
              </g>
              <g id="Grupo_69553" data-name="Grupo 69553" transform="translate(5.077 4.051)">
                <path id="Trazado_101934" data-name="Trazado 101934" d="M163.557,315.87q1.2.691,1.137,1.293t-1.393,1.37a5.247,5.247,0,0,1-2.373.8,4.222,4.222,0,0,1-2.24-.656q-1.189-.687-1.132-1.291t1.389-1.373a5.223,5.223,0,0,1,2.378-.8A4.225,4.225,0,0,1,163.557,315.87Zm0,1.216q.081-.382-.68-.821a2.473,2.473,0,0,0-1.417-.391,4.21,4.21,0,0,0-1.665.631q-1.008.582-1.093.961t.674.818a2.507,2.507,0,0,0,1.423.393,4.165,4.165,0,0,0,1.668-.629Q163.471,317.468,163.552,317.086Z" transform="translate(-157.553 -315.214)" fill="#81554f"/>
              </g>
              <g id="Grupo_69554" data-name="Grupo 69554" transform="translate(9.779 6.76)">
                <path id="Trazado_101935" data-name="Trazado 101935" d="M168.431,318.815l-.675.456a7.216,7.216,0,0,1,2.919.708q1.256.725-.019,1.461l-3.471,2-.809-.467,3.243-1.872c.305-.176.467-.327.485-.456s-.091-.262-.333-.4a3.27,3.27,0,0,0-.937-.343q-.555-.124-1.583-.266l-3.329,1.922-.808-.467,4.632-2.674Z" transform="translate(-163.115 -318.419)" fill="#81554f"/>
              </g>
              <g id="Grupo_69555" data-name="Grupo 69555" transform="translate(15.162 10.091)">
                <path id="Trazado_101936" data-name="Trazado 101936" d="M173.611,325.031l-1.027-.945c-.292-.27-.418-.508-.38-.713s.247-.418.627-.637a2.306,2.306,0,0,1,1.437-.362,4.481,4.481,0,0,1,1.645.669,18.323,18.323,0,0,1,1.807,1.208l-.656.3q-1.4-.862-1.712-1.043a4.18,4.18,0,0,0-1.008-.484,1.009,1.009,0,0,0-.723.165c-.221.128-.325.244-.309.348a.917.917,0,0,0,.32.426l1.046.955a.986.986,0,0,1,.4.719q-.029.308-.6.637a2.328,2.328,0,0,1-1.516.359,5.46,5.46,0,0,1-1.794-.733,13.9,13.9,0,0,1-1.683-1.126l.647-.307q.759.493,1.559.944a4.938,4.938,0,0,0,1.208.554,1.089,1.089,0,0,0,.8-.143c.21-.121.3-.236.266-.346A1.224,1.224,0,0,0,173.611,325.031Z" transform="translate(-169.484 -322.36)" fill="#81554f"/>
              </g>
              <g id="Grupo_69556" data-name="Grupo 69556" transform="translate(21.029 12.152)">
                <path id="Trazado_101937" data-name="Trazado 101937" d="M180.687,326.424l-2.721,1.57c-.221.128-.333.247-.333.357s.114.231.342.363l.7.407-.523.412a6.137,6.137,0,0,1-1.17-.532c-.387-.224-.574-.456-.561-.7s.222-.48.628-.714l2.825-1.63-.837-.483.589-.341.876.461,1.379-.8.809.467-1.37.791,1.474.85-.637.369Z" transform="translate(-176.425 -324.799)" fill="#81554f"/>
              </g>
              <g id="Grupo_69557" data-name="Grupo 69557" transform="translate(23.796 13.767)">
                <path id="Trazado_101938" data-name="Trazado 101938" d="M186.51,326.78l.38.22c.165.1.166.191,0,.286l-.543.313a.462.462,0,0,1-.494,0l-.38-.22q-.247-.142,0-.286l.542-.313A.466.466,0,0,1,186.51,326.78Zm-6.01,4.152-.8-.461,4.632-2.674.8.461Z" transform="translate(-179.7 -326.709)" fill="#81554f"/>
              </g>
              <g id="Grupo_69558" data-name="Grupo 69558" transform="translate(27.011 15.606)">
                <path id="Trazado_101939" data-name="Trazado 101939" d="M187.765,330.51l-2.72,1.57c-.222.128-.333.247-.333.358s.114.231.342.362l.7.406-.523.412a6.113,6.113,0,0,1-1.17-.532q-.581-.335-.561-.7t.628-.714l2.825-1.63-.838-.484.59-.34.876.461,1.379-.8.808.467-1.369.79,1.474.851-.637.368Z" transform="translate(-183.503 -328.885)" fill="#81554f"/>
              </g>
              <g id="Grupo_69559" data-name="Grupo 69559" transform="translate(30.224 18.269)">
                <path id="Trazado_101940" data-name="Trazado 101940" d="M195.391,334.326,190.759,337l-.647-.374.609-.417a6.808,6.808,0,0,1-2.787-.7q-1.265-.73.009-1.466l3.481-2.01.808.467-3.252,1.878q-.448.247-.457.451t.391.434a3.13,3.13,0,0,0,.871.321q.517.118,1.411.228l3.386-1.955Z" transform="translate(-187.304 -332.036)" fill="#81554f"/>
              </g>
              <g id="Grupo_69560" data-name="Grupo 69560" transform="translate(36.056 20.828)">
                <path id="Trazado_101941" data-name="Trazado 101941" d="M198.466,336.689l-2.72,1.57c-.221.128-.333.248-.333.358s.114.231.342.363l.7.407-.523.412a6.069,6.069,0,0,1-1.17-.533q-.581-.335-.561-.7t.628-.714l2.825-1.631-.838-.483.59-.34.876.461,1.379-.8.809.467-1.37.79,1.474.851-.637.368Z" transform="translate(-194.204 -335.064)" fill="#81554f"/>
              </g>
              <g id="Grupo_69561" data-name="Grupo 69561" transform="translate(38.823 22.442)">
                <path id="Trazado_101942" data-name="Trazado 101942" d="M204.289,337.045l.38.22q.247.142,0,.286l-.543.313a.464.464,0,0,1-.494,0l-.38-.22c-.166-.1-.166-.19,0-.286l.542-.313A.463.463,0,0,1,204.289,337.045Zm-6.01,4.151-.8-.461,4.632-2.674.8.461Z" transform="translate(-197.479 -336.973)" fill="#81554f"/>
              </g>
              <g id="Grupo_69562" data-name="Grupo 69562" transform="translate(41.846 25.28)">
                <path id="Trazado_101943" data-name="Trazado 101943" d="M207.059,340.985q1.2.692,1.137,1.293t-1.394,1.37a5.236,5.236,0,0,1-2.373.8,4.227,4.227,0,0,1-2.24-.656q-1.189-.687-1.132-1.291t1.388-1.373a5.216,5.216,0,0,1,2.378-.8A4.231,4.231,0,0,1,207.059,340.985Zm-.005,1.216q.081-.382-.68-.821a2.481,2.481,0,0,0-1.417-.39,4.2,4.2,0,0,0-1.664.631q-1.008.582-1.094.961t.675.818a2.5,2.5,0,0,0,1.422.392,4.16,4.16,0,0,0,1.669-.629Q206.973,342.583,207.053,342.2Z" transform="translate(-201.055 -340.33)" fill="#81554f"/>
              </g>
              <g id="Grupo_69563" data-name="Grupo 69563" transform="translate(46.546 27.988)">
                <path id="Trazado_101944" data-name="Trazado 101944" d="M211.932,343.931l-.675.456a7.2,7.2,0,0,1,2.919.708q1.256.725-.019,1.461l-3.471,2-.809-.467,3.244-1.872q.456-.264.484-.456t-.333-.4a3.326,3.326,0,0,0-.936-.343q-.557-.123-1.584-.266l-3.329,1.922-.808-.467,4.632-2.674Z" transform="translate(-206.616 -343.535)" fill="#81554f"/>
              </g>
              <g id="Grupo_69564" data-name="Grupo 69564" transform="translate(52.441 31.206)">
                <path id="Trazado_101945" data-name="Trazado 101945" d="M217.187,347.732l.523-.39a21.219,21.219,0,0,1,2.444,1.17q.808.467.86.887t-.756.887L217,352.168l-.637-.368.666-.494a7.848,7.848,0,0,1-1.422-.139,4.189,4.189,0,0,1-1.337-.475q-.636-.368-.674-.78c-.026-.275.168-.531.58-.768l.5-.291a2.168,2.168,0,0,1,1.18-.292,2.648,2.648,0,0,1,1.246.374l1.93,1.115.409-.237q.437-.252.418-.472t-.561-.533Q218.614,348.413,217.187,347.732Zm-1.8,1.664-.3.17c-.241.139-.359.274-.357.4s.132.269.385.415a3.709,3.709,0,0,0,.994.376,6.379,6.379,0,0,0,1.365.184l.931-.538-1.788-1.032a1.206,1.206,0,0,0-.632-.167A1.308,1.308,0,0,0,215.39,349.4Z" transform="translate(-213.59 -347.342)" fill="#81554f"/>
              </g>
              <g id="Grupo_69565" data-name="Grupo 69565" transform="translate(57.83 33.029)">
                <path id="Trazado_101946" data-name="Trazado 101946" d="M226.905,349.966l-5.383,3.108q-.314.17-.309.354t.319.365l.447.259-.523.412a3.444,3.444,0,0,1-.969-.418q-.524-.3-.519-.656t.566-.679L226.1,349.5Z" transform="translate(-219.967 -349.499)" fill="#81554f"/>
              </g>
            </g>
          </g>
          <path id="Trazado_101947" data-name="Trazado 101947" d="M171.178,406.521l100.861-58.232V328.667l-100.971,58.3Z" transform="translate(-90.283 -281.353)" fill="#bb9dae"/>
          <path id="Trazado_101948" data-name="Trazado 101948" d="M81.6,348.755c-.611,2.309.8,17.022.894,17.258l-2.19-1.259c-.977-3.158-1.3-17.532-.8-19.961l77.356,44.665v2.82Z" transform="translate(-76.074 -283.849)" fill="#bb9dae"/>
          <path id="Trazado_101949" data-name="Trazado 101949" d="M136.823,400.99l-2.3-1.255-.473,2.447Z" transform="translate(-84.553 -292.353)" fill="#724540"/>
          <path id="Trazado_101950" data-name="Trazado 101950" d="M137.2,397.834l-.292,2.862-2.3-1.255Z" transform="translate(-84.64 -292.059)" fill="#bb9dae"/>
          <path id="Trazado_101951" data-name="Trazado 101951" d="M260.23,348.591,156.34,408.567l-.071.045L76.93,362.8c-2.446-12.061-.489-20.262-.063-21.81l79.3,45.781.107.071.071-.045.045-.026L259.909,327l.985-.567-.006-.259L156.34,386.535l-.071.045L76.725,340.648s-2.784,8.637,0,22.29l79.544,45.923.071-.044,104.548-60.35.02-.253Z" transform="translate(-75.488 -280.967)" fill="url(#linear-gradient-42)"/>
          <g id="Grupo_69569" data-name="Grupo 69569" transform="translate(38.397 103.94)">
            <g id="Grupo_69568" data-name="Grupo 69568">
              <path id="Trazado_101952" data-name="Trazado 101952" d="M135.081,397.5a21.285,21.285,0,0,1-1.515,2.236.119.119,0,0,0-.027.019,20.16,20.16,0,0,1-6.9,5.914c-.5.237-2.172.921-3.094.3,1.1-.3,1.515-1.543,1.707-1.935a6.771,6.771,0,0,1-4.335.073c2.263.5,6.835-3.413,9.4-6.342h.009a14.865,14.865,0,0,0,1.6-2.1Z" transform="translate(-120.917 -395.663)" fill="#8e5145"/>
            </g>
            <path id="Trazado_101953" data-name="Trazado 101953" d="M136.8,397.5a21.282,21.282,0,0,1-1.515,2.236.119.119,0,0,0-.027.019l-3.213-1.99a14.867,14.867,0,0,0,1.6-2.1Z" transform="translate(-122.64 -395.663)" fill="#7f483d"/>
          </g>
        </g>
        <ellipse id="Elipse_4639" data-name="Elipse 4639" cx="7.113" cy="4.107" rx="7.113" ry="4.107" transform="translate(121.749 27.786)" fill="url(#linear-gradient-43)"/>
      </g>
    </g>
  </g>
</svg>
