<svg xmlns="http://www.w3.org/2000/svg" width="245.398" height="273.16" viewBox="0 0 245.398 273.16">
  <g id="Grupo_70032" data-name="Grupo 70032" transform="translate(-634.26 298.92)">
    <g id="Grupo_70032-2" data-name="Grupo 70032" transform="translate(642.828 -198.277)">
      <path id="Trazado_104167" data-name="Trazado 104167" d="M868.177-211.553c-.634-.109-6.733,1.717-7.306,1.923-3.513,1.257-6.632,4.329-10.044,5.366-3.56,1.082-4.525-.287-8.135-.308-6.22-.037-8.87,1.685-11.174,7.246-2.412,5.822-1.486,7.139-8.109,7.046-4.454-.064-5.317,1.756-8.139,4.895-5.059,5.615-6.587,11.57-14.467,13.935-2.687.806-6.062.129-8.577,1.034-3.858,1.388-2.565,4.031-4.539,6.913-2.578,3.765-7.218-1.761-10.541.756-3.5,2.65-1.682,9.56-6.242,11.057-4.419,1.449-6.641-1.534-9.824,1.073-3.388,2.774-1.725,8.526-5.4,10.979-3.128,2.088-5.316-.728-8.645.242-5.784,1.68-5.5,7.69-9.432,11.055-2.133,1.826-4.655.8-7.057,1.758-2.821,1.124-3.175,3.879-5.11,5.968-2.725,2.943-1.993,1.2-6.078,2.569-4.464,1.487-12.587,2.941-7.1,10.549-3.732,1.48-10.244,1.607-13.508,4.137-4.892,3.8-.594,3.91-1.916,7.834-1.282,3.813-3.764,4.629-9.145,6.762a52.161,52.161,0,0,0-14.039,7.884c-2.694,2.129-10.265,9.757-6.37,14.517,3.06,3.739,8.322.7,11.312-.09,7.464-1.961,6.619,2.633,12.987,6.394,4.557,2.69,7.138.106,10.4-2.21,5.107-3.626,5.763-.527,11.876,0,3.567.308,7.6-1.537,7.523-5.741-.081-4.318-5.154-7.7-5.973-11.574-1.341-6.345,5.76-5.844,7.114-10.53a6.391,6.391,0,0,0,.157-2.751c2.135.077,4.155.141,5.886.052,7.077-5.77,13.25-11.326,21.821-15.509,10.972-5.355,20.077-11.473,27.793-20.948,4.819-5.919,11.427-10.563,17.954-14.43,10.64-6.3,21.714-12.282,32.072-18.95,6.586-4.236,12.555-9.836,19.446-13.4,11.041-5.716,20.556-14.591,23.054-27.946C871.664-209.156,875.032-210.374,868.177-211.553Z" transform="translate(-635.549 218.193)" fill="#aa6868"/>
      <path id="Trazado_104168" data-name="Trazado 104168" d="M843.225-216.956c-.635-.111-6.733,1.715-7.308,1.922-3.513,1.257-6.632,4.329-10.043,5.366-3.559,1.083-4.524-.287-8.135-.308-6.22-.037-8.869,1.685-11.173,7.247-2.413,5.821-1.486,7.138-8.11,7.045-4.454-.064-5.318,1.756-8.14,4.895-5.059,5.615-6.587,11.57-14.467,13.935-2.687.806-6.062.129-8.576,1.034-3.86,1.388-2.567,4.031-4.54,6.913-2.576,3.766-7.218-1.76-10.541.756-3.5,2.65-1.681,9.56-6.242,11.057-4.419,1.449-6.641-1.534-9.824,1.073-3.388,2.774-1.724,8.526-5.4,10.979-3.129,2.088-5.317-.728-8.645.242-5.784,1.68-5.5,7.689-9.433,11.055-2.133,1.826-4.654.8-7.056,1.758-2.821,1.124-3.177,3.879-5.111,5.968-2.725,2.943-1.993,1.2-6.077,2.569-4.464,1.487-12.588,2.942-7.1,10.551-3.732,1.478-10.244,1.606-13.508,4.136-4.894,3.8-.594,3.91-1.917,7.834-1.282,3.813-3.764,4.631-9.145,6.764A52.194,52.194,0,0,0,648.7-86.282c-2.693,2.129-10.263,9.757-6.369,14.517,3.06,3.739,8.322.7,11.312-.088,7.465-1.962,6.62,2.633,12.987,6.393,4.557,2.692,7.139.106,10.4-2.209,5.107-3.627,5.763-.528,11.876,0,3.566.308,7.6-1.536,7.521-5.741-.081-4.318-5.154-7.7-5.973-11.574-1.341-6.345,5.762-5.843,7.114-10.529a6.377,6.377,0,0,0,.157-2.752c2.135.077,4.155.141,5.887.052,7.076-5.77,13.249-11.324,21.82-15.509,10.973-5.355,20.077-11.473,27.793-20.948,4.818-5.919,11.427-10.562,17.955-14.43,10.639-6.3,21.714-12.282,32.072-18.95,6.584-4.236,12.555-9.836,19.446-13.4,11.039-5.716,20.555-14.592,23.054-27.947C846.711-214.559,850.079-215.778,843.225-216.956Z" transform="translate(-641.237 216.961)" fill="#aa6868"/>
      <path id="Trazado_104169" data-name="Trazado 104169" d="M860.544-193.842c-8.836-1.445-28.073,20.63-32.311,23.266-5.628,3.5-11.311,6.749-16.569,10.767-2.521,1.922-4.793,4.232-7.326,6.18-3.166,2.436-7.025,6.093-10.375,7.918-4.738,2.58-8.206,2.91-11.986,6.695-5.059,5.059-11.551,8.92-17.567,13.251-13.607,9.8-26.7,20.3-40.63,29.644-2.932,1.968-5.6,4.766-8.712,6.318-2.568,1.28-5.981.771-8.32,2.451-2.631,1.887-3.3,5.612-6.042,7.521-2.681,1.873-6.344,1.749-9.073,3.8-2.646,1.991-7.451,8.942-5.3,12.3,2.111,3.295,5.78.131,6.3,4.476.334,2.8-2.591,3.664-1.12,6.605.732,1.461,4.244,2.827,5.8,2.927,11.156.716,13.737-15.741,25.6-14.979,7.565.485,7.576,1.105,11.311-5.983,1.885-3.58,4.179-7.491,8-9.229,3.313-1.488,6.15.359,8.9-2.522,3.112-3.264,2.7-6.657,6.6-9.264,2-1.338,4.37-1.34,6.533-3.177,1.9-1.618,2.6-4.155,4.839-5.591,3.587-2.3,8.64-.329,11.5-3.981,3.292-4.2,1.093-10.231,7.01-13.047,4.261-2.029,9.707-.527,13.224-3.976,2.586-2.537,3.439-6.013,5.477-8.893,2.812-3.972,6.566-3.7,9.411-6.835,3.378-3.721,5.848-8.753,10.757-10.826,3.5-1.48,8.079,1.221,11.248-1.191,3.4-2.586,2.759-8.867,5.689-12.245,6.147-7.085,14.33-4.516,15.688-15.417.182-1.469-1.485-2.7-1.1-4.607.537-2.7,4.745-6.226,6.372-8.447C863.617-192.364,862.282-193.558,860.544-193.842Z" transform="translate(-631.08 222.216)" fill="#aa6868"/>
      <path id="Trazado_104170" data-name="Trazado 104170" d="M854.813-200.265c-2.593-.08-7.448,5.261-8.877,6.868-1.549,1.736-3.619,3.453-4.983,5.2a21.494,21.494,0,0,0-1.747,2.97c-1.787,1.262-3.543,2.662-5.269,4.124-.893-.185-1.628-.731-3.033-.436-1.813.378-2.924,1.63-4.514,2.692-1.889,1.264-4.259,2.334-5.882,3.847-1.663,1.545-2.271,3.834-4.284,5-3.214,1.863-4.637-.214-7.441,3.485-2.646,3.491-2.212,5.823-5.171,7.874-.883.614-2.717.813-3.916,1.609-1.018.675-1.265,2.617-2.4,3.032-2.051.747-2.649-1.51-4.67-.626-2.946,1.287-2.537,5.025-5.851,6.033-2.845.863-4.079-1.056-7.118.833-5.013,3.115-3.9,9.576-8.942,11.985-3.258,1.56-7.505-.357-10.279,1.87-2.948,2.368-1.453,6.8-4.272,9.107-1.208.991-3.54-.026-5.253,1.693-1.318,1.323-1.5,3.3-2.138,5.036q-2.689,1.709-5.367,3.428a31.23,31.23,0,0,0-3.65-.173c-7.134.532-4.508,5.008-8.609,8.256-.083.058-.169.113-.253.171l-.642.431c-3.557,1.847-8.148-1.03-9.774,5.155-3.774-.122-10.694.71-10.045,6.217-2.84.738-8.393,1.51-9.734,4.64,7.267.723-2.141,6.721-4.273,7.772-4.245,2.092-13.185,4.94-12.843,10.82a26.2,26.2,0,0,0,12.3-2.4c1.078-.523,4.353-3.279,6.148-3.508q-.472,1.125-.941,2.267c-.338.813-1.417,6.5.947,5.414,4.863-2.232,1.2-11.626,6.029-14.377,5.276-3,7.256,6.4,12.086,6.745.226-2.592-3.048-6.048-1.26-8.641,1.9-2.768,4.672-.507,7.293.319-.548-.173-1.739-3-1.573-3.659.29-1.152.672-1.084,1.766-1.343,2.088-.494,4.357,1.411,6.385,1.324-.986-2.824-4.874-3.158-5.446-6.454,1.745-.48,3.93-.055,5.789.3.726-2.724,1.646-2.476,4.6-2.424,2.032.036,4.2.527,6.22.151,1.8-.335,5.5-1.138,3.6-3.624-.794-1.035-5.705-.457-7.085-1.093,3.327-3.684,8.414-3.238,12.875-2.216,2.746.631,5.209,2.186,7.906,2.87.755.192,2.94.111,3.376-.727.7-1.347-1.312-2-2.382-2.5-2.348-1.089-8.523-.723-9.434-3.828-1.852-6.308,10.853-4.783,13.865-6.236a22.7,22.7,0,0,1-1.426-2.434c1.467-1,2.925-1.106,4.1-2.55-.319.389-1.558-1.739-1.516-2.188.081-.9,1.106-1.48,1.745-1.95,1.489-1.1,3.965-1.54,5.07-2.729.668-.716.6-1.726,1.655-2.483a10.582,10.582,0,0,1,3.728-1.28c2.178-.5,6.517.464,7.881-1.523.716-1.043-.08-2.609.883-3.76.856-1.022,2.595-1.41,3.844-1.589,2.193-.32,6.407,1.077,8.323-.4,1.855-1.423,1.313-2.789-.338-3.986-1.065-.772-2.884-1.115-3.113-2.564-.332-2.1,3.2-4.108,4.726-4.621,2.925-.979,7.615,1.858,10.089-.445.984-.914.825-2.522,1.836-3.538a4.794,4.794,0,0,1,2.813-1.283c1.735-.4,4.476-.206,5.619-1.869,1.364-1.986-.787-3.368-.287-5.561,1.017-4.472,6.333-3.134,8.547-5.205,1.788-1.674.465-3.431,2.355-4.616,1.986-1.246,8.364.82,7.633-3.017,1.174.095,2.317-.76,3.417-.774-2.745-4.838,5.65-4.612,7.83-7.6,1.934-2.659,2.751-6.015,1.092-7.252.373-.474.745-.959,1.114-1.462C855.465-193.318,860.276-200.1,854.813-200.265Z" transform="translate(-631.588 220.767)" fill="#8e4f4f"/>
    </g>
    <g id="Grupo_70076" data-name="Grupo 70076" transform="translate(634.26 -298.92)">
      <g id="Grupo_70033" data-name="Grupo 70033" transform="translate(33.533 27.693)" opacity="0.05">
        <path id="Trazado_104171" data-name="Trazado 104171" d="M726.28-245.666c-.539,2-2.191,2.81-3.692,3.83a9.029,9.029,0,0,0-1.34,1.1c.931,1.962,2.434,1.84,3.532.076.013,0,.961.442.964.469-.51.6-.634,1.77-1.082,2.422,1.392,1.181,2.571.785,3.125-.947,1.89.593,1.367,2.349.781,3.789a2.826,2.826,0,0,0,2.741-2.014,1.678,1.678,0,0,0,1.057.291,1.6,1.6,0,0,0,.873.663,2.832,2.832,0,0,0,.009,3.41c.809-1.324,1.9-2.791,3.513-1.634-1.06,1.477-.678,2.657,1.109,3.079.255-.744,1.108-1.553,1.292-2.3a7.967,7.967,0,0,1,.937.473c-.7,1.817-.044,3.051,1.787,2.85a3.685,3.685,0,0,0,.387-.056c.4-2.374-.726-4.82.962-6.97,1.628.636,4.559,3.557,6.382,2.375,1.531-1.011.666-4.679,2.3-6.388,1.485-1.567,4.116-2.15,5.711-3.856a25.313,25.313,0,0,0,3.981-6.839,14.879,14.879,0,0,0,1.464-6.87c-.314-6.452-6-10.671-12.513-14.126-8.812-4.185-17.787-6.4-23.449,3.668a25.324,25.324,0,0,0-3.12,7.263c-.409,2.291.691,4.767.32,6.886-.4,2.345-3.863,3.82-3.745,5.661C720.706-247.2,724.789-246.584,726.28-245.666Z" transform="translate(-648.119 276.368)"/>
        <path id="Trazado_104172" data-name="Trazado 104172" d="M761.707-171.606a3.592,3.592,0,0,0,2.288-2.582,3.4,3.4,0,0,0,.068-.34,5.7,5.7,0,0,0-.128-2.226,8.956,8.956,0,0,0-.287-.9,4.589,4.589,0,0,0,1.623-.26,3.6,3.6,0,0,0,2.286-2.589,4.771,4.771,0,0,0,.045-2.031c-.038-.181-.068-.355-.106-.528a9.739,9.739,0,0,0-.686-1.88c-.125-.242-.254-.47-.383-.691a4.763,4.763,0,0,0,2.444-.464,3.577,3.577,0,0,0,1.971-2.83,5.415,5.415,0,0,0-.348-2.521c0-.007-.007-.015-.007-.023a10.69,10.69,0,0,0-.906-1.781c-.265-.394-.535-.745-.807-1.076a4.679,4.679,0,0,0,2.407-.653,3.576,3.576,0,0,0,1.744-2.982,5.337,5.337,0,0,0-.551-2.5c-.007-.015-.015-.038-.022-.053a9.95,9.95,0,0,0-1.019-1.653,14.473,14.473,0,0,0-1.109-1.249,4.846,4.846,0,0,0,.663-.345,3.575,3.575,0,0,0,1.647-3.034,4.776,4.776,0,0,0-.408-1.97s-.009,0,0-.007c-.076-.174-.151-.34-.227-.506a9.793,9.793,0,0,0-1.094-1.669,14.159,14.159,0,0,0-1.756-1.755,4.419,4.419,0,0,0,1.349-.752,3.338,3.338,0,0,0,1.164-2.834,4.651,4.651,0,0,0-.32-1.361,7.3,7.3,0,0,0-.51-.944,2.454,2.454,0,0,0-.2-.28,7.681,7.681,0,0,0-.948-1.105,12.653,12.653,0,0,0-1.52-1.224,2.944,2.944,0,0,0,.652-2.11,3.95,3.95,0,0,0-.271-1.186,7.81,7.81,0,0,0-.551-1.011,7.053,7.053,0,0,0-1.079-1.163c-.015-.007-.023-.023-.038-.031a9.36,9.36,0,0,0-3.684-1.917c-.943-.227-1.509-.166-1.623.075-.113.265.249.688.892,1.307a19.531,19.531,0,0,1,2.4,2.528,6.072,6.072,0,0,1,.49.815.357.357,0,0,1,.007.309.22.22,0,0,1-.166.151.255.255,0,0,1-.106,0l-.038-.007-.022-.007h-.287l-.286-.031a4.155,4.155,0,0,1-.65-.075,12.6,12.6,0,0,1-1.427-.309,32.467,32.467,0,0,1-3.14-1.043c-4.026-1.6-7.65-3.5-10.459-4.842a6.14,6.14,0,0,0-1.771-1.982,11.3,11.3,0,0,0-3.351-1.555,7.777,7.777,0,0,0-3.2.3,3.261,3.261,0,0,0-1.378,1.036c-.215.013-.433.027-.661.043-3.185.188-7.556.694-12.213.7-1.155-.022-2.28-.053-3.307-.173a14.19,14.19,0,0,1-1.442-.242,5.724,5.724,0,0,1-.635-.166l-.271-.083-.181-.068-.091-.038h-.015l-.045-.007a.259.259,0,0,1-.1-.037.236.236,0,0,1-.1-.2.362.362,0,0,1,.12-.28,5.218,5.218,0,0,1,.755-.588,20.365,20.365,0,0,1,3.163-1.465c.823-.333,1.313-.6,1.305-.883s-.521-.537-1.487-.664a9.255,9.255,0,0,0-4.174.437,7.417,7.417,0,0,0-1.42.688,7.729,7.729,0,0,0-.89.732,6.534,6.534,0,0,0-.522.7,1.612,1.612,0,0,0-.166.317,2.954,2.954,0,0,0-.2,2.172,12.352,12.352,0,0,0-1.815.56,8.306,8.306,0,0,0-1.585.868,6.472,6.472,0,0,0-.823.688,4.567,4.567,0,0,0-.8,1.14,3.477,3.477,0,0,0-.264,2.348,3.37,3.37,0,0,0,.287.717,4.682,4.682,0,0,0,1.018,1.238,13.96,13.96,0,0,0-2.31,1,9.24,9.24,0,0,0-1.631,1.148,5.438,5.438,0,0,0-1.5,2.083,3.59,3.59,0,0,0,.317,3.285c.031.044.069.09.1.135a4.907,4.907,0,0,0,.494.569,14.385,14.385,0,0,0-1.49.753,9.9,9.9,0,0,0-1.6,1.2,5.479,5.479,0,0,0-1.434,2.129,3.584,3.584,0,0,0,.528,3.405c.091.12.189.226.279.324a4.714,4.714,0,0,0,1.72,1.174c-.371.209-.749.437-1.138.706a9.889,9.889,0,0,0-1.5,1.32,5.421,5.421,0,0,0-1.26,2.228,3.567,3.567,0,0,0,.694,3.253.63.63,0,0,0,.091.107,4.7,4.7,0,0,0,2.107,1.335c-.2.16-.406.325-.613.506a9.741,9.741,0,0,0-1.336,1.488,5.43,5.43,0,0,0-.988,2.363,3.629,3.629,0,0,0,.686,2.725,2.813,2.813,0,0,0,.484.513,4.588,4.588,0,0,0,1.415.845c-.2.227-.4.465-.6.733a5.431,5.431,0,0,0-.99,2.363,3.581,3.581,0,0,0,1.17,3.246c.091.076.182.151.271.22a5.474,5.474,0,0,0,2.612.974,14.962,14.962,0,0,0,5.118-.378,33.635,33.635,0,0,0,4.854-1.517,58.646,58.646,0,0,0,8.56-4.259c1.45-.86,2.779-1.713,3.979-2.528.157-.107.3-.21.452-.317a3,3,0,0,0-.852,1.291c-.384,1.321.566,2.566-.113,3.85a8.019,8.019,0,0,1-1.192,1.434c-.408.476-.74,1.072-.559,1.548a1.313,1.313,0,0,0,1.336.619,12.006,12.006,0,0,0,1.736-.325,7.041,7.041,0,0,1,1.676-.128c.158,0,.317.015.475.029a5.92,5.92,0,0,1,1.849.861,9.468,9.468,0,0,0,1.359.914,1.5,1.5,0,0,0,1.54-.068,1.683,1.683,0,0,0,.43-1.578,6.115,6.115,0,0,1-.173-1.691c.2-1.374,1.819-2.129,2.317-3.435a3.109,3.109,0,0,0-1.079-3.3,6.442,6.442,0,0,0-1.842-1.072c-.37-.151-.755-.279-1.14-.408a10.455,10.455,0,0,0-3.571.235,5.656,5.656,0,0,0-1.1.447c.275-.2.546-.4.806-.586.017,0,.034,0,.052,0a12.327,12.327,0,0,0,1.76-.317,7,7,0,0,1,2.159-.1,6.209,6.209,0,0,1,1.094.415,5.413,5.413,0,0,1,.748.446,9.229,9.229,0,0,0,1.336.906,2.023,2.023,0,0,0,.291.1,72.367,72.367,0,0,0,4.314,6.2c.981,1.267,2.053,2.574,3.238,3.888.974,1.079,2.023,2.159,3.156,3.215a33.594,33.594,0,0,0,3.963,3.2,15.139,15.139,0,0,0,4.612,2.235A5.337,5.337,0,0,0,761.707-171.606Zm2.657-9.814a.251.251,0,0,1-.257.18,2.38,2.38,0,0,0-.332-.029,4.055,4.055,0,0,1-.657-.174,13.325,13.325,0,0,1-3.329-1.871,42.592,42.592,0,0,1-3.48-2.921c-2.326-2.166-4.417-4.432-6.288-6.53s-3.54-4.039-4.96-5.654q-.919-1.054-1.7-1.913a1.121,1.121,0,0,0,.55-.216,1.667,1.667,0,0,0,.415-1.578l-.01-.049.01.012a73.735,73.735,0,0,0,5.118,5.782c1.313,1.336,2.756,2.717,4.363,4.076.89.755,1.827,1.5,2.816,2.228a35.172,35.172,0,0,0,4.3,2.717,22.037,22.037,0,0,0,2.241,1,17.722,17.722,0,0,1,1,2.472,7.931,7.931,0,0,1,.28,1.381A2.516,2.516,0,0,1,764.364-181.419Zm3.2-8.054a.259.259,0,0,1-.233.211,1.973,1.973,0,0,0-.333.015,4.319,4.319,0,0,1-.679-.1,13.28,13.28,0,0,1-3.517-1.472,41.253,41.253,0,0,1-3.805-2.5c-2.559-1.879-4.907-3.879-7.005-5.744s-3.985-3.6-5.586-5.035c-.521-.472-1.008-.907-1.467-1.314a5.716,5.716,0,0,0,1.3-1.887,2.272,2.272,0,0,0,.086-.9c1.331,1.38,2.886,2.9,4.692,4.462,1.3,1.14,2.726,2.31,4.281,3.449q1.586,1.179,3.367,2.288a34.124,34.124,0,0,0,4.507,2.37,22.046,22.046,0,0,0,2.229.8,18.5,18.5,0,0,1,1.681,2.931,8.939,8.939,0,0,1,.446,1.336A2.585,2.585,0,0,1,767.564-189.474Zm2.054-8.773a.253.253,0,0,1-.22.227,2.76,2.76,0,0,0-.331.037,4.424,4.424,0,0,1-.679-.037,13.439,13.439,0,0,1-3.624-1.2,40.232,40.232,0,0,1-3.986-2.189c-2.7-1.675-5.193-3.495-7.435-5.193s-4.25-3.276-5.957-4.59l-.322-.248a2.508,2.508,0,0,0-.055-.914,7.421,7.421,0,0,1-.355-1.722,2.2,2.2,0,0,1,.226-.909c1.076,1,2.257,2.048,3.571,3.12,1.292,1.057,2.7,2.137,4.221,3.194,1.132.785,2.339,1.555,3.608,2.294a35.944,35.944,0,0,0,4.575,2.228,16.115,16.115,0,0,0,4.474,1.088,17.489,17.489,0,0,1,1.626,2.437,8.161,8.161,0,0,1,.536,1.291A2.552,2.552,0,0,1,769.619-198.246Zm-.4-8.726a.249.249,0,0,1-.211.233,1.877,1.877,0,0,0-.325.045,4.247,4.247,0,0,1-.686-.015,13.453,13.453,0,0,1-3.662-1.087,41.28,41.28,0,0,1-4.053-2.062c-2.747-1.593-5.3-3.32-7.594-4.951-1.548-1.092-2.969-2.127-4.275-3.075a4.06,4.06,0,0,0-1.7-3.153,5.261,5.261,0,0,0-.619-.422,11.882,11.882,0,0,0-2.574-1.1,13.449,13.449,0,0,0-1.965,0c-.113-.057-.217-.106-.314-.147.087-.023.174-.048.263-.068a6.011,6.011,0,0,1,2.046-.12,6.978,6.978,0,0,1,1.964.883c.219.144.43.295.648.446a5.245,5.245,0,0,0,.831.49,1.691,1.691,0,0,0,1.043.136c1,.759,2.1,1.544,3.3,2.338,1.394.926,2.915,1.859,4.573,2.74.912.479,1.862.95,2.849,1.391a31.353,31.353,0,0,0,4.276,1.546,16.534,16.534,0,0,0,3.172.532,19.5,19.5,0,0,1,2.278,3.064,8.315,8.315,0,0,1,.582,1.276A2.656,2.656,0,0,1,769.219-206.972ZM757.661-221.18c.007,0,.015.007.023.007a24.976,24.976,0,0,0,3.675,1.133,14.95,14.95,0,0,0,1.925.293,8.456,8.456,0,0,0,1,.038c.182-.007.318,0,.522-.015l.612-.084.3-.045.211-.064a15.828,15.828,0,0,1,1.512,1.79,7.382,7.382,0,0,1,.6,1.051c.075.174.12.356.172.5.015.113.038.233.007.264a.236.236,0,0,1-.182.181.3.3,0,0,1-.113.007,5.331,5.331,0,0,1-.559.036,12.331,12.331,0,0,1-3.252-.615,38.1,38.1,0,0,1-3.733-1.438c-2.554-1.133-4.958-2.418-7.137-3.625-1.966-1.1-3.748-2.1-5.3-2.968a2.931,2.931,0,0,1,.43-1.547c.878.62,1.839,1.26,2.9,1.9A40.94,40.94,0,0,0,757.661-221.18ZM714.6-226.826a5.106,5.106,0,0,1,.347-.4,7.9,7.9,0,0,1,.943-.755,15.937,15.937,0,0,1,2.036-1.086l.2.157.257.151.535.295c.182.091.317.136.484.2a6.875,6.875,0,0,0,.943.332,14.042,14.042,0,0,0,1.895.438,25.976,25.976,0,0,0,3.835.3,41.2,41.2,0,0,0,7.133-.634c1.57-.265,3-.582,4.266-.921.437-.112.852-.23,1.245-.348a17.371,17.371,0,0,1,.714,1.835c-.722.075-1.528.172-2.412.286-1.88.249-4.122.544-6.6.876-2.468.309-5.178.612-7.972.717a36.688,36.688,0,0,1-4-.053,11.793,11.793,0,0,1-3.245-.634,4.629,4.629,0,0,1-.506-.235.315.315,0,0,1-.106-.053.237.237,0,0,1-.1-.233C714.475-226.615,714.542-226.728,714.6-226.826Zm-4.469,8.6a2.624,2.624,0,0,1,.543-.944,8.371,8.371,0,0,1,1.012-.974,19.488,19.488,0,0,1,3.273-2.029,16.652,16.652,0,0,0,3.1.656,29.6,29.6,0,0,0,4.545.151,51.1,51.1,0,0,0,8.425-1.081,60.737,60.737,0,0,0,6.62-1.751c.338-.109.663-.222.975-.333a1.626,1.626,0,0,0-.129,1.481,1.49,1.49,0,0,0,1.4.626,3.346,3.346,0,0,0,.519-.071,1,1,0,0,0,.029.111c-1.195.215-2.816.6-4.777,1.1-2.083.529-4.551,1.185-7.284,1.849s-5.745,1.345-8.884,1.812a40.952,40.952,0,0,1-4.523.43,13.224,13.224,0,0,1-3.8-.34,4.316,4.316,0,0,1-.65-.233,1.766,1.766,0,0,0-.286-.166A.247.247,0,0,1,710.126-218.228Zm-3.586,7.972a2.718,2.718,0,0,1,.521-.966,9.262,9.262,0,0,1,.974-1,18.441,18.441,0,0,1,2.386-1.659,15.842,15.842,0,0,0,4.582.625,35.182,35.182,0,0,0,5.08-.393,59.628,59.628,0,0,0,9.293-2.226,74.773,74.773,0,0,0,7.217-2.717c.4-.176.764-.347,1.126-.517.115,1.165.89,2.278.459,3.422-.012.031-.031.056-.043.086a39.713,39.713,0,0,0-6.156,1.485c-2.075.589-4.514,1.329-7.232,2.077s-5.7,1.524-8.817,2.091a40.315,40.315,0,0,1-4.514.573,13.155,13.155,0,0,1-3.813-.22,3.8,3.8,0,0,1-.648-.211,2.88,2.88,0,0,0-.295-.158A.253.253,0,0,1,706.541-210.256Zm-.877,7.911a8.734,8.734,0,0,1,.9-1.079,19.019,19.019,0,0,1,2.633-2.1,22.354,22.354,0,0,0,2.38.079,35.27,35.27,0,0,0,5.065-.559,57.92,57.92,0,0,0,9.217-2.514,74.212,74.212,0,0,0,7.133-2.952c.264-.129.521-.257.77-.386,1.191-.594,2.2-1.147,3.006-1.637a1.15,1.15,0,0,0-.016.845,1.379,1.379,0,0,0,1.358.619,10.161,10.161,0,0,0,1.691-.333,6.731,6.731,0,0,1,2.115-.106,6.414,6.414,0,0,1,.973.356c.129.167.266.34.41.518-.475-.208-.968-.388-1.459-.549a9.864,9.864,0,0,0-3.48.249,4,4,0,0,0-2.794,2.566,2.543,2.543,0,0,0-.043.37c-1.2.308-2.992.943-5.241,1.789-2.015.748-4.394,1.676-7.042,2.627-2.643.966-5.564,1.964-8.629,2.778a42.171,42.171,0,0,1-4.454.921,13.373,13.373,0,0,1-3.812.076,5.045,5.045,0,0,1-.672-.158,2.414,2.414,0,0,0-.3-.136.25.25,0,0,1-.144-.279A2.661,2.661,0,0,1,705.664-202.345Zm29.977-3.094a7.581,7.581,0,0,1-1.156,1.434c-.077.092-.15.19-.22.291-1.148.46-2.791,1.271-4.822,2.321-1.909.981-4.166,2.173-6.689,3.435-2.506,1.26-5.291,2.6-8.243,3.759a41.985,41.985,0,0,1-4.318,1.442,13.786,13.786,0,0,1-3.782.522,5.28,5.28,0,0,1-.679-.084,1.913,1.913,0,0,0-.317-.1.254.254,0,0,1-.174-.264,2.558,2.558,0,0,1,.325-1.041,7.663,7.663,0,0,1,.761-1.178,17.533,17.533,0,0,1,1.842-1.934,22.38,22.38,0,0,0,2.453-.1,35.227,35.227,0,0,0,5-.944,58.806,58.806,0,0,0,9-3.223A73.734,73.734,0,0,0,731.5-204.6c.823-.483,1.571-.936,2.227-1.358.8-.523,1.466-.993,2-1.41A2.865,2.865,0,0,1,735.641-205.44ZM723.752-190.78c-2.514,1.268-5.293,2.6-8.243,3.767a41.793,41.793,0,0,1-4.319,1.434,13.229,13.229,0,0,1-3.782.521,4.271,4.271,0,0,1-.679-.083,1.255,1.255,0,0,0-.317-.091.253.253,0,0,1-.173-.264,2.642,2.642,0,0,1,.317-1.049,8.14,8.14,0,0,1,.77-1.17c.225-.28.457-.529.688-.78a19.661,19.661,0,0,0,3.1-.443,35.127,35.127,0,0,0,4.862-1.525,59.743,59.743,0,0,0,8.553-4.25,73.372,73.372,0,0,0,6.423-4.279c.62-.461,1.186-.906,1.7-1.321.743-.6,1.361-1.146,1.874-1.63a1.954,1.954,0,0,0,.745.112,11.7,11.7,0,0,0,1.736-.324,6.915,6.915,0,0,1,2.151-.1,5.042,5.042,0,0,1,.664.226c.08.031.155.072.232.107.048.126.1.263.161.405-.145-.059-.291-.118-.438-.172-.242-.091-.476-.173-.717-.249a10.312,10.312,0,0,0-3.549.242,4.336,4.336,0,0,0-3,2.521c-.377,1.321.573,2.566-.12,3.85-.033.061-.077.118-.115.177q-.858.427-1.841.933C728.523-193.234,726.273-192.033,723.752-190.78Zm28.987,10.855c-2.317-2.166-4.416-4.43-6.288-6.529s-3.533-4.039-4.952-5.655c-.2-.231-.4-.453-.589-.672a3.06,3.06,0,0,1-.037-.928c.178-1.158,1.353-1.88,2.01-2.859a74.174,74.174,0,0,0,4.293,6.164c.8,1.035,1.661,2.1,2.6,3.171a54.1,54.1,0,0,0,3.8,3.933,35.247,35.247,0,0,0,3.957,3.2,20.082,20.082,0,0,0,2.713,1.531c.125.324.252.648.36,1a8.963,8.963,0,0,1,.286,1.374,2.6,2.6,0,0,1-.091,1.087.247.247,0,0,1-.257.182,1.747,1.747,0,0,0-.331-.023,6.65,6.65,0,0,1-.664-.173,13.523,13.523,0,0,1-3.322-1.88A40.707,40.707,0,0,1,752.739-179.925Z" transform="translate(-652.384 285.53)"/>
        <path id="Trazado_104173" data-name="Trazado 104173" d="M720.693-183.727a1.673,1.673,0,0,0-.438,1.578,1.381,1.381,0,0,0,1.359.619,10.28,10.28,0,0,0,1.691-.333,6.723,6.723,0,0,1,2.113-.106,6.414,6.414,0,0,1,1.487.619c.136.076.271.16.4.249a10.367,10.367,0,0,0,1.4.921,1.434,1.434,0,0,0,1.518-.075,1.7,1.7,0,0,0,.317-1.593,6.523,6.523,0,0,1-.287-1.714c.114-1.4,1.684-2.159,2.122-3.471a3.268,3.268,0,0,0-1.185-3.322,8.654,8.654,0,0,0-3-1.487l-.46-.023a9.59,9.59,0,0,0-3.087.264,4.162,4.162,0,0,0-2.945,2.537c-.332,1.329.679,2.589.083,3.888A7.62,7.62,0,0,1,720.693-183.727Z" transform="translate(-648.207 295.627)"/>
        <path id="Trazado_104174" data-name="Trazado 104174" d="M719.09-175.247a1.654,1.654,0,0,0-.235,1.607.778.778,0,0,0,.167.219,1.668,1.668,0,0,0,1.238.415,9.168,9.168,0,0,0,1.607-.355,6.312,6.312,0,0,1,2.053-.113,6.86,6.86,0,0,1,1.948.876,11.2,11.2,0,0,0,1.487.944,1.332,1.332,0,0,0,1.472-.084,1.751,1.751,0,0,0,.113-1.638,6.79,6.79,0,0,1-.475-1.751c-.038-1.42,1.42-2.2,1.729-3.54a3.668,3.668,0,0,0-1.442-3.374,6.584,6.584,0,0,0-1.4-.861,15.672,15.672,0,0,0-1.676-.634,9.683,9.683,0,0,0-3.48.249,3.686,3.686,0,0,0-2.679,2.581c-.2,1.359.914,2.634.475,3.971A7.043,7.043,0,0,1,719.09-175.247Z" transform="translate(-648.538 297.52)"/>
        <path id="Trazado_104175" data-name="Trazado 104175" d="M749.355-165.378c-.792-2.286-1.984-4.378-4.128-5.329-2.16-.95-4.688-.43-6.87.46s-4.234,2.144-6.536,2.673a15.374,15.374,0,0,1-4.122.293,15.308,15.308,0,0,1-4.114-.293c-2.3-.529-4.363-1.774-6.545-2.673s-4.71-1.411-6.862-.46c-3.058,1.359-4.182,5.043-4.967,8.3-.633,2.635-1.132,5.813.793,7.715,1.879,1.857,5.615,1.986,6.159,4.567.355,1.684-1.034,3.223-1.336,4.907a3.267,3.267,0,0,0-.06.551c-.046,2.113,2.135,3.751,4.25,3.842s4.1-.952,5.9-2.061a15.407,15.407,0,0,1,3.291-1.744,8.309,8.309,0,0,1,3.495-.28,8.306,8.306,0,0,1,3.5.28,15.434,15.434,0,0,1,3.291,1.744c1.8,1.109,3.782,2.144,5.9,2.061,1.962-.084,3.979-1.5,4.227-3.389a4.283,4.283,0,0,0,.023-.453c-.038-1.9-1.789-3.593-1.389-5.458.543-2.581,4.279-2.71,6.152-4.567,1.925-1.9,1.434-5.08.8-7.715C749.96-163.385,749.7-164.4,749.355-165.378ZM720.466-146.2c-.657.468-1.494.952-2.211.589-.868-.438-.786-1.707-.461-2.628.317-.9.883-1.887,1.835-2.022.837.573,2.068.9,2.25,1.9C722.044-147.455,721.206-146.724,720.466-146.2Zm1.691-11.829a3.125,3.125,0,0,1-2.038,2.627,3.9,3.9,0,0,1-3.125-.89,10.618,10.618,0,0,0-2.83-1.774,12.263,12.263,0,0,1-2.228-.6c-1.434-.77-1.615-2.937-.694-4.281a5.15,5.15,0,0,1,4.816-1.917,10.664,10.664,0,0,1,4.914,2.188,2.093,2.093,0,0,1,.535.5,1.988,1.988,0,0,1,.249.679A9.061,9.061,0,0,1,722.157-158.025Zm14.985,12.418c-.717.362-1.548-.122-2.2-.589-.748-.528-1.578-1.26-1.412-2.159.182-1,1.412-1.329,2.25-1.9.952.135,1.518,1.117,1.835,2.022C737.934-147.313,738.018-146.044,737.142-145.606Zm6.318-13.059a12.153,12.153,0,0,1-2.219.6,10.662,10.662,0,0,0-2.839,1.774,3.886,3.886,0,0,1-3.125.89,3.1,3.1,0,0,1-2.03-2.627,9.059,9.059,0,0,1,.392-3.473,2.386,2.386,0,0,1,.249-.679,2.035,2.035,0,0,1,.544-.5,10.593,10.593,0,0,1,4.914-2.188,5.138,5.138,0,0,1,4.809,1.917C745.076-161.6,744.9-159.435,743.46-158.666Z" transform="translate(-651.749 300.339)"/>
        <path id="Trazado_104176" data-name="Trazado 104176" d="M711.828-237.98a3.043,3.043,0,0,0,.506-1.917,4.294,4.294,0,0,0-.18-1.079,5.066,5.066,0,0,0-4.394-3.586,4.856,4.856,0,0,0,.2-5.557,3.652,3.652,0,0,0-5.209-.656c-2.106,2.022-.626,5.925-2.423,8.227a7.215,7.215,0,0,1-1.472,1.276Q684.132-230.74,669.4-220.2c-.431-1.079-1.774-1.458-2.937-1.442a5.123,5.123,0,0,0-4.574,2.37c-.837,1.593.007,4,1.789,4.257a15.257,15.257,0,0,1,1.547.106,2.3,2.3,0,0,1,1.518,1.623,5.747,5.747,0,0,1,.279,1.456c.069,1.276-.022,2.672.763,3.677a4.464,4.464,0,0,0,5.345-3.3c.188-.966.045-1.971.211-2.93.4-2.257,2.363-3.835,4.2-5.208q10.282-7.688,20.571-15.378c1.962-1.464,4.159-3.012,6.613-2.853a32.612,32.612,0,0,1,3.668.823A3.483,3.483,0,0,0,711.828-237.98Z" transform="translate(-661.568 282.016)"/>
        <path id="Trazado_104177" data-name="Trazado 104177" d="M702.017-163.506a5.041,5.041,0,0,0-6.515.512,4.837,4.837,0,0,0-4.142-3.7,3.643,3.643,0,0,0-3.841,3.578c.2,2.91,4.154,4.276,4.761,7.125a7.035,7.035,0,0,1,.038,1.948q-1.356,18.057-2.705,36.113c-1.109-.363-2.264.43-2.994,1.327a5.15,5.15,0,0,0-1.117,5.027,3.01,3.01,0,0,0,.522.82,2.862,2.862,0,0,0,3.9.535A12.483,12.483,0,0,1,691-111.337c1.035-.745,2.488-.162,3.514.6s2.035,1.735,3.3,1.771a4.484,4.484,0,0,0,1.1-5.941c-.063-.1-.131-.187-.2-.276-.619-.765-1.482-1.292-2.108-2.042-1.477-1.745-1.428-4.276-1.307-6.551q.6-11.155,1.2-22.289c.061-1.119.123-2.245.184-3.363.133-2.449.36-5.127,2.047-6.9a35.351,35.351,0,0,1,2.983-2.294,3.475,3.475,0,0,0,1.453-3.259A3.078,3.078,0,0,0,702.017-163.506Z" transform="translate(-656.175 301.368)"/>
        <path id="Trazado_104178" data-name="Trazado 104178" d="M777.878-176.015a12.471,12.471,0,0,1,.77-1.352c.823-.966,2.379-.763,3.548-.271.408.166.815.355,1.23.521a4.071,4.071,0,0,0,2.417.386,4.468,4.468,0,0,0-.65-6.252c-.77-.581-1.722-.883-2.506-1.442-.015-.007-.022-.015-.038-.022-1.857-1.329-2.43-3.8-2.869-6.039q-1.166-5.979-2.325-11.951-1.291-6.624-2.582-13.255c-.468-2.408-.905-5.058.3-7.2a33.43,33.43,0,0,1,2.333-2.945,3.485,3.485,0,0,0,.612-3.524,3.081,3.081,0,0,0-1.51-1.284,5.027,5.027,0,0,0-6.19,2.091,4.842,4.842,0,0,0-4.914-2.589,3.648,3.648,0,0,0-2.853,4.408c.905,2.778,5.065,3.133,6.349,5.752a7.076,7.076,0,0,1,.513,1.88q2.807,16.215,5.616,32.422l.566,3.261c-1.162-.084-2.09.966-2.581,2.015a5.134,5.134,0,0,0,.151,5.149C774.338-174.808,776.874-174.52,777.878-176.015Z" transform="translate(-638.556 286.663)"/>
        <path id="Trazado_104179" data-name="Trazado 104179" d="M791.989-233.421a5.029,5.029,0,0,0-6.363-1.48,4.84,4.84,0,0,0-2.823-4.785,3.639,3.639,0,0,0-4.741,2.25c-.694,2.838,2.665,5.329,2.379,8.236a6.781,6.781,0,0,1-.551,1.864q-5.684,14.142-11.354,28.294h-.007c-.71,1.773-1.419,3.54-2.128,5.315-.944-.68-2.28-.273-3.254.362a5.152,5.152,0,0,0-2.581,4.461c.151,1.8,2.159,3.366,3.8,2.619a14.025,14.025,0,0,1,1.358-.74c1.208-.392,2.424.6,3.171,1.631s1.412,2.273,2.62,2.688a4.488,4.488,0,0,0,2.989-4.243,3.971,3.971,0,0,0-.257-1.412c-.362-.914-1.027-1.684-1.4-2.589-.875-2.106-.068-4.5.74-6.636q4.54-12.013,9.073-24.028c.129-.34.257-.679.393-1.012.8-1.986,1.811-3.941,3.646-4.96a34.46,34.46,0,0,1,3.533-1.276,3.478,3.478,0,0,0,2.37-2.679A3,3,0,0,0,791.989-233.421Z" transform="translate(-639.003 284.678)"/>
        <path id="Trazado_104180" data-name="Trazado 104180" d="M761.587-159.432a4.842,4.842,0,0,0-2.823-4.787,3.646,3.646,0,0,0-4.741,2.257c-.694,2.832,2.657,5.331,2.377,8.229a6.822,6.822,0,0,1-.55,1.873q-1.485,3.7-2.974,7.4-2.593,6.465-5.194,12.939c1.389-.785,3.1-4.672,4.823-6.394,2.266,3.02-1.509,5.284-1.509,8.3.544-2.166,1.472-3.932,3.073-4.491l4.552-12.049c.861-2.3,1.887-4.778,4.031-5.963a33.284,33.284,0,0,1,3.54-1.283,4.04,4.04,0,0,0,2.181-1.911,2.2,2.2,0,0,0,.189-.77,3.051,3.051,0,0,0-.612-1.879A5.035,5.035,0,0,0,761.587-159.432Z" transform="translate(-641.937 301.883)"/>
      </g>
      <g id="Grupo_70035" data-name="Grupo 70035" transform="translate(0 78.236)">
        <path id="Trazado_104181" data-name="Trazado 104181" d="M705.536-228.1l-.007.038-4.838,22.722s-61.342-1.714-66.136-3.065c-.2-.06-.295-.113-.295-.166l3.02-2.151,13.21-6.674,6.794-7.526,12.078-10.289,21.891,8.757Z" transform="translate(-634.26 235.208)" fill="#f39b49"/>
        <g id="Grupo_70034" data-name="Grupo 70034" opacity="0.2">
          <path id="Trazado_104182" data-name="Trazado 104182" d="M705.536-228.1l-.007.038-11.255,2.868-5.284,1.978-15.347-6.3v4.589l-5.035-4.507-8.553,7.4s-1.261,5.8-2.015,6.447-5.533,1.072-5.533,1.072L651-210.719l-7.8-.763-8.636,3.08c-.2-.06-.295-.113-.295-.166l3.02-2.151,13.21-6.674,6.794-7.526,12.078-10.289,21.891,8.757Z" transform="translate(-634.26 235.208)"/>
        </g>
      </g>
      <g id="Grupo_70037" data-name="Grupo 70037" transform="translate(96.902 90.94)">
        <path id="Trazado_104183" data-name="Trazado 104183" d="M776.133-207.7c-.2.936-5.957,34.408-6.478,34.657s-3.163,10.455-4.838,11.957c-4.763,4.25-41.082.573-49.778-4.529-1.593-.928-2.257-1.911-1.638-2.9l13.7-3.269,2.2-8.749,6.816-8.333s.724-9.557,1.88-9.527,8.236-3.322,8.236-3.322,4.967-6.605,5.178-7.655,9.421,6.9,9.421,6.9l.943-12.712,2.106-9.686,7.27,1.487s.318.9.786,2.258C773.385-216.95,776.292-208.4,776.133-207.7Z" transform="translate(-713.173 224.862)" fill="#f39b49"/>
        <g id="Grupo_70036" data-name="Grupo 70036" opacity="0.2">
          <path id="Trazado_104184" data-name="Trazado 104184" d="M765.844-217.939l4.212,9.918-5.579,1.359-1,10.1-4.906-3.276-6.175-5.148-3.873,5.835,1.8,16.818-7.978-14.23L736.9-184.785s.34,7.783.34,8.516-4.672-2.3-4.672-2.3l-3.133,10.757-8.991.437-5.406,1.767c-1.593-.928-2.257-1.911-1.638-2.9l13.7-3.269,2.2-8.749,6.816-8.333s.724-9.557,1.88-9.527,8.236-3.322,8.236-3.322,4.967-6.605,5.178-7.655,9.421,6.9,9.421,6.9l.943-12.712,2.106-9.686,7.27,1.487s.318.9.786,2.258Z" transform="translate(-713.173 224.862)"/>
        </g>
      </g>
      <g id="Grupo_70039" data-name="Grupo 70039" transform="translate(169.351 91.417)">
        <path id="Trazado_104185" data-name="Trazado 104185" d="M793.429-201.8,787.1-190.392l-1.465,18.525-6.19-2.022-2.37-.777s.755-9.784,1.012-10.207-2.326-12.659-2.326-12.659l-3.586-13.482,7.164-13.46,5,3.155.384.831Z" transform="translate(-772.172 224.474)" fill="#f39b49"/>
        <g id="Grupo_70038" data-name="Grupo 70038" opacity="0.2">
          <path id="Trazado_104186" data-name="Trazado 104186" d="M779.216-215.264s3.9,11.187,4.152,11.693-6.3-4.212-6.3-4.212l5.73,22.91s-2.129,6.862-3.36,10.984l-2.37-.777s.755-9.784,1.012-10.207-2.326-12.659-2.326-12.659l-3.586-13.482,7.164-13.46,5,3.155.384.831c-1.676-.318-3.238-.627-3.238-.627Z" transform="translate(-772.172 224.474)"/>
        </g>
      </g>
      <g id="Grupo_70046" data-name="Grupo 70046" transform="translate(27.32 38.399)">
        <g id="Grupo_70045" data-name="Grupo 70045">
          <g id="Grupo_70043" data-name="Grupo 70043">
            <path id="Trazado_104187" data-name="Trazado 104187" d="M656.508-80.25l38.608,15.089L858.2-180.874l5.1-43.156-50.146-11.094L733.725-209.5Z" transform="translate(-656.508 275.064)" fill="#6b3319"/>
            <path id="Trazado_104188" data-name="Trazado 104188" d="M656.508-141.526v39.939L695.116-86.5v-39.94Z" transform="translate(-656.508 296.401)" fill="#b26233"/>
            <path id="Trazado_104189" data-name="Trazado 104189" d="M820.758-175.519v-39.939l5.1-43.156v39.939Z" transform="translate(-619.065 269.709)" fill="#823e23"/>
            <g id="Grupo_70040" data-name="Grupo 70040">
              <path id="Trazado_104190" data-name="Trazado 104190" d="M656.508-112.775l38.608,15.088L858.2-213.4l5.1-43.156-50.146-11.094-79.434,25.628Z" transform="translate(-656.508 267.649)" fill="#c05937"/>
            </g>
            <g id="Grupo_70041" data-name="Grupo 70041" transform="translate(4.883 3.019)">
              <path id="Trazado_104191" data-name="Trazado 104191" d="M735.7-244.857l-75.219,124.92,33.727,12.87L736.1-136.856V-244.991Z" transform="translate(-660.485 269.795)" fill="#592a12"/>
              <path id="Trazado_104192" data-name="Trazado 104192" d="M829.943-254.674,782.416-265.19v80.242l42.2-30.009Z" transform="translate(-632.689 265.19)" fill="#592d18"/>
              <path id="Trazado_104193" data-name="Trazado 104193" d="M722.065-240.386v108.135l74.109-52.7V-265.19Z" transform="translate(-646.447 265.19)" fill="#49220c"/>
            </g>
            <g id="Grupo_70042" data-name="Grupo 70042" transform="translate(29.001 42.269)">
              <path id="Trazado_104194" data-name="Trazado 104194" d="M805.735-192.235l.225-.159,41.866-29.518-42.091-11.316L732-200.943l-51.877,87.528,9.608,3.666Z" transform="translate(-680.125 233.227)" fill="#4e240d"/>
            </g>
          </g>
          <path id="Trazado_104195" data-name="Trazado 104195" d="M657.458-102.525,694.9-86.383,857.985-202.622l4.327-41.853-4.576,40.854-163,116.073Z" transform="translate(-656.291 272.932)" fill="#93462a" style="mix-blend-mode: multiply;isolation: isolate"/>
          <path id="Trazado_104196" data-name="Trazado 104196" d="M861.48-223.741l-3.578,30.2L694.9-78.3,657.458-93.107l37.276,13.479L857.819-194.7Z" transform="translate(-656.291 277.659)" fill="#93462a" style="mix-blend-mode: multiply;isolation: isolate"/>
          <path id="Trazado_104197" data-name="Trazado 104197" d="M656.508-122.846l38.608,15.088L858.2-223.47,695.117-108.978Z" transform="translate(-656.508 277.72)" fill="#c05937" style="mix-blend-mode: screen;isolation: isolate"/>
          <path id="Trazado_104198" data-name="Trazado 104198" d="M656.508-101.587v-39.939l2,38L674.26-94.6Z" transform="translate(-656.508 296.401)" fill="#c05937" style="mix-blend-mode: screen;isolation: isolate"/>
          <path id="Trazado_104199" data-name="Trazado 104199" d="M679.671-93.689l15.2,5.77v-39.94l-19.191-7.433,14.311,8.653v10.429l-32.4-11.2L689.1-111.772l-.111,8.653-15.088-4.1,14.756,7.988v6.767Z" transform="translate(-656.26 297.822)" fill="#a24c2e" opacity="0.4" style="mix-blend-mode: multiply;isolation: isolate"/>
          <path id="Trazado_104200" data-name="Trazado 104200" d="M825.861-258.614l-5.1,43.156v39.939l5.1-43.156Z" transform="translate(-619.065 269.709)" fill="#843f23" style="mix-blend-mode: multiply;isolation: isolate"/>
          <path id="Trazado_104201" data-name="Trazado 104201" d="M807.237-225.569l-1.724-39.479.034,39.157L733.635-194.4l-2.009-46.015.041,47.3-51.541,86.961,53.985-85.753,71.779-31.73,41.936,8.986Z" transform="translate(-651.124 268.242)" fill="#7d3c21" opacity="0.6" style="mix-blend-mode: multiply;isolation: isolate"/>
          <path id="Trazado_104202" data-name="Trazado 104202" d="M686.365-125.456s-8.834-4.121-11.532-4.7C674.833-130.16,682.4-126.033,686.365-125.456Z" transform="translate(-652.33 298.992)" fill="#6b3319"/>
          <path id="Trazado_104203" data-name="Trazado 104203" d="M668.215-128.017s-7.767-3.624-10.141-4.138C658.074-132.155,664.726-128.525,668.215-128.017Z" transform="translate(-656.151 298.537)" fill="#6b3319"/>
          <path id="Trazado_104204" data-name="Trazado 104204" d="M684.115-114.827s-7.767-3.622-10.139-4.137C673.976-118.964,680.627-115.334,684.115-114.827Z" transform="translate(-652.526 301.544)" fill="#6b3319"/>
          <path id="Trazado_104205" data-name="Trazado 104205" d="M675.571-115.566a55.947,55.947,0,0,0-6.113-2.5S673.467-115.873,675.571-115.566Z" transform="translate(-653.556 301.75)" fill="#6b3319"/>
          <path id="Trazado_104206" data-name="Trazado 104206" d="M670.183-109.045s-7.914-3.692-10.332-4.216C659.851-113.261,666.628-109.564,670.183-109.045Z" transform="translate(-655.746 302.844)" fill="#6b3319"/>
          <path id="Trazado_104207" data-name="Trazado 104207" d="M686.9-100.372s-7.914-3.692-10.332-4.216C676.565-104.588,683.343-100.889,686.9-100.372Z" transform="translate(-651.935 304.821)" fill="#6b3319"/>
          <g id="Grupo_70044" data-name="Grupo 70044" transform="translate(41.493 75.444)" opacity="0.5" style="mix-blend-mode: multiply;isolation: isolate">
            <path id="Trazado_104208" data-name="Trazado 104208" d="M720.384-141.15s13.424-9.874,17.75-11.76C738.134-152.91,724.932-143.479,720.384-141.15Z" transform="translate(-683.44 218.362)" fill="#93462a"/>
            <path id="Trazado_104209" data-name="Trazado 104209" d="M693.37-125.473s11.495-8.455,15.2-10.068C708.569-135.541,697.264-127.467,693.37-125.473Z" transform="translate(-689.598 222.321)" fill="#93462a"/>
            <path id="Trazado_104210" data-name="Trazado 104210" d="M690.3-111.7s7.852-5.775,10.382-6.879C700.68-118.578,692.958-113.062,690.3-111.7Z" transform="translate(-690.298 226.188)" fill="#93462a"/>
            <path id="Trazado_104211" data-name="Trazado 104211" d="M741.619-146.625s9.339-6.869,12.348-8.181C753.967-154.806,744.784-148.246,741.619-146.625Z" transform="translate(-678.599 217.929)" fill="#93462a"/>
            <path id="Trazado_104212" data-name="Trazado 104212" d="M696.952-113.9s8-5.882,10.574-7.006C707.526-120.9,699.661-115.286,696.952-113.9Z" transform="translate(-688.781 225.658)" fill="#93462a"/>
            <path id="Trazado_104213" data-name="Trazado 104213" d="M703.85-109.378a73.239,73.239,0,0,1,7.223-4.785S705.7-110.326,703.85-109.378Z" transform="translate(-687.209 227.195)" fill="#93462a"/>
            <path id="Trazado_104214" data-name="Trazado 104214" d="M734.3-132.777a73.254,73.254,0,0,1,7.223-4.785S736.146-133.726,734.3-132.777Z" transform="translate(-680.268 221.86)" fill="#93462a"/>
            <path id="Trazado_104215" data-name="Trazado 104215" d="M703.308-120.581a73.394,73.394,0,0,1,7.222-4.784S705.159-121.529,703.308-120.581Z" transform="translate(-687.332 224.641)" fill="#93462a"/>
            <path id="Trazado_104216" data-name="Trazado 104216" d="M716.5-141.361a73.283,73.283,0,0,1,7.223-4.784S718.349-142.308,716.5-141.361Z" transform="translate(-684.325 219.904)" fill="#93462a"/>
            <path id="Trazado_104217" data-name="Trazado 104217" d="M775.223-182.5s11.4-8.383,15.072-9.985C790.295-192.481,779.085-184.475,775.223-182.5Z" transform="translate(-670.938 209.341)" fill="#93462a"/>
            <path id="Trazado_104218" data-name="Trazado 104218" d="M739.446-158.537s8.727-6.419,11.539-7.645C750.985-166.182,742.4-160.052,739.446-158.537Z" transform="translate(-679.094 215.336)" fill="#93462a"/>
            <path id="Trazado_104219" data-name="Trazado 104219" d="M764.743-164.139s8.727-6.417,11.539-7.644C776.282-171.783,767.7-165.653,764.743-164.139Z" transform="translate(-673.327 214.059)" fill="#93462a"/>
            <path id="Trazado_104220" data-name="Trazado 104220" d="M776.669-163.232A57.894,57.894,0,0,1,782.363-167S778.128-163.978,776.669-163.232Z" transform="translate(-670.609 215.149)" fill="#93462a"/>
            <path id="Trazado_104221" data-name="Trazado 104221" d="M751.372-143s8.727-6.419,11.539-7.645C762.911-150.642,754.329-144.512,751.372-143Z" transform="translate(-676.375 218.879)" fill="#93462a"/>
            <path id="Trazado_104222" data-name="Trazado 104222" d="M762.939-162.264s5.823-4.283,7.7-5.1C770.638-167.365,764.911-163.273,762.939-162.264Z" transform="translate(-673.738 215.066)" fill="#93462a"/>
            <path id="Trazado_104223" data-name="Trazado 104223" d="M791.486-183.735s9.011-6.627,11.916-7.893C803.4-191.628,794.54-185.3,791.486-183.735Z" transform="translate(-667.231 209.535)" fill="#93462a"/>
            <path id="Trazado_104224" data-name="Trazado 104224" d="M808.923-185.751s5.823-4.283,7.7-5.1C816.622-190.852,810.9-186.762,808.923-185.751Z" transform="translate(-663.256 209.712)" fill="#93462a"/>
            <path id="Trazado_104225" data-name="Trazado 104225" d="M797.991-196.26s11.361-8.356,15.022-9.951C813.013-206.211,801.841-198.232,797.991-196.26Z" transform="translate(-665.748 206.211)" fill="#93462a"/>
          </g>
          <path id="Trazado_104226" data-name="Trazado 104226" d="M687.948-67.818,851.034-183.531V-223.47L781.585-174.1l62.127-40.161-.443,3.55L824.187-197.62l19.525-10.429-83.206,63.9,82.541-53.474v3.328l-71.89,51.7,71.89-46.6-102.732,73L841.271-183.42Z" transform="translate(-649.341 277.72)" fill="#a24c2e" opacity="0.6" style="mix-blend-mode: multiply;isolation: isolate"/>
        </g>
        <path id="Trazado_104227" data-name="Trazado 104227" d="M688.221-157.873l41.936-69.893,73.887-27.957,40.272,8.986-40.6-6.657-73.222,27.957Z" transform="translate(-649.279 270.368)" fill="#aa5131" opacity="0.6" style="mix-blend-mode: multiply;isolation: isolate"/>
        <path id="Trazado_104228" data-name="Trazado 104228" d="M675.3-116.586l57.8-97.628,73.887-27.957,32.95,7.988L807.1-240.618l-73.666,28.734Z" transform="translate(-652.224 273.457)" fill="#aa5131" opacity="0.6" style="mix-blend-mode: multiply;isolation: isolate"/>
      </g>
      <g id="Grupo_70048" data-name="Grupo 70048" transform="translate(151.152 66.298)">
        <g id="Grupo_70047" data-name="Grupo 70047">
          <path id="Trazado_104229" data-name="Trazado 104229" d="M794.509-220.361a12.279,12.279,0,0,1-3.987,4.2,20.851,20.851,0,0,1-5.743,3.09c-1.855.512-3.956-.211-5.674.249-1.887.5-2.859,3.447-4.369,3.5-1.79.047-2.592-3.269-3.462-4.417-2.112.785-2.375,2.988-3.679,4.483a3,3,0,0,1-.3-.126c-1.373-.647-1.3-1.8-.028-2.773a6.545,6.545,0,0,0-.454-.736c-.452.448-1.4.65-1.9,1.062-1.073-1.066-.834-2.059.546-2.641-.636-1.508-2.033-.946-3.172-.363a2.334,2.334,0,0,1,1.462-2.4,1.329,1.329,0,0,1-.329-.841,1.385,1.385,0,0,1-.617-.661,2.331,2.331,0,0,1-2.793.235c1.031-.759,2.156-1.768,1.083-3-1.135.977-2.133.749-2.6-.68.6-.266,1.185-1.031,1.8-1.235.01-.021-.464-.74-.475-.745-1.531.765-2.64.205-2.449-1.574a7.279,7.279,0,0,1,1.415-.2c1.5-.071,3.006.07,4.245-1.1-.652-1.287-3.254-3.48-2.422-5.058.71-1.343,3.776-.89,5.07-2.365,1.173-1.329,1.466-3.543,2.741-4.977a20.816,20.816,0,0,1,5.321-3.76c8.315-4.637,13.667.786,18.057,7.521C794.89-230.444,797.067-225.03,794.509-220.361Z" transform="translate(-757.351 244.929)" fill="#fcfcfc"/>
          <path id="Trazado_104230" data-name="Trazado 104230" d="M768.564-234.383l.138-.086Z" transform="translate(-754.795 247.314)" fill="#fff"/>
          <path id="Trazado_104231" data-name="Trazado 104231" d="M775.236-223.627l.139-.086Z" transform="translate(-753.274 249.766)" fill="#fff"/>
          <path id="Trazado_104232" data-name="Trazado 104232" d="M769.93-233.846c-.867-1.462-4.841-.623-6.022.48-1.873,1.747-.157,4.628,1.485,6.166C768.932-223.883,775.247-231.717,769.93-233.846Z" transform="translate(-756.043 247.278)" fill="#553b31"/>
          <path id="Trazado_104233" data-name="Trazado 104233" d="M776.419-223.276c.926,1.427-1.593,4.613-3.106,5.182-2.4.9-4.216-1.914-4.865-4.068C767.05-226.807,776.873-228.985,776.419-223.276Z" transform="translate(-754.853 249.085)" fill="#553b31"/>
          <path id="Trazado_104234" data-name="Trazado 104234" d="M768.15-226.059c-1.151-.162-2.925-.519-3.884-.181-1.718.608-1.334,2.811.352,2.371-1.142,1.316.661,2.64,1.968,1.369C767.316-223.208,767.784-224.957,768.15-226.059Z" transform="translate(-756.029 249.157)" fill="#553b31"/>
        </g>
        <path id="Trazado_104235" data-name="Trazado 104235" d="M794.509-223.887a12.279,12.279,0,0,1-3.987,4.2,20.851,20.851,0,0,1-5.743,3.09c-1.855.512-3.956-.211-5.674.249-1.887.5-2.859,3.447-4.369,3.5-1.79.047-2.592-3.269-3.462-4.417-2.112.785-2.375,2.988-3.679,4.483a2.992,2.992,0,0,1-.3-.126c-1.373-.647-1.3-1.8-.028-2.773a6.546,6.546,0,0,0-.454-.736c-.452.448-1.4.65-1.9,1.062-1.073-1.066-.834-2.059.546-2.641-.636-1.508-2.033-.946-3.172-.363a2.334,2.334,0,0,1,1.462-2.4,1.329,1.329,0,0,1-.329-.841,1.385,1.385,0,0,1-.617-.661,2.331,2.331,0,0,1-2.793.235c1.031-.759,2.156-1.768,1.083-3-1.135.977-2.133.749-2.6-.68.6-.266,1.185-1.031,1.8-1.235.01-.021-.464-.74-.475-.745-1.531.765-2.64.205-2.449-1.574a7.281,7.281,0,0,1,1.415-.2c2.625,1.364,5.284,2.656,7.944,3.783l.021.01q1.262.519,2.509.992c.669.252,1.343.494,2.018.71a42.359,42.359,0,0,0,7.833,1.913A29.2,29.2,0,0,0,794.509-223.887Z" transform="translate(-757.351 248.455)" fill="#131312" opacity="0.1"/>
      </g>
      <g id="Grupo_70051" data-name="Grupo 70051" transform="translate(107.444 93.996)">
        <g id="Grupo_70049" data-name="Grupo 70049">
          <path id="Trazado_104236" data-name="Trazado 104236" d="M764.881-211.609c-.138.336-1.822.249-4.41-.3-.35-.075-.72-.158-1.1-.255-1.028-.247-2.156-.562-3.362-.957a37.314,37.314,0,0,1-5.236-2.113,21.506,21.506,0,0,1-2.541-1.5,10.771,10.771,0,0,1-1.131-.9,5.1,5.1,0,0,1-.516-.515c-.086-.1-.162-.169-.249-.282l-.247-.352-.115-.174-.1-.235c-.064-.155-.136-.308-.189-.458a2.035,2.035,0,0,1-.031-.907,1.95,1.95,0,0,1,1.114-1.37,1.433,1.433,0,0,1,.251-.122,6.246,6.246,0,0,1,.659-.211,7.681,7.681,0,0,1,.932-.106,7.279,7.279,0,0,1,1.281.1,8.391,8.391,0,0,1,3.093,1.2c.618.408.862.734.752.89s-.571.145-1.286.047a20.362,20.362,0,0,0-2.827-.268,5.262,5.262,0,0,0-.776.071.3.3,0,0,0-.2.117.13.13,0,0,0-.018.149.186.186,0,0,0,.052.055l.03.02.01.006.047.053.1.1.155.141a4.431,4.431,0,0,0,.37.313c.255.209.578.422.9.636.663.424,1.433.83,2.228,1.244,3.244,1.609,6.5,2.837,8.8,3.834C763.618-212.683,765.036-211.966,764.881-211.609Z" transform="translate(-716.32 222.374)" fill="#fcfcfc"/>
          <path id="Trazado_104237" data-name="Trazado 104237" d="M763.892-209.417c-.1.279-1.469.262-3.681-.082-.47-.076-.984-.162-1.526-.266-1.545-.3-3.367-.72-5.355-1.3a47.14,47.14,0,0,1-6.324-2.307,25.041,25.041,0,0,1-3.1-1.66,10.109,10.109,0,0,1-2.584-2.225,4.073,4.073,0,0,1-.47-.786,2.772,2.772,0,0,1-.2-1.114,1.854,1.854,0,0,1,.106-.5,2.449,2.449,0,0,1,1.186-1.235,4.249,4.249,0,0,1,1.043-.367,6.517,6.517,0,0,1,.866-.1,8.325,8.325,0,0,1,1.474.058,10.7,10.7,0,0,1,3.737,1.208c.764.433,1.09.777.993.934s-.632.138-1.477.022a21.731,21.731,0,0,0-3.425-.29,7.859,7.859,0,0,0-.979.1c-.149.026-.3.076-.413.107-.079.037-.173.077-.176.1a.134.134,0,0,0-.032.166c.009.028.037.048.05.066a3.251,3.251,0,0,0,.253.308,9.142,9.142,0,0,0,1.988,1.482c.828.494,1.779.957,2.763,1.416,1.989.908,4,1.676,5.855,2.356s3.551,1.28,4.966,1.79C762.273-210.516,764.026-209.784,763.892-209.417Z" transform="translate(-717.452 222.599)" fill="#fcfcfc"/>
          <path id="Trazado_104238" data-name="Trazado 104238" d="M762.65-207.537c-.053.26-1.34.348-3.49.217-.7-.045-1.5-.112-2.374-.208-1.771-.2-3.872-.5-6.182-.964a56.806,56.806,0,0,1-7.418-1.96,31.925,31.925,0,0,1-3.7-1.537,12.067,12.067,0,0,1-3.192-2.2,3.181,3.181,0,0,1-1-1.906c0-.036-.009-.075-.011-.111a2.26,2.26,0,0,1,1.18-1.966,5.058,5.058,0,0,1,1.935-.657,9.277,9.277,0,0,1,1.625-.084,12.752,12.752,0,0,1,4.347.925c.93.387,1.356.722,1.283.885-.086.181-.666.173-1.636.108a23.1,23.1,0,0,0-3.91-.039,8.13,8.13,0,0,0-1.12.2,2.318,2.318,0,0,0-.781.345c-.107.093-.074.145-.052.2a1.27,1.27,0,0,1,.129.194,3.057,3.057,0,0,0,.351.357,10.992,10.992,0,0,0,2.5,1.509c1.006.478,2.153.9,3.331,1.324,2.385.823,4.771,1.482,6.956,2.053s4.184,1.055,5.86,1.478C760.647-208.523,762.735-207.918,762.65-207.537Z" transform="translate(-718.675 223.162)" fill="#fcfcfc"/>
          <path id="Trazado_104239" data-name="Trazado 104239" d="M753.033-205.3c-.228-.014-.462-.029-.7-.049-1.779-.151-3.9-.4-6.224-.8a55.922,55.922,0,0,1-7.488-1.773,32.166,32.166,0,0,1-3.764-1.438,12.262,12.262,0,0,1-3.275-2.117,3.356,3.356,0,0,1-1.013-1.6,2,2,0,0,1-.056-.28,2.2,2.2,0,0,1,1.084-2.107,5.02,5.02,0,0,1,1.907-.706,9.909,9.909,0,0,1,1.626-.124,12.881,12.881,0,0,1,4.381.813c.941.362,1.381.688,1.314.853s-.662.188-1.628.146a23.807,23.807,0,0,0-3.912.06,9.007,9.007,0,0,0-1.106.231,2.358,2.358,0,0,0-.775.365c-.1.1-.063.151-.038.2a1.766,1.766,0,0,1,.138.192,2.734,2.734,0,0,0,.361.345,11.073,11.073,0,0,0,2.56,1.444c1.03.454,2.192.85,3.387,1.239,2.412.76,4.821,1.361,7.03,1.873s4.223.946,5.919,1.332c3.385.752,5.5,1.3,5.428,1.685C758.13-205.183,756.183-205.073,753.033-205.3Z" transform="translate(-719.767 223.761)" fill="#fcfcfc"/>
          <path id="Trazado_104240" data-name="Trazado 104240" d="M751.363-202.806c-.637.011-1.351.009-2.129,0-1.785-.037-3.917-.153-6.277-.406a57.871,57.871,0,0,1-7.639-1.3,33.033,33.033,0,0,1-3.88-1.2,12.978,12.978,0,0,1-3.471-1.9,3.384,3.384,0,0,1-1.247-1.806.374.374,0,0,1-.017-.091,2.134,2.134,0,0,1,.9-2.079,4.8,4.8,0,0,1,1.828-.822,9.77,9.77,0,0,1,1.609-.227,13.043,13.043,0,0,1,4.442.532c.977.3,1.449.6,1.393.77s-.636.23-1.606.251a23.612,23.612,0,0,0-3.894.3,8.279,8.279,0,0,0-1.086.3,2.216,2.216,0,0,0-.733.416.141.141,0,0,0-.02.208,1.6,1.6,0,0,1,.152.182,3.923,3.923,0,0,0,.4.322,11.712,11.712,0,0,0,2.686,1.278c1.068.384,2.264.7,3.492,1.022,2.482.6,4.94,1.05,7.191,1.42s4.3.679,6.023.954c3.453.539,5.607.96,5.581,1.34C755.042-203.064,753.679-202.857,751.363-202.806Z" transform="translate(-720.639 224.59)" fill="#fcfcfc"/>
          <path id="Trazado_104241" data-name="Trazado 104241" d="M748.886-200.851c-.534.058-1.119.113-1.746.158-1.784.134-3.918.222-6.3.194a59.632,59.632,0,0,1-7.766-.561,34.252,34.252,0,0,1-4.035-.822,13.773,13.773,0,0,1-3.718-1.557,3.637,3.637,0,0,1-1.5-1.68,1.558,1.558,0,0,1-.117-.457,2.122,2.122,0,0,1,.684-1.778,4.541,4.541,0,0,1,1.7-.993,9.277,9.277,0,0,1,1.564-.377,13.332,13.332,0,0,1,4.494.106c1.007.209,1.52.458,1.491.631-.028.19-.6.292-1.562.4a22.893,22.893,0,0,0-3.82.675,7.016,7.016,0,0,0-1.033.4,2,2,0,0,0-.671.476.146.146,0,0,0,.009.21,1.355,1.355,0,0,1,.178.165,4.039,4.039,0,0,0,.438.282,12.733,12.733,0,0,0,2.854,1.016c1.119.281,2.353.484,3.621.682,2.551.365,5.059.575,7.341.731s4.373.269,6.121.376c3.507.207,5.711.419,5.735.8C752.867-201.48,751.4-201.121,748.886-200.851Z" transform="translate(-721.317 225.453)" fill="#fcfcfc"/>
          <path id="Trazado_104242" data-name="Trazado 104242" d="M745.21-197.1c-.756.053-1.574.1-2.447.138-1.182.045-2.472.068-3.847.052a58.723,58.723,0,0,1-7.775-.559,32.813,32.813,0,0,1-4.025-.824,13.438,13.438,0,0,1-3.723-1.56,3.861,3.861,0,0,1-1.4-1.455c-.034-.07-.065-.144-.1-.217a2.046,2.046,0,0,1,.57-2.24,4.548,4.548,0,0,1,1.7-.993,10.056,10.056,0,0,1,1.564-.377,13.258,13.258,0,0,1,4.492.111c1.007.208,1.52.457,1.491.63-.028.192-.6.289-1.562.4a22.456,22.456,0,0,0-3.82.675,7.563,7.563,0,0,0-1.035.394,2.1,2.1,0,0,0-.668.484.144.144,0,0,0,.009.209.966.966,0,0,1,.182.161,3.342,3.342,0,0,0,.437.282,12.176,12.176,0,0,0,2.855,1.016c1.119.281,2.349.489,3.618.685,2.55.366,5.054.572,7.344.727s4.368.265,6.12.376c3.5.211,5.709.422,5.732.8C750.941-197.831,748.776-197.376,745.21-197.1Z" transform="translate(-721.758 226.271)" fill="#fcfcfc"/>
          <path id="Trazado_104243" data-name="Trazado 104243" d="M775.343-200.212a2.328,2.328,0,0,1-1.582,1.033,3.792,3.792,0,0,1-1.115.061c-.188-.029-.382-.079-.581-.113l-.286-.06-.23-.08-.462-.165c-.147-.061-.239-.113-.368-.172a7.115,7.115,0,0,1-.678-.366,11.9,11.9,0,0,1-1.214-.834,18.175,18.175,0,0,1-2.075-1.913s-.007-.01-.012-.012a26.908,26.908,0,0,1-3.08-4.02,28.323,28.323,0,0,1-1.906-3.49c-.922-2.043-1.191-3.392-.791-3.539.43-.156,1.438.921,2.864,2.7,1.431,1.762,3.247,4.279,5.528,6.753a23.509,23.509,0,0,0,1.741,1.677,9.411,9.411,0,0,0,.861.668,3.409,3.409,0,0,0,.42.268l.187.117.2.1.013.012.022.017a.22.22,0,0,0,.074.037.217.217,0,0,0,.18-.028.24.24,0,0,0,.126-.177,3.162,3.162,0,0,0,.006-.631,10.827,10.827,0,0,0-.592-2.261c-.183-.572-.254-.937-.063-1.046s.6.064,1.162.519a6.145,6.145,0,0,1,1.746,2.359c.007.01.006.021.014.031a3.945,3.945,0,0,1,.255,1.03,4.183,4.183,0,0,1-.048.763A2.3,2.3,0,0,1,775.343-200.212Z" transform="translate(-712.861 224.306)" fill="#fcfcfc"/>
          <path id="Trazado_104244" data-name="Trazado 104244" d="M772.814-194.414a5.018,5.018,0,0,1-1.383-.058,6.051,6.051,0,0,1-1-.309,11.152,11.152,0,0,1-2.972-1.884,22.519,22.519,0,0,1-2.316-2.354c-.5-.592-.959-1.187-1.389-1.773a34.358,34.358,0,0,1-2.015-3.133,37.7,37.7,0,0,1-2.091-4.212c-1-2.451-1.3-4.047-.9-4.18.438-.139,1.5,1.214,3.019,3.42.759,1.1,1.658,2.4,2.652,3.846s2.126,2.995,3.421,4.52a26.509,26.509,0,0,0,1.984,2.106,9.668,9.668,0,0,0,2,1.474c.163.1.287.109.4.173a.262.262,0,0,0,.082.036.222.222,0,0,0,.2-.039c.033-.006.07-.082.108-.151.025-.1.071-.217.093-.341a3.951,3.951,0,0,0,.03-.8,11.769,11.769,0,0,0-.668-2.74c-.215-.679-.311-1.1-.108-1.2.184-.09.641.139,1.24.721a7.234,7.234,0,0,1,1.82,2.913,4.222,4.222,0,0,1,.188.953,1.327,1.327,0,0,1,.022.228,4.013,4.013,0,0,1-.048.711,2.7,2.7,0,0,1-.357.879A2.745,2.745,0,0,1,772.814-194.414Z" transform="translate(-713.365 224.664)" fill="#fcfcfc"/>
          <path id="Trazado_104245" data-name="Trazado 104245" d="M771.989-190.329a3.09,3.09,0,0,1-2.44,1.146,4.954,4.954,0,0,1-2.431-.629,11.6,11.6,0,0,1-2.995-2.371,23.892,23.892,0,0,1-2.234-2.843c-.567-.857-1.079-1.711-1.532-2.547-.61-1.126-1.127-2.223-1.576-3.266a42.8,42.8,0,0,1-1.765-4.911c-.806-2.83-.955-4.642-.542-4.741.454-.1,1.4,1.529,2.747,4.166.684,1.314,1.46,2.881,2.371,4.6a60.42,60.42,0,0,0,3.173,5.429,26.745,26.745,0,0,0,1.941,2.569,9.9,9.9,0,0,0,2.085,1.882,3.592,3.592,0,0,0,.472.247,1.678,1.678,0,0,1,.245.087.233.233,0,0,0,.247-.059,1.608,1.608,0,0,0,.35-.666,4.526,4.526,0,0,0,.14-.922,12.372,12.372,0,0,0-.422-3.156c-.166-.775-.23-1.248-.021-1.331s.647.233,1.212.949a7.851,7.851,0,0,1,1.542,3.426,5.344,5.344,0,0,1,.05,1.323c-.018.119-.037.239-.059.363-.009,0,0,0,0,0A2.8,2.8,0,0,1,771.989-190.329Z" transform="translate(-713.894 225.081)" fill="#fcfcfc"/>
          <path id="Trazado_104246" data-name="Trazado 104246" d="M769-186.081A3.136,3.136,0,0,1,766.515-185a4.855,4.855,0,0,1-2.4-.689,11.3,11.3,0,0,1-2.9-2.447,22.393,22.393,0,0,1-2.126-2.9q-.764-1.243-1.368-2.46a36.725,36.725,0,0,1-1.507-3.432,41.1,41.1,0,0,1-1.575-4.95c-.7-2.853-.776-4.671-.352-4.753.458-.088,1.336,1.563,2.582,4.232.626,1.332,1.342,2.921,2.187,4.656a60.041,60.041,0,0,0,2.959,5.511,26.1,26.1,0,0,0,1.841,2.617,9.685,9.685,0,0,0,2.01,1.934,3.678,3.678,0,0,0,.457.257,2.454,2.454,0,0,1,.247.093.237.237,0,0,0,.249-.052,1.59,1.59,0,0,0,.375-.659,4.468,4.468,0,0,0,.178-.915,12.322,12.322,0,0,0-.3-3.166c-.141-.78-.182-1.253.032-1.334.2-.071.636.258,1.173.982a7.773,7.773,0,0,1,1.41,3.467,5.4,5.4,0,0,1,0,1.287c0,.011-.006.027-.007.038A3.114,3.114,0,0,1,769-186.081Z" transform="translate(-714.401 225.961)" fill="#fcfcfc"/>
          <path id="Trazado_104247" data-name="Trazado 104247" d="M764.329-182.349a3.241,3.241,0,0,1-2.579.917,4.861,4.861,0,0,1-2.332-.837,10.88,10.88,0,0,1-2.659-2.625,21.938,21.938,0,0,1-1.835-3.027c-.379-.752-.712-1.5-1.011-2.234a36.886,36.886,0,0,1-1.3-3.815,40.652,40.652,0,0,1-1.1-5.041c-.417-2.883-.327-4.7.1-4.757.467-.061,1.181,1.644,2.17,4.385.5,1.364,1.065,2.994,1.74,4.78a57.051,57.051,0,0,0,2.425,5.672,25.611,25.611,0,0,0,1.583,2.731,9.154,9.154,0,0,0,1.82,2.049,3.37,3.37,0,0,0,.431.291,1.855,1.855,0,0,1,.238.107.249.249,0,0,0,.253-.038,1.672,1.672,0,0,0,.437-.627,5.051,5.051,0,0,0,.26-.91,12.3,12.3,0,0,0,.009-3.171c-.063-.788-.069-1.26.155-1.326.205-.061.615.3,1.077,1.054a7.571,7.571,0,0,1,1.078,3.541,5.754,5.754,0,0,1-.129,1.32l0,.016A3.271,3.271,0,0,1,764.329-182.349Z" transform="translate(-715.034 226.614)" fill="#fcfcfc"/>
          <path id="Trazado_104248" data-name="Trazado 104248" d="M759.03-179.2a3.392,3.392,0,0,1-2.7.67,4.537,4.537,0,0,1-2.19-1.054,10.1,10.1,0,0,1-2.266-2.859,20.623,20.623,0,0,1-1.388-3.179,30.246,30.246,0,0,1-.965-3.538c-.2-.933-.345-1.832-.46-2.694a40.267,40.267,0,0,1-.361-5.1c0-2.911.354-4.7.783-4.717.47-.018.941,1.742,1.526,4.557.3,1.4.627,3.076,1.04,4.913a54.728,54.728,0,0,0,1.591,5.868,24.53,24.53,0,0,0,1.176,2.856,8.6,8.6,0,0,0,1.518,2.212,3.111,3.111,0,0,0,.383.325,1.531,1.531,0,0,1,.219.133.244.244,0,0,0,.255-.014,1.739,1.739,0,0,0,.527-.583,4.685,4.685,0,0,0,.4-.878,12.828,12.828,0,0,0,.463-3.15c.044-.787.117-1.256.345-1.3.212-.042.566.351.914,1.146a7.318,7.318,0,0,1,.562,3.62,5.392,5.392,0,0,1-.323,1.3c-.048.112-.1.22-.152.335A3.157,3.157,0,0,1,759.03-179.2Z" transform="translate(-715.615 227.092)" fill="#fcfcfc"/>
          <path id="Trazado_104249" data-name="Trazado 104249" d="M755.007-177.468c-.055.054-.12.111-.193.168a3.386,3.386,0,0,1-2.693.667,4.623,4.623,0,0,1-2.2-1.054,10.052,10.052,0,0,1-2.257-2.86,19.7,19.7,0,0,1-1.393-3.182,29.243,29.243,0,0,1-.825-2.91c-.264-1.153-.453-2.262-.6-3.319a39.407,39.407,0,0,1-.361-5.1c0-2.907.354-4.7.783-4.715.47-.018.936,1.739,1.526,4.556.3,1.4.627,3.077,1.035,4.912a55.719,55.719,0,0,0,1.591,5.867,23.669,23.669,0,0,0,1.181,2.86,8.638,8.638,0,0,0,1.509,2.213c.136.155.274.212.388.328a1.563,1.563,0,0,1,.222.128.238.238,0,0,0,.255-.014,1.8,1.8,0,0,0,.527-.583,5.148,5.148,0,0,0,.387-.876,12.408,12.408,0,0,0,.468-3.147c.048-.792.115-1.264.349-1.305.2-.039.561.349.912,1.147a7.253,7.253,0,0,1,.555,3.621,5.471,5.471,0,0,1-.314,1.3A3.607,3.607,0,0,1,755.007-177.468Z" transform="translate(-716.575 227.525)" fill="#fcfcfc"/>
          <path id="Trazado_104250" data-name="Trazado 104250" d="M762.427-211.815a27.085,27.085,0,0,1-3.056-.413c-1.028-.247-2.156-.562-3.362-.957a37.314,37.314,0,0,1-5.236-2.113,21.5,21.5,0,0,1-2.541-1.5,10.767,10.767,0,0,1-1.131-.9,5.1,5.1,0,0,1-.516-.515c-.086-.1-.162-.169-.249-.282l-.247-.352-.115-.174-.1-.235c-.064-.155-.136-.308-.189-.458a2.035,2.035,0,0,1-.031-.907,1.95,1.95,0,0,1,1.114-1.37,1.437,1.437,0,0,1,.251-.122,7.407,7.407,0,0,0,.529,2.393,4.358,4.358,0,0,0,1.986,2.186,17.219,17.219,0,0,0,1.751.678,21.271,21.271,0,0,1,2.44,1.191A65.961,65.961,0,0,0,762.427-211.815Z" transform="translate(-716.32 222.433)" opacity="0.1"/>
          <path id="Trazado_104251" data-name="Trazado 104251" d="M760.211-209.817c-.47-.076-.984-.162-1.526-.267-1.545-.3-3.367-.72-5.355-1.3a47.144,47.144,0,0,1-6.324-2.307,25.041,25.041,0,0,1-3.1-1.66,10.108,10.108,0,0,1-2.584-2.225,4.072,4.072,0,0,1-.47-.786,2.772,2.772,0,0,1-.2-1.114,1.854,1.854,0,0,1,.106-.5.859.859,0,0,1,.334.189c1.326,1.136,2.182,2.635,3.738,3.551a12.723,12.723,0,0,0,2.153.912A138.427,138.427,0,0,1,760.211-209.817Z" transform="translate(-717.452 222.918)" opacity="0.1"/>
          <path id="Trazado_104252" data-name="Trazado 104252" d="M759.159-207.8c-.7-.045-1.5-.112-2.374-.208-1.771-.2-3.872-.5-6.182-.964a56.808,56.808,0,0,1-7.418-1.96,31.926,31.926,0,0,1-3.7-1.537,12.068,12.068,0,0,1-3.191-2.2,3.182,3.182,0,0,1-1-1.906c0-.036-.009-.075-.011-.11a.953.953,0,0,1,.5-.138,1.78,1.78,0,0,1,1.153.6,14.472,14.472,0,0,0,5.193,3.318c1.105.356,2.288.523,3.4.852a33.888,33.888,0,0,1,3.435,1.368,33.771,33.771,0,0,0,7.349,2.138A9.964,9.964,0,0,1,759.159-207.8Z" transform="translate(-718.674 223.64)" opacity="0.1"/>
          <path id="Trazado_104253" data-name="Trazado 104253" d="M753.018-205.85c-.228-.014-.462-.029-.7-.049-1.779-.151-3.9-.4-6.225-.8a55.924,55.924,0,0,1-7.488-1.773,32.165,32.165,0,0,1-3.764-1.438,12.259,12.259,0,0,1-3.275-2.117,3.357,3.357,0,0,1-1.013-1.6,1.587,1.587,0,0,1,1.107-.211,3.837,3.837,0,0,1,1.6.824c4.809,3.491,10.985,5.554,17.3,6.649A20.268,20.268,0,0,1,753.018-205.85Z" transform="translate(-719.752 224.314)" opacity="0.1"/>
          <path id="Trazado_104254" data-name="Trazado 104254" d="M751.356-203.383c-.637.011-1.351.009-2.129,0-1.786-.037-3.917-.154-6.277-.406a57.872,57.872,0,0,1-7.639-1.3,33.023,33.023,0,0,1-3.88-1.2,12.98,12.98,0,0,1-3.471-1.9A3.384,3.384,0,0,1,726.712-210a.368.368,0,0,1-.017-.091,2.14,2.14,0,0,1,1.1.091,6.854,6.854,0,0,1,1.665,1.135,11.189,11.189,0,0,0,2.214,1.213c5.434,2.387,11.629,3.392,17.784,3.791A3.561,3.561,0,0,1,751.356-203.383Z" transform="translate(-720.632 225.167)" opacity="0.1"/>
          <path id="Trazado_104255" data-name="Trazado 104255" d="M749.217-201.682a2.713,2.713,0,0,1-.334.221c-.534.058-1.119.113-1.746.158-1.784.134-3.918.222-6.3.194a59.632,59.632,0,0,1-7.766-.561,34.249,34.249,0,0,1-4.035-.822,13.774,13.774,0,0,1-3.718-1.557,3.638,3.638,0,0,1-1.5-1.68,1.56,1.56,0,0,1-.117-.457,3.454,3.454,0,0,1,1.052.453,40.368,40.368,0,0,0,6.742,3.173,14.725,14.725,0,0,0,4.5,1.018c1.077.038,2.148-.117,3.226-.138,1.518-.037,3.034.184,4.543.1C745.6-201.68,747.507-202.222,749.217-201.682Z" transform="translate(-721.314 226.064)" opacity="0.1"/>
          <path id="Trazado_104256" data-name="Trazado 104256" d="M743.649-198.081a3.832,3.832,0,0,1-.93.388c-1.182.045-2.472.068-3.847.052a58.727,58.727,0,0,1-7.775-.559,32.8,32.8,0,0,1-4.025-.824,13.437,13.437,0,0,1-3.723-1.56,3.86,3.86,0,0,1-1.4-1.455,1.865,1.865,0,0,1,1.141.117,12.216,12.216,0,0,1,1.367.833,18.676,18.676,0,0,0,3.91,1.176c1.65.5,3.1,1.474,4.853,1.682a14.34,14.34,0,0,0,2.8-.087A33.472,33.472,0,0,1,743.649-198.081Z" transform="translate(-721.715 226.999)" opacity="0.1"/>
          <path id="Trazado_104257" data-name="Trazado 104257" d="M774.237-202.266a2.328,2.328,0,0,1-1.582,1.033,3.791,3.791,0,0,1-1.115.061c-.188-.029-.382-.079-.581-.113l-.286-.06-.23-.08-.462-.165c-.147-.061-.239-.113-.368-.172a7.1,7.1,0,0,1-.678-.366,11.9,11.9,0,0,1-1.215-.834,18.175,18.175,0,0,1-2.075-1.913s-.007-.01-.012-.012q.768.532,1.6.995a8.654,8.654,0,0,0,4.925,1.348,2.069,2.069,0,0,0,.964-.284c.722-.486.556-1.56,1.212-2.026.007.01.006.021.014.031a3.936,3.936,0,0,1,.255,1.03,4.171,4.171,0,0,1-.048.763A2.3,2.3,0,0,1,774.237-202.266Z" transform="translate(-711.755 226.36)" opacity="0.1"/>
          <path id="Trazado_104258" data-name="Trazado 104258" d="M771.852-196.555a5.019,5.019,0,0,1-1.383-.058,6.062,6.062,0,0,1-1-.309,11.153,11.153,0,0,1-2.972-1.884,22.529,22.529,0,0,1-2.316-2.354c-.5-.592-.959-1.187-1.389-1.773a12.485,12.485,0,0,1,2.242,1.642,32.172,32.172,0,0,0,4.088,2.872,5.756,5.756,0,0,0,1.716.754,2.387,2.387,0,0,0,1.85-.271c.473-.345.637-.887,1.02-1.294a1.35,1.35,0,0,1,.549-.341,1.315,1.315,0,0,1,.022.228,4.042,4.042,0,0,1-.048.711,2.7,2.7,0,0,1-.357.879A2.745,2.745,0,0,1,771.852-196.555Z" transform="translate(-712.404 226.805)" opacity="0.1"/>
          <path id="Trazado_104259" data-name="Trazado 104259" d="M771.226-192.728a3.09,3.09,0,0,1-2.44,1.146,4.954,4.954,0,0,1-2.431-.629,11.6,11.6,0,0,1-2.995-2.371,23.9,23.9,0,0,1-2.234-2.843c-.567-.857-1.079-1.711-1.532-2.547a9.864,9.864,0,0,1,2.1,2,19.232,19.232,0,0,0,2.438,3.15,12.7,12.7,0,0,0,4.267,2.036,3.156,3.156,0,0,0,1.083.221c.987-.025,1.539-.86,2.3-1.415A2.8,2.8,0,0,1,771.226-192.728Z" transform="translate(-713.132 227.48)" opacity="0.1"/>
          <path id="Trazado_104260" data-name="Trazado 104260" d="M768.315-188.52a3.137,3.137,0,0,1-2.485,1.081,4.856,4.856,0,0,1-2.4-.689,11.3,11.3,0,0,1-2.9-2.447,22.381,22.381,0,0,1-2.126-2.9q-.764-1.243-1.368-2.46a13.358,13.358,0,0,1,1.906,1.7c.855.954,1.464,2.043,2.242,3.042a6.618,6.618,0,0,0,3.168,2.363,3.894,3.894,0,0,0,3.936-.8,1.757,1.757,0,0,1,.409-.436.72.72,0,0,1,.309-.093c0,.011-.006.027-.007.038A3.115,3.115,0,0,1,768.315-188.52Z" transform="translate(-713.715 228.4)" opacity="0.1"/>
          <path id="Trazado_104261" data-name="Trazado 104261" d="M763.834-184.877a3.241,3.241,0,0,1-2.579.917,4.86,4.86,0,0,1-2.332-.837,10.878,10.878,0,0,1-2.659-2.625,21.933,21.933,0,0,1-1.835-3.027c-.379-.752-.712-1.5-1.011-2.234a7.386,7.386,0,0,1,1.235.9A6.681,6.681,0,0,1,755.7-190.3a26.251,26.251,0,0,0,1.874,2.716,6.64,6.64,0,0,0,2.78,2.282c1.211.456,2.877.287,3.576-.639a1.482,1.482,0,0,1,.362-.413.539.539,0,0,1,.375-.065A3.271,3.271,0,0,1,763.834-184.877Z" transform="translate(-714.54 229.142)" opacity="0.1"/>
          <path id="Trazado_104262" data-name="Trazado 104262" d="M758.877-181.526a3.392,3.392,0,0,1-2.7.671,4.537,4.537,0,0,1-2.19-1.054,10.1,10.1,0,0,1-2.266-2.859,20.624,20.624,0,0,1-1.388-3.179,30.27,30.27,0,0,1-.965-3.538,8.02,8.02,0,0,1,1.841,2.541,31.832,31.832,0,0,0,1.834,3.783,18.517,18.517,0,0,0,2.027,2.371,2.667,2.667,0,0,0,1.837,1.032,3.5,3.5,0,0,0,1.561-.573,2.327,2.327,0,0,1,1.3-.327A3.157,3.157,0,0,1,758.877-181.526Z" transform="translate(-715.462 229.415)" opacity="0.1"/>
          <path id="Trazado_104263" data-name="Trazado 104263" d="M754.829-179.907a2.554,2.554,0,0,1-.193.168,3.386,3.386,0,0,1-2.693.667,4.622,4.622,0,0,1-2.2-1.054,10.051,10.051,0,0,1-2.257-2.86,19.7,19.7,0,0,1-1.393-3.182,29.224,29.224,0,0,1-.825-2.91,11.674,11.674,0,0,1,1.562,2.709A19.672,19.672,0,0,0,750.2-181.5a3.641,3.641,0,0,0,2.907,1.434c.322-.033.626-.14.949-.155A.833.833,0,0,1,754.829-179.907Z" transform="translate(-716.397 229.964)" opacity="0.1"/>
        </g>
        <g id="Grupo_70050" data-name="Grupo 70050" transform="translate(4.149 8.774)">
          <path id="Trazado_104264" data-name="Trazado 104264" d="M762.3-206.6a1.143,1.143,0,0,1-.752.9,1.154,1.154,0,0,1-1.06-.463,3.363,3.363,0,0,1-.37-.565c-.087-.161-.171-.319-.261-.476a4.768,4.768,0,0,0-.989-1.179,5.373,5.373,0,0,0-1.476-.641,8.551,8.551,0,0,1-1.267-.36c-.4-.174-.728-.492-.71-.841.023-.376.427-.662.834-.846a5.114,5.114,0,0,0,1.191-.582c.781-.662.456-1.838,1-2.662a2.61,2.61,0,0,1,2.506-.878,7.043,7.043,0,0,1,2.356.938,7.61,7.61,0,0,1,1.67,2.04,2.692,2.692,0,0,1,.037,2.747c-.619.772-1.871.783-2.369,1.663a1.571,1.571,0,0,0-.113.254l0,0C762.424-207.245,762.382-206.913,762.3-206.6Z" transform="translate(-718.233 215.228)" fill="#fcfcfc"/>
          <path id="Trazado_104265" data-name="Trazado 104265" d="M761.043-204.832c-.75.677-2.1.614-2.722,1.4a4.345,4.345,0,0,0-.487,1.1,1.2,1.2,0,0,1-.885.809,1.267,1.267,0,0,1-1.084-.487,5.717,5.717,0,0,1-.58-1c-.01-.017-.017-.026-.026-.043a4.314,4.314,0,0,0-.922-1.1,5.953,5.953,0,0,0-1.516-.673,9.752,9.752,0,0,1-1.319-.4c-.4-.183-.733-.494-.681-.82.059-.346.508-.6.961-.748a6.306,6.306,0,0,0,1.329-.478c.911-.573.683-1.679,1.37-2.4a3.276,3.276,0,0,1,2.822-.643,7.911,7.911,0,0,1,2.453,1.009,8.063,8.063,0,0,1,1.321,1.514,3.17,3.17,0,0,1,.25.454A2.172,2.172,0,0,1,761.043-204.832Z" transform="translate(-719.282 216.331)" fill="#fcfcfc"/>
          <path id="Trazado_104266" data-name="Trazado 104266" d="M753.354-199.483a4.045,4.045,0,0,0-.577,1.034,1.274,1.274,0,0,1-.963.748,1.319,1.319,0,0,1-1.105-.5,5.475,5.475,0,0,1-.551-.984,3.5,3.5,0,0,0-.56-.771,3.367,3.367,0,0,0-.366-.359,6.148,6.148,0,0,0-1.539-.69,10.89,10.89,0,0,1-1.347-.418c-.409-.185-.733-.494-.661-.81s.56-.56,1.041-.69a7.268,7.268,0,0,0,1.416-.41c.99-.517.826-1.573,1.606-2.224a3.866,3.866,0,0,1,3.039-.483,8.871,8.871,0,0,1,2.528,1.065,10.09,10.09,0,0,1,.939,1,3.945,3.945,0,0,1,.564.92,1.917,1.917,0,0,1-.507,2.348C755.469-200.1,754.051-200.215,753.354-199.483Z" transform="translate(-720.454 217.3)" fill="#fcfcfc"/>
          <path id="Trazado_104267" data-name="Trazado 104267" d="M748.012-195.772a4.013,4.013,0,0,0-.612,1.011,1.322,1.322,0,0,1-.992.721,1.333,1.333,0,0,1-1.111-.5,5.628,5.628,0,0,1-.543-.975,3.387,3.387,0,0,0-.33-.511,4.361,4.361,0,0,0-.586-.614,6.142,6.142,0,0,0-1.543-.691,11.429,11.429,0,0,1-1.359-.431c-.41-.185-.739-.5-.659-.8.082-.328.578-.545,1.076-.668a7.724,7.724,0,0,0,1.449-.388c1.032-.484.9-1.518,1.727-2.133a4.23,4.23,0,0,1,3.162-.387,9.224,9.224,0,0,1,2.573,1.092c.135.126.263.254.393.389a4.759,4.759,0,0,1,1.068,1.494,1.821,1.821,0,0,1-.632,2.256C750.2-196.34,748.745-196.475,748.012-195.772Z" transform="translate(-721.687 218.182)" fill="#fcfcfc"/>
          <path id="Trazado_104268" data-name="Trazado 104268" d="M742.573-192.094a3.808,3.808,0,0,0-.6,1.017,1.292,1.292,0,0,1-.973.742,1.3,1.3,0,0,1-1.1-.495,5.786,5.786,0,0,1-.556-.986,3.968,3.968,0,0,0-.92-1.127c-.1-.064-.208-.128-.318-.182a6.411,6.411,0,0,0-1.222-.508,11.267,11.267,0,0,1-1.347-.417c-.409-.187-.738-.5-.665-.813.076-.332.562-.554,1.049-.682a7.669,7.669,0,0,0,1.443-.4c1.019-.49.889-1.524,1.72-2.137a4.3,4.3,0,0,1,3.2-.365,9.3,9.3,0,0,1,2.585,1.105c.214.205.427.411.62.625a4.087,4.087,0,0,1,.825,1.244,1.807,1.807,0,0,1-.657,2.237C744.746-192.666,743.295-192.8,742.573-192.094Z" transform="translate(-722.919 219.023)" fill="#fcfcfc"/>
          <path id="Trazado_104269" data-name="Trazado 104269" d="M740.253-189.477c-.865.591-2.283.478-2.958,1.228a3.889,3.889,0,0,0-.53,1.067,1.261,1.261,0,0,1-.9.791,1.262,1.262,0,0,1-1.089-.483,6.5,6.5,0,0,1-.584-1.007,2.642,2.642,0,0,0-.172-.28,4.41,4.41,0,0,0-.771-.864,5.923,5.923,0,0,0-1.515-.673,9.7,9.7,0,0,1-1.319-.4c-.4-.183-.733-.494-.682-.82.053-.349.513-.6.977-.74a7.083,7.083,0,0,0,1.374-.442c.97-.527.8-1.59,1.6-2.226a4.044,4.044,0,0,1,3.131-.414,8.693,8.693,0,0,1,2.262.921l.311.172a5.746,5.746,0,0,1,1.456,1.881A1.881,1.881,0,0,1,740.253-189.477Z" transform="translate(-724.089 219.87)" fill="#fcfcfc"/>
          <path id="Trazado_104270" data-name="Trazado 104270" d="M735.173-185.448c-.785.648-2.134.587-2.714,1.4a3.884,3.884,0,0,0-.415,1.154,1.211,1.211,0,0,1-.779.887,1.169,1.169,0,0,1-1.06-.463,6.856,6.856,0,0,1-.633-1.049,4.628,4.628,0,0,0-.982-1.169,5.6,5.6,0,0,0-1.477-.647,8.923,8.923,0,0,1-1.271-.356,1.2,1.2,0,0,1-.684-.664.425.425,0,0,1-.022-.181c.02-.372.429-.656.848-.828a6.353,6.353,0,0,0,1.26-.529c.874-.6.646-1.709,1.363-2.409a3.533,3.533,0,0,1,2.967-.53,8.68,8.68,0,0,1,2.528,1.065,11.268,11.268,0,0,1,.9.938,4.11,4.11,0,0,1,.61.974A2.069,2.069,0,0,1,735.173-185.448Z" transform="translate(-725.136 220.768)" fill="#fcfcfc"/>
          <path id="Trazado_104271" data-name="Trazado 104271" d="M735.169-185.838c-.785.648-2.134.587-2.714,1.4a3.884,3.884,0,0,0-.415,1.154,1.211,1.211,0,0,1-.779.887,1.169,1.169,0,0,1-1.06-.463,6.853,6.853,0,0,1-.632-1.049,4.628,4.628,0,0,0-.982-1.169,5.6,5.6,0,0,0-1.477-.647,8.916,8.916,0,0,1-1.271-.356,1.2,1.2,0,0,1-.684-.664,3.927,3.927,0,0,1,2.607.253,2.851,2.851,0,0,0,1.162.462c1.087.036,1.578-1.381,2.67-1.372.508.006.93.339,1.433.39a1.754,1.754,0,0,0,1.717-1.271c.1-.307.164-.629.252-.937a4.109,4.109,0,0,1,.61.974A2.069,2.069,0,0,1,735.169-185.838Z" transform="translate(-725.132 221.158)" opacity="0.1"/>
          <path id="Trazado_104272" data-name="Trazado 104272" d="M739.456-189.671c-.865.591-2.283.478-2.958,1.228a3.893,3.893,0,0,0-.531,1.067,1.26,1.26,0,0,1-.9.791,1.261,1.261,0,0,1-1.089-.483,6.5,6.5,0,0,1-.585-1.007,2.622,2.622,0,0,0-.172-.28,2.094,2.094,0,0,1,.43-.79c.953-1.051,3.3-1.087,3.693-2.353a5.374,5.374,0,0,0,.061-1.05,2.321,2.321,0,0,1,.875-1.465l.311.172a5.745,5.745,0,0,1,1.456,1.881A1.881,1.881,0,0,1,739.456-189.671Z" transform="translate(-723.293 220.065)" opacity="0.1"/>
          <path id="Trazado_104273" data-name="Trazado 104273" d="M745.048-193.579c-.9.566-2.355.43-3.077,1.138a3.809,3.809,0,0,0-.6,1.017,1.292,1.292,0,0,1-.973.742,1.3,1.3,0,0,1-1.1-.495,5.784,5.784,0,0,1-.556-.986,3.968,3.968,0,0,0-.92-1.127c-.1-.064-.208-.128-.318-.182a5.194,5.194,0,0,1,.874-.527c.982-.469,2.093-.713,3.126-1.1a10.95,10.95,0,0,0,3.377-1.964,4.088,4.088,0,0,1,.825,1.244A1.807,1.807,0,0,1,745.048-193.579Z" transform="translate(-722.317 219.37)" opacity="0.1"/>
          <path id="Trazado_104274" data-name="Trazado 104274" d="M750.319-197.21c-.894.571-2.345.436-3.078,1.138a4.01,4.01,0,0,0-.612,1.011,1.322,1.322,0,0,1-.992.721,1.333,1.333,0,0,1-1.111-.5,5.625,5.625,0,0,1-.543-.975,3.4,3.4,0,0,0-.33-.511,9.016,9.016,0,0,0,1.411-1.61,7.183,7.183,0,0,0,3.831-1.925c.347-.355.643-.748.988-1.1a4.76,4.76,0,0,1,1.068,1.494A1.821,1.821,0,0,1,750.319-197.21Z" transform="translate(-720.915 218.481)" opacity="0.1"/>
          <path id="Trazado_104275" data-name="Trazado 104275" d="M755.583-201.111c-.842.608-2.261.495-2.958,1.227a4.039,4.039,0,0,0-.577,1.034,1.274,1.274,0,0,1-.963.748,1.319,1.319,0,0,1-1.105-.5,5.483,5.483,0,0,1-.551-.984,3.493,3.493,0,0,0-.56-.771,3.888,3.888,0,0,1,.54-.419c1.036-.664,2.619-.826,3.21-1.783.161-.26.226-.556.416-.808.487-.667,1.562-.749,2.492-1.013a3.947,3.947,0,0,1,.564.92A1.917,1.917,0,0,1,755.583-201.111Z" transform="translate(-719.726 217.702)" opacity="0.1"/>
          <path id="Trazado_104276" data-name="Trazado 104276" d="M760.218-205.313c-.75.677-2.1.614-2.722,1.4a4.342,4.342,0,0,0-.487,1.1,1.2,1.2,0,0,1-.885.809,1.267,1.267,0,0,1-1.084-.488,5.708,5.708,0,0,1-.58-1c-.01-.017-.017-.026-.026-.043a3.769,3.769,0,0,0,.388-.141c1.653-.715,1.965-2.555,3.322-3.605a7.175,7.175,0,0,1,2.108-.993,3.181,3.181,0,0,1,.251.454A2.173,2.173,0,0,1,760.218-205.313Z" transform="translate(-718.457 216.812)" opacity="0.1"/>
          <path id="Trazado_104277" data-name="Trazado 104277" d="M760.675-207.128a1.154,1.154,0,0,1-1.06-.463,3.366,3.366,0,0,1-.37-.565c.032-.014.066-.02.1-.033.77-.263,1.544-.523,2.314-.786-.107.3-.149.636-.231.947A1.143,1.143,0,0,1,760.675-207.128Z" transform="translate(-717.36 216.654)" opacity="0.1"/>
        </g>
      </g>
      <g id="Grupo_70053" data-name="Grupo 70053" transform="translate(63.846 161.344)">
        <path id="Trazado_104278" data-name="Trazado 104278" d="M737.021-155.833a3.055,3.055,0,0,1-.506,1.918,3.483,3.483,0,0,1-3.435.981,32.835,32.835,0,0,0-3.669-.823c-2.453-.158-4.649,1.389-6.613,2.854q-10.282,7.688-20.571,15.377c-1.833,1.374-3.8,2.952-4.2,5.209-.166.959-.022,1.962-.211,2.929a4.462,4.462,0,0,1-5.344,3.3c-.785-1-.7-2.4-.763-3.675a5.794,5.794,0,0,0-.279-1.458,2.307,2.307,0,0,0-1.518-1.623,15.291,15.291,0,0,0-1.547-.106c-1.782-.257-2.628-2.665-1.789-4.257a5.122,5.122,0,0,1,4.574-2.37c1.163-.015,2.506.362,2.936,1.442l29.449-21.068a7.245,7.245,0,0,0,1.471-1.276c1.8-2.3.318-6.206,2.424-8.229a3.652,3.652,0,0,1,5.209.657,4.859,4.859,0,0,1-.2,5.555,5.065,5.065,0,0,1,4.392,3.586A4.244,4.244,0,0,1,737.021-155.833Z" transform="translate(-686.254 167.528)" fill="#fcfcfc"/>
        <g id="Grupo_70052" data-name="Grupo 70052" transform="translate(5.18 10.616)" opacity="0.1">
          <path id="Trazado_104279" data-name="Trazado 104279" d="M736.059-157.8a3.055,3.055,0,0,1-.506,1.918,3.483,3.483,0,0,1-3.435.981,32.832,32.832,0,0,0-3.669-.823c-2.453-.158-4.649,1.389-6.613,2.854q-10.282,7.688-20.571,15.377c-1.833,1.374-3.8,2.952-4.2,5.209-.166.959-.022,1.962-.211,2.929a4.462,4.462,0,0,1-5.344,3.3c-.785-1-.7-2.4-.763-3.675a5.8,5.8,0,0,0-.279-1.458,41.174,41.174,0,0,1,7.9-6.9c8.795-6.454,17.6-12.916,26.761-18.857a3.3,3.3,0,0,1,1.684-.686c.61-.007,1.267.483,1.207,1.094,1.714-2.038,5.013-1.238,7.488-2.189.122-.045.242-.1.362-.151A4.244,4.244,0,0,1,736.059-157.8Z" transform="translate(-690.472 158.883)"/>
        </g>
      </g>
      <g id="Grupo_70055" data-name="Grupo 70055" transform="translate(62.9 142.77)">
        <path id="Trazado_104280" data-name="Trazado 104280" d="M700.86-175.125a32.833,32.833,0,0,0-2.783,2.139c-1.573,1.657-1.784,4.154-1.909,6.438-.057,1.044-.113,2.094-.171,3.137q-.556,10.394-1.12,20.788c-.114,2.122-.16,4.482,1.218,6.11.583.7,1.389,1.191,1.966,1.9.065.083.13.167.188.257a4.183,4.183,0,0,1-1.024,5.542c-1.184-.033-2.132-.944-3.082-1.652s-2.313-1.25-3.279-.555a11.792,11.792,0,0,0-1,1.04,2.67,2.67,0,0,1-3.637-.5,2.828,2.828,0,0,1-.486-.765,4.8,4.8,0,0,1,1.041-4.69,2.778,2.778,0,0,1,2.792-1.238q1.254-16.841,2.523-33.682a6.568,6.568,0,0,0-.036-1.816c-.566-2.657-4.253-3.931-4.44-6.646a3.4,3.4,0,0,1,3.583-3.338,4.515,4.515,0,0,1,3.863,3.453,4.7,4.7,0,0,1,6.075-.479,2.878,2.878,0,0,1,1.072,1.508A3.248,3.248,0,0,1,700.86-175.125Z" transform="translate(-685.483 182.654)" fill="#fcfcfc"/>
        <g id="Grupo_70054" data-name="Grupo 70054" transform="translate(0.745 19.243)" opacity="0.1">
          <path id="Trazado_104281" data-name="Trazado 104281" d="M697.087-132.381c-1.184-.033-2.132-.944-3.082-1.652s-2.313-1.25-3.279-.555a11.806,11.806,0,0,0-1,1.04,2.67,2.67,0,0,1-3.637-.5c1.073-.922,2.527-1.521,3.584-2.508,1.874-1.747,2.321-4.5,2.665-7.037q1.107-8.208,2.221-16.409a52.139,52.139,0,0,1,1.3-6.982q-.556,10.394-1.12,20.788c-.114,2.122-.16,4.482,1.218,6.11.583.7,1.389,1.191,1.966,1.9.065.083.13.167.188.257A4.183,4.183,0,0,1,697.087-132.381Z" transform="translate(-686.089 166.983)"/>
        </g>
      </g>
      <g id="Grupo_70057" data-name="Grupo 70057" transform="translate(86.615 134.095)">
        <path id="Trazado_104282" data-name="Trazado 104282" d="M736.658-161.536c2.171-.507,3.2-2.952,3.885-5.076.254-.785.5-1.61.689-2.445.427-1.949.49-3.932-.607-5.525a7.374,7.374,0,0,0-5.026-2.634,35.514,35.514,0,0,1-5.744-.938,12.765,12.765,0,0,1-3.023-1.568,12.656,12.656,0,0,1-2.764-1.979,35.435,35.435,0,0,1-3.448-4.7,7.366,7.366,0,0,0-4.623-3.28c-2.733-.361-5.111,1.742-7.064,3.691-1.579,1.578-3.3,3.6-2.765,5.763.521,2.115,3.092,3.814,2.361,5.862-.475,1.335-2.115,1.819-3.052,2.872a2.715,2.715,0,0,0-.28.361c-.942,1.466-.115,3.556,1.331,4.53a8.9,8.9,0,0,0,5.031,1.092,12.776,12.776,0,0,1,3.064.192A6.854,6.854,0,0,1,717.2-164a6.834,6.834,0,0,1,2.336,1.7,12.715,12.715,0,0,1,1.562,2.644,8.9,8.9,0,0,0,3.255,3.987,3.635,3.635,0,0,0,4.43-.561,3.681,3.681,0,0,0,.211-.308c.792-1.353.29-3.3,1.374-4.434C731.862-162.557,734.542-161.038,736.658-161.536ZM728.517-173.1a1.967,1.967,0,0,1,.468-.37,1.643,1.643,0,0,1,.6-.115,8.738,8.738,0,0,1,4.4.577,4.239,4.239,0,0,1,2.554,3.419,2.505,2.505,0,0,1-2.332,2.709,10.059,10.059,0,0,1-1.82-.532,8.774,8.774,0,0,0-2.758.025,3.207,3.207,0,0,1-2.58-.72,2.561,2.561,0,0,1-.3-2.721A7.5,7.5,0,0,1,728.517-173.1Zm-16.848,2.5a2.227,2.227,0,0,1,2.161-.631c.341.764,1.066,1.521.761,2.3-.27.7-1.175.857-1.922.91-.663.045-1.46.025-1.809-.539C710.44-169.242,711.045-170.1,711.669-170.6Zm.377-9.854a2.51,2.51,0,0,1,1.356-3.307,4.247,4.247,0,0,1,4.211.727,8.8,8.8,0,0,1,2.51,3.656,1.733,1.733,0,0,1,.162.581,1.646,1.646,0,0,1-.118.585,7.467,7.467,0,0,1-1.215,2.613,2.577,2.577,0,0,1-2.564.968,3.215,3.215,0,0,1-1.813-1.972,8.734,8.734,0,0,0-1.224-2.466A10.126,10.126,0,0,1,712.046-180.459Zm12.088,20.033c-.661-.054-1.035-.752-1.3-1.363-.3-.693-.566-1.566-.063-2.124.56-.627,1.564-.327,2.4-.368a2.228,2.228,0,0,1,.417,2.212C725.426-161.283,724.937-160.356,724.134-160.426Z" transform="translate(-704.795 189.718)" fill="#fcfcfc"/>
        <g id="Grupo_70056" data-name="Grupo 70056" transform="translate(0 16.922)" opacity="0.1">
          <path id="Trazado_104283" data-name="Trazado 104283" d="M736.658-164.678c2.171-.507,3.2-2.952,3.885-5.076.254-.785.5-1.61.689-2.445-1.067.119-2.135.246-3.2.373a3.681,3.681,0,0,1-3.823,4.357c-.61-.076-1.2-.311-1.816-.383a13.49,13.49,0,0,0-2.108.071c-3.3.1-6.155-2.151-8.673-4.279a3.99,3.99,0,0,1-1.712,1.184c-.027-1.754-.093-3.632-1.115-5.062-1.563,1.158-.555,3.929-1.868,5.358a3.182,3.182,0,0,1-1.305.783,6.929,6.929,0,0,1-8.133-3.161c-.314.406-.634.808-.948,1.214-.926-.253-.9-1.536-.992-2.49-.013-.133-.036-.263-.063-.4a2.712,2.712,0,0,0-.28.361c-.942,1.466-.115,3.556,1.331,4.53a8.9,8.9,0,0,0,5.031,1.092,12.776,12.776,0,0,1,3.064.192,6.854,6.854,0,0,1,2.576,1.31,6.834,6.834,0,0,1,2.336,1.7A12.716,12.716,0,0,1,721.1-162.8a8.9,8.9,0,0,0,3.255,3.987,3.635,3.635,0,0,0,4.43-.561,3.684,3.684,0,0,0,.211-.308c.792-1.353.29-3.3,1.374-4.434C731.862-165.7,734.542-164.179,736.658-164.678Zm-12.524,1.11c-.661-.054-1.035-.752-1.3-1.363-.3-.693-.566-1.566-.063-2.124.56-.627,1.564-.327,2.4-.368a2.228,2.228,0,0,1,.417,2.212C725.426-164.425,724.937-163.5,724.134-163.567Z" transform="translate(-704.795 175.938)"/>
        </g>
      </g>
      <g id="Grupo_70059" data-name="Grupo 70059" transform="translate(122.039 126.945)">
        <path id="Trazado_104284" data-name="Trazado 104284" d="M754.523-187.172a2.23,2.23,0,0,1-.189.77,4.047,4.047,0,0,1-2.182,1.911,33.476,33.476,0,0,0-3.54,1.283c-2.144,1.185-3.171,3.669-4.031,5.963L740.028-165.2c-1.6.559-2.528,2.325-3.072,4.491,0-3.02,3.775-5.284,1.51-8.3-1.722,1.722-3.435,5.609-4.823,6.394q2.6-6.465,5.193-12.939,1.483-3.7,2.974-7.4a6.818,6.818,0,0,0,.551-1.873c.279-2.9-3.072-5.4-2.377-8.229a3.645,3.645,0,0,1,4.74-2.257,4.84,4.84,0,0,1,2.823,4.787,5.036,5.036,0,0,1,6.365,1.48A3.069,3.069,0,0,1,754.523-187.172Z" transform="translate(-733.643 195.541)" fill="#fcfcfc"/>
        <g id="Grupo_70058" data-name="Grupo 70058" transform="translate(0 9.138)" opacity="0.1">
          <path id="Trazado_104285" data-name="Trazado 104285" d="M754.334-188.1a4.047,4.047,0,0,1-2.182,1.911,33.486,33.486,0,0,0-3.54,1.283c-2.144,1.185-3.171,3.669-4.031,5.963l-4.552,12.049c-1.6.559-2.528,2.325-3.072,4.491,0-3.02,3.775-5.284,1.51-8.3-1.722,1.722-3.435,5.609-4.823,6.394q2.6-6.465,5.193-12.939a3.085,3.085,0,0,1,2.19-.437c.151.747.3,1.494.446,2.25q.656-1.846,1.3-3.677a16.677,16.677,0,0,1,1.729-3.835C746.626-186.113,750.514-187.336,754.334-188.1Z" transform="translate(-733.643 188.099)"/>
        </g>
      </g>
      <g id="Grupo_70061" data-name="Grupo 70061" transform="translate(94.032 81.927)">
        <path id="Trazado_104286" data-name="Trazado 104286" d="M742.886-223.83a3.483,3.483,0,0,1-2.371,2.681,34.4,34.4,0,0,0-3.533,1.276c-1.833,1.018-2.845,2.974-3.646,4.959-.135.333-.264.673-.392,1.012q-4.542,12.015-9.075,24.029c-.807,2.135-1.615,4.529-.739,6.635.377.906,1.041,1.676,1.4,2.59a3.939,3.939,0,0,1,.257,1.411A4.485,4.485,0,0,1,721.8-175c-1.208-.415-1.88-1.653-2.619-2.687s-1.964-2.024-3.171-1.631a13.88,13.88,0,0,0-1.359.739c-1.645.748-3.653-.823-3.8-2.619a5.152,5.152,0,0,1,2.581-4.461c.974-.634,2.31-1.041,3.254-.362.71-1.774,1.42-3.54,2.128-5.315h.009q5.673-14.142,11.352-28.294a6.747,6.747,0,0,0,.551-1.864c.287-2.907-3.072-5.4-2.377-8.236a3.639,3.639,0,0,1,4.74-2.25,4.841,4.841,0,0,1,2.823,4.787,5.028,5.028,0,0,1,6.365,1.48A3,3,0,0,1,742.886-223.83Z" transform="translate(-710.836 232.202)" fill="#fcfcfc"/>
        <g id="Grupo_70060" data-name="Grupo 70060" transform="translate(0 17.287)" opacity="0.1">
          <path id="Trazado_104287" data-name="Trazado 104287" d="M723.87-193.083c-.807,2.135-1.615,4.529-.739,6.635.377.906,1.041,1.676,1.4,2.59a3.939,3.939,0,0,1,.257,1.411,4.485,4.485,0,0,1-2.989,4.243c-1.208-.415-1.88-1.653-2.619-2.687s-1.964-2.024-3.171-1.631a13.88,13.88,0,0,0-1.359.739c-1.645.748-3.653-.823-3.8-2.619a5.152,5.152,0,0,1,2.581-4.461c.974-.634,2.31-1.041,3.254-.362.71-1.774,1.42-3.54,2.128-5.315h.009a4.723,4.723,0,0,0,2.188.3,43.975,43.975,0,0,1,12.328-23.885c-.135.333-.264.673-.392,1.012Q728.4-205.1,723.87-193.083Z" transform="translate(-710.836 218.124)"/>
        </g>
      </g>
      <g id="Grupo_70063" data-name="Grupo 70063" transform="translate(178.061 55.671)">
        <path id="Trazado_104288" data-name="Trazado 104288" d="M802.591-199.107a4.068,4.068,0,0,1-2.415-.386c-.415-.166-.823-.355-1.23-.521-1.17-.491-2.725-.7-3.548.271a12.476,12.476,0,0,0-.77,1.352c-1,1.494-3.54,1.207-4.612-.242a5.134,5.134,0,0,1-.151-5.149c.49-1.049,1.42-2.1,2.581-2.015l-.566-3.261q-2.807-16.215-5.615-32.422a7.077,7.077,0,0,0-.513-1.88c-1.284-2.619-5.444-2.974-6.349-5.752a3.648,3.648,0,0,1,2.853-4.408,4.842,4.842,0,0,1,4.914,2.589,5.026,5.026,0,0,1,6.19-2.09,3.077,3.077,0,0,1,1.51,1.283,3.485,3.485,0,0,1-.612,3.524,33.191,33.191,0,0,0-2.333,2.945c-1.207,2.144-.77,4.794-.3,7.2q1.291,6.624,2.583,13.256,1.155,5.977,2.324,11.949c.438,2.242,1.012,4.71,2.869,6.039.015.007.023.015.038.022.785.559,1.736.861,2.506,1.442A4.467,4.467,0,0,1,802.591-199.107Z" transform="translate(-779.265 253.583)" fill="#fcfcfc"/>
        <g id="Grupo_70062" data-name="Grupo 70062" transform="translate(9.984 28.773)" opacity="0.1">
          <path id="Trazado_104289" data-name="Trazado 104289" d="M798.322-204.856v.022c-.415-.166-.823-.355-1.23-.521-1.17-.491-2.725-.7-3.548.271a12.471,12.471,0,0,0-.77,1.352c-1,1.494-3.54,1.207-4.612-.242a5.134,5.134,0,0,1-.151-5.149c.49-1.049,1.42-2.1,2.581-2.015l-.566-3.261a2.274,2.274,0,0,0,1.532.211c.65-1.706-1.321-3.336-1.381-5.155-.038-1.2.74-2.242,1.148-3.36.83-2.272.12-4.884.912-7.171a1.8,1.8,0,0,1,.114-.279q1.155,5.977,2.325,11.949c.438,2.242,1.012,4.71,2.869,6.039.015.007.023.015.038.022.045.506.1,1.012.151,1.518Q798.029-207.748,798.322-204.856Z" transform="translate(-787.396 230.152)"/>
        </g>
      </g>
      <g id="Grupo_70075" data-name="Grupo 70075" transform="translate(0.686)">
        <g id="Grupo_70071" data-name="Grupo 70071">
          <g id="Grupo_70070" data-name="Grupo 70070">
            <g id="Grupo_70069" data-name="Grupo 70069">
              <g id="Grupo_70064" data-name="Grupo 70064" transform="translate(0 3.199)">
                <path id="Trazado_104290" data-name="Trazado 104290" d="M634.819-190.691l32.944,25.158,188.688-66.206,16.815-40.072.937-3.209-46.073-21.3-83.421,2.709-108.986,99.77Z" transform="translate(-634.819 296.315)" fill="#b26233"/>
              </g>
              <g id="Grupo_70065" data-name="Grupo 70065" transform="translate(32.893 3.198)">
                <path id="Trazado_104291" data-name="Trazado 104291" d="M822.024-296.315l-83.42,2.709-54.969,50.32a10.356,10.356,0,0,1-.9,3.583.554.554,0,0,1,.039.418L661.6-165.572l.052.039,188.688-66.206,16.815-40.072.938-3.209Z" transform="translate(-661.605 296.315)" fill="#6a331a"/>
              </g>
              <g id="Grupo_70066" data-name="Grupo 70066" transform="translate(0.919)">
                <path id="Trazado_104292" data-name="Trazado 104292" d="M635.567-193.3l32.943,25.158L857.2-234.345l16.815-40.071-45.135-24.5-83.422,2.709Z" transform="translate(-635.567 298.92)" fill="#c66c3a"/>
              </g>
              <g id="Grupo_70067" data-name="Grupo 70067" transform="translate(5.475 3.162)">
                <path id="Trazado_104293" data-name="Trazado 104293" d="M816.046-296.206l-74.014,1.62L658.4-216.76c2.067,13.967,5.553,41.727,5.553,41.727l-.429,1.492L850.383-239l-1.933-1.709Z" transform="translate(-634.917 296.376)" fill="#4d230d"/>
                <path id="Trazado_104294" data-name="Trazado 104294" d="M662.762-231.509l-22.34,20.788-1.145.971,28.609,21.46.429-1.492S664.829-217.542,662.762-231.509Z" transform="translate(-639.277 311.124)" fill="#823e23"/>
                <path id="Trazado_104295" data-name="Trazado 104295" d="M833.979-275.621l-39.411-20.724-7.788.17,32.4,55.493,1.933,1.708,13.99-34.246Z" transform="translate(-605.652 296.344)" fill="#823e23"/>
              </g>
              <path id="Trazado_104296" data-name="Trazado 104296" d="M746.612-295.648l80.695-2.453,40.078,22.82-14.782,35L668.107-174.6l-27.92-20.945Z" transform="translate(-633.595 299.106)" fill="#c66c3a"/>
              <path id="Trazado_104297" data-name="Trazado 104297" d="M746.612-295.648l80.695-2.453,40.078,22.82-14.782,35L668.107-174.6l-27.92-20.945Z" transform="translate(-633.595 299.106)" fill="#d6743e"/>
              <path id="Trazado_104298" data-name="Trazado 104298" d="M638.2-202.681l29.707,22.555L856.6-246.333,668.051-181.817Z" transform="translate(-634.047 310.908)" fill="#c05937" style="mix-blend-mode: screen;isolation: isolate"/>
              <path id="Trazado_104299" data-name="Trazado 104299" d="M867.385-275.281,827.307-298.1l-80.695,2.453-106.425,100.1L747.63-293.163l79.276-2.745Z" transform="translate(-633.595 299.106)" fill="#e77539" style="mix-blend-mode: screen;isolation: isolate"/>
              <path id="Trazado_104300" data-name="Trazado 104300" d="M788.017-258.169l-13.43-9.572,16.325-6.846-3.78-2.514-16.371,6.633L759.7-278.353q-2.313.8-4.622,1.611l11.355,8.092-29.656,12.438q1.847,1.444,3.8,2.737l29.679-12.448,13.484,9.609Q785.892-257.205,788.017-258.169Z" transform="translate(-611.577 303.608)" fill="#5e3415"/>
              <g id="Grupo_70068" data-name="Grupo 70068" transform="translate(125.195 25.255)">
                <path id="Trazado_104301" data-name="Trazado 104301" d="M766.876-269l16.651-6.733,2.562,1.742,1.426-.6-3.78-2.514-16.371,6.633L756.3-278.353q-2.313.8-4.622,1.611l1.553,1.106,2.891-1.126Z" transform="translate(-733.374 278.353)" fill="#48270c"/>
                <path id="Trazado_104302" data-name="Trazado 104302" d="M779.8-259.59c.421-.187.847-.36,1.266-.549l-13.43-9.572-.355,1.237Z" transform="translate(-729.818 280.323)" fill="#48270c"/>
                <path id="Trazado_104303" data-name="Trazado 104303" d="M774.075-266.8l.355-1.237,14.9-6.248-2.562-1.742-16.651,6.733-10.756-7.763-2.891,1.126,9.8,6.986-.557,1.417L737.464-255.87c.965.727,1.946,1.432,2.954,2.1L770.1-266.218l13.484,9.609c1.012-.419,2.011-.864,3.012-1.307Z" transform="translate(-736.614 278.648)" fill="#8c4e28"/>
                <path id="Trazado_104304" data-name="Trazado 104304" d="M766.429-270.451l-29.656,12.438c.28.219.567.425.85.637l28.249-11.658Z" transform="translate(-736.772 280.154)" fill="#48270c"/>
              </g>
            </g>
            <path id="Trazado_104305" data-name="Trazado 104305" d="M867.385-279.517l-14.782,35-184.5,65.679-27.92-20.945,27.938,18.872,183.444-64.827Z" transform="translate(-633.595 303.343)" fill="#d6743e" style="mix-blend-mode: screen;isolation: isolate"/>
          </g>
          <path id="Trazado_104306" data-name="Trazado 104306" d="M736.772-258.519l3.8,2.736,29.678-12.448,13.485,9.609,4.279-1.855-4.417,2.553-13.687-9.816L740.5-254.948Z" transform="translate(-611.577 305.916)" fill="#d6743e" style="mix-blend-mode: screen;isolation: isolate"/>
          <path id="Trazado_104307" data-name="Trazado 104307" d="M780.112-277.333l3.779,2.513-16.325,6.847L781-258.4l-12.547-9.535,16.093-6.805Z" transform="translate(-604.557 303.841)" fill="#d6743e" style="mix-blend-mode: screen;isolation: isolate"/>
        </g>
        <g id="Grupo_70074" data-name="Grupo 70074" transform="translate(24.111 8.653)" opacity="0.6">
          <g id="Grupo_70072" data-name="Grupo 70072" transform="translate(0 10.228)">
            <path id="Trazado_104308" data-name="Trazado 104308" d="M686.665-229.642s14.007-8.252,18.395-9.652C705.06-239.294,691.309-231.452,686.665-229.642Z" transform="translate(-647.111 293.631)" fill="#c05937"/>
            <path id="Trazado_104309" data-name="Trazado 104309" d="M658.861-217.061s11.994-7.064,15.749-8.264C674.61-225.325,662.838-218.61,658.861-217.061Z" transform="translate(-653.449 296.816)" fill="#c05937"/>
            <path id="Trazado_104310" data-name="Trazado 104310" d="M654.454-203.911s8.194-4.825,10.758-5.645C665.212-209.556,657.17-204.97,654.454-203.911Z" transform="translate(-654.454 300.411)" fill="#c05937"/>
            <path id="Trazado_104311" data-name="Trazado 104311" d="M707.751-232.751s9.745-5.74,12.8-6.714C720.548-239.465,710.983-234.009,707.751-232.751Z" transform="translate(-642.304 293.592)" fill="#c05937"/>
            <path id="Trazado_104312" data-name="Trazado 104312" d="M661.132-205.389s8.345-4.914,10.958-5.749C672.09-211.138,663.9-206.466,661.132-205.389Z" transform="translate(-652.932 300.05)" fill="#c05937"/>
            <path id="Trazado_104313" data-name="Trazado 104313" d="M667.338-200.255a71.609,71.609,0,0,1,7.484-3.927S669.227-200.991,667.338-200.255Z" transform="translate(-651.517 301.636)" fill="#c05937"/>
            <path id="Trazado_104314" data-name="Trazado 104314" d="M699.207-219.943a71.808,71.808,0,0,1,7.483-3.927S701.1-220.679,699.207-219.943Z" transform="translate(-644.252 297.148)" fill="#c05937"/>
            <path id="Trazado_104315" data-name="Trazado 104315" d="M667.923-211.18a71.132,71.132,0,0,1,7.484-3.927S669.813-211.918,667.923-211.18Z" transform="translate(-651.383 299.145)" fill="#c05937"/>
            <path id="Trazado_104316" data-name="Trazado 104316" d="M682.786-230.039a71.6,71.6,0,0,1,7.485-3.927S684.677-230.775,682.786-230.039Z" transform="translate(-647.995 294.846)" fill="#c05937"/>
            <path id="Trazado_104317" data-name="Trazado 104317" d="M743.957-264.279s11.893-7.006,15.617-8.2C759.574-272.474,747.9-265.815,743.957-264.279Z" transform="translate(-634.051 286.068)" fill="#c05937"/>
            <path id="Trazado_104318" data-name="Trazado 104318" d="M706.815-244.511s9.105-5.364,11.956-6.274C718.771-250.785,709.835-245.689,706.815-244.511Z" transform="translate(-642.518 291.012)" fill="#c05937"/>
            <path id="Trazado_104319" data-name="Trazado 104319" d="M731.922-247.437s9.105-5.364,11.957-6.274C743.879-253.711,734.939-248.614,731.922-247.437Z" transform="translate(-636.794 290.345)" fill="#c05937"/>
            <path id="Trazado_104320" data-name="Trazado 104320" d="M743.334-245.267a56.187,56.187,0,0,1,5.9-3.094S744.824-245.847,743.334-245.267Z" transform="translate(-634.193 291.564)" fill="#c05937"/>
            <path id="Trazado_104321" data-name="Trazado 104321" d="M716.847-228.248s9.105-5.363,11.957-6.272C728.8-234.52,719.865-229.423,716.847-228.248Z" transform="translate(-640.231 294.72)" fill="#c05937"/>
            <path id="Trazado_104322" data-name="Trazado 104322" d="M729.936-245.726s6.077-3.58,7.978-4.187C737.914-249.913,731.951-246.512,729.936-245.726Z" transform="translate(-637.247 291.211)" fill="#c05937"/>
            <path id="Trazado_104323" data-name="Trazado 104323" d="M776.894-263.958s6.076-3.579,7.979-4.187C784.873-268.145,778.91-264.744,776.894-263.958Z" transform="translate(-626.542 287.054)" fill="#c05937"/>
            <path id="Trazado_104324" data-name="Trazado 104324" d="M767.418-275.377s11.855-6.981,15.566-8.167C782.984-283.544,771.349-276.908,767.418-275.377Z" transform="translate(-628.702 283.544)" fill="#c05937"/>
          </g>
          <g id="Grupo_70073" data-name="Grupo 70073" transform="translate(15.191)">
            <path id="Trazado_104325" data-name="Trazado 104325" d="M715.028-270.226s11.624-6.846,15.262-8.009C730.29-278.235,718.883-271.727,715.028-270.226Z" transform="translate(-655.837 294.982)" fill="#c05937"/>
            <path id="Trazado_104326" data-name="Trazado 104326" d="M666.825-231.466s6.8-4,8.926-4.685C675.751-236.151,669.077-232.346,666.825-231.466Z" transform="translate(-666.825 304.576)" fill="#c05937"/>
            <path id="Trazado_104327" data-name="Trazado 104327" d="M704.837-254.951s6.8-4,8.926-4.683C713.763-259.634,707.091-255.829,704.837-254.951Z" transform="translate(-658.16 299.222)" fill="#c05937"/>
            <path id="Trazado_104328" data-name="Trazado 104328" d="M685.87-248.374s9.777-7.956,12.976-9.54C698.846-257.914,689.22-250.3,685.87-248.374Z" transform="translate(-662.483 299.614)" fill="#c05937"/>
            <path id="Trazado_104329" data-name="Trazado 104329" d="M735.588-286.282s8.114-4.779,10.654-5.591C746.242-291.873,738.277-287.33,735.588-286.282Z" transform="translate(-651.15 291.873)" fill="#c05937"/>
            <path id="Trazado_104330" data-name="Trazado 104330" d="M757.469-285.153a67.1,67.1,0,0,1,7.036-3.694S759.246-285.847,757.469-285.153Z" transform="translate(-646.161 292.563)" fill="#c05937"/>
            <path id="Trazado_104331" data-name="Trazado 104331" d="M725.876-264.855s10.861-6.4,14.263-7.483C740.139-272.338,729.478-266.258,725.876-264.855Z" transform="translate(-653.364 296.326)" fill="#c05937"/>
            <path id="Trazado_104332" data-name="Trazado 104332" d="M733.818-284.756a67.96,67.96,0,0,1,7.11-3.732S735.613-285.457,733.818-284.756Z" transform="translate(-651.553 292.645)" fill="#c05937"/>
            <path id="Trazado_104333" data-name="Trazado 104333" d="M803.478-273.273s8.114-4.779,10.655-5.591C814.133-278.864,806.167-274.322,803.478-273.273Z" transform="translate(-635.673 294.839)" fill="#c05937"/>
            <path id="Trazado_104334" data-name="Trazado 104334" d="M801.708-271.747a67.964,67.964,0,0,1,7.11-3.732S803.5-272.448,801.708-271.747Z" transform="translate(-636.077 295.61)" fill="#c05937"/>
            <path id="Trazado_104335" data-name="Trazado 104335" d="M797.229-254.445s8.556-3.934,11.165-4.484C808.394-258.93,800.01-255.217,797.229-254.445Z" transform="translate(-637.098 299.383)" fill="#c05937"/>
            <path id="Trazado_104336" data-name="Trazado 104336" d="M795.278-253.04a67.979,67.979,0,0,1,7.451-2.994S797.136-253.556,795.278-253.04Z" transform="translate(-637.542 300.043)" fill="#c05937"/>
            <path id="Trazado_104337" data-name="Trazado 104337" d="M765.92-240.441s11.994-5.515,15.65-6.287C781.57-246.728,769.819-241.523,765.92-240.441Z" transform="translate(-644.235 302.164)" fill="#c05937"/>
            <path id="Trazado_104338" data-name="Trazado 104338" d="M763.187-238.472s8-3.68,10.444-4.195C773.631-242.667,765.79-239.194,763.187-238.472Z" transform="translate(-644.858 303.09)" fill="#c05937"/>
            <path id="Trazado_104339" data-name="Trazado 104339" d="M759.633-257.246s7.177-3.3,9.367-3.762C769-261.008,761.966-257.891,759.633-257.246Z" transform="translate(-645.668 298.909)" fill="#c05937"/>
            <path id="Trazado_104340" data-name="Trazado 104340" d="M758-256.067a57.135,57.135,0,0,1,6.249-2.51S759.555-256.5,758-256.067Z" transform="translate(-646.041 299.463)" fill="#c05937"/>
            <path id="Trazado_104341" data-name="Trazado 104341" d="M732.95-224.913s7.177-3.3,9.366-3.762C742.316-228.675,735.282-225.56,732.95-224.913Z" transform="translate(-651.751 306.28)" fill="#c05937"/>
            <path id="Trazado_104342" data-name="Trazado 104342" d="M731.314-223.734a56.835,56.835,0,0,1,6.25-2.51S732.872-224.166,731.314-223.734Z" transform="translate(-652.124 306.834)" fill="#c05937"/>
          </g>
        </g>
      </g>
    </g>
  </g>
</svg>
