<svg xmlns="http://www.w3.org/2000/svg" width="85" height="85" viewBox="0 0 85 85">
  <g id="Grupo_69984" data-name="Grupo 69984" transform="translate(-915 -1093)">
    <rect id="Rectángulo_5537" data-name="Rectángulo 5537" width="85" height="85" transform="translate(915 1093)" fill="none"/>
    <g id="lapida-sepulcral" transform="translate(914.281 1092)">
      <g id="Grupo_69967" data-name="Grupo 69967" transform="translate(2.467 2.365)">
        <g id="Grupo_69958" data-name="Grupo 69958" transform="translate(57.321 0)">
          <path id="Trazado_103964" data-name="Trazado 103964" d="M63.107,3.365V7.459H44V3.365A1.369,1.369,0,0,1,45.365,2H61.742A1.369,1.369,0,0,1,63.107,3.365Z" transform="translate(-44 -2)" fill="#d1cfda"/>
        </g>
        <g id="Grupo_69959" data-name="Grupo 69959" transform="translate(57.321 5.459)">
          <path id="Trazado_103965" data-name="Trazado 103965" d="M63.107,6V8.088a9.883,9.883,0,0,1-5.459,8.83H49.459A9.883,9.883,0,0,1,44,8.088V6Z" transform="translate(-44 -6)" fill="#96a2c3"/>
        </g>
        <g id="Grupo_69960" data-name="Grupo 69960" transform="translate(62.78 24.566)">
          <path id="Trazado_103966" data-name="Trazado 103966" d="M56.189,20V39.107l-1.174,7.042A1.364,1.364,0,0,1,53.664,47.3H50.525a1.364,1.364,0,0,1-1.351-1.146L48,39.107V20Z" transform="translate(-48 -20)" fill="#ccd1d9"/>
        </g>
        <g id="Grupo_69961" data-name="Grupo 69961" transform="translate(62.78 16.377)">
          <path id="Trazado_103967" data-name="Trazado 103967" d="M48,14h8.189v8.189H48Z" transform="translate(-48 -14)" fill="#ccd1d9"/>
        </g>
        <g id="Grupo_69962" data-name="Grupo 69962" transform="translate(51.862 43.673)">
          <path id="Trazado_103968" data-name="Trazado 103968" d="M70.025,36.73V51.742a15.029,15.029,0,0,1-10.8,14.412l-.014.014a7.319,7.319,0,0,0-5.2-2.143,7.467,7.467,0,0,1-5.282-2.184L47.643,60.75a7.467,7.467,0,0,0-5.282-2.184h-.723a14.515,14.515,0,0,1-1.569-5.459c-.041-.45-.068-.9-.068-1.365V36.73A2.738,2.738,0,0,1,42.73,34h8.189l1.174,7.042a1.364,1.364,0,0,0,1.351,1.146h3.139a1.364,1.364,0,0,0,1.351-1.146L59.107,34H67.3a2.738,2.738,0,0,1,2.73,2.73Z" transform="translate(-40 -34)" fill="#e6e9ed"/>
        </g>
        <g id="Grupo_69963" data-name="Grupo 69963" transform="translate(0 58.686)">
          <path id="Trazado_103969" data-name="Trazado 103969" d="M55.5,54.553h.723A7.467,7.467,0,0,1,61.5,56.737L62.6,57.829a7.467,7.467,0,0,0,5.282,2.184,7.319,7.319,0,0,1,5.2,2.143,5.706,5.706,0,0,1,.764.846l.368.478A7.473,7.473,0,0,1,75.7,67.956V68.2H2l.805-3.207A8.391,8.391,0,0,1,5,61.1a8.192,8.192,0,0,1,3.7-2.143,6.962,6.962,0,0,1,1.488-.273v-.014l.914-2.784a4.113,4.113,0,0,1,1.624-2.115l1.5-1.01.382-.259a4.245,4.245,0,0,1,2.279-.682H18.5a4.016,4.016,0,0,1,2.047.56l.014-.014,1.679-1.679a5.465,5.465,0,0,1,3.862-1.6h1.829a5.612,5.612,0,0,1,2.579.614l.3.136a5.612,5.612,0,0,0,2.579.614,5.745,5.745,0,0,0,1.365-.164,4.819,4.819,0,0,0,1.215-.45l3.275-1.624a6.866,6.866,0,0,0,1.733-1.256A6.706,6.706,0,0,1,45.714,45h.873a5.492,5.492,0,0,1,3.275,1.092l4.053,3h.014A14.515,14.515,0,0,0,55.5,54.553Z" transform="translate(-2 -45)" fill="#e4cbb7"/>
        </g>
        <g id="Grupo_69964" data-name="Grupo 69964" transform="translate(5.459)">
          <path id="Trazado_103970" data-name="Trazado 103970" d="M46.943,18.377v8.189a2.738,2.738,0,0,1-2.73,2.73H33.3V65.981a5.745,5.745,0,0,1-1.365.164,5.612,5.612,0,0,1-2.579-.614l-.3-.136a5.612,5.612,0,0,0-2.579-.614h-1.16a68.774,68.774,0,0,1,2.525-10.918s-5.459,1.365-8.189,5.459V29.3H8.73A2.738,2.738,0,0,1,6,26.566V18.377a2.738,2.738,0,0,1,2.73-2.73H19.648V4.73A2.738,2.738,0,0,1,22.377,2h8.189A2.738,2.738,0,0,1,33.3,4.73V15.648H44.214a2.738,2.738,0,0,1,2.73,2.73Z" transform="translate(-6 -2)" fill="#aab2bd"/>
        </g>
        <g id="Grupo_69965" data-name="Grupo 69965" transform="translate(5.459 47.781)">
          <path id="Trazado_103971" data-name="Trazado 103971" d="M12.8,47.178c-.259-4-2.552-9.8-2.689-10.168a26.355,26.355,0,0,1,9.54,9.54c2.73-4.094,8.189-5.459,8.189-5.459a68.774,68.774,0,0,0-2.525,10.918h-.669a5.465,5.465,0,0,0-3.862,1.6L19.1,55.284l-.014.014a4.016,4.016,0,0,0-2.047-.56h-1.61a4.245,4.245,0,0,0-2.279.682l-.382.259A14.349,14.349,0,0,0,8.7,52.841C8.416,49.853,6,43.82,6,43.82a16.755,16.755,0,0,1,6.8,3.357Z" transform="translate(-6 -37.01)" fill="#a0d468"/>
        </g>
        <g id="Grupo_69966" data-name="Grupo 69966" transform="translate(1.365 61.415)">
          <path id="Trazado_103972" data-name="Trazado 103972" d="M13.864,52.036l-1.5,1.01a4.113,4.113,0,0,0-1.624,2.115l-.914,2.784v.014a6.962,6.962,0,0,0-1.488.273v-.014C7.463,53.237,3,47,3,47a27.432,27.432,0,0,1,6.8,2.2,14.349,14.349,0,0,1,4.067,2.839Z" transform="translate(-3 -47)" fill="#b4dd7f"/>
        </g>
      </g>
      <g id="Grupo_69968" data-name="Grupo 69968" transform="translate(0.719 1)">
        <path id="Trazado_103973" data-name="Trazado 103973" d="M81.625,44.673H74.783L74.8,19.519a11.152,11.152,0,0,0,5.46-9.609V3.73A2.732,2.732,0,0,0,77.53,1H61.153a2.732,2.732,0,0,0-2.73,2.73v6.18a11.155,11.155,0,0,0,5.459,9.609V44.673H57.059a4.1,4.1,0,0,0-4.094,4.094V62.395L51.144,61.05a6.861,6.861,0,0,0-4.093-1.365h-.867a8.014,8.014,0,0,0-5.7,2.362,5.3,5.3,0,0,1-1.384,1L36.587,64.3V31.025H46.14a4.1,4.1,0,0,0,4.094-4.094V18.742a4.1,4.1,0,0,0-4.094-4.094H36.587V5.094A4.1,4.1,0,0,0,32.492,1H24.3a4.1,4.1,0,0,0-4.094,4.094v9.553H10.656a4.1,4.1,0,0,0-4.094,4.094v8.189a4.1,4.1,0,0,0,4.094,4.094h9.553V55.382a25.842,25.842,0,0,0-7.579-6.472l-3.211-1.6,1.333,3.333a53.18,53.18,0,0,1,2.128,6.773,18.307,18.307,0,0,0-4.687-1.795l-2.472-.494.936,2.339a65.089,65.089,0,0,1,2.117,6.255A28.974,28.974,0,0,0,4.05,62.433L.812,61.906l1.909,2.668c.041.055,3.645,5.13,4.841,9.545a9.742,9.742,0,0,0-5.616,6.593l-1.227,4.9H77.53V84.01a8.875,8.875,0,0,0-1.706-5.2A16.47,16.47,0,0,0,85.719,63.78V48.767a4.1,4.1,0,0,0-4.094-4.094ZM72.071,25.566H66.612V20.107h5.459ZM66.612,28.3h5.459V45.925l-1.156,6.937H67.767l-1.155-6.937ZM77.53,3.73v2.73H61.153V3.73ZM61.153,9.909V9.189H77.53v.721a8.454,8.454,0,0,1-4.46,7.468H65.614a8.452,8.452,0,0,1-4.461-7.468ZM10.656,28.3a1.366,1.366,0,0,1-1.365-1.365V18.742a1.366,1.366,0,0,1,1.365-1.365H22.939V5.094A1.366,1.366,0,0,1,24.3,3.73h8.189a1.366,1.366,0,0,1,1.365,1.365V17.377H46.14a1.366,1.366,0,0,1,1.365,1.365v8.189A1.366,1.366,0,0,1,46.14,28.3H33.857V65.137a4.437,4.437,0,0,1-1.975-.457l-.288-.143a7.2,7.2,0,0,0-2.783-.73,72.945,72.945,0,0,1,2.249-9.155l.764-2.345-2.392.6a18.418,18.418,0,0,0-6.494,3.31V28.3ZM10.2,59.142a11.845,11.845,0,0,1,6.061,5.248L18.7,63.169a12.291,12.291,0,0,0-2.683-3.524,33.493,33.493,0,0,0-1.329-6A27.029,27.029,0,0,1,20.4,60.387l1.11,1.849,1.2-1.795a12.148,12.148,0,0,1,4.965-3.978,66.636,66.636,0,0,0-1.634,7.367,6.757,6.757,0,0,0-4.3,1.948L20.713,66.8a5.451,5.451,0,0,0-1.743-.295H17.354a5.431,5.431,0,0,0-2.469.6,16.091,16.091,0,0,0-3-2.02A40.234,40.234,0,0,0,10.2,59.142Zm2.264,9.528-.029.019a5.5,5.5,0,0,0-2.152,2.82l-.341,1.033a34.657,34.657,0,0,0-3.1-6.6A19.4,19.4,0,0,1,12.462,68.67ZM4.216,82.887l.377-1.512a7.014,7.014,0,0,1,6.8-5.312h2.528a1.361,1.361,0,0,1,.757.229l2.8,1.87a1.349,1.349,0,0,1,.463.524l1.041,2.081,2.442-1.221-1.041-2.08A4.06,4.06,0,0,0,19,75.89l-2.8-1.868a4.081,4.081,0,0,0-2.272-.688H12.553l.318-.965a2.755,2.755,0,0,1,1.075-1.408L15.841,69.7a2.722,2.722,0,0,1,1.514-.459H18.97a2.718,2.718,0,0,1,1.514.459l1.239.826a2.724,2.724,0,0,1,1.216,2.271v.539h2.73v-.539a5.45,5.45,0,0,0-2.431-4.542l-.067-.045.5-.5a4.066,4.066,0,0,1,2.895-1.2H28.4a4.428,4.428,0,0,1,1.975.467l.288.143a7.273,7.273,0,0,0,6.393,0l3.267-1.634a8.022,8.022,0,0,0,2.094-1.509,5.3,5.3,0,0,1,3.77-1.561h.867a4.133,4.133,0,0,1,2.465.824l3.6,2.657a16.472,16.472,0,0,0,.879,3.595,8.749,8.749,0,0,0-4.178,2.335l-1.908,1.908,1.93,1.93,1.908-1.908a6.05,6.05,0,0,1,4.313-1.788h.64a6.054,6.054,0,0,1,4.313,1.788L62.1,74.842a8.765,8.765,0,0,0,6.243,2.586,6.129,6.129,0,0,1,4.879,2.44l.363.483A6.15,6.15,0,0,1,74.7,82.887ZM82.989,63.78a13.718,13.718,0,0,1-9.13,12.871A8.864,8.864,0,0,0,68.34,74.7a6.054,6.054,0,0,1-4.313-1.788l-1.088-1.085a8.761,8.761,0,0,0-6.081-2.578,13.471,13.471,0,0,1-1.164-5.467V48.767A1.366,1.366,0,0,1,57.059,47.4h7.048l.969,5.911a2.723,2.723,0,0,0,2.693,2.278h3.149a2.724,2.724,0,0,0,2.693-2.281l.983-5.908h7.033a1.366,1.366,0,0,1,1.365,1.365Z" transform="translate(-0.719 -1)" fill="#636363"/>
        <path id="Trazado_103974" data-name="Trazado 103974" d="M22.158,56.773l-.61-1.221-2.442,1.221.61,1.221a4.071,4.071,0,0,0,3.662,2.263H24.42v-2.73H23.378a1.358,1.358,0,0,1-1.22-.755Z" transform="translate(5.988 18.9)" fill="#636363"/>
        <path id="Trazado_103975" data-name="Trazado 103975" d="M30.223,53.2l-1.93,1.93,1.93,1.93,1.93-1.93a1.378,1.378,0,0,1,.965-.4h1.6V52h-1.6a4.064,4.064,0,0,0-2.895,1.2Z" transform="translate(9.34 17.604)" fill="#636363"/>
        <path id="Trazado_103976" data-name="Trazado 103976" d="M33,48h2.73v2.73H33Z" transform="translate(11.057 16.145)" fill="#636363"/>
        <path id="Trazado_103977" data-name="Trazado 103977" d="M27,57h2.73v2.73H27Z" transform="translate(8.868 19.428)" fill="#636363"/>
        <path id="Trazado_103978" data-name="Trazado 103978" d="M21,52h2.73v2.73H21Z" transform="translate(6.679 17.604)" fill="#636363"/>
        <path id="Trazado_103979" data-name="Trazado 103979" d="M40,55h2.73v2.73H40Z" transform="translate(13.61 18.698)" fill="#636363"/>
      </g>
    </g>
  </g>
</svg>
