<svg xmlns="http://www.w3.org/2000/svg" width="85" height="85" viewBox="0 0 85 85">
  <g id="Grupo_69985" data-name="Grupo 69985" transform="translate(-600 -1093)">
    <rect id="Rectángulo_5535" data-name="Rectángulo 5535" width="85" height="85" transform="translate(600 1093)" fill="none"/>
    <g id="Virus_Cleaning" data-name="Virus Cleaning" transform="translate(600 1093.088)">
      <g id="Filled" transform="translate(6.639 1.255)">
        <circle id="Elipse_4658" data-name="Elipse 4658" cx="5.312" cy="5.312" r="5.312" transform="translate(0 3.984)" fill="#b0ed98"/>
        <circle id="Elipse_4659" data-name="Elipse 4659" cx="5.312" cy="5.312" r="5.312" transform="translate(19.918 25.23)" fill="#b0ed98"/>
        <path id="Trazado_103905" data-name="Trazado 103905" d="M296,64v7.967a6.474,6.474,0,0,0,6.639,6.787h3.984V64Z" transform="translate(-253.507 -54.705)" fill="#ffdfc5"/>
        <path id="Trazado_103906" data-name="Trazado 103906" d="M295.906,91.657V32.049c2.736-5.036.961-13.426-4.771-13.426h-3.209s1.687-10.134,11.648-10.609a12.478,12.478,0,0,1,13.111,12.227c.06,5.687-3.688,9.212-8.842,10.746,0,0,6.669,4.9,6.669,11.537V61.339a12.322,12.322,0,0,1-3.984,9.072V91.657Z" transform="translate(-246.774 -8)" fill="#f6e8db"/>
        <path id="Trazado_103907" data-name="Trazado 103907" d="M104,304h22.574v5.312H104Z" transform="translate(-93.377 -254.868)" fill="#e2dbd5"/>
        <path id="Trazado_103908" data-name="Trazado 103908" d="M227.534,280.6a6.62,6.62,0,0,0-2.26,9.747l6.912-3.436-2.89-7.242Z" transform="translate(-193.465 -234.578)" fill="#ffdfc5"/>
        <path id="Trazado_103909" data-name="Trazado 103909" d="M276.32,197.681l-5.683-4.213-8.365,10.922-6.4,3.385,2.89,7.242,7.459-3.709Z" transform="translate(-220.036 -162.683)" fill="#efebe8"/>
        <path id="Trazado_103910" data-name="Trazado 103910" d="M346.623,231.6a12.322,12.322,0,0,0,3.984-9.072V203.71a10.407,10.407,0,0,0-.3-2.446A32.619,32.619,0,0,1,336,219.077v33.765h10.623Z" transform="translate(-286.868 -169.185)" fill="#e2dbd5"/>
        <path id="Trazado_103911" data-name="Trazado 103911" d="M56.927,45.124a11.969,11.969,0,0,1-8.142,6.787,5.31,5.31,0,0,0,8.142-6.787Z" transform="translate(-47.328 -38.962)" fill="#96ea8c"/>
        <path id="Trazado_103912" data-name="Trazado 103912" d="M176.928,173.124a11.969,11.969,0,0,1-8.142,6.787,5.31,5.31,0,0,0,8.142-6.787Z" transform="translate(-147.409 -145.716)" fill="#96ea8c"/>
        <path id="Trazado_103913" data-name="Trazado 103913" d="M352.692,46.061c-2.107,7.278-8.949,14.841-14.7,16.73-.053.132-.108.261-.166.39l8.218.019c-.361-.305-.583-.468-.583-.468,5.154-1.534,8.9-5.059,8.842-10.746A12.159,12.159,0,0,0,352.692,46.061Z" transform="translate(-288.387 -39.743)" fill="#e2dbd5"/>
        <circle id="Elipse_4660" data-name="Elipse 4660" cx="3.32" cy="3.32" r="3.32" transform="translate(46.476 2.656)" fill="#fff"/>
        <circle id="Elipse_4661" data-name="Elipse 4661" cx="1.992" cy="1.992" r="1.992" transform="translate(54.444 7.967)" fill="#fff"/>
        <path id="Trazado_103914" data-name="Trazado 103914" d="M424,232v14.607a3.984,3.984,0,0,0,3.984,3.984H433.3a3.984,3.984,0,0,0,3.984-3.984V232Z" transform="translate(-360.261 -194.819)" fill="#d1cfda"/>
        <g id="Grupo_69957" data-name="Grupo 69957" transform="translate(63.739 26.558)">
          <path id="Trazado_103915" data-name="Trazado 103915" d="M424,168h13.279v10.623H424Z" transform="translate(-424 -168)" fill="#96a2c3"/>
          <path id="Trazado_103916" data-name="Trazado 103916" d="M437.279,247.7A17.42,17.42,0,0,1,424,255.819V259.7a3.984,3.984,0,0,0,3.984,3.984H433.3a3.984,3.984,0,0,0,3.984-3.984Z" transform="translate(-424 -234.471)" fill="#96a2c3"/>
        </g>
      </g>
      <g id="Outline" transform="translate(0 -0.088)">
        <path id="Trazado_103917" data-name="Trazado 103917" d="M281.349,13.27v5.312a7.756,7.756,0,0,0,6.639,8.015v1.28a1.328,1.328,0,0,0,2.656,0V25.694a12.789,12.789,0,0,0-.253-11.588c-2.591-4.356-6.67-3.355-7.333-3.492,2.722-8.143,10.833-9.607,16.25-6.4a1.328,1.328,0,0,0,1.353-2.286,13.728,13.728,0,0,0-20.634,9.8C279.963,12.109,281.332,13.266,281.349,13.27Zm2.656,0a4.1,4.1,0,0,1,4.1,2.194,10.119,10.119,0,0,1,.392,8.523,5.137,5.137,0,0,1-4.5-5.405Z" transform="translate(-233.544 0.024)" fill="#636363"/>
        <path id="Trazado_103918" data-name="Trazado 103918" d="M50.656,281.379a1.328,1.328,0,0,0-2.656,0A1.328,1.328,0,0,0,50.656,281.379Z" transform="translate(-40.033 -233.56)" fill="#636363"/>
        <path id="Trazado_103919" data-name="Trazado 103919" d="M17.375,266.656a1.328,1.328,0,0,0,0-2.656A1.328,1.328,0,0,0,17.375,266.656Z" transform="translate(-13.391 -220.165)" fill="#636363"/>
        <path id="Trazado_103920" data-name="Trazado 103920" d="M49.379,344a1.328,1.328,0,0,0,0,2.656A1.328,1.328,0,0,0,49.379,344Z" transform="translate(-40.084 -286.886)" fill="#636363"/>
        <path id="Trazado_103921" data-name="Trazado 103921" d="M16,361.375a1.328,1.328,0,0,0,2.656,0A1.328,1.328,0,0,0,16,361.375Z" transform="translate(-13.344 -300.277)" fill="#636363"/>
        <path id="Trazado_103922" data-name="Trazado 103922" d="M64,313.375a1.328,1.328,0,0,0,2.656,0A1.328,1.328,0,0,0,64,313.375Z" transform="translate(-53.377 -260.244)" fill="#636363"/>
        <path id="Trazado_103923" data-name="Trazado 103923" d="M0,315.121a1.328,1.328,0,0,0,2.656,0C2.656,314.388,0,313.363,0,315.121Z" transform="translate(0 -261.991)" fill="#636363"/>
        <path id="Trazado_103924" data-name="Trazado 103924" d="M32,313.375a1.328,1.328,0,0,0,2.656,0A1.328,1.328,0,0,0,32,313.375Z" transform="translate(-26.688 -260.244)" fill="#636363"/>
        <path id="Trazado_103925" data-name="Trazado 103925" d="M163.723,78.034H150.444c-1.385,0-1.321,1.48-1.328,1.5a21.8,21.8,0,0,0-2.778-3.27c5.85-2.585,8.422-7.644,7.4-13.449a1.328,1.328,0,0,0-2.616.46c.951,5.4-1.865,9.5-7.727,11.247a1.33,1.33,0,0,0-.409,2.342c.061.046,6.129,4.6,6.129,10.469.036,17.815-.087,17.349.1,18.3-.244.583.3,4.967-3.657,8.607-.729.67-.313,1.433-.429,4.961a1.328,1.328,0,0,0,2.656,0V115.78A13.694,13.694,0,0,0,151.464,109a5.409,5.409,0,0,0,3.078.906c.466,8.758-3.827,14.607-13.394,14.607-11,0-16.259-14.4-17.17-17.169,9.779-4.917,9.627-4.653,9.973-5.121l10.1-13.628a1.328,1.328,0,0,0-2.134-1.582l-9.913,13.371-5.883,2.925-1.913-4.795c5.585-3,5.472-2.789,5.784-3.194L138.36,84.4a1.328,1.328,0,0,0-2.108-1.615l-8.188,10.692c-6.693,3.838-9.184,4.06-11.019,7.134H97.328A1.328,1.328,0,0,0,96,101.937v5.312a1.328,1.328,0,0,0,1.328,1.328h19.613c1.3,2.3,2.1,1.17,4.634-.039,3.122,9.233,9.815,18.63,19.574,18.63,11.17,0,16.557-7.222,16.059-17.263h2.532a5.318,5.318,0,0,0,5.312-5.312V79.362A1.328,1.328,0,0,0,163.723,78.034Zm-47.7,27.886H98.656v-2.656h17.392A7.939,7.939,0,0,0,116.018,105.92Zm3.015.915A5.294,5.294,0,0,1,121.395,100l.455-.241,1.889,4.733Zm43.362-2.243a2.659,2.659,0,0,1-2.656,2.656h-5.312a2.659,2.659,0,0,1-2.656-2.656V91.313h10.623Zm0-15.935H151.772V80.69h2.656v2.656a1.328,1.328,0,0,0,2.656,0V80.69h5.312Z" transform="translate(-80.065 -51.462)" fill="#636363"/>
        <path id="Trazado_103926" data-name="Trazado 103926" d="M97.379,130.656a1.328,1.328,0,0,0,0-2.656A1.328,1.328,0,0,0,97.379,130.656Z" transform="translate(-80.117 -106.739)" fill="#636363"/>
        <path id="Trazado_103927" data-name="Trazado 103927" d="M0,89.379a1.328,1.328,0,0,0,2.656,0A1.328,1.328,0,0,0,0,89.379Z" transform="translate(0 -73.43)" fill="#636363"/>
        <path id="Trazado_103928" data-name="Trazado 103928" d="M129.379,88a1.328,1.328,0,0,0,0,2.656A1.328,1.328,0,0,0,129.379,88Z" transform="translate(-106.805 -73.379)" fill="#636363"/>
        <path id="Trazado_103929" data-name="Trazado 103929" d="M65.379,56a1.328,1.328,0,0,0,0,2.656A1.328,1.328,0,0,0,65.379,56Z" transform="translate(-53.428 -46.69)" fill="#636363"/>
        <path id="Trazado_103930" data-name="Trazado 103930" d="M19.581,16.25l-2.042-2.042a6.6,6.6,0,0,0,.97-2.331h4.116a1.328,1.328,0,0,0,0-2.656H18.509a6.6,6.6,0,0,0-.969-2.331l3.37-3.37a1.328,1.328,0,0,0-1.878-1.878l-3.37,3.37a6.6,6.6,0,0,0-2.332-.969V1.255a1.328,1.328,0,0,0-2.656,0V4.044a6.6,6.6,0,0,0-2.216.9L5.1.458A1.328,1.328,0,0,0,2.973,2.051L6.531,6.8A6.6,6.6,0,0,0,5.5,9.222H1.379a1.328,1.328,0,0,0,0,2.656H5.5a6.623,6.623,0,0,0,1.547,3.081l-2.62,2.62A1.328,1.328,0,0,0,6.3,19.456l2.892-2.892a6.585,6.585,0,0,0,1.48.492V22.5a1.328,1.328,0,0,0,2.656,0V17.057a6.6,6.6,0,0,0,2.331-.969L17.7,18.129a1.328,1.328,0,0,0,1.878-1.879ZM12,14.534a3.984,3.984,0,1,1,3.984-3.984A3.984,3.984,0,0,1,12,14.534Z" transform="translate(-0.051 0.088)" fill="#636363"/>
        <path id="Trazado_103931" data-name="Trazado 103931" d="M209.379,98.656a1.328,1.328,0,0,0,0-2.656A1.328,1.328,0,0,0,209.379,98.656Z" transform="translate(-173.526 -80.051)" fill="#636363"/>
        <path id="Trazado_103932" data-name="Trazado 103932" d="M121.379,218.656a1.328,1.328,0,0,0,0-2.656A1.328,1.328,0,0,0,121.379,218.656Z" transform="translate(-100.133 -180.132)" fill="#636363"/>
        <path id="Trazado_103933" data-name="Trazado 103933" d="M248,217.379a1.328,1.328,0,0,0,2.656,0A1.328,1.328,0,0,0,248,217.379Z" transform="translate(-206.835 -180.184)" fill="#636363"/>
        <path id="Trazado_103934" data-name="Trazado 103934" d="M186.656,185.379a1.328,1.328,0,0,0-2.656,0A1.328,1.328,0,0,0,186.656,185.379Z" transform="translate(-153.458 -153.495)" fill="#636363"/>
        <path id="Trazado_103935" data-name="Trazado 103935" d="M418.656,33.379a1.328,1.328,0,0,0-2.656,0A1.328,1.328,0,0,0,418.656,33.379Z" transform="translate(-346.949 -26.725)" fill="#636363"/>
        <path id="Trazado_103936" data-name="Trazado 103936" d="M122.973,130.051l3.558,4.744a6.6,6.6,0,0,0-1.034,2.427h-4.117a1.328,1.328,0,0,0,0,2.656H125.5a6.623,6.623,0,0,0,1.547,3.081l-2.62,2.62a1.328,1.328,0,0,0,1.878,1.878l2.892-2.892a6.585,6.585,0,0,0,1.48.492V150.5a1.328,1.328,0,0,0,2.656,0v-5.444a6.6,6.6,0,0,0,2.331-.969l2.042,2.042a1.328,1.328,0,0,0,1.878-1.878l-2.042-2.042a6.6,6.6,0,0,0,.97-2.332h4.116a1.328,1.328,0,0,0,0-2.656h-4.116a6.6,6.6,0,0,0-.969-2.331l3.37-3.37a1.328,1.328,0,0,0-1.878-1.878l-3.37,3.37a6.6,6.6,0,0,0-2.332-.969v-2.789a1.328,1.328,0,0,0-2.656,0v2.789a6.6,6.6,0,0,0-2.216.9l-3.361-4.482A1.328,1.328,0,0,0,122.973,130.051Zm9.03,4.515a3.984,3.984,0,1,1-3.984,3.984A3.984,3.984,0,0,1,132,134.566Z" transform="translate(-100.133 -106.666)" fill="#636363"/>
        <path id="Trazado_103937" data-name="Trazado 103937" d="M328,313.379v13.279a1.328,1.328,0,0,0,2.656,0V313.379A1.328,1.328,0,0,0,328,313.379Z" transform="translate(-273.556 -260.249)" fill="#636363"/>
        <path id="Trazado_103938" data-name="Trazado 103938" d="M328,465.379v5.312a1.328,1.328,0,0,0,2.656,0v-5.312A1.328,1.328,0,0,0,328,465.379Z" transform="translate(-273.556 -387.019)" fill="#636363"/>
        <path id="Trazado_103939" data-name="Trazado 103939" d="M392,465.379v5.312a1.328,1.328,0,0,0,2.656,0v-5.312A1.328,1.328,0,0,0,392,465.379Z" transform="translate(-326.933 -387.019)" fill="#636363"/>
      </g>
    </g>
  </g>
</svg>
