<svg xmlns="http://www.w3.org/2000/svg" width="258.5" height="347.499" viewBox="0 0 258.5 347.499">
  <g id="Grupo_70141" data-name="Grupo 70141" transform="translate(5431 8086.249)">
    <g id="Grupo_69603" data-name="Grupo 69603" transform="translate(-5779.267 -8294.325)">
      <g id="Grupo_69574" data-name="Grupo 69574" transform="translate(375.242 527.097)">
        <rect id="Rectángulo_5463" data-name="Rectángulo 5463" width="210.485" height="28.478" transform="translate(0)" fill="#777a85"/>
      </g>
      <g id="Grupo_69575" data-name="Grupo 69575" transform="translate(453.509 245.576)">
        <path id="Trazado_101954" data-name="Trazado 101954" d="M513.083,245.576H486.108v28.54h31.4Z" transform="translate(-486.108 -245.576)" fill="#9599a6"/>
      </g>
      <g id="Grupo_69576" data-name="Grupo 69576" transform="translate(388.73 245.576)">
        <path id="Trazado_101955" data-name="Trazado 101955" d="M584.773,317.752A22.182,22.182,0,0,1,563.191,300.8a72.2,72.2,0,0,0-140.347,0,22.181,22.181,0,0,1-21.581,16.954h0V527.1h183.51V317.752Z" transform="translate(-401.263 -245.576)" fill="#9599a6"/>
      </g>
      <g id="Grupo_69577" data-name="Grupo 69577" transform="translate(361.754 245.576)">
        <path id="Trazado_101956" data-name="Trazado 101956" d="M549.442,317.752A22.182,22.182,0,0,1,527.86,300.8a72.2,72.2,0,0,0-140.346,0,22.182,22.182,0,0,1-21.582,16.954h0V527.1h183.51V317.752Z" transform="translate(-365.932 -245.576)" fill="#d0d3db"/>
      </g>
      <g id="Grupo_69578" data-name="Grupo 69578" transform="translate(368.891 252.712)">
        <path id="Trazado_101957" data-name="Trazado 101957" d="M375.279,522.171V326.231a29.188,29.188,0,0,0,21.383-21.553,65.061,65.061,0,0,1,126.47,0,29.189,29.189,0,0,0,21.384,21.553v195.94Z" transform="translate(-375.279 -254.923)" fill="#a9b0ba"/>
      </g>
      <g id="Grupo_69579" data-name="Grupo 69579" transform="translate(407.812 268.257)">
        <circle id="Elipse_4640" data-name="Elipse 4640" cx="49.494" cy="49.494" r="49.494" transform="translate(0)" fill="#777a85"/>
      </g>
      <g id="Grupo_69580" data-name="Grupo 69580" transform="translate(404.015 268.258)">
        <circle id="Elipse_4641" data-name="Elipse 4641" cx="49.494" cy="49.494" r="49.494" transform="translate(0 0)" fill="#e6e6e6"/>
      </g>
      <g id="Grupo_69581" data-name="Grupo 69581" transform="translate(368.891 252.712)">
        <path id="Trazado_101958" data-name="Trazado 101958" d="M400.459,304.678A64.8,64.8,0,0,1,461.8,254.963c-.632-.018-1.263-.04-1.9-.04a64.82,64.82,0,0,0-63.235,49.755,29.188,29.188,0,0,1-21.383,21.553v195.94h3.8V326.231A29.188,29.188,0,0,0,400.459,304.678Z" transform="translate(-375.279 -254.923)" fill="#777a85"/>
      </g>
      <g id="Grupo_69582" data-name="Grupo 69582" transform="translate(545.264 317.752)">
        <rect id="Rectángulo_5464" data-name="Rectángulo 5464" width="26.975" height="209.345" transform="translate(0 0)" fill="#777a85"/>
      </g>
      <g id="Grupo_69583" data-name="Grupo 69583" transform="translate(348.267 527.097)">
        <rect id="Rectángulo_5465" data-name="Rectángulo 5465" width="210.485" height="28.478" fill="#a9b0ba"/>
      </g>
      <g id="Grupo_69585" data-name="Grupo 69585" transform="translate(414.703 435.11)">
        <rect id="Rectángulo_5467" data-name="Rectángulo 5467" width="111.207" height="16.248" transform="translate(0)" fill="#777a85"/>
      </g>
      <g id="Grupo_69587" data-name="Grupo 69587" transform="translate(391.337 435.111)">
        <rect id="Rectángulo_5469" data-name="Rectángulo 5469" width="131.931" height="16.248" transform="translate(0 0)" fill="#e6e6e6"/>
      </g>
      <g id="Grupo_69591" data-name="Grupo 69591" transform="translate(401.33 362.274)">
        <path id="Trazado_101959" data-name="Trazado 101959" d="M420.18,398.421c-3.214,0-3.22,5,0,5S423.4,398.421,420.18,398.421Z" transform="translate(-417.767 -398.421)" fill="#999ca6"/>
      </g>
      <g id="Grupo_69592" data-name="Grupo 69592" transform="translate(484.281 375.809)">
        <path id="Trazado_101960" data-name="Trazado 101960" d="M531.582,416.149c-6.888,0-6.9,10.705,0,10.705S538.481,416.149,531.582,416.149Z" transform="translate(-526.412 -416.149)" fill="#999ca6"/>
      </g>
      <g id="Grupo_69593" data-name="Grupo 69593" transform="translate(401.613 484.014)">
        <path id="Trazado_101961" data-name="Trazado 101961" d="M421.928,557.871c-5.051,0-5.06,7.85,0,7.85S426.988,557.871,421.928,557.871Z" transform="translate(-418.137 -557.871)" fill="#999ca6"/>
      </g>
      <g id="Grupo_69595" data-name="Grupo 69595" transform="translate(515.769 474.46)">
        <path id="Trazado_101963" data-name="Trazado 101963" d="M571.444,545.357c-5.051,0-5.059,7.85,0,7.85S576.5,545.357,571.444,545.357Z" transform="translate(-567.653 -545.357)" fill="#999ca6"/>
      </g>
      <g id="Grupo_69596" data-name="Grupo 69596" transform="translate(504.112 545.956)">
        <path id="Trazado_101964" data-name="Trazado 101964" d="M555.487,639c-4.133,0-4.14,6.423,0,6.423S559.627,639,555.487,639Z" transform="translate(-552.385 -638.999)" fill="#999ca6"/>
      </g>
      <g id="Grupo_69597" data-name="Grupo 69597" transform="translate(383.747 338.069)">
        <path id="Trazado_101965" data-name="Trazado 101965" d="M396.46,366.719a1.785,1.785,0,0,0,0,3.568A1.785,1.785,0,0,0,396.46,366.719Z" transform="translate(-394.737 -366.719)" fill="#999ca6"/>
      </g>
      <g id="Grupo_69598" data-name="Grupo 69598" transform="translate(440.726 507.64)">
        <path id="Trazado_101966" data-name="Trazado 101966" d="M471.778,588.815c-3.214,0-3.22,5,0,5S475,588.815,471.778,588.815Z" transform="translate(-469.365 -588.815)" fill="#999ca6"/>
      </g>
      <g id="Grupo_69599" data-name="Grupo 69599" transform="translate(366.637 544.063)">
        <path id="Trazado_101967" data-name="Trazado 101967" d="M373.362,636.519a1.071,1.071,0,0,0,0,2.141A1.071,1.071,0,0,0,373.362,636.519Z" transform="translate(-372.327 -636.519)" fill="#999ca6"/>
      </g>
      <g id="Grupo_69600" data-name="Grupo 69600" transform="translate(420.746 373.668)">
        <path id="Trazado_101968" data-name="Trazado 101968" d="M444.23,413.345a1.071,1.071,0,0,0,0,2.141A1.071,1.071,0,0,0,444.23,413.345Z" transform="translate(-443.196 -413.345)" fill="#999ca6"/>
      </g>
      <g id="Grupo_69601" data-name="Grupo 69601" transform="translate(464.412 331.426)">
        <path id="Trazado_101969" data-name="Trazado 101969" d="M501.422,358.018a1.071,1.071,0,0,0,0,2.141A1.071,1.071,0,0,0,501.422,358.018Z" transform="translate(-500.388 -358.018)" fill="#a9b0ba"/>
      </g>
      <g id="Grupo_69602" data-name="Grupo 69602" transform="translate(523.267 341.868)">
        <path id="Trazado_101970" data-name="Trazado 101970" d="M578.508,371.694a1.071,1.071,0,0,0,0,2.142A1.071,1.071,0,0,0,578.508,371.694Z" transform="translate(-577.473 -371.694)" fill="#999ca6"/>
      </g>
      <g id="Grupo_69605" data-name="Grupo 69605" transform="translate(414.703 484.015)">
        <rect id="Rectángulo_5467-2" data-name="Rectángulo 5467" width="111.207" height="16.248" transform="translate(0)" fill="#777a85"/>
      </g>
      <g id="Grupo_69604" data-name="Grupo 69604" transform="translate(391.337 484.015)">
        <rect id="Rectángulo_5469-2" data-name="Rectángulo 5469" width="131.931" height="16.248" transform="translate(0 0)" fill="#e6e6e6"/>
      </g>
      <g id="Grupo_69584" data-name="Grupo 69584" transform="translate(414.703 377.327)">
        <rect id="Rectángulo_5466" data-name="Rectángulo 5466" width="111.207" height="16.249" transform="translate(0)" fill="#777a85"/>
      </g>
      <g id="Grupo_69586" data-name="Grupo 69586" transform="translate(391.337 377.327)">
        <rect id="Rectángulo_5468" data-name="Rectángulo 5468" width="131.931" height="16.249" transform="translate(0 0)" fill="#e6e6e6"/>
      </g>
    </g>
    <path id="Trazado_104534" data-name="Trazado 104534" d="M21.248,9.1V13H19.935V3.047h3.671a3.688,3.688,0,0,1,2.56.834,2.827,2.827,0,0,1,.926,2.208,2.79,2.79,0,0,1-.906,2.232,3.853,3.853,0,0,1-2.594.783Zm0-1.073h2.358a2.358,2.358,0,0,0,1.613-.5A1.815,1.815,0,0,0,25.78,6.1a1.876,1.876,0,0,0-.561-1.424,2.209,2.209,0,0,0-1.538-.555H21.248Zm10.3,5.106a3.232,3.232,0,0,1-2.447-.988,3.666,3.666,0,0,1-.943-2.642V9.274a4.438,4.438,0,0,1,.42-1.965,3.28,3.28,0,0,1,1.176-1.354,2.956,2.956,0,0,1,1.637-.489,2.77,2.77,0,0,1,2.242.95,4.114,4.114,0,0,1,.8,2.721v.526H29.423a2.629,2.629,0,0,0,.639,1.767,2.009,2.009,0,0,0,1.555.673,2.2,2.2,0,0,0,1.135-.273,2.851,2.851,0,0,0,.813-.725l.772.6A3.106,3.106,0,0,1,31.549,13.137Zm-.157-6.631a1.687,1.687,0,0,0-1.285.557,2.708,2.708,0,0,0-.643,1.562h3.705v-.1a2.409,2.409,0,0,0-.52-1.494A1.588,1.588,0,0,0,31.392,6.506Zm8.08.232a3.79,3.79,0,0,0-.622-.048,1.667,1.667,0,0,0-1.688,1.06V13H35.9V5.6h1.23l.021.854a1.969,1.969,0,0,1,1.764-.991,1.292,1.292,0,0,1,.561.1Zm5.469,4.3a.931.931,0,0,0-.386-.8,3.718,3.718,0,0,0-1.347-.489,6.367,6.367,0,0,1-1.524-.492,2.169,2.169,0,0,1-.834-.684,1.635,1.635,0,0,1-.27-.943A1.919,1.919,0,0,1,41.349,6.1a3,3,0,0,1,1.965-.629,3.091,3.091,0,0,1,2.041.649,2.063,2.063,0,0,1,.783,1.661H44.866a1.142,1.142,0,0,0-.441-.9,1.652,1.652,0,0,0-1.111-.376,1.729,1.729,0,0,0-1.08.3.947.947,0,0,0-.39.786.767.767,0,0,0,.362.69,4.458,4.458,0,0,0,1.309.444,6.821,6.821,0,0,1,1.535.506,2.239,2.239,0,0,1,.872.708,1.74,1.74,0,0,1,.284,1.008,1.893,1.893,0,0,1-.793,1.589,3.326,3.326,0,0,1-2.058.6,3.725,3.725,0,0,1-1.572-.314,2.557,2.557,0,0,1-1.07-.878,2.117,2.117,0,0,1-.386-1.22h1.265a1.309,1.309,0,0,0,.509,1.008,1.976,1.976,0,0,0,1.254.373,2.039,2.039,0,0,0,1.152-.291A.893.893,0,0,0,44.941,11.038Zm2.577-1.8a4.369,4.369,0,0,1,.427-1.955,3.187,3.187,0,0,1,1.189-1.34,3.238,3.238,0,0,1,1.74-.472,3.119,3.119,0,0,1,2.444,1.046,4.024,4.024,0,0,1,.933,2.782v.089a4.407,4.407,0,0,1-.414,1.938,3.14,3.14,0,0,1-1.183,1.336,3.275,3.275,0,0,1-1.767.479,3.111,3.111,0,0,1-2.437-1.046,4,4,0,0,1-.933-2.769Zm1.271.15a3.164,3.164,0,0,0,.571,1.976,1.934,1.934,0,0,0,3.059-.01,3.46,3.46,0,0,0,.567-2.116,3.159,3.159,0,0,0-.578-1.972,1.836,1.836,0,0,0-1.535-.755,1.816,1.816,0,0,0-1.511.745A3.435,3.435,0,0,0,48.79,9.384ZM57.034,5.6l.041.93A2.7,2.7,0,0,1,59.29,5.467q2.345,0,2.365,2.646V13H60.39V8.105a1.7,1.7,0,0,0-.366-1.183,1.466,1.466,0,0,0-1.118-.383,1.825,1.825,0,0,0-1.08.328,2.228,2.228,0,0,0-.725.861V13H55.837V5.6ZM68.128,13a2.657,2.657,0,0,1-.178-.779,2.822,2.822,0,0,1-2.105.916,2.611,2.611,0,0,1-1.794-.619,2,2,0,0,1-.7-1.569,2.091,2.091,0,0,1,.878-1.794A4.141,4.141,0,0,1,66.7,8.516h1.23V7.935a1.42,1.42,0,0,0-.4-1.056,1.593,1.593,0,0,0-1.169-.393,1.844,1.844,0,0,0-1.135.342,1.007,1.007,0,0,0-.458.827H63.5a1.745,1.745,0,0,1,.393-1.07,2.683,2.683,0,0,1,1.066-.817,3.588,3.588,0,0,1,1.48-.3,2.924,2.924,0,0,1,2,.639,2.306,2.306,0,0,1,.752,1.76v3.4a4.162,4.162,0,0,0,.26,1.62V13Zm-2.1-.964a2.223,2.223,0,0,0,1.128-.308,1.861,1.861,0,0,0,.772-.8V9.411h-.991q-2.324,0-2.324,1.36a1.151,1.151,0,0,0,.4.93A1.524,1.524,0,0,0,66.03,12.036ZM38.8,19.6l.041.93a2.7,2.7,0,0,1,2.215-1.066q2.345,0,2.365,2.646V27H42.155V22.105a1.7,1.7,0,0,0-.366-1.183,1.466,1.466,0,0,0-1.118-.383,1.825,1.825,0,0,0-1.08.328,2.228,2.228,0,0,0-.725.861V27H37.6V19.6Zm6.193,3.63a4.369,4.369,0,0,1,.427-1.955,3.187,3.187,0,0,1,1.189-1.34,3.238,3.238,0,0,1,1.74-.472,3.119,3.119,0,0,1,2.444,1.046,4.024,4.024,0,0,1,.933,2.782v.089a4.407,4.407,0,0,1-.414,1.938,3.14,3.14,0,0,1-1.183,1.336,3.275,3.275,0,0,1-1.767.479,3.111,3.111,0,0,1-2.437-1.046,4,4,0,0,1-.933-2.769Zm1.271.15a3.164,3.164,0,0,0,.571,1.976,1.934,1.934,0,0,0,3.059-.01,3.46,3.46,0,0,0,.567-2.116,3.159,3.159,0,0,0-.578-1.972,1.836,1.836,0,0,0-1.535-.755,1.816,1.816,0,0,0-1.511.745A3.434,3.434,0,0,0,46.264,23.384ZM10.525,41H9.261V33.6h1.265ZM9.158,31.642a.755.755,0,0,1,.188-.52A.706.706,0,0,1,9.9,30.91a.717.717,0,0,1,.561.212.747.747,0,0,1,.191.52.722.722,0,0,1-.191.513.73.73,0,0,1-.561.205.718.718,0,0,1-.557-.205A.73.73,0,0,1,9.158,31.642Zm3.083,5.6a4.333,4.333,0,0,1,.807-2.738,2.551,2.551,0,0,1,2.112-1.036,2.565,2.565,0,0,1,2.058.889V30.5h1.265V41H17.32l-.062-.793a2.575,2.575,0,0,1-2.112.93,2.526,2.526,0,0,1-2.1-1.053,4.382,4.382,0,0,1-.81-2.748Zm1.265.144a3.281,3.281,0,0,0,.52,1.969,1.68,1.68,0,0,0,1.436.711,1.845,1.845,0,0,0,1.757-1.08v-3.4a1.859,1.859,0,0,0-1.743-1.046,1.687,1.687,0,0,0-1.449.718A3.612,3.612,0,0,0,13.506,37.384Zm10.008,3.753a3.232,3.232,0,0,1-2.447-.988,3.666,3.666,0,0,1-.943-2.642v-.232a4.438,4.438,0,0,1,.42-1.965,3.28,3.28,0,0,1,1.176-1.354,2.956,2.956,0,0,1,1.637-.489,2.77,2.77,0,0,1,2.242.95,4.114,4.114,0,0,1,.8,2.721v.526H21.388a2.629,2.629,0,0,0,.639,1.767,2.009,2.009,0,0,0,1.555.673,2.2,2.2,0,0,0,1.135-.273,2.851,2.851,0,0,0,.813-.725l.772.6A3.106,3.106,0,0,1,23.514,41.137Zm-.157-6.631a1.687,1.687,0,0,0-1.285.557,2.708,2.708,0,0,0-.643,1.562h3.705v-.1a2.409,2.409,0,0,0-.52-1.494A1.588,1.588,0,0,0,23.356,34.506Zm5.7-.9.041.93a2.7,2.7,0,0,1,2.215-1.066q2.345,0,2.365,2.646V41H32.414V36.105a1.7,1.7,0,0,0-.366-1.183,1.466,1.466,0,0,0-1.118-.383,1.825,1.825,0,0,0-1.08.328,2.228,2.228,0,0,0-.725.861V41H27.861V33.6ZM37.3,31.813V33.6h1.381v.978H37.3v4.593a1.027,1.027,0,0,0,.185.667.777.777,0,0,0,.629.222,3.062,3.062,0,0,0,.6-.082V41a3.688,3.688,0,0,1-.971.136,1.575,1.575,0,0,1-1.278-.513,2.2,2.2,0,0,1-.431-1.456V34.581H34.69V33.6h1.347V31.813ZM41.533,41H40.269V33.6h1.265Zm-1.367-9.358a.755.755,0,0,1,.188-.52.706.706,0,0,1,.557-.212.717.717,0,0,1,.561.212.747.747,0,0,1,.191.52.722.722,0,0,1-.191.513.73.73,0,0,1-.561.205.718.718,0,0,1-.557-.205A.73.73,0,0,1,40.166,31.642ZM43.98,41V34.581H42.812V33.6H43.98v-.629a2.57,2.57,0,0,1,.708-1.928,2.744,2.744,0,0,1,2-.69,6.021,6.021,0,0,1,1.935.417L48.41,31.84a4.382,4.382,0,0,0-1.627-.342,1.592,1.592,0,0,0-1.172.366,1.508,1.508,0,0,0-.359,1.1V33.6h1.511v.978H45.252V41Zm5.271,0H47.979V33.6h1.271Zm5.024-.9a1.822,1.822,0,0,0,1.183-.41,1.443,1.443,0,0,0,.561-1.025h1.2a2.293,2.293,0,0,1-.437,1.21,2.881,2.881,0,0,1-1.077.916,3.107,3.107,0,0,1-1.425.342,3.047,3.047,0,0,1-2.4-1.008,4.016,4.016,0,0,1-.892-2.758v-.212a4.453,4.453,0,0,1,.4-1.921,3.02,3.02,0,0,1,1.138-1.306,3.233,3.233,0,0,1,1.753-.465,2.966,2.966,0,0,1,2.068.745,2.663,2.663,0,0,1,.878,1.935h-1.2a1.743,1.743,0,0,0-.543-1.179,1.691,1.691,0,0,0-1.207-.461,1.77,1.77,0,0,0-1.494.694,3.259,3.259,0,0,0-.53,2.006v.239a3.194,3.194,0,0,0,.526,1.969A1.779,1.779,0,0,0,54.275,40.1ZM63.2,41a2.657,2.657,0,0,1-.178-.779,2.822,2.822,0,0,1-2.105.916,2.611,2.611,0,0,1-1.794-.619,2,2,0,0,1-.7-1.569,2.091,2.091,0,0,1,.878-1.794,4.142,4.142,0,0,1,2.471-.639H63v-.581a1.42,1.42,0,0,0-.4-1.056,1.593,1.593,0,0,0-1.169-.393,1.844,1.844,0,0,0-1.135.342,1.007,1.007,0,0,0-.458.827H58.575a1.745,1.745,0,0,1,.393-1.07,2.683,2.683,0,0,1,1.066-.817,3.588,3.588,0,0,1,1.48-.3,2.924,2.924,0,0,1,2,.639,2.306,2.306,0,0,1,.752,1.76v3.4a4.162,4.162,0,0,0,.26,1.62V41Zm-2.1-.964a2.223,2.223,0,0,0,1.128-.308,1.861,1.861,0,0,0,.772-.8V37.411h-.991q-2.324,0-2.324,1.36a1.151,1.151,0,0,0,.4.93A1.524,1.524,0,0,0,61.1,40.036Zm4.84-2.8a4.333,4.333,0,0,1,.807-2.738,2.745,2.745,0,0,1,4.17-.147V30.5h1.265V41H71.023l-.062-.793a2.575,2.575,0,0,1-2.112.93,2.526,2.526,0,0,1-2.1-1.053,4.382,4.382,0,0,1-.81-2.748Zm1.265.144a3.281,3.281,0,0,0,.52,1.969,1.68,1.68,0,0,0,1.436.711,1.845,1.845,0,0,0,1.757-1.08v-3.4a1.859,1.859,0,0,0-1.743-1.046,1.687,1.687,0,0,0-1.449.718A3.612,3.612,0,0,0,67.209,37.384ZM78.714,41a2.657,2.657,0,0,1-.178-.779,2.822,2.822,0,0,1-2.105.916,2.611,2.611,0,0,1-1.794-.619,2,2,0,0,1-.7-1.569,2.091,2.091,0,0,1,.878-1.794,4.142,4.142,0,0,1,2.471-.639h1.23v-.581a1.42,1.42,0,0,0-.4-1.056,1.593,1.593,0,0,0-1.169-.393,1.844,1.844,0,0,0-1.135.342,1.007,1.007,0,0,0-.458.827H74.086a1.745,1.745,0,0,1,.393-1.07,2.683,2.683,0,0,1,1.066-.817,3.588,3.588,0,0,1,1.48-.3,2.924,2.924,0,0,1,2,.639,2.306,2.306,0,0,1,.752,1.76v3.4a4.162,4.162,0,0,0,.26,1.62V41Zm-2.1-.964a2.223,2.223,0,0,0,1.128-.308,1.861,1.861,0,0,0,.772-.8V37.411h-.991q-2.324,0-2.324,1.36a1.151,1.151,0,0,0,.4.93A1.524,1.524,0,0,0,76.615,40.036Z" transform="translate(-5369.264 -8000.75)" fill="#12263f"/>
    <path id="Trazado_104539" data-name="Trazado 104539" d="M24.323,10V2.891H26.33a3.231,3.231,0,0,1,1.641.41,2.774,2.774,0,0,1,1.1,1.167,3.8,3.8,0,0,1,.393,1.738V6.66a3.812,3.812,0,0,1-.388,1.763,2.731,2.731,0,0,1-1.108,1.162A3.436,3.436,0,0,1,26.291,10Zm.938-6.343V9.233h.986a2.146,2.146,0,0,0,1.687-.674,2.786,2.786,0,0,0,.6-1.921V6.223a2.831,2.831,0,0,0-.569-1.884,2.024,2.024,0,0,0-1.614-.682ZM31.886,10h-.937V2.891h.938ZM31.857.938h1.094L31.642,2.373l-.728,0Zm5.757,7.2H34.635L33.966,10H33l2.715-7.109h.82L39.254,10h-.962Zm-2.7-.767h2.417L36.125,4.048ZM40.25,10.61h-.776l2.969-7.72h.771Zm5.293-7.72,2.324,5.8,2.324-5.8h1.216V10H50.47V7.231l.088-2.988L48.224,10h-.718L45.177,4.258l.093,2.974V10h-.937V2.891ZM57.082,6.714H54v2.52H57.58V10H53.063V2.891h4.468v.767H54v2.29h3.081Zm3.76.117a4.408,4.408,0,0,1-1.755-.852,1.628,1.628,0,0,1-.549-1.248,1.72,1.72,0,0,1,.671-1.389,2.668,2.668,0,0,1,1.746-.549,2.913,2.913,0,0,1,1.306.283,2.148,2.148,0,0,1,.889.781,2,2,0,0,1,.315,1.089h-.942a1.3,1.3,0,0,0-.41-1.017,1.668,1.668,0,0,0-1.157-.37,1.708,1.708,0,0,0-1.082.306,1.02,1.02,0,0,0-.388.849.918.918,0,0,0,.369.736A3.616,3.616,0,0,0,61.107,6a5.823,5.823,0,0,1,1.387.55,2.1,2.1,0,0,1,.742.7,1.788,1.788,0,0,1,.242.942A1.661,1.661,0,0,1,62.8,9.578a2.873,2.873,0,0,1-1.8.52,3.342,3.342,0,0,1-1.367-.281,2.3,2.3,0,0,1-.979-.769,1.877,1.877,0,0,1-.344-1.108h.942a1.224,1.224,0,0,0,.476,1.018A2,2,0,0,0,61,9.331a1.843,1.843,0,0,0,1.138-.3.983.983,0,0,0,.4-.825.965.965,0,0,0-.366-.808A4.222,4.222,0,0,0,60.841,6.831Zm3.877,3.779h-.776l2.969-7.72h.771ZM72.726,8.14H69.748L69.079,10h-.967l2.715-7.109h.82L74.367,10H73.4Zm-2.7-.767h2.417L71.237,4.048ZM80.788,10h-.942L76.266,4.521V10h-.942V2.891h.942l3.589,5.5v-5.5h.933ZM79.777,1.143a1.214,1.214,0,0,1-.3.854.975.975,0,0,1-.75.327,1.1,1.1,0,0,1-.347-.049,1.87,1.87,0,0,1-.383-.2,1.66,1.66,0,0,0-.342-.183.836.836,0,0,0-.242-.032.448.448,0,0,0-.342.154.558.558,0,0,0-.142.393l-.605-.034a1.274,1.274,0,0,1,.3-.864.947.947,0,0,1,.75-.342.91.91,0,0,1,.308.049,2.242,2.242,0,0,1,.371.19,2.184,2.184,0,0,0,.359.186.824.824,0,0,0,.276.044.437.437,0,0,0,.349-.166.582.582,0,0,0,.139-.386Zm8.145,5.532A4.4,4.4,0,0,1,87.57,8.5a2.663,2.663,0,0,1-1,1.189,2.749,2.749,0,0,1-4-1.179,4.22,4.22,0,0,1-.369-1.77V6.226a4.346,4.346,0,0,1,.356-1.812,2.636,2.636,0,0,1,2.5-1.621,2.756,2.756,0,0,1,1.506.413,2.658,2.658,0,0,1,1,1.2,4.419,4.419,0,0,1,.352,1.824Zm-.933-.459a3.188,3.188,0,0,0-.508-1.941A1.675,1.675,0,0,0,85.06,3.6a1.657,1.657,0,0,0-1.4.676,3.122,3.122,0,0,0-.525,1.877v.522A3.192,3.192,0,0,0,83.651,8.6a1.805,1.805,0,0,0,2.825.039,3.174,3.174,0,0,0,.513-1.9Z" transform="translate(-5378.264 -7857.75)" fill="#12263f"/>
    <path id="Trazado_104540" data-name="Trazado 104540" d="M44.928,8.14H41.95L41.281,10h-.967l2.715-7.109h.82L46.569,10h-.962Zm-2.7-.767H44.65L43.439,4.048Zm7.031-.024H46.881V6.611h2.383ZM53.019,10h-.908V3.979l-1.821.669v-.82l2.588-.972h.142Zm4.619-2.651H55.255V6.611h2.383Zm2.1-1.343h.679a1.492,1.492,0,0,0,1.006-.337,1.126,1.126,0,0,0,.366-.884,1.1,1.1,0,0,0-1.245-1.25,1.3,1.3,0,0,0-.935.334,1.171,1.171,0,0,0-.349.886h-.9a1.814,1.814,0,0,1,.618-1.4,2.25,2.25,0,0,1,1.57-.559,2.224,2.224,0,0,1,1.577.532A1.923,1.923,0,0,1,62.692,4.8a1.561,1.561,0,0,1-.3.9,1.813,1.813,0,0,1-.818.649,1.747,1.747,0,0,1,.906.615,1.709,1.709,0,0,1,.32,1.05,1.939,1.939,0,0,1-.625,1.519,2.34,2.34,0,0,1-1.626.562,2.4,2.4,0,0,1-1.628-.542,1.8,1.8,0,0,1-.627-1.431H59.2a1.162,1.162,0,0,0,.366.9,1.393,1.393,0,0,0,.981.337,1.367,1.367,0,0,0,1-.342,1.317,1.317,0,0,0,.347-.981,1.2,1.2,0,0,0-.381-.952,1.659,1.659,0,0,0-1.1-.342h-.679Zm6.274,1.343H63.629V6.611h2.383ZM71.457,10H66.8V9.351l2.461-2.734a5.846,5.846,0,0,0,.754-1.008,1.683,1.683,0,0,0,.208-.8,1.276,1.276,0,0,0-.337-.913,1.178,1.178,0,0,0-.9-.356,1.4,1.4,0,0,0-1.047.383,1.464,1.464,0,0,0-.374,1.067h-.9A2.1,2.1,0,0,1,67.294,3.4a2.344,2.344,0,0,1,1.692-.605,2.252,2.252,0,0,1,1.567.52A1.774,1.774,0,0,1,71.129,4.7a4.067,4.067,0,0,1-1.338,2.5l-1.9,2.065h3.569Z" transform="translate(-5378.264 -7808.858)" fill="#12263f"/>
    <path id="Trazado_104541" data-name="Trazado 104541" d="M0,0H70" transform="translate(-5251.5 -7801.5)" fill="none" stroke="#ff8658" stroke-width="1"/>
    <path id="Trazado_104542" data-name="Trazado 104542" d="M0,0H70" transform="translate(-5251.5 -7851.25)" fill="none" stroke="#ff8658" stroke-width="1"/>
    <path id="Trazado_104543" data-name="Trazado 104543" d="M0,0H70" transform="translate(-5251.5 -7909)" fill="none" stroke="#ff8658" stroke-width="1"/>
    <path id="Trazado_104535" data-name="Trazado 104535" d="M0,0H70" transform="translate(-5326.264 -8007.249) rotate(-90)" fill="none" stroke="#ff8658" stroke-width="1"/>
    <path id="Trazado_104544" data-name="Trazado 104544" d="M9,0A9,9,0,1,1,0,9,9,9,0,0,1,9,0Z" transform="translate(-5190.5 -7811)" fill="#ffa761"/>
    <path id="Trazado_104545" data-name="Trazado 104545" d="M9,0A9,9,0,1,1,0,9,9,9,0,0,1,9,0Z" transform="translate(-5190.5 -7860.75)" fill="#ffa761"/>
    <path id="Trazado_104546" data-name="Trazado 104546" d="M9,0A9,9,0,1,1,0,9,9,9,0,0,1,9,0Z" transform="translate(-5190.5 -7918.5)" fill="#ffa761"/>
    <path id="Trazado_104536" data-name="Trazado 104536" d="M9,0A9,9,0,1,1,0,9,9,9,0,0,1,9,0Z" transform="translate(-5335.764 -8068.249) rotate(-90)" fill="#ffa761"/>
    <path id="Trazado_104537" data-name="Trazado 104537" d="M5.249,10H.591V9.351L3.052,6.616a5.847,5.847,0,0,0,.754-1.008,1.683,1.683,0,0,0,.208-.8,1.276,1.276,0,0,0-.337-.913,1.178,1.178,0,0,0-.9-.356,1.4,1.4,0,0,0-1.047.383,1.464,1.464,0,0,0-.374,1.067h-.9A2.1,2.1,0,0,1,1.086,3.4a2.344,2.344,0,0,1,1.692-.605,2.252,2.252,0,0,1,1.567.52A1.774,1.774,0,0,1,4.922,4.7,4.067,4.067,0,0,1,3.584,7.2L1.68,9.263H5.249Zm5.415-3.032a4.131,4.131,0,0,1-.542,2.358,1.928,1.928,0,0,1-1.694.771,1.942,1.942,0,0,1-1.685-.754A3.921,3.921,0,0,1,6.177,7.09V5.884a4.039,4.039,0,0,1,.542-2.329,1.942,1.942,0,0,1,1.7-.762,1.96,1.96,0,0,1,1.689.735A3.9,3.9,0,0,1,10.664,5.8Zm-.9-1.235A3.31,3.31,0,0,0,9.438,4.06a1.109,1.109,0,0,0-1.021-.525,1.1,1.1,0,0,0-1.011.522A3.232,3.232,0,0,0,7.08,5.664V7.109a3.363,3.363,0,0,0,.334,1.7,1.107,1.107,0,0,0,1.013.549,1.092,1.092,0,0,0,.994-.518,3.241,3.241,0,0,0,.339-1.631ZM14.79,10h-.908V3.979l-1.821.669v-.82l2.588-.972h.142Zm7.3,0H17.437V9.351L19.9,6.616a5.846,5.846,0,0,0,.754-1.008,1.683,1.683,0,0,0,.208-.8,1.276,1.276,0,0,0-.337-.913,1.178,1.178,0,0,0-.9-.356,1.4,1.4,0,0,0-1.047.383A1.464,1.464,0,0,0,18.2,4.985h-.9A2.1,2.1,0,0,1,17.932,3.4a2.344,2.344,0,0,1,1.692-.605,2.252,2.252,0,0,1,1.567.52A1.774,1.774,0,0,1,21.768,4.7,4.067,4.067,0,0,1,20.43,7.2l-1.9,2.065h3.569ZM27.51,6.968a4.131,4.131,0,0,1-.542,2.358,1.928,1.928,0,0,1-1.694.771,1.942,1.942,0,0,1-1.685-.754,3.921,3.921,0,0,1-.566-2.253V5.884a4.039,4.039,0,0,1,.542-2.329,1.942,1.942,0,0,1,1.7-.762,1.96,1.96,0,0,1,1.689.735A3.9,3.9,0,0,1,27.51,5.8Zm-.9-1.235a3.31,3.31,0,0,0-.322-1.672,1.109,1.109,0,0,0-1.021-.525,1.1,1.1,0,0,0-1.011.522,3.232,3.232,0,0,0-.327,1.606V7.109a3.363,3.363,0,0,0,.334,1.7,1.107,1.107,0,0,0,1.013.549,1.092,1.092,0,0,0,.994-.518,3.241,3.241,0,0,0,.339-1.631Zm5.605-2.847v.767h-.166a2.378,2.378,0,0,0-1.68.625,2.6,2.6,0,0,0-.723,1.7,1.928,1.928,0,0,1,1.533-.645,1.844,1.844,0,0,1,1.482.654,2.524,2.524,0,0,1,.554,1.689,2.516,2.516,0,0,1-.6,1.758,2.06,2.06,0,0,1-1.6.659,2.029,2.029,0,0,1-1.655-.784,3.106,3.106,0,0,1-.635-2.019V6.948a4.68,4.68,0,0,1,.837-3,3.075,3.075,0,0,1,2.493-1.062Zm-1.187,3.2a1.518,1.518,0,0,0-1.4.977V7.4a2.332,2.332,0,0,0,.4,1.416,1.185,1.185,0,0,0,.986.537A1.148,1.148,0,0,0,31.97,8.9a1.864,1.864,0,0,0,.349-1.177,1.865,1.865,0,0,0-.354-1.184A1.135,1.135,0,0,0,31.025,6.089Zm7.715.879A4.131,4.131,0,0,1,38.2,9.326a2.252,2.252,0,0,1-3.379.017,3.921,3.921,0,0,1-.566-2.253V5.884a4.039,4.039,0,0,1,.542-2.329,2.293,2.293,0,0,1,3.389-.027A3.9,3.9,0,0,1,38.74,5.8Zm-.9-1.235a3.31,3.31,0,0,0-.322-1.672,1.109,1.109,0,0,0-1.021-.525,1.1,1.1,0,0,0-1.011.522,3.232,3.232,0,0,0-.327,1.606V7.109a3.363,3.363,0,0,0,.334,1.7A1.107,1.107,0,0,0,36.5,9.36a1.092,1.092,0,0,0,.994-.518,3.241,3.241,0,0,0,.339-1.631Zm3.374.273h.679A1.492,1.492,0,0,0,42.9,5.669a1.126,1.126,0,0,0,.366-.884,1.1,1.1,0,0,0-1.245-1.25,1.3,1.3,0,0,0-.935.334,1.171,1.171,0,0,0-.349.886h-.9a1.814,1.814,0,0,1,.618-1.4,2.25,2.25,0,0,1,1.57-.559,2.224,2.224,0,0,1,1.577.532A1.923,1.923,0,0,1,44.165,4.8a1.561,1.561,0,0,1-.3.9,1.813,1.813,0,0,1-.818.649,1.747,1.747,0,0,1,.906.615,1.709,1.709,0,0,1,.32,1.05,1.939,1.939,0,0,1-.625,1.519,2.34,2.34,0,0,1-1.626.562,2.4,2.4,0,0,1-1.628-.542,1.8,1.8,0,0,1-.627-1.431h.908a1.162,1.162,0,0,0,.366.9,1.393,1.393,0,0,0,.981.337,1.367,1.367,0,0,0,1-.342,1.317,1.317,0,0,0,.347-.981,1.2,1.2,0,0,0-.381-.952,1.659,1.659,0,0,0-1.1-.342h-.679Zm8.76.962a4.131,4.131,0,0,1-.542,2.358,2.252,2.252,0,0,1-3.379.017,3.921,3.921,0,0,1-.566-2.253V5.884a4.039,4.039,0,0,1,.542-2.329,2.293,2.293,0,0,1,3.389-.027A3.9,3.9,0,0,1,49.971,5.8Zm-.9-1.235a3.31,3.31,0,0,0-.322-1.672,1.109,1.109,0,0,0-1.021-.525,1.1,1.1,0,0,0-1.011.522,3.232,3.232,0,0,0-.327,1.606V7.109a3.363,3.363,0,0,0,.334,1.7,1.107,1.107,0,0,0,1.013.549,1.092,1.092,0,0,0,.994-.518,3.241,3.241,0,0,0,.339-1.631ZM54.1,10h-.908V3.979l-1.821.669v-.82l2.588-.972H54.1Zm6.46-2.388h.986V8.35h-.986V10h-.908V8.35H56.411V7.817l3.184-4.927h.962Zm-3.12,0h2.212V4.126l-.107.2ZM66.948,3.4,64,10h-.947l2.935-6.367H62.144V2.891h4.8Zm4.487,3.477a2.21,2.21,0,0,1-.676.542,1.835,1.835,0,0,1-.862.205,1.894,1.894,0,0,1-1.072-.3,1.968,1.968,0,0,1-.706-.852,2.9,2.9,0,0,1-.249-1.213,2.96,2.96,0,0,1,.271-1.284,1.991,1.991,0,0,1,.769-.874,2.193,2.193,0,0,1,1.162-.3,1.985,1.985,0,0,1,1.663.789,3.44,3.44,0,0,1,.608,2.151V6a4.6,4.6,0,0,1-.82,3.03A3.152,3.152,0,0,1,69.048,10h-.176V9.238h.19a2.487,2.487,0,0,0,1.719-.582A2.5,2.5,0,0,0,71.436,6.875Zm-1.392,0a1.4,1.4,0,0,0,.837-.278,1.641,1.641,0,0,0,.559-.688V5.547A2.486,2.486,0,0,0,71.055,4.1,1.179,1.179,0,0,0,69.121,4a1.883,1.883,0,0,0-.361,1.2,1.96,1.96,0,0,0,.349,1.2A1.105,1.105,0,0,0,70.044,6.875ZM74.9,6.006h.679a1.492,1.492,0,0,0,1.006-.337,1.126,1.126,0,0,0,.366-.884,1.1,1.1,0,0,0-1.245-1.25,1.3,1.3,0,0,0-.935.334,1.171,1.171,0,0,0-.349.886h-.9a1.814,1.814,0,0,1,.618-1.4,2.25,2.25,0,0,1,1.57-.559,2.224,2.224,0,0,1,1.577.532A1.923,1.923,0,0,1,77.856,4.8a1.561,1.561,0,0,1-.3.9,1.813,1.813,0,0,1-.818.649,1.747,1.747,0,0,1,.906.615,1.709,1.709,0,0,1,.32,1.05,1.939,1.939,0,0,1-.625,1.519,2.34,2.34,0,0,1-1.626.562,2.4,2.4,0,0,1-1.628-.542,1.8,1.8,0,0,1-.627-1.431h.908a1.162,1.162,0,0,0,.366.9,1.393,1.393,0,0,0,.981.337,1.367,1.367,0,0,0,1-.342,1.317,1.317,0,0,0,.347-.981,1.2,1.2,0,0,0-.381-.952,1.659,1.659,0,0,0-1.1-.342H74.9Zm7.764.869a2.21,2.21,0,0,1-.676.542,1.835,1.835,0,0,1-.862.205,1.894,1.894,0,0,1-1.072-.3,1.968,1.968,0,0,1-.706-.852A2.9,2.9,0,0,1,79.1,5.254a2.96,2.96,0,0,1,.271-1.284,1.991,1.991,0,0,1,.769-.874,2.193,2.193,0,0,1,1.162-.3,1.985,1.985,0,0,1,1.663.789,3.44,3.44,0,0,1,.608,2.151V6a4.6,4.6,0,0,1-.82,3.03A3.152,3.152,0,0,1,80.278,10H80.1V9.238h.19a2.487,2.487,0,0,0,1.719-.582A2.5,2.5,0,0,0,82.666,6.875Zm-1.392,0a1.4,1.4,0,0,0,.837-.278,1.641,1.641,0,0,0,.559-.688V5.547A2.486,2.486,0,0,0,82.285,4.1,1.179,1.179,0,0,0,80.352,4a1.883,1.883,0,0,0-.361,1.2,1.96,1.96,0,0,0,.349,1.2A1.105,1.105,0,0,0,81.274,6.875Zm4.858-.869h.679a1.492,1.492,0,0,0,1.006-.337,1.126,1.126,0,0,0,.366-.884,1.1,1.1,0,0,0-1.245-1.25A1.3,1.3,0,0,0,86,3.87a1.171,1.171,0,0,0-.349.886h-.9a1.814,1.814,0,0,1,.618-1.4,2.25,2.25,0,0,1,1.57-.559,2.224,2.224,0,0,1,1.577.532A1.923,1.923,0,0,1,89.087,4.8a1.561,1.561,0,0,1-.3.9,1.813,1.813,0,0,1-.818.649,1.747,1.747,0,0,1,.906.615,1.709,1.709,0,0,1,.32,1.05,1.939,1.939,0,0,1-.625,1.519,2.34,2.34,0,0,1-1.626.562,2.4,2.4,0,0,1-1.628-.542,1.8,1.8,0,0,1-.627-1.431H85.6a1.162,1.162,0,0,0,.366.9,1.393,1.393,0,0,0,.981.337,1.367,1.367,0,0,0,1-.342,1.317,1.317,0,0,0,.347-.981,1.2,1.2,0,0,0-.381-.952,1.659,1.659,0,0,0-1.1-.342h-.679Zm8.613-1.26a1.651,1.651,0,0,1-.281.947,1.91,1.91,0,0,1-.759.649,2.038,2.038,0,0,1,.881.7,1.757,1.757,0,0,1,.325,1.04,1.858,1.858,0,0,1-.623,1.47,2.73,2.73,0,0,1-3.281,0,1.866,1.866,0,0,1-.618-1.467,1.81,1.81,0,0,1,.315-1.04,1.96,1.96,0,0,1,.872-.7,1.863,1.863,0,0,1-.747-.649,1.674,1.674,0,0,1-.273-.942,1.838,1.838,0,0,1,.576-1.426,2.447,2.447,0,0,1,3.035,0A1.834,1.834,0,0,1,94.746,4.746Zm-.737,3.315a1.31,1.31,0,0,0-.378-.972,1.342,1.342,0,0,0-.989-.376,1.271,1.271,0,0,0-1.348,1.348,1.262,1.262,0,0,0,.359.952,1.6,1.6,0,0,0,1.995,0A1.259,1.259,0,0,0,94.009,8.062ZM92.651,3.535a1.166,1.166,0,0,0-.862.33,1.211,1.211,0,0,0-.33.9,1.2,1.2,0,0,0,.325.876,1.29,1.29,0,0,0,1.733,0,1.2,1.2,0,0,0,.325-.876,1.205,1.205,0,0,0-.337-.884A1.149,1.149,0,0,0,92.651,3.535Zm6.86,3.34a2.21,2.21,0,0,1-.676.542,1.835,1.835,0,0,1-.862.205,1.894,1.894,0,0,1-1.072-.3,1.968,1.968,0,0,1-.706-.852,2.9,2.9,0,0,1-.249-1.213,2.96,2.96,0,0,1,.271-1.284,1.991,1.991,0,0,1,.769-.874,2.193,2.193,0,0,1,1.162-.3,1.985,1.985,0,0,1,1.663.789,3.44,3.44,0,0,1,.608,2.151V6a4.6,4.6,0,0,1-.82,3.03A3.152,3.152,0,0,1,97.124,10h-.176V9.238h.19a2.487,2.487,0,0,0,1.719-.582A2.5,2.5,0,0,0,99.512,6.875Zm-1.392,0a1.4,1.4,0,0,0,.837-.278,1.641,1.641,0,0,0,.559-.688V5.547A2.486,2.486,0,0,0,99.131,4.1,1.179,1.179,0,0,0,97.2,4a1.883,1.883,0,0,0-.361,1.2,1.96,1.96,0,0,0,.349,1.2A1.105,1.105,0,0,0,98.12,6.875Zm7.856-2.129a1.651,1.651,0,0,1-.281.947,1.91,1.91,0,0,1-.759.649,2.038,2.038,0,0,1,.881.7,1.757,1.757,0,0,1,.325,1.04,1.858,1.858,0,0,1-.623,1.47,2.73,2.73,0,0,1-3.281,0,1.866,1.866,0,0,1-.618-1.467,1.81,1.81,0,0,1,.315-1.04,1.96,1.96,0,0,1,.872-.7,1.863,1.863,0,0,1-.747-.649,1.674,1.674,0,0,1-.273-.942,1.838,1.838,0,0,1,.576-1.426,2.447,2.447,0,0,1,3.035,0A1.834,1.834,0,0,1,105.977,4.746Zm-.737,3.315a1.31,1.31,0,0,0-.378-.972,1.342,1.342,0,0,0-.989-.376,1.271,1.271,0,0,0-1.348,1.348,1.262,1.262,0,0,0,.359.952,1.6,1.6,0,0,0,1.995,0A1.259,1.259,0,0,0,105.239,8.062Zm-1.357-4.526a1.166,1.166,0,0,0-.862.33,1.211,1.211,0,0,0-.33.9,1.2,1.2,0,0,0,.325.876,1.29,1.29,0,0,0,1.733,0,1.2,1.2,0,0,0,.325-.876,1.205,1.205,0,0,0-.337-.884A1.149,1.149,0,0,0,103.882,3.535Z" transform="translate(-5376.264 -7915.938)" fill="#12263f"/>
    <path id="Trazado_104538" data-name="Trazado 104538" d="M1.661-10.021V0H-.492V-7.588a2.579,2.579,0,0,1-.42.3,4.34,4.34,0,0,1-.516.253A4.608,4.608,0,0,1-2-6.846a4.144,4.144,0,0,1-.581.113V-8.552A8.982,8.982,0,0,0-.991-9.181a9.025,9.025,0,0,0,1.347-.841Z" transform="translate(-5327 -8072)" fill="#fff"/>
    <path id="Trazado_104547" data-name="Trazado 104547" d="M-1.094-1.791H3.063V0H-3.459V-.738a3.436,3.436,0,0,1,.253-1.35A4.48,4.48,0,0,1-2.57-3.162,5.514,5.514,0,0,1-1.733-4q.455-.366.865-.66.431-.308.755-.588a4.3,4.3,0,0,0,.547-.557,2.118,2.118,0,0,0,.332-.561,1.667,1.667,0,0,0,.109-.6,1.216,1.216,0,0,0-.355-.95A1.58,1.58,0,0,0-.567-8.244a3.651,3.651,0,0,0-2.42,1v-1.9A5.2,5.2,0,0,1-.1-9.967a4.26,4.26,0,0,1,1.336.195,2.827,2.827,0,0,1,1,.557,2.376,2.376,0,0,1,.625.878,2.964,2.964,0,0,1,.215,1.152,3.248,3.248,0,0,1-.208,1.2,3.7,3.7,0,0,1-.554.957,5.023,5.023,0,0,1-.8.79q-.451.359-.937.694-.328.232-.632.461a6,6,0,0,0-.537.451,2.449,2.449,0,0,0-.369.434A.749.749,0,0,0-1.094-1.791Z" transform="translate(-5181 -7905)" fill="#fff"/>
    <path id="Trazado_104548" data-name="Trazado 104548" d="M-3.227-.321V-2.2a3.794,3.794,0,0,0,2.3.718A2.068,2.068,0,0,0,.359-1.839,1.18,1.18,0,0,0,.82-2.83,1.127,1.127,0,0,0,.25-3.842,2.957,2.957,0,0,0-1.319-4.2h-.909V-5.852h.841q1.914,0,1.914-1.271,0-1.2-1.47-1.2a3.351,3.351,0,0,0-1.914.636V-9.447a5.286,5.286,0,0,1,2.406-.52A3.631,3.631,0,0,1,1.89-9.29a2.154,2.154,0,0,1,.837,1.757A2.284,2.284,0,0,1,.779-5.127v.034a2.649,2.649,0,0,1,1.641.755,2.13,2.13,0,0,1,.6,1.535,2.63,2.63,0,0,1-1,2.174,4.345,4.345,0,0,1-2.775.8A5.364,5.364,0,0,1-3.227-.321Z" transform="translate(-5181 -7847)" fill="#fff"/>
    <path id="Trazado_104549" data-name="Trazado 104549" d="M-3.227-.321V-2.2a3.794,3.794,0,0,0,2.3.718A2.068,2.068,0,0,0,.359-1.839,1.18,1.18,0,0,0,.82-2.83,1.127,1.127,0,0,0,.25-3.842,2.957,2.957,0,0,0-1.319-4.2h-.909V-5.852h.841q1.914,0,1.914-1.271,0-1.2-1.47-1.2a3.351,3.351,0,0,0-1.914.636V-9.447a5.286,5.286,0,0,1,2.406-.52A3.631,3.631,0,0,1,1.89-9.29a2.154,2.154,0,0,1,.837,1.757A2.284,2.284,0,0,1,.779-5.127v.034a2.649,2.649,0,0,1,1.641.755,2.13,2.13,0,0,1,.6,1.535,2.63,2.63,0,0,1-1,2.174,4.345,4.345,0,0,1-2.775.8A5.364,5.364,0,0,1-3.227-.321Z" transform="translate(-5181 -7847)" fill="#fff"/>
    <path id="Trazado_104550" data-name="Trazado 104550" d="M-3.227-.321V-2.2a3.794,3.794,0,0,0,2.3.718A2.068,2.068,0,0,0,.359-1.839,1.18,1.18,0,0,0,.82-2.83,1.127,1.127,0,0,0,.25-3.842,2.957,2.957,0,0,0-1.319-4.2h-.909V-5.852h.841q1.914,0,1.914-1.271,0-1.2-1.47-1.2a3.351,3.351,0,0,0-1.914.636V-9.447a5.286,5.286,0,0,1,2.406-.52A3.631,3.631,0,0,1,1.89-9.29a2.154,2.154,0,0,1,.837,1.757A2.284,2.284,0,0,1,.779-5.127v.034a2.649,2.649,0,0,1,1.641.755,2.13,2.13,0,0,1,.6,1.535,2.63,2.63,0,0,1-1,2.174,4.345,4.345,0,0,1-2.775.8A5.364,5.364,0,0,1-3.227-.321Z" transform="translate(-5181 -7847)" fill="#fff"/>
    <path id="Trazado_104551" data-name="Trazado 104551" d="M2.481-9.8v6.18H3.657V-2.01H2.481V0H.513V-2.01H-3.76V-3.7q.567-.636,1.176-1.391t1.176-1.555q.567-.8,1.056-1.61A16.138,16.138,0,0,0,.479-9.8Zm-4.307,6.18H.513V-7.048q-.239.444-.52.9t-.588.9q-.308.441-.622.854T-1.825-3.623Z" transform="translate(-5182 -7797)" fill="#fff"/>
  </g>
</svg>
