<svg xmlns="http://www.w3.org/2000/svg" width="241" height="191.729" viewBox="0 0 241 191.729">
  <g id="Grupo_69211" data-name="Grupo 69211" transform="translate(-131.205 -262.68)">
    <g id="Grupo_69211-2" data-name="Grupo 69211" transform="translate(132.929 262.68)">
      <path id="Trazado_101068" data-name="Trazado 101068" d="M356.479,358.544c0,52.945-50.172,95.865-112.067,95.865s-112.065-42.92-112.065-95.865,50.174-95.864,112.065-95.864S356.479,305.6,356.479,358.544Z" transform="translate(-132.347 -262.68)" fill="#f6e8db"/>
    </g>
    <g id="Grupo_69243" data-name="Grupo 69243" transform="translate(131.205 276.715)">
      <g id="Grupo_69218" data-name="Grupo 69218" transform="translate(30.983)">
        <g id="Grupo_69216" data-name="Grupo 69216" transform="translate(0 3.224)">
          <path id="Trazado_101069" data-name="Trazado 101069" d="M175.3,289.529s8.9,2.473,6.674,22.373l-.989,27.191-3.585,1.36-3.212-46.846Z" transform="translate(-140.282 -266.256)" fill="#4d3c4b"/>
          <path id="Trazado_101070" data-name="Trazado 101070" d="M162.441,320.772c.759.424.669,1.7.94,2.465a5.2,5.2,0,0,0,1.419,2.227c-.651.688-2,.1-2.689-.338-.275,1.449-.485,3.53-1.342,4.8-1.552,2.305-1.636-.5-1.5-1.843.033.865-.5,2.793-1.176,3.267-.761-.584-.355-2.587-.113-3.383-.023.565-.666,2.814-1.411,2.672-.921-.177-.46-2.6-.226-3.142a2.645,2.645,0,0,1-.476,1.854c-.562-.531-.291-2.96-.242-3.794A16.5,16.5,0,0,1,156.54,321c.6-1.6,1.525-.953,2.965-.812,1.045.1,2.426-.1,3.169.7Z" transform="translate(-149.798 -250.758)" fill="#ff8f67"/>
          <g id="haed" transform="translate(26.556)">
            <g id="Grupo_69215" data-name="Grupo 69215">
              <g id="Grupo_69212" data-name="Grupo 69212">
                <path id="Trazado_101071" data-name="Trazado 101071" d="M169.7,284.108c-.58-2.325-.648-5.169.835-7.193,2.332-3.188,8.332-3.825,11.135-1.033a8.344,8.344,0,0,1,2.3,6.632,4.934,4.934,0,0,0,1.3,3.982c.139.131.3.311.223.485s-.288.171-.459.214c-.546.137-.8.761-.88,1.315a22.786,22.786,0,0,1-.716,3.957,1.26,1.26,0,0,1-.507.714,1.5,1.5,0,0,1-.9.092c-1.027-.116-2.043-.287-3.055-.5a.632.632,0,0,0-.178.109,1.5,1.5,0,0,0-.309.743q-.7,3.089-1.395,6.182a36.259,36.259,0,0,0-7.263-4.453,9.525,9.525,0,0,0,1.448-7.147A17.9,17.9,0,0,1,169.7,284.108Z" transform="translate(-169.32 -274.113)" fill="#ff8f67"/>
                <path id="Trazado_101072" data-name="Trazado 101072" d="M178.04,288.178a.135.135,0,0,1-.048-.009c-.146-.051-3.576-1.291-4.419-4.1a.148.148,0,0,1,.284-.086c.8,2.663,4.2,3.889,4.233,3.9a.149.149,0,0,1-.05.29Z" transform="translate(-167.156 -269.134)" fill="#894c4c"/>
              </g>
              <g id="Grupo_69214" data-name="Grupo 69214" transform="translate(12.33 8.733)">
                <g id="Grupo_69213" data-name="Grupo 69213">
                  <path id="Trazado_101073" data-name="Trazado 101073" d="M179.322,280.76a.413.413,0,0,1-.183.006,1.719,1.719,0,0,0-1.024.157.424.424,0,1,1-.408-.743,2.627,2.627,0,0,1,1.584-.248.424.424,0,0,1,.03.827Z" transform="translate(-177.487 -279.897)" fill="#a86060"/>
                  <path id="Trazado_101074" data-name="Trazado 101074" d="M178.776,281.283c.012.349-.113.637-.278.643s-.309-.275-.319-.625.115-.637.279-.643S178.766,280.936,178.776,281.283Z" transform="translate(-177.135 -279.51)" fill="#a86060"/>
                </g>
              </g>
            </g>
            <path id="Trazado_101075" data-name="Trazado 101075" d="M178.177,284.3a.116.116,0,0,1-.077-.029.118.118,0,0,1-.015-.168,1.282,1.282,0,0,1,1.313-.337.118.118,0,0,1,.086.145.115.115,0,0,1-.145.085,1.088,1.088,0,0,0-1.072.26A.117.117,0,0,1,178.177,284.3Z" transform="translate(-164.868 -269.221)" fill="#894c4c"/>
          </g>
          <path id="Trazado_101076" data-name="Trazado 101076" d="M156.014,317.736v3.956l6.3.494.371-4.573Z" transform="translate(-149.545 -251.944)" fill="#7a8ecb"/>
          <path id="Trazado_101077" data-name="Trazado 101077" d="M187.086,375.977l14.981-4.237c1.052-.3,1.653-1.119,1.347-1.836a2.857,2.857,0,0,0-2.532-1.236c-2.2-.024-5.75-.355-8.159-2.04l-8.528,3.584a16.21,16.21,0,0,0,.279,4.467A2.093,2.093,0,0,0,187.086,375.977Z" transform="translate(-135.208 -226.965)" fill="#4d3c4b"/>
          <path id="Trazado_101078" data-name="Trazado 101078" d="M153.626,373.109l15.087,3.845c1.06.27,1.993-.137,2.088-.913a2.866,2.866,0,0,0-1.573-2.338c-1.889-1.123-4.8-3.19-6.035-5.856l-9.178-1.176a16.239,16.239,0,0,0-2,4A2.093,2.093,0,0,0,153.626,373.109Z" transform="translate(-151.615 -226.943)" fill="#4d3c4b"/>
          <path id="Trazado_101079" data-name="Trazado 101079" d="M175.626,325.555,169.692,348.3s-17.634,33.127-17.963,40.542c0,0,2.307,3.3,13.348.494L178.1,354.724,188.315,330.5Z" transform="translate(-151.729 -247.896)" fill="#5b4f5a"/>
          <path id="Trazado_101080" data-name="Trazado 101080" d="M165.922,328.474,181,364.071l11.618,33.865s7.912-.248,11.374-4.7l-12.608-37.328-9.145-29.169.741-11.123Z" transform="translate(-144.496 -252.959)" fill="#5b4f5a"/>
          <path id="Trazado_101081" data-name="Trazado 101081" d="M171.546,289.2c0-.069,4.619,2.2,4.909,2.415a16.5,16.5,0,0,1,3.868,3.895,16.671,16.671,0,0,1,1.626,2.877,11.223,11.223,0,0,1,.759,4.44q-.052,2.812-.106,5.626-.111,5.693-.217,11.384c-.029,1.475-.057,2.945-.086,4.42-.041,2.2-1.217,2.9-3.046,4l-3.6,2.171q-2.3,1.388-4.6,2.775S171.546,289.242,171.546,289.2Z" transform="translate(-141.882 -266.424)" fill="#7a8ecb"/>
          <path id="Trazado_101082" data-name="Trazado 101082" d="M182.927,297.847a10.716,10.716,0,0,0-2.281-4.819c-2.011-2.5-5.223-4.545-8.552-4.017,0,0-10.053,2.142-8.4,19.118,0,0,3.033,22.739.358,34.481,1.722.334,14.76,2.313,18.759-13.224q.061-3.014.125-6.032.125-5.867.246-11.74c.03-1.484.109-2.978.083-4.461-.027-1.581-.038-3.167-.026-4.751A22.555,22.555,0,0,0,182.927,297.847Z" transform="translate(-145.727 -266.562)" fill="#4d3c4b"/>
          <path id="Trazado_101083" data-name="Trazado 101083" d="M173.155,291.167q-3.469,4.5-6.941,9c-2.526,3.277-5.583,6.2-7.578,9.864-1.556,2.861-1.635,5.717-1.9,8.878-.077.947-1.171,13.781-1.134,13.786l7.415.741,2.224-18.046,14.833-13.842S182.549,292.156,173.155,291.167Z" transform="translate(-149.754 -265.421)" fill="#4d3c4b"/>
          <path id="Trazado_101084" data-name="Trazado 101084" d="M164.8,308.424a.248.248,0,0,1-.174-.424l9.559-9.394a.248.248,0,0,1,.347.353l-9.56,9.394A.245.245,0,0,1,164.8,308.424Z" transform="translate(-145.192 -261.666)" fill="#fff"/>
          <path id="Trazado_101085" data-name="Trazado 101085" d="M169.8,288.3s5.643,2.491,7.5,4.654l1.236-3.708-8.733-2.308Z" transform="translate(-142.521 -267.577)" fill="#7a8ecb"/>
          <path id="Trazado_101086" data-name="Trazado 101086" d="M179.98,295.816a15.553,15.553,0,0,0-1.738-2.979,12.6,12.6,0,0,0-5.608-4.233c-.18-.074-3.126-.978-3.126-.957,0,.427-.012.854-.018,1.283a4.886,4.886,0,0,1-.05,1.692c-.181.441-.7.765-.945,1.2-.719,1.283,1.267,1.834,2.052,2.215l3.936,1.916q1.608.786,3.222,1.559c.6.291,1.173.623,1.76.933a1.677,1.677,0,0,1,.8,1.223c.068.272.075.74.3.918A10.714,10.714,0,0,0,179.98,295.816Z" transform="translate(-143.263 -267.215)" fill="#4d3c4b"/>
          <path id="Trazado_101087" data-name="Trazado 101087" d="M176.023,348.5a.247.247,0,0,1-.226-.151l-9.147-21.63a.247.247,0,0,1,.456-.192l9.145,21.63a.247.247,0,0,1-.13.323A.284.284,0,0,1,176.023,348.5Z" transform="translate(-144.135 -247.479)" fill="#fff"/>
        </g>
        <path id="Trazado_101088" data-name="Trazado 101088" d="M178.749,286.717c.18.134.383.136.605-.1.4-.424-.21-1.43-.226-1.9-.038-1.022-.2-2.678.755-3.379,1.072-.782,2.963-.137,4.192-.364,4.029-.744,4.657-6.685,1.5-8.993-.027.468-.008.966-.047,1.439-.041-.071-.392-.722-.344-.607,0,.2-.012-.178-.023-.242-1.325,1.443-5.217.888-7.027.728-2.966-.264-3.549,1.079-5.095,3.249-.566.8-.21.373-1.079.714a5.625,5.625,0,0,0-1.389.462,2.967,2.967,0,0,0-1.233,2.132c-.406,2.062,1.119,4.164-.069,6.087-.645,1.046-1.653,1.642-2,2.936-.359,1.321.326,3.1,1.99,2.521-.655,1.22.622.71,1.23.913.654.216.78.847,1.7.293.044.192.216.359.26.494.18-.22.649-.4.841-.62a.655.655,0,0,0,.151.219c.335.323,3.362-4.305,3.389-4.93.021-.457-.463-1.084-.645-1.484a4.833,4.833,0,0,1-.56-1.9.851.851,0,0,1,1.331-.782,2.249,2.249,0,0,1,.882,1.212C177.96,285.088,178.275,286.365,178.749,286.717Z" transform="translate(-143.86 -271.977)" fill="#a86060"/>
        <g id="Grupo_69217" data-name="Grupo 69217" transform="translate(32.499 12.786)">
          <path id="Trazado_101089" data-name="Trazado 101089" d="M174.463,282.284a.15.15,0,0,1-.145-.112c-.1-.368-.45-1.344-.939-1.431a.149.149,0,0,1,.053-.293c.761.137,1.134,1.5,1.174,1.65a.146.146,0,0,1-.106.18A.116.116,0,0,1,174.463,282.284Z" transform="translate(-173.257 -280.447)" fill="#894c4c"/>
          <path id="Trazado_101090" data-name="Trazado 101090" d="M174.17,281.253H173.4a.149.149,0,0,1,0-.3h.765a.149.149,0,0,1,0,.3Z" transform="translate(-173.257 -280.187)" fill="#894c4c"/>
        </g>
      </g>
      <g id="Grupo_69225" data-name="Grupo 69225" transform="translate(145.715 1.338)">
        <g id="Grupo_69223" data-name="Grupo 69223" transform="translate(0 1.886)">
          <path id="Trazado_101091" data-name="Trazado 101091" d="M251.306,289.529S260.2,292,257.98,311.9l-.99,27.191-3.585,1.36-3.212-46.846Z" transform="translate(-216.281 -266.256)" fill="#4d3c4b"/>
          <path id="Trazado_101092" data-name="Trazado 101092" d="M238.442,320.772c.761.424.672,1.7.942,2.465a5.186,5.186,0,0,0,1.421,2.227c-.652.688-2,.1-2.69-.338-.276,1.449-.486,3.53-1.342,4.8-1.552,2.305-1.636-.5-1.5-1.843.033.865-.5,2.793-1.176,3.267-.761-.584-.355-2.587-.11-3.383-.026.565-.669,2.814-1.415,2.672-.921-.177-.462-2.6-.226-3.142a2.668,2.668,0,0,1-.476,1.854c-.562-.531-.291-2.96-.242-3.794A16.55,16.55,0,0,1,232.54,321c.607-1.6,1.526-.953,2.966-.812,1.043.1,2.426-.1,3.169.7Z" transform="translate(-225.797 -250.758)" fill="#ff8f67"/>
          <g id="haed-2" data-name="haed" transform="translate(26.558)">
            <g id="Grupo_69222" data-name="Grupo 69222">
              <g id="Grupo_69219" data-name="Grupo 69219">
                <path id="Trazado_101093" data-name="Trazado 101093" d="M245.706,284.108c-.581-2.325-.648-5.169.835-7.193,2.332-3.188,8.332-3.825,11.133-1.033a8.345,8.345,0,0,1,2.3,6.632,4.934,4.934,0,0,0,1.3,3.982c.136.131.3.311.222.485s-.288.171-.459.214c-.546.137-.8.761-.879,1.315a22.933,22.933,0,0,1-.717,3.957,1.26,1.26,0,0,1-.507.714,1.5,1.5,0,0,1-.9.092c-1.028-.116-2.043-.287-3.057-.5a.645.645,0,0,0-.177.109,1.529,1.529,0,0,0-.311.743q-.7,3.089-1.393,6.182a36.227,36.227,0,0,0-7.264-4.453,9.519,9.519,0,0,0,1.449-7.147A17.967,17.967,0,0,1,245.706,284.108Z" transform="translate(-245.322 -274.113)" fill="#ff8f67"/>
                <path id="Trazado_101094" data-name="Trazado 101094" d="M254.044,288.178a.143.143,0,0,1-.05-.009c-.145-.051-3.576-1.291-4.42-4.1a.146.146,0,0,1,.1-.184.144.144,0,0,1,.184.1c.8,2.66,4.2,3.889,4.236,3.9a.149.149,0,0,1-.05.29Z" transform="translate(-243.158 -269.134)" fill="#894c4c"/>
              </g>
              <g id="Grupo_69221" data-name="Grupo 69221" transform="translate(12.331 8.733)">
                <g id="Grupo_69220" data-name="Grupo 69220">
                  <path id="Trazado_101095" data-name="Trazado 101095" d="M255.324,280.76a.413.413,0,0,1-.183.006,1.719,1.719,0,0,0-1.023.157.423.423,0,1,1-.406-.743,2.614,2.614,0,0,1,1.582-.248.425.425,0,0,1,.03.827Z" transform="translate(-253.49 -279.897)" fill="#a86060"/>
                  <path id="Trazado_101096" data-name="Trazado 101096" d="M254.779,281.283c.014.349-.112.637-.279.643s-.306-.275-.319-.625.116-.637.279-.643S254.768,280.936,254.779,281.283Z" transform="translate(-253.137 -279.51)" fill="#a86060"/>
                </g>
              </g>
            </g>
            <path id="Trazado_101097" data-name="Trazado 101097" d="M254.179,284.3a.114.114,0,0,1-.077-.029.119.119,0,0,1-.015-.168,1.265,1.265,0,0,1,1.313-.337.119.119,0,0,1,.086.145.113.113,0,0,1-.145.085,1.073,1.073,0,0,0-1.072.26A.117.117,0,0,1,254.179,284.3Z" transform="translate(-240.868 -269.221)" fill="#894c4c"/>
          </g>
          <path id="Trazado_101098" data-name="Trazado 101098" d="M232.016,317.736v3.956l6.3.494.372-4.573Z" transform="translate(-225.544 -251.944)" fill="#7a8ecb"/>
          <path id="Trazado_101099" data-name="Trazado 101099" d="M263.089,375.977l14.978-4.237c1.054-.3,1.656-1.119,1.35-1.836a2.86,2.86,0,0,0-2.533-1.236c-2.2-.024-5.75-.355-8.158-2.04l-8.528,3.584a16.178,16.178,0,0,0,.278,4.467A2.1,2.1,0,0,0,263.089,375.977Z" transform="translate(-211.206 -226.965)" fill="#4d3c4b"/>
          <path id="Trazado_101100" data-name="Trazado 101100" d="M229.626,373.109l15.089,3.845c1.058.27,1.993-.137,2.085-.913a2.852,2.852,0,0,0-1.57-2.338c-1.887-1.123-4.8-3.19-6.037-5.856l-9.177-1.176a16.238,16.238,0,0,0-2,4A2.1,2.1,0,0,0,229.626,373.109Z" transform="translate(-227.614 -226.943)" fill="#4d3c4b"/>
          <path id="Trazado_101101" data-name="Trazado 101101" d="M251.628,325.555,245.7,348.3s-17.634,33.127-17.966,40.542c0,0,2.311,3.3,13.35.494L254.1,354.724,264.316,330.5Z" transform="translate(-227.729 -247.896)" fill="#5b4f5a"/>
          <path id="Trazado_101102" data-name="Trazado 101102" d="M241.924,328.474,257,364.071l11.618,33.865s7.912-.248,11.372-4.7l-12.608-37.328-9.147-29.169.743-11.123Z" transform="translate(-220.495 -252.959)" fill="#5b4f5a"/>
          <path id="Trazado_101103" data-name="Trazado 101103" d="M247.549,289.2c0-.069,4.615,2.2,4.909,2.415a16.476,16.476,0,0,1,5.49,6.772,11.2,11.2,0,0,1,.761,4.44q-.052,2.812-.107,5.626-.106,5.693-.217,11.384c-.029,1.475-.057,2.945-.082,4.42-.044,2.2-1.22,2.9-3.049,4q-1.8,1.085-3.6,2.171-2.3,1.388-4.6,2.775S247.549,289.242,247.549,289.2Z" transform="translate(-217.881 -266.424)" fill="#7a8ecb"/>
          <path id="Trazado_101104" data-name="Trazado 101104" d="M258.929,297.847a10.744,10.744,0,0,0-2.28-4.819c-2.011-2.5-5.225-4.545-8.552-4.017,0,0-10.054,2.142-8.406,19.118,0,0,3.033,22.739.358,34.481,1.722.334,14.76,2.313,18.759-13.224q.061-3.014.127-6.032.125-5.867.245-11.74c.03-1.484.109-2.978.083-4.461-.027-1.581-.039-3.167-.027-4.751A22.445,22.445,0,0,0,258.929,297.847Z" transform="translate(-221.726 -266.562)" fill="#4d3c4b"/>
          <path id="Trazado_101105" data-name="Trazado 101105" d="M249.157,291.167l-6.941,9c-2.527,3.277-5.584,6.2-7.578,9.864-1.556,2.861-1.636,5.717-1.895,8.878-.078.947-1.173,13.781-1.137,13.786l7.417.741,2.224-18.046L256.08,301.55S258.552,292.156,249.157,291.167Z" transform="translate(-225.754 -265.421)" fill="#4d3c4b"/>
          <path id="Trazado_101106" data-name="Trazado 101106" d="M240.806,308.424a.249.249,0,0,1-.177-.074.246.246,0,0,1,0-.35l9.559-9.394a.247.247,0,0,1,.346.353l-9.559,9.394A.245.245,0,0,1,240.806,308.424Z" transform="translate(-221.191 -261.666)" fill="#fff"/>
          <path id="Trazado_101107" data-name="Trazado 101107" d="M245.8,288.3s5.643,2.491,7.5,4.654l1.235-3.708-8.733-2.308Z" transform="translate(-218.52 -267.577)" fill="#7a8ecb"/>
          <path id="Trazado_101108" data-name="Trazado 101108" d="M255.982,295.816a15.633,15.633,0,0,0-1.738-2.979,12.6,12.6,0,0,0-5.608-4.233c-.18-.074-3.126-.978-3.126-.957q-.009.641-.017,1.283a4.922,4.922,0,0,1-.051,1.692c-.181.441-.7.765-.945,1.2-.719,1.283,1.268,1.834,2.052,2.215q1.968.96,3.936,1.916c1.072.524,2.148,1.042,3.22,1.559.6.291,1.174.623,1.762.933a1.677,1.677,0,0,1,.8,1.223c.066.272.077.74.3.918A10.757,10.757,0,0,0,255.982,295.816Z" transform="translate(-219.262 -267.215)" fill="#4d3c4b"/>
          <path id="Trazado_101109" data-name="Trazado 101109" d="M252.024,348.5a.247.247,0,0,1-.226-.151l-9.147-21.63a.247.247,0,0,1,.456-.192l9.145,21.63a.246.246,0,0,1-.131.323A.269.269,0,0,1,252.024,348.5Z" transform="translate(-220.135 -247.479)" fill="#fff"/>
        </g>
        <path id="Trazado_101110" data-name="Trazado 101110" d="M254.751,286.265c.18.134.383.136.6-.1.4-.424-.208-1.43-.223-1.9-.039-1.022-.205-2.678.755-3.379,1.931-1.411,4.917.232,6.429,1.44a8.827,8.827,0,0,0-.261-3.007,11.59,11.59,0,0,0,.879,1.78c-.017-.433-.083-.874-.11-1.282a3.773,3.773,0,0,0,.574.313,6.675,6.675,0,0,0-.723-4.064c-1.4-2.346-4.42-2.7-6.928-3.063-3.481-.5-4.766.37-6.706,3.093-.565.8-.21.373-1.079.714a5.7,5.7,0,0,0-1.39.462,2.966,2.966,0,0,0-1.232,2.132c-.406,2.062,1.119,4.164-.071,6.087-.643,1.046-1.652,1.642-2,2.936-.358,1.321.328,3.1,1.991,2.521-.655,1.22.622.709,1.229.913.655.216.782.847,1.7.293.047.192.216.359.26.494.18-.22.648-.4.841-.62a.673.673,0,0,0,.149.219c.338.323,3.363-4.305,3.391-4.93.021-.457-.462-1.084-.645-1.484a4.861,4.861,0,0,1-.562-1.9.852.852,0,0,1,1.333-.782,2.267,2.267,0,0,1,.883,1.212C253.96,284.636,254.279,285.914,254.751,286.265Z" transform="translate(-219.86 -272.863)" fill="#a86060"/>
        <g id="Grupo_69224" data-name="Grupo 69224" transform="translate(32.502 11.448)">
          <path id="Trazado_101111" data-name="Trazado 101111" d="M250.467,282.284a.15.15,0,0,1-.145-.112c-.1-.368-.453-1.344-.94-1.431a.149.149,0,0,1,.053-.293c.759.137,1.135,1.5,1.176,1.65a.148.148,0,0,1-.107.18A.1.1,0,0,1,250.467,282.284Z" transform="translate(-249.259 -280.447)" fill="#894c4c"/>
          <path id="Trazado_101112" data-name="Trazado 101112" d="M250.172,281.253h-.765a.149.149,0,0,1,0-.3h.765a.149.149,0,0,1,0,.3Z" transform="translate(-249.259 -280.187)" fill="#894c4c"/>
        </g>
      </g>
      <g id="cascet" transform="translate(13.021 39.786)">
        <path id="Trazado_101113" data-name="Trazado 101113" d="M167.13,301.638a3.493,3.493,0,0,1,3.946-3.3l68.408,4.284c2.181.139,3.948,1.428,3.948,2.885v2.637l-76.3-2.968Z" transform="translate(-125.918 -298.332)" fill="#aa6868"/>
        <path id="Trazado_101114" data-name="Trazado 101114" d="M151.464,305.618a4.715,4.715,0,0,1,4.939-4.748l163.9,6.528a5.19,5.19,0,0,1,4.939,5.143v5.684l-173.781-2.717Z" transform="translate(-133.901 -297.041)" fill="#b57878"/>
        <rect id="Rectángulo_5407" data-name="Rectángulo 5407" width="199.245" height="39.306" transform="translate(3.954 25.191)" fill="#b57878"/>
        <rect id="Rectángulo_5408" data-name="Rectángulo 5408" width="198.997" height="12.608" transform="translate(3.954 13.819)" fill="#b57878"/>
        <rect id="Rectángulo_5409" data-name="Rectángulo 5409" width="199.245" height="2.147" transform="translate(3.954 25.191)" fill="#aa6868"/>
        <rect id="Rectángulo_5410" data-name="Rectángulo 5410" width="199.245" height="2.144" transform="translate(3.954 13.327)" fill="#aa6868"/>
        <rect id="Rectángulo_5411" data-name="Rectángulo 5411" width="31.888" height="7.663" rx="1.965" transform="translate(0 18.764)" fill="#b57878"/>
        <rect id="Rectángulo_5412" data-name="Rectángulo 5412" width="31.888" height="7.663" rx="1.965" transform="translate(175.019 18.764)" fill="#b57878"/>
        <rect id="Rectángulo_5413" data-name="Rectángulo 5413" width="195.537" height="3.461" transform="translate(6.92 61.036)" fill="#aa6868"/>
        <rect id="Rectángulo_5414" data-name="Rectángulo 5414" width="31.889" height="7.663" rx="1.965" transform="translate(1.235 59.553)" fill="#b57878"/>
        <path id="Rectángulo_5415" data-name="Rectángulo 5415" d="M1.965,0h27.96a1.965,1.965,0,0,1,1.965,1.965V5.7a1.965,1.965,0,0,1-1.965,1.965H1.966A1.966,1.966,0,0,1,0,5.7V1.965A1.965,1.965,0,0,1,1.965,0Z" transform="translate(172.959 59.553)" fill="#b57878"/>
      </g>
      <g id="Grupo_69231" data-name="Grupo 69231" transform="translate(0 2.782)">
        <path id="Trazado_101115" data-name="Trazado 101115" d="M176.449,321.64a3.613,3.613,0,0,1,.311,2.8c-.13.66-.012,2.521-.637,2.722-1.069.34-1.537-1.383-1.713-2.062-.264-1.013-.287-2.1-1.5-2.4.646-.882,3.3-2.385,3.62-.562Z" transform="translate(-109.95 -249.637)" fill="#ff8f67"/>
        <g id="Grupo_69226" data-name="Grupo 69226" transform="translate(53.067 73.485)">
          <path id="Trazado_101116" data-name="Trazado 101116" d="M180.926,325.01a2.776,2.776,0,0,1-2.966,2.514h-6.016a2.547,2.547,0,1,1,0-5.026h6.016A2.775,2.775,0,0,1,180.926,325.01Z" transform="translate(-165.022 -322.498)" fill="#8e5757"/>
          <path id="Trazado_101117" data-name="Trazado 101117" d="M168.772,329.274h-1.978v-2.553a2.971,2.971,0,0,1,2.968-2.968h12.771a2.97,2.97,0,0,1,2.965,2.968v2.388h-1.978v-2.388a.988.988,0,0,0-.987-.989H169.762a.99.99,0,0,0-.99.989Z" transform="translate(-166.135 -321.858)" fill="#8e5757"/>
          <circle id="Elipse_4630" data-name="Elipse 4630" cx="1.731" cy="1.731" r="1.731" transform="translate(0 6.344)" fill="#8e5757"/>
          <path id="Trazado_101118" data-name="Trazado 101118" d="M177.384,328.432a1.73,1.73,0,1,1,1.729,1.73A1.73,1.73,0,0,1,177.384,328.432Z" transform="translate(-160.738 -320.357)" fill="#8e5757"/>
        </g>
        <path id="Trazado_101119" data-name="Trazado 101119" d="M154.78,289.966s8.9,2.471,6.673,22.371l-.987,27.191-3.585,1.36-3.212-46.844Z" transform="translate(-119.758 -265.592)" fill="#4d3c4b"/>
        <path id="Trazado_101120" data-name="Trazado 101120" d="M169.06,320.9c.956,1.692.394,3.664,1.759,5.164.3.326,1.638,2.2,1.819,2.257,1.578.474.666-1.79.651-2.257-.078-2.575,3.146-.886,4.671-1.576,1.751-.8-1.022-3.622-2.068-4.485-1.153-.95-2.423-2.272-3.77-1.482-.944.554-2.264,2.714-3.062,2.751Z" transform="translate(-111.913 -251.163)" fill="#ff8f67"/>
        <path id="Trazado_101121" data-name="Trazado 101121" d="M141.917,321.209c.761.424.67,1.7.94,2.464a5.194,5.194,0,0,0,1.422,2.227c-.652.688-2.006.1-2.692-.335-.273,1.448-.483,3.525-1.339,4.8-1.555,2.305-1.638-.5-1.5-1.84.035.863-.5,2.788-1.174,3.264-.762-.584-.355-2.586-.112-3.383-.026.565-.669,2.817-1.415,2.672-.919-.175-.459-2.6-.226-3.14a2.64,2.64,0,0,1-.474,1.852c-.562-.53-.293-2.959-.243-3.792a16.577,16.577,0,0,1,.915-4.559c.6-1.6,1.525-.953,2.966-.814,1.042.1,2.423-.1,3.166.705Z" transform="translate(-129.274 -250.094)" fill="#ff8f67"/>
        <g id="haed-3" data-name="haed" transform="translate(25.245)">
          <g id="Grupo_69230" data-name="Grupo 69230">
            <g id="Grupo_69227" data-name="Grupo 69227">
              <path id="Trazado_101122" data-name="Trazado 101122" d="M149.181,284.544c-.581-2.323-.649-5.167.835-7.193,2.332-3.187,8.332-3.825,11.135-1.031a8.349,8.349,0,0,1,2.3,6.632,4.932,4.932,0,0,0,1.3,3.984c.137.13.3.308.225.48s-.291.172-.46.217c-.545.137-.8.761-.879,1.315a22.66,22.66,0,0,1-.719,3.955,1.252,1.252,0,0,1-.506.714,1.479,1.479,0,0,1-.9.091c-1.027-.115-2.044-.285-3.057-.5a.624.624,0,0,0-.177.109,1.507,1.507,0,0,0-.311.744q-.7,3.089-1.395,6.18a36.2,36.2,0,0,0-7.261-4.453,9.529,9.529,0,0,0,1.448-7.147A17.952,17.952,0,0,1,149.181,284.544Z" transform="translate(-147.485 -273.448)" fill="#ff8f67"/>
              <path id="Trazado_101123" data-name="Trazado 101123" d="M163.489,279.372a3.207,3.207,0,0,0,2.376-2.218,4.9,4.9,0,0,0-.255-3.335,4.13,4.13,0,0,1-3.652,1.442.89.89,0,0,0,1.054-.67,3.573,3.573,0,0,1-1.25.423c.14-.112.279-.226.421-.337-2.349.509-4.781-.589-7.168-.325a6.307,6.307,0,0,0-3.7,1.825,6.814,6.814,0,0,0-1.245,1.689c-.269.524-.3,1.316-.6,1.781-.309.488-.891.711-1.182,1.28a3.816,3.816,0,0,0-.356,1.611,7.722,7.722,0,0,0,.74,3.321c.808,1.828,1.973,3.611,1.973,5.61.359-.5,1.445-.251,2.083-.56.175-.083,1.818-1.2,1.7-1.333a1.982,1.982,0,0,1,.148.189c.157-.109,1.248-1.18,1.055-1.407a.68.68,0,0,1,.143.563,3.879,3.879,0,0,0,1.4-1.473,1.116,1.116,0,0,0,.159-.512,1.363,1.363,0,0,0-.2-.595,4,4,0,0,1-.512-2.045,1.174,1.174,0,0,1,.229-.667,1.045,1.045,0,0,1,1.531.16,3.036,3.036,0,0,1,.5,1.658,5.5,5.5,0,0,1,2.017-3.591c1.054-.78,1.679-1.6,1.227-2.985a1.282,1.282,0,0,0,1.632.669,2.62,2.62,0,0,0,1.36-1.35Z" transform="translate(-147.928 -273.82)" fill="#a86060"/>
              <path id="Trazado_101124" data-name="Trazado 101124" d="M157.519,288.613a.145.145,0,0,1-.05-.009c-.145-.051-3.575-1.289-4.42-4.094a.149.149,0,0,1,.285-.085c.8,2.66,4.2,3.887,4.234,3.9a.149.149,0,0,1,.091.19A.151.151,0,0,1,157.519,288.613Z" transform="translate(-145.321 -268.469)" fill="#894c4c"/>
              <path id="Trazado_101125" data-name="Trazado 101125" d="M155.267,282.445a.148.148,0,0,1-.143-.112c-.1-.368-.451-1.345-.939-1.43a.149.149,0,0,1,.051-.293c.762.133,1.135,1.495,1.176,1.648a.146.146,0,0,1-.107.18A.1.1,0,0,1,155.267,282.445Z" transform="translate(-144.802 -270.36)" fill="#894c4c"/>
              <path id="Trazado_101126" data-name="Trazado 101126" d="M154.975,281.415h-.765a.149.149,0,0,1,0-.3h.765a.149.149,0,0,1,0,.3Z" transform="translate(-144.802 -270.101)" fill="#894c4c"/>
            </g>
            <g id="Grupo_69229" data-name="Grupo 69229" transform="translate(13.642 9.833)">
              <g id="Grupo_69228" data-name="Grupo 69228">
                <path id="Trazado_101127" data-name="Trazado 101127" d="M158.8,281.195a.356.356,0,0,1-.183.008,1.736,1.736,0,0,0-1.024.159.424.424,0,0,1-.409-.743,2.642,2.642,0,0,1,1.584-.249.424.424,0,0,1,.341.494A.419.419,0,0,1,158.8,281.195Z" transform="translate(-156.965 -280.334)" fill="#a86060"/>
                <path id="Trazado_101128" data-name="Trazado 101128" d="M158.255,281.718c.011.349-.115.64-.281.643s-.308-.272-.319-.622.115-.639.281-.643S158.243,281.369,158.255,281.718Z" transform="translate(-156.612 -279.945)" fill="#a86060"/>
              </g>
            </g>
          </g>
          <path id="Trazado_101129" data-name="Trazado 101129" d="M157.652,284.733a.133.133,0,0,1-.077-.027.121.121,0,0,1-.014-.169,1.287,1.287,0,0,1,1.313-.335.119.119,0,1,1-.06.229,1.056,1.056,0,0,0-1.07.26A.123.123,0,0,1,157.652,284.733Z" transform="translate(-143.033 -268.556)" fill="#894c4c"/>
        </g>
        <path id="Trazado_101130" data-name="Trazado 101130" d="M167.422,320.081l2.225,2.968,5.191-3.955-2.347-3.338Z" transform="translate(-112.748 -252.449)" fill="#7a8ecb"/>
        <path id="Trazado_101131" data-name="Trazado 101131" d="M135.49,318.173v3.954l6.3.5.372-4.573Z" transform="translate(-129.021 -251.28)" fill="#7a8ecb"/>
        <path id="Trazado_101132" data-name="Trazado 101132" d="M159.054,296.516l10.877,18.292,9.146,12.238-6.51,4.9-15.161-22.907Z" transform="translate(-117.852 -262.254)" fill="#4d3c4b"/>
        <path id="Trazado_101133" data-name="Trazado 101133" d="M166.563,376.414l14.981-4.237c1.051-.3,1.655-1.12,1.347-1.837a2.863,2.863,0,0,0-2.532-1.235c-2.2-.024-5.752-.353-8.16-2.039l-8.529,3.585a16.223,16.223,0,0,0,.281,4.464A2.1,2.1,0,0,0,166.563,376.414Z" transform="translate(-114.683 -226.301)" fill="#4d3c4b"/>
        <path id="Trazado_101134" data-name="Trazado 101134" d="M133.1,373.546l15.084,3.845c1.06.27,1.994-.14,2.088-.913a2.86,2.86,0,0,0-1.572-2.337c-1.889-1.123-4.8-3.194-6.037-5.859l-9.177-1.176a16.232,16.232,0,0,0-2,4.007A2.1,2.1,0,0,0,133.1,373.546Z" transform="translate(-131.091 -226.28)" fill="#4d3c4b"/>
        <path id="Trazado_101135" data-name="Trazado 101135" d="M155.1,325.99l-5.933,22.745s-17.634,33.123-17.964,40.539c0,0,2.307,3.3,13.35.494l13.019-34.607,10.219-24.226Z" transform="translate(-131.205 -247.233)" fill="#5b4f5a"/>
        <path id="Trazado_101136" data-name="Trazado 101136" d="M145.4,328.911l15.08,35.6,11.617,33.867s7.91-.246,11.372-4.695L170.859,356.35l-9.147-29.17.741-11.123Z" transform="translate(-123.972 -252.295)" fill="#5b4f5a"/>
        <path id="Trazado_101137" data-name="Trazado 101137" d="M151.023,289.64c0-.071,4.618,2.2,4.908,2.411a16.531,16.531,0,0,1,3.871,3.9,16.88,16.88,0,0,1,1.624,2.879,11.144,11.144,0,0,1,.759,4.437q-.052,2.812-.106,5.629-.109,5.691-.219,11.383c-.026,1.472-.056,2.947-.085,4.417-.042,2.2-1.215,2.9-3.046,4q-1.8,1.082-3.6,2.169-2.3,1.386-4.6,2.775S151.023,289.679,151.023,289.64Z" transform="translate(-121.357 -265.759)" fill="#7a8ecb"/>
        <path id="Trazado_101138" data-name="Trazado 101138" d="M162.4,298.283a10.766,10.766,0,0,0-2.28-4.819c-2.011-2.5-5.225-4.547-8.553-4.016,0,0-10.053,2.142-8.4,19.118,0,0,3.031,22.739.358,34.483,1.721.334,14.76,2.31,18.759-13.224q.061-3.016.127-6.034.122-5.872.245-11.739c.029-1.487.109-2.979.081-4.466-.026-1.576-.036-3.164-.024-4.749A22.685,22.685,0,0,0,162.4,298.283Z" transform="translate(-125.202 -265.898)" fill="#4d3c4b"/>
        <path id="Trazado_101139" data-name="Trazado 101139" d="M152.632,291.6q-3.469,4.5-6.941,9c-2.527,3.276-5.584,6.2-7.578,9.865-1.556,2.859-1.635,5.717-1.895,8.877-.08.948-1.173,13.783-1.137,13.786l7.417.741,2.224-18.046,14.834-13.843S162.026,292.592,152.632,291.6Z" transform="translate(-129.23 -264.757)" fill="#4d3c4b"/>
        <path id="Trazado_101140" data-name="Trazado 101140" d="M144.28,308.86a.244.244,0,0,1-.175-.072.248.248,0,0,1,0-.352l9.559-9.393a.246.246,0,0,1,.349,0,.249.249,0,0,1,0,.35l-9.559,9.394A.247.247,0,0,1,144.28,308.86Z" transform="translate(-124.667 -261.002)" fill="#fff"/>
        <path id="Trazado_101141" data-name="Trazado 101141" d="M149.273,288.732s5.644,2.494,7.5,4.656l1.236-3.708-8.735-2.307Z" transform="translate(-121.997 -266.913)" fill="#7a8ecb"/>
        <path id="Trazado_101142" data-name="Trazado 101142" d="M159.456,296.252a15.536,15.536,0,0,0-1.736-2.977,12.582,12.582,0,0,0-5.608-4.233c-.18-.074-3.126-.978-3.126-.96,0,.429-.012.857-.018,1.286a4.965,4.965,0,0,1-.048,1.692c-.183.439-.7.767-.947,1.2-.72,1.282,1.268,1.833,2.052,2.215q1.968.958,3.936,1.919,1.608.781,3.222,1.559c.6.29,1.173.619,1.759.931a1.667,1.667,0,0,1,.8,1.223c.068.272.077.738.3.918A10.723,10.723,0,0,0,159.456,296.252Z" transform="translate(-122.739 -266.552)" fill="#4d3c4b"/>
        <path id="Trazado_101143" data-name="Trazado 101143" d="M155.5,348.934a.248.248,0,0,1-.228-.152l-9.147-21.63a.247.247,0,1,1,.454-.192l9.148,21.63a.247.247,0,0,1-.131.323A.242.242,0,0,1,155.5,348.934Z" transform="translate(-123.611 -246.816)" fill="#fff"/>
        <path id="Trazado_101144" data-name="Trazado 101144" d="M163.92,371.688a.246.246,0,0,1-.232-.163l-6.759-18.292a.247.247,0,0,1,.146-.317.251.251,0,0,1,.319.146l6.757,18.292a.245.245,0,0,1-.146.317A.234.234,0,0,1,163.92,371.688Z" transform="translate(-118.103 -233.519)" fill="#fff"/>
        <path id="Trazado_101145" data-name="Trazado 101145" d="M167.867,359.642a.249.249,0,0,1-.234-.169l-5.521-16.562a.247.247,0,0,1,.157-.312.244.244,0,0,1,.312.156l5.519,16.562a.245.245,0,0,1-.155.313A.239.239,0,0,1,167.867,359.642Z" transform="translate(-115.46 -238.777)" fill="#fff"/>
      </g>
      <g id="Grupo_69242" data-name="Grupo 69242" transform="translate(165.133 1.634)">
        <path id="Trazado_101146" data-name="Trazado 101146" d="M285.182,316.82c.545.773,2.138.833,2.994,1.33,1.193.691,1.928,1.481,3.413,1.41.072,1.529-2.073,1.185-3.051,1.235-.03.891,1.461,2.424,2.055,3.1a17.608,17.608,0,0,1,2.362,2.536c-1.1.633-2.82-.812-3.68-1.431.741.771,1.917,1.594,2.2,2.678-.953.205-2.651-1.073-3.4-1.6.753.6,2,1.377,2.039,2.471-1,.223-2.417-1.025-3-1.673.587.362,1.348.856,1.393,1.549-1.843.106-3.955-2.6-4.894-3.963a52.237,52.237,0,0,1-2.615-5.287c1.153-.723,2.983-2.04,4.274-2.308Z" transform="translate(-220.004 -250.759)" fill="#ff8f67"/>
        <path id="Trazado_101147" data-name="Trazado 101147" d="M279.837,320.912l1.729,1.359,5.191-4.2-3.83-3.214Z" transform="translate(-220.592 -251.76)" fill="#7a8ecb"/>
        <g id="Grupo_69240" data-name="Grupo 69240">
          <path id="Trazado_101148" data-name="Trazado 101148" d="M251.441,319.643a3.613,3.613,0,0,0-.166,2.064c.169.528.652.82.933,1.294.343.577.322,1.218.8,1.757.344.389,1.646.939.58,1.23-.619.171-.978-.46-1.478-.66a5.132,5.132,0,0,0-2.068-.168,19.03,19.03,0,0,1-4.032.168,4.416,4.416,0,0,0-.565-.014,4.662,4.662,0,0,1,.172-3.445,22.5,22.5,0,0,0,.981-4.6c.839-.044,1.892.924,2.627,1.306a24.564,24.564,0,0,1,2.379,1.011c-.033.078-.1.068-.159.142Z" transform="translate(-238.259 -250.532)" fill="#ff8f67"/>
          <path id="Trazado_101149" data-name="Trazado 101149" d="M247.057,315.675l-1.608,3.089,6.182,2.6,1.975-4.2Z" transform="translate(-238.117 -251.342)" fill="#7a8ecb"/>
          <g id="Grupo_69232" data-name="Grupo 69232" transform="translate(0 74.633)">
            <path id="Trazado_101150" data-name="Trazado 101150" d="M255.158,325.01a2.776,2.776,0,0,1-2.966,2.514h-6.014a2.547,2.547,0,1,1,0-5.026h6.014A2.775,2.775,0,0,1,255.158,325.01Z" transform="translate(-239.257 -322.498)" fill="#8e5757"/>
            <path id="Trazado_101151" data-name="Trazado 101151" d="M243,329.274h-1.976v-2.553a2.97,2.97,0,0,1,2.965-2.968h12.773a2.969,2.969,0,0,1,2.965,2.968v2.388h-1.976v-2.388a.989.989,0,0,0-.989-.989H243.993a.989.989,0,0,0-.989.989Z" transform="translate(-240.37 -321.858)" fill="#8e5757"/>
            <path id="Trazado_101152" data-name="Trazado 101152" d="M240.592,328.432a1.73,1.73,0,1,1,1.73,1.73A1.729,1.729,0,0,1,240.592,328.432Z" transform="translate(-240.592 -320.357)" fill="#8e5757"/>
            <circle id="Elipse_4631" data-name="Elipse 4631" cx="1.731" cy="1.731" r="1.731" transform="translate(16.644 6.344)" fill="#8e5757"/>
          </g>
          <path id="Trazado_101153" data-name="Trazado 101153" d="M267.324,291.85s-12.607,16.808-14.832,21.382l-6.8,15.573,7.168,3.336,9.89-18.538,9.64-14.092Z" transform="translate(-237.992 -263.484)" fill="#4d3c4b"/>
          <g id="Grupo_69239" data-name="Grupo 69239" transform="translate(7.58)">
            <g id="Grupo_69238" data-name="Grupo 69238" transform="translate(0 2.248)">
              <path id="Trazado_101154" data-name="Trazado 101154" d="M269.187,289.966s8.9,2.471,6.674,22.371l-.989,27.191-3.584,1.36-3.214-46.844Z" transform="translate(-234.166 -266.692)" fill="#4d3c4b"/>
              <g id="haed-4" data-name="haed" transform="translate(26.555)">
                <g id="Grupo_69236" data-name="Grupo 69236">
                  <g id="Grupo_69233" data-name="Grupo 69233">
                    <path id="Trazado_101155" data-name="Trazado 101155" d="M263.586,284.544c-.578-2.323-.646-5.167.838-7.193,2.332-3.187,8.33-3.825,11.133-1.031a8.348,8.348,0,0,1,2.3,6.632,4.943,4.943,0,0,0,1.3,3.984c.137.13.3.308.225.48s-.288.172-.46.217c-.545.137-.8.761-.879,1.315a22.945,22.945,0,0,1-.717,3.955,1.246,1.246,0,0,1-.506.714,1.482,1.482,0,0,1-.9.091c-1.03-.115-2.047-.285-3.057-.5a.611.611,0,0,0-.178.109,1.522,1.522,0,0,0-.312.744q-.7,3.089-1.393,6.18a36.2,36.2,0,0,0-7.261-4.453,9.535,9.535,0,0,0,1.448-7.147A18.171,18.171,0,0,1,263.586,284.544Z" transform="translate(-263.204 -274.549)" fill="#ff8f67"/>
                    <path id="Trazado_101156" data-name="Trazado 101156" d="M271.924,288.613a.145.145,0,0,1-.05-.009c-.145-.051-3.575-1.289-4.417-4.094a.147.147,0,0,1,.1-.184.15.15,0,0,1,.186.1c.8,2.66,4.2,3.887,4.233,3.9a.148.148,0,0,1-.05.288Z" transform="translate(-261.04 -269.569)" fill="#894c4c"/>
                  </g>
                  <g id="Grupo_69235" data-name="Grupo 69235" transform="translate(12.33 8.733)">
                    <g id="Grupo_69234" data-name="Grupo 69234">
                      <path id="Trazado_101157" data-name="Trazado 101157" d="M273.208,281.195a.363.363,0,0,1-.184.008,1.74,1.74,0,0,0-1.024.159.423.423,0,1,1-.406-.743,2.621,2.621,0,0,1,1.582-.249.422.422,0,0,1,.338.494A.414.414,0,0,1,273.208,281.195Z" transform="translate(-271.372 -280.334)" fill="#a86060"/>
                      <path id="Trazado_101158" data-name="Trazado 101158" d="M272.661,281.718c.014.349-.113.64-.279.643s-.306-.272-.319-.622.116-.639.279-.643S272.65,281.369,272.661,281.718Z" transform="translate(-271.019 -279.945)" fill="#a86060"/>
                    </g>
                  </g>
                </g>
                <path id="Trazado_101159" data-name="Trazado 101159" d="M272.059,284.734a.125.125,0,0,1-.076-.027.12.12,0,0,1-.015-.169,1.277,1.277,0,0,1,1.315-.335.118.118,0,1,1-.059.229,1.053,1.053,0,0,0-1.073.26A.123.123,0,0,1,272.059,284.734Z" transform="translate(-258.751 -269.657)" fill="#894c4c"/>
                <g id="Grupo_69237" data-name="Grupo 69237" transform="translate(6.023 10.021)">
                  <path id="Trazado_101160" data-name="Trazado 101160" d="M268.077,282.183a.191.191,0,0,1-.041-.006l-.735-.21a.151.151,0,0,1-.1-.184.153.153,0,0,1,.184-.1l.735.208a.149.149,0,0,1-.041.293Z" transform="translate(-267.194 -280.937)" fill="#894c4c"/>
                  <path id="Trazado_101161" data-name="Trazado 101161" d="M268.073,283.257h0a.151.151,0,0,1-.145-.153c.009-.382-.063-1.417-.507-1.636a.147.147,0,0,1-.069-.2.151.151,0,0,1,.2-.068c.693.338.678,1.748.673,1.91A.149.149,0,0,1,268.073,283.257Z" transform="translate(-267.123 -281.187)" fill="#894c4c"/>
                </g>
              </g>
              <path id="Trazado_101162" data-name="Trazado 101162" d="M280.97,376.414l14.98-4.237c1.054-.3,1.656-1.12,1.35-1.837a2.868,2.868,0,0,0-2.533-1.235c-2.2-.024-5.75-.353-8.158-2.039l-8.529,3.585a16.154,16.154,0,0,0,.281,4.464A2.093,2.093,0,0,0,280.97,376.414Z" transform="translate(-229.091 -227.401)" fill="#4d3c4b"/>
              <path id="Trazado_101163" data-name="Trazado 101163" d="M247.51,373.546l15.087,3.845c1.06.27,1.994-.14,2.085-.913a2.853,2.853,0,0,0-1.568-2.337c-1.889-1.123-4.8-3.194-6.038-5.859l-9.175-1.176a16.209,16.209,0,0,0-2,4.007A2.1,2.1,0,0,0,247.51,373.546Z" transform="translate(-245.499 -227.38)" fill="#4d3c4b"/>
              <path id="Trazado_101164" data-name="Trazado 101164" d="M269.51,325.99l-5.931,22.745s-17.635,33.123-17.966,40.539c0,0,2.307,3.3,13.348.494l13.02-34.607L282.2,330.936Z" transform="translate(-245.613 -248.334)" fill="#5b4f5a"/>
              <path id="Trazado_101165" data-name="Trazado 101165" d="M259.8,328.911l15.078,35.6,11.62,33.867s7.91-.246,11.37-4.695L285.266,356.35l-9.145-29.17.74-11.123Z" transform="translate(-238.38 -253.396)" fill="#5b4f5a"/>
              <path id="Trazado_101166" data-name="Trazado 101166" d="M265.432,289.64c0-.071,4.616,2.2,4.909,2.411a16.456,16.456,0,0,1,5.491,6.777,11.175,11.175,0,0,1,.762,4.437q-.052,2.812-.107,5.629-.109,5.691-.217,11.383c-.029,1.472-.059,2.947-.083,4.417-.045,2.2-1.22,2.9-3.049,4l-3.6,2.169q-2.3,1.386-4.6,2.775S265.432,289.679,265.432,289.64Z" transform="translate(-235.766 -266.859)" fill="#7a8ecb"/>
              <path id="Trazado_101167" data-name="Trazado 101167" d="M276.808,298.283a10.719,10.719,0,0,0-2.28-4.819c-2.009-2.5-5.223-4.547-8.551-4.016,0,0-10.054,2.142-8.4,19.118,0,0,3.028,22.739.355,34.483,1.724.334,14.758,2.31,18.76-13.224q.061-3.016.125-6.034.122-5.872.243-11.739c.032-1.487.11-2.979.083-4.466-.026-1.576-.036-3.164-.024-4.749A22.576,22.576,0,0,0,276.808,298.283Z" transform="translate(-239.61 -266.999)" fill="#4d3c4b"/>
              <path id="Trazado_101168" data-name="Trazado 101168" d="M263.68,288.732s5.646,2.494,7.5,4.656l1.238-3.708-8.736-2.307Z" transform="translate(-236.406 -268.014)" fill="#7a8ecb"/>
              <path id="Trazado_101169" data-name="Trazado 101169" d="M273.864,296.252a15.713,15.713,0,0,0-1.739-2.977,12.569,12.569,0,0,0-5.607-4.233c-.178-.074-3.126-.978-3.126-.96l-.018,1.286a4.928,4.928,0,0,1-.05,1.692c-.18.439-.7.767-.945,1.2-.719,1.282,1.268,1.833,2.05,2.215q1.97.958,3.939,1.919,1.608.781,3.22,1.559c.6.29,1.173.619,1.762.931a1.672,1.672,0,0,1,.8,1.223c.068.272.077.738.3.918A10.767,10.767,0,0,0,273.864,296.252Z" transform="translate(-237.147 -267.652)" fill="#4d3c4b"/>
              <path id="Trazado_101170" data-name="Trazado 101170" d="M269.907,348.934a.248.248,0,0,1-.228-.152l-9.145-21.63a.247.247,0,0,1,.456-.192l9.145,21.63a.247.247,0,0,1-.131.323A.242.242,0,0,1,269.907,348.934Z" transform="translate(-238.019 -247.916)" fill="#fff"/>
            </g>
            <path id="Trazado_101171" data-name="Trazado 101171" d="M258.8,317.6a.248.248,0,0,1-.248-.248,54.39,54.39,0,0,0-.7-7.35c-.838-6.008-1.706-12.222,1.738-17.223a.247.247,0,1,1,.408.281c-3.335,4.843-2.48,10.96-1.656,16.875a54.669,54.669,0,0,1,.708,7.418A.247.247,0,0,1,258.8,317.6Z" transform="translate(-239.763 -263.067)" fill="#fff"/>
            <path id="Trazado_101172" data-name="Trazado 101172" d="M278.571,276.733a8.61,8.61,0,0,0-4-3.119c-3.523-1.339-7.435-.134-10.219,2.341a9.316,9.316,0,0,0-2.6,9.36c.687,2.163,2.2,3.827,2.263,6.15-.012.347.01.7.033,1.049a4.25,4.25,0,0,0,.832-2.411c.332.9.094,2.373.16,3.442a5.06,5.06,0,0,0,2.3-1.128,9.87,9.87,0,0,0,1.428-2.044,8,8,0,0,0,1-3.736c.051-.61.963-2.488,1.573-1.315.314.6-.293,2.332,1.014,2.126a2.593,2.593,0,0,1,.3-2.443c.309-.485,1.488-1.656,1.416-2.246.032.261.053,1.967-.314,2.037,2.441-.454,5.875-3.469,5.512-6.224A4.446,4.446,0,0,0,278.571,276.733Z" transform="translate(-237.576 -273.06)" fill="#a86060"/>
          </g>
        </g>
        <g id="Grupo_69241" data-name="Grupo 69241" transform="translate(31.324 28.146)">
          <path id="Trazado_101173" data-name="Trazado 101173" d="M272.052,319.173a37.737,37.737,0,0,0,6.037,5.839l11.091,9.222,5.934-6.756-16.482-14.5q-2.4-5.423-4.813-10.845c-1.331-3-2.07-6.574-4.42-9.006-2.4-2.486-7.032-1.647-7.833,2.033a11,11,0,0,0,.684,6.586,105.371,105.371,0,0,0,9.292,16.743C271.709,318.723,271.879,318.95,272.052,319.173Z" transform="translate(-261.341 -291.704)" fill="#4d3c4b"/>
          <path id="Trazado_101174" data-name="Trazado 101174" d="M279.5,322.084a.251.251,0,0,1-.145-.047c-10.809-7.862-15.937-20.09-15.988-20.212a.248.248,0,0,1,.134-.323.245.245,0,0,1,.323.134c.05.121,5.128,12.225,15.821,20a.248.248,0,0,1-.145.448Z" transform="translate(-260.317 -286.721)" fill="#fff"/>
        </g>
        <path id="Trazado_101175" data-name="Trazado 101175" d="M256.912,368.482a.25.25,0,0,1-.232-.334l6.8-18.416a.248.248,0,0,1,.465.171l-6.8,18.416A.249.249,0,0,1,256.912,368.482Z" transform="translate(-232.401 -234.068)" fill="#fff"/>
        <path id="Trazado_101176" data-name="Trazado 101176" d="M252.983,354.773a.236.236,0,0,1-.109-.027.247.247,0,0,1-.113-.331l6.179-12.483a.247.247,0,1,1,.444.217l-6.179,12.485A.25.25,0,0,1,252.983,354.773Z" transform="translate(-234.403 -238.032)" fill="#fff"/>
      </g>
    </g>
  </g>
</svg>
