<svg xmlns="http://www.w3.org/2000/svg" width="228" height="183.079" viewBox="0 0 228 183.079">
  <g id="Grupo_69184" data-name="Grupo 69184" transform="translate(-325.281 -8.269)">
    <g id="Grupo_69184-2" data-name="Grupo 69184" transform="translate(325.281 8.269)">
      <path id="Trazado_101013" data-name="Trazado 101013" d="M539.3,99.807c0,50.555-47.91,91.54-107.01,91.54s-107.012-40.985-107.012-91.54S373.191,8.269,432.293,8.269,539.3,49.25,539.3,99.807Z" transform="translate(-325.281 -8.269)" fill="#f6e8db"/>
    </g>
    <g id="Grupo_69207" data-name="Grupo 69207" transform="translate(326.156 23.642)">
      <g id="Grupo_69189" data-name="Grupo 69189" transform="translate(29.555 18.144)">
        <g id="Grupo_69188" data-name="Grupo 69188">
          <g id="Grupo_69187" data-name="Grupo 69187">
            <rect id="Rectángulo_5393" data-name="Rectángulo 5393" width="194.313" height="4.351" transform="translate(1.561 47.724)" fill="#aa6868"/>
            <g id="Grupo_69186" data-name="Grupo 69186">
              <g id="cascet" transform="translate(0 49.868)">
                <rect id="Rectángulo_5394" data-name="Rectángulo 5394" width="190.252" height="37.531" transform="translate(3.542 11.331)" fill="#b57878"/>
                <rect id="Rectángulo_5395" data-name="Rectángulo 5395" width="190.017" height="12.037" transform="translate(3.777 0.473)" fill="#b57878"/>
                <rect id="Rectángulo_5396" data-name="Rectángulo 5396" width="190.252" height="2.05" transform="translate(3.542 11.331)" fill="#aa6868"/>
                <rect id="Rectángulo_5397" data-name="Rectángulo 5397" width="190.252" height="2.05" transform="translate(3.542)" fill="#aa6868"/>
                <path id="Rectángulo_5398" data-name="Rectángulo 5398" d="M1.965,0H28.486A1.965,1.965,0,0,1,30.45,1.965V5.352a1.966,1.966,0,0,1-1.966,1.966H1.966A1.966,1.966,0,0,1,0,5.352V1.965A1.965,1.965,0,0,1,1.965,0Z" transform="translate(167.12 5.193)" fill="#b57878"/>
                <path id="Rectángulo_5399" data-name="Rectángulo 5399" d="M1.965,0H28.486A1.965,1.965,0,0,1,30.45,1.965V5.352a1.966,1.966,0,0,1-1.966,1.966H1.966A1.966,1.966,0,0,1,0,5.352V1.965A1.965,1.965,0,0,1,1.965,0Z" transform="translate(0 5.193)" fill="#b57878"/>
                <rect id="Rectángulo_5400" data-name="Rectángulo 5400" width="186.713" height="3.305" transform="translate(4.249 45.557)" fill="#aa6868"/>
                <path id="Rectángulo_5401" data-name="Rectángulo 5401" d="M1.966,0h26.52a1.966,1.966,0,0,1,1.966,1.966V5.353a1.966,1.966,0,0,1-1.966,1.966H1.965A1.965,1.965,0,0,1,0,5.354V1.966A1.966,1.966,0,0,1,1.966,0Z" transform="translate(165.941 44.14)" fill="#b57878"/>
                <path id="Rectángulo_5402" data-name="Rectángulo 5402" d="M1.966,0H28.485a1.964,1.964,0,0,1,1.964,1.964V5.353a1.966,1.966,0,0,1-1.966,1.966H1.965A1.965,1.965,0,0,1,0,5.354V1.966A1.966,1.966,0,0,1,1.966,0Z" transform="translate(1.967 44.14)" fill="#b57878"/>
              </g>
              <g id="Grupo_69185" data-name="Grupo 69185" transform="translate(5.104)">
                <path id="Trazado_101014" data-name="Trazado 101014" d="M445.824,79.529V32.719a1.215,1.215,0,0,0-1.23-1.2H351.161a1.213,1.213,0,0,0-1.23,1.2v46.81Z" transform="translate(-349.931 -31.52)" fill="#b57878"/>
                <rect id="Rectángulo_5403" data-name="Rectángulo 5403" width="86.057" height="39.342" transform="translate(4.918 4.917)" fill="#eddac8"/>
                <rect id="Rectángulo_5404" data-name="Rectángulo 5404" width="68.533" height="28.741" transform="translate(13.68 10.217)" fill="#fff"/>
              </g>
              <path id="Trazado_101015" data-name="Trazado 101015" d="M479.677,49.425a5.085,5.085,0,0,0-2.367-.75l-64.108.219.231,22.929H510.9Z" transform="translate(-316.893 -23.946)" fill="#b57878"/>
            </g>
          </g>
          <rect id="Rectángulo_5405" data-name="Rectángulo 5405" width="91.64" height="3.497" transform="translate(5.852 44.092)" fill="#b57878"/>
        </g>
        <path id="Trazado_101016" data-name="Trazado 101016" d="M355.155,61.465c-4.832-.67-1.978,7.63-1.444,9.562,1.218,4.43-.6,8.893-.419,13.529.241,6.369,4.865,1.544,8.859,2.322,2.1.408,3.421,2.154,5.364,2.86,4.577,1.662,8.842-2.221,13.291-2.389,2.815-.105,4.926,1.475,7.228,2.856,4.97,2.981,7.943.19,12.814-1.639,5.321-2,8.62,2.3,13.536,1.813,2.093-.208,3.644-2.335,5.834-2.576,2.573-.28,4.44,1.74,6.823,2.4,2.954.82,4.5.164,7.111-1.052,2.377-1.11,2.87-.278,5.184.062,6.47.951,8.616-6.046,7.927-11.128-.4-2.991-1.237-5.91-1.7-8.924-.346-2.272-.394-5.256-1.5-7.28-2.351-4.313-6.337-.921-9.629-.427-4.7.7-9.291-.911-13.991-.921-5.753-.014-10.888,1.385-16.73.174-5.566-1.152-11.212-.457-16.853.052-4.694.427-8.577-.977-13.233-.925-4.009.045-7.359,2.011-11.479,1.632-2.492-.231-7.275-2.889-8.656.951.1.405.252.059.494.215Z" transform="translate(-343.742 -19.07)" fill="#eddac8"/>
      </g>
      <g id="Grupo_69201" data-name="Grupo 69201" transform="translate(0 4.506)">
        <g id="Grupo_69190" data-name="Grupo 69190" transform="translate(139.594 61.787)">
          <path id="Trazado_101017" data-name="Trazado 101017" d="M434.441,120.241l-.214,6.454-5.394-.3.121-7.509Z" transform="translate(-420.031 -41.098)" fill="#ff8f67"/>
          <path id="Trazado_101018" data-name="Trazado 101018" d="M437.216,123.893l.9,3.977-.372,3.3H422.727v-1.348l8.71-6.305S433.387,124.871,437.216,123.893Z" transform="translate(-422.727 -39.051)" fill="#5b4f5a"/>
          <path id="Trazado_101019" data-name="Trazado 101019" d="M443.525,120.241l.215,6.454,5.4-.3-.121-7.509Z" transform="translate(-413.544 -41.098)" fill="#ff8f67"/>
          <path id="Trazado_101020" data-name="Trazado 101020" d="M443.75,123.893l-.9,3.977.373,3.3h15.015v-1.348l-8.711-6.305S447.577,124.871,443.75,123.893Z" transform="translate(-413.843 -39.051)" fill="#5b4f5a"/>
          <path id="Trazado_101021" data-name="Trazado 101021" d="M457.908,108.742c-.014-.376-.029-.747-.045-1.121-.238-6.007-.362-12.019-.538-18.027-.148-5.109.509-11.258-.81-16.233A11.3,11.3,0,0,0,446.061,65.3c-3.833-.206-10.817-1.349-13.748,1.776-3.576,3.81-3.385,9.759-4.007,14.565-.884,6.817-.709,13.707-.542,20.562.281,11.562-.692,23.132.7,34.657.36,3.01-.166,7.359-.177,10.411l8.891.226,5.584-65.986,5.586,65.986,8.89-.226c-.009-3.052-.538-7.4-.177-10.411A185.438,185.438,0,0,0,457.908,108.742Z" transform="translate(-420.563 -64.922)" fill="#4d3c4b"/>
        </g>
        <path id="Trazado_101022" data-name="Trazado 101022" d="M451.281,74.565c-.242,1.081.045,2.289-.2,3.369-.209.925-.986,1.7-1.188,2.649,1,.29,1.416-.543,1.982-1.116.2,1.746.084,5.577,1.475,6.722A3.56,3.56,0,0,0,453.7,83.9c.209.771.283,1.714,1.14,1.789.352-.953.131-1.994.431-2.949a4.788,4.788,0,0,0,.614,2c.744-.579.49-1.754.574-2.661.066.388.336.985.412,1.293.96-2.683-.068-6.034-.673-8.588-.378-1.586-.153-2.651-1.831-2.165-1.171.337-1.806,1.648-3.088,1.779Z" transform="translate(-271.139 0.21)" fill="#ff8f67"/>
        <path id="Trazado_101023" data-name="Trazado 101023" d="M443.333,52.139a29.651,29.651,0,0,1,3.106-2.191c.83-.535,1.717-1,2.569-1.5.9-.533,2.42-1.013,2.942-2,1.372-2.608-3.008-3.4-4.479-3.774-1.127-1.392-2.557-4.248-1.952-9.492l-9.237,2.916-.379,6.3c-1.707.392-4.862.516-5.9,2.175-1.282,2.047,3.171,5.042,4.428,6.23a24.505,24.505,0,0,0,3.7,3.339c1.72,1.025,3.709-.692,4.937-1.773C443.158,52.286,443.243,52.212,443.333,52.139Z" transform="translate(-280.022 -17.151)" fill="#ff8f67"/>
        <g id="Grupo_69193" data-name="Grupo 69193" transform="translate(151.343)">
          <path id="Trazado_101024" data-name="Trazado 101024" d="M431.85,35.673a8.416,8.416,0,0,0,.711,3.785,5.567,5.567,0,0,0,5.475,2.648,9.081,9.081,0,0,0,5.534-3.049,13.4,13.4,0,0,0,3.008-5.289,7.731,7.731,0,0,0-.173-5.556c-1.25-2.556-4.237-3.684-6.976-4.474C432.027,21.6,431.772,31.013,431.85,35.673Z" transform="translate(-430.453 -21.455)" fill="#ff8f67"/>
          <path id="Trazado_101025" data-name="Trazado 101025" d="M436.181,37.174a6.12,6.12,0,0,1-1.72-.242.152.152,0,0,1-.1-.187.149.149,0,0,1,.187-.1,6.692,6.692,0,0,0,6.168-1.5.148.148,0,0,1,.211.025.151.151,0,0,1-.025.212A7.548,7.548,0,0,1,436.181,37.174Z" transform="translate(-429.344 -16.296)" fill="#9f6464"/>
          <g id="Grupo_69191" data-name="Grupo 69191" transform="translate(6.788 9.975)">
            <path id="Trazado_101026" data-name="Trazado 101026" d="M435.877,29.9a.473.473,0,0,0,.2.037,1.972,1.972,0,0,1,1.114.345.476.476,0,0,0,.577-.758,2.927,2.927,0,0,0-1.724-.539.477.477,0,0,0-.17.915Z" transform="translate(-435.587 -28.979)" fill="#9f6464"/>
            <path id="Trazado_101027" data-name="Trazado 101027" d="M435.838,30.539c-.068.383.024.728.2.763s.391-.257.461-.64-.026-.734-.206-.765S435.908,30.15,435.838,30.539Z" transform="translate(-435.486 -28.576)" fill="#9f6464"/>
          </g>
          <g id="Grupo_69192" data-name="Grupo 69192" transform="translate(1.491 9.297)">
            <path id="Trazado_101028" data-name="Trazado 101028" d="M433.927,29.573a.489.489,0,0,1-.206-.025,1.959,1.959,0,0,0-1.166.006.477.477,0,0,1-.334-.894,2.945,2.945,0,0,1,1.809-.013.477.477,0,0,1-.1.925Z" transform="translate(-431.912 -28.509)" fill="#9f6464"/>
            <path id="Trazado_101029" data-name="Trazado 101029" d="M433.264,30.157c-.046.388-.233.69-.418.67s-.3-.359-.252-.748.236-.692.419-.67S433.309,29.767,433.264,30.157Z" transform="translate(-431.616 -28.112)" fill="#9f6464"/>
          </g>
          <path id="Trazado_101030" data-name="Trazado 101030" d="M434.314,33.65h-.006a2.825,2.825,0,0,1-1.266-.2.145.145,0,0,1-.062-.1c-.2-1.026,1.045-3.493,1.1-3.6a.152.152,0,0,1,.271.137c-.013.023-1.185,2.35-1.084,3.326a4.032,4.032,0,0,0,1.055.131.151.151,0,0,1-.006.3Z" transform="translate(-429.959 -18.698)" fill="#9f6464"/>
          <path id="Trazado_101031" data-name="Trazado 101031" d="M439.764,31.83a.147.147,0,0,1-.074-.019.15.15,0,0,1-.059-.2c.112-.2.7-1.212,1.185-1.23h.006a.151.151,0,0,1,.006.3c-.21.007-.647.564-.931,1.075A.153.153,0,0,1,439.764,31.83Z" transform="translate(-427.021 -18.387)" fill="#9f6464"/>
          <path id="Trazado_101032" data-name="Trazado 101032" d="M440.116,31.2a.151.151,0,0,1-.024-.3l.454-.076a.153.153,0,0,1,.174.125.149.149,0,0,1-.124.173l-.454.076Z" transform="translate(-426.866 -18.191)" fill="#9f6464"/>
          <path id="Trazado_101033" data-name="Trazado 101033" d="M434.843,34.046a3.65,3.65,0,0,1-1.664-.437.151.151,0,0,1-.056-.206.152.152,0,0,1,.206-.055,2.989,2.989,0,0,0,2.468.19.149.149,0,0,1,.2.071.152.152,0,0,1-.072.2A2.518,2.518,0,0,1,434.843,34.046Z" transform="translate(-429.895 -17.084)" fill="#9f6464"/>
          <path id="Trazado_101034" data-name="Trazado 101034" d="M442.458,27.617c.1,1.189-4.108.859-5.13.81-2.06-.105-4.918.115-6.122,2.167a4.2,4.2,0,0,1,.65-2.158,11.708,11.708,0,0,1-.555,1.55c.084-.48.148-.963.222-1.444A6.021,6.021,0,0,1,430.9,29.8c-.376-6.138,4.9-8.79,10.418-7.362,1.329.345,4.536,1.926,4.186,3.749s-3.673,2.464-5.086,2.537Z" transform="translate(-430.878 -22.06)" fill="#9f6464"/>
          <path id="Trazado_101035" data-name="Trazado 101035" d="M439.2,26.441c-.964.986-.386,2.237-.29,3.362a12.017,12.017,0,0,1-.352,3.317,2.584,2.584,0,0,1,.43-.683,5.268,5.268,0,0,1-.189.6c.862-.878,3.311-2.688,3.337-.284.016,1.589-1.809,2.912-1.362,4.394a8.579,8.579,0,0,0,.369-.866l-.221,1.48c-.026.068.143-.311.18-.43-.133.907-.441,1.845.085,2.638.059-.438.124-.875.183-1.312a2.93,2.93,0,0,1-.045,1.1c1.289-3.888,4.522-7.568,3.7-11.979a4.124,4.124,0,0,0-3.66-3.245c-2.647-.294-2.476,1.851-2.667,3.713Z" transform="translate(-427.487 -20.98)" fill="#9f6464"/>
        </g>
        <path id="Trazado_101036" data-name="Trazado 101036" d="M399.375,44.109a2.621,2.621,0,0,1,1.132.554c-1.114.5-2.922-.16-4.085-.333-.493-.072-1.674-.582-1.534.14.024.13.911.875.78.964-.275.183-1.3-.32-1.462.05-.11.268.567.8.771.889a11.57,11.57,0,0,0,1.721.492c-.507-.006-2.977-.229-1.864.786a3.794,3.794,0,0,0,1.862.432c-.415,0-1.779-.3-1.635.355.062.293.732.577.974.692a12.922,12.922,0,0,0,2.142.8,17.5,17.5,0,0,0,4.656.591c1.877,0,2.11.174,2.283-1.676.1-1.044.5-2.038-.1-3.013a4.627,4.627,0,0,0-2.132-1.591c-1.387-.61-2.781-1.031-4.144-1.682-.408-.2.04,1.168.241,1.339A1.434,1.434,0,0,0,399.375,44.109Z" transform="translate(-295.731 -13.02)" fill="#ff8f67"/>
        <path id="Trazado_101037" data-name="Trazado 101037" d="M438.684,41.96l-14.824,6.589a8.373,8.373,0,0,1-3.849.551l-18.038-2.423-1.851,5.332,19.15,5.093a10.068,10.068,0,0,0,3.934.1c2.207-.466,4.387-1.087,6.582-1.6,1.89-.444,5.583-1.952,7.52-1.381,1.783.529,1.049,4.953,1.114,6.753a41.792,41.792,0,0,0,.768,8.547c.845,3.393.2,6.885.027,10.314a16.112,16.112,0,0,0,1.992,8.773c1.416,2.969,7.545,2.144,10.122,2.014,3.04-.15,6.683.552,9.636.006a30.107,30.107,0,0,0,4.6-.852c5.241-1.824,4.973-7.859,4.548-12.4-.21-2.233-.613-4.476-.863-6.654-.343-2.965.747-5.75.891-8.675.128-2.593-.311-5.254-.317-7.9s2.09-5.827.791-8.423c-.92-1.842-1.589-2.97-3.486-3.932-.644-.327-5.045-2.028-5.439-1.568-.027.033-8.028,6.036-8.028,6.036L447.945,39.6Z" transform="translate(-293.113 -14.314)" fill="#5b4f5a"/>
        <path id="Trazado_101038" data-name="Trazado 101038" d="M448.65,41.826s7.128-1.348,10.777,26.271c0,0,1.124,11.224-.9,19.757l-5.61.45-.451-18.411L445.506,53.5S444.16,43.622,448.65,41.826Z" transform="translate(-273.16 -13.337)" fill="#5b4f5a"/>
        <path id="Trazado_101039" data-name="Trazado 101039" d="M449.361,60.34a.251.251,0,0,1-.231-.15c-.125-.284-3.052-6.988-3.39-11.026a.252.252,0,0,1,.231-.272.258.258,0,0,1,.274.231c.33,3.953,3.318,10.8,3.347,10.865a.253.253,0,0,1-.13.333A.247.247,0,0,1,449.361,60.34Z" transform="translate(-272.973 -10.214)" fill="#fff"/>
        <g id="Grupo_69200" data-name="Grupo 69200" transform="translate(0 7.831)">
          <g id="Grupo_69199" data-name="Grupo 69199" transform="translate(0 1.423)">
            <g id="Grupo_69198" data-name="Grupo 69198">
              <g id="Grupo_69194" data-name="Grupo 69194" transform="translate(0.402 99.399)">
                <path id="Trazado_101040" data-name="Trazado 101040" d="M337.2,97.435s-3.35,32.071-.239,37.336h-6.222s-7.419-22.975-3.352-36.856Z" transform="translate(-326.167 -97.435)" fill="#ff8f67"/>
                <path id="Trazado_101041" data-name="Trazado 101041" d="M327.6,128.333a2.443,2.443,0,0,0,2.413,1.849h15.7c1.064,0,1.79-.575,1.617-1.283s-1.157-1.266-2.2-1.418a12.244,12.244,0,0,1-2.612-.669,15.577,15.577,0,0,1-7.124-5.648,11.973,11.973,0,0,1-.65-1.034l-4.147,1.273a15.7,15.7,0,0,0-1.09,1.292,9.141,9.141,0,0,0-1.828,3.886A6.022,6.022,0,0,0,327.6,128.333Z" transform="translate(-325.549 -87.415)" fill="#ff8f67"/>
                <path id="Trazado_101042" data-name="Trazado 101042" d="M327.6,126.357a2.443,2.443,0,0,0,2.413,1.849h15.7c1.064,0,1.79-.575,1.617-1.283s-1.157-1.266-2.2-1.418a12.244,12.244,0,0,1-2.612-.669c-3.047,1.054-7.822,1.619-14.839-.231A6.022,6.022,0,0,0,327.6,126.357Z" transform="translate(-325.549 -85.439)" fill="#4d3c4b"/>
                <path id="Trazado_101043" data-name="Trazado 101043" d="M334.079,122.466a.24.24,0,0,1-.232-.182c-.03-.12-3.034-12.091-2.559-19.7a.239.239,0,1,1,.477.03c-.47,7.533,2.515,19.433,2.546,19.553a.239.239,0,0,1-.174.291A.263.263,0,0,1,334.079,122.466Z" transform="translate(-323.928 -95.261)" fill="#fff"/>
              </g>
              <g id="Grupo_69195" data-name="Grupo 69195" transform="translate(8.857 99.721)">
                <path id="Trazado_101044" data-name="Trazado 101044" d="M343.064,97.658s-3.351,32.068-.239,37.334H336.6s-7.418-22.976-3.35-36.856Z" transform="translate(-332.032 -97.658)" fill="#ff8f67"/>
                <path id="Trazado_101045" data-name="Trazado 101045" d="M333.463,128.556a2.442,2.442,0,0,0,2.412,1.848h15.7c1.061,0,1.789-.575,1.616-1.283s-1.158-1.261-2.2-1.416a12.37,12.37,0,0,1-2.614-.672,15.574,15.574,0,0,1-7.124-5.649,11.632,11.632,0,0,1-.65-1.034l-4.144,1.273a16.278,16.278,0,0,0-1.093,1.293,9.152,9.152,0,0,0-1.826,3.886A6.137,6.137,0,0,0,333.463,128.556Z" transform="translate(-331.415 -87.639)" fill="#ff8f67"/>
                <path id="Trazado_101046" data-name="Trazado 101046" d="M333.463,126.58a2.442,2.442,0,0,0,2.412,1.848h15.7c1.061,0,1.789-.575,1.616-1.283s-1.158-1.261-2.2-1.416a12.368,12.368,0,0,1-2.614-.672c-3.044,1.054-7.822,1.619-14.837-.231A6.137,6.137,0,0,0,333.463,126.58Z" transform="translate(-331.415 -85.663)" fill="#4d3c4b"/>
              </g>
              <path id="Trazado_101047" data-name="Trazado 101047" d="M347.771,70.756s2.871,26.483.319,47.545H326.074s-1.279-35.739,2.87-50.418Z" transform="translate(-325.888 -11.083)" fill="#4d3c4b"/>
              <path id="Trazado_101048" data-name="Trazado 101048" d="M350.641,42.628a3.969,3.969,0,0,0-.538,1.6c-.036.219-.063.444-.088.673-.172,1.515-.222,3.142-1.315,3.759a2.823,2.823,0,0,1-2.129.029,4.915,4.915,0,0,0-2.142-.346c-1.379.231-2.709,2.993-3.5,4.061-.727.976-1.45,1.959-2.177,2.939l-5.974-5.481c3.906-7.442.9-9.916.9-9.916L331.9,38.177c-.6-2.342.025-5.1,3.905-7.711,0,0,6.6-5.729,13.074,2.269a6.17,6.17,0,0,1,1.2,3.979c-.016,1.214-.441,2.338.445,3.367.353.408,1.129.559,1.194,1.212C351.789,42.056,351,42.1,350.641,42.628Z" transform="translate(-323.32 -28.48)" fill="#ff8f67"/>
              <path id="Trazado_101049" data-name="Trazado 101049" d="M325.9,97.108s3.781-.47,9.1-3.843a65.462,65.462,0,0,0,10.288-8.09c1.613-1.563,3.326-2.432,4.133-4.715,1-2.838.843-6.017,1.227-8.909a34.8,34.8,0,0,0-6.026-24.379c-.943-1.329-5.926-4.676-7.575-4.538,0,0-7.5.62-8.384,21.451Z" transform="translate(-325.88 -22.232)" fill="#5b4f5a"/>
              <g id="Grupo_69197" data-name="Grupo 69197" transform="translate(24.168 8.74)">
                <g id="Grupo_69196" data-name="Grupo 69196">
                  <path id="Trazado_101050" data-name="Trazado 101050" d="M344.93,35.579a.492.492,0,0,1-.222.023,2.1,2.1,0,0,0-1.253.264.523.523,0,1,1-.555-.887,3.194,3.194,0,0,1,1.937-.415.522.522,0,0,1,.092,1.015Z" transform="translate(-342.654 -34.543)" fill="#aa5f5f"/>
                </g>
              </g>
              <path id="Trazado_101051" data-name="Trazado 101051" d="M343.316,39.914a.156.156,0,0,1-.151-.12.153.153,0,0,1,.115-.186c1.048-.239,1.407,0,1.444.027a.155.155,0,0,1-.182.251c-.014-.009-.317-.179-1.192.025Z" transform="translate(-318.262 -23.613)" fill="#aa5f5f"/>
            </g>
            <path id="Trazado_101052" data-name="Trazado 101052" d="M343.878,36.851a1.393,1.393,0,0,1-.954-.405.143.143,0,1,1,.195-.21,1,1,0,0,0,1.2.222.142.142,0,0,1,.2.043.144.144,0,0,1-.045.2A1.215,1.215,0,0,1,343.878,36.851Z" transform="translate(-318.387 -25.072)" fill="#aa5f5f"/>
          </g>
          <path id="Trazado_101053" data-name="Trazado 101053" d="M329.779,44.143c.134-1.013.368-2.014.457-2.573a23.161,23.161,0,0,1,2.949-8.87c1.439-2.259,3.416-4.345,6.151-4.877s5.687-.535,8.055.82c.437.249.957.565,1.5.928a11.766,11.766,0,0,1,3.863,8.206c-1.431.262-3.5-.551-4.706-.105-1.359.5-1.411,2.671-1.553,3.964-.3,2.739-.659,5.407-.8,8.15-4.146-.209-8.482-1.367-12.645-2.087-.656-.112-2.621-.154-3.032-.724A4.473,4.473,0,0,1,329.779,44.143Z" transform="translate(-324.215 -27.492)" fill="#494951"/>
          <path id="Trazado_101054" data-name="Trazado 101054" d="M336.3,72.644c.182,3.4,1.025,7.161,1.22,10.782.118,2.184-.381,4.743.159,6.886.4,1.613,1.553,2.76,2.321,4.255a8.834,8.834,0,0,0,1.178,1.819c-.8.457-1.681-.272-2.332-.685.058,2.311.164,5.181-.731,7.3a2.219,2.219,0,0,1-.688-1.973,2.324,2.324,0,0,1-.261,2.025,7.074,7.074,0,0,1-.552-1.56,5.9,5.9,0,0,1-.053,1.747,15.632,15.632,0,0,1-.706-1.488c-.154.11-.265.251-.4.343-2-2.877-1.205-6.95-1.224-10.132-.025-3.79-1.441-7.763-2.537-11.336-1.264-4.133-2.308-8.658-1.867-12.962.417-4.055.872-8.127,1.449-12.159.378-2.657.9-7.107,3.872-8.2C343.308,44.321,336.134,69.431,336.3,72.644Z" transform="translate(-324.195 -18.853)" fill="#ff8f67"/>
        </g>
      </g>
      <g id="Grupo_69206" data-name="Grupo 69206" transform="translate(16.82 0)">
        <path id="Trazado_101055" data-name="Trazado 101055" d="M380.847,79.853a8.656,8.656,0,0,0,.982,2.2c-1.727.773-1.96-1.782-3.308-2.3-1.613,2.014,3.285,8.365-.778,8.573-.84-1.279-2.622-1.084-3.539-2.55a16.265,16.265,0,0,1-1.439-4.237c-.889-3.148-.992-6.263-2.417-9.332,1.029-.418,3.287-2.35,4.427-1.779.564.283.616,1.429.888,1.933.891,1.64,2.736,2.717,3.837,4.195A30.547,30.547,0,0,1,380.847,79.853Z" transform="translate(-323.079 3.757)" fill="#ff8f67"/>
        <g id="old_man" data-name="old man">
          <g id="old_man-2" data-name="old man">
            <path id="Trazado_101056" data-name="Trazado 101056" d="M370.849,43.835c-.108.226-.438.776-1.848,1.191a8.916,8.916,0,0,1-5.148-.133q-.132,1.191-.264,2.378a14.77,14.77,0,0,1-4.49.395,14.561,14.561,0,0,1-5.148-1.32c.311-1.663.15-2.233-.134-2.377-.421-.216-.143.362-.709.173a2.658,2.658,0,0,1-1.668-2.152c-.745-.356-.6-.94-1.351-1.286a2.924,2.924,0,0,1-2.079-2.773,7.314,7.314,0,0,1,.5-2.972,7.169,7.169,0,0,1-1.486-2.87,5.227,5.227,0,0,1,.3-4.159c1.034-2,1.982-2.975,2.407-3.105.072-.637,1.388-.686,2.145-1.648A4.57,4.57,0,0,1,354.94,21.2a7.668,7.668,0,0,1,2.971.1,6.475,6.475,0,0,1,3.366-1.483c1.668-.249,1.681.529,2.18.794,1.114.588,2.442.069,2.773.525A4.741,4.741,0,0,0,368.471,21c.878-.275,1.3-.715,1.584-.528.316.21-1.182.78-1.453,1.916a3.911,3.911,0,0,1-1.185,2.276c-.417.45-.3.944-.892,1.485-.392.356.464.724.234,1.058h0a5.823,5.823,0,0,0-.4.662q.861,2.9,1.714,5.8l2.247,1.848c-.616.355-1.235.706-1.849,1.058.01.259.02.513.03.773.036.885.068,1.772.1,2.661a3.461,3.461,0,0,1,1.979,1.584A2.582,2.582,0,0,1,370.849,43.835Z" transform="translate(-333.51 -18.567)" fill="#ffb091"/>
            <path id="Trazado_101057" data-name="Trazado 101057" d="M371.157,44.2c-.646,1.323-2.763,1.808-4.069,2-1.855.275-3.6-.825-5.37-.669-.62.059-.783.523-1.527.239-.023.056-.148.5-.084.532q-.636-.3-1.269-.6c.081.277.16.554.244.832-.605-.321-1.214-.64-1.819-.953-.084.216-.167.437-.251.656-.983-.979-1.032-.856-2.311-.685a6.482,6.482,0,0,1-2.514-.15c.172-1.835-1.672-3.21-2.916-4.261a4.7,4.7,0,0,1-2.008-3.411,4.153,4.153,0,0,1,.66-2.376,7.3,7.3,0,0,1-1.586-2.9,6.032,6.032,0,0,1,.264-4.49,5.822,5.822,0,0,1,3.432-2.773,5.206,5.206,0,0,1,1.055-2.637,5.8,5.8,0,0,1,3.827-1.981,7.281,7.281,0,0,1,2.908.133,5.4,5.4,0,0,1,3.167-1.717,5.493,5.493,0,0,1,3.432.66,6.194,6.194,0,0,1,2.115,1.847,4.741,4.741,0,0,0,2.242-.133c.878-.275,1.3-.715,1.584-.528.316.21.135.976-.133,2.113a5.3,5.3,0,0,1-1.055,2.641c-.414.445-.591.382-1.188.923-.307.281.3.731.261,1.1a.862.862,0,0,1-.729.732A2.9,2.9,0,0,1,366.409,28a17.418,17.418,0,0,0-3.174-1.09,16.985,16.985,0,0,1,.794,4.756c.088,1.8-.053,2.713-.4,2.906-.408.222-.924-.5-1.45-.267-.546.245-.6,1.293-.529,1.849a2.6,2.6,0,0,0,.924,1.714,2.544,2.544,0,0,0,1.849.53v1.449a2,2,0,0,0,.924,1.058,1.8,1.8,0,0,0,2.113-.267c.389-.51-.066-1.061.265-1.844a2.215,2.215,0,0,1,1.084-1.077c.036.885.068,1.772.1,2.661a3.461,3.461,0,0,1,1.979,1.584A2.582,2.582,0,0,1,371.157,44.2Z" transform="translate(-333.818 -18.933)" fill="#9f6464"/>
            <path id="Trazado_101058" data-name="Trazado 101058" d="M353.4,123.849c-1.126,1.653.02,4.559.147,4.89a7.787,7.787,0,0,0,1.4,2.276l16.763.258c-.15-.859.092-1.433-.506-2.18a4.375,4.375,0,0,0-1.436-1c-.969-.51-1.946-1.008-2.919-1.5-1.9-.967-3.8-1.923-5.656-2.955C357.875,121.779,354.515,122.208,353.4,123.849Z" transform="translate(-330.778 26.756)" fill="#4d3c4b"/>
            <path id="Trazado_101059" data-name="Trazado 101059" d="M340.176,121.724A9.123,9.123,0,0,0,338,125.29a9.3,9.3,0,0,0,0,5.643h12.971a3.834,3.834,0,0,0-.2-2.772c-.722-1.32-2.106-1.3-3.268-2.674a5.474,5.474,0,0,1-1.189-2.969Q343.244,122.118,340.176,121.724Z" transform="translate(-337.556 26.449)" fill="#4d3c4b"/>
            <path id="Trazado_101060" data-name="Trazado 101060" d="M375.065,73.251l-3.77,1.191h-2.416l.93-3.562q-6.681-1.641-13.366-3.272a23.972,23.972,0,0,0-4.454,8.022c-1.864,5.863-.748,10.787-.3,13.958.708,4.986.692,14.765-3.068,27.645a261.417,261.417,0,0,1-11.068,30.561c3.5,1.542,6.684,1.247,9.874.79,3.337-10.889,9.112-18.9,12.282-31.67.934-3.774,1.646-7.395,2.182-10.831q.4,3.927.787,7.859-1.635,17.823-3.268,35.643a11.666,11.666,0,0,0,6.831.6,11.177,11.177,0,0,0,3.563-1.486,171,171,0,0,1,2.376-24.356c.579-3.343,1.072-5.532,1.783-10.4a170.252,170.252,0,0,0,1.782-17.523C375.939,92.468,375.339,79.117,375.065,73.251Z" transform="translate(-337.556 2.557)" fill="#5b4f5a"/>
            <path id="Trazado_101061" data-name="Trazado 101061" d="M375.843,59.24c.862.667,1.724,1.341,2.58,2.007a126.72,126.72,0,0,0-2.3-16.158,13.707,13.707,0,0,0-2.538-2.575,16.515,16.515,0,0,0-7.329-3.039,2.18,2.18,0,0,0-1.7-1.319,16.977,16.977,0,0,0-3.785-.215h-7.424v1.44a14.823,14.823,0,0,0-3.173,2.9c-2.129,2.6-2.2,6.454-1.845,9.635.735,6.686,1.3,8.72,1.583,12.142a48.421,48.421,0,0,1-.659,12.28A57.511,57.511,0,0,1,344.5,91.654c1.5.235,3.807.62,6.6,1.191,3.349.675,6.769,1.78,10.24,2.048a27.712,27.712,0,0,0,6.162-.208c4.2-.605,5.361-3.659,6.709-7.3A52.747,52.747,0,0,0,377.2,74.037c.208-2.2.314-4.417.376-6.627.048-1.832.532-4.647-.31-6.305A6.336,6.336,0,0,0,375.843,59.24Zm-1.273-.99c.127.1.262.2.389.308A2.041,2.041,0,0,1,374.57,58.25Z" transform="translate(-334.491 -10.544)" fill="#4d3c4b"/>
          </g>
          <g id="Grupo_69205" data-name="Grupo 69205" transform="translate(19.93 11.98)">
            <g id="Grupo_69202" data-name="Grupo 69202" transform="translate(2.39 81.272)">
              <path id="Trazado_101062" data-name="Trazado 101062" d="M353.046,83.942c1.253,6.252,1.749,12.6,2.531,18.918.04.319.549.324.509,0-.79-6.366-1.289-12.756-2.55-19.054-.065-.32-.555-.185-.49.136Z" transform="translate(-353.04 -83.624)" fill="#fff"/>
            </g>
            <g id="Grupo_69203" data-name="Grupo 69203" transform="translate(0 78.403)">
              <path id="Trazado_101063" data-name="Trazado 101063" d="M351.468,82.052c1.914,1.545,3.927,2.968,5.8,4.557.249.21.61-.147.362-.359-1.881-1.589-3.892-3.013-5.806-4.555-.252-.2-.614.153-.36.357Z" transform="translate(-351.382 -81.634)" fill="#fff"/>
            </g>
            <path id="Trazado_101064" data-name="Trazado 101064" d="M361.952,31.54c-.673,0-1.331-.787-1.563-1.871a2.678,2.678,0,0,1,.222-1.959.969.969,0,0,1,.607-.447.805.805,0,0,1,.177-.019c.673,0,1.33.787,1.564,1.871a2.68,2.68,0,0,1-.222,1.956.968.968,0,0,1-.605.448A.842.842,0,0,1,361.952,31.54Zm-.556-3.873a.459.459,0,0,0-.089.009.555.555,0,0,0-.34.265,2.3,2.3,0,0,0-.164,1.64c.223,1.035.837,1.619,1.241,1.527a.546.546,0,0,0,.34-.265,2.3,2.3,0,0,0,.164-1.639C362.34,28.24,361.8,27.666,361.4,27.666Z" transform="translate(-347.442 -27.244)" fill="#4d3c4b"/>
            <g id="Grupo_69204" data-name="Grupo 69204" transform="translate(7.441 2.041)">
              <path id="Trazado_101065" data-name="Trazado 101065" d="M362.045,28.663c-1.48.307-3.184.134-4.559.833-1.469.744-.892,2.673-.441,3.856.058.153.3.088.244-.068-.579-1.529-.924-3.274,1-3.829,1.237-.355,2.57-.287,3.829-.548.161-.032.1-.275-.068-.245Z" transform="translate(-356.544 -28.66)" fill="#4d3c4b"/>
            </g>
          </g>
        </g>
        <path id="Trazado_101066" data-name="Trazado 101066" d="M368.788,43.243l7.464,28.313,5.838,14.817-7.69,3.481-10.722-30.2s-8.084-19.984,4.49-17.288Z" transform="translate(-327.153 -8.698)" fill="#4d3c4b"/>
        <path id="Trazado_101067" data-name="Trazado 101067" d="M368.4,70.956a.246.246,0,0,1-.2-.1c-1.359-1.865-6.232-17.916-6.438-18.6a.251.251,0,0,1,.169-.314.247.247,0,0,1,.314.169c.05.166,5.054,16.649,6.363,18.447a.253.253,0,0,1-.056.353A.246.246,0,0,1,368.4,70.956Z" transform="translate(-326.877 -4.366)" fill="#fff"/>
      </g>
    </g>
  </g>
</svg>
