<svg xmlns="http://www.w3.org/2000/svg" width="218.863" height="199.197" viewBox="0 0 218.863 199.197">
  <g id="Grupo_69180" data-name="Grupo 69180" transform="translate(-645.167 -140.354)">
    <g id="Grupo_69146" data-name="Grupo 69146" transform="translate(645.167 152.328)">
      <path id="Trazado_100889" data-name="Trazado 100889" d="M864.03,242.088c0,51.7-48.994,93.612-109.431,93.612s-109.432-41.911-109.432-93.612,49-93.611,109.432-93.611S864.03,190.389,864.03,242.088Z" transform="translate(-645.167 -148.477)" fill="#f6e8db"/>
    </g>
    <g id="Grupo_69179" data-name="Grupo 69179" transform="translate(667.373 140.354)">
      <g id="Grupo_69159" data-name="Grupo 69159" transform="translate(26.337 0.119)">
        <g id="Grupo_69147" data-name="Grupo 69147" transform="translate(0.343 63.485)">
          <path id="Trazado_100890" data-name="Trazado 100890" d="M697.5,240.618l.2,6.084,5.086-.288-.114-7.078Z" transform="translate(-669.239 -157.029)" fill="#ff8f67"/>
          <path id="Trazado_100891" data-name="Trazado 100891" d="M697.728,243.963l-.849,3.75.352,3.113h14.154v-1.271l-8.212-5.947S701.337,244.886,697.728,243.963Z" transform="translate(-669.536 -155.003)" fill="#935151"/>
          <path id="Trazado_100892" data-name="Trazado 100892" d="M689.248,240.618l-.2,6.084-5.086-.288.114-7.078Z" transform="translate(-675.661 -157.029)" fill="#ff8f67"/>
          <path id="Trazado_100893" data-name="Trazado 100893" d="M691.988,243.963l.849,3.75-.352,3.113H678.33v-1.271l8.209-5.947S688.378,244.886,691.988,243.963Z" transform="translate(-678.33 -155.003)" fill="#935151"/>
          <path id="Trazado_100894" data-name="Trazado 100894" d="M682.891,233.792c.013-.354.025-.7.038-1.058.38-9.25.2-18.583.924-27.85.226-2.883.379-5.774.5-8.663.037-.932.846-11.828-.209-11.98l6.837.924-.223-1.663,15.043,1-.125.346,4.518-.61c-1.212.171-.124,13.91-.06,15.1.156,2.959.28,5.948.662,8.889a126.742,126.742,0,0,1,.511,19.392c-.265,10.9.652,21.8-.657,32.669-.342,2.838.158,6.936.167,9.812l-8.38.217-5.265-62.206L691.9,270.32l-8.38-.217c.007-2.876.508-6.974.168-9.812A174.6,174.6,0,0,1,682.891,233.792Z" transform="translate(-676.244 -183.501)" fill="#4d3c4b"/>
        </g>
        <g id="Grupo_69153" data-name="Grupo 69153" transform="translate(0 17.98)">
          <path id="Trazado_100895" data-name="Trazado 100895" d="M701.5,158.63c-.025.249.924,1.2,1.07,1.4a39.625,39.625,0,0,1,2.553,4.11,44.635,44.635,0,0,1,5.007,15.1,60.664,60.664,0,0,1,.573,7.074c.021,1.122.089,3.722-1.072,4.406-1,.587-2.842-1.252-3.749-1.849l-5.975-14.327Z" transform="translate(-667.756 -149.788)" fill="#4d3c4b"/>
          <g id="Grupo_69150" data-name="Grupo 69150" transform="translate(4.675)">
            <path id="Trazado_100896" data-name="Trazado 100896" d="M688.585,159.593a14.707,14.707,0,0,0,1.47-6.961l8.139,1.667.491,8.137-5.392,3.04-4.707-5.759Z" transform="translate(-677.8 -152.632)" fill="#ff8f67"/>
            <g id="Grupo_69148" data-name="Grupo 69148" transform="translate(10.418 2.524)">
              <path id="Trazado_100897" data-name="Trazado 100897" d="M688.336,158.609a9.925,9.925,0,0,0,1.4-4.265s5.588,1.912,4.559,7.721Z" transform="translate(-688.336 -154.344)" fill="#f7eadc"/>
              <path id="Trazado_100898" data-name="Trazado 100898" d="M692.376,162.042s.882-5.441,4.559-7.648l.369,4.487-4.633,3.015Z" transform="translate(-686.421 -154.32)" fill="#f7eadc"/>
            </g>
            <g id="Grupo_69149" data-name="Grupo 69149" transform="translate(0 6.495)">
              <path id="Trazado_100899" data-name="Trazado 100899" d="M684.595,158.876l5.588-1.838,5.98,3.015,4.978-2.647,6,1.863L705.774,203H686.948Z" transform="translate(-679.692 -157.038)" fill="#5b4f5a"/>
              <path id="Trazado_100900" data-name="Trazado 100900" d="M689.9,157.487,697.25,176.7l.688,27.259S695,215.532,681.269,212l.98-52.75Z" transform="translate(-681.269 -156.825)" fill="#4d3c4b"/>
              <path id="Trazado_100901" data-name="Trazado 100901" d="M698.386,158.67l-4.413,18.042,1.863,26.767s2.354,8.335,11.374,8.139l-2.158-46.084-.784-6.47-5.686-1.178Z" transform="translate(-675.246 -156.636)" fill="#4d3c4b"/>
            </g>
          </g>
          <g id="Grupo_69152" data-name="Grupo 69152" transform="translate(10.657 18.911)">
            <g id="Grupo_69151" data-name="Grupo 69151" transform="translate(1.141)">
              <path id="Trazado_100902" data-name="Trazado 100902" d="M699.125,167.205c-.693-1.43-2.5-1.762-3.895-1.744a28.775,28.775,0,0,0-5.177.769,8.753,8.753,0,0,1-2.537.422,5.612,5.612,0,0,1-1.344-.429l-.071,4.8c1.682.346,3.7.116,5.391.4,2.448.414,5.033,1.253,7.478,1.3C699.005,171.162,699.778,168.548,699.125,167.205Z" transform="translate(-686.101 -165.461)" fill="#fff"/>
              <path id="Trazado_100903" data-name="Trazado 100903" d="M694.091,167.205c.693-1.43,2.5-1.762,3.895-1.744a28.716,28.716,0,0,1,5.177.769,8.769,8.769,0,0,0,2.537.422,5.6,5.6,0,0,0,1.343-.429l-.8,5.667c-1.683.348-2.829-.755-4.52-.467-2.448.414-5.034,1.253-7.478,1.3C694.212,171.162,693.438,168.548,694.091,167.205Z" transform="translate(-682.437 -165.461)" fill="#fff"/>
            </g>
            <path id="Trazado_100904" data-name="Trazado 100904" d="M685.327,179l.392-11.668,26.178.2L710.23,178.9Z" transform="translate(-685.327 -164.574)" fill="#b57878"/>
          </g>
          <path id="Trazado_100905" data-name="Trazado 100905" d="M695.884,172.334a1.977,1.977,0,0,0,.451-1.383,1.4,1.4,0,0,0-.895.442c.183-.293.939-1.352.684-1.722-.344-.494-1.411.441-1.7.809.212-.523.771-1,.657-1.588-1.843.234-3.455,3.093-5.42,2.991-.093-.684-.025-2.587-1.086-2.338a4.857,4.857,0,0,1-.529,2.908,7.116,7.116,0,0,0-.333.837,14.908,14.908,0,0,0,2.606,4.638,6.176,6.176,0,0,0,1.255-.756c1.353-.884,5.3-3.242,4.949-5.257A1.112,1.112,0,0,0,695.884,172.334Z" transform="translate(-673.54 -144.922)" fill="#ff8f67"/>
          <path id="Trazado_100906" data-name="Trazado 100906" d="M683.85,158.718c-.006-.009-3.152,7.135-3.289,7.606a52.587,52.587,0,0,0-1.834,10c-.317,3.483-2.452,14.886,3.5,14.361a14.172,14.172,0,0,0,5.506-2.123c1.033-.59,9.561-6.682,9.352-6.9l-4.412-4.707-6.617,4.413S690.027,165.778,683.85,158.718Z" transform="translate(-678.097 -149.747)" fill="#4d3c4b"/>
          <path id="Trazado_100907" data-name="Trazado 100907" d="M694.5,172.058a1.991,1.991,0,0,1-.346-1.414,1.414,1.414,0,0,1,.862.509c-.162-.307-.836-1.418-.554-1.767.377-.467,1.374.544,1.638.935-.172-.538-.7-1.051-.537-1.633,1.819.373,3.212,3.343,5.182,3.39.144-.674.22-2.577,1.259-2.249a4.843,4.843,0,0,0,.309,2.941,7.11,7.11,0,0,1,.267.859,14.827,14.827,0,0,1-2.947,4.428,6.076,6.076,0,0,1-1.194-.849c-1.282-.983-5.041-3.631-4.539-5.615A1.124,1.124,0,0,1,694.5,172.058Z" transform="translate(-670.629 -145.02)" fill="#ff8f67"/>
          <path id="Trazado_100908" data-name="Trazado 100908" d="M701.054,171.057,696,175.9c-.221.208,7.9,6.825,8.9,7.478a14.532,14.532,0,0,0,4.554,2.36c1.813.392,2.612-1.215,2.835-2.748a6.334,6.334,0,0,0,.043-2.326,5.015,5.015,0,0,0-2.223-2.419c-1.885-1.246-3.724-2.435-5.528-3.809C704.31,174.232,701.142,170.971,701.054,171.057Z" transform="translate(-669.61 -143.897)" fill="#4d3c4b"/>
        </g>
        <g id="Grupo_69158" data-name="Grupo 69158" transform="translate(11.796)">
          <g id="Grupo_69154" data-name="Grupo 69154">
            <path id="Trazado_100909" data-name="Trazado 100909" d="M700.873,155.2a7.3,7.3,0,0,1-1.1,3.181,4.864,4.864,0,0,1-5.078,1.588,7.939,7.939,0,0,1-4.394-3.349,11.764,11.764,0,0,1-1.924-4.962,6.773,6.773,0,0,1,.865-4.785c1.412-2.051,4.139-2.642,6.61-2.973C702.532,143.008,701.54,151.183,700.873,155.2Z" transform="translate(-685.065 -138.822)" fill="#ff8f67"/>
            <path id="Trazado_100910" data-name="Trazado 100910" d="M689.365,145.531a3.134,3.134,0,0,1,.261-.88,1.67,1.67,0,0,1,.142-.445,1.249,1.249,0,0,1,.486-.5,3.544,3.544,0,0,1,.637-.534,1.3,1.3,0,0,1,2.012-1.148,1.141,1.141,0,0,1,1.041-1.165,3.3,3.3,0,0,1,1.678.364,5.67,5.67,0,0,1,1.431-.774,2.9,2.9,0,0,1,1.605.383c.259.111.352.426.6.5.212.059.634-.192.917-.136a2.039,2.039,0,0,1,1.451,1.083c.281.562.066,1.067.187,1.623a1.076,1.076,0,0,0,.093.248,2.477,2.477,0,0,1,1.477,1.014c.9,1.085,2.575,4.638-.145,4.552a7.734,7.734,0,0,1,1.044.125c.236,2.574-3.9,2.481-3.6-.074a1.189,1.189,0,0,1-1.4-.921,5.3,5.3,0,0,1-3.632,1.02,1.854,1.854,0,0,1-.016,2.028c-.485.532-1.666.1-1.433-.584a1.521,1.521,0,0,1-1.666.27,4.81,4.81,0,0,1,.377,2.609c-.613-.519-.736-1.86-1.508-1.644a.869.869,0,0,0-.488.479,2.327,2.327,0,0,0,.908,2.963.669.669,0,0,1-.716.27,4.648,4.648,0,0,1,.606,1.79,1.612,1.612,0,0,1-.831,1.588.989.989,0,0,1-1.375-.808c-.389.466-1.14.032-1.512-.444a7.6,7.6,0,0,1-1.173-6.983.323.323,0,0,1-.262.034.885.885,0,0,1-.43-.761A4.914,4.914,0,0,1,689.365,145.531Z" transform="translate(-686.099 -140.435)" fill="#9f6464"/>
            <path id="Trazado_100911" data-name="Trazado 100911" d="M695.108,155.808a6.33,6.33,0,0,1-4.658-2.217.133.133,0,0,1,.193-.183,5.857,5.857,0,0,0,5.14,2.089.125.125,0,0,1,.149.114.131.131,0,0,1-.112.149A5.245,5.245,0,0,1,695.108,155.808Z" transform="translate(-684.054 -134.303)" fill="#9f6464"/>
          </g>
          <g id="Grupo_69157" data-name="Grupo 69157" transform="translate(5.215 11.923)">
            <g id="Grupo_69155" data-name="Grupo 69155" transform="translate(4.303)">
              <path id="Trazado_100912" data-name="Trazado 100912" d="M694.362,149.372a.389.389,0,0,1-.18,0,1.739,1.739,0,0,0-1.01.156.415.415,0,0,1-.565-.164.42.42,0,0,1,.164-.568,2.576,2.576,0,0,1,1.561-.243.415.415,0,0,1,.333.485A.41.41,0,0,1,694.362,149.372Z" transform="translate(-692.556 -148.523)" fill="#9f6464"/>
              <path id="Trazado_100913" data-name="Trazado 100913" d="M693.843,149.906c.009.342-.114.626-.274.634s-.305-.273-.315-.615.114-.631.276-.634S693.831,149.561,693.843,149.906Z" transform="translate(-692.226 -148.159)" fill="#9f6464"/>
            </g>
            <g id="Grupo_69156" data-name="Grupo 69156" transform="translate(8.958)">
              <path id="Trazado_100914" data-name="Trazado 100914" d="M696.023,149.372a.39.39,0,0,0,.18,0,1.732,1.732,0,0,1,1.008.156.418.418,0,0,0,.4-.731,2.586,2.586,0,0,0-1.563-.243.413.413,0,0,0-.332.485A.408.408,0,0,0,696.023,149.372Z" transform="translate(-695.714 -148.523)" fill="#9f6464"/>
              <path id="Trazado_100915" data-name="Trazado 100915" d="M696.053,149.906c-.01.342.114.626.276.634s.3-.273.313-.615-.114-.631-.274-.634S696.064,149.561,696.053,149.906Z" transform="translate(-695.554 -148.159)" fill="#9f6464"/>
            </g>
            <path id="Trazado_100916" data-name="Trazado 100916" d="M695.728,152.868a5.988,5.988,0,0,1-.663-.044.13.13,0,0,1-.116-.146.128.128,0,0,1,.146-.116,3.6,3.6,0,0,0,.93.024,8.616,8.616,0,0,0-.508-3.018.132.132,0,0,1,.25-.084c.032.1.792,2.392.488,3.253a.13.13,0,0,1-.068.075A1.186,1.186,0,0,1,695.728,152.868Z" transform="translate(-687.119 -148.11)" fill="#9f6464"/>
            <path id="Trazado_100917" data-name="Trazado 100917" d="M690.535,150.554a.133.133,0,0,1-.124-.086c-.18-.479-.486-1.017-.666-1.053a.13.13,0,0,1-.1-.155.14.14,0,0,1,.153-.1c.417.081.793,1.029.865,1.218a.131.131,0,0,1-.078.171A.114.114,0,0,1,690.535,150.554Z" transform="translate(-689.637 -148.223)" fill="#9f6464"/>
            <path id="Trazado_100918" data-name="Trazado 100918" d="M690.151,149.928a.125.125,0,0,1-.04-.006l-.383-.124a.132.132,0,0,1,.081-.252l.383.124a.133.133,0,0,1,.084.167A.13.13,0,0,1,690.151,149.928Z" transform="translate(-689.637 -148.041)" fill="#9f6464"/>
          </g>
          <path id="Trazado_100919" data-name="Trazado 100919" d="M695.214,153.065a2.331,2.331,0,0,1-1.309-.371.134.134,0,0,1-.037-.184.131.131,0,0,1,.183-.037,2.618,2.618,0,0,0,2.161.155.132.132,0,0,1,.1.246A3.245,3.245,0,0,1,695.214,153.065Z" transform="translate(-682.426 -134.738)" fill="#9f6464"/>
        </g>
      </g>
      <g id="Grupo_69160" data-name="Grupo 69160" transform="translate(40.234 73.738)">
        <path id="Trazado_100920" data-name="Trazado 100920" d="M699.022,201.128c-3.075-1.316-7.885-2.776-11.038-.012-1.633,1.43,1.492,1.509,3.159,1.726a17.29,17.29,0,0,0,6.228-.29,42.379,42.379,0,0,0-6.667,4.15c2.257.417,5.711-1.194,7.391-2.528a6.348,6.348,0,0,0-2.251,2.307,15.576,15.576,0,0,0,3.178-2.419c-.733,2.513-3.921,5.423-1.884,8.078,1.449,1.89,1.655-.062,2.787-1.585a18.476,18.476,0,0,0,2.82-4.173c.4,1.468.416,2.969,1.772,3.962a3.459,3.459,0,0,1,.283-2.353,26.083,26.083,0,0,1,1.958,2.35c-.066-.864-.256-1.757-.332-2.622a9.683,9.683,0,0,1,1.086,1.33,10.3,10.3,0,0,1-.258-1.8,14.129,14.129,0,0,0,8.622,5.145c.06-2.443-2.222-5.506-4.172-7.061a18.609,18.609,0,0,1,6.6,2.145,4.009,4.009,0,0,1-1.706-2.158,5.023,5.023,0,0,1,2.272.753c-1.176-.635-2.453-1.281-2.729-2.462,2.261-1.128,5.071-1.094,7.52-1.639-1.611-1.844-6.035-2.854-8.677-2.636,1.8-.786,3.647-1.507,5.416-2.3-1.773-1.151-4.562-1.148-6.766-.606a5.406,5.406,0,0,0,2.065-1.666c-1.641-.578.165-3.332.694-4.4-3.395.1-6.249,2.7-8.2,4.922-.295-1.4.31-2.836-.025-4.179-2.624-.088-3.221,2.872-3.33,4.595a5.174,5.174,0,0,1-.759-2.372c-.2.659-.345,1.437-.545,1.992-.344-.762-.627-1.539-.914-2.317-1.713.677-5.155-1.857-7.41-1.763.1,2.031,3.393,3.9,4.11,6.079a6.22,6.22,0,0,0-4.9-2.111c.831.826,2.333,1.339,3.072,2.435a4.8,4.8,0,0,1-3.143-.781,8.831,8.831,0,0,1,1.706,1.387,6.337,6.337,0,0,1-2.45-.342c1.737,1.144,3.862,3.137,5.911,3.516Z" transform="translate(-687.525 -190.376)" fill="#81c9b1"/>
        <path id="Trazado_100921" data-name="Trazado 100921" d="M697.634,198.7a3.352,3.352,0,0,0,.475,1.546c.572.691,1.725.106,1.064-.6,1.672-.131-.217-1.456-.988-1.495.422-.066,1.234-.251,1.48-.624.416-.57-.074-.929-.669-.662.083-.489.143-1.947-.682-1.125a4.026,4.026,0,0,0-.523,1.748c-.14-.528-.28-1.607-.935-1.807-.618-.147-.677.482-.439.982-1.256-.441-.557.868.125,1.166-.484-.127-1.2-.2-1.427.313-.208.423.221,1.137.616.7-.292.915.488,1.182.87.283-.053.314-.464.84-.382,1.176.12.386.551.55.767.081.377,1.026,1.188.566.936-.392a6.516,6.516,0,0,1-.361-1.39Z" transform="translate(-683.952 -187.952)" fill="#e8ca4d"/>
        <path id="Trazado_100922" data-name="Trazado 100922" d="M700.239,194.895a3.356,3.356,0,0,0,.475,1.548c.572.691,1.723.106,1.063-.6,1.675-.131-.212-1.456-.988-1.495.425-.068,1.235-.252,1.48-.624.419-.57-.074-.929-.666-.662.081-.491.143-1.947-.684-1.125a3.981,3.981,0,0,0-.52,1.748c-.141-.528-.281-1.607-.935-1.809-.619-.147-.678.484-.442.982-1.256-.439-.559.87.127,1.166-.484-.125-1.206-.2-1.428.313-.209.425.221,1.137.616.7-.29.914.49,1.182.87.283-.052.313-.463.84-.38,1.175.119.386.55.551.766.083.376,1.026,1.188.566.936-.392a6.611,6.611,0,0,1-.364-1.392Z" transform="translate(-682.717 -189.753)" fill="#e8ca4d"/>
        <path id="Trazado_100923" data-name="Trazado 100923" d="M704.578,196a3.343,3.343,0,0,0-1.576.367c-.73.52-.227,1.71.526,1.1.013,1.678,1.468-.112,1.56-.88a2.509,2.509,0,0,0,.519,1.52c.54.456.932-.007.706-.619.484.115,1.934.277,1.169-.6a3.959,3.959,0,0,0-1.705-.643c.535-.1,1.621-.168,1.868-.806.19-.606-.432-.709-.948-.507.526-1.224-.828-.618-1.172.043.159-.473.285-1.187-.212-1.446-.407-.239-1.148.142-.739.566-.892-.355-1.215.405-.345.846-.308-.072-.8-.519-1.144-.461-.394.091-.588.512-.135.759-1.05.305-.649,1.147.326.961a6.555,6.555,0,0,1,1.412-.264Z" transform="translate(-680.506 -188.916)" fill="#e8ca4d"/>
        <path id="Trazado_100924" data-name="Trazado 100924" d="M701.529,199.562a3.385,3.385,0,0,0-1.579.366c-.73.522-.226,1.711.526,1.1.015,1.678,1.468-.111,1.56-.88a2.528,2.528,0,0,0,.519,1.52c.541.456.932-.007.706-.621.485.118,1.934.279,1.17-.6a4,4,0,0,0-1.707-.643c.535-.1,1.623-.17,1.869-.806.192-.606-.433-.711-.949-.507.529-1.222-.827-.619-1.172.043.161-.473.286-1.187-.209-1.446-.411-.237-1.151.142-.741.566-.892-.355-1.213.405-.343.848-.31-.074-.806-.52-1.145-.461-.394.091-.587.509-.136.758-1.05.305-.647,1.145.327.963a6.455,6.455,0,0,1,1.412-.265Z" transform="translate(-681.952 -187.228)" fill="#e8ca4d"/>
        <path id="Trazado_100925" data-name="Trazado 100925" d="M707.857,200.637a3.391,3.391,0,0,0-1.577.366c-.73.522-.227,1.711.526,1.1.015,1.678,1.468-.112,1.56-.88a2.512,2.512,0,0,0,.519,1.518c.539.458.932-.006.708-.619.484.116,1.932.28,1.169-.6a4.022,4.022,0,0,0-1.707-.643c.538-.1,1.621-.168,1.868-.8.192-.606-.432-.709-.948-.509.529-1.222-.827-.618-1.172.044.159-.475.286-1.187-.211-1.448-.408-.237-1.148.143-.74.568-.893-.355-1.213.405-.344.848-.308-.074-.8-.52-1.145-.463-.394.091-.585.51-.136.758-1.05.305-.647,1.147.326.963a6.685,6.685,0,0,1,1.414-.265Z" transform="translate(-678.952 -186.719)" fill="#e8ca4d"/>
        <path id="Trazado_100926" data-name="Trazado 100926" d="M704.3,202.714a3.321,3.321,0,0,0-1.576.367c-.73.52-.227,1.71.523,1.1.015,1.676,1.47-.112,1.561-.88a2.5,2.5,0,0,0,.517,1.518c.542.457.932-.007.708-.619.484.116,1.933.279,1.17-.6a3.981,3.981,0,0,0-1.708-.641c.538-.1,1.623-.171,1.869-.806.192-.606-.433-.711-.946-.509.526-1.222-.828-.618-1.173.043.159-.473.284-1.187-.211-1.446-.408-.237-1.15.142-.74.568-.893-.355-1.213.4-.345.846-.307-.072-.8-.519-1.144-.461-.394.091-.588.51-.136.758-1.05.305-.647,1.145.323.961a6.725,6.725,0,0,1,1.414-.264Z" transform="translate(-680.64 -185.735)" fill="#e8ca4d"/>
        <path id="Trazado_100927" data-name="Trazado 100927" d="M697.8,202.545a3.336,3.336,0,0,0-1.576.366c-.73.52-.227,1.71.525,1.1.013,1.675,1.467-.112,1.561-.882a2.517,2.517,0,0,0,.516,1.52c.543.455.932-.009.709-.621.482.118,1.931.279,1.169-.6a3.994,3.994,0,0,0-1.706-.641c.535-.1,1.62-.17,1.866-.806.192-.606-.433-.709-.946-.507.526-1.224-.83-.619-1.172.041.158-.472.284-1.187-.212-1.446-.407-.236-1.148.143-.74.566-.892-.354-1.213.407-.343.848-.307-.072-.8-.519-1.144-.461-.394.091-.588.51-.137.758-1.049.305-.647,1.147.326.963a6.49,6.49,0,0,1,1.412-.262Z" transform="translate(-683.721 -185.815)" fill="#e8ca4d"/>
        <path id="Trazado_100928" data-name="Trazado 100928" d="M693.164,199.437a3.359,3.359,0,0,0-1.577.364c-.73.522-.227,1.711.525,1.1.015,1.679,1.47-.112,1.561-.88a2.509,2.509,0,0,0,.517,1.518c.541.457.932-.006.708-.618.483.116,1.934.279,1.169-.6a4,4,0,0,0-1.705-.644c.535-.1,1.621-.167,1.868-.8.192-.606-.435-.711-.948-.507.526-1.224-.828-.619-1.173.041.161-.472.286-1.187-.209-1.445-.408-.239-1.151.142-.741.566-.89-.355-1.213.405-.344.846-.308-.072-.8-.519-1.145-.461-.394.091-.588.51-.136.759-1.05.305-.647,1.147.327.963a6.461,6.461,0,0,1,1.411-.265Z" transform="translate(-685.918 -187.289)" fill="#e8ca4d"/>
        <path id="Trazado_100929" data-name="Trazado 100929" d="M695.82,194.294a3.344,3.344,0,0,0-1.577.366c-.731.522-.227,1.711.525,1.1.015,1.678,1.47-.112,1.561-.882a2.524,2.524,0,0,0,.517,1.52c.54.457.933-.006.706-.619.486.116,1.932.279,1.169-.6a4,4,0,0,0-1.706-.643c.537-.1,1.623-.168,1.869-.806.192-.606-.433-.709-.948-.506.528-1.224-.828-.619-1.172.041.159-.472.285-1.185-.211-1.446-.408-.237-1.151.143-.74.568-.893-.355-1.213.405-.345.846-.307-.072-.8-.519-1.145-.461-.394.091-.587.51-.136.758-1.048.305-.646,1.147.326.963a6.6,6.6,0,0,1,1.412-.265Z" transform="translate(-684.659 -189.727)" fill="#e8ca4d"/>
      </g>
      <g id="Grupo_69167" data-name="Grupo 69167" transform="translate(83.703)">
        <path id="Trazado_100930" data-name="Trazado 100930" d="M728.984,240.007l-.193,5.827-4.873-.275.109-6.782Z" transform="translate(-713.739 -93.69)" fill="#ff8f67"/>
        <path id="Trazado_100931" data-name="Trazado 100931" d="M731.61,243.211l.812,3.592-.336,2.984h-13.56v-1.219l7.865-5.7S728.152,244.093,731.61,243.211Z" transform="translate(-716.295 -91.749)" fill="#935151"/>
        <path id="Trazado_100932" data-name="Trazado 100932" d="M736.894,240.007l.193,5.827,4.873-.275-.109-6.782Z" transform="translate(-707.586 -93.69)" fill="#ff8f67"/>
        <path id="Trazado_100933" data-name="Trazado 100933" d="M737.108,243.211,736.3,246.8l.336,2.984H750.2v-1.219l-7.867-5.7S740.567,244.093,737.108,243.211Z" transform="translate(-707.87 -91.749)" fill="#935151"/>
        <path id="Trazado_100934" data-name="Trazado 100934" d="M750.485,233.467c.158-1.843.825-3.485.821-5.358,0-1.822-.644-3.421-.821-5.193-.408-4.066,1.058-8.394-.361-12.312-.69-1.9-1.813-24.479-.852-24.609l-6.548.883.212-1.592-14.411.961.119.332L724.315,186c.958.13-.162,22.706-.854,24.609-1.42,3.918.047,8.246-.36,12.312-.177,1.772-.821,3.371-.823,5.193,0,1.874.662,3.516.823,5.358.347,4.01-.674,7.359.052,11.371.827,4.586.168,9.383.725,14.014.327,2.72-.15,6.645-.159,9.4l8.03.206,5.043-59.592,5.044,59.592,8.029-.206c-.009-2.755-.486-6.681-.159-9.4.559-4.632-.1-9.428.727-14.014C751.158,240.826,750.137,237.477,750.485,233.467Z" transform="translate(-714.516 -119.051)" fill="#4d3c4b"/>
        <path id="Trazado_100935" data-name="Trazado 100935" d="M733.962,154.634a4,4,0,0,0-1.535-.618l1.489,2.487Z" transform="translate(-709.705 -133.877)" fill="#5b4f5a"/>
        <g id="Grupo_69162" data-name="Grupo 69162" transform="translate(6.286 22.082)">
          <g id="Grupo_69161" data-name="Grupo 69161" transform="translate(0 3.794)">
            <path id="Trazado_100936" data-name="Trazado 100936" d="M753.154,168.92c-.11.548-.254,1.1-.417,1.666a26.89,26.89,0,0,0-.942,3.958c-.032.262-.066.513-.11.777-.066.494-.141.974-.229,1.465-.209,1.294-.439,2.609-.615,3.9-.043.3-.075.579-.108.877-.055.47-.1.932-.131,1.39v.034q-.117,1.822-.164,3.647c-.012.46-.024.932-.035,1.4-.022,1.381-.031,2.762-.043,4.154,0,.45-.012.9-.012,1.347-.012.974-.021,1.95-.043,2.926a10,10,0,0,0,.2,1.732,10.339,10.339,0,0,1,.2,1.3,3.235,3.235,0,0,1-.68,2.628c-1.347,1.514-4.754,1.306-6.576,1.392-14.69.581-18.614-2.354-18.614-2.354a4.775,4.775,0,0,1-.833-2.528c-.043-.453-.066-.912-.078-1.35a22.107,22.107,0,0,1,.122-2.587c-.044-.361-.087-.722-.133-1.083-.053-.45-.111-.91-.162-1.358-.111-.977-.23-1.962-.352-2.936-.054-.507-.119-1-.175-1.5-.14-1.173-.285-2.356-.426-3.529-.034-.283-.066-.569-.111-.854-.044-.46-.108-.932-.164-1.392-.109-.942-.23-1.9-.339-2.836-.075-.626-.155-1.241-.242-1.854-.065-.482-.13-.963-.2-1.434-.195-1.434-.37-2.848-.436-4.206-.024-.5-.034-.977-.024-1.448a14.251,14.251,0,0,1,.295-2.826c.012-.055.025-.121.034-.177a9.954,9.954,0,0,1,.273-.973c.022-.08.056-.156.078-.221a10.166,10.166,0,0,1,2.762-4.088,11.8,11.8,0,0,1,1.051-.852c.295-.22.6-.441.942-.647,1.269-.8,3.778-2.586,5.4-2.577l9.039.09a24.581,24.581,0,0,1,6.124,1.992c.427.211.846.439,1.253.682a13.2,13.2,0,0,1,3.185,2.552c.15.175.3.341.417.5v.012a6,6,0,0,1,.635,1,.06.06,0,0,0,.022.035c.009.031.022.065.031.1A6.223,6.223,0,0,1,753.154,168.92Z" transform="translate(-721.277 -157.908)" fill="#5b4f5a"/>
          </g>
          <path id="Trazado_100937" data-name="Trazado 100937" d="M730.607,162.93s-2.534-4.1-1.088-7.475l-2.892-.121s-2.106,6.21-1.506,10.792Z" transform="translate(-719.506 -155.334)" fill="#5b4f5a"/>
        </g>
        <g id="Grupo_69163" data-name="Grupo 69163" transform="translate(17.388 20.728)">
          <path id="Trazado_100938" data-name="Trazado 100938" d="M735.62,154.415s4.126,3.075,5.485,6.057c0,0-.724,1.81-5.336,7.5l-6.961-4.611S736.161,160.593,735.62,154.415Z" transform="translate(-728.808 -154.415)" fill="#5b4f5a"/>
        </g>
        <path id="Trazado_100939" data-name="Trazado 100939" d="M735.808,166.21a.179.179,0,0,1-.1-.029l-6.9-4.49a.182.182,0,0,1,.2-.3l6.757,4.4,5.2-7.183a.181.181,0,1,1,.293.211l-5.3,7.323A.185.185,0,0,1,735.808,166.21Z" transform="translate(-711.46 -131.739)" fill="#fff"/>
        <path id="Trazado_100940" data-name="Trazado 100940" d="M725.165,165.332a.193.193,0,0,1-.081-.019.18.18,0,0,1-.1-.143,25.6,25.6,0,0,1,.607-7.642.181.181,0,0,1,.217-.133.178.178,0,0,1,.134.217,25.586,25.586,0,0,0-.622,7.235l4.906-2.926a.181.181,0,1,1,.184.311l-5.155,3.075A.181.181,0,0,1,725.165,165.332Z" transform="translate(-713.264 -132.277)" fill="#fff"/>
        <g id="Grupo_69164" data-name="Grupo 69164" transform="translate(6.008 4.325)">
          <path id="Trazado_100941" data-name="Trazado 100941" d="M721.768,148.447c-1.947,5.513,3.461,18.519,10.277,13.45,2.2-1.635,3.25-4.357,3.743-6.962,0,0,1.826-12.294-8.433-11.62C727.355,143.315,722.664,143.978,721.768,148.447Z" transform="translate(-720.957 -143.288)" fill="#ff8f67"/>
          <path id="Trazado_100942" data-name="Trazado 100942" d="M735.332,161.651c-1.116,1.85-3.958,4.72-6.026,2.662-1.066-1.061-1.408-2.736-1.831-4.145a15.376,15.376,0,0,1-.892-5.009l6.355-4.141c.715,1.56,1.495,3.1,2.356,4.59.276.476.562.948.873,1.4.1.147.289.286.355.454a3.035,3.035,0,0,1-.214,2.158A13.109,13.109,0,0,1,735.332,161.651Z" transform="translate(-718.488 -139.623)" fill="#ff8f67"/>
          <path id="Trazado_100943" data-name="Trazado 100943" d="M723.544,150.682a.5.5,0,0,1-.239.037,2.281,2.281,0,0,0-1.325.376.563.563,0,0,1-.657-.914,3.457,3.457,0,0,1,2.045-.581.561.561,0,0,1,.177,1.082Z" transform="translate(-721.089 -140.298)" fill="#9f6464"/>
          <path id="Trazado_100944" data-name="Trazado 100944" d="M723.544,150.682a.5.5,0,0,1-.239.037,2.281,2.281,0,0,0-1.325.376.563.563,0,0,1-.657-.914,3.457,3.457,0,0,1,2.045-.581.561.561,0,0,1,.177,1.082Z" transform="translate(-721.089 -140.298)" fill="#9f6464"/>
          <path id="Trazado_100945" data-name="Trazado 100945" d="M725.565,150.441a.5.5,0,0,0,.239.013,2.289,2.289,0,0,1,1.356.245.563.563,0,0,0,.563-.974,3.458,3.458,0,0,0-2.093-.379.563.563,0,0,0-.467.644A.553.553,0,0,0,725.565,150.441Z" transform="translate(-719.161 -140.433)" fill="#9f6464"/>
          <path id="Trazado_100946" data-name="Trazado 100946" d="M727.193,158.486a.131.131,0,0,1-.043-.255c3.927-1.375,4.89-5.588,4.9-5.631a.132.132,0,0,1,.156-.1.13.13,0,0,1,.1.156c-.01.044-1,4.4-5.069,5.823A.155.155,0,0,1,727.193,158.486Z" transform="translate(-718.257 -138.922)" fill="#9f6464"/>
          <path id="Trazado_100947" data-name="Trazado 100947" d="M730.281,151.129c.149-.557.333-1.11.5-1.651a2.835,2.835,0,0,1,.775-1.473c.856-.569,1.58.407,1.692,1.166a6.415,6.415,0,0,1-.833,3.794,1.786,1.786,0,0,1-.94.815,1.2,1.2,0,0,1-1.153-.227,1.925,1.925,0,0,1-.279-1.224A8.707,8.707,0,0,1,730.281,151.129Z" transform="translate(-716.849 -141.132)" fill="#ff8f67"/>
          <path id="Trazado_100948" data-name="Trazado 100948" d="M730.276,151.282a.131.131,0,0,1-.04-.006.133.133,0,0,1-.085-.165c.48-1.471.98-2.214,1.53-2.272a.89.89,0,0,1,.753.448.131.131,0,1,1-.227.13s-.2-.343-.5-.315c-.242.025-.733.332-1.306,2.09A.131.131,0,0,1,730.276,151.282Z" transform="translate(-716.795 -140.657)" fill="#9f6464"/>
          <path id="Trazado_100949" data-name="Trazado 100949" d="M730.439,150.377a.131.131,0,0,1-.056-.249l1.03-.485a.131.131,0,1,1,.112.237l-1.03.485A.125.125,0,0,1,730.439,150.377Z" transform="translate(-716.718 -140.281)" fill="#9f6464"/>
          <path id="Trazado_100950" data-name="Trazado 100950" d="M724.717,154.573a.747.747,0,0,1-.152-.015.841.841,0,0,1-.638-.588,4.076,4.076,0,0,1-.127-1.776,4.969,4.969,0,0,0-.019-1.336.131.131,0,0,1,.256-.053,5.23,5.23,0,0,1,.025,1.408,3.817,3.817,0,0,0,.109,1.663.6.6,0,0,0,.439.425,1.4,1.4,0,0,0,1.117-.545.131.131,0,1,1,.195.174A1.793,1.793,0,0,1,724.717,154.573Z" transform="translate(-719.821 -139.773)" fill="#9f6464"/>
          <path id="Trazado_100951" data-name="Trazado 100951" d="M726.095,151.469a1.63,1.63,0,0,1-.778-.2.131.131,0,0,1-.054-.177.133.133,0,0,1,.178-.055,1.632,1.632,0,0,0,1.866-.369.131.131,0,0,1,.19.18A2.145,2.145,0,0,1,726.095,151.469Z" transform="translate(-719.117 -139.809)" fill="#9f6464"/>
          <path id="Trazado_100952" data-name="Trazado 100952" d="M722.718,151.953a2.281,2.281,0,0,1-1.025-.259.129.129,0,0,1-.049-.178.132.132,0,0,1,.178-.049,1.613,1.613,0,0,0,1.9-.192.131.131,0,1,1,.184.186A1.633,1.633,0,0,1,722.718,151.953Z" transform="translate(-720.833 -139.519)" fill="#9f6464"/>
        </g>
        <g id="Grupo_69165" data-name="Grupo 69165" transform="translate(7.339)">
          <path id="Trazado_100953" data-name="Trazado 100953" d="M730.894,146.79v-.1C730.894,146.73,730.932,146.941,730.894,146.79Z" transform="translate(-717.77 -137.349)" fill="#9f6464"/>
          <path id="Trazado_100954" data-name="Trazado 100954" d="M722.215,147.161c-.377-3.3,2.1-7.239,5.768-6.769a1,1,0,0,1,.057.918c1.135-.548,3.222.1,1.652.821.951-.264,2.179-.33,2.776.662.285.464.4.917-.026,1.1a1.521,1.521,0,0,1,1.269,1.8c.125-.358,1.094.206,1.212.354.388.473.28,1.019.324,1.567.027.313.177.439.287.724.071.19.261,1.658-.243,1.191a.385.385,0,0,1-.147.458,6.708,6.708,0,0,1-1.014-.97,7.776,7.776,0,0,1-.946-.936c.141.227.553,1.005.183,1.162s-1.3-1.144-1.656-1.3a1.947,1.947,0,0,0-1.129-.231c-.479.181.2.64-.041.943-.274.346-1.411-.215-1.722-.339a2.644,2.644,0,0,0-1.862-.212c.526-.139,1.576.6.73.848-.5.142-1.8-.762-2.2-.33-.414.45.6,1.175-.122,1.53-.479.236-1.113-.585-1.5-.158-.192.211-.136.486-.4.631-.629.343-1.29-.484-1.4-1A6.258,6.258,0,0,1,722.215,147.161Z" transform="translate(-721.991 -140.354)" fill="#9f6464"/>
        </g>
        <path id="Trazado_100955" data-name="Trazado 100955" d="M741.178,189.121c-1.89-1.107-4.5,2.783-6.958,1.667-.267,2.777,3.756.047,1.763,3.274-.948,1.533-3.4,2.5-3.628,4.293a3.506,3.506,0,0,0,2.562-1.019,2.214,2.214,0,0,0-1.12,1.841,3.352,3.352,0,0,0,2.378-.407,11.726,11.726,0,0,0-1.57,1.016,7.378,7.378,0,0,0,2.805-.17,8.118,8.118,0,0,0-1.157.585c2.608-.181,5.9-2.574,7.244-4.865.963-1.642.859-6.681-2.319-6.216Z" transform="translate(-709.739 -117.328)" fill="#ff8f67"/>
        <g id="Grupo_69166" data-name="Grupo 69166" transform="translate(29.244 32.166)">
          <path id="Trazado_100956" data-name="Trazado 100956" d="M758.628,191.746a2.788,2.788,0,0,1-.889,2.043l-15.624,13.435s-3.1-4.8-5.264-5.419l11.8-11.37a1.582,1.582,0,0,0,.231-1.906l-9.4-14.9s-.621-13,5.572-11.3C745.056,162.328,757.724,180.326,758.628,191.746Z" transform="translate(-736.851 -162.175)" fill="#5b4f5a"/>
        </g>
        <path id="Trazado_100957" data-name="Trazado 100957" d="M723.516,193.13a4.741,4.741,0,0,1,1.216,3.327c.128,1.309,1.122,2.344,1.206,3.52a1.564,1.564,0,0,1-1.776-1.07c-1.959.052-1.1,6.831-3.393,6.937a7.932,7.932,0,0,1-.021-3.55c.043.643-.391,4.072-1.359,3.236-.789-.681-.006-3.222-.08-4.175a7.709,7.709,0,0,1-.914,3.6c-.742-.833-.613-3.455-.327-4.411a10.084,10.084,0,0,1-.327,3.2c-1.106-.836-.385-4.686-.175-5.97.277-1.714.895-3.477,1.1-5.186.793.078,4.627.044,4.854.758Z" transform="translate(-716.952 -115.587)" fill="#ff8f67"/>
        <path id="Trazado_100958" data-name="Trazado 100958" d="M724.752,154.841a.133.133,0,0,1-.086-.031.131.131,0,0,1-.015-.184,2.513,2.513,0,0,1,2.892-.429.132.132,0,0,1,.074.171.134.134,0,0,1-.171.072,2.221,2.221,0,0,0-2.6.355A.13.13,0,0,1,724.752,154.841Z" transform="translate(-713.406 -133.91)" fill="#9f6464"/>
        <path id="Trazado_100959" data-name="Trazado 100959" d="M737.381,190.813a.206.206,0,0,1-.146-.351l5.49-5.627a.206.206,0,0,1,.295.287l-5.491,5.628A.208.208,0,0,1,737.381,190.813Z" transform="translate(-707.453 -119.294)" fill="#fff"/>
        <path id="Trazado_100960" data-name="Trazado 100960" d="M724.982,162.242s-11.942,18.322-6.589,45.7l6.073-.1s2.369-26.867,6.69-32.015l-4.94-12.969Z" transform="translate(-717.013 -129.977)" fill="#5b4f5a"/>
        <path id="Trazado_100961" data-name="Trazado 100961" d="M723.146,192.918a.206.206,0,0,1-.2-.165c-2.247-11.034,1.2-26.288,1.238-26.44a.2.2,0,0,1,.246-.155.2.2,0,0,1,.153.246c-.034.152-3.464,15.32-1.234,26.266a.207.207,0,0,1-.2.248Z" transform="translate(-714.561 -128.123)" fill="#fff"/>
      </g>
      <g id="Grupo_69173" data-name="Grupo 69173" transform="translate(126.494 10.452)">
        <path id="Trazado_100962" data-name="Trazado 100962" d="M748.936,207.4c-1.649-.886-1.644-3.933-1.672-5.5a24.55,24.55,0,0,1,.313-4.577,7.264,7.264,0,0,1,.18-1.647c.29-.348.957.049,1.337.019.457-.035.929-.32,1.389-.208.585.143.6,1.079.646,1.542a4.686,4.686,0,0,0,.568,2.095c.137.249,2.136,3.713,1.729,3.79a1.518,1.518,0,0,1-1.74-.777,26.517,26.517,0,0,1-.482,5.47c-.774-.239-1.055-1.145-1.212-1.969a19.78,19.78,0,0,1-.025,2.174c-.678-.286-.843-1.16-1-1.978A9.118,9.118,0,0,1,748.936,207.4Z" transform="translate(-745.464 -124.678)" fill="#ff8f67"/>
        <path id="Trazado_100963" data-name="Trazado 100963" d="M757.878,164.54s-12.8,12.876-10.332,46.228l4.427-.1,7.309-32.015Z" transform="translate(-745.478 -139.339)" fill="#5b4f5a"/>
        <path id="Trazado_100964" data-name="Trazado 100964" d="M774.068,207.962c1.651-.884,1.645-3.931,1.673-5.5a24.513,24.513,0,0,0-.312-4.576,7.355,7.355,0,0,0-.18-1.647c-.29-.348-.957.047-1.336.019-.46-.037-.93-.321-1.39-.208-.585.143-.594,1.078-.644,1.54a4.718,4.718,0,0,1-.571,2.1c-.135.249-2.134,3.713-1.728,3.79a1.519,1.519,0,0,0,1.739-.777,26.548,26.548,0,0,0,.484,5.472c.772-.24,1.052-1.148,1.212-1.971a19.426,19.426,0,0,0,.024,2.174c.678-.286.842-1.162,1.005-1.978A9.1,9.1,0,0,0,774.068,207.962Z" transform="translate(-734.907 -124.413)" fill="#ff8f67"/>
        <path id="Trazado_100965" data-name="Trazado 100965" d="M772.836,189.961a8.61,8.61,0,0,1,.588,3.159l-.761,19.628h4.254l3.183-20.608a8.841,8.841,0,0,0-.212-3.208L772.8,164.709l-6.178,10.844Z" transform="translate(-736.283 -139.259)" fill="#5b4f5a"/>
        <g id="Grupo_69172" data-name="Grupo 69172">
          <path id="Trazado_100966" data-name="Trazado 100966" d="M753.946,155.136c-.426.765.233,1.986.444,2.823a3.221,3.221,0,0,1-.47,2.618,4.066,4.066,0,0,0-.812,2.611c.124.905.843,1.477.839,2.406-.006,1.165-1.12,1.969-1.445,3.057a3.1,3.1,0,0,0-.109,1.65c.233.507.811.514.926,1.147.137.749-.814,1.623.024,2.277.747.585,1.635-.228,2.3-.473,1.428-.525,1.566.682,2.823,1.106,1.664.56,2.4-.768,3.427-1.448.59-.388.526.246.839-.54a5.678,5.678,0,0,0-.206-2.468c-.1-.722.189-2.252-.211-2.851-.469-.694-2.058-.581-2.821-.733-1.07-.212-1.989-.239-2.62-1.247a11,11,0,0,1-1.044-5.126c.087-1.05.75-2.087.737-3.137-.009-.609-.261-1.078-.32-1.7a9.792,9.792,0,0,0-.106-1.956c-1.094-3.678-3.895,1.785-2.192,3.137Z" transform="translate(-743.068 -145.332)" fill="#9f6464"/>
          <path id="Trazado_100967" data-name="Trazado 100967" d="M750.768,202.47l12.437,3.749c-.706,5.672-1.75,12.708-2.453,18.382-.4,3.268.419,6.485.432,9.7.024,6.3-1.078,12.773-1.557,19.116-.01.113-.083,6.912.423,8.6,0,0-3.917,5.963-9.626,1.961.943-1.509,2.533-2.628,3.206-4.313.684-1.7.286-3.9.2-5.686-.128-2.795-.435-4.785-.566-7.581q-.4-8.5-.795-17.011Z" transform="translate(-743.963 -121.356)" fill="#ff8f67"/>
          <path id="Trazado_100968" data-name="Trazado 100968" d="M759.518,201.661l11.588,2.272q-.624,5.139-1.241,10.278c-.438,3.6-1.492,7.117-1.573,10.733-.077,3.345.84,6.564.89,9.89a74.966,74.966,0,0,1-.632,11.33c-.46,3.4-1.738,7.164-1.249,10.634.171,1.212.84,2.432,1.131,3.65q.341,1.448.687,2.9l-3.806,3.18-3.609-3.18,1.151-5.692c.653-3.227.093-6.292-.684-9.436-1.678-6.815-.436-13.733-1.529-20.655C759.3,219.067,759.6,210.289,759.518,201.661Z" transform="translate(-739.652 -121.739)" fill="#ff8f67"/>
          <path id="Trazado_100969" data-name="Trazado 100969" d="M769.87,163.515l9.557,4.26s-3.187,8.009-2.73,11.929c0,0-4.1,9.2-2.883,15.506l-18.05-.342c-1.05-4.2-2.2-7.91-3.3-12.1a14.738,14.738,0,0,1-.041-8.663c.27-1.023,2.649-9.107,3.295-9.083a43.133,43.133,0,0,1,6.948-1.072C765.623,163.788,768.468,164.382,769.87,163.515Z" transform="translate(-743.315 -139.825)" fill="#5b4f5a"/>
          <g id="Grupo_69171" data-name="Grupo 69171" transform="translate(11.398 2.965)">
            <path id="Trazado_100970" data-name="Trazado 100970" d="M759.314,161.5c-.746.265-1.387.7-1.1,1.636a7.667,7.667,0,0,1,.749,2.978c-.125,1.023-.708,1.891-.519,2.973.554,3.146,4.977,2.064,6.693.839,1.474-1.053,2.67-3.259,1.411-4.85a6.56,6.56,0,0,1-1.286-2.687c-.062-.267-.516-2.692-.273-2.78-1.537.551-3.091,1.167-4.661,1.6C760.025,161.29,759.658,161.374,759.314,161.5Z" transform="translate(-751.699 -144.643)" fill="#ff8f67"/>
            <g id="Grupo_69170" data-name="Grupo 69170">
              <path id="Trazado_100971" data-name="Trazado 100971" d="M754.094,162.409a9.229,9.229,0,0,0,.287-2.267c-.072-1.675-.917-3.155-.488-4.971a6.918,6.918,0,0,1,4.157-5.025,7.759,7.759,0,0,1,7.545.669c3.926,2.618,4.58,7.733,2.322,11.812a12.643,12.643,0,0,1-2.671,3.881,11.207,11.207,0,0,1-3.861,2.135c-2.28.743-4.327.827-5.633-1.53-.441-.8-1.032-1.456-1.421-2.325A3.687,3.687,0,0,1,754.094,162.409Z" transform="translate(-753.773 -149.455)" fill="#ff8f67"/>
              <path id="Trazado_100972" data-name="Trazado 100972" d="M759.309,163.6a.182.182,0,0,1-.028-.363,5.727,5.727,0,0,0,4.021-3.653.181.181,0,1,1,.336.137,5.978,5.978,0,0,1-4.3,3.875Z" transform="translate(-751.234 -144.708)" fill="#9f6464"/>
              <g id="Grupo_69168" data-name="Grupo 69168" transform="translate(5.509 9.029)">
                <path id="Trazado_100973" data-name="Trazado 100973" d="M757.83,156.46a.409.409,0,0,0,.184,0,1.793,1.793,0,0,1,1.044.165.432.432,0,0,0,.42-.755,2.663,2.663,0,0,0-1.617-.257.433.433,0,0,0-.031.843Z" transform="translate(-757.51 -155.58)" fill="#a86060"/>
                <path id="Trazado_100974" data-name="Trazado 100974" d="M757.784,157.444c-.013.5.164.914.4.921s.444-.394.46-.893-.164-.914-.4-.921S757.8,156.943,757.784,157.444Z" transform="translate(-757.38 -155.12)" fill="#9f6464"/>
              </g>
              <g id="Grupo_69169" data-name="Grupo 69169" transform="translate(0.564 9.149)">
                <path id="Trazado_100975" data-name="Trazado 100975" d="M754.572,156.676a.369.369,0,0,0,.178-.038,1.711,1.711,0,0,1,1.039-.081.427.427,0,1,0,.227-.823,2.609,2.609,0,0,0-1.607.127.426.426,0,0,0,.162.815Z" transform="translate(-754.156 -155.662)" fill="#a86060"/>
                <path id="Trazado_100976" data-name="Trazado 100976" d="M754.87,157.593c.1.494.37.852.606.8s.339-.484.237-.973-.369-.851-.6-.8S754.769,157.1,754.87,157.593Z" transform="translate(-753.835 -155.209)" fill="#9f6464"/>
              </g>
              <path id="Trazado_100977" data-name="Trazado 100977" d="M756.823,160.39a1.065,1.065,0,0,1-.734-.252c-.432-.383-.218-.97-.046-1.439a2.736,2.736,0,0,0,.14-.453l.016-.086a2.034,2.034,0,0,0,.021-.989.191.191,0,1,1,.336-.181,2.125,2.125,0,0,1,.019,1.237l-.015.084a3.13,3.13,0,0,1-.158.519c-.174.475-.28.826-.06,1.022.315.277.877.125,1.274-.012a.191.191,0,0,1,.127.361A2.909,2.909,0,0,1,756.823,160.39Z" transform="translate(-752.795 -145.931)" fill="#9f6464"/>
            </g>
          </g>
          <path id="Trazado_100978" data-name="Trazado 100978" d="M768.1,242.58s3.293,7.385-2.953,7.609c0,0-6.022.228-3.862-7.5C761.288,242.692,765.151,247.122,768.1,242.58Z" transform="translate(-739.034 -102.339)" fill="#935151"/>
          <path id="Trazado_100979" data-name="Trazado 100979" d="M746.234,249.229c.7,1.141,4.838.4,5.929.4,1.337,0,2.242-.171,3.578-.171l3.579-1.7.342,1.7,2.045-.17a21.135,21.135,0,0,0,.531-6.495c-1.651,1.443-5.187,3.688-9.269,1.132l-3.191,2.3C749.15,246.674,745.123,247.438,746.234,249.229Z" transform="translate(-746.041 -102.236)" fill="#935151"/>
          <path id="Trazado_100980" data-name="Trazado 100980" d="M758.743,160.6a.175.175,0,0,1-.06-.012,3.93,3.93,0,0,0-2.422-.14.181.181,0,1,1-.124-.341,4.176,4.176,0,0,1,2.667.139.18.18,0,0,1,.111.231A.182.182,0,0,1,758.743,160.6Z" transform="translate(-741.312 -141.512)" fill="#9f6464"/>
          <path id="Trazado_100981" data-name="Trazado 100981" d="M785.763,242.988c-1.708-7.872-4.238-15.723-4.969-23.648-.792-8.541-.621-17.49-2.407-25.891-.258-1.222-1.878-10-3.575-10.345l-1.135-.229-15.449-.053c-5.475,9.476-9.763,53.481-10.363,60.237A123.253,123.253,0,0,0,785.763,242.988Z" transform="translate(-745.176 -130.671)" fill="#5b4f5a"/>
          <path id="Trazado_100982" data-name="Trazado 100982" d="M764.6,155.863a9.474,9.474,0,0,0-.279,2.939c-1.038.189-2.07.318-3.078.4a12.719,12.719,0,0,1-.145-2.867,15.458,15.458,0,0,0-.28,2.9c-.646.059-1.282.088-1.891.111a7.73,7.73,0,0,1-.159-2.7,5.231,5.231,0,0,0-.069,2.7c-1.033.024-2.008.012-2.9-.021-.43-1.28.184-3.559.388-5.3a6.665,6.665,0,0,0-1.216,2.6c-.13.476-.037,1.949-.131,2.65-1.365-.078-2.485-.206-3.218-.3a20.654,20.654,0,0,1,1.088-4.72,10.9,10.9,0,0,1,6.853-6.3,9.633,9.633,0,0,1,6.693.2c3.436,1.3,3.721,4.262,3.508,7.488-.018.345.006.964,0,1.576a24.493,24.493,0,0,1-5.05,1.517A6.992,6.992,0,0,1,764.6,155.863Z" transform="translate(-743.396 -147.444)" fill="#9f6464"/>
          <path id="Trazado_100983" data-name="Trazado 100983" d="M776.735,164.17a4.283,4.283,0,0,0-.086-.884c-.358-1.691-1.588-3.048-1.984-4.726a7.834,7.834,0,0,0-.915-2.571c-.55-.845-1.549-1.321-1.992-2.233a5.824,5.824,0,0,0-2.478-2.746c-.793-.466-1.319-1.474-2.211-1.731a7.167,7.167,0,0,1-2.363-.9,2.61,2.61,0,0,0-1.756-.663,4.689,4.689,0,0,0-3.951,1.8c-.908,1.483.085,1.909,1.044,2.777a9.912,9.912,0,0,1,1.276,2.037c.484.709,1.2,1.194,1.445,2.065.224.806-.074,1.791.177,2.615.162.535.616.927.775,1.448.218.718-.1,1.166-.178,1.854a10.669,10.669,0,0,0,.685,3.47c.287,1.277-.416,2.544-.136,3.806.149.684.691.848.942,1.39a2.587,2.587,0,0,1,.026,1.647c-.112.943,1.229,2.482,2.133,2.727.6.161,1.254-.259,1.882-.212.82.06,1.521.647,2.379.525,1.1-.155,1.206-.525,2.338-.255,1.772.423,3.351-.369,3.532-2.275.124-1.3.681-2.578.706-3.88.018-.963-.8-1.591-1.122-2.444A7.482,7.482,0,0,1,776.735,164.17Z" transform="translate(-740.067 -147.317)" fill="#9f6464"/>
        </g>
        <path id="Trazado_100984" data-name="Trazado 100984" d="M769.248,177.765a.206.206,0,0,1-.187-.121l-2.883-6.383a.205.205,0,1,1,.374-.17l2.883,6.381a.2.2,0,0,1-.1.273A.188.188,0,0,1,769.248,177.765Z" transform="translate(-736.503 -136.29)" fill="#fff"/>
        <path id="Trazado_100985" data-name="Trazado 100985" d="M754.343,188.948a.208.208,0,0,1-.2-.161c-.187-.836-.4-1.962-.6-3.05s-.414-2.236-.6-3.074l-.268-1.165c-.187-.815-.376-1.629-.548-2.449a12.224,12.224,0,0,1-.317-4.5c.214-1.131.519-2.226.789-3.15.146-.5.289-1.073.435-1.66.24-.955.486-1.944.777-2.752a.2.2,0,0,1,.264-.124.206.206,0,0,1,.124.264c-.284.787-.528,1.766-.764,2.712-.149.591-.292,1.167-.441,1.676a32,32,0,0,0-.777,3.109,11.743,11.743,0,0,0,.314,4.343c.172.815.36,1.627.547,2.441l.265,1.165c.192.846.4,1.987.609,3.09.2,1.085.41,2.205.6,3.035a.208.208,0,0,1-.158.246A.213.213,0,0,1,754.343,188.948Z" transform="translate(-743.354 -138.243)" fill="#fff"/>
        <path id="Trazado_100986" data-name="Trazado 100986" d="M747.338,194.562h0a.2.2,0,0,1-.2-.211c.137-6.532,3.13-20.079,3.159-20.216a.2.2,0,0,1,.246-.156.208.208,0,0,1,.158.246c-.031.136-3.015,13.643-3.152,20.135A.206.206,0,0,1,747.338,194.562Z" transform="translate(-745.524 -134.867)" fill="#fff"/>
      </g>
      <g id="Grupo_69176" data-name="Grupo 69176" transform="translate(11.69 85.909)">
        <g id="Grupo_69174" data-name="Grupo 69174">
          <path id="Trazado_100987" data-name="Trazado 100987" d="M758.1,222.956l-88.465.5,2.978-1.946,2.712-1.773,7.824-5.11,2.719-1.779,21.75-14.215h13.329l21.713,14.215,2.718,1.779,7.8,5.11,2.714,1.773Z" transform="translate(-667.465 -198.632)" fill="#aa6868"/>
          <rect id="Rectángulo_5386" data-name="Rectángulo 5386" width="88.408" height="48.981" transform="translate(2.444 27.545)" fill="#aa6868"/>
          <rect id="Rectángulo_5387" data-name="Rectángulo 5387" width="69.306" height="45.093" transform="translate(11.995 27.545)" fill="#b57878"/>
          <rect id="Rectángulo_5388" data-name="Rectángulo 5388" width="75.97" height="4.221" transform="translate(8.218 72.195)" fill="#aa6868"/>
          <rect id="Rectángulo_5389" data-name="Rectángulo 5389" width="93.297" height="6.664" transform="translate(0 22.825)" fill="#aa6868"/>
          <path id="Trazado_100988" data-name="Trazado 100988" d="M754.932,214.723H671.65l2.712-1.773h77.856Z" transform="translate(-666.507 -191.844)" fill="#b57878"/>
          <path id="Trazado_100989" data-name="Trazado 100989" d="M741.027,210.055H678.8l2.719-1.779h56.792Z" transform="translate(-663.118 -194.06)" fill="#b57878"/>
        </g>
        <g id="Grupo_69175" data-name="Grupo 69175" transform="translate(23.546 41.538)">
          <rect id="Rectángulo_5390" data-name="Rectángulo 5390" width="35.759" height="15.773" transform="translate(6.223)" fill="#aa6868"/>
          <rect id="Rectángulo_5391" data-name="Rectángulo 5391" width="31.32" height="12.128" transform="translate(8.662 3.645)" fill="#9b5656"/>
          <path id="Trazado_100990" data-name="Trazado 100990" d="M730.782,241.233H685.467a1.333,1.333,0,0,1,0-2.667h45.316a1.333,1.333,0,1,1,0,2.667Z" transform="translate(-684.134 -221.237)" fill="#aa6868"/>
          <path id="Trazado_100991" data-name="Trazado 100991" d="M693.367,246.758a2,2,0,0,1-2-2v-9.995a2,2,0,0,1,4,0v9.995A2,2,0,0,1,693.367,246.758Z" transform="translate(-680.705 -223.988)" fill="#aa6868"/>
          <path id="Trazado_100992" data-name="Trazado 100992" d="M709.186,246.758a2,2,0,0,1-2-2v-9.995a2,2,0,0,1,4,0v9.995A2,2,0,0,1,709.186,246.758Z" transform="translate(-673.205 -223.988)" fill="#aa6868"/>
        </g>
      </g>
      <g id="Grupo_69177" data-name="Grupo 69177" transform="translate(0 144.547)">
        <path id="Trazado_100993" data-name="Trazado 100993" d="M671.728,249.163c-3.078-1.315-7.885-2.776-11.038-.012-1.632,1.431,1.49,1.511,3.158,1.728a17.267,17.267,0,0,0,6.23-.292,42.143,42.143,0,0,0-6.667,4.15c2.255.419,5.709-1.194,7.391-2.527a6.3,6.3,0,0,0-2.251,2.306,15.608,15.608,0,0,0,3.178-2.419c-.734,2.515-3.923,5.425-1.887,8.08,1.451,1.888,1.657-.063,2.789-1.583a18.589,18.589,0,0,0,2.82-4.175c.4,1.468.417,2.967,1.77,3.962a3.475,3.475,0,0,1,.284-2.354,26.74,26.74,0,0,1,1.959,2.35c-.066-.864-.259-1.756-.333-2.622a9.566,9.566,0,0,1,1.085,1.33,10.239,10.239,0,0,1-.255-1.8,14.132,14.132,0,0,0,8.622,5.148c.059-2.446-2.223-5.509-4.172-7.064a18.6,18.6,0,0,1,6.6,2.146,4.015,4.015,0,0,1-1.707-2.16,5.038,5.038,0,0,1,2.273.755c-1.178-.635-2.453-1.282-2.73-2.462,2.261-1.128,5.069-1.1,7.519-1.639-1.611-1.846-6.034-2.855-8.675-2.637,1.8-.786,3.644-1.505,5.414-2.3-1.773-1.153-4.561-1.151-6.768-.607a5.371,5.371,0,0,0,2.065-1.663c-1.638-.579.167-3.334.7-4.4-3.395.1-6.249,2.7-8.2,4.922-.293-1.4.31-2.836-.024-4.178-2.624-.09-3.222,2.87-3.33,4.595a5.181,5.181,0,0,1-.761-2.373c-.2.66-.345,1.437-.545,1.99-.343-.759-.626-1.538-.912-2.316-1.713.677-5.156-1.856-7.413-1.762.109,2.031,3.395,3.9,4.113,6.079a6.233,6.233,0,0,0-4.9-2.114c.833.828,2.334,1.34,3.072,2.437a4.786,4.786,0,0,1-3.143-.781,8.746,8.746,0,0,1,1.706,1.389,6.331,6.331,0,0,1-2.449-.343c1.734,1.144,3.862,3.138,5.91,3.517Z" transform="translate(-660.231 -238.411)" fill="#81c9b1"/>
        <path id="Trazado_100994" data-name="Trazado 100994" d="M670.339,246.73a3.347,3.347,0,0,0,.475,1.546c.572.693,1.723.108,1.064-.6,1.672-.131-.215-1.456-.988-1.5.423-.066,1.234-.251,1.479-.622.417-.572-.072-.93-.668-.662.083-.491.143-1.949-.681-1.126a4.029,4.029,0,0,0-.525,1.748c-.14-.526-.28-1.607-.935-1.807-.618-.147-.675.482-.439.98-1.256-.439-.557.87.125,1.166-.484-.124-1.2-.2-1.427.313-.209.425.221,1.138.616.7-.292.914.489,1.182.87.282-.053.314-.463.84-.38,1.176.118.386.55.55.765.083.379,1.025,1.19.566.938-.394a6.527,6.527,0,0,1-.364-1.39Z" transform="translate(-656.659 -235.987)" fill="#e8ca4d"/>
        <path id="Trazado_100995" data-name="Trazado 100995" d="M672.945,242.93a3.336,3.336,0,0,0,.473,1.548c.573.691,1.723.108,1.064-.6,1.673-.134-.214-1.458-.988-1.5.422-.066,1.234-.252,1.48-.624.416-.57-.074-.927-.668-.662.083-.491.143-1.947-.684-1.123a3.973,3.973,0,0,0-.52,1.747c-.14-.526-.281-1.607-.936-1.807-.616-.149-.677.483-.439.982-1.256-.441-.559.868.125,1.166-.484-.127-1.2-.2-1.428.313-.208.423.224,1.135.618.7-.292.915.489,1.184.87.283-.052.313-.463.84-.38,1.175.118.386.548.551.766.083.377,1.026,1.187.568.935-.392a6.737,6.737,0,0,1-.364-1.39Z" transform="translate(-655.424 -237.788)" fill="#e8ca4d"/>
        <path id="Trazado_100996" data-name="Trazado 100996" d="M677.285,244.039a3.348,3.348,0,0,0-1.577.366c-.731.52-.227,1.71.526,1.1.015,1.678,1.468-.112,1.561-.882a2.515,2.515,0,0,0,.517,1.52c.541.457.932-.007.706-.619.484.116,1.934.279,1.169-.6a4,4,0,0,0-1.706-.643c.535-.1,1.623-.167,1.869-.806.189-.6-.433-.709-.949-.507.526-1.224-.828-.619-1.172.044.159-.475.286-1.188-.209-1.448-.41-.237-1.151.143-.741.566-.892-.354-1.215.405-.344.848-.309-.074-.8-.519-1.145-.463-.394.093-.588.512-.135.759-1.05.305-.647,1.147.327.963a6.455,6.455,0,0,1,1.411-.264Z" transform="translate(-653.212 -236.951)" fill="#e8ca4d"/>
        <path id="Trazado_100997" data-name="Trazado 100997" d="M674.234,247.6a3.365,3.365,0,0,0-1.577.366c-.73.522-.227,1.711.525,1.1.016,1.676,1.468-.112,1.561-.88a2.524,2.524,0,0,0,.517,1.52c.54.456.933-.009.706-.621.487.116,1.934.279,1.17-.6a4.042,4.042,0,0,0-1.706-.643c.535-.1,1.621-.17,1.868-.8.19-.607-.433-.711-.949-.507.529-1.224-.826-.619-1.17.041.159-.473.284-1.188-.211-1.446-.41-.236-1.15.142-.741.566-.892-.354-1.213.407-.344.849-.308-.074-.8-.52-1.145-.463-.392.091-.587.51-.134.758-1.051.305-.649,1.147.324.963a6.5,6.5,0,0,1,1.414-.265Z" transform="translate(-654.659 -235.263)" fill="#e8ca4d"/>
        <path id="Trazado_100998" data-name="Trazado 100998" d="M680.563,248.672a3.344,3.344,0,0,0-1.577.366c-.731.522-.227,1.71.525,1.1.016,1.678,1.468-.112,1.563-.88a2.512,2.512,0,0,0,.516,1.518c.541.458.933-.006.708-.619.484.116,1.932.28,1.17-.6a4.034,4.034,0,0,0-1.707-.64c.535-.106,1.621-.171,1.868-.806.192-.607-.433-.711-.949-.509.529-1.222-.827-.618-1.17.041.159-.472.284-1.185-.212-1.445-.407-.236-1.148.142-.74.566-.892-.355-1.213.405-.344.848-.307-.075-.8-.519-1.145-.461-.392.09-.587.51-.136.758-1.05.305-.647,1.145.327.961a6.662,6.662,0,0,1,1.412-.264Z" transform="translate(-651.659 -234.754)" fill="#e8ca4d"/>
        <path id="Trazado_100999" data-name="Trazado 100999" d="M677,250.748a3.354,3.354,0,0,0-1.577.367c-.73.52-.227,1.71.522,1.1.018,1.679,1.471-.111,1.563-.88a2.508,2.508,0,0,0,.519,1.52c.54.456.93-.009.708-.619.482.116,1.933.277,1.169-.6a4,4,0,0,0-1.707-.641c.537-.1,1.622-.168,1.869-.806.19-.606-.436-.711-.948-.507.526-1.224-.828-.619-1.173.043.159-.475.286-1.188-.211-1.446-.408-.237-1.15.143-.74.566-.892-.354-1.215.405-.345.846-.307-.072-.8-.519-1.144-.46-.4.091-.588.509-.136.756-1.051.305-.647,1.147.326.964a6.47,6.47,0,0,1,1.414-.265Z" transform="translate(-653.347 -233.769)" fill="#e8ca4d"/>
        <path id="Trazado_101000" data-name="Trazado 101000" d="M670.5,250.58a3.343,3.343,0,0,0-1.577.366c-.73.52-.225,1.71.525,1.1.015,1.676,1.468-.112,1.561-.882a2.516,2.516,0,0,0,.519,1.521c.539.454.93-.009.706-.621.484.116,1.933.279,1.169-.6a4.015,4.015,0,0,0-1.706-.641c.537-.1,1.621-.168,1.868-.806.192-.6-.435-.708-.948-.507.526-1.224-.828-.619-1.172.044.159-.475.284-1.19-.211-1.448-.407-.237-1.15.142-.74.566-.892-.354-1.215.405-.345.848-.307-.074-.8-.519-1.144-.461-.394.091-.588.509-.136.758-1.051.3-.649,1.148.326.964a6.388,6.388,0,0,1,1.412-.265Z" transform="translate(-656.428 -233.85)" fill="#e8ca4d"/>
        <path id="Trazado_101001" data-name="Trazado 101001" d="M665.867,247.471a3.38,3.38,0,0,0-1.576.364c-.73.523-.226,1.711.526,1.1.013,1.678,1.47-.111,1.56-.88a2.526,2.526,0,0,0,.517,1.52c.541.457.933-.007.709-.621.482.118,1.931.28,1.169-.6a4,4,0,0,0-1.707-.643c.537-.1,1.622-.168,1.871-.8.189-.609-.436-.711-.949-.507.526-1.224-.83-.619-1.173.041.161-.473.284-1.188-.209-1.446-.408-.236-1.151.142-.741.566-.892-.354-1.215.407-.345.849-.307-.074-.8-.52-1.144-.463-.394.093-.588.51-.137.758-1.048.305-.646,1.147.327.963a6.573,6.573,0,0,1,1.412-.267Z" transform="translate(-658.625 -235.323)" fill="#e8ca4d"/>
        <path id="Trazado_101002" data-name="Trazado 101002" d="M668.525,242.33a3.352,3.352,0,0,0-1.577.366c-.73.52-.227,1.71.525,1.1.016,1.68,1.47-.111,1.561-.882a2.548,2.548,0,0,0,.517,1.523c.541.454.932-.009.708-.621.484.116,1.933.279,1.169-.6a4.022,4.022,0,0,0-1.706-.641c.536-.1,1.623-.168,1.869-.806.192-.6-.436-.709-.948-.507.526-1.224-.828-.619-1.173.041.161-.472.286-1.187-.209-1.446-.41-.236-1.151.143-.741.568-.892-.354-1.213.405-.345.848-.308-.074-.8-.519-1.145-.461-.394.091-.587.509-.136.756-1.05.305-.647,1.148.327.964a6.588,6.588,0,0,1,1.412-.267Z" transform="translate(-657.366 -237.762)" fill="#e8ca4d"/>
      </g>
      <g id="Grupo_69178" data-name="Grupo 69178" transform="translate(79.132 144.547)">
        <path id="Trazado_101003" data-name="Trazado 101003" d="M725.41,249.163c-3.076-1.315-7.888-2.776-11.038-.012-1.635,1.431,1.487,1.511,3.158,1.728a17.266,17.266,0,0,0,6.229-.292,42.352,42.352,0,0,0-6.669,4.15c2.255.419,5.709-1.194,7.393-2.527a6.3,6.3,0,0,0-2.253,2.306,15.571,15.571,0,0,0,3.18-2.419c-.734,2.515-3.921,5.425-1.885,8.08,1.449,1.888,1.656-.063,2.788-1.583a18.585,18.585,0,0,0,2.818-4.175c.4,1.468.417,2.967,1.77,3.962a3.466,3.466,0,0,1,.287-2.354,27.033,27.033,0,0,1,1.958,2.35c-.066-.864-.258-1.756-.335-2.622a9.45,9.45,0,0,1,1.086,1.33,10.256,10.256,0,0,1-.255-1.8,14.129,14.129,0,0,0,8.621,5.148c.059-2.446-2.222-5.509-4.172-7.064a18.609,18.609,0,0,1,6.6,2.146,4.008,4.008,0,0,1-1.707-2.16,5.044,5.044,0,0,1,2.273.755c-1.178-.635-2.453-1.282-2.732-2.462,2.261-1.128,5.073-1.1,7.521-1.639-1.611-1.846-6.034-2.855-8.675-2.637,1.8-.786,3.645-1.505,5.414-2.3-1.773-1.153-4.559-1.151-6.766-.607a5.4,5.4,0,0,0,2.064-1.663c-1.638-.579.167-3.334.7-4.4-3.4.1-6.249,2.7-8.2,4.922-.295-1.4.31-2.836-.025-4.178-2.623-.09-3.221,2.87-3.329,4.595a5.13,5.13,0,0,1-.761-2.373c-.2.66-.345,1.437-.545,1.99-.342-.759-.626-1.538-.912-2.316-1.713.677-5.156-1.856-7.412-1.762.1,2.031,3.392,3.9,4.111,6.079a6.23,6.23,0,0,0-4.9-2.114c.833.828,2.335,1.34,3.072,2.437a4.782,4.782,0,0,1-3.143-.781,8.793,8.793,0,0,1,1.706,1.389,6.323,6.323,0,0,1-2.448-.343c1.735,1.144,3.862,3.138,5.91,3.517Z" transform="translate(-713.912 -238.411)" fill="#81c9b1"/>
        <path id="Trazado_101004" data-name="Trazado 101004" d="M724.02,246.73a3.367,3.367,0,0,0,.476,1.546c.57.693,1.723.108,1.063-.6,1.673-.131-.214-1.456-.989-1.5.425-.066,1.235-.251,1.48-.622.419-.572-.072-.93-.666-.662.083-.491.141-1.949-.684-1.126a4.047,4.047,0,0,0-.522,1.748c-.14-.526-.282-1.607-.933-1.807-.621-.147-.678.482-.442.98-1.254-.439-.557.87.125,1.166-.482-.124-1.2-.2-1.427.313-.208.425.223,1.138.616.7-.292.914.491,1.182.87.282-.052.314-.46.84-.379,1.176.118.386.548.55.765.083.377,1.025,1.19.566.938-.394a6.447,6.447,0,0,1-.364-1.39Z" transform="translate(-710.34 -235.987)" fill="#e8ca4d"/>
        <path id="Trazado_101005" data-name="Trazado 101005" d="M726.628,242.93a3.353,3.353,0,0,0,.473,1.548c.572.691,1.723.108,1.066-.6,1.672-.134-.217-1.458-.989-1.5.423-.066,1.234-.252,1.479-.624.417-.57-.071-.927-.666-.662.081-.491.14-1.947-.684-1.123a4,4,0,0,0-.522,1.747c-.14-.526-.282-1.607-.936-1.807-.616-.149-.677.483-.438.982-1.256-.441-.557.868.125,1.166-.485-.127-1.2-.2-1.43.313-.209.423.223,1.135.619.7-.292.915.489,1.184.87.283-.055.313-.463.84-.38,1.175.118.386.548.551.764.083.379,1.026,1.19.568.938-.392a6.621,6.621,0,0,1-.363-1.39Z" transform="translate(-709.105 -237.788)" fill="#e8ca4d"/>
        <path id="Trazado_101006" data-name="Trazado 101006" d="M730.967,244.039a3.343,3.343,0,0,0-1.577.366c-.73.52-.227,1.71.523,1.1.016,1.678,1.47-.112,1.563-.882a2.522,2.522,0,0,0,.516,1.52c.544.457.933-.007.709-.619.482.116,1.933.279,1.171-.6a4.011,4.011,0,0,0-1.707-.643c.536-.1,1.622-.167,1.868-.806.192-.6-.435-.709-.948-.507.528-1.224-.828-.619-1.173.044.161-.475.286-1.188-.209-1.448-.408-.237-1.15.143-.742.566-.89-.354-1.213.405-.343.848-.307-.074-.8-.519-1.147-.463-.392.093-.585.512-.133.759-1.051.305-.649,1.147.324.963a6.5,6.5,0,0,1,1.412-.264Z" transform="translate(-706.893 -236.951)" fill="#e8ca4d"/>
        <path id="Trazado_101007" data-name="Trazado 101007" d="M727.915,247.6a3.355,3.355,0,0,0-1.576.366c-.73.522-.227,1.711.523,1.1.015,1.676,1.471-.112,1.561-.88a2.505,2.505,0,0,0,.519,1.52c.54.456.93-.009.708-.621.482.116,1.932.279,1.169-.6a4.041,4.041,0,0,0-1.707-.643c.537-.1,1.62-.17,1.868-.8.192-.607-.433-.711-.946-.507.526-1.224-.828-.619-1.173.041.159-.473.285-1.188-.212-1.446-.405-.236-1.148.142-.739.566-.892-.354-1.215.407-.344.849-.308-.074-.806-.52-1.145-.463-.394.091-.588.51-.135.758-1.05.305-.649,1.147.326.963a6.484,6.484,0,0,1,1.414-.265Z" transform="translate(-708.34 -235.263)" fill="#e8ca4d"/>
        <path id="Trazado_101008" data-name="Trazado 101008" d="M734.244,248.672a3.347,3.347,0,0,0-1.577.366c-.73.522-.224,1.71.525,1.1.015,1.678,1.47-.112,1.563-.88a2.512,2.512,0,0,0,.517,1.518c.54.458.932-.006.706-.619.484.116,1.934.28,1.17-.6a4.025,4.025,0,0,0-1.707-.64c.537-.106,1.623-.171,1.871-.806.189-.607-.436-.711-.949-.509.526-1.222-.828-.618-1.173.041.161-.472.284-1.185-.209-1.445-.41-.236-1.151.142-.741.566-.892-.355-1.215.405-.345.848-.308-.075-.8-.519-1.144-.461-.4.09-.588.51-.136.758-1.05.305-.647,1.145.326.961a6.64,6.64,0,0,1,1.414-.264Z" transform="translate(-705.339 -234.754)" fill="#e8ca4d"/>
        <path id="Trazado_101009" data-name="Trazado 101009" d="M730.684,250.748a3.353,3.353,0,0,0-1.577.367c-.731.52-.229,1.71.523,1.1.016,1.679,1.468-.111,1.563-.88a2.514,2.514,0,0,0,.516,1.52c.541.456.932-.009.708-.619.484.116,1.932.277,1.17-.6a4.023,4.023,0,0,0-1.707-.641c.537-.1,1.621-.168,1.868-.806.192-.606-.435-.711-.948-.507.526-1.224-.828-.619-1.171.043.158-.475.283-1.188-.214-1.446-.405-.237-1.147.143-.74.566-.889-.354-1.213.405-.342.846-.308-.072-.806-.519-1.147-.46-.392.091-.587.509-.136.756-1.049.305-.646,1.147.327.964a6.491,6.491,0,0,1,1.412-.265Z" transform="translate(-707.028 -233.769)" fill="#e8ca4d"/>
        <path id="Trazado_101010" data-name="Trazado 101010" d="M724.183,250.58a3.341,3.341,0,0,0-1.576.366c-.731.52-.227,1.71.525,1.1.015,1.676,1.468-.112,1.561-.882a2.524,2.524,0,0,0,.517,1.521c.54.454.933-.009.706-.621.485.116,1.934.279,1.171-.6a4.029,4.029,0,0,0-1.707-.641c.537-.1,1.623-.168,1.869-.806.19-.6-.435-.708-.949-.507.528-1.224-.827-.619-1.17.044.159-.475.283-1.19-.211-1.448-.408-.237-1.15.142-.741.566-.89-.354-1.213.405-.344.848-.308-.074-.8-.519-1.145-.461-.392.091-.587.509-.136.758-1.048.3-.647,1.148.326.964a6.4,6.4,0,0,1,1.412-.265Z" transform="translate(-710.109 -233.85)" fill="#e8ca4d"/>
        <path id="Trazado_101011" data-name="Trazado 101011" d="M719.551,247.471a3.368,3.368,0,0,0-1.576.364c-.731.523-.23,1.711.523,1.1.015,1.678,1.468-.111,1.561-.88a2.516,2.516,0,0,0,.516,1.52c.544.457.933-.007.709-.621.484.118,1.931.28,1.169-.6a4,4,0,0,0-1.706-.643c.535-.1,1.622-.168,1.868-.8.192-.609-.433-.711-.948-.507.526-1.224-.828-.619-1.172.041.158-.473.283-1.188-.212-1.446-.407-.236-1.148.142-.74.566-.892-.354-1.213.407-.342.849-.308-.074-.8-.52-1.146-.463-.394.093-.588.51-.136.758-1.05.305-.649,1.147.324.963a6.607,6.607,0,0,1,1.412-.267Z" transform="translate(-712.306 -235.323)" fill="#e8ca4d"/>
        <path id="Trazado_101012" data-name="Trazado 101012" d="M722.206,242.33a3.337,3.337,0,0,0-1.576.366c-.73.52-.227,1.71.525,1.1.015,1.68,1.468-.111,1.561-.882a2.511,2.511,0,0,0,.519,1.523c.54.454.93-.009.7-.621.484.116,1.936.279,1.171-.6a4.022,4.022,0,0,0-1.706-.641c.534-.1,1.62-.168,1.866-.806.192-.6-.432-.709-.946-.507.526-1.224-.828-.619-1.172.041.159-.472.285-1.187-.212-1.446-.408-.236-1.15.143-.741.568-.889-.354-1.213.405-.342.848-.308-.074-.8-.519-1.144-.461-.4.091-.59.509-.136.756-1.051.305-.65,1.148.326.964a6.571,6.571,0,0,1,1.412-.267Z" transform="translate(-711.047 -237.762)" fill="#e8ca4d"/>
      </g>
    </g>
  </g>
</svg>
