<svg xmlns="http://www.w3.org/2000/svg" width="189.667" height="218.745" viewBox="0 0 189.667 218.745">
  <g id="Grupo_69516" data-name="Grupo 69516" transform="translate(-70.175 -49)">
    <circle id="Elipse_4635" data-name="Elipse 4635" cx="67.057" cy="67.057" r="67.057" transform="translate(70.175 172.911) rotate(-45)" fill="#e2d9c3"/>
    <path id="Trazado_101798" data-name="Trazado 101798" d="M94.508,377.658l22.046,6.951H226.047a14.936,14.936,0,0,0,11.56-5.478l28.883-35.3a2.677,2.677,0,0,0-2.072-4.372H247.8L221.632,373.9Z" transform="translate(-11.574 -138.152)" fill="#a6a48b"/>
    <g id="Grupo_69499" data-name="Grupo 69499" transform="translate(81.741 176.5)">
      <g id="Grupo_69491" data-name="Grupo 69491" transform="translate(2.701 30.828)">
        <path id="Trazado_101799" data-name="Trazado 101799" d="M228.445,365.565a20.82,20.82,0,0,1-1.4,3.461c-.9-11.8-14.586-10.571-14.586-10.571H97.383v23.281H222.69l7.082-13.618Z" transform="translate(-97.383 -354.499)" fill="#f9f0df"/>
        <path id="Trazado_101800" data-name="Trazado 101800" d="M227.04,365.471a20.821,20.821,0,0,0,1.4-3.461l-5.754-11.066H97.383V354.9H212.454S226.136,353.669,227.04,365.471Z" transform="translate(-97.383 -350.944)" fill="#cdbfab"/>
      </g>
      <path id="Trazado_101801" data-name="Trazado 101801" d="M239.8,292.152H142L94.093,317.714a2.7,2.7,0,0,0,.84,5.267H211l32.408-30.025A23.88,23.88,0,0,0,239.8,292.152Z" transform="translate(-92.232 -292.152)" fill="#333644"/>
      <g id="Grupo_69498" data-name="Grupo 69498" transform="translate(2.701 38.339)">
        <g id="Grupo_69493" data-name="Grupo 69493">
          <g id="Grupo_69492" data-name="Grupo 69492">
            <path id="Trazado_101802" data-name="Trazado 101802" d="M97.383,367.084H212.959a.908.908,0,0,0,0-1.817H97.383Z" transform="translate(-97.383 -365.267)" fill="#c3b6a1"/>
          </g>
        </g>
        <g id="Grupo_69495" data-name="Grupo 69495" transform="translate(0 6.294)">
          <g id="Grupo_69494" data-name="Grupo 69494">
            <path id="Trazado_101803" data-name="Trazado 101803" d="M97.383,379.087H212.959a.908.908,0,1,0,0-1.816H97.383Z" transform="translate(-97.383 -377.271)" fill="#c3b6a1"/>
          </g>
        </g>
        <g id="Grupo_69497" data-name="Grupo 69497" transform="translate(0 12.588)">
          <g id="Grupo_69496" data-name="Grupo 69496">
            <path id="Trazado_101804" data-name="Trazado 101804" d="M97.383,391.091H212.959a.908.908,0,0,0,0-1.817H97.383Z" transform="translate(-97.383 -389.274)" fill="#c3b6a1"/>
          </g>
        </g>
      </g>
      <path id="Trazado_101805" data-name="Trazado 101805" d="M243.778,293.068h0a22.471,22.471,0,0,0-3.974-.916l-7.6.031-.008.093-18.8-.093-83,15.383,63.064,15.414H211a13.619,13.619,0,0,1,0,27.237H94.933a2.7,2.7,0,0,0,0,5.4H211.3a2.588,2.588,0,0,0,.28-.015,19,19,0,0,0,13.97-6.773c6.547-6.755,27.871-29.145,29.757-36.09C258.827,299.793,249.453,294.843,243.778,293.068Z" transform="translate(-92.232 -292.152)" fill="#201f2f"/>
      <path id="Trazado_101806" data-name="Trazado 101806" d="M291.434,377.271h5.2s-2.9,19.782-.236,29.222c0,0-3.626-2.265-3.762-6.1a8.9,8.9,0,0,1-1.437,6.1S287.983,396.106,291.434,377.271Z" transform="translate(-186.22 -332.638)" fill="#333644"/>
      <path id="Trazado_101807" data-name="Trazado 101807" d="M292.092,377.271l-.871,5.6,5.388-.1.683-5.5Z" transform="translate(-186.878 -332.637)" fill="#201f2f"/>
    </g>
    <g id="Grupo_69513" data-name="Grupo 69513" transform="translate(92.582 49)">
      <g id="Grupo_69500" data-name="Grupo 69500" transform="translate(66.117)">
        <path id="Trazado_101808" data-name="Trazado 101808" d="M239,54.817a5.817,5.817,0,0,0,5.817,5.817V49A5.817,5.817,0,0,0,239,54.817Z" transform="translate(-238.997 -49)" fill="#953f2c"/>
        <path id="Trazado_101809" data-name="Trazado 101809" d="M255.907,54.817A5.817,5.817,0,0,0,250.09,49V60.634A5.817,5.817,0,0,0,255.907,54.817Z" transform="translate(-244.273 -49)" fill="#65251a"/>
      </g>
      <g id="Grupo_69501" data-name="Grupo 69501" transform="translate(62.409 85.762)">
        <path id="Trazado_101810" data-name="Trazado 101810" d="M241.894,224.961v.061l.044-.061Z" transform="translate(-236.666 -218.456)" fill="#953f2c"/>
        <path id="Trazado_101811" data-name="Trazado 101811" d="M241.51,225.133h-4.242s-.041.058-.116.169v-.224l-.076.109c-1.209,1.757-10.961,16.944,0,34.831.04.065.079.131.12.2h4.313Z" transform="translate(-231.925 -218.511)" fill="#65251a"/>
        <path id="Trazado_101812" data-name="Trazado 101812" d="M242.01,225.077h4.182v-.116h-4.254l-.044.061v.224C241.968,225.135,242.01,225.077,242.01,225.077Z" transform="translate(-236.666 -218.456)" fill="#65251a"/>
        <path id="Trazado_101813" data-name="Trazado 101813" d="M258.247,225.023v-.062H258.2Z" transform="translate(-244.423 -218.456)" fill="#65251a"/>
        <rect id="Rectángulo_5453" data-name="Rectángulo 5453" width="0.06" height="0.116" transform="translate(9.525 6.505)" fill="#65251a"/>
        <path id="Trazado_101814" data-name="Trazado 101814" d="M254.156,292.018H250.09v.067h4.3v-.139l-.045.072Z" transform="translate(-240.565 -250.316)" fill="#461711"/>
        <path id="Trazado_101815" data-name="Trazado 101815" d="M254.637,225.364c-.089-.134-.155-.229-.2-.285v.4c-.148-.228-.232-.346-.232-.346H250.2v35.081h4.006q.118-.2.232-.39v.318l.2-.319A32.079,32.079,0,0,0,254.637,225.364Z" transform="translate(-240.619 -218.512)" fill="#461711"/>
        <path id="Trazado_101816" data-name="Trazado 101816" d="M250.324,224.961h-.12v.116h4.006s.084.118.232.346v-.4l-.045-.062Z" transform="translate(-240.619 -218.456)" fill="#461711"/>
        <path id="Trazado_101817" data-name="Trazado 101817" d="M257.844,291.73h.188l.045-.072v-.318Q257.961,291.535,257.844,291.73Z" transform="translate(-244.253 -250.028)" fill="#461711"/>
        <path id="Trazado_101818" data-name="Trazado 101818" d="M246.012,219.06h.18v-6.505h-4.3v6.505h4.118Z" transform="translate(-236.666 -212.555)" fill="#ffc200"/>
        <path id="Trazado_101819" data-name="Trazado 101819" d="M250.09,219.06h4.3v-6.505h-4.3Z" transform="translate(-240.565 -212.555)" fill="#f09800"/>
      </g>
      <g id="Grupo_69502" data-name="Grupo 69502" transform="translate(27.323 127.465)">
        <path id="Trazado_101820" data-name="Trazado 101820" d="M212.593,292.084H174.787A3.794,3.794,0,0,0,171,295.867v2.49h41.589Z" transform="translate(-167.863 -292.084)" fill="#65251a"/>
        <path id="Trazado_101821" data-name="Trazado 101821" d="M172.676,307.813h-4.29a3.606,3.606,0,0,0-3.372,3.783v3.419h44.736v-7.2Z" transform="translate(-165.013 -299.565)" fill="#461711"/>
        <rect id="Rectángulo_5454" data-name="Rectángulo 5454" width="41.589" height="1.045" transform="translate(3.141 7.202)" fill="#ffc200"/>
        <rect id="Rectángulo_5455" data-name="Rectángulo 5455" width="41.589" height="0.929" transform="translate(3.141 6.273)" fill="#ffc200"/>
        <path id="Trazado_101822" data-name="Trazado 101822" d="M291.668,298.357v-2.49a3.8,3.8,0,0,0-3.783-3.783H250.317v6.273Z" transform="translate(-205.587 -292.084)" fill="#461711"/>
        <path id="Trazado_101823" data-name="Trazado 101823" d="M294.956,311.6a3.606,3.606,0,0,0-3.372-3.783H250.328v7.2h44.628Z" transform="translate(-205.592 -299.565)" fill="#300b08"/>
        <path id="Trazado_101824" data-name="Trazado 101824" d="M250.317,304.047v1.975h41.351v-1.975Z" transform="translate(-205.587 -297.774)" fill="#f09800"/>
      </g>
      <g id="Grupo_69503" data-name="Grupo 69503" transform="translate(63.755 13.921)">
        <rect id="Rectángulo_5456" data-name="Rectángulo 5456" width="4.298" height="54.51" transform="translate(8.179 17.331)" fill="#65251a"/>
        <path id="Trazado_101825" data-name="Trazado 101825" d="M242.637,92.88V75.549H238.4L234.492,92.88h3.881v54.51h4.3V92.88Z" transform="translate(-234.492 -75.549)" fill="#953f2c"/>
        <path id="Trazado_101826" data-name="Trazado 101826" d="M250.09,91.378h0l.985.114A4.318,4.318,0,0,0,250.09,91.378Z" transform="translate(-241.911 -83.078)" fill="#65251a"/>
        <path id="Trazado_101827" data-name="Trazado 101827" d="M250.06,100.409V91.378h-.034v9.03Z" transform="translate(-241.88 -83.078)" fill="#65251a"/>
        <path id="Trazado_101828" data-name="Trazado 101828" d="M254.358,75.549h-4.332v8.3h.034a4.318,4.318,0,0,1,.985.114l-.985-.114V92.88h8.112Z" transform="translate(-241.88 -75.549)" fill="#65251a"/>
      </g>
      <g id="Grupo_69504" data-name="Grupo 69504" transform="translate(68.345 18.998)">
        <path id="Trazado_101829" data-name="Trazado 101829" d="M246.5,90.368a1.883,1.883,0,0,0,1.881,1.881V88.488A1.883,1.883,0,0,0,246.5,90.368Z" transform="translate(-244.795 -86.78)" fill="none"/>
        <path id="Trazado_101830" data-name="Trazado 101830" d="M244.953,88.819a1.883,1.883,0,0,1,1.881-1.88V85.23a3.589,3.589,0,1,0,0,7.178V90.7A1.883,1.883,0,0,1,244.953,88.819Z" transform="translate(-243.245 -85.23)" fill="#ffc200"/>
        <path id="Trazado_101831" data-name="Trazado 101831" d="M253.679,88.819a3.593,3.593,0,0,0-3.589-3.589h0v1.708h0a1.881,1.881,0,1,1,0,3.761h0v1.708h0A3.593,3.593,0,0,0,253.679,88.819Z" transform="translate(-246.501 -85.23)" fill="#f09800"/>
      </g>
      <g id="Grupo_69505" data-name="Grupo 69505" transform="translate(58.171 10.567)">
        <path id="Trazado_101832" data-name="Trazado 101832" d="M225.521,69.152a1.677,1.677,0,1,0,0,3.354h12.085V69.152Z" transform="translate(-223.844 -69.152)" fill="#65251a"/>
        <path id="Trazado_101833" data-name="Trazado 101833" d="M225.585,108.6a1.677,1.677,0,1,0,0,3.354h12.051V108.6Z" transform="translate(-223.874 -87.915)" fill="#65251a"/>
        <path id="Trazado_101834" data-name="Trazado 101834" d="M263.786,70.829a1.678,1.678,0,0,0-1.677-1.677H250.09v3.354h12.018A1.678,1.678,0,0,0,263.786,70.829Z" transform="translate(-236.328 -69.152)" fill="#461711"/>
        <path id="Trazado_101835" data-name="Trazado 101835" d="M263.819,110.277a1.677,1.677,0,0,0-1.677-1.677H250.09v3.354h12.052A1.677,1.677,0,0,0,263.819,110.277Z" transform="translate(-236.328 -87.915)" fill="#461711"/>
      </g>
      <path id="Trazado_101836" data-name="Trazado 101836" d="M261.593,115s-3.173-.1-3.306,4.13V115Z" transform="translate(-182.055 -80.39)" fill="#65251a"/>
      <path id="Trazado_101837" data-name="Trazado 101837" d="M235.623,115s3.173-.1,3.306,4.13V115Z" transform="translate(-171.275 -80.39)" fill="#953f2c"/>
      <path id="Trazado_101838" data-name="Trazado 101838" d="M200.205,116.717c-9.236.007-21.7,7.57-31.677,9.32-11.521,2.021-16.775-7.074-21.424-6.449l-.138.019a2.053,2.053,0,0,0,.17,4.079,11.074,11.074,0,0,1,6.825,3.348c7.411,7.1,16.574,5.611,29.375,1.213a43.52,43.52,0,0,1,16.869-2.657Z" transform="translate(-128.274 -81.209)" fill="#953f2c"/>
      <path id="Trazado_101839" data-name="Trazado 101839" d="M150.134,125.332a.984.984,0,1,1-.984-.984A.984.984,0,0,1,150.134,125.332Z" transform="translate(-129.677 -84.838)" fill="#65251a"/>
      <g id="Grupo_69506" data-name="Grupo 69506" transform="translate(3.773 39.83)">
        <path id="Trazado_101840" data-name="Trazado 101840" d="M122.742,183.838l13.06-52.884v-6a1.159,1.159,0,0,0-1.126.881l-14.54,58.879a1.159,1.159,0,0,0,1.126,1.437H135.8v-2.318Z" transform="translate(-120.103 -124.959)" fill="#4e4e4e"/>
        <path id="Trazado_101841" data-name="Trazado 101841" d="M165.5,185.712a1.159,1.159,0,0,0,.213-.993l-14.54-58.879a1.159,1.159,0,0,0-1.125-.881v6L163.1,183.838H150.043v2.318h14.54A1.159,1.159,0,0,0,165.5,185.712Z" transform="translate(-134.343 -124.959)" fill="#303030"/>
      </g>
      <g id="Grupo_69507" data-name="Grupo 69507" transform="translate(0 98.709)">
        <path id="Trazado_101842" data-name="Trazado 101842" d="M114.522,237.246c-1.007,0-1.772,1.306-1.588,2.723a19.861,19.861,0,0,0,19.446,17.576v-20.3Z" transform="translate(-112.907 -237.246)" fill="#ffc200"/>
        <path id="Trazado_101843" data-name="Trazado 101843" d="M169.488,239.969c.184-1.417-.581-2.723-1.588-2.723H150.043v20.3A19.861,19.861,0,0,0,169.488,239.969Z" transform="translate(-130.57 -237.246)" fill="#f09800"/>
      </g>
      <g id="Grupo_69508" data-name="Grupo 69508" transform="translate(0.362 96.749)">
        <path id="Trazado_101844" data-name="Trazado 101844" d="M114.578,233.508a.98.98,0,0,0,0,1.96h18.13v-1.96Z" transform="translate(-113.598 -233.508)" fill="#65251a"/>
        <path id="Trazado_101845" data-name="Trazado 101845" d="M169.153,234.488a.983.983,0,0,0-.98-.98h-18.13v1.96h18.13A.983.983,0,0,0,169.153,234.488Z" transform="translate(-130.933 -233.508)" fill="#461711"/>
      </g>
      <path id="Trazado_101846" data-name="Trazado 101846" d="M250.364,116.717c9.236.007,21.7,7.57,31.678,9.32,11.52,2.021,16.775-7.074,21.423-6.449l.138.019a2.053,2.053,0,0,1-.17,4.079,11.074,11.074,0,0,0-6.825,3.348c-7.411,7.1-16.574,5.611-29.375,1.213a43.521,43.521,0,0,0-16.869-2.657Z" transform="translate(-178.286 -81.209)" fill="#65251a"/>
      <path id="Trazado_101847" data-name="Trazado 101847" d="M348.53,125.332a.984.984,0,1,0,.984-.984A.984.984,0,0,0,348.53,125.332Z" transform="translate(-224.978 -84.838)" fill="#65251a"/>
      <g id="Grupo_69509" data-name="Grupo 69509" transform="translate(108.837 39.83)">
        <path id="Trazado_101848" data-name="Trazado 101848" d="M363.466,183.838l-13.06-52.884v-6a1.159,1.159,0,0,1,1.126.881l14.54,58.879a1.159,1.159,0,0,1-1.126,1.437h-14.54v-2.318Z" transform="translate(-334.707 -124.959)" fill="#4e4e4e"/>
        <path id="Trazado_101849" data-name="Trazado 101849" d="M320.713,185.712a1.16,1.16,0,0,1-.213-.993l14.54-58.879a1.159,1.159,0,0,1,1.125-.881v6l-13.059,52.884h13.059v2.318h-14.54A1.159,1.159,0,0,1,320.713,185.712Z" transform="translate(-320.467 -124.959)" fill="#303030"/>
      </g>
      <g id="Grupo_69510" data-name="Grupo 69510" transform="translate(105.064 98.709)">
        <path id="Trazado_101850" data-name="Trazado 101850" d="M368.263,237.246c1.007,0,1.772,1.306,1.588,2.723a19.861,19.861,0,0,1-19.446,17.576v-20.3Z" transform="translate(-330.934 -237.246)" fill="#f09800"/>
        <path id="Trazado_101851" data-name="Trazado 101851" d="M313.3,239.969c-.184-1.417.581-2.723,1.588-2.723h17.857v20.3A19.861,19.861,0,0,1,313.3,239.969Z" transform="translate(-313.271 -237.246)" fill="#ffc200"/>
      </g>
      <g id="Grupo_69511" data-name="Grupo 69511" transform="translate(105.426 96.749)">
        <path id="Trazado_101852" data-name="Trazado 101852" d="M368.536,233.508a.98.98,0,1,1,0,1.96h-18.13v-1.96Z" transform="translate(-331.296 -233.508)" fill="#65251a"/>
        <path id="Trazado_101853" data-name="Trazado 101853" d="M313.962,234.488a.983.983,0,0,1,.98-.98h18.13v1.96h-18.13A.983.983,0,0,1,313.962,234.488Z" transform="translate(-313.962 -233.508)" fill="#461711"/>
      </g>
      <g id="Grupo_69512" data-name="Grupo 69512" transform="translate(58.111 44.067)">
        <path id="Trazado_101854" data-name="Trazado 101854" d="M237.518,146.033a10.372,10.372,0,0,1-10.057-12.914h-2.482a6.282,6.282,0,0,1-1-.08,13.794,13.794,0,0,0,13.539,16.411l.093,0v-3.418Z" transform="translate(-223.728 -133.039)" fill="#953f2c"/>
        <path id="Trazado_101855" data-name="Trazado 101855" d="M263.9,135.733a13.8,13.8,0,0,0-.235-2.541h-3.5A10.372,10.372,0,0,1,250.2,146.1v3.418A13.8,13.8,0,0,0,263.9,135.733Z" transform="translate(-236.321 -133.112)" fill="#65251a"/>
      </g>
    </g>
  </g>
</svg>
