<svg xmlns="http://www.w3.org/2000/svg" xmlns:xlink="http://www.w3.org/1999/xlink" width="271.584" height="248.615" viewBox="0 0 271.584 248.615">
  <defs>
    <clipPath id="clip-path">
      <path id="Trazado_104352" data-name="Trazado 104352" d="M107.89,182.878,184.312,227c.007.005,6.888,3.982,6.888,11.931v18.394a7.623,7.623,0,0,1-.448,2.395,1.969,1.969,0,0,1-.952,1.248c-.758.313-1.786-.014-3.335-.908L107.89,214.724Z" fill="none"/>
    </clipPath>
    <clipPath id="clip-path-2">
      <path id="Trazado_104358" data-name="Trazado 104358" d="M211.041,209.365l137.317-79.279v-8.208L211.041,201.157Z" fill="none"/>
    </clipPath>
    <clipPath id="clip-path-3">
      <path id="Trazado_104361" data-name="Trazado 104361" d="M211.041,201.157v8.208l-99.174-57.258a8.723,8.723,0,0,1-4.1-7.108c0-1.115.17-1.767.576-2.079a1.313,1.313,0,0,1,1.032-.148,4.629,4.629,0,0,1,1.4.493Z" fill="none"/>
    </clipPath>
    <clipPath id="clip-path-4">
      <path id="Trazado_104376" data-name="Trazado 104376" d="M116.006,92.735l76.421,44.122c.008,0,6.888,3.981,6.888,11.93v18.4a7.6,7.6,0,0,1-.447,2.394,1.969,1.969,0,0,1-.952,1.248c-.758.314-1.787-.014-3.335-.908l-78.575-45.335Z" fill="none"/>
    </clipPath>
  </defs>
  <g id="Grupo_70094" data-name="Grupo 70094" transform="translate(-81.27 -31.192)">
    <path id="Trazado_104343" data-name="Trazado 104343" d="M101,202.77,81.27,214.161l113.7,65.646,157.882-91.153L247.276,127.7Z" fill="#b0c0d2" fill-rule="evenodd"/>
    <g id="Grupo_70082" data-name="Grupo 70082">
      <path id="Trazado_104344" data-name="Trazado 104344" d="M105.736,213.492l2.958-1.707-.663,3.2Z" fill="#bcf7ff" fill-rule="evenodd"/>
      <path id="Trazado_104345" data-name="Trazado 104345" d="M317.774,148.7s7.966,4.6,7.966,13.8v18.394s0,4.089-2.361,5.451h0L190.993,262.775h0c2.36-1.362,2.36-5.45,2.36-5.45v-18.4c0-9.2-7.965-13.8-7.965-13.8Z" fill="#e4cbb7" fill-rule="evenodd"/>
      <path id="Trazado_104346" data-name="Trazado 104346" d="M193.3,237.647c-.689-8.342-7.913-12.513-7.913-12.513L317.774,148.7s7.224,4.17,7.914,12.512Z" fill="#e4cbb7" fill-rule="evenodd"/>
      <path id="Trazado_104347" data-name="Trazado 104347" d="M185.394,225.138,317.78,148.7l-79.657-45.99L105.736,179.147Z" fill="#f6e8db" fill-rule="evenodd"/>
      <path id="Trazado_104348" data-name="Trazado 104348" d="M185.394,218.125l-67.511-38.978,120.24-69.421,67.51,38.978Z" fill="none" stroke="#fff" stroke-linecap="round" stroke-linejoin="round" stroke-width="1.044"/>
      <path id="Trazado_104349" data-name="Trazado 104349" d="M105.736,181.634v-2.487l79.652,45.987s7.965,4.6,7.965,13.8v18.4s0,9.2-7.965,4.6l-79.652-45.987v-2.445l7.731,4.421V186.1Z" fill="#e4cbb7" fill-rule="evenodd"/>
      <path id="Trazado_104350" data-name="Trazado 104350" d="M107.89,182.878,184.312,227c.007.005,6.888,3.982,6.888,11.931v18.394a7.623,7.623,0,0,1-.448,2.395,1.969,1.969,0,0,1-.952,1.248c-.758.313-1.786-.014-3.335-.908L107.89,214.724Z" fill="#fff" fill-rule="evenodd"/>
      <g id="Grupo_70081" data-name="Grupo 70081">
        <g id="Grupo_70080" data-name="Grupo 70080" clip-path="url(#clip-path)">
          <g id="Grupo_70079" data-name="Grupo 70079">
            <g id="Grupo_70078" data-name="Grupo 70078">
              <path id="Trazado_104351" data-name="Trazado 104351" d="M107.746,212.228,203.14,267.3a.289.289,0,1,0,.289-.5l-95.394-55.076a.289.289,0,1,0-.289.5Zm0-2.956,95.394,55.076a.289.289,0,1,0,.289-.5l-95.394-55.076a.289.289,0,1,0-.289.5Zm0-2.955,95.394,55.076a.289.289,0,0,0,.289-.5l-95.394-55.075a.289.289,0,1,0-.289.5Zm0-2.955,95.394,55.075a.289.289,0,1,0,.289-.5l-95.394-55.076a.289.289,0,0,0-.289.5Zm0-2.956,95.394,55.076a.289.289,0,1,0,.289-.5l-95.394-55.076a.289.289,0,1,0-.289.5Zm0-2.955,95.394,55.076a.289.289,0,1,0,.289-.5L108.035,196.95a.289.289,0,0,0-.289.5Zm0-2.955,95.394,55.076a.289.289,0,0,0,.289-.5l-95.394-55.076a.289.289,0,0,0-.289.5Zm0-2.955,95.394,55.075a.289.289,0,1,0,.289-.5L108.035,191.04a.289.289,0,0,0-.289.5Zm0-2.956,95.394,55.076a.289.289,0,1,0,.289-.5l-95.394-55.075a.289.289,0,1,0-.289.5Zm0-2.955,95.394,55.076a.289.289,0,1,0,.289-.5l-95.394-55.076a.289.289,0,0,0-.289.5Z" fill="#46e3f4" fill-rule="evenodd"/>
            </g>
          </g>
        </g>
      </g>
      <path id="Trazado_104353" data-name="Trazado 104353" d="M178.19,226.3c-8.811,2.445-16.322,16.184-16.322,16.184l10.26,5.923s7.163-14.212,16.047-16.342Z" fill="#636363" fill-rule="evenodd"/>
    </g>
    <path id="Trazado_104354" data-name="Trazado 104354" d="M123.921,168.648l8.3-4.791,93.892,37.634,91.716-52.842s7.224,4.17,7.913,12.512L211.486,227.147c-.679-8.215-7.695-12.385-7.908-12.51Z" fill="rgba(0,0,0,0.15)" fill-rule="evenodd"/>
    <g id="Grupo_70088" data-name="Grupo 70088">
      <path id="Trazado_104355" data-name="Trazado 104355" d="M352.854,132.681l-8.209-4.738L207.329,207.222l8.208,4.739Z" fill="#fff" fill-rule="evenodd"/>
      <path id="Trazado_104356" data-name="Trazado 104356" d="M211.041,209.365l137.317-79.28v-8.208l-137.317,79.28Z" fill="#fefce3" fill-rule="evenodd"/>
      <g id="Grupo_70084" data-name="Grupo 70084">
        <g id="Grupo_70083" data-name="Grupo 70083" clip-path="url(#clip-path-2)">
          <path id="Trazado_104357" data-name="Trazado 104357" d="M210.93,208.575l.022.011a.208.208,0,0,0,.084.018h.01a.208.208,0,0,0,.084-.018l.024-.012,144.783-83.59a.227.227,0,0,0-.227-.392L211.041,208.116,99.876,143.935a.226.226,0,0,0-.226.392l111.278,64.247Zm0-.939.022.011a.228.228,0,0,0,.084.019h.01a.228.228,0,0,0,.084-.019l.024-.012,144.783-83.59a.227.227,0,0,0-.227-.392L211.041,207.178,99.876,143a.226.226,0,0,0-.226.392l111.278,64.246Zm0-.938.022.011a.227.227,0,0,0,.084.018h.01a.227.227,0,0,0,.084-.018l.024-.012,144.783-83.59a.227.227,0,0,0-.227-.392L211.041,206.239,99.876,142.058a.226.226,0,0,0-.226.392L210.928,206.7Zm0-.939.022.012a.225.225,0,0,0,.084.017h.01a.225.225,0,0,0,.084-.017l.024-.013,144.783-83.589a.227.227,0,0,0-.227-.393L211.041,205.3,99.876,141.12a.226.226,0,1,0-.226.392l111.278,64.246Zm0-.938.022.011a.227.227,0,0,0,.084.018h.01a.248.248,0,0,0,.084-.018l.024-.012,144.783-83.59a.227.227,0,0,0-.227-.392L211.041,204.362,99.876,140.181a.226.226,0,0,0-.226.392L210.928,204.82Zm0-.939.022.011a.228.228,0,0,0,.084.019h.01a.228.228,0,0,0,.084-.019l.024-.012,144.783-83.59a.227.227,0,0,0-.227-.392L211.041,203.423,99.876,139.242a.227.227,0,0,0-.226.393l111.278,64.246Zm0-.938.022.011a.227.227,0,0,0,.084.018h.01a.227.227,0,0,0,.084-.018l.024-.012,144.783-83.59a.227.227,0,0,0-.227-.392L211.041,202.485,99.876,138.3a.226.226,0,1,0-.226.392l111.278,64.247Z" fill="#fc9f28" fill-rule="evenodd"/>
        </g>
      </g>
      <path id="Trazado_104359" data-name="Trazado 104359" d="M211.041,201.157v8.208l-99.174-57.258a8.723,8.723,0,0,1-4.1-7.108c0-1.115.17-1.767.576-2.079a1.313,1.313,0,0,1,1.032-.148,4.629,4.629,0,0,1,1.4.493Z" fill="#fff" fill-rule="evenodd"/>
      <g id="Grupo_70087" data-name="Grupo 70087">
        <g id="Grupo_70086" data-name="Grupo 70086" clip-path="url(#clip-path-3)">
          <g id="Grupo_70085" data-name="Grupo 70085">
            <path id="Trazado_104360" data-name="Trazado 104360" d="M210.929,208.575l.023.011a.243.243,0,0,0,.083.018h.011a.243.243,0,0,0,.083-.018l.025-.013,144.782-83.589a.226.226,0,0,0-.226-.392L211.041,208.116,99.876,143.935a.226.226,0,0,0-.226.392l111.277,64.246Zm0-.939.023.011a.221.221,0,0,0,.083.018h.011a.221.221,0,0,0,.083-.018l.025-.012,144.782-83.59a.226.226,0,0,0-.226-.392L211.041,207.177,99.876,143a.227.227,0,0,0-.226.393l111.277,64.246Zm0-.939.023.012a.243.243,0,0,0,.083.018h.011a.243.243,0,0,0,.083-.018l.025-.013,144.782-83.589a.227.227,0,0,0-.226-.393L211.041,206.239,99.876,142.058a.226.226,0,0,0-.226.392L210.927,206.7Zm0-.938.023.011a.2.2,0,0,0,.083.018h.011a.2.2,0,0,0,.083-.018l.025-.012,144.782-83.59a.226.226,0,0,0-.226-.392L211.041,205.3,99.876,141.119a.227.227,0,0,0-.226.393l111.277,64.246Zm0-.939.023.011a.223.223,0,0,0,.083.019h.011a.223.223,0,0,0,.083-.019l.025-.012L355.936,121.23a.227.227,0,0,0-.226-.393L211.041,204.362,99.876,140.181a.226.226,0,0,0-.226.392l111.277,64.246Zm0-.938.023.011a.221.221,0,0,0,.083.018h.011a.221.221,0,0,0,.083-.018l.025-.012,144.782-83.59a.226.226,0,0,0-.226-.392L211.041,203.423,99.876,139.242a.226.226,0,1,0-.226.392l111.277,64.247Zm0-.939.023.012a.22.22,0,0,0,.083.017h.011a.22.22,0,0,0,.083-.017l.025-.013,144.782-83.589a.227.227,0,0,0-.226-.393L211.041,202.485,99.876,138.3a.226.226,0,1,0-.226.392l111.277,64.246Z" fill="#fc9f28" fill-rule="evenodd"/>
          </g>
        </g>
      </g>
      <path id="Trazado_104362" data-name="Trazado 104362" d="M215.537,211.961v1.269L111.318,153.059s-4.653-2.687-4.653-8.06,4.653-2.686,4.653-2.686l104.219,60.17v1.27L110.769,143.264a4.642,4.642,0,0,0-1.4-.492,1.309,1.309,0,0,0-1.032.148c-.406.313-.576.963-.576,2.079a8.723,8.723,0,0,0,4.1,7.108Z" fill="#b14787" fill-rule="evenodd"/>
      <path id="Trazado_104363" data-name="Trazado 104363" d="M215.537,213.23l137.317-79.28v-1.269l-137.317,79.28Zm0-9.477,137.317-79.28V123.2L215.537,202.483Z" fill="#fc9f28" fill-rule="evenodd"/>
      <path id="Trazado_104364" data-name="Trazado 104364" d="M352.854,133.95,215.537,202.483l-104.219-60.17a5.024,5.024,0,0,0-2.688-.648L244.962,62.789c1.364-1.088,3.672.244,3.672.244L352.854,123.2Z" fill="#fb5b5b" fill-rule="evenodd"/>
      <path id="Trazado_104365" data-name="Trazado 104365" d="M246.59,73.66,332.4,123.2,215.537,190.676,129.846,141.2Z" fill="none" stroke="#fc9f28" stroke-linecap="round" stroke-linejoin="round" stroke-width="0.487"/>
      <path id="Trazado_104366" data-name="Trazado 104366" d="M115.649,147.934c-2.744,1.194-9.231,8.15-9.912,10.417a10.172,10.172,0,0,1,4.193-1.394,10.978,10.978,0,0,0,1.691,4.791c.667-2.235,7.019-9.254,9.913-10.417Z" fill="#fc9f28" fill-rule="evenodd"/>
    </g>
    <path id="Trazado_104367" data-name="Trazado 104367" d="M260.588,88.577,229.454,71.9,111.948,139.745l84.979,49.062L315.56,120.315Z" fill="rgba(0,0,0,0.15)" fill-rule="evenodd"/>
    <g id="Grupo_70093" data-name="Grupo 70093">
      <path id="Trazado_104368" data-name="Trazado 104368" d="M113.852,123.349l2.957-1.707-.663,3.2Z" fill="#bcf7ff" fill-rule="evenodd"/>
      <path id="Trazado_104369" data-name="Trazado 104369" d="M293.637,77.179s7.965,4.6,7.965,13.8v18.4s0,4.088-2.36,5.45L199.109,172.632h0c2.36-1.362,2.36-5.45,2.36-5.45v-18.4c0-9.2-7.965-13.8-7.965-13.8Z" fill="#96a2c3" fill-rule="evenodd"/>
      <path id="Trazado_104370" data-name="Trazado 104370" d="M201.416,147.5c-.689-8.342-7.912-12.513-7.912-12.513L293.637,77.179s7.224,4.171,7.913,12.513Z" fill="#d1cfda" fill-rule="evenodd"/>
      <path id="Trazado_104371" data-name="Trazado 104371" d="M193.51,134.995,293.643,77.183,213.986,31.192,113.852,89Z" fill="#d1cfda" fill-rule="evenodd"/>
      <path id="Trazado_104372" data-name="Trazado 104372" d="M193.51,127.119,127.493,89l86.493-49.936L280,77.183Z" fill="none" stroke="#fff" stroke-linecap="round" stroke-linejoin="round" stroke-width="1.434"/>
      <path id="Trazado_104373" data-name="Trazado 104373" d="M113.852,91.491V89L193.5,134.991s7.965,4.6,7.965,13.8v18.4s0,9.2-7.965,4.6l-79.652-45.987v-2.445l7.731,4.422V95.955Z" fill="#96a2c3" fill-rule="evenodd"/>
      <path id="Trazado_104374" data-name="Trazado 104374" d="M116.006,92.735l76.421,44.122c.008,0,6.888,3.981,6.888,11.93v18.4a7.6,7.6,0,0,1-.447,2.394,1.969,1.969,0,0,1-.952,1.248c-.758.314-1.787-.014-3.335-.908l-78.575-45.335Z" fill="#fefce3" fill-rule="evenodd"/>
      <g id="Grupo_70092" data-name="Grupo 70092">
        <g id="Grupo_70091" data-name="Grupo 70091" clip-path="url(#clip-path-4)">
          <g id="Grupo_70090" data-name="Grupo 70090">
            <g id="Grupo_70089" data-name="Grupo 70089">
              <path id="Trazado_104375" data-name="Trazado 104375" d="M115.861,122.085l95.395,55.076a.289.289,0,1,0,.289-.5l-95.394-55.076a.289.289,0,0,0-.29.5Zm0-2.956,95.395,55.076a.289.289,0,1,0,.289-.5l-95.394-55.076a.289.289,0,0,0-.29.5Zm0-2.955,95.395,55.076a.289.289,0,1,0,.289-.5l-95.394-55.075a.289.289,0,0,0-.29.5Zm0-2.955,95.395,55.076a.289.289,0,1,0,.289-.5l-95.394-55.076a.289.289,0,0,0-.29.5Zm0-2.955,95.395,55.076a.289.289,0,1,0,.289-.5l-95.394-55.076a.289.289,0,0,0-.29.5Zm0-2.956,95.395,55.076a.289.289,0,1,0,.289-.5l-95.394-55.076a.289.289,0,1,0-.29.5Zm0-2.955,95.395,55.076a.289.289,0,1,0,.289-.5l-95.394-55.076a.289.289,0,0,0-.29.5Zm0-2.955,95.395,55.076a.289.289,0,1,0,.289-.5L116.151,100.9a.289.289,0,0,0-.29.5Zm0-2.955,95.395,55.075a.289.289,0,1,0,.289-.5L116.151,97.942a.289.289,0,0,0-.29.5Zm0-2.956,95.395,55.076a.289.289,0,1,0,.289-.5L116.151,94.987a.289.289,0,1,0-.29.5Z" fill="#46e3f4" fill-rule="evenodd"/>
            </g>
          </g>
        </g>
      </g>
      <path id="Trazado_104377" data-name="Trazado 104377" d="M179.457,137.078c-6.98,3.038-11,7.616-12.734,13.382a25.9,25.9,0,0,1,10.67-3.547,27.928,27.928,0,0,0,4.3,12.19c1.7-5.687,5.372-10.422,12.735-13.381Z" fill="#f25e0d" fill-rule="evenodd"/>
    </g>
  </g>
</svg>
