<svg xmlns="http://www.w3.org/2000/svg" width="85" height="85" viewBox="0 0 85 85">
  <g id="Grupo_69983" data-name="Grupo 69983" transform="translate(-1231 -1093)">
    <rect id="Rectángulo_5538" data-name="Rectángulo 5538" width="85" height="85" transform="translate(1231 1093)" fill="none"/>
    <g id="cadaver" transform="translate(1231 1097)">
      <g id="Grupo_69981" data-name="Grupo 69981" transform="translate(2.339 15.339)">
        <g id="Grupo_69969" data-name="Grupo 69969" transform="translate(0 20.081)">
          <path id="Trazado_103980" data-name="Trazado 103980" d="M35.468,38.032H4.677A2.685,2.685,0,0,1,2,35.355V32.677A2.685,2.685,0,0,1,4.677,30H27.435Z" transform="translate(-2 -30)" fill="#aab2bd"/>
        </g>
        <g id="Grupo_69970" data-name="Grupo 69970" transform="translate(36.145 20.081)">
          <path id="Trazado_103981" data-name="Trazado 103981" d="M73.177,32.677v2.677A2.685,2.685,0,0,1,70.5,38.032H37.032L29,30H70.5A2.685,2.685,0,0,1,73.177,32.677Z" transform="translate(-29 -30)" fill="#aab2bd"/>
        </g>
        <g id="Grupo_69971" data-name="Grupo 69971" transform="translate(0)">
          <path id="Trazado_103982" data-name="Trazado 103982" d="M69.377,18.521a5.317,5.317,0,0,0,4.137-.776l1.1-.736a4.163,4.163,0,0,1,2.236-.669h.91A4.571,4.571,0,0,1,82.323,20.9v9.84a4.036,4.036,0,0,1-1.178,2.838l-1.5,1.5h-41.5L32.79,29.726l-5.355-2.677-3.146,1.58a5.334,5.334,0,0,0-1.821,1.486,5.175,5.175,0,0,0-.991,1.995l-.736,2.972H4.677A15.988,15.988,0,0,1,2,26.232,11.244,11.244,0,0,1,13.232,15h3.735c1.138,0,2.262.054,3.387.161a35.182,35.182,0,0,1,9.317,2.37l5.743,2.276a18.71,18.71,0,0,1,10.857-3.467H57.5a18.947,18.947,0,0,1,4.07.442Z" transform="translate(-2 -15)" fill="#e4cbb7"/>
        </g>
        <g id="Grupo_69972" data-name="Grupo 69972" transform="translate(20.469 12.048)">
          <path id="Trazado_103983" data-name="Trazado 103983" d="M41,40.065l-5.355,5.355-5.355-5.355-8.032-8.032L17.29,27.066a5.334,5.334,0,0,1,1.821-1.486L22.257,24l5.355,2.677,5.355,5.355Z" transform="translate(-17.29 -24)" fill="#f5f7fa"/>
        </g>
        <g id="Grupo_69973" data-name="Grupo 69973" transform="translate(6.694 28.113)">
          <path id="Trazado_103984" data-name="Trazado 103984" d="M12.355,57.982v3.454a1.343,1.343,0,0,1-1.339,1.339H8.339A1.343,1.343,0,0,1,7,61.435V36h5.355V57.982Z" transform="translate(-7 -36)" fill="#ccd1d9"/>
        </g>
        <g id="Grupo_69974" data-name="Grupo 69974" transform="translate(12.048 42.839)">
          <path id="Trazado_103985" data-name="Trazado 103985" d="M35.1,47l-.95.95a1.35,1.35,0,0,0-.388.937v3.467H11V47Z" transform="translate(-11 -47)" fill="#ccd1d9"/>
        </g>
        <g id="Grupo_69975" data-name="Grupo 69975" transform="translate(41.5 42.839)">
          <path id="Trazado_103986" data-name="Trazado 103986" d="M33,47H59.774v5.355H34.339V48.888a1.35,1.35,0,0,0-.388-.937Z" transform="translate(-33 -47)" fill="#ccd1d9"/>
        </g>
        <g id="Grupo_69976" data-name="Grupo 69976" transform="translate(68.274 28.113)">
          <path id="Trazado_103987" data-name="Trazado 103987" d="M58.355,57.982v3.454a1.343,1.343,0,0,1-1.339,1.339H54.339A1.343,1.343,0,0,1,53,61.435V36h5.355Z" transform="translate(-53 -36)" fill="#ccd1d9"/>
        </g>
        <g id="Grupo_69977" data-name="Grupo 69977" transform="translate(2.677 50.095)">
          <path id="Trazado_103988" data-name="Trazado 103988" d="M13.371,52.42a6.694,6.694,0,1,1-5.355,0v3.454a1.343,1.343,0,0,0,1.339,1.339h2.677a1.343,1.343,0,0,0,1.339-1.339Z" transform="translate(-4 -52.42)" fill="#838f9b"/>
        </g>
        <g id="Grupo_69978" data-name="Grupo 69978" transform="translate(64.258 50.095)">
          <path id="Trazado_103989" data-name="Trazado 103989" d="M59.371,52.42a6.694,6.694,0,1,1-5.355,0v3.454a1.343,1.343,0,0,0,1.339,1.339h2.677a1.343,1.343,0,0,0,1.339-1.339Z" transform="translate(-50 -52.42)" fill="#838f9b"/>
        </g>
        <g id="Grupo_69979" data-name="Grupo 69979" transform="translate(34.806 40.161)">
          <path id="Trazado_103990" data-name="Trazado 103990" d="M34.694,47.677l.95.95a1.35,1.35,0,0,1,.388.937V55.71a2.685,2.685,0,0,1-2.677,2.677H30.677A2.685,2.685,0,0,1,28,55.71V49.565a1.35,1.35,0,0,1,.388-.937l.95-.95L32.016,45Z" transform="translate(-28 -45)" fill="#fcd770"/>
        </g>
        <g id="Grupo_69980" data-name="Grupo 69980" transform="translate(38.823 28.113)">
          <path id="Trazado_103991" data-name="Trazado 103991" d="M39.26,38.905A3.786,3.786,0,1,1,33.9,44.26l-2.9-2.9L36.355,36Z" transform="translate(-31 -36)" fill="#f0d0b4"/>
        </g>
      </g>
      <g id="Grupo_69982" data-name="Grupo 69982" transform="translate(1 14)">
        <path id="Trazado_103992" data-name="Trazado 103992" d="M11.26,24.577a5.331,5.331,0,0,1,2.971-.9H16.22V21H14.231a8,8,0,0,0-4.455,1.349L7.446,23.9,8.931,26.13Z" transform="translate(1.183 -11.629)" fill="#636363"/>
        <path id="Trazado_103993" data-name="Trazado 103993" d="M84,31.078v-9.83a5.91,5.91,0,0,0-5.909-5.909h-.908a5.334,5.334,0,0,0-2.971.9l-1.1.735a4.048,4.048,0,0,1-3.1.58L62.2,15.818a20.034,20.034,0,0,0-4.356-.479H46.607A20.1,20.1,0,0,0,35.6,18.644l-5.1-2.017a35.612,35.612,0,0,0-9.683-2.457c-1.159-.112-2.34-.17-3.506-.17H13.576A12.59,12.59,0,0,0,1,26.577,17.2,17.2,0,0,0,3.008,34.64,4,4,0,0,0,1,38.1v2.677A4.021,4.021,0,0,0,5.016,44.79H7.694V64.625a8.029,8.029,0,1,0,8.437.246H35.806V66.21a4.021,4.021,0,0,0,4.016,4.016H42.5a4.021,4.021,0,0,0,4.016-4.016V64.871H68.87a8.035,8.035,0,1,0,8.437-.246V44.79h2.677A4.021,4.021,0,0,0,84,40.774V38.1A4,4,0,0,0,82.392,34.9l.039-.039A5.317,5.317,0,0,0,84,31.078Zm-70.423-14.4h3.735c1.08,0,2.173.054,3.248.158a32.97,32.97,0,0,1,8.957,2.282L33.1,20.536l-2.169,1.807L32.648,24.4l2.819-2.349a17.433,17.433,0,0,1,11.141-4.034H57.847a17.379,17.379,0,0,1,3.775.415l4.226.94L69.466,25.4l2.3-1.378L69.45,20.169A6.716,6.716,0,0,0,74.6,19.2l1.1-.735a2.666,2.666,0,0,1,1.485-.45h.908a3.231,3.231,0,0,1,3.232,3.23v9.83a2.662,2.662,0,0,1-.784,1.894L79.43,34.081H56.049a1.5,1.5,0,0,1-1.062-2.562l3.185-3.185-1.893-1.893-3.185,3.185a4.129,4.129,0,0,0-.933,4.455H39.038l-4.963-4.963-1.893,1.893L44.623,43.452l-3.462,3.462L24.726,30.478a4.143,4.143,0,0,1,.494-.319l3.151-1.576-1.2-2.395-3.151,1.576a6.686,6.686,0,0,0-3.5,4.363l-.486,1.953H5.763a14.546,14.546,0,0,1-2.086-7.5,9.91,9.91,0,0,1,9.9-9.9Zm55.7,40.161H44.393L42.5,54.946V52.038l.623.623a5.124,5.124,0,1,0,7.246-7.248l-.621-.623H69.274Zm-31.345,0h-22.2V44.79H35.252l4.57,4.57v5.585Zm10.548-9.533a2.448,2.448,0,0,1-1.732,4.178,2.433,2.433,0,0,1-1.731-.716l-1.96-1.961,3.462-3.462ZM23.121,32.778c.008-.031.024-.058.032-.087l1.39,1.39H22.8Zm-19.443,8V38.1a1.341,1.341,0,0,1,1.339-1.339h22.2l5.355,5.355H5.016A1.34,1.34,0,0,1,3.677,40.774Zm9.371,4.016v24.1H10.371V44.79ZM11.71,76.919a5.355,5.355,0,0,1-4.016-8.9v.865a2.68,2.68,0,0,0,2.677,2.677h2.677a2.68,2.68,0,0,0,2.677-2.677v-.865a5.355,5.355,0,0,1-4.016,8.9Zm4.016-14.726V59.516H35.868a2.653,2.653,0,0,0-.062.554v2.123ZM43.839,66.21A1.34,1.34,0,0,1,42.5,67.548H39.823a1.34,1.34,0,0,1-1.339-1.339V60.07l2.677-2.677,2.677,2.677Zm2.616-6.694h22.82v2.677H46.516V60.07A2.653,2.653,0,0,0,46.455,59.516ZM78.645,71.565a5.355,5.355,0,1,1-9.371-3.542v.865a2.68,2.68,0,0,0,2.677,2.677h2.677a2.68,2.68,0,0,0,2.677-2.677v-.865A5.354,5.354,0,0,1,78.645,71.565Zm-4.016-2.677H71.952V44.79h2.677Zm6.694-28.113a1.34,1.34,0,0,1-1.339,1.339H47.07l-5.355-5.355H79.984A1.341,1.341,0,0,1,81.323,38.1Z" transform="translate(-1 -14)" fill="#636363"/>
        <path id="Trazado_103994" data-name="Trazado 103994" d="M57.677,25.21a5.354,5.354,0,0,1,.274-1.693l1-2.985-2.54-.847-1,2.985A8.03,8.03,0,0,0,55,25.21v4.268h2.677Z" transform="translate(17.29 -12.075)" fill="#636363"/>
      </g>
    </g>
  </g>
</svg>
