<svg xmlns="http://www.w3.org/2000/svg" width="85" height="85" viewBox="0 0 85 85">
  <g id="Grupo_69986" data-name="Grupo 69986" transform="translate(-285 -1093)">
    <rect id="Rectángulo_5536" data-name="Rectángulo 5536" width="85" height="85" transform="translate(285 1093)" fill="none"/>
    <g id="cementerio" transform="translate(285 1093)">
      <path id="Trazado_103940" data-name="Trazado 103940" d="M56.75,7.5V23.853a8.176,8.176,0,1,0,0-16.353Z" transform="translate(-47.329 -6.255)" fill="#96a2c3"/>
      <path id="Trazado_103941" data-name="Trazado 103941" d="M52.5,121h6.392v9.961H52.5Z" transform="translate(-43.784 -100.912)" fill="#e4cbb7"/>
      <path id="Trazado_103942" data-name="Trazado 103942" d="M22.5,121h6.392v9.961H22.5Z" transform="translate(-18.765 -100.912)" fill="#e4cbb7"/>
      <path id="Trazado_103943" data-name="Trazado 103943" d="M46,187.5v50.137l2.49,2.49h4.98V187.5Z" transform="translate(-38.363 -156.372)" fill="#e4cbb7"/>
      <path id="Trazado_103944" data-name="Trazado 103944" d="M22.5,187.5h6.392v52.627H22.5Z" transform="translate(-18.765 -156.372)" fill="#f6e8db"/>
      <path id="Trazado_103945" data-name="Trazado 103945" d="M65.98,166H61v4.98h4.98a2.49,2.49,0,1,0,0-4.98Z" transform="translate(-50.873 -138.441)" fill="#e4cbb7"/>
      <path id="Trazado_103946" data-name="Trazado 103946" d="M18.872,168.49a2.49,2.49,0,0,0-2.49-2.49H9.99a2.49,2.49,0,1,0,0,4.98h6.392A2.49,2.49,0,0,0,18.872,168.49Z" transform="translate(-6.255 -138.441)" fill="#f6e8db"/>
      <path id="Trazado_103947" data-name="Trazado 103947" d="M65.98,106H61v4.98h4.98a2.49,2.49,0,0,0,0-4.98Z" transform="translate(-50.873 -88.402)" fill="#e4cbb7"/>
      <path id="Trazado_103948" data-name="Trazado 103948" d="M18.872,108.49a2.49,2.49,0,0,0-2.49-2.49H9.99a2.49,2.49,0,0,0,0,4.98h6.392A2.49,2.49,0,0,0,18.872,108.49Z" transform="translate(-6.255 -88.402)" fill="#f6e8db"/>
      <path id="Trazado_103949" data-name="Trazado 103949" d="M18.872,15.676c0-4.516-1.431-8.176-3.2-8.176a8.176,8.176,0,0,0,0,16.353C17.441,23.853,18.872,20.192,18.872,15.676Z" transform="translate(-6.255 -6.255)" fill="#d1cfda"/>
      <path id="Trazado_103950" data-name="Trazado 103950" d="M455.25,7.5V23.853a8.176,8.176,0,0,0,0-16.353Z" transform="translate(-379.672 -6.255)" fill="#96a2c3"/>
      <path id="Trazado_103951" data-name="Trazado 103951" d="M451,121h6.392v9.961H451Z" transform="translate(-376.127 -100.912)" fill="#e4cbb7"/>
      <path id="Trazado_103952" data-name="Trazado 103952" d="M421,121h6.392v9.961H421Z" transform="translate(-351.108 -100.912)" fill="#e4cbb7"/>
      <path id="Trazado_103953" data-name="Trazado 103953" d="M444.5,187.5v50.137l2.49,2.49h4.98V187.5Z" transform="translate(-370.706 -156.372)" fill="#e4cbb7"/>
      <path id="Trazado_103954" data-name="Trazado 103954" d="M421,187.5h6.392v52.627H421Z" transform="translate(-351.108 -156.372)" fill="#f6e8db"/>
      <path id="Trazado_103955" data-name="Trazado 103955" d="M464.48,166H459.5v4.98h4.98a2.49,2.49,0,0,0,0-4.98Z" transform="translate(-383.216 -138.441)" fill="#e4cbb7"/>
      <path id="Trazado_103956" data-name="Trazado 103956" d="M417.372,168.49a2.49,2.49,0,0,0-2.49-2.49H408.49a2.49,2.49,0,1,0,0,4.98h6.392A2.49,2.49,0,0,0,417.372,168.49Z" transform="translate(-338.598 -138.441)" fill="#f6e8db"/>
      <path id="Trazado_103957" data-name="Trazado 103957" d="M464.48,106H459.5v4.98h4.98a2.49,2.49,0,0,0,0-4.98Z" transform="translate(-383.216 -88.402)" fill="#e4cbb7"/>
      <path id="Trazado_103958" data-name="Trazado 103958" d="M417.372,108.49a2.49,2.49,0,0,0-2.49-2.49H408.49a2.49,2.49,0,1,0,0,4.98h6.392A2.49,2.49,0,0,0,417.372,108.49Z" transform="translate(-338.598 -88.402)" fill="#f6e8db"/>
      <path id="Trazado_103959" data-name="Trazado 103959" d="M417.372,15.676c0-4.516-1.431-8.176-3.2-8.176a8.176,8.176,0,0,0,0,16.353C415.941,23.853,417.372,20.192,417.372,15.676Z" transform="translate(-338.598 -6.255)" fill="#d1cfda"/>
      <path id="Trazado_103960" data-name="Trazado 103960" d="M417.343,20.088a3.741,3.741,0,0,0-3.106-3.681,9.421,9.421,0,1,0-12.63,0,3.735,3.735,0,0,0-.616,7.2v2.919a3.735,3.735,0,0,0,0,7.042V83.755A1.245,1.245,0,0,0,402.235,85h11.372a1.245,1.245,0,0,0,1.245-1.245V33.57a3.735,3.735,0,0,0,0-7.042V23.609a3.741,3.741,0,0,0,2.49-3.521ZM403.48,26.313v-2.49h8.882v2.49ZM400.99,9.421a6.931,6.931,0,1,1,6.931,6.931A6.939,6.939,0,0,1,400.99,9.421Zm1.245,9.421h11.372a1.245,1.245,0,1,1,0,2.49H402.235a1.245,1.245,0,1,1,0-2.49ZM403.48,82.51V33.784h8.882V82.51Zm10.127-51.216H402.235a1.245,1.245,0,1,1,0-2.49h11.372a1.245,1.245,0,1,1,0,2.49Z" transform="translate(-332.343 0)" fill="#636363"/>
      <path id="Trazado_103961" data-name="Trazado 103961" d="M18.843,30.049a3.741,3.741,0,0,0-2.49-3.521V23.594a3.726,3.726,0,0,0-.617-7.187,9.421,9.421,0,1,0-12.621.007,3.728,3.728,0,0,0-.624,7.194v2.92a3.735,3.735,0,0,0,0,7.043V83.755A1.245,1.245,0,0,0,3.735,85H15.107a1.245,1.245,0,0,0,1.245-1.245V71.3a1.245,1.245,0,1,0-2.49,0V82.51H4.98V33.784h8.882V66.323a1.245,1.245,0,1,0,2.49,0V33.57A3.741,3.741,0,0,0,18.843,30.049Zm-4.98-6.226v2.49H4.98v-2.49ZM2.49,9.421a6.931,6.931,0,1,1,6.931,6.931A6.939,6.939,0,0,1,2.49,9.421ZM2.5,19.941a1.293,1.293,0,0,1,1.3-1.1H15.107a1.246,1.246,0,0,1,1.237,1.392,1.293,1.293,0,0,1-1.3,1.1H3.735A1.246,1.246,0,0,1,2.5,19.941ZM15.107,31.294H3.735a1.245,1.245,0,0,1,0-2.49H15.107a1.245,1.245,0,0,1,0,2.49Z" transform="translate(0 0)" fill="#636363"/>
      <path id="Trazado_103962" data-name="Trazado 103962" d="M134.667,158.5a11.551,11.551,0,0,0-9.064,4.356l-3.739,4.673a9.073,9.073,0,0,1-7.119,3.422A1.245,1.245,0,0,0,113.5,172.2v38.765a1.245,1.245,0,0,0,1.245,1.245h18.677v3.735a1.245,1.245,0,0,0,2.49,0v-56.2A1.245,1.245,0,0,0,134.667,158.5Zm-1.245,31.294h-2.49V161.785a9.074,9.074,0,0,1,2.49-.711Zm-12.451,2.49h2.49v7.471h-2.49Zm-2.49,7.471h-2.49v-7.471h2.49Zm4.98,2.49v7.471h-2.49v-7.471Zm2.49,0h2.49v7.471h-2.49Zm0-2.49v-7.471h2.49v7.471Zm4.98-7.471h2.49v7.471h-2.49Zm-3.384-27.872a9.224,9.224,0,0,1,.894-.967v26.349h-2.49V166.407Zm-4.087,5.087v20.295h-2.49V171.633A11.61,11.61,0,0,0,123.461,169.5Zm-4.98,3.327v16.968h-2.49V173.376A11.585,11.585,0,0,0,118.48,172.826Zm-2.49,29.419h2.49v7.471h-2.49Zm14.941,7.471v-7.471h2.49v7.471Z" transform="translate(-94.657 -132.187)" fill="#636363"/>
      <path id="Trazado_103963" data-name="Trazado 103963" d="M284.666,170.952a9.074,9.074,0,0,1-7.12-3.422l-3.739-4.673a11.55,11.55,0,0,0-9.064-4.356,1.245,1.245,0,0,0-1.245,1.245v56.2a1.245,1.245,0,1,0,2.49,0v-3.736h18.677a1.245,1.245,0,0,0,1.245-1.245V172.2A1.245,1.245,0,0,0,284.666,170.952Zm-1.245,18.843h-2.49V172.827a11.588,11.588,0,0,0,2.49.55Zm-12.451,2.49h2.49v7.471h-2.49Zm-2.49,7.471h-2.49v-7.471h2.49Zm4.98,2.49v7.471h-2.49v-7.471Zm2.49,0h2.49v7.471h-2.49Zm0-2.49v-7.471h2.49v7.471Zm4.98-7.471h2.49v7.471h-2.49Zm-2.49-20.651v18.161h-2.49V169.5A11.607,11.607,0,0,0,278.44,171.634Zm-6.577-7.221,1.6,2v23.386h-2.49V163.445A9.242,9.242,0,0,1,271.864,164.413Zm-3.384-2.627v28.008h-2.49v-28.72A9.064,9.064,0,0,1,268.48,161.786Zm-2.49,40.46h2.49v7.471h-2.49Zm14.941,7.471v-7.471h2.49v7.471Z" transform="translate(-219.754 -132.187)" fill="#636363"/>
    </g>
  </g>
</svg>
