<svg xmlns="http://www.w3.org/2000/svg" width="216.5" height="185.2" viewBox="0 0 216.5 185.2">
  <g id="Grupo_69262" data-name="Grupo 69262" transform="translate(-542.609 -13.803)">
    <g id="Grupo_69262-2" data-name="Grupo 69262" transform="translate(542.609 13.803)">
      <path id="Trazado_101213" data-name="Trazado 101213" d="M759.109,106.406c0,51.136-48.465,92.6-108.25,92.6s-108.251-41.461-108.251-92.6S591.077,13.8,650.86,13.8,759.109,55.261,759.109,106.406Z" transform="translate(-542.609 -13.803)" fill="#f6e8db"/>
    </g>
    <g id="Grupo_69281" data-name="Grupo 69281" transform="translate(570.741 45.173)">
      <g id="Grupo_69265" data-name="Grupo 69265" transform="translate(37.255 60.614)">
        <g id="Grupo_69263" data-name="Grupo 69263" transform="translate(12.63)">
          <path id="Trazado_101214" data-name="Trazado 101214" d="M609.2,103.576h3.379c.558-1,1.317-1.947,1.9-2.8,1.817-2.667,3.543-5.359,5.36-8.027.718-1.051,3.466-6.448,3.011-8.466a1.264,1.264,0,0,0-.092-.271c-.28-.6-1.008-.717-2.429.018-3.326,1.712-6.33,6.861-7.762,10.148A90.3,90.3,0,0,0,609.2,103.576Z" transform="translate(-590.116 -73.842)" fill="#9adbc4"/>
          <path id="Trazado_101215" data-name="Trazado 101215" d="M607.467,106.5h2.06a35.884,35.884,0,0,1,1.613-4.606,70.743,70.743,0,0,1,3.943-9.58c1.973-3.772,3.889-7.392,4.262-11.741.127-1.444.092-3.053-.681-3.539a.78.78,0,0,0-.2-.1,2.264,2.264,0,0,0-1.82.525c-2.489,1.614-3.538,6.056-4.391,8.656-.85,2.616-1.549,5.248-2.174,7.925-.9,3.829-1.486,7.759-2.4,11.437C607.587,105.834,607.527,106.174,607.467,106.5Z" transform="translate(-590.908 -76.883)" fill="#9adbc4"/>
          <path id="Trazado_101216" data-name="Trazado 101216" d="M596.226,93.622c.609,2.749,3.476,4.264,4.958,6.518h3.293a14.288,14.288,0,0,0-3.82-8.513,3.492,3.492,0,0,0-3.019-1.076c-.085.017-.165.044-.248.067C596.448,90.94,595.847,91.93,596.226,93.622Z" transform="translate(-596.111 -70.644)" fill="#9adbc4"/>
          <path id="Trazado_101217" data-name="Trazado 101217" d="M602.124,97.739V102.7h3.09a101.276,101.276,0,0,0,1.56-10.47c.233-1.789,1.553-8.533-2.305-7.443a2.274,2.274,0,0,0-.274.1,2.067,2.067,0,0,0-.239.124C601.122,86.726,602.124,95.189,602.124,97.739Z" transform="translate(-593.435 -73.318)" fill="#9adbc4"/>
          <path id="Trazado_101218" data-name="Trazado 101218" d="M605.091,104.277h2.858c.373-1.369.56-2.986.891-4.293.707-2.829,1.6-5.633,2.307-8.469a30.856,30.856,0,0,0,1.064-7.628c0-1.374-.449-2.33-1.2-2.407a1.117,1.117,0,0,0-.27,0,2.853,2.853,0,0,0-1.544,1.075c-2.874,3.323-3.024,9.446-3.409,13.6C605.542,98.787,605.171,101.61,605.091,104.277Z" transform="translate(-591.996 -74.781)" fill="#9adbc4"/>
          <path id="Trazado_101219" data-name="Trazado 101219" d="M603.232,102.628h.26c1.04-5.9,1.547-12.032.117-17.815a2.066,2.066,0,0,0-.239.124C604.77,90.681,604.263,96.77,603.232,102.628Z" transform="translate(-592.848 -73.25)" fill="#fff"/>
          <path id="Trazado_101220" data-name="Trazado 101220" d="M596.988,90.6c.674.7,1.305,1.441,1.9,2.192a20.543,20.543,0,0,1,3.987,7.33h.274a20,20,0,0,0-4.022-7.422c-.6-.741-1.228-1.468-1.891-2.167C597.151,90.552,597.071,90.579,596.988,90.6Z" transform="translate(-595.709 -70.628)" fill="#fff"/>
          <path id="Trazado_101221" data-name="Trazado 101221" d="M605.961,104.277h.267a204.986,204.986,0,0,1,4.383-22.8,1.117,1.117,0,0,0-.27,0A204.8,204.8,0,0,0,605.961,104.277Z" transform="translate(-591.598 -74.781)" fill="#fff"/>
          <path id="Trazado_101222" data-name="Trazado 101222" d="M608.172,106.483h.262A110.543,110.543,0,0,1,610.7,94.913a55.416,55.416,0,0,1,7.638-17.9.78.78,0,0,0-.2-.1,54.657,54.657,0,0,0-7.632,17.723A113.835,113.835,0,0,0,608.172,106.483Z" transform="translate(-590.585 -76.868)" fill="#fff"/>
          <path id="Trazado_101223" data-name="Trazado 101223" d="M609.984,103.421h.28c4-13.22,9.258-17.745,12.215-19.292a1.261,1.261,0,0,0-.092-.271,13.846,13.846,0,0,0-3.086,2.211C616.663,88.513,612.976,93.485,609.984,103.421Z" transform="translate(-589.754 -73.688)" fill="#fff"/>
        </g>
        <g id="Grupo_69264" data-name="Grupo 69264" transform="translate(32.804 4.375)">
          <path id="Trazado_101224" data-name="Trazado 101224" d="M623.029,106.576h3.377c.559-1,1.318-1.947,1.9-2.8,1.815-2.667,3.542-5.357,5.362-8.027.714-1.051,3.465-6.448,3.011-8.465a1.372,1.372,0,0,0-.093-.274c-.278-.6-1.006-.715-2.429.019-3.325,1.712-6.329,6.861-7.762,10.149A89.634,89.634,0,0,0,623.029,106.576Z" transform="translate(-603.951 -76.842)" fill="#9adbc4"/>
          <path id="Trazado_101225" data-name="Trazado 101225" d="M621.3,109.5h2.06a35.788,35.788,0,0,1,1.613-4.606,70.9,70.9,0,0,1,3.942-9.58c1.973-3.774,3.89-7.39,4.264-11.741.128-1.442.092-3.053-.681-3.539a.789.789,0,0,0-.206-.1,2.268,2.268,0,0,0-1.818.525c-2.489,1.614-3.538,6.057-4.391,8.656-.85,2.617-1.549,5.248-2.174,7.925-.9,3.831-1.486,7.759-2.4,11.437C621.422,108.832,621.361,109.174,621.3,109.5Z" transform="translate(-604.743 -79.883)" fill="#9adbc4"/>
          <path id="Trazado_101226" data-name="Trazado 101226" d="M610.061,96.622c.608,2.749,3.475,4.264,4.956,6.518h3.293a14.288,14.288,0,0,0-3.82-8.513,3.492,3.492,0,0,0-3.018-1.076c-.085.018-.166.044-.248.069C610.281,93.942,609.682,94.93,610.061,96.622Z" transform="translate(-609.946 -73.644)" fill="#9adbc4"/>
          <path id="Trazado_101227" data-name="Trazado 101227" d="M615.958,100.74V105.7h3.087a100.489,100.489,0,0,0,1.563-10.47c.233-1.789,1.553-8.533-2.305-7.444a2.649,2.649,0,0,0-.274.1,1.954,1.954,0,0,0-.239.124C614.956,89.726,615.958,98.189,615.958,100.74Z" transform="translate(-607.27 -76.318)" fill="#9adbc4"/>
          <path id="Trazado_101228" data-name="Trazado 101228" d="M618.925,107.276h2.858c.373-1.369.56-2.985.89-4.294.709-2.826,1.6-5.632,2.308-8.468a30.848,30.848,0,0,0,1.064-7.628c0-1.374-.451-2.33-1.2-2.407a1.108,1.108,0,0,0-.268,0,2.839,2.839,0,0,0-1.544,1.073c-2.876,3.323-3.024,9.446-3.411,13.6C619.376,101.786,619.005,104.609,618.925,107.276Z" transform="translate(-605.832 -77.781)" fill="#9adbc4"/>
          <path id="Trazado_101229" data-name="Trazado 101229" d="M617.066,105.628h.26c1.04-5.9,1.547-12.03.117-17.815a1.954,1.954,0,0,0-.239.124C618.6,93.682,618.1,99.77,617.066,105.628Z" transform="translate(-606.684 -76.25)" fill="#fff"/>
          <path id="Trazado_101230" data-name="Trazado 101230" d="M610.822,93.6c.672.7,1.305,1.438,1.9,2.19a20.537,20.537,0,0,1,3.985,7.33h.274A20.053,20.053,0,0,0,612.96,95.7c-.594-.741-1.226-1.468-1.89-2.167C610.985,93.553,610.9,93.579,610.822,93.6Z" transform="translate(-609.544 -73.628)" fill="#fff"/>
          <path id="Trazado_101231" data-name="Trazado 101231" d="M619.795,107.276h.265a205.35,205.35,0,0,1,4.383-22.8,1.108,1.108,0,0,0-.268,0A204.373,204.373,0,0,0,619.795,107.276Z" transform="translate(-605.433 -77.781)" fill="#fff"/>
          <path id="Trazado_101232" data-name="Trazado 101232" d="M622.006,109.483h.261a110.432,110.432,0,0,1,2.271-11.569,55.408,55.408,0,0,1,7.638-17.9.789.789,0,0,0-.206-.1,54.7,54.7,0,0,0-7.632,17.723A114.307,114.307,0,0,0,622.006,109.483Z" transform="translate(-604.42 -79.868)" fill="#fff"/>
          <path id="Trazado_101233" data-name="Trazado 101233" d="M623.817,106.422h.281c4-13.22,9.258-17.745,12.217-19.291a1.375,1.375,0,0,0-.093-.274,13.81,13.81,0,0,0-3.086,2.214C630.5,91.514,626.812,96.485,623.817,106.422Z" transform="translate(-603.59 -76.688)" fill="#fff"/>
        </g>
        <path id="Trazado_101234" data-name="Trazado 101234" d="M637.865,102.368c-1.168-3.258-6.282-.258-8.3.544,1.761-1.054,6.34-5.15,4.3-7.623-1.934-2.356-6.294.771-8.875,3.088,2.165-2.391,4.728-6.21,1.906-6.728-2.706-.5-7.279,3.046-9.334,6.1,1.433-3.351,3.1-8.509-1.244-5.678a16.783,16.783,0,0,0-4.038,4.913c.6-2.111.5-3.963-1.715-4.175-3.433-.331-7.138,5.954-8.143,10.089-.077-.661-.359-1-.777-.948-1.251.1-1.769,1.715-1.875,2.9-.421-1.075-.6-4.261-2.87-3.473-2,.694-1.454,3.66-1.429,5.26-1.169-1.321-6.734-5.271-7.94-2.081-.618,1.646,2.208,3.25,4.185,4.442h5.363l.055-.013,15.256-.035c.09.017.182.029.274.048H632.74C634.638,107.841,638.757,104.847,637.865,102.368Z" transform="translate(-587.45 -70.301)" fill="#81c9b1"/>
        <path id="Trazado_101235" data-name="Trazado 101235" d="M654.578,106.512H621.4c-.822-2.068-4.952-3.57-4.182-5.583.987-2.6,4.977-.324,5.775,1.124-.057-1.28-.118-4.518,1.428-5.15,2.155-.884,1.677,3.306,1.734,4.692.528-1.853,2.212-5.155,4.456-5.2a11.217,11.217,0,0,1,.047,5.426c.208-1.344,3.363-4.926,5.035-4.268,1.143.449,1.04,3.16.493,4.488,1.623-2.377,7.736-5.6,10.069-3.939,2.286,1.629-1.592,4.344-2.877,5.388,1.511-1.029,4.843-3.488,6.766-2.09,1.8,1.305.394,2.59-1.2,3.142,1.454-.111,5.538-1.56,6.355.223C655.594,105.412,655.181,106.016,654.578,106.512Z" transform="translate(-573.852 -67.943)" fill="#81c9b1"/>
      </g>
      <g id="Grupo_69276" data-name="Grupo 69276" transform="translate(90.789 12.899)">
        <path id="Trazado_101236" data-name="Trazado 101236" d="M646.506,62.484s-2.266,2.755-6.8,20.577l-1.62,3.565-9.56,19.6,5.511.487L646.019,86.3,653.8,72.69Z" transform="translate(-622.164 -35.767)" fill="#ff8f67"/>
        <path id="Trazado_101237" data-name="Trazado 101237" d="M661.746,62.594s10.734,3-3.971,25.358l-5.225-8.141Z" transform="translate(-611.154 -35.716)" fill="#ff8f67"/>
        <g id="Grupo_69270" data-name="Grupo 69270" transform="translate(23.739 2.874)">
          <g id="Grupo_69269" data-name="Grupo 69269">
            <path id="Trazado_101238" data-name="Trazado 101238" d="M653.141,60.551a8.986,8.986,0,0,1-.453-2.321c-.054-.63-.063-3.9-1.381-3.382-1.61.634-1.188,3.207-2.965,3.85-.3.108-.658.227-.99.373-.722.324-1.326.8-.955,1.716s1.339,2.2.837,3.242c-.382.795-1.312.8-2.088.924-2.819.452-.846,2.771.182,4.4,1.388,2.195,4.908,5.564,7.778,3.949a14.6,14.6,0,0,0,5.064-5.35c.939-1.512,3.074-4.3.507-5.363-1.381-.569-3.083-.086-4.383-.621A2.286,2.286,0,0,1,653.141,60.551Z" transform="translate(-638.952 -42.165)" fill="#ff8f67"/>
            <g id="Grupo_69268" data-name="Grupo 69268">
              <path id="Trazado_101239" data-name="Trazado 101239" d="M641.271,59.739a9.245,9.245,0,0,0,.1-2.282c-.206-1.658-1.165-3.067-.882-4.907a6.9,6.9,0,0,1,3.736-5.334,7.1,7.1,0,0,1,9.983,2.566c2.825,4.878-.073,13.449-5.187,15.579-2.212.923-4.243,1.171-5.728-1.072-.5-.763-1.145-1.368-1.6-2.2A3.684,3.684,0,0,1,641.271,59.739Z" transform="translate(-640.442 -46.133)" fill="#ff8f67"/>
              <path id="Trazado_101240" data-name="Trazado 101240" d="M646.676,60.739a.182.182,0,0,1-.077-.346,6.613,6.613,0,0,0,3.231-4.744.181.181,0,1,1,.356.067,6.853,6.853,0,0,1-3.433,5.006A.209.209,0,0,1,646.676,60.739Z" transform="translate(-637.668 -41.841)" fill="#9f6464"/>
              <g id="Grupo_69266" data-name="Grupo 69266" transform="translate(5.712 9.217)">
                <path id="Trazado_101241" data-name="Trazado 101241" d="M644.713,53.373a.472.472,0,0,0,.185-.01,1.763,1.763,0,0,1,1.05.077.43.43,0,0,0,.359-.782,2.625,2.625,0,0,0-1.629-.127.432.432,0,0,0,.035.841Z" transform="translate(-644.359 -52.454)" fill="#a86060"/>
              </g>
              <g id="Grupo_69267" data-name="Grupo 69267" transform="translate(0.811 9.692)">
                <path id="Trazado_101242" data-name="Trazado 101242" d="M641.45,53.862a.321.321,0,0,0,.172-.052,1.732,1.732,0,0,1,1.025-.163.426.426,0,1,0,.162-.837,2.621,2.621,0,0,0-1.589.255.425.425,0,0,0,.23.8Z" transform="translate(-640.998 -52.779)" fill="#a86060"/>
              </g>
              <path id="Trazado_101243" data-name="Trazado 101243" d="M643.837,57.378a1.03,1.03,0,0,1-.636-.2c-.459-.344-.295-.943-.161-1.425a2.722,2.722,0,0,0,.1-.462l.007-.074a2.015,2.015,0,0,0-.057-1,.192.192,0,0,1,.322-.207,2.172,2.172,0,0,1,.115,1.248l-.006.071a3.144,3.144,0,0,1-.117.528c-.134.487-.211.844.023,1.019.254.192.666.155,1.267-.111a.191.191,0,1,1,.153.35A2.623,2.623,0,0,1,643.837,57.378Z" transform="translate(-639.316 -42.565)" fill="#9f6464"/>
            </g>
          </g>
        </g>
        <path id="Trazado_101244" data-name="Trazado 101244" d="M641.2,49.317a4.3,4.3,0,0,0,.461,2.2c.362.656,1.2.77,1.91.827,2.221.178,4.112.688,5.55,2.512a15.564,15.564,0,0,1,2.5,6.006c.7,2.854,1.325,5.547,3.985,7.085,2.267,1.312,5.021,1.778,7.47,2.537a4.96,4.96,0,0,0-1.435-1.941,6.753,6.753,0,0,1,1.662,1.314,10.655,10.655,0,0,0-.623-1.142c.773.522,1.486,1.394,2.407,1.435-.567-2.957-2.787-4.946-3.641-7.806a24.721,24.721,0,0,1-.738-4.668c-.408-4.131-1.726-7.838-4.806-10.741a9.883,9.883,0,0,0-5.025-2.625,11.032,11.032,0,0,0-7.871,1.791A4.164,4.164,0,0,0,641.2,49.317Z" transform="translate(-616.359 -44.162)" fill="#a86060"/>
        <path id="Trazado_101245" data-name="Trazado 101245" d="M642.984,50.315a14.594,14.594,0,0,0-1.258,2.193,2.793,2.793,0,0,0-.448,2.125c.111.618.3,1.244.426,1.869a3.177,3.177,0,0,1-.789,2.642c-.016-.353.069-.736.017-1.11a5.409,5.409,0,0,1-.207-1.064A1.9,1.9,0,0,1,640.369,58c-.08-.216.022-.366.029-.564a5.006,5.006,0,0,0-.273-1.47c-.216-.779-.56-1.53-.745-2.313a8.659,8.659,0,0,1,.449-4.405,4.267,4.267,0,0,1,2.96-3.059c.814-.3,1.531-.292,1.689.744a4.537,4.537,0,0,1-.594,2.636A3.684,3.684,0,0,1,642.86,50.7Z" transform="translate(-617.251 -43.311)" fill="#a86060"/>
        <path id="Trazado_101246" data-name="Trazado 101246" d="M643.3,57.7a.176.176,0,0,1-.163-.1.179.179,0,0,1,.086-.241,4.061,4.061,0,0,1,2.967-.216.181.181,0,0,1,.092.239.179.179,0,0,1-.239.092,3.771,3.771,0,0,0-2.666.213A.182.182,0,0,1,643.3,57.7Z" transform="translate(-615.474 -38.312)" fill="#9f6464"/>
        <path id="Trazado_101247" data-name="Trazado 101247" d="M645.569,54.479a2.348,2.348,0,0,1-.992-.223.174.174,0,0,1,.158-.311,1.808,1.808,0,0,0,1.766-.1.174.174,0,1,1,.2.284A1.938,1.938,0,0,1,645.569,54.479Z" transform="translate(-614.851 -39.742)" fill="#9f6464"/>
        <path id="Trazado_101248" data-name="Trazado 101248" d="M642.276,54.92a2.368,2.368,0,0,1-.993-.222.174.174,0,0,1,.158-.311,1.8,1.8,0,0,0,1.766-.106.174.174,0,1,1,.2.284A1.929,1.929,0,0,1,642.276,54.92Z" transform="translate(-616.361 -39.54)" fill="#9f6464"/>
        <g id="Grupo_69275" data-name="Grupo 69275" transform="translate(0 65.925)">
          <g id="Grupo_69272" data-name="Grupo 69272">
            <g id="Grupo_69271" data-name="Grupo 69271">
              <path id="Trazado_101249" data-name="Trazado 101249" d="M681.319,107.4a18.86,18.86,0,0,1-4.3.646,15.593,15.593,0,0,1-4.089-.432c-.65-.162-1.95-.254-2.871-.535-5.5,1.206-27.311,5.581-41.242,2.625-12.395-5.468,3.889-19.929,3.889-19.929a39.63,39.63,0,0,1,18.8,1.945c-1.55,3.071-4.487,5.217-6.722,7.615a13.837,13.837,0,0,1,4.818.891s12.061,3.131,19.191,2.367c.831-.286,1.525-1.3,2.211-2.119a4.3,4.3,0,0,1,.987-.954c2.1-1.273,2.563,1.318,3.589,2.562a11.466,11.466,0,0,0,4.4,3.035c.624.271,2.547.369,2.893.942C683.5,107.113,681.962,107.235,681.319,107.4Z" transform="translate(-624.162 -89.372)" fill="#ff8f67"/>
              <path id="Trazado_101250" data-name="Trazado 101250" d="M642.164,96.632l-.028,0a22.875,22.875,0,0,0-8.774-.133.123.123,0,0,1-.137-.1.12.12,0,0,1,.1-.139,23.094,23.094,0,0,1,8.867.137.12.12,0,0,1,.089.146A.118.118,0,0,1,642.164,96.632Z" transform="translate(-620.01 -86.382)" fill="#fff"/>
            </g>
            <path id="Trazado_101251" data-name="Trazado 101251" d="M666.6,104.322a18.86,18.86,0,0,1-4.3.646l-.02-.042a36.523,36.523,0,0,0-1.862-4.439,6.676,6.676,0,0,0-4.137-3.091,4.3,4.3,0,0,1,.987-.954c2.1-1.273,2.563,1.318,3.589,2.562a11.466,11.466,0,0,0,4.4,3.035c.624.271,2.547.369,2.893.942C668.78,104.03,667.245,104.153,666.6,104.322Z" transform="translate(-609.445 -86.289)" fill="#7a8ecb"/>
          </g>
          <g id="Grupo_69274" data-name="Grupo 69274" transform="translate(20.497)">
            <g id="Grupo_69273" data-name="Grupo 69273" transform="translate(0.082)">
              <path id="Trazado_101252" data-name="Trazado 101252" d="M695.431,107.4a18.86,18.86,0,0,1-4.3.646,15.6,15.6,0,0,1-4.087-.432c-.652-.162-1.95-.254-2.873-.535-5.5,1.206-27.308,5.581-41.239,2.625-12.395-5.468,3.888-19.929,3.888-19.929,9.965-1.579,15.8,1.945,15.8,1.945a32.487,32.487,0,0,1-5.3,7.432,23.778,23.778,0,0,1,6.4,1.073s12.059,3.131,19.191,2.367c.831-.286,1.525-1.3,2.211-2.119a4.268,4.268,0,0,1,.986-.954c2.1-1.273,2.564,1.318,3.589,2.562a11.461,11.461,0,0,0,4.4,3.035c.623.271,2.549.369,2.892.942C697.609,107.113,696.074,107.235,695.431,107.4Z" transform="translate(-638.275 -89.372)" fill="#ff8f67"/>
              <path id="Trazado_101253" data-name="Trazado 101253" d="M656.277,96.632l-.029,0a22.891,22.891,0,0,0-8.773-.133.126.126,0,0,1-.139-.1.12.12,0,0,1,.1-.139,23.091,23.091,0,0,1,8.867.137.121.121,0,0,1-.028.239Z" transform="translate(-634.124 -86.382)" fill="#fff"/>
            </g>
            <path id="Trazado_101254" data-name="Trazado 101254" d="M680.714,104.322a18.86,18.86,0,0,1-4.3.646.268.268,0,0,0-.019-.042,36.083,36.083,0,0,0-1.862-4.439,6.668,6.668,0,0,0-4.137-3.091,4.268,4.268,0,0,1,.986-.954c2.1-1.273,2.564,1.318,3.589,2.562a11.461,11.461,0,0,0,4.4,3.035c.623.271,2.549.369,2.892.942C682.892,104.03,681.357,104.153,680.714,104.322Z" transform="translate(-623.476 -86.289)" fill="#7a8ecb"/>
            <path id="Trazado_101255" data-name="Trazado 101255" d="M642.349,108.943a.133.133,0,0,1-.041-.007c-3.189-1.1-4-4.954-4.01-4.991-.93-5.069,6.6-13.057,6.919-13.4a.125.125,0,0,1,.172,0,.123.123,0,0,1,0,.172c-.079.082-7.766,8.236-6.856,13.181.007.035.793,3.75,3.851,4.809a.124.124,0,0,1,.076.155A.125.125,0,0,1,642.349,108.943Z" transform="translate(-638.218 -88.849)" fill="#fff"/>
          </g>
        </g>
        <path id="Trazado_101256" data-name="Trazado 101256" d="M666.2,88.714c-1.944-7.129,6.807-25.6,6.807-25.6-4.538-2.429-7.294-1.457-7.294-1.457-9.233,15.068-13.932,0-13.932,0l-5.025,1.3c-2.216,8.576-.926,28.887-.684,32.373a19.308,19.308,0,0,0-3.042.68s-11.909,4.739-15.068,9.356c0,0,26.49-1.7,35.24,4.984a11.709,11.709,0,0,0,5.273-9.054C669.685,95.3,666.2,88.714,666.2,88.714Z" transform="translate(-622.419 -36.234)" fill="#7a8ecb"/>
        <path id="Trazado_101257" data-name="Trazado 101257" d="M647.635,64.675a65.1,65.1,0,0,0,2.26,15.348,28.146,28.146,0,0,0,2.587,6.531c1.008,1.754,2.387,4.054,4.7,3.813,2.285-.238,3.876-2.51,4.71-4.466L651.279,63.137l-2.593-2.431Z" transform="translate(-613.407 -36.581)" fill="#ff8f67"/>
        <path id="Trazado_101258" data-name="Trazado 101258" d="M647.217,61.771v0Z" transform="translate(-613.598 -36.149)" fill="#ff8f67"/>
        <path id="Trazado_101259" data-name="Trazado 101259" d="M652.235,62.983c-.052-.728-.36-1.393-.367-2.128a14.889,14.889,0,0,0-.193-2.695c-.185-1.012-.175-2.2-1.143-2.814-.494-.314-1.016-.074-1.541-.262a12.457,12.457,0,0,1-1.375-.882,3.217,3.217,0,0,0-2.3-.3c-.863.324-.623,1.961-.535,2.625.159,1.184.331,2.3-.487,3.31-.316.394-.828.618-.932,1.133-.1.5.239.647.357,1.056.134.465-.159.932-.155,1.388a1.915,1.915,0,0,0,.932,1.458,2.609,2.609,0,0,0,1.336.439c.628.015,1.183-.37,1.826-.292.436.054.808.312,1.244.367.508.066.777-.176,1.226-.366.513-.217,1.388-.171,1.783-.605A2.269,2.269,0,0,0,652.235,62.983Z" transform="translate(-615.374 -39.759)" fill="#fff"/>
        <path id="Trazado_101260" data-name="Trazado 101260" d="M652.495,65.378c-.152-.37-.3-.745-.426-1.13a11.312,11.312,0,0,1-.726-2.26c-.128-1.184.16-2.337-.188-3.538-.066-.229-.837-2.724-.585-2.759-.763.1-1,.875-.984,1.559-1.53-1.2-2.308-2.991-4.458-3.256a2.8,2.8,0,0,0,.663,1.578,6.852,6.852,0,0,0-.9-.852c-.014.617.324,1.148.344,1.773a2.344,2.344,0,0,0-.83-1.409c-.3,4.784,3.885,8.376,4.733,12.85a9.026,9.026,0,0,0,2.321-.7c.62-.223.863-.627,1.4-.958C652.744,65.973,652.616,65.677,652.495,65.378Z" transform="translate(-614.894 -39.657)" fill="#ff8f67"/>
        <path id="Trazado_101261" data-name="Trazado 101261" d="M652.318,67.307a.121.121,0,0,1-.111-.073l-2.854-6.623a.122.122,0,0,1,.063-.16.125.125,0,0,1,.159.064l2.854,6.622a.122.122,0,0,1-.063.16A.114.114,0,0,1,652.318,67.307Z" transform="translate(-612.624 -36.702)" fill="#fff"/>
        <path id="Trazado_101262" data-name="Trazado 101262" d="M648.273,68.335a.119.119,0,0,1-.121-.12,17.635,17.635,0,0,0-1.368-6.794.122.122,0,1,1,.22-.106,17.93,17.93,0,0,1,1.39,6.9.121.121,0,0,1-.12.122Z" transform="translate(-613.802 -36.333)" fill="#fff"/>
      </g>
      <g id="Grupo_69278" data-name="Grupo 69278" transform="translate(0 55.057)">
        <g id="Grupo_69277" data-name="Grupo 69277" transform="translate(21.979)">
          <path id="Trazado_101263" data-name="Trazado 101263" d="M591.078,96.821c-1.942-4.515-6.025-11.593-10.575-13.962-1.945-1.015-2.941-.86-3.329-.041a2.033,2.033,0,0,0-.128.373c-.634,2.763,3.1,10.18,4.071,11.623,2.477,3.673,4.827,7.373,7.3,11.04.786,1.169,1.82,2.473,2.582,3.847l4.628.023A122.6,122.6,0,0,0,591.078,96.821Z" transform="translate(-576.974 -68.914)" fill="#9adbc4"/>
          <path id="Trazado_101264" data-name="Trazado 101264" d="M596.941,112.334c-1.229-5.047-2.012-10.438-3.218-15.693-.837-3.673-1.776-7.285-2.925-10.878-1.152-3.568-2.559-9.665-5.963-11.893a3.1,3.1,0,0,0-2.489-.731,1.011,1.011,0,0,0-.283.134c-1.062.662-1.121,2.868-.958,4.847.483,5.967,3.088,10.937,5.769,16.12a96.824,96.824,0,0,1,5.341,13.16,48.982,48.982,0,0,1,2.18,6.326l2.826.012C597.14,113.292,597.06,112.824,596.941,112.334Z" transform="translate(-575.112 -73.073)" fill="#9adbc4"/>
          <path id="Trazado_101265" data-name="Trazado 101265" d="M609.613,92.019c-.112-.035-.223-.07-.34-.095a4.781,4.781,0,0,0-4.144,1.454c-3.027,2.9-4.8,7.4-5.289,11.645l4.51.022c2.046-3.081,5.983-5.14,6.836-8.9C611.719,93.827,610.9,92.466,609.613,92.019Z" transform="translate(-566.496 -64.469)" fill="#9adbc4"/>
          <path id="Trazado_101266" data-name="Trazado 101266" d="M599.289,84.284a2.854,2.854,0,0,0-.331-.172,3.065,3.065,0,0,0-.373-.137c-5.283-1.518-3.517,7.736-3.208,10.188.576,4.555.97,9.735,2.071,14.363l4.233.02.034-6.8C601.729,98.256,603.159,86.659,599.289,84.284Z" transform="translate(-568.784 -68.154)" fill="#9adbc4"/>
          <path id="Trazado_101267" data-name="Trazado 101267" d="M597.518,99.567c-.5-5.7-.666-14.095-4.588-18.669a3.9,3.9,0,0,0-2.107-1.482,1.494,1.494,0,0,0-.369-.007c-1.031.1-1.659,1.412-1.665,3.293a42.317,42.317,0,0,0,1.41,10.463c.948,3.893,2.155,7.743,3.109,11.623.445,1.8.691,4.013,1.191,5.891l3.92.019C598.323,107.042,597.837,103.17,597.518,99.567Z" transform="translate(-571.56 -70.174)" fill="#9adbc4"/>
          <path id="Trazado_101268" data-name="Trazado 101268" d="M598.461,108.439h-.356c-1.385-8.1-2.04-16.5-.044-24.422a2.854,2.854,0,0,1,.331.172C596.433,92.054,597.085,100.4,598.461,108.439Z" transform="translate(-567.888 -68.059)" fill="#fff"/>
          <path id="Trazado_101269" data-name="Trazado 101269" d="M609.215,92c-.929.957-1.8,1.964-2.62,2.991a28.166,28.166,0,0,0-5.509,10.022l-.376,0a27.432,27.432,0,0,1,5.56-10.148c.824-1.012,1.693-2,2.606-2.957C608.992,91.926,609.1,91.961,609.215,92Z" transform="translate(-566.098 -64.446)" fill="#fff"/>
          <path id="Trazado_101270" data-name="Trazado 101270" d="M596.155,110.688h-.365a282.545,282.545,0,0,0-5.859-31.278,1.5,1.5,0,0,1,.369.007A280.142,280.142,0,0,1,596.155,110.688Z" transform="translate(-571.036 -70.174)" fill="#fff"/>
          <path id="Trazado_101271" data-name="Trazado 101271" d="M595.489,113.711h-.36a151.9,151.9,0,0,0-3.036-15.875c-2.176-8.638-5.289-17.2-10.353-24.582a1.012,1.012,0,0,1,.283-.134c5.035,7.3,8.183,15.792,10.343,24.343A155.958,155.958,0,0,1,595.489,113.711Z" transform="translate(-574.79 -73.052)" fill="#fff"/>
          <path id="Trazado_101272" data-name="Trazado 101272" d="M594.029,109.506h-.385c-5.391-18.147-12.577-24.384-16.621-26.523a2.032,2.032,0,0,1,.128-.373,18.938,18.938,0,0,1,4.216,3.055C584.967,89.028,589.989,95.867,594.029,109.506Z" transform="translate(-576.951 -68.704)" fill="#fff"/>
        </g>
        <path id="Trazado_101273" data-name="Trazado 101273" d="M620.475,109.453c1.076-1.531,3.08-3.978.669-5.547-2-1.3-4.949.484-6.451,1.627,1.18-2.4,7.9-6.5,4.168-9.722-1.826-1.576-7.654-.382-9.86.01-1.935.347-4.289.936-5.613,2.476a2.015,2.015,0,0,0-1.266-2.584c-1.546-.537-3.411,1.409-4.411,2.32.525-4.525-3.771-5.333-4.834-.919-.663-1.283-.171-5.445-2.065-5.753-2.141-.351-3.759,3.959-3.616,5.655-1.684-2.536-3.864-9.822-7.635-9.79-4.275.035-3.475,7.338-2.432,9.865-.64-.964-3.08-4.407-5.028-3.182-2.059,1.3.209,5.783,1.187,7.357-.9-1.2-1.636-2.928-2.95-3.762-.787-.5-3.612-1.556-4.455-.452-1.078,1.407,2.294,5.357,4.3,8.418-2.16-.986-4.781-2.5-7.269.669a3.593,3.593,0,0,0-.6,4.15l61.462.293C624.127,108.59,623.508,107.833,620.475,109.453Z" transform="translate(-561.901 -66.588)" fill="#81c9b1"/>
      </g>
      <g id="Grupo_69280" data-name="Grupo 69280" transform="translate(24.501)">
        <path id="Trazado_101274" data-name="Trazado 101274" d="M630.229,54.273l-17.013-.16v-18.8H596.445V53.954L578.7,53.787V70.314l17.742.167v56.947h16.771V70.639l17.013.16Z" transform="translate(-578.703 -35.316)" fill="#4d3c4b"/>
        <path id="Trazado_101275" data-name="Trazado 101275" d="M634.434,54.273l-17.014-.16v-18.8H600.651V53.954l-17.74-.167V70.314l17.74.167v56.947H617.42V70.639l17.014.16Z" transform="translate(-576.775 -35.316)" fill="#897a88"/>
        <g id="Grupo_69279" data-name="Grupo 69279" transform="translate(24.805 23.279)">
          <rect id="Rectángulo_5420" data-name="Rectángulo 5420" width="11.667" height="0.835" transform="translate(2.108)" fill="#4d3c4b"/>
          <rect id="Rectángulo_5421" data-name="Rectángulo 5421" width="11.667" height="0.835" transform="translate(2.108 5.893)" fill="#4d3c4b"/>
          <rect id="Rectángulo_5422" data-name="Rectángulo 5422" width="15.797" height="0.836" transform="translate(0 2.916)" fill="#4d3c4b"/>
        </g>
      </g>
      <path id="Trazado_101276" data-name="Trazado 101276" d="M577.842,106.98c-.022-2.059,2.1-4.71,3.546-6.361,2.063-2.361,4.859-4.423,8.138-4.5,3.9-.1,6.383,3.689,10.3,3.081,2.113-.327,3.739-1.712,5.668-2.555a13.829,13.829,0,0,1,6.826-.927c4.007.416,6.759,4.146,10.686,4.907,4.207.814,8.5-.248,12.691,1.092,2.109.675,5.944,3.2,5.855,5.531Z" transform="translate(-554.597 -7.679)" fill="#b57878"/>
    </g>
  </g>
</svg>
