<svg xmlns="http://www.w3.org/2000/svg" width="400" height="327.75" viewBox="0 0 400 327.75">
  <g id="Grupo_69833" data-name="Grupo 69833" transform="translate(-1081.378 -84.211)">
    <g id="Grupo_69782" data-name="Grupo 69782" transform="translate(1142.785 102.551)">
      <path id="Trazado_102315" data-name="Trazado 102315" d="M1218.172,159.061c-.189,11.632-3.6,14.378-11.6,21.746-4.161,3.846-6.694,7.133-8.209,10.882a21.72,21.72,0,0,0-1.055,3.31,49.811,49.811,0,0,0-1.086,11.3c-.141,11.205-.263,18.115-8.542,26.129-2.195,2.128-4.213,3.809-5.894,5.434l0,.014c-2.217,2.151-3.811,4.195-4.377,7.046a15.929,15.929,0,0,0,.222,6.422c1.849,8.743,8.333,13.955,2.545,23.576a19.882,19.882,0,0,1-12.925,9.693,20.53,20.53,0,0,1-3.026.431c-15.232,1.1-32.967-13.553-32.943-29.219.029-14.65-.611-23.122-10.776-34.435-7.643-8.507-11.3-17.338-8.636-27.248a28.755,28.755,0,0,1,1.573-4.454l0-.017a37.524,37.524,0,0,1,1.708-3.366c7.135-12.474,19.329-15.508,27.271-23.319a31.131,31.131,0,0,0,2.172-2.427c2.829-3.589,4.831-8.171,5.372-14.7.636-7.483,3.111-17.28,9.626-22.432,7.313-5.759,16.065-2.108,23.791-4.253a14.2,14.2,0,0,0,2.945-1.192,10.966,10.966,0,0,0,1.138-.653c8.569-5.6,10.677-17.242,21.06-22.009,7.147-3.283,14.689-2.86,20.33.429a19.49,19.49,0,0,1,2.5,1.724c4.776,3.964,7.521,10.412,6.215,18.606-1.592,9.935-10.41,14.472-16.011,19.943-2.8,2.758-3.739,6.2-3.929,9.836-.062,1.036-.052,2.083-.021,3.117C1217.741,152.407,1218.234,155.9,1218.172,159.061Z" transform="translate(-1111.009 -93.06)" fill="#f6e8db"/>
      <path id="Trazado_102316" data-name="Trazado 102316" d="M1139.24,266.553a128.356,128.356,0,0,0,6.315,16.668,20.538,20.538,0,0,1-3.026.431,125.253,125.253,0,0,1-10.631-38.681c-.134-1.266-.238-2.539-.342-3.813a122.567,122.567,0,0,1,1.241-28.135,138.3,138.3,0,0,1,5.912-23.52c.359-1.022.717-2.045,1.088-3.065,6.8-18.455,16.915-35.206,27.7-49.559q.957-1.278,1.907-2.508a288.3,288.3,0,0,1,37.755-40.014,19.48,19.48,0,0,1,2.5,1.724c-13.135,11.419-34.615,32.329-51.314,59.328-.887,1.447-1.772,2.908-2.624,4.391,0,0-.01,0-.012.012-9.4,16.107-16.944,34.225-20.013,53.679-.073.464-.147.931-.205,1.4q-.426,2.857-.7,5.722a116.781,116.781,0,0,0,3.374,42.092l0,.015C1138.5,264.008,1138.853,265.284,1139.24,266.553Z" transform="translate(-1089.31 -91.669)" fill="#fff"/>
      <path id="Trazado_102317" data-name="Trazado 102317" d="M1154.055,126.123a1.453,1.453,0,0,1-2.044-.34,4.7,4.7,0,0,1-.265-.408c-1.115-1.689-4.9-8.258-5.811-19.1a14.2,14.2,0,0,0,2.945-1.192,43.016,43.016,0,0,0,4.773,17.781c.435.783.721,1.179.742,1.214A1.462,1.462,0,0,1,1154.055,126.123Z" transform="translate(-1073.555 -80.164)" fill="#fff"/>
      <path id="Trazado_102318" data-name="Trazado 102318" d="M1184.333,121.654a168.313,168.313,0,0,0-40.192,12.219s-.01,0-.013.012a1.508,1.508,0,0,1-.887.1,1.463,1.463,0,0,1-.375-2.76c.311-.149,1.673-.79,3.9-1.743a169.256,169.256,0,0,1,37.589-10.944C1184.291,119.573,1184.3,120.62,1184.333,121.654Z" transform="translate(-1077.729 -65.74)" fill="#fff"/>
      <path id="Trazado_102319" data-name="Trazado 102319" d="M1146.239,155.9a1.425,1.425,0,0,1-1.339.452,1.5,1.5,0,0,1-.723-.363.042.042,0,0,0-.027-.019c-.555-.539-10.648-10.314-17.98-27.907a31.131,31.131,0,0,0,2.172-2.427,87.705,87.705,0,0,0,16.9,27.268c.561.582.889.9.928.935A1.44,1.44,0,0,1,1146.239,155.9Z" transform="translate(-1094.75 -58.131)" fill="#fff"/>
      <path id="Trazado_102320" data-name="Trazado 102320" d="M1176.063,140.652a21.707,21.707,0,0,0-1.055,3.31c-28.628,7.869-40.318,26.371-40.488,26.622a1.272,1.272,0,0,1-.34.383,1.441,1.441,0,0,1-1.175.288,1.686,1.686,0,0,1-.5-.184,1.491,1.491,0,0,1-.487-2.019,36.8,36.8,0,0,1,2.868-3.807C1140.211,158.957,1153.174,146.465,1176.063,140.652Z" transform="translate(-1088.704 -42.024)" fill="#fff"/>
      <path id="Trazado_102321" data-name="Trazado 102321" d="M1155.493,196.116a1.469,1.469,0,0,1-1.508.657,1.37,1.37,0,0,1-.514-.2c-.029-.019-.137-.085-.321-.209-3.224-2.147-30.226-20.906-41.723-52.22a28.755,28.755,0,0,1,1.573-4.454c9.191,28.891,32.5,47.568,39.809,52.86,1.368.976,2.166,1.5,2.234,1.542A1.48,1.48,0,0,1,1155.493,196.116Z" transform="translate(-1110.562 -43.059)" fill="#fff"/>
      <path id="Trazado_102322" data-name="Trazado 102322" d="M1156.99,162.939c-2.217,2.151-3.811,4.195-4.377,7.046a62.922,62.922,0,0,0-15.638,22.164,1.5,1.5,0,0,1-.835.858,1.427,1.427,0,0,1-.8.075,1.46,1.46,0,0,1-.245-.062,1.477,1.477,0,0,1-.87-1.882c.062-.153.329-.85.837-1.965l0-.015C1137.243,184.237,1143.943,171.353,1156.99,162.939Z" transform="translate(-1086.21 -18.123)" fill="#fff"/>
    </g>
    <g id="Grupo_69783" data-name="Grupo 69783" transform="translate(1089.912 93.752)">
      <path id="Trazado_102323" data-name="Trazado 102323" d="M1093.422,130.871a7.856,7.856,0,0,1,0-11.075l20.668-20.668a7.85,7.85,0,0,1,11.073,0l20.672,20.668a7.856,7.856,0,0,1,0,11.075l-20.672,20.668a7.85,7.85,0,0,1-11.073,0Z" transform="translate(-1079.446 -80.205)" fill="#f9eae1"/>
      <rect id="Rectángulo_5513" data-name="Rectángulo 5513" width="10.633" height="10.633" rx="0.895" transform="translate(0 19.07) rotate(-44.995)" fill="#f2d4c7"/>
      <path id="Rectángulo_5514" data-name="Rectángulo 5514" d="M.677,0H7.362a.675.675,0,0,1,.675.675V7.36a.676.676,0,0,1-.676.676H.676A.676.676,0,0,1,0,7.361V.677A.677.677,0,0,1,.677,0Z" transform="matrix(0.707, -0.707, 0.707, 0.707, 19.451, 76.326)" fill="#f2d4c7"/>
      <path id="Trazado_102324" data-name="Trazado 102324" d="M1108.8,104.414a2.66,2.66,0,0,1-1.9-.783l-5.135-5.135a2.682,2.682,0,0,1,0-3.788l5.135-5.135a2.751,2.751,0,0,1,3.79,0l5.138,5.135a2.693,2.693,0,0,1,0,3.788l-5.138,5.135A2.653,2.653,0,0,1,1108.8,104.414Zm0-14.157a1.2,1.2,0,0,0-.858.352l-5.135,5.135a1.211,1.211,0,0,0,0,1.712l5.135,5.135a1.245,1.245,0,0,0,1.714,0l5.138-5.135a1.22,1.22,0,0,0,0-1.714l-5.136-5.133A1.194,1.194,0,0,0,1108.8,90.258Z" transform="translate(-1068.888 -88.815)" fill="#f2d4c7"/>
      <path id="Trazado_102325" data-name="Trazado 102325" d="M1122.57,134.68a3.208,3.208,0,0,1-2.279-.939l-6.568-6.569a3.227,3.227,0,0,1,0-4.557l6.568-6.569a3.309,3.309,0,0,1,4.557,0l6.569,6.569a3.227,3.227,0,0,1,0,4.557l-6.569,6.569A3.2,3.2,0,0,1,1122.57,134.68Zm0-18.109a1.743,1.743,0,0,0-1.241.512l-6.568,6.569a1.756,1.756,0,0,0,0,2.483l6.568,6.567a1.807,1.807,0,0,0,2.481,0l6.569-6.569a1.758,1.758,0,0,0,0-2.481l-6.569-6.569A1.74,1.74,0,0,0,1122.57,116.572Z" transform="translate(-1056.235 -60.588)" fill="#f2d4c7"/>
      <path id="Trazado_102326" data-name="Trazado 102326" d="M1128.807,112.736a2.662,2.662,0,0,1-1.894-.781l-5.137-5.135a2.693,2.693,0,0,1,0-3.788l5.137-5.135a2.75,2.75,0,0,1,3.788,0l5.138,5.135a2.691,2.691,0,0,1,0,3.788l-5.138,5.137A2.676,2.676,0,0,1,1128.807,112.736Zm0-14.157a1.2,1.2,0,0,0-.856.354l-5.137,5.133a1.218,1.218,0,0,0,0,1.714l5.135,5.135a1.247,1.247,0,0,0,1.714,0l5.136-5.133a1.217,1.217,0,0,0,0-1.714l-5.136-5.133A1.2,1.2,0,0,0,1128.807,98.58Z" transform="translate(-1047.426 -79.888)" fill="#f2d4c7"/>
    </g>
    <g id="Grupo_69784" data-name="Grupo 69784" transform="translate(1378.558 139.051)">
      <path id="Trazado_102327" data-name="Trazado 102327" d="M1236.8,325.572a7.575,7.575,0,0,1-6.7,1.1,7.229,7.229,0,0,1-1.718-.8,7.038,7.038,0,0,1-2.176-2.035,7.534,7.534,0,0,1-1.084-6.663,7.7,7.7,0,0,1,1.291-2.41l-.01-.017s.046-.048.12-.133c.047-.062.114-.12.164-.18,2.773-3.148,25.476-30.13,29.681-71.837.191-1.741.331-3.511.448-5.305,1.152-19.068-1.669-40.975-11.815-64.92a40.471,40.471,0,0,1-2.321-5.266.1.1,0,0,1-.04-.073,41.991,41.991,0,0,1-2.323-18.185c.1-1,.224-1.992.4-3a39.816,39.816,0,0,1,1.341-5.656,42.043,42.043,0,0,1,32.278-28.769c.968-.191,1.952-.344,2.941-.45a42.022,42.022,0,0,1,42.2,22.239c.593,1.107,1.115,2.24,1.6,3.393a41.99,41.99,0,0,1,3.227,17.008,246.767,246.767,0,0,1-7.488,65.262c-.429,1.712-.889,3.43-1.372,5.169l0,.015C1305.141,260.959,1283.2,302.806,1236.8,325.572Z" transform="translate(-1224.778 -110.673)" fill="#f6e8db"/>
      <path id="Trazado_102328" data-name="Trazado 102328" d="M1264.424,285.559l0,.015c-.329.512-.677,1.034-1.005,1.546a165.719,165.719,0,0,1-35.771,38.6,7.035,7.035,0,0,1-2.176-2.035,162.019,162.019,0,0,0,36.2-39.292q1.89-2.941,3.624-5.881c16.532-28.191,21.806-57.919,22.252-83.223.027-1.867.035-3.712.031-5.513-.015-1.281-.039-2.535-.075-3.792-.866-31.774-8.64-59.434-13.9-74.71.968-.191,1.952-.344,2.941-.45a268.734,268.734,0,0,1,12.057,51.706q.184,1.489.363,2.974c.756,6.514,1.281,13.307,1.478,20.291a191.854,191.854,0,0,1-5.716,53.111c-.3,1.107-.591,2.23-.922,3.341A158.047,158.047,0,0,1,1264.424,285.559Z" transform="translate(-1224.038 -110.514)" fill="#fff"/>
      <path id="Trazado_102329" data-name="Trazado 102329" d="M1288.834,124.944c-10.934,21.068-27.665,27.782-31.382,29.049-.464.162-.719.236-.752.24a1.421,1.421,0,0,1-.827-.01,1.463,1.463,0,0,1,.064-2.81c.029-.006.439-.124,1.152-.394,4.383-1.612,20.2-8.66,30.143-29.467C1287.825,122.659,1288.347,123.792,1288.834,124.944Z" transform="translate(-1192.533 -99.006)" fill="#fff"/>
      <path id="Trazado_102330" data-name="Trazado 102330" d="M1281.195,177.185a1.568,1.568,0,0,1-.953.054l-.046-.012a1.483,1.483,0,0,1-.921-.844c-.13-.363-12.774-30.242-47-45.736.1-1,.224-1.992.4-3a100.975,100.975,0,0,1,47.6,44.078c1.14,2.157,1.7,3.469,1.72,3.54A1.451,1.451,0,0,1,1281.195,177.185Z" transform="translate(-1216.736 -92.468)" fill="#fff"/>
      <path id="Trazado_102331" data-name="Trazado 102331" d="M1285.235,168.056l0,.015a103.924,103.924,0,0,1-30.346,18.268,1.536,1.536,0,0,1-.91.008,1.459,1.459,0,0,1-.955-.931,1.477,1.477,0,0,1,.937-1.859c.052-.017.5-.168,1.291-.489a103.783,103.783,0,0,0,31.359-20.181C1286.178,164.6,1285.718,166.317,1285.235,168.056Z" transform="translate(-1194.568 -54.679)" fill="#fff"/>
      <path id="Trazado_102332" data-name="Trazado 102332" d="M1248.71,220.731a1.48,1.48,0,0,1-.9,1.024,1.507,1.507,0,0,1-.866.052l-.1-.029a1.485,1.485,0,0,1-.993-1.743c.01-.027.085-.373.207-1.009a70.645,70.645,0,0,0-1.44-29.554,68.368,68.368,0,0,0-4.6-12.393c.191-1.741.332-3.511.448-5.305a75.3,75.3,0,0,1,9.216,41.371,54.585,54.585,0,0,1-.868,7.05l0,.015C1248.756,220.53,1248.719,220.7,1248.71,220.731Z" transform="translate(-1208.431 -45.15)" fill="#fff"/>
    </g>
    <g id="Grupo_69785" data-name="Grupo 69785" transform="translate(1089.912 238.1)">
      <path id="Trazado_102333" data-name="Trazado 102333" d="M1230.61,292.465a40.552,40.552,0,0,1-1.83,9.166c-.417,1.2-.866,2.389-1.368,3.519-12.507,28.089-56.947,35.888-83.347,27.028a74.184,74.184,0,0,1-22.856-12.327c-1.563-1.239-3.075-2.534-4.512-3.9-13.875-13.01-22.245-30.943-26.792-50.641v-.019c-.36-1.544-.7-3.071-1.007-4.634-5.266-26.506-4.043-55.673-.288-80.056.719-4.638,1.511-9.094,2.392-13.336-.991,4.835-.126,11.143,1.815,17.539,3,9.974,8.567,20.164,13.636,25.43a78.508,78.508,0,0,0,17.578,13.585q1.772,1.023,3.61,1.94h.019a81.418,81.418,0,0,0,23.055,7.62c6.63,1.115,13.837,1.815,21.149,2.694,1.188.145,2.394.29,3.577.45,22.985,2.912,45.986,8.375,53.391,34.143A61,61,0,0,1,1230.61,292.465Z" transform="translate(-1085.362 -167.266)" fill="#f6e8db"/>
      <path id="Trazado_102334" data-name="Trazado 102334" d="M1227.1,301.631c-.417,1.2-.866,2.389-1.368,3.519-7.009-.483-13.783-1.237-20.307-2.317h-.054c-.522-.07-1.022-.145-1.542-.234-.023,0-.058-.017-.077-.017a.212.212,0,0,1-.105-.019,172.131,172.131,0,0,1-31-8.122c-1.115-.414-2.211-.845-3.289-1.277a134.6,134.6,0,0,1-22.175-11.141c-2.05-1.277-4.062-2.605-6.022-4.008h-.017c-1.33-.916-2.6-1.886-3.884-2.874-.23-.162-.445-.342-.68-.522a119.5,119.5,0,0,1-10.532-9.237c-26.558-26.145-35.974-60.056-39.12-84.781.719-4.638,1.511-9.094,2.392-13.336.27,5.142.823,11.087,1.815,17.539,3.629,23.615,13.207,54.181,37.448,78.028,1.15,1.132,2.3,2.228,3.5,3.27l.019.019c2.281,2.12,4.652,4.1,7.116,6h.019s0,.019.015.019q20.949,16.171,49.814,23.648h.035q7.442,1.94,15.365,3.27h.037c.019,0,.033.021.056.021A219.443,219.443,0,0,0,1227.1,301.631Z" transform="translate(-1083.681 -167.266)" fill="#fff"/>
      <path id="Trazado_102335" data-name="Trazado 102335" d="M1120.606,245.751a1.742,1.742,0,0,1-.972.29,1.624,1.624,0,0,1-.7-.164,1.546,1.546,0,0,1-.68-.522.883.883,0,0,1-.126-.143,77.962,77.962,0,0,1-4.348-8.356l-.019-.019c-4.08-8.93-9.578-24.243-9.738-42.283q1.771,1.023,3.61,1.94h.019a103.033,103.033,0,0,0,13.245,46.363h.019a3.463,3.463,0,0,0,.23.414A1.8,1.8,0,0,1,1120.606,245.751Z" transform="translate(-1065.352 -138.002)" fill="#fff"/>
      <path id="Trazado_102336" data-name="Trazado 102336" d="M1149.3,231.917a1.79,1.79,0,0,1-1.794,1.8c-.035,0-.181,0-.466-.019-3.863-.089-30.622-1.4-58.959-16.714v-.019c-.36-1.544-.7-3.071-1.007-4.634a139.941,139.941,0,0,0,53.911,17.34.049.049,0,0,0,.033.019c4.01.412,6.381.433,6.507.433A1.782,1.782,0,0,1,1149.3,231.917Z" transform="translate(-1083.532 -118.939)" fill="#fff"/>
      <path id="Trazado_102337" data-name="Trazado 102337" d="M1164.783,265.827a1.783,1.783,0,0,1-1.457,1.4.033.033,0,0,1-.054,0,.553.553,0,0,1-.251.037,2.291,2.291,0,0,1-.358-.037c-.091-.017-.433-.089-1.009-.251a.212.212,0,0,1-.105-.019,48.357,48.357,0,0,1-14.54-6.775h-.015a45.974,45.974,0,0,1-14.685-16.119c-6.36-11.7-7.763-26.307-4.224-43.6,1.188.145,2.394.29,3.577.45-3.449,16.552-2.174,30.423,3.811,41.44,8.176,15.058,22.929,20,26.9,21.1h.037c.611.18.955.253.97.253A1.8,1.8,0,0,1,1164.783,265.827Z" transform="translate(-1041.583 -131.661)" fill="#fff"/>
      <path id="Trazado_102338" data-name="Trazado 102338" d="M1158.113,229.748a1.808,1.808,0,0,1-.145.412c-.27.611-7.206,14.718-27.872,21.474a75.409,75.409,0,0,1-23.648,3.54c-.485,0-.972,0-1.455-.017-1.563-1.239-3.075-2.535-4.512-3.9,12.094.792,21.458-.719,28.5-3.036,19.211-6.292,25.683-19.464,25.754-19.6a.4.4,0,0,1,.089-.145,1.783,1.783,0,0,1,2.3-.7A1.8,1.8,0,0,1,1158.113,229.748Z" transform="translate(-1069.147 -102.571)" fill="#fff"/>
    </g>
    <g id="Grupo_69789" data-name="Grupo 69789" transform="translate(1316.706 84.211)">
      <path id="Trazado_102342" data-name="Trazado 102342" d="M1211.651,102.7a4.382,4.382,0,0,1-2.949-1.134l-5.117-4.644a4.406,4.406,0,0,1-.3-6.207l4.64-5.115a4.533,4.533,0,0,1,6.207-.3l5.119,4.64a4.4,4.4,0,0,1,.3,6.209l-4.64,5.117A4.406,4.406,0,0,1,1211.651,102.7Zm-.466-17.284a3.149,3.149,0,0,0-2.331,1.028l-4.64,5.115a3.153,3.153,0,0,0,.218,4.435l5.115,4.642a3.251,3.251,0,0,0,4.435-.218l4.638-5.117a3.15,3.15,0,0,0-.211-4.435l-5.119-4.642A3.127,3.127,0,0,0,1211.184,85.415Z" transform="translate(-1187.194 -84.211)" fill="#f2d4c7"/>
      <path id="Trazado_102343" data-name="Trazado 102343" d="M1204.438,110.859a4.385,4.385,0,0,1-2.949-1.136l-5.117-4.64a4.4,4.4,0,0,1-.3-6.209l4.638-5.117a4.544,4.544,0,0,1,6.211-.3l5.117,4.64a4.405,4.405,0,0,1,.3,6.211l-4.64,5.117A4.408,4.408,0,0,1,1204.438,110.859Zm-.469-17.284a3.144,3.144,0,0,0-2.329,1.026L1197,99.718a3.145,3.145,0,0,0,.216,4.435l5.117,4.64a3.244,3.244,0,0,0,4.435-.216l4.64-5.119a3.143,3.143,0,0,0-.216-4.435l-5.117-4.64A3.123,3.123,0,0,0,1203.969,93.575Z" transform="translate(-1194.932 -75.46)" fill="#f2d4c7"/>
      <path id="Trazado_102344" data-name="Trazado 102344" d="M1222.425,111.874a4.378,4.378,0,0,1-2.949-1.136l-5.117-4.638a4.407,4.407,0,0,1-.307-6.209l4.644-5.117a4.539,4.539,0,0,1,6.209-.3l5.117,4.64a4.405,4.405,0,0,1,.3,6.209l-4.638,5.117A4.419,4.419,0,0,1,1222.425,111.874Zm-.468-17.282a3.143,3.143,0,0,0-2.329,1.026l-4.642,5.115a3.148,3.148,0,0,0,.218,4.437l5.115,4.638a3.249,3.249,0,0,0,4.437-.216l4.638-5.117a3.146,3.146,0,0,0-.216-4.435l-5.113-4.64A3.146,3.146,0,0,0,1221.957,94.593Z" transform="translate(-1175.643 -74.37)" fill="#f2d4c7"/>
      <path id="Trazado_102345" data-name="Trazado 102345" d="M1215.213,120.035a4.381,4.381,0,0,1-2.951-1.134l-5.121-4.642a4.4,4.4,0,0,1-.3-6.209l4.636-5.117a4.54,4.54,0,0,1,6.209-.3l5.117,4.642a4.4,4.4,0,0,1,.3,6.209l-4.64,5.117A4.4,4.4,0,0,1,1215.213,120.035Zm-.473-17.284a3.142,3.142,0,0,0-2.329,1.028l-4.636,5.115a3.143,3.143,0,0,0,.21,4.435l5.119,4.64a3.238,3.238,0,0,0,4.435-.216l4.64-5.117a3.146,3.146,0,0,0-.215-4.435l-5.115-4.64A3.135,3.135,0,0,0,1214.741,102.752Z" transform="translate(-1183.379 -65.62)" fill="#f2d4c7"/>
      <path id="Trazado_102346" data-name="Trazado 102346" d="M1232.449,121.687a4.382,4.382,0,0,1-2.951-1.138l-5.115-4.638a4.4,4.4,0,0,1-.3-6.209l4.642-5.117a4.533,4.533,0,0,1,6.2-.3l5.121,4.64a4.408,4.408,0,0,1,.3,6.207l-4.64,5.117A4.407,4.407,0,0,1,1232.449,121.687Zm-.473-17.286a3.145,3.145,0,0,0-2.325,1.028l-4.642,5.115a3.146,3.146,0,0,0,.22,4.437l5.112,4.64a3.238,3.238,0,0,0,4.435-.218l4.638-5.117a3.15,3.15,0,0,0-.211-4.435l-5.121-4.638A3.113,3.113,0,0,0,1231.976,104.4Z" transform="translate(-1164.893 -63.848)" fill="#f2d4c7"/>
      <path id="Trazado_102347" data-name="Trazado 102347" d="M1225.236,129.846a4.381,4.381,0,0,1-2.951-1.136l-5.117-4.64a4.4,4.4,0,0,1-.3-6.209l4.638-5.117a4.54,4.54,0,0,1,6.211-.3l5.117,4.64a4.4,4.4,0,0,1,.305,6.209l-4.642,5.117A4.4,4.4,0,0,1,1225.236,129.846Zm-.471-17.282a3.15,3.15,0,0,0-2.329,1.024l-4.64,5.117a3.145,3.145,0,0,0,.214,4.435l5.121,4.64a3.235,3.235,0,0,0,4.433-.215l4.64-5.115a3.147,3.147,0,0,0-.214-4.437l-5.119-4.64A3.127,3.127,0,0,0,1224.766,112.565Z" transform="translate(-1172.63 -55.099)" fill="#f2d4c7"/>
    </g>
    <path id="Sustracción_1" data-name="Sustracción 1" d="M7816.04,7907.444H7713.786l-102.978-102.975a45.483,45.483,0,0,1-10.072-15.21,46.5,46.5,0,0,1,0-34.693,45.471,45.471,0,0,1,10.072-15.209l121.548-121.547a45.462,45.462,0,0,1,15.208-10.073,46.5,46.5,0,0,1,34.694,0,45.5,45.5,0,0,1,15.213,10.073l121.54,121.547a45.471,45.471,0,0,1,10.072,15.209,46.5,46.5,0,0,1,0,34.693,45.483,45.483,0,0,1-10.072,15.21l-102.97,102.975Z" transform="translate(-6485.553 -7500.565)" fill="#e4cbb7" stroke="rgba(0,0,0,0)" stroke-miterlimit="10" stroke-width="1"/>
    <g id="Grupo_69828" data-name="Grupo 69828" transform="translate(1151.945 177.223)">
      <g id="Grupo_69796" data-name="Grupo 69796" transform="translate(0 21.115)">
        <g id="Grupo_69795" data-name="Grupo 69795" transform="translate(0 2.047)">
          <g id="Grupo_69794" data-name="Grupo 69794">
            <g id="Grupo_69790" data-name="Grupo 69790" transform="translate(0.578 142.903)">
              <path id="Trazado_102349" data-name="Trazado 102349" d="M1131.568,222.064s-4.818,46.1-.344,53.675h-8.946s-10.664-33.03-4.818-52.987Z" transform="translate(-1115.708 -222.064)" fill="#ff8f67"/>
              <path id="Trazado_102350" data-name="Trazado 102350" d="M1117.152,256.553c.154,1.515,1.954,2.657,3.469,2.657h22.573c1.527,0,2.572-.825,2.325-1.844s-1.666-1.82-3.167-2.037a17.6,17.6,0,0,1-3.755-.964,22.376,22.376,0,0,1-10.241-8.12,17.509,17.509,0,0,1-.935-1.486l-5.962,1.83a22.972,22.972,0,0,0-1.567,1.859,13.168,13.168,0,0,0-2.628,5.587A8.658,8.658,0,0,0,1117.152,256.553Z" transform="translate(-1114.209 -197.726)" fill="#ff8f67"/>
              <path id="Trazado_102351" data-name="Trazado 102351" d="M1117.152,251.753c.154,1.515,1.954,2.657,3.469,2.657h22.573c1.527,0,2.572-.825,2.325-1.844s-1.666-1.82-3.167-2.037a17.6,17.6,0,0,1-3.755-.964c-4.381,1.517-11.245,2.327-21.333-.33A8.659,8.659,0,0,0,1117.152,251.753Z" transform="translate(-1114.209 -192.926)" fill="#4d3c4b"/>
              <path id="Trazado_102352" data-name="Trazado 102352" d="M1124.864,255.893a.345.345,0,0,1-.334-.259c-.044-.172-4.362-17.383-3.678-28.321a.353.353,0,0,1,.365-.323.343.343,0,0,1,.321.365c-.676,10.832,3.616,27.94,3.66,28.112a.342.342,0,0,1-.249.417A.308.308,0,0,1,1124.864,255.893Z" transform="translate(-1110.271 -216.783)" fill="#fff"/>
            </g>
            <g id="Grupo_69791" data-name="Grupo 69791" transform="translate(12.734 143.366)">
              <path id="Trazado_102353" data-name="Trazado 102353" d="M1137.432,222.287s-4.816,46.1-.344,53.671h-8.947s-10.664-33.03-4.816-52.985Z" transform="translate(-1121.573 -222.287)" fill="#ff8f67"/>
              <path id="Trazado_102354" data-name="Trazado 102354" d="M1123.017,256.777c.153,1.513,1.954,2.657,3.467,2.657h22.575c1.525,0,2.572-.829,2.323-1.846s-1.664-1.813-3.165-2.033a17.819,17.819,0,0,1-3.757-.966,22.4,22.4,0,0,1-10.24-8.122,16.706,16.706,0,0,1-.937-1.488l-5.958,1.832a22.9,22.9,0,0,0-1.569,1.857,13.157,13.157,0,0,0-2.628,5.589A8.824,8.824,0,0,0,1123.017,256.777Z" transform="translate(-1120.073 -197.952)" fill="#ff8f67"/>
              <path id="Trazado_102355" data-name="Trazado 102355" d="M1123.017,251.976c.153,1.513,1.954,2.657,3.467,2.657h22.575c1.525,0,2.572-.829,2.323-1.846s-1.664-1.813-3.165-2.033a17.817,17.817,0,0,1-3.757-.966c-4.375,1.513-11.245,2.327-21.331-.332A8.825,8.825,0,0,0,1123.017,251.976Z" transform="translate(-1120.073 -193.151)" fill="#4d3c4b"/>
            </g>
            <path id="Trazado_102356" data-name="Trazado 102356" d="M1146.892,196.643s4.128,38.074.456,68.354H1115.7s-1.838-51.381,4.126-72.486Z" transform="translate(-1115.429 -110.853)" fill="#4d3c4b"/>
            <path id="Trazado_102357" data-name="Trazado 102357" d="M1148.469,173.448a5.717,5.717,0,0,0-.773,2.3c-.05.313-.091.636-.126.968-.247,2.176-.32,4.516-1.89,5.4a4.069,4.069,0,0,1-3.061.044,7.057,7.057,0,0,0-3.079-.5c-1.983.332-3.892,4.3-5.027,5.84-1.047,1.4-2.087,2.816-3.131,4.226l-8.588-7.881c5.616-10.7,1.293-14.256,1.293-14.256l-2.557-2.541c-.858-3.368.037-7.336,5.614-11.085,0,0,9.483-8.238,18.8,3.26a8.879,8.879,0,0,1,1.72,5.722c-.021,1.745-.632,3.359.64,4.841.508.586,1.623.8,1.716,1.743C1150.12,172.628,1148.979,172.694,1148.469,173.448Z" transform="translate(-1109.19 -153.108)" fill="#ff8f67"/>
            <path id="Trazado_102358" data-name="Trazado 102358" d="M1115.446,245.579s5.438-.676,13.087-5.525a94.128,94.128,0,0,0,14.793-11.628c2.317-2.246,4.779-3.5,5.939-6.779,1.443-4.081,1.212-8.65,1.764-12.807a50.033,50.033,0,0,0-8.661-35.048c-1.357-1.911-8.522-6.723-10.892-6.526,0,0-10.787.891-12.053,30.839Z" transform="translate(-1115.411 -137.933)" fill="#5b4f5a"/>
            <g id="Grupo_69793" data-name="Grupo 69793" transform="translate(34.746 12.565)">
              <g id="Grupo_69792" data-name="Grupo 69792">
                <path id="Trazado_102359" data-name="Trazado 102359" d="M1135.469,160.661a.689.689,0,0,1-.321.035,3.036,3.036,0,0,0-1.8.377.752.752,0,1,1-.8-1.275,4.614,4.614,0,0,1,2.785-.6.75.75,0,0,1,.135,1.459Z" transform="translate(-1132.195 -159.171)" fill="#aa5f5f"/>
              </g>
            </g>
            <path id="Trazado_102360" data-name="Trazado 102360" d="M1132.924,164.724a.224.224,0,0,1-.052-.441c1.507-.344,2.022,0,2.076.039a.223.223,0,0,1-.261.361c-.021-.012-.458-.257-1.714.035Z" transform="translate(-1096.906 -141.287)" fill="#aa5f5f"/>
          </g>
          <path id="Trazado_102361" data-name="Trazado 102361" d="M1133.857,161.767a2.006,2.006,0,0,1-1.372-.582.207.207,0,0,1,.28-.3,1.443,1.443,0,0,0,1.728.319.207.207,0,0,1,.286.064.2.2,0,0,1-.062.284A1.745,1.745,0,0,1,1133.857,161.767Z" transform="translate(-1097.209 -144.832)" fill="#aa5f5f"/>
        </g>
        <path id="Trazado_102362" data-name="Trazado 102362" d="M1119.364,176.06c.193-1.459.528-2.9.659-3.7.727-4.472,1.8-8.918,4.24-12.751,2.068-3.245,4.911-6.246,8.841-7.011s8.176-.769,11.581,1.181c.628.356,1.376.81,2.153,1.335a16.9,16.9,0,0,1,5.554,11.8c-2.056.379-5.027-.79-6.766-.151-1.952.723-2.027,3.842-2.232,5.7-.437,3.94-.947,7.774-1.155,11.719-5.96-.3-12.192-1.967-18.179-3-.943-.162-3.768-.22-4.358-1.04S1119.151,177.672,1119.364,176.06Z" transform="translate(-1111.365 -152.12)" fill="#9f6464"/>
        <path id="Trazado_102363" data-name="Trazado 102363" d="M1128.725,208.467c.261,4.889,1.473,10.3,1.753,15.5.17,3.138-.547,6.818.228,9.9.582,2.319,2.232,3.969,3.339,6.118a12.628,12.628,0,0,0,1.691,2.617c-1.15.655-2.416-.394-3.353-.986.083,3.324.236,7.45-1.051,10.49a3.187,3.187,0,0,1-.986-2.837,3.349,3.349,0,0,1-.377,2.912,10.327,10.327,0,0,1-.793-2.242,8.487,8.487,0,0,1-.077,2.512,22.162,22.162,0,0,1-1.013-2.139c-.224.157-.384.359-.582.493-2.881-4.137-1.73-9.991-1.76-14.567-.035-5.448-2.072-11.16-3.648-16.3-1.817-5.939-3.318-12.447-2.684-18.635.6-5.828,1.256-11.684,2.083-17.479.545-3.819,1.289-10.217,5.568-11.784C1138.8,167.751,1128.48,203.85,1128.725,208.467Z" transform="translate(-1111.316 -131.135)" fill="#ff8f67"/>
      </g>
      <g id="Grupo_69827" data-name="Grupo 69827" transform="translate(45.374)">
        <g id="Grupo_69809" data-name="Grupo 69809" transform="translate(20.593)">
          <g id="Grupo_69797" data-name="Grupo 69797" transform="translate(0.481 89.25)">
            <path id="Trazado_102364" data-name="Trazado 102364" d="M1166.666,242.635l.283,8.551,7.151-.4-.16-9.953Z" transform="translate(-1126.93 -125.122)" fill="#ff8f67"/>
            <path id="Trazado_102365" data-name="Trazado 102365" d="M1167.234,245.6l-1.194,5.272.5,4.377h19.9v-1.786l-11.543-8.36S1172.31,246.9,1167.234,245.6Z" transform="translate(-1127.6 -120.539)" fill="#935151"/>
            <path id="Trazado_102366" data-name="Trazado 102366" d="M1160.557,242.635l-.285,8.551-7.15-.4.16-9.953Z" transform="translate(-1141.455 -125.122)" fill="#ff8f67"/>
            <path id="Trazado_102367" data-name="Trazado 102367" d="M1166.693,245.6l1.194,5.272-.5,4.377h-19.9v-1.786l11.543-8.36S1161.619,246.9,1166.693,245.6Z" transform="translate(-1147.492 -120.539)" fill="#935151"/>
            <path id="Trazado_102368" data-name="Trazado 102368" d="M1152.118,255.7c.019-.5.037-.993.056-1.486.533-13.006.28-26.125,1.3-39.154.319-4.056.533-8.12.7-12.181.054-1.31,1.192-16.629-.292-16.84.025,0,5.264.709,9.61,1.3l-.313-2.338,21.149,1.409-.176.487c3.339-.45,6.333-.856,6.354-.856-1.705.238-.174,19.555-.085,21.23.218,4.159.392,8.362.928,12.5,1.171,9.036.941,18.173.721,27.26-.375,15.317.914,30.655-.926,45.926-.479,3.991.224,9.753.236,13.8l-11.783.3-7.4-87.451-7.4,87.451-11.781-.3c.012-4.043.717-9.8.236-13.8A245.744,245.744,0,0,1,1152.118,255.7Z" transform="translate(-1142.774 -184.998)" fill="#4d3c4b"/>
          </g>
          <g id="Grupo_69803" data-name="Grupo 69803" transform="translate(0 25.278)">
            <path id="Trazado_102369" data-name="Trazado 102369" d="M1171.31,160.127c-.037.352,1.3,1.685,1.5,1.971a56.016,56.016,0,0,1,3.591,5.778,62.778,62.778,0,0,1,7.038,21.227,85.254,85.254,0,0,1,.808,9.941c.027,1.579.122,5.235-1.509,6.2-1.4.825-4-1.762-5.27-2.6l-8.4-20.142Z" transform="translate(-1123.869 -147.697)" fill="#4d3c4b"/>
            <g id="Grupo_69800" data-name="Grupo 69800" transform="translate(6.572)">
              <path id="Trazado_102370" data-name="Trazado 102370" d="M1157.747,163.915a20.649,20.649,0,0,0,2.066-9.786l11.444,2.344.69,11.44-7.581,4.273-6.619-8.1Z" transform="translate(-1142.586 -154.129)" fill="#ff8f67"/>
              <g id="Grupo_69798" data-name="Grupo 69798" transform="translate(14.646 3.548)">
                <path id="Trazado_102371" data-name="Trazado 102371" d="M1157.5,161.836s1.965-3.2,1.965-6c0,0,7.856,2.688,6.408,10.855Z" transform="translate(-1157.498 -155.841)" fill="#f7eadc"/>
                <path id="Trazado_102372" data-name="Trazado 102372" d="M1161.538,166.643s1.239-7.649,6.41-10.752l.518,6.308-6.513,4.238Z" transform="translate(-1153.166 -155.787)" fill="#f7eadc"/>
              </g>
              <g id="Grupo_69799" data-name="Grupo 69799" transform="translate(0 9.132)">
                <path id="Trazado_102373" data-name="Trazado 102373" d="M1153.757,161.12l7.856-2.584,8.407,4.239,7-3.722,8.439,2.619-1.926,61.477h-26.465Z" transform="translate(-1146.864 -158.535)" fill="#5b4f5a"/>
                <path id="Trazado_102374" data-name="Trazado 102374" d="M1162.561,158.984,1172.9,186l.966,38.321s-4.136,16.264-23.435,11.3l1.378-74.158Z" transform="translate(-1150.431 -158.054)" fill="#4d3c4b"/>
                <path id="Trazado_102375" data-name="Trazado 102375" d="M1169.34,160.485l-6.2,25.364,2.622,37.633s3.307,11.715,15.989,11.44l-3.032-64.787-1.1-9.1-7.993-1.656Z" transform="translate(-1136.807 -157.626)" fill="#4d3c4b"/>
              </g>
            </g>
            <g id="Grupo_69802" data-name="Grupo 69802" transform="translate(14.982 26.588)">
              <g id="Grupo_69801" data-name="Grupo 69801" transform="translate(1.603)">
                <path id="Trazado_102376" data-name="Trazado 102376" d="M1173.575,169.409c-.976-2.008-3.515-2.477-5.477-2.45a40.223,40.223,0,0,0-7.276,1.082,12.325,12.325,0,0,1-3.566.591,7.861,7.861,0,0,1-1.89-.6l-.1,6.744c2.365.485,5.2.164,7.579.566,3.442.582,7.075,1.762,10.513,1.83C1173.406,174.971,1174.491,171.3,1173.575,169.409Z" transform="translate(-1155.263 -166.958)" fill="#fff"/>
                <path id="Trazado_102377" data-name="Trazado 102377" d="M1163.358,169.409c.974-2.008,3.513-2.477,5.478-2.45a40.2,40.2,0,0,1,7.276,1.082,12.325,12.325,0,0,0,3.566.591,7.846,7.846,0,0,0,1.888-.6L1180.443,176c-2.365.489-3.977-1.059-6.352-.657-3.442.582-7.077,1.762-10.513,1.83C1163.528,174.971,1162.443,171.3,1163.358,169.409Z" transform="translate(-1146.974 -166.958)" fill="#fff"/>
              </g>
              <path id="Trazado_102378" data-name="Trazado 102378" d="M1154.489,185.231l.55-16.4,36.8.275-2.343,15.99Z" transform="translate(-1154.489 -164.953)" fill="#b57878"/>
            </g>
            <path id="Trazado_102379" data-name="Trazado 102379" d="M1168.365,175.228a2.793,2.793,0,0,0,.636-1.948,1.981,1.981,0,0,0-1.26.624c.257-.412,1.32-1.9.962-2.421-.481-.694-1.983.62-2.4,1.138.3-.738,1.084-1.4.925-2.23-2.59.327-4.856,4.346-7.618,4.2-.133-.962-.037-3.637-1.529-3.287a6.8,6.8,0,0,1-.744,4.091,10.163,10.163,0,0,0-.468,1.175,20.906,20.906,0,0,0,3.666,6.52,8.621,8.621,0,0,0,1.762-1.063c1.9-1.246,7.45-4.555,6.957-7.388A1.56,1.56,0,0,0,1168.365,175.228Z" transform="translate(-1136.953 -136.69)" fill="#ff8f67"/>
            <path id="Trazado_102380" data-name="Trazado 102380" d="M1155.346,160.215c-.008-.01-4.429,10.03-4.621,10.693a73.787,73.787,0,0,0-2.578,14.061c-.448,4.9-3.446,20.927,4.922,20.189,2.731-.238,5.4-1.65,7.738-2.984,1.453-.827,13.441-9.392,13.149-9.705l-6.2-6.617-9.305,6.2S1164.032,170.14,1155.346,160.215Z" transform="translate(-1147.26 -147.602)" fill="#4d3c4b"/>
            <path id="Trazado_102381" data-name="Trazado 102381" d="M1163.921,174.924a2.8,2.8,0,0,1-.487-1.987,1.971,1.971,0,0,1,1.212.717c-.226-.433-1.173-2-.779-2.487.533-.657,1.934.765,2.3,1.314-.242-.754-.976-1.478-.754-2.3,2.557.526,4.518,4.7,7.286,4.766.2-.947.307-3.623,1.768-3.16a6.8,6.8,0,0,0,.435,4.132,10.573,10.573,0,0,1,.377,1.206,20.9,20.9,0,0,1-4.143,6.228,8.687,8.687,0,0,1-1.68-1.192c-1.8-1.384-7.088-5.1-6.381-7.9A1.575,1.575,0,0,1,1163.921,174.924Z" transform="translate(-1130.367 -136.912)" fill="#ff8f67"/>
            <path id="Trazado_102382" data-name="Trazado 102382" d="M1172.267,172.554l-7.1,6.816c-.311.292,11.114,9.593,12.513,10.511,1.94,1.272,4.1,2.823,6.4,3.32,2.551.549,3.674-1.708,3.985-3.865a8.919,8.919,0,0,0,.06-3.272c-.4-1.459-1.936-2.611-3.123-3.4-2.652-1.751-5.237-3.428-7.771-5.357C1176.845,177.018,1172.394,172.432,1172.267,172.554Z" transform="translate(-1128.063 -134.373)" fill="#4d3c4b"/>
          </g>
          <g id="Grupo_69808" data-name="Grupo 69808" transform="translate(16.582)">
            <g id="Grupo_69804" data-name="Grupo 69804">
              <path id="Trazado_102383" data-name="Trazado 102383" d="M1175.146,161.315a10.23,10.23,0,0,1-1.548,4.472,6.837,6.837,0,0,1-7.139,2.232,11.138,11.138,0,0,1-6.176-4.708,16.514,16.514,0,0,1-2.706-6.976,9.526,9.526,0,0,1,1.216-6.725c1.985-2.885,5.822-3.714,9.293-4.182C1177.48,144.17,1176.085,155.662,1175.146,161.315Z" transform="translate(-1152.921 -138.284)" fill="#ff8f67"/>
              <path id="Trazado_102384" data-name="Trazado 102384" d="M1159.855,149.1a4.368,4.368,0,0,1,.365-1.235,2.386,2.386,0,0,1,.2-.628,1.785,1.785,0,0,1,.684-.7,5.152,5.152,0,0,1,.9-.75,1.826,1.826,0,0,1,2.829-1.614,1.608,1.608,0,0,1,1.463-1.637,4.649,4.649,0,0,1,2.358.512,8.062,8.062,0,0,1,2.015-1.088,4.072,4.072,0,0,1,2.255.539c.365.155.5.6.847.7.3.083.889-.269,1.289-.191a2.87,2.87,0,0,1,2.037,1.523c.4.79.093,1.5.263,2.282a1.47,1.47,0,0,0,.133.348,3.5,3.5,0,0,1,2.075,1.426c1.264,1.525,3.622,6.52-.2,6.4a11.283,11.283,0,0,1,1.469.176c.329,3.618-5.488,3.488-5.059-.1a1.67,1.67,0,0,1-1.965-1.3,7.422,7.422,0,0,1-5.106,1.434,2.606,2.606,0,0,1-.021,2.852c-.684.748-2.342.139-2.016-.821a2.135,2.135,0,0,1-2.342.379,6.761,6.761,0,0,1,.531,3.668c-.86-.729-1.032-2.613-2.12-2.309a1.224,1.224,0,0,0-.686.671,3.276,3.276,0,0,0,1.279,4.168.945.945,0,0,1-1.009.377,6.5,6.5,0,0,1,.852,2.518,2.267,2.267,0,0,1-1.169,2.232,1.392,1.392,0,0,1-1.934-1.138c-.545.655-1.6.046-2.126-.624a10.692,10.692,0,0,1-1.65-9.817.447.447,0,0,1-.369.048,1.245,1.245,0,0,1-.6-1.067A6.911,6.911,0,0,1,1159.855,149.1Z" transform="translate(-1155.261 -141.932)" fill="#9f6464"/>
              <path id="Trazado_102385" data-name="Trazado 102385" d="M1166.174,158.3a8.888,8.888,0,0,1-6.547-3.117.186.186,0,0,1,.272-.255c2.852,3.028,5.75,3.138,7.224,2.934a.186.186,0,1,1,.052.369A7.33,7.33,0,0,1,1166.174,158.3Z" transform="translate(-1150.634 -128.062)" fill="#9f6464"/>
            </g>
            <g id="Grupo_69807" data-name="Grupo 69807" transform="translate(7.331 16.762)">
              <g id="Grupo_69805" data-name="Grupo 69805" transform="translate(6.051)">
                <path id="Trazado_102386" data-name="Trazado 102386" d="M1164.258,151.214a.555.555,0,0,1-.255.008,2.439,2.439,0,0,0-1.42.218.581.581,0,0,1-.794-.23.59.59,0,0,1,.23-.8,3.6,3.6,0,0,1,2.194-.344.587.587,0,0,1,.044,1.144Z" transform="translate(-1161.719 -150.02)" fill="#9f6464"/>
                <path id="Trazado_102387" data-name="Trazado 102387" d="M1163.246,151.652c.01.481-.162.881-.387.891s-.429-.383-.443-.864.159-.885.39-.891S1163.23,151.167,1163.246,151.652Z" transform="translate(-1160.972 -149.196)" fill="#9f6464"/>
              </g>
              <g id="Grupo_69806" data-name="Grupo 69806" transform="translate(12.595)">
                <path id="Trazado_102388" data-name="Trazado 102388" d="M1165.311,151.214a.545.545,0,0,0,.253.008,2.43,2.43,0,0,1,1.42.218.586.586,0,1,0,.566-1.026,3.6,3.6,0,0,0-2.194-.344.587.587,0,0,0-.044,1.144Z" transform="translate(-1164.876 -150.02)" fill="#9f6464"/>
                <path id="Trazado_102389" data-name="Trazado 102389" d="M1165.215,151.652c-.015.481.16.881.39.891s.423-.383.437-.864-.16-.885-.385-.891S1165.232,151.167,1165.215,151.652Z" transform="translate(-1164.513 -149.196)" fill="#9f6464"/>
              </g>
              <path id="Trazado_102390" data-name="Trazado 102390" d="M1165.208,155.775a8.428,8.428,0,0,1-.935-.062.182.182,0,0,1-.162-.205.187.187,0,0,1,.205-.162,5.092,5.092,0,0,0,1.306.031c.3-1.169-.7-4.211-.715-4.242a.186.186,0,0,1,.118-.234.18.18,0,0,1,.234.116c.046.137,1.113,3.363.686,4.574a.188.188,0,0,1-.093.106A1.667,1.667,0,0,1,1165.208,155.775Z" transform="translate(-1153.102 -149.087)" fill="#9f6464"/>
              <path id="Trazado_102391" data-name="Trazado 102391" d="M1160.06,152.619a.187.187,0,0,1-.174-.12c-.253-.674-.684-1.43-.937-1.48a.186.186,0,0,1,.07-.365c.586.114,1.115,1.447,1.214,1.714a.186.186,0,0,1-.174.251Z" transform="translate(-1158.798 -149.342)" fill="#9f6464"/>
              <path id="Trazado_102392" data-name="Trazado 102392" d="M1159.525,151.581a.178.178,0,0,1-.058-.008l-.537-.174a.187.187,0,0,1-.122-.234.194.194,0,0,1,.234-.12l.539.174a.188.188,0,0,1,.12.234A.184.184,0,0,1,1159.525,151.581Z" transform="translate(-1158.799 -148.928)" fill="#9f6464"/>
            </g>
            <path id="Trazado_102393" data-name="Trazado 102393" d="M1164.933,154.811a3.28,3.28,0,0,1-1.843-.522.186.186,0,1,1,.207-.309,3.69,3.69,0,0,0,3.036.216.186.186,0,1,1,.135.346A4.556,4.556,0,0,1,1164.933,154.811Z" transform="translate(-1146.954 -129.046)" fill="#9f6464"/>
          </g>
        </g>
        <g id="Grupo_69810" data-name="Grupo 69810" transform="translate(40.129 103.498)">
          <path id="Trazado_102394" data-name="Trazado 102394" d="M1172.851,206.991c-4.323-1.851-11.087-3.906-15.52-.019-2.294,2.01,2.1,2.124,4.443,2.427a24.249,24.249,0,0,0,8.754-.408,59.678,59.678,0,0,0-9.373,5.834c3.173.587,8.029-1.677,10.393-3.554a8.926,8.926,0,0,0-3.167,3.241,21.881,21.881,0,0,0,4.47-3.4c-1.032,3.536-5.514,7.624-2.651,11.357,2.039,2.657,2.327-.089,3.921-2.226,1.49-2,3.125-3.685,3.963-5.869.556,2.064.584,4.174,2.491,5.573-.068-1.154-.284-2.464.4-3.31a36.462,36.462,0,0,1,2.754,3.305c-.093-1.219-.361-2.468-.468-3.687a13.339,13.339,0,0,1,1.527,1.867,14.426,14.426,0,0,1-.363-2.524,19.866,19.866,0,0,0,12.121,7.235c.085-3.438-3.123-7.745-5.865-9.927,3.378.259,6.3,1.6,9.28,3.013a5.622,5.622,0,0,1-2.4-3.034,7.088,7.088,0,0,1,3.193,1.059c-1.652-.891-3.448-1.8-3.834-3.461,3.177-1.583,7.129-1.54,10.569-2.3-2.263-2.593-8.482-4.012-12.2-3.705,2.53-1.1,5.125-2.118,7.614-3.227-2.5-1.621-6.414-1.616-9.512-.854a7.61,7.61,0,0,0,2.9-2.34c-2.3-.814.232-4.686.978-6.182-4.775.143-8.787,3.8-11.527,6.92-.414-1.96.435-3.987-.033-5.875-3.691-.124-4.53,4.035-4.681,6.46a7.259,7.259,0,0,1-1.07-3.335c-.28.926-.483,2.021-.767,2.8-.481-1.071-.881-2.164-1.285-3.258-2.406.951-7.245-2.611-10.416-2.477.147,2.854,4.769,5.477,5.778,8.544-1.523-2.052-4.141-2.833-6.886-2.968,1.171,1.163,3.281,1.882,4.319,3.424a6.717,6.717,0,0,1-4.416-1.1,12.619,12.619,0,0,1,2.4,1.95,8.859,8.859,0,0,1-3.444-.481c2.439,1.608,5.43,4.41,8.308,4.945Z" transform="translate(-1156.687 -191.873)" fill="#81c9b1"/>
          <path id="Trazado_102395" data-name="Trazado 102395" d="M1167.84,201.491a4.712,4.712,0,0,0,.667,2.176c.8.974,2.425.149,1.5-.844,2.352-.187-.3-2.047-1.388-2.106.593-.091,1.734-.352,2.081-.875.585-.8-.1-1.306-.939-.931.114-.688.2-2.736-.962-1.581a5.664,5.664,0,0,0-.736,2.458c-.195-.742-.394-2.257-1.312-2.541-.868-.207-.951.68-.618,1.38-1.767-.618-.785,1.221.177,1.639-.68-.178-1.7-.282-2.008.437-.292.595.311,1.6.866.984-.408,1.285.686,1.662,1.225.4-.074.441-.655,1.183-.539,1.654.168.543.775.771,1.08.116.528,1.44,1.668.794,1.314-.553a9.294,9.294,0,0,1-.508-1.954Z" transform="translate(-1148.606 -186.39)" fill="#e8ca4d"/>
          <path id="Trazado_102396" data-name="Trazado 102396" d="M1170.445,197.692a4.707,4.707,0,0,0,.669,2.174c.8.974,2.423.151,1.492-.841,2.354-.187-.3-2.05-1.388-2.106.6-.093,1.737-.352,2.08-.872.591-.8-.1-1.308-.936-.933.114-.69.2-2.738-.962-1.579a5.641,5.641,0,0,0-.732,2.456c-.2-.742-.4-2.259-1.314-2.541-.87-.209-.953.678-.622,1.38-1.764-.618-.785,1.219.178,1.639-.68-.178-1.693-.282-2.008.439-.292.595.313,1.6.866.982-.408,1.283.688,1.66,1.223.4-.072.437-.649,1.179-.535,1.65.17.543.773.773,1.078.116.531,1.442,1.673.8,1.318-.553a9.029,9.029,0,0,1-.512-1.954Z" transform="translate(-1145.813 -190.464)" fill="#e8ca4d"/>
          <path id="Trazado_102397" data-name="Trazado 102397" d="M1174.655,198.533a4.733,4.733,0,0,0-2.217.516c-1.026.732-.319,2.406.74,1.548.021,2.36,2.064-.158,2.193-1.237a3.53,3.53,0,0,0,.729,2.135c.759.645,1.31-.006.995-.868.68.164,2.717.392,1.641-.848a5.567,5.567,0,0,0-2.4-.9c.754-.145,2.28-.236,2.628-1.134.267-.852-.609-1-1.335-.715.742-1.716-1.163-.866-1.647.062.226-.665.4-1.668-.3-2.033-.574-.336-1.614.2-1.04.8-1.254-.5-1.705.568-.485,1.19-.433-.106-1.13-.729-1.608-.649-.553.126-.825.717-.191,1.065-1.476.429-.912,1.612.458,1.353a9.255,9.255,0,0,1,1.985-.373Z" transform="translate(-1140.811 -188.571)" fill="#e8ca4d"/>
          <path id="Trazado_102398" data-name="Trazado 102398" d="M1171.6,202.092a4.726,4.726,0,0,0-2.218.514c-1.026.734-.319,2.408.738,1.55.02,2.36,2.064-.157,2.194-1.237a3.539,3.539,0,0,0,.727,2.137c.761.642,1.31-.008.995-.87.68.162,2.717.392,1.646-.848a5.677,5.677,0,0,0-2.4-.906c.752-.145,2.28-.234,2.626-1.132.269-.852-.609-1-1.333-.713.742-1.718-1.165-.87-1.647.06.224-.665.4-1.668-.3-2.031-.576-.336-1.616.2-1.042.792-1.252-.5-1.705.572-.481,1.2-.435-.106-1.134-.734-1.612-.651-.551.129-.825.715-.189,1.065-1.475.429-.912,1.612.458,1.353a9.075,9.075,0,0,1,1.985-.373Z" transform="translate(-1144.083 -184.753)" fill="#e8ca4d"/>
          <path id="Trazado_102399" data-name="Trazado 102399" d="M1177.931,203.169a4.677,4.677,0,0,0-2.215.514c-1.026.732-.321,2.4.738,1.55.021,2.356,2.064-.16,2.195-1.239a3.53,3.53,0,0,0,.727,2.137c.76.64,1.31-.01.995-.872.68.164,2.717.392,1.645-.848a5.661,5.661,0,0,0-2.4-.9c.755-.147,2.278-.238,2.624-1.134.27-.85-.607-1-1.33-.713.742-1.72-1.165-.87-1.648.06.222-.667.4-1.668-.3-2.035-.572-.332-1.614.2-1.04.8-1.254-.5-1.705.57-.481,1.192-.433-.1-1.134-.732-1.612-.651-.551.131-.823.717-.189,1.065-1.476.429-.912,1.612.456,1.353a9.254,9.254,0,0,1,1.988-.371Z" transform="translate(-1137.296 -183.602)" fill="#e8ca4d"/>
          <path id="Trazado_102400" data-name="Trazado 102400" d="M1174.372,205.244a4.7,4.7,0,0,0-2.217.514c-1.026.732-.319,2.406.738,1.55.019,2.36,2.066-.157,2.192-1.239a3.547,3.547,0,0,0,.728,2.137c.763.64,1.312-.008.995-.868.68.162,2.717.39,1.645-.848a5.6,5.6,0,0,0-2.4-.906c.757-.147,2.284-.234,2.63-1.134.27-.85-.609-1-1.332-.713.742-1.718-1.163-.87-1.65.06.226-.665.4-1.666-.294-2.031-.576-.336-1.619.2-1.041.8-1.258-.5-1.708.568-.487,1.192-.431-.106-1.129-.734-1.608-.651-.553.128-.827.717-.191,1.065-1.476.427-.908,1.614.456,1.355a9.041,9.041,0,0,1,1.987-.373Z" transform="translate(-1141.115 -181.374)" fill="#e8ca4d"/>
          <path id="Trazado_102401" data-name="Trazado 102401" d="M1167.873,205.074a4.727,4.727,0,0,0-2.217.516c-1.026.732-.319,2.4.74,1.548.017,2.36,2.062-.157,2.193-1.237a3.554,3.554,0,0,0,.727,2.137c.761.642,1.31-.008.995-.87.678.164,2.717.392,1.644-.848a5.565,5.565,0,0,0-2.4-.9c.752-.147,2.279-.236,2.626-1.132.269-.854-.609-1-1.332-.717.74-1.716-1.165-.868-1.648.062.224-.665.4-1.668-.3-2.033-.574-.334-1.616.2-1.04.794-1.256-.5-1.708.572-.485,1.194-.431-.106-1.132-.729-1.608-.649-.553.126-.827.715-.193,1.065-1.475.429-.908,1.612.46,1.353a9.229,9.229,0,0,1,1.985-.373Z" transform="translate(-1148.084 -181.556)" fill="#e8ca4d"/>
          <path id="Trazado_102402" data-name="Trazado 102402" d="M1163.242,201.966a4.735,4.735,0,0,0-2.22.514c-1.026.734-.319,2.406.738,1.55.023,2.36,2.066-.157,2.195-1.237a3.564,3.564,0,0,0,.727,2.137c.761.642,1.31-.012,1-.87.68.162,2.717.392,1.641-.848a5.648,5.648,0,0,0-2.4-.906c.755-.145,2.28-.234,2.628-1.132.27-.852-.613-1-1.335-.713.742-1.718-1.162-.87-1.65.06.228-.663.4-1.67-.292-2.033-.576-.334-1.619.2-1.042.794-1.254-.5-1.705.572-.485,1.194-.433-.1-1.13-.732-1.61-.651-.551.131-.825.717-.191,1.067-1.476.429-.91,1.612.46,1.353a8.985,8.985,0,0,1,1.983-.373Z" transform="translate(-1153.054 -184.889)" fill="#e8ca4d"/>
          <path id="Trazado_102403" data-name="Trazado 102403" d="M1165.894,196.824a4.688,4.688,0,0,0-2.216.514c-1.028.732-.321,2.406.736,1.55.021,2.36,2.066-.157,2.2-1.239a3.542,3.542,0,0,0,.725,2.139c.761.64,1.312-.008.995-.87.682.162,2.715.392,1.644-.85a5.64,5.64,0,0,0-2.4-.9c.754-.145,2.28-.234,2.626-1.134.27-.85-.609-.995-1.331-.713.74-1.718-1.167-.87-1.647.062.222-.665.4-1.668-.3-2.033-.572-.336-1.616.2-1.04.8-1.254-.5-1.706.568-.483,1.192-.431-.106-1.132-.732-1.612-.649-.551.126-.825.715-.189,1.063-1.473.429-.91,1.614.456,1.355a9.148,9.148,0,0,1,1.985-.373Z" transform="translate(-1150.205 -190.404)" fill="#e8ca4d"/>
        </g>
        <g id="Grupo_69817" data-name="Grupo 69817" transform="translate(99.513 5.015)">
          <path id="Trazado_102404" data-name="Trazado 102404" d="M1199.37,244.5l-.271,8.2-6.853-.389.154-9.534Z" transform="translate(-1177.937 -38.804)" fill="#ff8f67"/>
          <path id="Trazado_102405" data-name="Trazado 102405" d="M1205.248,247.348l1.142,5.046-.474,4.195h-19.06v-1.712l11.054-8.008S1200.386,248.585,1205.248,247.348Z" transform="translate(-1183.718 -34.413)" fill="#935151"/>
          <path id="Trazado_102406" data-name="Trazado 102406" d="M1205.223,244.5l.271,8.2,6.853-.389-.154-9.534Z" transform="translate(-1164.021 -38.804)" fill="#ff8f67"/>
          <path id="Trazado_102407" data-name="Trazado 102407" d="M1205.766,247.348l-1.14,5.046.473,4.195h19.064v-1.712l-11.058-8.008S1210.627,248.585,1205.766,247.348Z" transform="translate(-1164.661 -34.413)" fill="#935151"/>
          <path id="Trazado_102408" data-name="Trazado 102408" d="M1230.263,257.017c.222-2.59,1.156-4.9,1.154-7.533,0-2.561-.908-4.808-1.154-7.3-.574-5.718,1.486-11.8-.51-17.311-.968-2.675-2.547-34.414-1.2-34.6l-9.205,1.241.3-2.238-20.264,1.353.17.464-6.087-.821c1.347.182-.226,31.921-1.2,34.6-2,5.506.064,11.593-.505,17.311-.251,2.489-1.154,4.735-1.158,7.3,0,2.636.93,4.943,1.158,7.533.485,5.643-.947,10.345.073,15.993,1.16,6.443.234,13.187,1.019,19.7.458,3.824-.213,9.34-.226,13.216l11.288.288,7.092-83.78,7.092,83.78,11.288-.288c-.013-3.875-.684-9.392-.226-13.216.784-6.514-.143-13.257,1.024-19.7C1231.21,267.362,1229.774,262.66,1230.263,257.017Z" transform="translate(-1179.694 -96.168)" fill="#4d3c4b"/>
          <path id="Trazado_102409" data-name="Trazado 102409" d="M1202.914,158.881a5.663,5.663,0,0,0-2.157-.868l2.091,3.5Z" transform="translate(-1168.811 -129.702)" fill="#5b4f5a"/>
          <g id="Grupo_69812" data-name="Grupo 69812" transform="translate(8.839 31.043)">
            <g id="Grupo_69811" data-name="Grupo 69811" transform="translate(0 5.334)">
              <path id="Trazado_102410" data-name="Trazado 102410" d="M1234.42,177.386c-.153.771-.356,1.542-.586,2.342a38.121,38.121,0,0,0-1.324,5.564c-.044.367-.093.719-.153,1.092-.094.694-.2,1.372-.323,2.06-.292,1.82-.615,3.668-.862,5.486-.062.417-.106.817-.153,1.233-.079.661-.139,1.31-.183,1.956v.046c-.11,1.706-.19,3.419-.232,5.129-.015.645-.031,1.31-.048,1.973-.033,1.94-.045,3.882-.06,5.838,0,.632-.017,1.266-.017,1.892-.016,1.372-.029,2.746-.06,4.118a13.99,13.99,0,0,0,.274,2.431,15.09,15.09,0,0,1,.28,1.834,4.551,4.551,0,0,1-.955,3.693c-1.894,2.128-6.685,1.836-9.245,1.958-20.655.814-26.168-3.312-26.168-3.312a6.716,6.716,0,0,1-1.173-3.554c-.06-.634-.093-1.283-.11-1.9a30.262,30.262,0,0,1,.174-3.637c-.064-.508-.124-1.013-.187-1.523-.077-.632-.158-1.279-.23-1.909-.154-1.374-.323-2.758-.493-4.126-.077-.715-.17-1.405-.246-2.114-.2-1.65-.4-3.312-.6-4.961-.047-.4-.091-.8-.153-1.2-.064-.649-.153-1.312-.23-1.958-.153-1.324-.323-2.665-.479-3.987-.1-.881-.218-1.745-.34-2.607-.093-.676-.182-1.353-.278-2.016-.271-2.016-.518-4-.611-5.913-.033-.7-.05-1.374-.033-2.033a20.044,20.044,0,0,1,.412-3.975c.016-.077.037-.17.05-.247a12.575,12.575,0,0,1,.383-1.368,3.2,3.2,0,0,1,.11-.313,14.279,14.279,0,0,1,3.881-5.747,17.25,17.25,0,0,1,1.478-1.2c.417-.309.845-.618,1.324-.91,1.784-1.125,5.313-3.635,7.593-3.623l12.708.126a34.654,34.654,0,0,1,8.611,2.8c.6.3,1.19.618,1.759.96a18.564,18.564,0,0,1,4.479,3.589c.214.245.417.477.587.7v.017a8.7,8.7,0,0,1,.893,1.4c0,.017.013.033.033.052.013.044.029.093.041.139A8.715,8.715,0,0,1,1234.42,177.386Z" transform="translate(-1189.607 -161.905)" fill="#5b4f5a"/>
            </g>
            <path id="Trazado_102411" data-name="Trazado 102411" d="M1201.206,170.01s-3.56-5.761-1.529-10.509l-4.064-.17s-2.964,8.731-2.12,15.172Z" transform="translate(-1185.601 -159.331)" fill="#5b4f5a"/>
          </g>
          <g id="Grupo_69813" data-name="Grupo 69813" transform="translate(24.444 29.138)">
            <path id="Trazado_102412" data-name="Trazado 102412" d="M1206.714,158.412s5.8,4.323,7.711,8.518c0,0-1.016,2.543-7.5,10.548L1197.137,171S1207.476,167.1,1206.714,158.412Z" transform="translate(-1197.137 -158.412)" fill="#5b4f5a"/>
          </g>
          <path id="Trazado_102413" data-name="Trazado 102413" d="M1207.014,173.326a.237.237,0,0,1-.137-.041l-9.707-6.31a.255.255,0,0,1,.276-.429l9.5,6.182,7.313-10.1a.254.254,0,0,1,.413.3l-7.455,10.3A.26.26,0,0,1,1207.014,173.326Z" transform="translate(-1172.782 -124.867)" fill="#fff"/>
          <path id="Trazado_102414" data-name="Trazado 102414" d="M1193.594,172.553a.243.243,0,0,1-.114-.027.25.25,0,0,1-.139-.2,35.864,35.864,0,0,1,.856-10.741.253.253,0,1,1,.493.116,36.071,36.071,0,0,0-.876,10.171l6.9-4.114a.254.254,0,0,1,.259.437l-7.249,4.323A.255.255,0,0,1,1193.594,172.553Z" transform="translate(-1176.863 -126.084)" fill="#fff"/>
          <g id="Grupo_69814" data-name="Grupo 69814" transform="translate(8.449 6.078)">
            <path id="Trazado_102415" data-name="Trazado 102415" d="M1190.259,154.538c-2.736,7.753,4.87,26.035,14.451,18.908,3.088-2.3,4.57-6.126,5.262-9.788,0,0,2.566-17.284-11.856-16.337C1198.115,147.322,1191.523,148.255,1190.259,154.538Z" transform="translate(-1189.122 -147.285)" fill="#ff8f67"/>
            <path id="Trazado_102416" data-name="Trazado 102416" d="M1207.214,169.963c-1.569,2.6-5.564,6.636-8.47,3.741-1.5-1.49-1.981-3.844-2.576-5.826a21.609,21.609,0,0,1-1.254-7.042l8.932-5.821c1.01,2.193,2.106,4.362,3.316,6.453.385.669.789,1.333,1.227,1.971a3.846,3.846,0,0,1,.5.638,4.294,4.294,0,0,1-.3,3.036A18.384,18.384,0,0,1,1207.214,169.963Z" transform="translate(-1183.537 -138.995)" fill="#ff8f67"/>
            <path id="Trazado_102417" data-name="Trazado 102417" d="M1192.868,155.12a.72.72,0,0,1-.335.054,3.214,3.214,0,0,0-1.863.526.791.791,0,0,1-.922-1.285,4.851,4.851,0,0,1,2.874-.817.789.789,0,0,1,.246,1.521Z" transform="translate(-1189.419 -140.522)" fill="#9f6464"/>
            <path id="Trazado_102418" data-name="Trazado 102418" d="M1192.868,155.12a.72.72,0,0,1-.335.054,3.214,3.214,0,0,0-1.863.526.791.791,0,0,1-.922-1.285,4.851,4.851,0,0,1,2.874-.817.789.789,0,0,1,.246,1.521Z" transform="translate(-1189.419 -140.522)" fill="#9f6464"/>
            <path id="Trazado_102419" data-name="Trazado 102419" d="M1194.06,154.9a.735.735,0,0,0,.338.021,3.2,3.2,0,0,1,1.9.342.792.792,0,0,0,.794-1.37,4.875,4.875,0,0,0-2.943-.531.788.788,0,0,0-.659.9A.775.775,0,0,0,1194.06,154.9Z" transform="translate(-1185.058 -140.826)" fill="#9f6464"/>
            <path id="Trazado_102420" data-name="Trazado 102420" d="M1195.576,164.915a.184.184,0,0,1-.06-.359c5.519-1.934,6.872-7.856,6.886-7.917a.186.186,0,0,1,.22-.141.183.183,0,0,1,.141.22c-.014.062-1.407,6.182-7.127,8.186A.192.192,0,0,1,1195.576,164.915Z" transform="translate(-1183.013 -137.41)" fill="#9f6464"/>
            <path id="Trazado_102421" data-name="Trazado 102421" d="M1198.711,156.463c.211-.783.47-1.561.7-2.321a3.968,3.968,0,0,1,1.088-2.07c1.206-.8,2.224.572,2.381,1.639a9.053,9.053,0,0,1-1.171,5.334,2.512,2.512,0,0,1-1.323,1.146,1.693,1.693,0,0,1-1.624-.317,2.711,2.711,0,0,1-.388-1.722A12.316,12.316,0,0,1,1198.711,156.463Z" transform="translate(-1179.829 -142.408)" fill="#ff8f67"/>
            <path id="Trazado_102422" data-name="Trazado 102422" d="M1198.658,156.271a.173.173,0,0,1-.056-.008.187.187,0,0,1-.12-.232c.674-2.068,1.378-3.113,2.151-3.191a1.269,1.269,0,0,1,1.059.628.185.185,0,0,1-.066.251.187.187,0,0,1-.253-.066s-.286-.483-.7-.446c-.34.035-1.03.466-1.836,2.939A.189.189,0,0,1,1198.658,156.271Z" transform="translate(-1179.707 -141.333)" fill="#9f6464"/>
            <path id="Trazado_102423" data-name="Trazado 102423" d="M1198.823,154.676a.183.183,0,0,1-.079-.35l1.444-.682a.192.192,0,0,1,.249.089.187.187,0,0,1-.089.245l-1.447.682A.173.173,0,0,1,1198.823,154.676Z" transform="translate(-1179.531 -140.482)" fill="#9f6464"/>
            <path id="Trazado_102424" data-name="Trazado 102424" d="M1193.435,160.141a1.26,1.26,0,0,1-.215-.019,1.192,1.192,0,0,1-.9-.829,5.742,5.742,0,0,1-.178-2.5,6.968,6.968,0,0,0-.025-1.876.184.184,0,1,1,.361-.073,7.326,7.326,0,0,1,.033,1.975,5.344,5.344,0,0,0,.153,2.34.839.839,0,0,0,.622.6,1.992,1.992,0,0,0,1.567-.767.183.183,0,1,1,.273.245A2.511,2.511,0,0,1,1193.435,160.141Z" transform="translate(-1186.552 -139.334)" fill="#9f6464"/>
            <path id="Trazado_102425" data-name="Trazado 102425" d="M1194.768,155.809a2.31,2.31,0,0,1-1.094-.282.187.187,0,0,1-.077-.251.189.189,0,0,1,.251-.077,2.294,2.294,0,0,0,2.624-.518.182.182,0,0,1,.259-.008.184.184,0,0,1,.008.261A3.022,3.022,0,0,1,1194.768,155.809Z" transform="translate(-1184.961 -139.416)" fill="#9f6464"/>
            <path id="Trazado_102426" data-name="Trazado 102426" d="M1191.491,156.241a3.25,3.25,0,0,1-1.44-.363.186.186,0,0,1-.07-.253.19.19,0,0,1,.253-.068,2.264,2.264,0,0,0,2.665-.269.184.184,0,1,1,.259.261A2.287,2.287,0,0,1,1191.491,156.241Z" transform="translate(-1188.842 -138.76)" fill="#9f6464"/>
          </g>
          <g id="Grupo_69815" data-name="Grupo 69815" transform="translate(10.317)">
            <path id="Trazado_102427" data-name="Trazado 102427" d="M1199.223,150.826v-.135C1199.223,150.741,1199.277,151.039,1199.223,150.826Z" transform="translate(-1180.773 -137.554)" fill="#9f6464"/>
            <path id="Trazado_102428" data-name="Trazado 102428" d="M1190.633,153.92c-.529-4.636,2.959-10.178,8.111-9.514a1.407,1.407,0,0,1,.083,1.289c1.594-.769,4.528.145,2.323,1.154,1.334-.369,3.063-.462,3.9.93.4.653.563,1.289-.035,1.54a2.139,2.139,0,0,1,1.784,2.528c.174-.5,1.533.29,1.7.5.547.665.4,1.432.458,2.2.037.437.251.616.4,1.015.1.267.369,2.331-.344,1.675a.535.535,0,0,1-.2.645,9.314,9.314,0,0,1-1.426-1.364,10.926,10.926,0,0,1-1.331-1.316c.2.319.777,1.415.259,1.633s-1.826-1.608-2.327-1.828a2.743,2.743,0,0,0-1.587-.325c-.676.255.28.9-.06,1.326-.385.487-1.983-.3-2.42-.477a3.713,3.713,0,0,0-2.615-.3c.738-.195,2.213.85,1.024,1.192-.7.2-2.532-1.071-3.092-.464-.582.632.837,1.654-.17,2.151-.675.332-1.567-.823-2.112-.222-.271.3-.19.684-.568.887-.883.483-1.813-.68-1.967-1.4A8.868,8.868,0,0,1,1190.633,153.92Z" transform="translate(-1190.32 -144.352)" fill="#9f6464"/>
          </g>
          <path id="Trazado_102429" data-name="Trazado 102429" d="M1213.087,193.2c-2.657-1.556-6.327,3.913-9.78,2.346-.377,3.9,5.279.064,2.477,4.6-1.33,2.155-4.775,3.515-5.1,6.035a4.929,4.929,0,0,0,3.6-1.432,3.109,3.109,0,0,0-1.575,2.59,4.729,4.729,0,0,0,3.343-.574,16.855,16.855,0,0,0-2.209,1.428,10.384,10.384,0,0,0,3.946-.238,11.012,11.012,0,0,0-1.627.823c3.662-.257,8.3-3.618,10.184-6.837,1.351-2.313,1.206-9.394-3.262-8.741Z" transform="translate(-1168.889 -92.27)" fill="#ff8f67"/>
          <g id="Grupo_69816" data-name="Grupo 69816" transform="translate(41.113 45.219)">
            <path id="Trazado_102430" data-name="Trazado 102430" d="M1235.8,207.746a3.916,3.916,0,0,1-1.252,2.868l-21.965,18.892s-4.352-6.748-7.4-7.62l16.591-15.982a2.222,2.222,0,0,0,.323-2.682l-13.214-20.946s-.87-18.283,7.836-15.889C1216.717,166.388,1234.527,191.688,1235.8,207.746Z" transform="translate(-1205.18 -166.172)" fill="#5b4f5a"/>
          </g>
          <path id="Trazado_102431" data-name="Trazado 102431" d="M1194.432,197.342c1.347,1.187,1.546,2.98,1.712,4.679.178,1.842,1.575,3.3,1.7,4.949a2.194,2.194,0,0,1-2.5-1.5c-2.756.073-1.546,9.6-4.773,9.751a11.158,11.158,0,0,1-.027-4.986c.06.9-.551,5.724-1.911,4.549-1.109-.96-.008-4.532-.114-5.871a10.861,10.861,0,0,1-1.282,5.067c-1.045-1.175-.862-4.858-.462-6.2a14.117,14.117,0,0,1-.46,4.5c-1.554-1.175-.539-6.588-.247-8.393.392-2.41,1.258-4.889,1.542-7.291,1.117.11,6.507.064,6.824,1.065Z" transform="translate(-1185.205 -88.332)" fill="#ff8f67"/>
          <path id="Trazado_102432" data-name="Trazado 102432" d="M1193.136,159.2a.176.176,0,0,1-.12-.044.186.186,0,0,1-.023-.259,3.54,3.54,0,0,1,4.068-.6.185.185,0,0,1,.1.24.189.189,0,0,1-.24.1,3.116,3.116,0,0,0-3.649.5A.177.177,0,0,1,1193.136,159.2Z" transform="translate(-1177.182 -129.778)" fill="#9f6464"/>
          <path id="Trazado_102433" data-name="Trazado 102433" d="M1205.794,197.262a.288.288,0,0,1-.205-.491l7.718-7.912a.289.289,0,1,1,.412.4L1206,197.175A.292.292,0,0,1,1205.794,197.262Z" transform="translate(-1163.718 -96.717)" fill="#fff"/>
          <path id="Trazado_102434" data-name="Trazado 102434" d="M1196.548,166.239s-16.791,25.758-9.266,64.254l8.54-.145s3.328-37.771,9.4-45.006l-6.945-18.235Z" transform="translate(-1185.342 -120.88)" fill="#5b4f5a"/>
          <path id="Trazado_102435" data-name="Trazado 102435" d="M1191.867,207.778a.29.29,0,0,1-.284-.232c-3.161-15.512,1.687-36.957,1.739-37.17a.278.278,0,0,1,.346-.218.288.288,0,0,1,.216.346c-.048.213-4.868,21.538-1.735,36.926a.288.288,0,0,1-.224.342A.3.3,0,0,1,1191.867,207.778Z" transform="translate(-1179.795 -116.688)" fill="#fff"/>
        </g>
        <g id="Grupo_69823" data-name="Grupo 69823" transform="translate(161.397 21.437)">
          <path id="Trazado_102436" data-name="Trazado 102436" d="M1218.781,217.081c-2.319-1.245-2.311-5.529-2.352-7.736a34.848,34.848,0,0,1,.437-6.435,10.576,10.576,0,0,1,.255-2.315c.411-.487,1.345.068,1.88.027.642-.05,1.308-.45,1.954-.29.823.2.833,1.517.908,2.166a6.587,6.587,0,0,0,.8,2.945c.195.35,3.005,5.22,2.433,5.328a2.141,2.141,0,0,1-2.448-1.092c-.159,2.69,0,5.229-.677,7.693-1.088-.336-1.484-1.612-1.7-2.773a27.4,27.4,0,0,1-.035,3.061c-.951-.4-1.183-1.635-1.409-2.785A13.5,13.5,0,0,1,1218.781,217.081Z" transform="translate(-1213.897 -100.78)" fill="#ff8f67"/>
          <path id="Trazado_102437" data-name="Trazado 102437" d="M1231.36,169.371s-18,18.1-14.523,64.992l6.221-.145,10.277-45.008Z" transform="translate(-1213.928 -133.943)" fill="#5b4f5a"/>
          <path id="Trazado_102438" data-name="Trazado 102438" d="M1245.072,217.639c2.319-1.246,2.311-5.527,2.352-7.734a34.526,34.526,0,0,0-.437-6.437,10.446,10.446,0,0,0-.255-2.313c-.408-.487-1.343.066-1.878.027-.644-.054-1.307-.45-1.956-.292-.821.2-.833,1.517-.9,2.166a6.677,6.677,0,0,1-.8,2.947c-.195.35-3,5.222-2.429,5.326a2.137,2.137,0,0,0,2.446-1.09c.158,2.69,0,5.227.68,7.693,1.086-.336,1.478-1.614,1.7-2.771a27.851,27.851,0,0,0,.038,3.059c.951-.4,1.181-1.637,1.413-2.781A12.756,12.756,0,0,0,1245.072,217.639Z" transform="translate(-1190.017 -100.181)" fill="#ff8f67"/>
          <path id="Trazado_102439" data-name="Trazado 102439" d="M1244.518,205.039a12.145,12.145,0,0,1,.829,4.441l-1.072,27.594h5.981l4.472-28.97a12.438,12.438,0,0,0-.294-4.512l-9.962-34.051-8.686,15.244Z" transform="translate(-1193.129 -133.76)" fill="#5b4f5a"/>
          <g id="Grupo_69822" data-name="Grupo 69822">
            <path id="Trazado_102440" data-name="Trazado 102440" d="M1223.773,161.281c-.6,1.076.327,2.794.622,3.969a4.519,4.519,0,0,1-.659,3.681c-.655,1.239-1.343,2.182-1.142,3.67.174,1.272,1.184,2.077,1.179,3.382-.008,1.639-1.575,2.771-2.033,4.3a4.394,4.394,0,0,0-.153,2.319c.327.713,1.142.725,1.3,1.612.191,1.055-1.146,2.282.033,3.2,1.047.823,2.3-.321,3.229-.665,2.008-.738,2.2.96,3.971,1.554,2.34.788,3.372-1.082,4.816-2.035.831-.543.742.348,1.179-.758.379-.955-.156-2.516-.288-3.469-.141-1.015.263-3.167-.3-4.006-.657-.98-2.891-.819-3.969-1.032-1.5-.3-2.792-.336-3.678-1.753a15.467,15.467,0,0,1-1.469-7.206c.122-1.476,1.057-2.932,1.036-4.41-.012-.854-.365-1.515-.45-2.394a13.783,13.783,0,0,0-.149-2.75c-1.538-5.171-5.477,2.512-3.079,4.41Z" transform="translate(-1208.477 -147.499)" fill="#9f6464"/>
            <path id="Trazado_102441" data-name="Trazado 102441" d="M1220.069,207.3l17.487,5.27c-.993,7.975-2.462,17.866-3.451,25.845-.566,4.592.589,9.114.607,13.638.033,8.864-1.513,17.957-2.189,26.875-.012.162-.114,9.717.595,12.094,0,0-5.5,8.383-13.531,2.754,1.326-2.12,3.556-3.693,4.5-6.06.964-2.4.406-5.484.284-8-.178-3.925-.611-6.727-.8-10.656q-.556-11.956-1.113-23.913Z" transform="translate(-1210.501 -93.267)" fill="#ff8f67"/>
            <path id="Trazado_102442" data-name="Trazado 102442" d="M1228.679,206.492l16.293,3.194q-.877,7.227-1.745,14.447c-.615,5.055-2.1,10.008-2.209,15.093-.11,4.7,1.181,9.226,1.25,13.9a105.1,105.1,0,0,1-.887,15.926c-.647,4.787-2.443,10.074-1.755,14.952.238,1.7,1.181,3.419,1.589,5.131q.475,2.036.964,4.072l-5.351,4.468-5.071-4.468,1.619-8c.914-4.536.131-8.845-.964-13.263-2.36-9.585-.611-19.306-2.149-29.036C1228.376,230.961,1228.8,218.624,1228.679,206.492Z" transform="translate(-1200.752 -94.134)" fill="#ff8f67"/>
            <path id="Trazado_102443" data-name="Trazado 102443" d="M1246.367,168.346l13.44,5.989s-4.481,11.261-3.838,16.77c0,0-5.759,12.936-4.056,21.8l-25.374-.481c-1.478-5.9-3.1-11.118-4.642-17a20.735,20.735,0,0,1-.056-12.179c.379-1.436,3.722-12.8,4.63-12.77a60.675,60.675,0,0,1,9.767-1.507C1240.4,168.729,1244.4,169.565,1246.367,168.346Z" transform="translate(-1209.037 -135.042)" fill="#5b4f5a"/>
            <g id="Grupo_69821" data-name="Grupo 69821" transform="translate(16.023 4.167)">
              <path id="Trazado_102444" data-name="Trazado 102444" d="M1228.949,167.094c-1.049.373-1.95.98-1.538,2.3.4,1.3,1.223,2.812,1.053,4.188-.178,1.438-1,2.659-.729,4.18.777,4.422,6.995,2.9,9.407,1.181,2.072-1.482,3.753-4.584,1.983-6.82a9.257,9.257,0,0,1-1.809-3.778c-.085-.373-.723-3.784-.379-3.906-2.161.773-4.347,1.641-6.553,2.246C1229.95,166.8,1229.432,166.924,1228.949,167.094Z" transform="translate(-1218.243 -143.401)" fill="#ff8f67"/>
              <g id="Grupo_69820" data-name="Grupo 69820">
                <path id="Trazado_102445" data-name="Trazado 102445" d="M1223.389,172.5a12.951,12.951,0,0,0,.4-3.187c-.1-2.352-1.291-4.435-.688-6.988.846-3.569,2.649-5.457,5.846-7.065a10.9,10.9,0,0,1,10.6.943c5.521,3.678,6.439,10.872,3.266,16.6-1.13,2.035-1.948,3.892-3.757,5.459a15.75,15.75,0,0,1-5.428,3c-3.206,1.045-6.083,1.161-7.917-2.149-.62-1.123-1.453-2.05-2-3.27A5.18,5.18,0,0,1,1223.389,172.5Z" transform="translate(-1222.935 -154.286)" fill="#ff8f67"/>
                <path id="Trazado_102446" data-name="Trazado 102446" d="M1228.546,170.1a.255.255,0,0,1-.039-.508,8.046,8.046,0,0,0,5.651-5.135.254.254,0,0,1,.333-.141.257.257,0,0,1,.139.334,8.4,8.4,0,0,1-6.047,5.448Z" transform="translate(-1217.191 -143.548)" fill="#9f6464"/>
                <g id="Grupo_69818" data-name="Grupo 69818" transform="translate(7.745 12.695)">
                  <path id="Trazado_102447" data-name="Trazado 102447" d="M1227.119,161.647a.548.548,0,0,0,.259,0,2.527,2.527,0,0,1,1.47.232.608.608,0,0,0,.593-1.061,3.748,3.748,0,0,0-2.276-.359.6.6,0,0,0-.483.7A.609.609,0,0,0,1227.119,161.647Z" transform="translate(-1226.672 -160.412)" fill="#a86060"/>
                  <path id="Trazado_102448" data-name="Trazado 102448" d="M1226.948,162.638c-.021.7.23,1.287.561,1.3s.624-.553.649-1.256-.23-1.285-.563-1.3S1226.972,161.933,1226.948,162.638Z" transform="translate(-1226.378 -159.372)" fill="#9f6464"/>
                </g>
                <g id="Grupo_69819" data-name="Grupo 69819" transform="translate(0.793 12.863)">
                  <path id="Trazado_102449" data-name="Trazado 102449" d="M1223.905,161.919a.5.5,0,0,0,.247-.054,2.421,2.421,0,0,1,1.461-.114.6.6,0,1,0,.321-1.156,3.668,3.668,0,0,0-2.259.178.6.6,0,0,0,.23,1.146Z" transform="translate(-1223.317 -160.493)" fill="#a86060"/>
                  <path id="Trazado_102450" data-name="Trazado 102450" d="M1224.049,162.82c.139.694.518,1.2.85,1.129s.479-.68.331-1.368-.518-1.194-.845-1.127S1223.9,162.13,1224.049,162.82Z" transform="translate(-1222.591 -159.469)" fill="#9f6464"/>
                </g>
                <path id="Trazado_102451" data-name="Trazado 102451" d="M1226.387,166.642a1.494,1.494,0,0,1-1.032-.354c-.605-.539-.309-1.359-.069-2.021a4.029,4.029,0,0,0,.2-.638l.019-.1a2.839,2.839,0,0,0,.033-1.409.269.269,0,1,1,.474-.253,3.02,3.02,0,0,1,.023,1.757l-.019.1a4.628,4.628,0,0,1-.222.729c-.245.667-.392,1.161-.085,1.436.448.392,1.235.176,1.791-.019a.269.269,0,0,1,.178.508A4.078,4.078,0,0,1,1226.387,166.642Z" transform="translate(-1220.722 -146.314)" fill="#9f6464"/>
              </g>
            </g>
            <path id="Trazado_102452" data-name="Trazado 102452" d="M1240.223,247.411s4.63,10.381-4.153,10.7c0,0-8.464.321-5.43-10.54C1230.64,247.571,1236.07,253.8,1240.223,247.411Z" transform="translate(-1199.353 -50.253)" fill="#935151"/>
            <path id="Trazado_102453" data-name="Trazado 102453" d="M1215.474,256.671c.987,1.6,6.8.568,8.338.568,1.877,0,3.15-.242,5.027-.242l5.032-2.394.481,2.394,2.874-.24a29.7,29.7,0,0,0,.748-9.127c-2.323,2.029-7.293,5.181-13.033,1.592l-4.484,3.227C1219.573,253.077,1213.912,254.153,1215.474,256.671Z" transform="translate(-1215.203 -50.02)" fill="#935151"/>
            <path id="Trazado_102454" data-name="Trazado 102454" d="M1229.013,165.687a.244.244,0,0,1-.085-.014,5.57,5.57,0,0,0-3.407-.2.254.254,0,0,1-.327-.153.259.259,0,0,1,.154-.327,5.885,5.885,0,0,1,3.751.2.255.255,0,0,1-.085.5Z" transform="translate(-1204.505 -138.859)" fill="#9f6464"/>
            <path id="Trazado_102455" data-name="Trazado 102455" d="M1270.306,272.235c-2.4-11.064-5.958-22.1-6.986-33.243-1.113-12.005-.87-24.589-3.384-36.4-.361-1.718-2.638-14.067-5.024-14.544l-1.6-.319-21.717-.077c-7.7,13.321-13.725,75.188-14.571,84.684A173.3,173.3,0,0,0,1270.306,272.235Z" transform="translate(-1213.247 -114.337)" fill="#5b4f5a"/>
            <path id="Trazado_102456" data-name="Trazado 102456" d="M1239.024,164.11a13.388,13.388,0,0,0-.39,4.134c-1.461.265-2.91.446-4.327.562a17.907,17.907,0,0,1-.205-4.033,22.089,22.089,0,0,0-.394,4.081c-.906.081-1.8.124-2.659.153a10.815,10.815,0,0,1-.222-3.795,7.328,7.328,0,0,0-.1,3.8c-1.453.033-2.827.017-4.076-.027-.6-1.8.259-5,.547-7.452a9.386,9.386,0,0,0-1.714,3.658c-.181.669-.048,2.74-.181,3.726-1.919-.108-3.494-.29-4.526-.423a28.99,28.99,0,0,1,1.53-6.634c1.728-4.478,5.274-7.287,9.634-8.866a13.559,13.559,0,0,1,9.411.278c4.829,1.826,5.229,5.993,4.93,10.528-.025.485.006,1.355,0,2.215a34.359,34.359,0,0,1-7.1,2.132A9.9,9.9,0,0,1,1239.024,164.11Z" transform="translate(-1209.221 -152.276)" fill="#9f6464"/>
            <path id="Trazado_102457" data-name="Trazado 102457" d="M1253.24,175.681a5.88,5.88,0,0,0-.118-1.246c-.506-2.375-2.234-4.284-2.792-6.644a10.871,10.871,0,0,0-1.289-3.614c-.773-1.185-2.176-1.857-2.8-3.14a8.213,8.213,0,0,0-3.486-3.861c-1.113-.655-1.853-2.072-3.109-2.431a10.124,10.124,0,0,1-3.322-1.27,3.651,3.651,0,0,0-2.466-.93c-1.975-.01-4.472.746-5.556,2.522-1.276,2.085.12,2.684,1.469,3.9.877.8,1.144,1.917,1.793,2.864.68,1,1.691,1.679,2.031,2.9.317,1.136-.105,2.518.247,3.676.232.754.866,1.3,1.095,2.035.306,1.009-.143,1.639-.251,2.607-.195,1.645.608,3.308.962,4.878.406,1.793-.582,3.579-.188,5.351.209.964.97,1.19,1.322,1.954a3.616,3.616,0,0,1,.037,2.317c-.158,1.326,1.728,3.488,3,3.832.841.228,1.766-.365,2.648-.3,1.152.085,2.137.91,3.343.74,1.546-.218,1.7-.74,3.287-.361,2.493.595,4.711-.518,4.965-3.2.174-1.826.96-3.625.993-5.457.023-1.351-1.129-2.234-1.575-3.436A10.552,10.552,0,0,1,1253.24,175.681Z" transform="translate(-1201.69 -151.987)" fill="#9f6464"/>
          </g>
          <path id="Trazado_102458" data-name="Trazado 102458" d="M1239.663,185.353a.291.291,0,0,1-.263-.17l-4.052-8.973a.288.288,0,0,1,.143-.383.3.3,0,0,1,.383.145l4.052,8.973a.289.289,0,0,1-.145.383A.3.3,0,0,1,1239.663,185.353Z" transform="translate(-1193.629 -127.045)" fill="#fff"/>
          <path id="Trazado_102459" data-name="Trazado 102459" d="M1224.574,202.75a.29.29,0,0,1-.284-.226c-.263-1.169-.553-2.742-.835-4.263-.288-1.556-.587-3.163-.854-4.348-.135-.589-.27-1.175-.406-1.764-.253-1.1-.508-2.207-.742-3.314a17.2,17.2,0,0,1-.443-6.331c.3-1.59.73-3.129,1.109-4.427.2-.7.4-1.5.605-2.319.336-1.349.684-2.746,1.1-3.886a.282.282,0,0,1,.369-.174.288.288,0,0,1,.176.371c-.4,1.113-.746,2.493-1.078,3.83-.207.825-.406,1.631-.614,2.34a44.836,44.836,0,0,0-1.092,4.373,16.573,16.573,0,0,0,.438,6.1c.236,1.1.489,2.205.742,3.305.135.586.271,1.177.4,1.764.271,1.2.57,2.81.858,4.371.282,1.515.574,3.082.835,4.242a.3.3,0,0,1-.222.346A.316.316,0,0,1,1224.574,202.75Z" transform="translate(-1209.125 -131.465)" fill="#fff"/>
          <path id="Trazado_102460" data-name="Trazado 102460" d="M1216.584,207.748h-.006a.289.289,0,0,1-.282-.3c.19-9.183,4.4-28.228,4.441-28.419a.286.286,0,0,1,.346-.22.294.294,0,0,1,.222.346c-.043.189-4.238,19.178-4.431,28.3A.291.291,0,0,1,1216.584,207.748Z" transform="translate(-1214.031 -123.826)" fill="#fff"/>
        </g>
        <g id="Grupo_69826" data-name="Grupo 69826" transform="translate(0 120.608)">
          <g id="Grupo_69824" data-name="Grupo 69824">
            <path id="Trazado_102461" data-name="Trazado 102461" d="M1263.161,234.327l-124.369.7,4.187-2.736,3.813-2.491,11-7.186,3.823-2.5,30.578-19.985h18.738l30.526,19.985,3.821,2.5,10.969,7.186,3.813,2.491Z" transform="translate(-1135.748 -200.129)" fill="#aa6868"/>
            <rect id="Rectángulo_5518" data-name="Rectángulo 5518" width="124.288" height="68.858" transform="translate(3.436 38.728)" fill="#aa6868"/>
            <rect id="Rectángulo_5519" data-name="Rectángulo 5519" width="97.436" height="63.392" transform="translate(16.862 38.728)" fill="#b57878"/>
            <rect id="Rectángulo_5520" data-name="Rectángulo 5520" width="106.804" height="5.934" transform="translate(11.554 101.494)" fill="#aa6868"/>
            <rect id="Rectángulo_5521" data-name="Rectángulo 5521" width="131.16" height="9.368" transform="translate(0 32.089)" fill="#aa6868"/>
            <path id="Trazado_102462" data-name="Trazado 102462" d="M1257.893,216.939H1140.813l3.813-2.491h109.455Z" transform="translate(-1133.582 -184.774)" fill="#b57878"/>
            <path id="Trazado_102463" data-name="Trazado 102463" d="M1235.447,212.274H1147.96l3.823-2.5h79.843Z" transform="translate(-1125.917 -189.787)" fill="#b57878"/>
          </g>
          <g id="Grupo_69825" data-name="Grupo 69825" transform="translate(33.102 58.395)">
            <rect id="Rectángulo_5522" data-name="Rectángulo 5522" width="50.271" height="22.177" transform="translate(8.749)" fill="#aa6868"/>
            <rect id="Rectángulo_5523" data-name="Rectángulo 5523" width="44.033" height="17.051" transform="translate(12.177 5.126)" fill="#9b5656"/>
            <path id="Trazado_102464" data-name="Trazado 102464" d="M1218.877,243.81h-63.708a1.873,1.873,0,0,1,0-3.747h63.708a1.873,1.873,0,0,1,0,3.747Z" transform="translate(-1153.296 -215.7)" fill="#aa6868"/>
            <path id="Trazado_102465" data-name="Trazado 102465" d="M1163.341,253.936a2.811,2.811,0,0,1-2.812-2.81V237.071a2.811,2.811,0,0,1,5.622,0v14.055A2.81,2.81,0,0,1,1163.341,253.936Z" transform="translate(-1145.539 -221.922)" fill="#aa6868"/>
            <path id="Trazado_102466" data-name="Trazado 102466" d="M1179.159,253.936a2.81,2.81,0,0,1-2.81-2.81V237.071a2.81,2.81,0,1,1,5.62,0v14.055A2.81,2.81,0,0,1,1179.159,253.936Z" transform="translate(-1128.574 -221.922)" fill="#aa6868"/>
          </g>
        </g>
      </g>
    </g>
    <g id="Grupo_69829" data-name="Grupo 69829" transform="translate(1081.378 402.994)">
      <path id="Trazado_102467" data-name="Trazado 102467" d="M1481.378,257.848c-21.679-1.822-102.987-6.974-200-6.974s-178.319,5.152-200,6.974Z" transform="translate(-1081.378 -250.874)" fill="#c17d6b"/>
    </g>
    <g id="Grupo_69832" data-name="Grupo 69832" transform="translate(1180.884 380.268)">
      <g id="Grupo_69830" data-name="Grupo 69830">
        <path id="Trazado_102468" data-name="Trazado 102468" d="M1145.557,255.024c-4.327-1.849-11.087-3.9-15.52-.019-2.294,2.012,2.1,2.126,4.439,2.431a24.324,24.324,0,0,0,8.758-.41,59.51,59.51,0,0,0-9.374,5.836c3.171.584,8.026-1.679,10.393-3.554a8.879,8.879,0,0,0-3.167,3.241,22.145,22.145,0,0,0,4.47-3.4c-1.032,3.536-5.517,7.622-2.655,11.357,2.041,2.655,2.329-.089,3.921-2.228,1.492-2,3.127-3.683,3.965-5.867.559,2.062.586,4.174,2.489,5.571-.066-1.152-.282-2.464.4-3.308a37.519,37.519,0,0,1,2.754,3.3c-.093-1.216-.365-2.468-.47-3.687a13.138,13.138,0,0,1,1.525,1.867,14.258,14.258,0,0,1-.356-2.522,19.842,19.842,0,0,0,12.119,7.233c.083-3.436-3.125-7.742-5.865-9.925,3.376.257,6.3,1.594,9.28,3.011a5.629,5.629,0,0,1-2.4-3.034,7.107,7.107,0,0,1,3.2,1.061c-1.654-.893-3.448-1.8-3.838-3.463,3.179-1.583,7.127-1.538,10.571-2.3-2.263-2.593-8.48-4.01-12.194-3.7,2.526-1.107,5.121-2.12,7.612-3.229-2.5-1.619-6.412-1.616-9.514-.85a7.54,7.54,0,0,0,2.9-2.344c-2.3-.812.234-4.684.98-6.182-4.775.143-8.787,3.8-11.527,6.92-.412-1.96.435-3.985-.031-5.875-3.691-.122-4.532,4.035-4.681,6.46a7.233,7.233,0,0,1-1.071-3.335c-.28.928-.483,2.023-.767,2.8-.481-1.071-.881-2.162-1.283-3.258-2.406.951-7.249-2.609-10.42-2.477.151,2.854,4.771,5.481,5.782,8.544-1.527-2.054-4.141-2.833-6.889-2.97,1.171,1.165,3.28,1.886,4.319,3.426a6.73,6.73,0,0,1-4.416-1.1,12.415,12.415,0,0,1,2.4,1.95,8.889,8.889,0,0,1-3.442-.481c2.435,1.608,5.43,4.408,8.306,4.943Z" transform="translate(-1129.393 -239.908)" fill="#81c9b1"/>
        <path id="Trazado_102469" data-name="Trazado 102469" d="M1140.545,249.527a4.725,4.725,0,0,0,.667,2.176c.8.972,2.422.149,1.5-.846,2.352-.187-.3-2.047-1.389-2.1.595-.091,1.735-.354,2.079-.875.586-.8-.1-1.3-.937-.931.116-.69.2-2.738-.959-1.579a5.625,5.625,0,0,0-.738,2.454c-.195-.74-.394-2.257-1.312-2.539-.868-.209-.949.678-.618,1.38-1.768-.62-.786,1.219.176,1.639-.68-.178-1.7-.284-2.008.437-.294.595.311,1.6.866.982-.408,1.285.688,1.664,1.225.4-.075.439-.653,1.181-.537,1.652.166.543.773.775,1.078.116.531,1.44,1.671.8,1.316-.553a9.307,9.307,0,0,1-.512-1.954Z" transform="translate(-1121.314 -234.424)" fill="#e8ca4d"/>
        <path id="Trazado_102470" data-name="Trazado 102470" d="M1143.152,245.729a4.681,4.681,0,0,0,.667,2.174c.8.974,2.423.151,1.494-.843,2.352-.186-.3-2.048-1.386-2.1.593-.093,1.732-.352,2.079-.875.586-.8-.1-1.308-.939-.933.116-.69.2-2.736-.962-1.579a5.662,5.662,0,0,0-.732,2.456c-.2-.742-.394-2.259-1.316-2.539-.866-.211-.951.678-.618,1.378-1.764-.618-.786,1.221.176,1.639-.68-.176-1.691-.282-2.006.439-.294.595.313,1.6.866.982-.41,1.283.69,1.66,1.223.4-.073.439-.649,1.179-.533,1.652.166.541.771.773,1.075.114.53,1.444,1.67.8,1.316-.551a9.179,9.179,0,0,1-.512-1.956Z" transform="translate(-1118.519 -238.498)" fill="#e8ca4d"/>
        <path id="Trazado_102471" data-name="Trazado 102471" d="M1147.362,246.57a4.723,4.723,0,0,0-2.217.514c-1.03.732-.321,2.406.738,1.55.023,2.358,2.064-.16,2.2-1.237a3.518,3.518,0,0,0,.726,2.135c.76.642,1.31-.01.995-.87.68.166,2.717.392,1.644-.846a5.613,5.613,0,0,0-2.4-.906c.754-.145,2.281-.236,2.627-1.134.267-.852-.609-1-1.334-.713.742-1.718-1.163-.868-1.648.06.226-.665.4-1.668-.294-2.033-.574-.334-1.617.2-1.043.8-1.254-.5-1.706.566-.481,1.19-.436-.1-1.132-.727-1.613-.647-.551.128-.825.715-.191,1.063-1.475.429-.91,1.612.46,1.353a9.361,9.361,0,0,1,1.983-.373Z" transform="translate(-1113.518 -236.606)" fill="#e8ca4d"/>
        <path id="Trazado_102472" data-name="Trazado 102472" d="M1144.309,250.129a4.716,4.716,0,0,0-2.215.514c-1.026.734-.321,2.406.736,1.55.023,2.358,2.064-.16,2.2-1.239a3.518,3.518,0,0,0,.725,2.137c.761.642,1.312-.008.995-.87.682.164,2.717.394,1.646-.848a5.639,5.639,0,0,0-2.4-.9c.752-.145,2.277-.236,2.624-1.132.267-.852-.609-1-1.332-.713.742-1.718-1.163-.87-1.646.058.222-.663.4-1.666-.3-2.031-.574-.334-1.614.2-1.042.8-1.252-.5-1.705.568-.481,1.192-.433-.106-1.132-.732-1.612-.649-.549.126-.825.713-.187,1.063-1.478.431-.914,1.612.454,1.353a9.008,9.008,0,0,1,1.987-.371Z" transform="translate(-1116.79 -232.787)" fill="#e8ca4d"/>
        <path id="Trazado_102473" data-name="Trazado 102473" d="M1150.638,251.2a4.686,4.686,0,0,0-2.215.514c-1.028.732-.319,2.4.736,1.55.023,2.356,2.064-.157,2.2-1.239a3.536,3.536,0,0,0,.725,2.137c.763.64,1.312-.008.995-.87.68.164,2.717.392,1.645-.85a5.653,5.653,0,0,0-2.4-.9c.75-.147,2.278-.234,2.624-1.134.269-.852-.609-1-1.333-.713.742-1.72-1.165-.87-1.646.06.222-.665.4-1.668-.3-2.033-.572-.334-1.614.2-1.041.8-1.252-.5-1.705.57-.483,1.192-.431-.1-1.129-.732-1.608-.649-.554.128-.827.715-.191,1.065-1.476.427-.912,1.612.458,1.353a9.136,9.136,0,0,1,1.985-.371Z" transform="translate(-1110.003 -231.636)" fill="#e8ca4d"/>
        <path id="Trazado_102474" data-name="Trazado 102474" d="M1147.08,253.279a4.728,4.728,0,0,0-2.22.514c-1.026.732-.319,2.408.736,1.55.025,2.36,2.068-.158,2.195-1.239a3.554,3.554,0,0,0,.729,2.139c.759.64,1.31-.01.995-.87.68.162,2.717.392,1.644-.848a5.605,5.605,0,0,0-2.4-.906c.754-.143,2.282-.234,2.63-1.134.267-.85-.613-.995-1.335-.713.742-1.716-1.163-.866-1.65.062.226-.667.4-1.668-.294-2.033-.576-.336-1.619.2-1.04.8-1.256-.5-1.708.568-.487,1.192-.431-.106-1.132-.732-1.608-.649-.556.126-.825.715-.191,1.063-1.478.429-.908,1.614.458,1.355a9.122,9.122,0,0,1,1.987-.373Z" transform="translate(-1113.822 -229.409)" fill="#e8ca4d"/>
        <path id="Trazado_102475" data-name="Trazado 102475" d="M1140.58,253.111a4.733,4.733,0,0,0-2.219.514c-1.026.734-.317,2.406.74,1.548.019,2.36,2.064-.155,2.193-1.237a3.566,3.566,0,0,0,.729,2.139c.759.64,1.31-.01.993-.872.682.164,2.717.392,1.644-.846a5.6,5.6,0,0,0-2.4-.906c.754-.145,2.282-.236,2.628-1.132.269-.854-.611-1-1.335-.715.742-1.718-1.162-.868-1.647.06.226-.665.4-1.668-.294-2.033-.574-.334-1.618.2-1.04.8-1.256-.5-1.71.57-.487,1.192-.431-.106-1.131-.727-1.608-.647-.553.124-.825.713-.191,1.063-1.478.429-.91,1.612.458,1.353a9.1,9.1,0,0,1,1.985-.373Z" transform="translate(-1120.791 -229.591)" fill="#e8ca4d"/>
        <path id="Trazado_102476" data-name="Trazado 102476" d="M1135.944,250a4.687,4.687,0,0,0-2.217.514c-1.026.732-.317,2.406.74,1.55.021,2.358,2.066-.16,2.195-1.239a3.531,3.531,0,0,0,.725,2.137c.761.64,1.312-.01,1-.87.678.162,2.713.394,1.643-.848a5.645,5.645,0,0,0-2.4-.9c.756-.147,2.279-.236,2.63-1.132.267-.852-.614-1-1.335-.715.742-1.716-1.165-.868-1.65.06.228-.663.4-1.666-.294-2.031-.574-.334-1.616.2-1.042.8-1.254-.5-1.706.568-.483,1.192-.431-.106-1.131-.734-1.61-.651-.551.128-.825.715-.193,1.067-1.473.427-.908,1.61.46,1.351a8.99,8.99,0,0,1,1.985-.371Z" transform="translate(-1125.76 -232.923)" fill="#e8ca4d"/>
        <path id="Trazado_102477" data-name="Trazado 102477" d="M1138.6,244.861a4.671,4.671,0,0,0-2.215.512c-1.026.734-.321,2.406.736,1.55.023,2.36,2.066-.158,2.2-1.239a3.557,3.557,0,0,0,.725,2.139c.763.64,1.31-.01,1-.87.678.164,2.715.392,1.644-.848a5.586,5.586,0,0,0-2.4-.9c.754-.145,2.279-.236,2.626-1.134.269-.852-.613-1-1.33-.713.738-1.718-1.167-.87-1.65.06.224-.665.4-1.668-.3-2.033-.574-.334-1.619.2-1.043.8-1.252-.5-1.705.568-.483,1.192-.433-.106-1.131-.73-1.612-.647-.551.124-.825.715-.188,1.063-1.476.427-.912,1.612.458,1.353a9.127,9.127,0,0,1,1.985-.373Z" transform="translate(-1122.912 -238.439)" fill="#e8ca4d"/>
      </g>
      <g id="Grupo_69831" data-name="Grupo 69831" transform="translate(111.248)">
        <path id="Trazado_102478" data-name="Trazado 102478" d="M1199.24,255.024c-4.327-1.849-11.092-3.9-15.52-.019-2.3,2.012,2.093,2.126,4.441,2.431a24.311,24.311,0,0,0,8.756-.41,59.718,59.718,0,0,0-9.375,5.836c3.169.584,8.026-1.679,10.4-3.554a8.907,8.907,0,0,0-3.171,3.241,22.062,22.062,0,0,0,4.474-3.4c-1.032,3.536-5.513,7.622-2.653,11.357,2.037,2.655,2.327-.089,3.919-2.228,1.49-2,3.125-3.683,3.962-5.867.56,2.062.587,4.174,2.489,5.571-.064-1.152-.278-2.464.406-3.308a38.23,38.23,0,0,1,2.752,3.3c-.093-1.216-.365-2.468-.47-3.687a13.306,13.306,0,0,1,1.527,1.867,14.45,14.45,0,0,1-.361-2.522,19.847,19.847,0,0,0,12.121,7.233c.081-3.436-3.125-7.742-5.865-9.925,3.376.257,6.3,1.594,9.278,3.011a5.624,5.624,0,0,1-2.4-3.034,7.124,7.124,0,0,1,3.2,1.061c-1.656-.893-3.451-1.8-3.842-3.463,3.181-1.583,7.131-1.538,10.573-2.3-2.263-2.593-8.48-4.01-12.2-3.7,2.53-1.107,5.123-2.12,7.614-3.229-2.493-1.619-6.412-1.616-9.512-.85a7.569,7.569,0,0,0,2.9-2.344c-2.3-.812.232-4.684.976-6.182-4.773.143-8.783,3.8-11.524,6.92-.412-1.96.437-3.985-.035-5.875-3.689-.122-4.526,4.035-4.679,6.46a7.236,7.236,0,0,1-1.069-3.335c-.278.928-.485,2.023-.765,2.8-.481-1.071-.883-2.162-1.283-3.258-2.408.951-7.25-2.609-10.422-2.477.149,2.854,4.769,5.481,5.78,8.544-1.523-2.054-4.141-2.833-6.885-2.97,1.169,1.165,3.283,1.886,4.319,3.426a6.739,6.739,0,0,1-4.42-1.1,12.492,12.492,0,0,1,2.4,1.95,8.892,8.892,0,0,1-3.444-.481c2.441,1.608,5.432,4.408,8.31,4.943Z" transform="translate(-1183.074 -239.908)" fill="#81c9b1"/>
        <path id="Trazado_102479" data-name="Trazado 102479" d="M1194.227,249.527a4.752,4.752,0,0,0,.667,2.176c.8.972,2.42.149,1.494-.846,2.352-.187-.3-2.047-1.388-2.1.595-.091,1.737-.354,2.081-.875.586-.8-.1-1.3-.939-.931.118-.69.2-2.738-.959-1.579a5.625,5.625,0,0,0-.736,2.454c-.2-.74-.394-2.257-1.312-2.539-.87-.209-.951.678-.62,1.38-1.766-.62-.786,1.219.174,1.639-.676-.178-1.687-.284-2,.437-.294.595.313,1.6.866.982-.412,1.285.688,1.664,1.223.4-.073.439-.649,1.181-.535,1.652.166.543.773.775,1.078.116.531,1.44,1.671.8,1.314-.553a9.28,9.28,0,0,1-.51-1.954Z" transform="translate(-1174.994 -234.424)" fill="#e8ca4d"/>
        <path id="Trazado_102480" data-name="Trazado 102480" d="M1196.835,245.729a4.734,4.734,0,0,0,.667,2.174c.8.974,2.421.151,1.5-.843,2.346-.186-.3-2.048-1.393-2.1.595-.093,1.737-.352,2.081-.875.586-.8-.1-1.308-.941-.933.118-.69.2-2.736-.958-1.579a5.631,5.631,0,0,0-.734,2.456c-.2-.742-.4-2.259-1.316-2.539-.866-.211-.951.678-.62,1.378-1.764-.618-.779,1.221.178,1.639-.68-.176-1.691-.282-2.01.439-.292.595.315,1.6.87.982-.41,1.283.688,1.66,1.221.4-.072.439-.647,1.179-.533,1.652.166.541.773.773,1.076.114.53,1.444,1.672.8,1.316-.551a9.4,9.4,0,0,1-.51-1.956Z" transform="translate(-1172.201 -238.498)" fill="#e8ca4d"/>
        <path id="Trazado_102481" data-name="Trazado 102481" d="M1201.045,246.57a4.723,4.723,0,0,0-2.217.514c-1.028.732-.322,2.406.736,1.55.021,2.358,2.064-.16,2.194-1.237a3.562,3.562,0,0,0,.727,2.135c.761.642,1.312-.01,1-.87.675.166,2.715.392,1.643-.846a5.622,5.622,0,0,0-2.4-.906c.759-.145,2.284-.236,2.628-1.134.271-.852-.611-1-1.333-.713.742-1.718-1.164-.868-1.649.06.226-.665.4-1.668-.292-2.033-.574-.334-1.619.2-1.044.8-1.25-.5-1.7.566-.481,1.19-.433-.1-1.134-.727-1.612-.647-.553.128-.825.715-.189,1.063-1.477.429-.912,1.612.456,1.353a9.415,9.415,0,0,1,1.987-.373Z" transform="translate(-1167.199 -236.606)" fill="#e8ca4d"/>
        <path id="Trazado_102482" data-name="Trazado 102482" d="M1197.99,250.129a4.706,4.706,0,0,0-2.213.514c-1.028.734-.319,2.406.736,1.55.021,2.358,2.064-.16,2.194-1.239a3.509,3.509,0,0,0,.728,2.137c.758.642,1.307-.008,1-.87.676.164,2.715.394,1.643-.848a5.646,5.646,0,0,0-2.4-.9c.752-.145,2.278-.236,2.626-1.132.267-.852-.611-1-1.33-.713.74-1.718-1.167-.87-1.652.058.226-.663.4-1.666-.3-2.031-.57-.334-1.615.2-1.04.8-1.254-.5-1.708.568-.481,1.192-.433-.106-1.134-.732-1.61-.649-.555.126-.827.713-.19,1.063-1.478.431-.912,1.612.456,1.353a9.005,9.005,0,0,1,1.987-.371Z" transform="translate(-1170.471 -232.787)" fill="#e8ca4d"/>
        <path id="Trazado_102483" data-name="Trazado 102483" d="M1204.321,251.2a4.7,4.7,0,0,0-2.218.514c-1.028.732-.315,2.4.736,1.55.021,2.356,2.066-.157,2.2-1.239a3.5,3.5,0,0,0,.725,2.137c.761.64,1.31-.008.995-.87.68.164,2.717.392,1.644-.85a5.651,5.651,0,0,0-2.4-.9c.756-.147,2.281-.234,2.63-1.134.267-.852-.615-1-1.334-.713.74-1.72-1.163-.87-1.648.06.226-.665.4-1.668-.3-2.033-.574-.334-1.619.2-1.045.8-1.25-.5-1.7.57-.481,1.192-.433-.1-1.129-.732-1.61-.649-.555.128-.827.715-.19,1.065-1.474.427-.912,1.612.458,1.353a9.13,9.13,0,0,1,1.987-.371Z" transform="translate(-1163.683 -231.636)" fill="#e8ca4d"/>
        <path id="Trazado_102484" data-name="Trazado 102484" d="M1200.762,253.279a4.714,4.714,0,0,0-2.219.514c-1.028.732-.319,2.408.738,1.55.021,2.36,2.064-.158,2.193-1.239a3.556,3.556,0,0,0,.73,2.139c.76.64,1.307-.01.993-.87.68.162,2.719.392,1.645-.848a5.622,5.622,0,0,0-2.4-.906c.754-.143,2.28-.234,2.628-1.134.267-.85-.611-.995-1.333-.713.738-1.716-1.165-.866-1.648.062.224-.667.4-1.668-.3-2.033-.572-.336-1.615.2-1.04.8-1.252-.5-1.708.568-.483,1.192-.433-.106-1.132-.732-1.61-.649-.553.126-.825.715-.191,1.063-1.478.429-.91,1.614.458,1.355a9.166,9.166,0,0,1,1.988-.373Z" transform="translate(-1167.503 -229.409)" fill="#e8ca4d"/>
        <path id="Trazado_102485" data-name="Trazado 102485" d="M1194.26,253.111a4.752,4.752,0,0,0-2.22.514c-1.024.734-.315,2.406.742,1.548.021,2.36,2.064-.155,2.192-1.237a3.565,3.565,0,0,0,.729,2.139c.757.64,1.312-.01.993-.872.68.164,2.719.392,1.641-.846a5.583,5.583,0,0,0-2.4-.906c.754-.145,2.28-.236,2.628-1.132.267-.854-.611-1-1.337-.715.742-1.718-1.16-.868-1.643.06.224-.665.4-1.668-.3-2.033-.576-.334-1.617.2-1.04.8-1.256-.5-1.708.57-.487,1.192-.433-.106-1.127-.727-1.606-.647-.556.124-.825.713-.191,1.063-1.478.429-.91,1.612.458,1.353a9.081,9.081,0,0,1,1.983-.373Z" transform="translate(-1174.471 -229.591)" fill="#e8ca4d"/>
        <path id="Trazado_102486" data-name="Trazado 102486" d="M1189.628,250a4.663,4.663,0,0,0-2.217.514c-1.028.732-.321,2.406.736,1.55.021,2.358,2.064-.16,2.195-1.239a3.533,3.533,0,0,0,.728,2.137c.76.64,1.312-.01,1-.87.68.162,2.715.394,1.643-.848a5.625,5.625,0,0,0-2.4-.9c.754-.147,2.284-.236,2.628-1.132.271-.852-.607-1-1.333-.715.742-1.716-1.165-.868-1.646.06.222-.663.4-1.666-.3-2.031-.57-.334-1.614.2-1.04.8-1.254-.5-1.7.568-.481,1.192-.433-.106-1.129-.734-1.608-.651-.553.128-.829.715-.193,1.067-1.474.427-.912,1.61.456,1.351a9.024,9.024,0,0,1,1.988-.371Z" transform="translate(-1179.44 -232.923)" fill="#e8ca4d"/>
        <path id="Trazado_102487" data-name="Trazado 102487" d="M1192.281,244.861a4.656,4.656,0,0,0-2.213.512c-1.028.734-.319,2.406.736,1.55.021,2.36,2.064-.158,2.194-1.239a3.545,3.545,0,0,0,.727,2.139c.763.64,1.312-.01.993-.87.68.164,2.721.392,1.648-.848a5.592,5.592,0,0,0-2.4-.9c.752-.145,2.277-.236,2.625-1.134.267-.852-.611-1-1.33-.713.74-1.718-1.167-.87-1.648.06.222-.665.4-1.668-.3-2.033-.574-.334-1.615.2-1.04.8-1.25-.5-1.708.568-.481,1.192-.433-.106-1.134-.73-1.61-.647-.555.124-.827.715-.191,1.063-1.477.427-.912,1.612.456,1.353a9.184,9.184,0,0,1,1.987-.373Z" transform="translate(-1176.593 -238.439)" fill="#e8ca4d"/>
      </g>
    </g>
  </g>
</svg>
